<?xml version="1.0" encoding="UTF-8" standalone="no"?>
<!-- Created with Inkscape (http://www.inkscape.org/) -->

<svg
   width="1920mm"
   height="1080mm"
   viewBox="0 0 1920 1080"
   version="1.1"
   id="svg1"
   inkscape:version="1.3.2 (091e20e, 2023-11-25)"
   xml:space="preserve"
   inkscape:export-filename="Small Cloud backdrop.png"
   inkscape:export-xdpi="96"
   inkscape:export-ydpi="96"
   sodipodi:docname="Small Cloud backdrop.svg"
   xmlns:inkscape="http://www.inkscape.org/namespaces/inkscape"
   xmlns:sodipodi="http://sodipodi.sourceforge.net/DTD/sodipodi-0.dtd"
   xmlns="http://www.w3.org/2000/svg"
   xmlns:svg="http://www.w3.org/2000/svg"><sodipodi:namedview
     id="namedview1"
     pagecolor="#ffffff"
     bordercolor="#000000"
     borderopacity="0.25"
     inkscape:showpageshadow="2"
     inkscape:pageopacity="0.0"
     inkscape:pagecheckerboard="0"
     inkscape:deskcolor="#d1d1d1"
     inkscape:document-units="mm"
     showgrid="false"
     inkscape:zoom="0.095911458"
     inkscape:cx="3628.3465"
     inkscape:cy="2038.3383"
     inkscape:window-width="1356"
     inkscape:window-height="697"
     inkscape:window-x="0"
     inkscape:window-y="0"
     inkscape:window-maximized="1"
     inkscape:current-layer="layer1" /><defs
     id="defs1" /><g
     inkscape:label="Layer 1"
     inkscape:groupmode="layer"
     id="layer1"><rect
       style="fill:#ffffff;stroke-width:3;stroke-linecap:round"
       id="rect1"
       width="1920"
       height="1080"
       x="0"
       y="0" /><g
       inkscape:label="Layer 1"
       id="layer1-2"
       transform="matrix(1.1131818,0,0,1.1131818,357.65756,-30.291471)"><path
         id="path1"
         style="fill:#94ff0f;fill-opacity:1;stroke:none;stroke-width:10.7174;stroke-linecap:round;stroke-linejoin:bevel;stroke-opacity:1"
         d="m 580.87184,192.21399 a 99.245527,102.33026 0 0 0 -97.12182,82.48846 109.15016,109.15016 0 0 0 -81.0857,-36.09305 109.15016,109.15016 0 0 0 -109.15015,109.15011 109.15016,109.15016 0 0 0 0.74114,10.36585 96.854281,81.350086 0 0 0 -3.20018,-0.0644 96.854281,81.350086 0 0 0 -96.85395,81.35055 96.854281,81.350086 0 0 0 67.53283,77.41731 73.396274,64.106386 0 0 0 -5.17987,23.22893 73.396274,64.106386 0 0 0 73.39544,64.10711 73.396274,64.106386 0 0 0 62.83126,-31.18505 122.15792,69.932584 0 0 0 117.79502,51.49373 122.15792,69.932584 0 0 0 116.09324,-48.62385 37.745848,44.072795 0 0 0 6.74674,0.79755 37.745848,44.072795 0 0 0 30.11664,-17.69157 82.634469,74.629935 0 0 0 59.3431,22.94997 82.634469,74.629935 0 0 0 82.63445,-74.62998 82.634469,74.629935 0 0 0 -2.18514,-16.99373 85.047367,73.824466 0 0 0 61.77495,-70.96461 85.047367,73.824466 0 0 0 -85.04717,-73.82442 85.047367,73.824466 0 0 0 -43.51041,10.54806 53.32495,58.138665 0 0 0 -52.77157,-49.81609 53.32495,58.138665 0 0 0 -4.48811,0.35043 99.245527,102.33026 0 0 0 0.83478,-12.03135 99.245527,102.33026 0 0 0 -99.24552,-102.3299 z" /><path
         id="path10"
         style="fill:#76d500;fill-opacity:1;stroke:none;stroke-width:6.14086;stroke-linecap:round;stroke-linejoin:bevel;stroke-opacity:1"
         d="m 725.14142,426.94797 a 56.865724,58.633218 0 0 0 -55.64888,47.26426 62.540881,62.540881 0 0 0 -46.46051,-20.68062 62.540881,62.540881 0 0 0 -62.54087,62.54086 62.540881,62.540881 0 0 0 0.42465,5.93944 55.495588,46.61199 0 0 0 -1.83364,-0.037 55.495588,46.61199 0 0 0 -55.49541,46.61225 55.495588,46.61199 0 0 0 38.695,44.35859 42.054614,36.731691 0 0 0 -2.96796,13.30972 42.054614,36.731691 0 0 0 42.05412,36.73211 42.054614,36.731691 0 0 0 36.00108,-17.86842 69.994071,40.069988 0 0 0 67.49421,29.50488 69.994071,40.069988 0 0 0 66.51912,-27.86049 21.627624,25.252841 0 0 0 3.86576,0.45697 21.627624,25.252841 0 0 0 17.25625,-10.13692 47.347918,42.761477 0 0 0 34.00241,13.14988 47.347918,42.761477 0 0 0 47.34791,-42.7615 47.347918,42.761477 0 0 0 -1.25205,-9.73706 48.73046,42.299959 0 0 0 35.39582,-40.66133 48.73046,42.299959 0 0 0 -48.73033,-42.29994 48.73046,42.299959 0 0 0 -24.9306,6.04383 30.554143,33.312305 0 0 0 -30.23709,-28.54362 30.554143,33.312305 0 0 0 -2.57158,0.20077 56.865724,58.633218 0 0 0 0.47831,-6.89372 56.865724,58.633218 0 0 0 -56.86572,-58.63301 z" /><path
         style="fill:none;fill-opacity:1;stroke:#76d500;stroke-width:10.3854;stroke-linecap:round;stroke-linejoin:bevel;stroke-opacity:1"
         d="m 498.75377,416.30913 c 9.62197,22.39262 27.02898,24.61466 32.01714,0.0491"
         id="path15"
         sodipodi:nodetypes="cc" /><path
         style="fill:none;fill-opacity:1;stroke:#76d500;stroke-width:10.3854;stroke-linecap:round;stroke-linejoin:bevel;stroke-opacity:1"
         d="M 540.33009,381.91704 V 360.48591"
         id="path16"
         sodipodi:nodetypes="cc" /><path
         style="fill:none;fill-opacity:1;stroke:#76d500;stroke-width:10.3854;stroke-linecap:round;stroke-linejoin:bevel;stroke-opacity:1"
         d="M 496.93982,381.91704 V 360.48591"
         id="path17"
         sodipodi:nodetypes="cc" /><path
         style="fill:none;fill-opacity:1;stroke:#94ff0f;stroke-width:6.02114;stroke-linecap:round;stroke-linejoin:bevel;stroke-opacity:1"
         d="m 663.27802,558.07635 c 5.57853,12.98256 15.67059,14.27083 18.56257,0.0285"
         id="path18"
         sodipodi:nodetypes="cc" /><path
         style="fill:none;fill-opacity:1;stroke:#94ff0f;stroke-width:6.02114;stroke-linecap:round;stroke-linejoin:bevel;stroke-opacity:1"
         d="M 687.38271,538.13685 V 525.71172"
         id="path19"
         sodipodi:nodetypes="cc" /><path
         style="fill:none;fill-opacity:1;stroke:#94ff0f;stroke-width:6.02114;stroke-linecap:round;stroke-linejoin:bevel;stroke-opacity:1"
         d="M 662.22635,538.13685 V 525.71172"
         id="path20"
         sodipodi:nodetypes="cc" /><path
         style="fill:#76d500;fill-opacity:1;stroke:#94ff0f;stroke-width:10.3854;stroke-linecap:round;stroke-linejoin:bevel;stroke-opacity:1"
         d="m 748.30872,541.13406 c 6.38186,-2.05799 14.5896,-3.22278 19.34397,-8.60637 16.61158,-18.81023 26.62574,-51.65903 23.30081,-76.19761"
         id="path21" /><path
         style="fill:#76d500;fill-opacity:1;stroke:#94ff0f;stroke-width:10.3854;stroke-linecap:round;stroke-linejoin:bevel;stroke-opacity:1"
         d="m 747.61303,539.17258 c -4.63146,-1.24155 -7.85773,-4.95936 -11.89756,-7.1906"
         id="path22" /><path
         style="fill:#76d500;fill-opacity:1;stroke:#94ff0f;stroke-width:10.3854;stroke-linecap:round;stroke-linejoin:bevel;stroke-opacity:1"
         d="m 745.99791,541.97492 c -3.67487,2.40462 -7.94386,3.01309 -12.25501,3.17027"
         id="path23" /><path
         style="fill:#76d500;fill-opacity:1;stroke:#94ff0f;stroke-width:10.3854;stroke-linecap:round;stroke-linejoin:bevel;stroke-opacity:1"
         d="m 747.6531,543.89505 c -0.69146,4.29802 -0.96178,9.56918 -4.11019,12.94332"
         id="path24" /><text
         xml:space="preserve"
         style="font-style:normal;font-variant:normal;font-weight:normal;font-stretch:normal;font-size:85.7627px;line-height:1;font-family:'RED BURGER';-inkscape-font-specification:'RED BURGER';letter-spacing:0px;word-spacing:0px;fill:#76d500;fill-opacity:1;stroke:none;stroke-width:44.5695;stroke-linecap:round;stroke-linejoin:bevel;stroke-opacity:1"
         x="294.74011"
         y="830.21875"
         id="text24"><tspan
           sodipodi:role="line"
           id="tspan24"
           style="font-style:normal;font-variant:normal;font-weight:normal;font-stretch:normal;font-family:'RED BURGER';-inkscape-font-specification:'RED BURGER';stroke:none;stroke-width:44.5695"
           x="294.74011"
           y="830.21875"><tspan
   style="fill:#fdfd00;fill-opacity:1;stroke-width:44.5695"
   id="tspan25">S</tspan>mall <tspan
   style="fill:#ffff00;fill-opacity:1;stroke-width:44.5695"
   id="tspan26">C</tspan>loud</tspan></text></g></g></svg>
