<?xml version="1.0" encoding="UTF-8" standalone="no"?>
<!-- Created with Inkscape (http://www.inkscape.org/) -->

<svg
   width="500mm"
   height="500mm"
   viewBox="0 0 500 500"
   version="1.1"
   id="svg1"
   inkscape:version="1.3.2 (091e20e, 2023-11-25)"
   xml:space="preserve"
   sodipodi:docname="Avast.svg"
   xmlns:inkscape="http://www.inkscape.org/namespaces/inkscape"
   xmlns:sodipodi="http://sodipodi.sourceforge.net/DTD/sodipodi-0.dtd"
   xmlns="http://www.w3.org/2000/svg"
   xmlns:svg="http://www.w3.org/2000/svg"><sodipodi:namedview
     id="namedview1"
     pagecolor="#ffffff"
     bordercolor="#000000"
     borderopacity="0.25"
     inkscape:showpageshadow="2"
     inkscape:pageopacity="0.0"
     inkscape:pagecheckerboard="0"
     inkscape:deskcolor="#d1d1d1"
     inkscape:document-units="mm"
     showgrid="false"
     inkscape:zoom="0.25982083"
     inkscape:cx="944.88189"
     inkscape:cy="944.88189"
     inkscape:window-width="1356"
     inkscape:window-height="697"
     inkscape:window-x="0"
     inkscape:window-y="0"
     inkscape:window-maximized="1"
     inkscape:current-layer="g5" /><defs
     id="defs1"><filter
       inkscape:collect="always"
       style="color-interpolation-filters:sRGB"
       id="filter6"
       x="-0.19663439"
       y="-0.1953953"
       width="1.3932688"
       height="1.3907906"><feGaussianBlur
         inkscape:collect="always"
         stdDeviation="2.4744545"
         id="feGaussianBlur6" /></filter></defs><g
     inkscape:label="Layer 1"
     inkscape:groupmode="layer"
     id="layer1"><g
       id="g5"
       transform="matrix(1.5460111,0,0,1.5460111,-410.03434,-153.13649)"><path
         id="path1"
         style="fill:#f60909;fill-opacity:1;stroke:#c30707;stroke-width:3.23413;stroke-linecap:round;stroke-linejoin:round;stroke-dasharray:none;stroke-opacity:1"
         d="m 503.19587,124.83516 c -22.37596,-1.14345 -36.27414,22.3982 -36.27414,22.3982 -40.82822,47.62935 -84.1923,9.22097 -84.24116,8.97585 -22.96274,-19.68967 -38.29624,8.99688 -30.28997,24.78339 26.25326,68.25886 -41.47821,100.1112 -48.4094,110.47857 -12.82183,17.06814 -5.96298,33.98147 6.48698,40.42077 12.44996,6.43929 29.86399,1.98705 30.61383,1.50565 26.9869,-10.24431 69.79237,-4.16386 69.79237,-4.16386 0,0 19.51902,1.91472 56.73433,33.28085 37.21534,31.36609 66.66057,8.86816 66.66057,8.86816 0,0 49.0052,-37.78468 -9.16322,-83.7868 -58.16844,-46.00206 0,-86.40896 0,-86.40896 5.99537,-4.74113 16.21528,-14.71717 18.69834,-21.95504 6.96366,-34.9729 -18.23258,-53.25334 -40.60853,-54.39678 z"
         sodipodi:nodetypes="sccccsccscsccs" /><circle
         style="opacity:1;fill:#c30707;fill-opacity:1;stroke-width:6.46826;stroke-linecap:round;stroke-linejoin:round"
         id="path2"
         cx="427.35596"
         cy="248.18448"
         r="31.365313" /><g
         id="g6"
         transform="matrix(1.1091282,0,0,1.1091282,-51.238251,-23.016229)"
         style="fill:#070707;fill-opacity:1;filter:url(#filter6);opacity:0.55973865"><rect
           style="fill:#070707;fill-opacity:1;stroke:none;stroke-width:10.4384;stroke-linecap:round;stroke-linejoin:round;stroke-dasharray:none;stroke-opacity:1"
           id="rect3"
           width="7.8056936"
           height="30.393211"
           x="438.42834"
           y="229.66"
           ry="4.2525578" /><path
           id="path4"
           style="fill:#070707;fill-opacity:1;stroke:none;stroke-width:10;stroke-linecap:round;stroke-linejoin:round;stroke-dasharray:none;stroke-opacity:1"
           d="m 429.44652,231.4427 a 13.4139,13.4139 0 0 0 -13.41417,13.41416 13.4139,13.4139 0 0 0 13.41417,13.41366 13.4139,13.4139 0 0 0 13.41365,-13.41366 13.4139,13.4139 0 0 0 -13.41365,-13.41416 z m 0.7245,5.13714 a 8.2769661,8.2769661 0 0 1 8.27702,8.27701 8.2769661,8.2769661 0 0 1 -8.27702,8.2765 8.2769661,8.2769661 0 0 1 -8.27701,-8.2765 8.2769661,8.2769661 0 0 1 8.27701,-8.27701 z" /></g><circle
         style="opacity:1;fill:#c30707;fill-opacity:1;stroke:none;stroke-width:1.29365;stroke-linecap:round;stroke-linejoin:round"
         id="circle9"
         cx="-12.19527"
         cy="-501.6207"
         r="3.1548824"
         transform="rotate(125.709)" /><g
         id="g4"
         transform="translate(-3.7772371,3.3278694)"
         style="fill:#ffffff;fill-opacity:1"><rect
           style="fill:#ffffff;fill-opacity:1;stroke:none;stroke-width:10.4384;stroke-linecap:round;stroke-linejoin:round;stroke-dasharray:none;stroke-opacity:1"
           id="rect2"
           width="7.8056936"
           height="30.393211"
           x="438.42834"
           y="229.66"
           ry="4.2525578" /><path
           id="path3"
           style="fill:#ffffff;fill-opacity:1;stroke:none;stroke-width:10;stroke-linecap:round;stroke-linejoin:round;stroke-dasharray:none;stroke-opacity:1"
           d="m 429.44652,231.4427 a 13.4139,13.4139 0 0 0 -13.41417,13.41416 13.4139,13.4139 0 0 0 13.41417,13.41366 13.4139,13.4139 0 0 0 13.41365,-13.41366 13.4139,13.4139 0 0 0 -13.41365,-13.41416 z m 0.7245,5.13714 a 8.2769661,8.2769661 0 0 1 8.27702,8.27701 8.2769661,8.2769661 0 0 1 -8.27702,8.2765 8.2769661,8.2769661 0 0 1 -8.27701,-8.2765 8.2769661,8.2769661 0 0 1 8.27701,-8.27701 z" /></g><circle
         style="opacity:1;fill:#c30707;fill-opacity:1;stroke:none;stroke-width:1.29365;stroke-linecap:round;stroke-linejoin:round"
         id="path5"
         cx="487.67279"
         cy="149.68143"
         r="3.1548824" /><circle
         style="opacity:1;fill:#c30707;fill-opacity:1;stroke:none;stroke-width:4.23053;stroke-linecap:round;stroke-linejoin:round"
         id="circle5"
         cx="480.24014"
         cy="174.14066"
         r="10.317172" /><circle
         style="opacity:1;fill:#c30707;fill-opacity:1;stroke:none;stroke-width:1.93312;stroke-linecap:round;stroke-linejoin:round"
         id="circle6"
         cx="485.90475"
         cy="207.31563"
         r="4.7143836" /><circle
         style="opacity:1;fill:#c30707;fill-opacity:1;stroke:none;stroke-width:1.1657;stroke-linecap:round;stroke-linejoin:round"
         id="circle7"
         cx="528.05756"
         cy="166.20767"
         r="2.8428342" /><circle
         style="opacity:1;fill:#c30707;fill-opacity:1;stroke:none;stroke-width:0.655254;stroke-linecap:round;stroke-linejoin:round"
         id="circle8"
         cx="508.02487"
         cy="172.39966"
         r="1.5979906" /><circle
         style="opacity:1;fill:#c30707;fill-opacity:1;stroke:none;stroke-width:4.23053;stroke-linecap:round;stroke-linejoin:round"
         id="circle10"
         cx="-19.627918"
         cy="-477.16147"
         r="10.317172"
         transform="rotate(125.709)" /><circle
         style="opacity:1;fill:#c30707;fill-opacity:1;stroke:none;stroke-width:1.93312;stroke-linecap:round;stroke-linejoin:round"
         id="circle11"
         cx="-13.963305"
         cy="-443.98651"
         r="4.7143836"
         transform="rotate(125.709)" /><circle
         style="opacity:1;fill:#c30707;fill-opacity:1;stroke:none;stroke-width:1.1657;stroke-linecap:round;stroke-linejoin:round"
         id="circle12"
         cx="28.189495"
         cy="-485.09445"
         r="2.8428342"
         transform="rotate(125.709)" /><circle
         style="opacity:1;fill:#c30707;fill-opacity:1;stroke:none;stroke-width:0.655254;stroke-linecap:round;stroke-linejoin:round"
         id="circle13"
         cx="8.1568117"
         cy="-478.90247"
         r="1.5979906"
         transform="rotate(125.709)" /></g></g></svg>
