<?xml version="1.0" encoding="UTF-8" standalone="no"?>
<!-- Created with Inkscape (http://www.inkscape.org/) -->

<svg
   width="500mm"
   height="500mm"
   viewBox="0 0 500 500"
   version="1.1"
   id="svg1"
   inkscape:version="1.3.2 (091e20e, 2023-11-25)"
   sodipodi:docname="Burger Joint.svg"
   xmlns:inkscape="http://www.inkscape.org/namespaces/inkscape"
   xmlns:sodipodi="http://sodipodi.sourceforge.net/DTD/sodipodi-0.dtd"
   xmlns="http://www.w3.org/2000/svg"
   xmlns:svg="http://www.w3.org/2000/svg">
  <sodipodi:namedview
     id="namedview1"
     pagecolor="#ffffff"
     bordercolor="#000000"
     borderopacity="0.25"
     inkscape:showpageshadow="2"
     inkscape:pageopacity="0.0"
     inkscape:pagecheckerboard="0"
     inkscape:deskcolor="#d1d1d1"
     inkscape:document-units="mm"
     showgrid="false"
     inkscape:zoom="0.25982083"
     inkscape:cx="944.88189"
     inkscape:cy="944.88189"
     inkscape:window-width="1356"
     inkscape:window-height="697"
     inkscape:window-x="0"
     inkscape:window-y="0"
     inkscape:window-maximized="1"
     inkscape:current-layer="layer1" />
  <defs
     id="defs1" />
  <g
     inkscape:label="Layer 1"
     inkscape:groupmode="layer"
     id="layer1">
    <rect
       style="opacity:1;fill:#0d0d0d;fill-opacity:1;stroke:none;stroke-width:36.5379;stroke-linecap:round;stroke-linejoin:round;stroke-dasharray:none;stroke-opacity:1"
       id="rect3"
       width="500"
       height="500"
       x="0"
       y="0"
       ry="0" />
    <text
       xml:space="preserve"
       style="font-style:normal;font-variant:normal;font-weight:normal;font-stretch:normal;font-size:75.3648px;line-height:1;font-family:'Festive December';-inkscape-font-specification:'Festive December';letter-spacing:0px;word-spacing:0px;opacity:1;fill:#ffffff;fill-opacity:1;stroke:none;stroke-width:260.19;stroke-linecap:round;stroke-linejoin:round;stroke-dasharray:none;stroke-opacity:1"
       x="222.44363"
       y="198.61668"
       id="text1"><tspan
         sodipodi:role="line"
         id="tspan1"
         style="fill:#ffffff;fill-opacity:1;stroke-width:260.191"
         x="222.44363"
         y="198.61668">the</tspan></text>
    <text
       xml:space="preserve"
       style="font-style:normal;font-variant:normal;font-weight:normal;font-stretch:normal;font-size:75.3648px;line-height:1;font-family:'Festive December';-inkscape-font-specification:'Festive December';letter-spacing:0px;word-spacing:0px;opacity:1;fill:#ffffff;fill-opacity:1;stroke:none;stroke-width:260.19;stroke-linecap:round;stroke-linejoin:round;stroke-dasharray:none;stroke-opacity:1"
       x="213.92896"
       y="259.03146"
       id="text2"><tspan
         sodipodi:role="line"
         id="tspan2"
         style="fill:#ffffff;fill-opacity:1;stroke-width:260.191"
         x="213.92896"
         y="259.03146">Burger</tspan></text>
    <text
       xml:space="preserve"
       style="font-style:normal;font-variant:normal;font-weight:normal;font-stretch:normal;font-size:75.3648px;line-height:1;font-family:'Festive December';-inkscape-font-specification:'Festive December';letter-spacing:0px;word-spacing:0px;opacity:1;fill:#ffffff;fill-opacity:1;stroke:none;stroke-width:260.19;stroke-linecap:round;stroke-linejoin:round;stroke-dasharray:none;stroke-opacity:1"
       x="251.89886"
       y="320.04636"
       id="text3"><tspan
         sodipodi:role="line"
         id="tspan3"
         style="fill:#ffffff;fill-opacity:1;stroke-width:260.191"
         x="251.89886"
         y="320.04636">Joint</tspan></text>
    <g
       id="g12"
       transform="translate(57.811325,15.594109)">
      <path
         style="opacity:1;fill:none;fill-opacity:1;stroke:#ffffff;stroke-width:5;stroke-linecap:round;stroke-linejoin:round;stroke-dasharray:none;stroke-opacity:1"
         d="m 64.652215,250.21644 c 4.044953,-3.19582 5.871874,-6.74327 11.343555,-5.96552 3.557584,0.77657 5.685708,4.58668 9.112495,5.70622 3.514592,1.55286 7.637727,1.02109 10.146217,-2.08467 2.53647,-2.28933 6.956478,-4.53533 10.334718,-2.6762 3.63391,1.99983 6.8763,5.9978 10.74067,4.92444 3.71862,-0.38083 5.68317,-5.78638 9.77071,-5.65333 4.08754,0.13305 5.49466,3.34546 8.24749,6.0881"
         id="path4"
         sodipodi:nodetypes="ccccsczc" />
      <rect
         style="opacity:1;fill:#ffffff;fill-opacity:1;stroke:none;stroke-width:4.30416;stroke-linecap:round;stroke-linejoin:round;stroke-dasharray:none;stroke-opacity:1"
         id="rect4"
         width="84.124664"
         height="6.678782"
         x="58.709217"
         y="253.10107"
         ry="3.339391" />
      <rect
         style="opacity:1;fill:#ffffff;fill-opacity:1;stroke:none;stroke-width:2.01928;stroke-linecap:round;stroke-linejoin:round;stroke-dasharray:none;stroke-opacity:1"
         id="rect5"
         width="24.707516"
         height="5.0050049"
         x="30.681444"
         y="268.32523"
         ry="2.5025024"
         transform="rotate(-7.1990228)" />
      <rect
         style="opacity:1;fill:#ffffff;fill-opacity:1;stroke:none;stroke-width:2.01928;stroke-linecap:round;stroke-linejoin:round;stroke-dasharray:none;stroke-opacity:1"
         id="rect6"
         width="24.707516"
         height="5.0050049"
         x="54.180531"
         y="271.29343"
         ry="2.5025024"
         transform="rotate(-7.1990228)" />
      <rect
         style="opacity:1;fill:#ffffff;fill-opacity:1;stroke:none;stroke-width:2.01928;stroke-linecap:round;stroke-linejoin:round;stroke-dasharray:none;stroke-opacity:1"
         id="rect7"
         width="24.707516"
         height="5.0050049"
         x="77.679619"
         y="274.26166"
         ry="2.5025024"
         transform="rotate(-7.1990228)" />
      <path
         id="path7"
         style="opacity:1;fill:#ffffff;stroke-width:28.1704;stroke-linecap:round;stroke-linejoin:round"
         d="m 147.05239,274.46823 c 0,-10.87134 -22.07024,-7.33937 -47.152394,-7.33937 -25.082142,0 -43.678095,-3.71862 -43.678094,7.33937 2e-6,24.90572 22.07555,27.93673 47.157688,27.93673 25.08215,0 43.6728,-3.03101 43.6728,-27.93673 z"
         sodipodi:nodetypes="sssss" />
      <path
         id="path8"
         style="opacity:1;fill:#ffffff;stroke-width:28.1704;stroke-linecap:round;stroke-linejoin:round"
         d="m 147.05239,235.57961 c 0,10.87134 -22.07024,7.33937 -47.152394,7.33937 -25.082142,0 -43.678095,3.71862 -43.678094,-7.33937 2e-6,-24.90572 20.643042,-31.2588 45.725178,-31.2588 25.08215,0 45.10531,6.35308 45.10531,31.2588 z"
         sodipodi:nodetypes="sssss" />
      <path
         id="path9"
         style="opacity:1;fill:#ffffff;fill-opacity:1;stroke:none;stroke-width:4.99999;stroke-linecap:round;stroke-linejoin:round;stroke-dasharray:none;stroke-opacity:1"
         d="m 91.392652,169.58236 c 0,0 4.797086,6.86847 7.771136,50.7314 0.826401,0.008 1.640572,0.0212 2.482022,0.0212 0.21733,0 0.42962,-0.005 0.64648,-0.005 1.00903,-27.2977 -3.934688,-51.81862 -3.934688,-51.81862 z M 105.3541,306.69205 c 4.24636,18.63182 3.35081,32.18278 3.35081,32.18278 0.99219,-16.52151 -0.006,-21.272 -1.48183,-32.1262 -0.62117,-0.0207 -1.25354,-0.0301 -1.86898,-0.0566 z"
         sodipodi:nodetypes="ccscccccccc" />
      <path
         style="opacity:1;fill:#ffffff;fill-opacity:1;stroke:none;stroke-width:4.99999;stroke-linecap:round;stroke-linejoin:round;stroke-dasharray:none;stroke-opacity:1"
         d="m 87.678616,230.49509 23.664754,-0.50056"
         id="path10" />
      <path
         id="rect11"
         style="opacity:1;fill:#ffffff;fill-opacity:1;stroke:none;stroke-width:4.08575;stroke-linecap:round;stroke-linejoin:round;stroke-dasharray:none;stroke-opacity:1"
         d="m 89.551927,131.05954 c -0.199912,0.0231 -0.400817,0.0609 -0.602316,0.11356 -3.223909,0.84397 -5.318953,5.24224 -4.697607,9.86181 l 2.564571,19.06647 c 0.0077,0.0569 0.01971,0.10315 0.02802,0.15839 l -2.972657,0.37935 c -1.549221,0.19756 -2.637224,1.60402 -2.439612,3.15324 0.197607,1.54921 1.604023,2.63722 3.15324,2.43962 l 18.384994,-2.34521 c 1.54922,-0.19766 2.63778,-1.60355 2.44017,-3.15277 -0.19765,-1.54921 -1.60407,-2.63774 -3.15328,-2.44012 l -3.718639,0.47455 c 0.0256,-0.50129 0.004,-1.06348 -0.0838,-1.71369 l -2.564576,-19.06647 c -0.582511,-4.33086 -3.339716,-7.27329 -6.338508,-6.92874 z" />
    </g>
  </g>
</svg>
