<?xml version="1.0" encoding="UTF-8" standalone="no"?>
<!-- Created with Inkscape (http://www.inkscape.org/) -->

<svg
   width="500mm"
   height="500mm"
   viewBox="0 0 500 500"
   version="1.1"
   id="svg1"
   inkscape:version="1.3.2 (091e20e, 2023-11-25)"
   xml:space="preserve"
   sodipodi:docname="Connected Fox.svg"
   xmlns:inkscape="http://www.inkscape.org/namespaces/inkscape"
   xmlns:sodipodi="http://sodipodi.sourceforge.net/DTD/sodipodi-0.dtd"
   xmlns:xlink="http://www.w3.org/1999/xlink"
   xmlns="http://www.w3.org/2000/svg"
   xmlns:svg="http://www.w3.org/2000/svg"><sodipodi:namedview
     id="namedview1"
     pagecolor="#ffffff"
     bordercolor="#000000"
     borderopacity="0.25"
     inkscape:showpageshadow="2"
     inkscape:pageopacity="0.0"
     inkscape:pagecheckerboard="0"
     inkscape:deskcolor="#d1d1d1"
     inkscape:document-units="mm"
     showgrid="false"
     inkscape:zoom="0.25982083"
     inkscape:cx="1043.0265"
     inkscape:cy="960.27713"
     inkscape:window-width="1356"
     inkscape:window-height="697"
     inkscape:window-x="0"
     inkscape:window-y="0"
     inkscape:window-maximized="1"
     inkscape:current-layer="layer2" /><defs
     id="defs1"><inkscape:path-effect
       effect="powerstroke"
       id="path-effect3"
       is_visible="true"
       lpeversion="1.3"
       scale_width="1"
       interpolator_type="CentripetalCatmullRom"
       interpolator_beta="0.2"
       start_linecap_type="zerowidth"
       end_linecap_type="zerowidth"
       offset_points="0.25033098,0.5458317 | 0.5007398,1.8723236 | 0.8,2"
       linejoin_type="miter"
       miter_limit="4"
       not_jump="false"
       sort_points="true"
       message="&lt;b&gt;Ctrl + click&lt;/b&gt; on existing node and move it" /><linearGradient
       id="linearGradient473"
       inkscape:collect="always"><stop
         style="stop-color:#07f4f0;stop-opacity:1;"
         offset="0.15349492"
         id="stop475" /><stop
         style="stop-color:#fab000;stop-opacity:1;"
         offset="0.40731168"
         id="stop476" /><stop
         style="stop-color:#f30000;stop-opacity:1;"
         offset="1"
         id="stop474" /></linearGradient><linearGradient
       inkscape:collect="always"
       xlink:href="#linearGradient473"
       id="linearGradient474"
       x1="382.47797"
       y1="384.85388"
       x2="88.01918"
       y2="86.235207"
       gradientUnits="userSpaceOnUse"
       gradientTransform="matrix(1.1671124,0,0,1.1671124,-24.696433,-26.218892)" /></defs><g
     inkscape:label="Layer 1"
     inkscape:groupmode="layer"
     id="layer1"
     sodipodi:insensitive="true"
     style="display:none"><path
       id="path1"
       style="color:#000000;opacity:0.287435;fill:#000000;fill-opacity:1;stroke-linecap:round;stroke-linejoin:round;-inkscape-stroke:none"
       d="m 128.39785,87.199845 c -0.53885,-0.04588 -1.06119,-0.04424 -1.5658,0.0088 v 5.17e-4 c -0.67281,0.07071 -1.31414,0.233256 -1.91978,0.494027 -2.37395,1.02215 -4.30028,3.210043 -5.88904,6.230627 -1.58878,3.020583 -2.84854,6.891654 -3.8592,11.378624 -2.02132,8.97397 -3.03943,20.40991 -3.52743,32.32051 -0.976,23.82121 0.17272,49.56504 -0.22635,61.02315 -0.79263,22.75756 -20.509855,42.44961 -20.509855,42.44961 a 0.5,0.5 0 0 0 -0.0021,0.70693 0.5,0.5 0 0 0 0.706933,0.002 c 0,0 19.993012,-19.81376 20.804932,-43.12502 0.40319,-11.57629 -0.7492,-37.2563 0.22428,-61.01591 0.48674,-11.87981 1.50713,-23.27446 3.50418,-32.14068 0.99853,-4.4331 2.24336,-8.233633 3.76928,-11.134713 1.52591,-2.901079 3.32471,-4.883568 5.4007,-5.777425 2.02738,-0.872926 4.71306,-0.454261 7.90804,1.088306 3.19498,1.542567 6.85563,4.187057 10.758,7.58765 7.80475,6.801182 16.58365,16.618832 24.80831,26.679502 16.44932,20.12134 30.68598,41.21092 30.68598,41.21092 a 0.50005,0.50005 0 0 0 0.447,0.21911 c 0,0 11.64303,-0.79065 26.47849,-0.19947 14.83546,0.5912 32.8613,2.57947 45.52332,8.07032 a 0.50005,0.50005 0 0 0 0.52348,-0.078 c 9.05145,-7.72761 32.42375,-23.98866 54.98424,-37.60753 11.28025,-6.80944 22.36584,-12.96344 31.35778,-17.07234 4.49597,-2.05445 8.47078,-3.59825 11.66595,-4.45502 3.19518,-0.85678 5.6134,-0.98184 6.89261,-0.4098 0.58418,0.26123 0.97278,0.7953 1.19889,1.72858 0.2261,0.93329 0.24837,2.23145 0.061,3.81992 -0.37468,3.17693 -1.5678,7.50249 -3.34192,12.54703 -3.54825,10.08906 -9.41394,23.07741 -15.65641,35.89859 -12.48492,25.64236 -26.4728,50.62482 -26.4728,50.62482 -0.007,0.0116 -2.09017,3.58264 -3.50004,8.41809 -1.41217,4.84329 -2.17581,10.99896 0.59376,16.16387 2.64534,4.93329 5.60079,12.49512 7.18974,20.02565 1.53093,7.25557 1.73539,14.45157 -0.64389,19.24327 -1.24132,-0.69148 -2.58528,-1.43876 -4.04936,-2.27066 -0.59609,-0.33871 -1.20173,-0.68739 -1.80816,-1.04128 0.0753,-0.0941 0.12197,-0.1829 0.1695,-0.28525 0.0964,-0.20765 0.18364,-0.4701 0.27337,-0.79686 0.17944,-0.65354 0.35599,-1.56012 0.48214,-2.64428 0.2523,-2.16834 0.30104,-5.03461 -0.31213,-7.8729 -0.61317,-2.8383 -1.89668,-5.66294 -4.32842,-7.65432 -1.82381,-1.49352 -4.27864,-2.49503 -7.50755,-2.69957 -1.04978,-0.0665 -2.18341,-0.0475 -3.40134,0.0651 -0.21492,-1.84587 -0.27854,-3.07475 -0.27854,-3.07475 a 0.5,0.5 0 0 0 -0.52348,-0.47439 0.5,0.5 0 0 0 -0.47439,0.52503 c 0,0 0.16498,3.28455 0.89245,7.23264 0.72746,3.94808 1.98591,8.57128 4.3341,11.34969 2.08768,2.47017 7.30207,5.57751 11.98842,8.24033 1.6531,0.93929 3.14568,1.76776 4.48861,2.51767 a 0.50005,0.50005 0 0 0 0.14005,0.078 c 0.0508,0.0284 0.0998,0.0562 0.14986,0.0842 -0.0643,9.9e-4 -0.10166,-0.007 -0.10077,-0.007 0.002,6.8e-4 0.0833,0.0328 0.1912,0.0899 0.21578,0.11411 0.5622,0.32374 1.00201,0.60564 0.8796,0.56381 2.14576,1.4244 3.66179,2.48255 3.03205,2.1163 7.07232,5.0233 11.1094,7.95713 7.45367,5.41673 13.79669,10.11895 14.89677,10.9337 -0.49393,-0.008 -1.07787,-0.0145 -1.85157,-0.004 -1.79097,0.0238 -4.22081,0.12409 -6.7753,0.42582 -2.55449,0.30173 -5.23612,0.80434 -7.55458,1.65054 -2.31844,0.8462 -4.29636,2.03276 -5.35781,3.78892 -4.0529,6.70549 -1.30604,17.65824 10.41229,24.42383 5.86477,3.38603 10.86905,3.78293 14.40015,3.31039 2.44812,-0.32762 4.1865,-1.07174 5.03587,-1.50223 -1.29471,4.94783 -3.02428,10.2316 -5.22139,14.7252 -2.7491,5.62256 -6.21477,9.8884 -10.24847,10.84068 -0.15862,-0.22355 -0.37522,-0.41194 -0.63045,-0.56741 -0.40389,-0.24602 -0.91204,-0.43884 -1.52911,-0.60565 -1.23412,-0.33361 -2.90451,-0.55623 -4.93923,-0.68729 -4.06944,-0.26212 -9.58811,-0.14955 -15.75614,0.30644 -12.33607,0.91198 -27.25615,3.19809 -38.24986,6.67194 -1.51323,0.47816 -4.73498,-0.0283 -8.79895,-1.13275 -4.06398,-1.10436 -9.01412,-2.74826 -14.25184,-4.3279 -7.8566,-2.36944 -16.35163,-4.61811 -23.58409,-4.63899 -2.41082,-0.007 -4.6801,0.23284 -6.74016,0.79892 a 0.5,0.5 0 0 0 -0.34985,0.61546 0.5,0.5 0 0 0 0.6134,0.34934 c 7.78792,-2.14003 19.33034,0.68329 29.77182,3.83232 5.22074,1.57451 10.17134,3.21935 14.27924,4.33565 4.10789,1.11631 7.32831,1.76374 9.36118,1.12138 10.86559,-3.43336 25.75111,-5.71971 38.02352,-6.62698 6.1362,-0.45364 11.62412,-0.56416 15.61714,-0.30696 1.99649,0.1286 3.62183,0.35132 4.74234,0.65422 0.56026,0.15144 0.99396,0.32565 1.27124,0.49455 0.17414,0.10608 0.26136,0.19512 0.31833,0.27233 -0.044,0.18781 -0.0745,0.40641 -0.18759,0.86196 -0.1224,0.49325 -0.31662,1.16274 -0.62115,1.94769 -0.60904,1.5699 -1.66218,3.59984 -3.48609,5.61103 -3.64783,4.02235 -10.37759,8.00182 -22.98051,7.98452 -25.47611,-0.035 -43.58597,4.38061 -43.58597,4.38061 a 0.5,0.5 0 0 0 -0.36742,0.60565 0.5,0.5 0 0 0 0.60358,0.36742 c 0,0 17.98777,-4.38856 43.34774,-4.35374 12.81513,0.0176 19.88407,-4.07775 23.72465,-8.31267 1.9203,-2.11746 3.03328,-4.26023 3.67782,-5.9216 0.32227,-0.8307 0.52764,-1.54185 0.65835,-2.06861 0.0978,-0.39422 0.12467,-0.55673 0.15038,-0.69143 4.59685,-1.01016 8.21669,-5.58672 11.04481,-11.37088 2.90134,-5.93395 4.98963,-13.14814 6.33759,-19.20917 4.2e-4,-0.002 0.002,-0.004 0.002,-0.006 5.63781,-12.53142 3.58517,-19.66087 -0.0331,-23.53345 -3.52548,-3.77329 -8.24875,-4.41491 -8.52351,-4.45089 -0.066,-0.0489 -8.03209,-5.95365 -16.07809,-11.80083 -4.03963,-2.93568 -8.08231,-5.84537 -11.1249,-7.96902 -0.33783,-0.23579 -0.50835,-0.34074 -0.82011,-0.55604 -0.0153,-0.0582 -0.0345,-0.10814 -0.0548,-0.1447 -0.0658,-0.11886 -0.12852,-0.17668 -0.1974,-0.24029 -0.13778,-0.12723 -0.30868,-0.24866 -0.53123,-0.39636 -0.44512,-0.29542 -1.08717,-0.67514 -1.88309,-1.12913 -0.35442,-0.20216 -0.83031,-0.46529 -1.23972,-0.69453 2.59807,-5.16285 2.34546,-12.53125 0.78703,-19.91713 -1.61266,-7.64289 -4.58792,-15.25855 -7.28741,-20.29282 -2.57531,-4.80263 -1.88872,-10.69596 -0.51366,-15.41198 1.37506,-4.71601 3.40651,-8.20105 3.40651,-8.20105 a 0.50005,0.50005 0 0 0 0.006,-0.008 c 0,0 13.99642,-24.99708 26.49813,-50.67391 6.25085,-12.8384 12.12783,-25.84458 15.70136,-36.00555 1.78678,-5.08048 2.99943,-9.44622 3.39049,-12.76201 0.19553,-1.65789 0.19127,-3.0539 -0.0801,-4.17391 -0.27134,-1.12 -0.84912,-1.99499 -1.76372,-2.40398 -1.71838,-0.76842 -4.2759,-0.52361 -7.56026,0.35708 -3.28436,0.88069 -7.29622,2.44148 -11.82254,4.5098 -9.05264,4.13662 -20.15689,10.30569 -31.45699,17.12712 -22.46114,13.55891 -45.60178,29.63992 -54.88864,37.52329 -12.87928,-5.50347 -30.79852,-7.46347 -45.58585,-8.05274 -14.61815,-0.58251 -25.88379,0.16171 -26.30279,0.18966 -0.25047,-0.37077 -14.23399,-21.06474 -30.57436,-41.05279 -8.24354,-10.08377 -17.04381,-19.93082 -24.92767,-26.800947 -3.94194,-3.435069 -7.65251,-6.127763 -10.98021,-7.734412 -1.87184,-0.903741 -3.63636,-1.470528 -5.25291,-1.608171 z m 112.3952,164.763075 c -0.84355,0.0217 -2.0749,0.18534 -3.67574,0.72863 -3.20168,1.08657 -7.87327,3.69205 -13.90458,9.74204 a 0.50005,0.50005 0 0 0 -0.13436,0.46302 c 0.78133,3.48406 3.5299,7.14688 6.87865,10.05831 3.34876,2.91141 7.29597,5.07457 10.6562,5.37693 3.2587,0.29324 7.20087,-0.13491 10.42004,-1.54099 3.21917,-1.40609 5.75432,-3.87839 5.86527,-7.54683 a 0.50005,0.50005 0 0 0 -0.002,-0.0724 c 0,0 -0.45003,-3.85238 -2.5156,-7.91011 -2.06073,-4.0482 -5.79846,-8.3577 -12.27522,-9.19117 -0.0212,-0.005 -0.48743,-0.12869 -1.31259,-0.10748 z m 0.0253,0.99993 c 0.741,-0.019 1.05058,0.0744 1.05058,0.0744 a 0.50005,0.50005 0 0 0 0.0703,0.0134 c 6.12175,0.77075 9.57503,4.78192 11.55123,8.66407 1.95709,3.84462 2.39346,7.45681 2.40192,7.52719 -0.11005,3.21208 -2.25679,5.3225 -5.25756,6.63319 -3.01009,1.31476 -6.83384,1.73965 -9.93169,1.46089 -2.99632,-0.26962 -6.85291,-2.32089 -10.08983,-5.13508 -3.15113,-2.73962 -5.68468,-6.19466 -6.46678,-9.26714 5.83306,-5.79704 10.31102,-8.28571 13.29117,-9.29711 1.5104,-0.51259 2.63966,-0.65481 3.38068,-0.67386 z m 78.02469,4.86017 c 3.45269,0.0658 5.92893,1.04095 7.72149,2.50889 2.20624,1.80671 3.40083,4.40099 3.98219,7.09208 0.58137,2.69108 0.54135,5.46582 0.29921,7.54682 -0.12106,1.04051 -0.29423,1.90949 -0.45527,2.49597 -0.0805,0.29324 -0.16104,0.51811 -0.21704,0.63873 -0.0236,0.0508 -0.0363,0.0681 -0.0362,0.0692 a 0.5,0.5 0 0 0 -0.11989,0.10749 c -3.83691,-2.27434 -7.55078,-4.71309 -9.01547,-6.44612 -2.10161,-2.48666 -3.39896,-7.00753 -4.11344,-10.88512 -0.19988,-1.08477 -0.3532,-2.1062 -0.47543,-3.03238 0.85862,-0.0783 1.66914,-0.11009 2.42983,-0.0956 z m 11.63547,20.23959 a 0.5,0.5 0 0 0 -0.24547,0.0403 c 0.0539,-0.0285 0.13012,-0.0516 0.24547,-0.0403 z m -0.26149,0.0465 a 0.5,0.5 0 0 0 -0.0687,0.0568 c 0.0132,-0.016 0.0334,-0.0359 0.0687,-0.0568 z m 38.84414,28.2882 a 0.50005,0.50005 0 0 0 0.18087,0.0734 c 0,0 4.73908,0.60536 8.08581,4.18734 3.34675,3.58199 5.42504,10.14493 -0.17931,22.53506 a 0.50005,0.50005 0 0 0 -0.0336,0.0977 c -0.218,0.98043 -0.48755,2.02589 -0.74518,3.05666 a 0.5,0.5 0 0 0 -0.24288,0.045 c 0,0 -1.8838,1.22928 -5.22087,1.67586 -3.33706,0.44658 -8.08552,0.097 -13.76712,-3.18326 -11.37433,-6.567 -13.755,-16.92277 -10.05675,-23.04149 0.87633,-1.44988 2.6397,-2.56231 4.84364,-3.36672 2.20394,-0.80441 4.82382,-1.30178 7.3303,-1.59784 5.01295,-0.59213 9.55652,-0.39067 9.55652,-0.39067 a 0.5,0.5 0 0 0 0.24856,-0.091 z" /></g><g
     inkscape:groupmode="layer"
     id="layer2"
     inkscape:label="Layer 2"><rect
       style="fill:#050505;fill-opacity:1;stroke:none;stroke-width:20;stroke-linecap:square;stroke-dasharray:none;stroke-opacity:1"
       id="rect1"
       width="500"
       height="500"
       x="0"
       y="0" /><path
       id="path32"
       style="color:#000000;fill:url(#linearGradient474);fill-opacity:1;stroke-width:0.796169;stroke-linecap:round;stroke-linejoin:round;-inkscape-stroke:none"
       d="m 121.94312,74.433763 a 2.5918101,2.5918101 0 0 0 -2.59162,2.591613 2.5918101,2.5918101 0 0 0 0.88779,1.952301 0.58355627,0.58355627 0 0 0 -0.51445,0.477081 L 105.20407,208.19056 a 0.58355627,0.58355627 0 0 0 0.0774,0.26721 2.5918101,2.5918101 0 0 0 -2.36784,2.57591 2.5918101,2.5918101 0 0 0 1.27861,2.22854 0.58355627,0.58355627 0 0 0 -0.24841,0.1985 l -22.854102,41.66732 a 0.58355627,0.58355627 0 0 0 -0.01173,0.10481 2.5918101,2.5918101 0 0 0 -1.445681,-0.4409 2.5918101,2.5918101 0 0 0 -2.592215,2.5916 2.5918101,2.5918101 0 0 0 2.592215,2.59223 2.5918101,2.5918101 0 0 0 2.327471,-1.46015 0.58355627,0.58355627 0 0 0 0.373924,0.20254 l 45.152748,4.73451 a 0.58355627,0.58355627 0 0 0 0.64053,-0.51931 0.58355627,0.58355627 0 0 0 -0.5199,-0.64113 l -45.152748,-4.73632 a 0.58355627,0.58355627 0 0 0 -0.2479,0.0735 2.5918101,2.5918101 0 0 0 0.0195,-0.24598 2.5918101,2.5918101 0 0 0 -0.434276,-1.43607 0.58355627,0.58355627 0 0 0 0.323292,-0.2586 l 22.854112,-41.66734 a 0.58355627,0.58355627 0 0 0 0.0452,-0.44931 2.5918101,2.5918101 0 0 0 0.4928,0.0531 2.5918101,2.5918101 0 0 0 0.36847,-0.0267 2.5918101,2.5918101 0 0 0 2.22311,-2.56569 2.5918101,2.5918101 0 0 0 -0.001,-0.12754 2.5918101,2.5918101 0 0 0 -1.85521,-2.35822 0.58355627,0.58355627 0 0 0 0.12622,-0.22748 L 120.88878,79.583714 a 0.58355627,0.58355627 0 0 0 -0.0155,-0.20146 2.5918101,2.5918101 0 0 0 1.07476,0.233944 2.5918101,2.5918101 0 0 0 2.43963,-1.733982 0.58355627,0.58355627 0 0 0 0.0333,0.08502 l 82.8774,86.132484 a 2.5918101,2.5918101 0 0 0 -1.42758,2.30936 2.5918101,2.5918101 0 0 0 0.36249,1.31059 0.58355627,0.58355627 0 0 0 -0.0687,0.0267 l -38.52382,36.32184 a 0.58355627,0.58355627 0 0 0 -0.1334,0.5356 2.5918101,2.5918101 0 0 0 -0.94029,-0.17734 2.5918101,2.5918101 0 0 0 -2.5916,2.59165 2.5918101,2.5918101 0 0 0 0.006,0.0803 0.58355627,0.58355627 0 0 0 -0.57777,-0.46563 l -54.65615,3.3051 a 0.58355627,0.58355627 0 0 0 -0.54704,0.6176 0.58355627,0.58355627 0 0 0 0.6176,0.54704 l 54.65616,-3.30509 a 0.58355627,0.58355627 0 0 0 0.52589,-0.43607 2.5918101,2.5918101 0 0 0 2.5675,2.24845 2.5918101,2.5918101 0 0 0 0.68756,-0.0957 L 132.4593,260.1378 a 0.58355627,0.58355627 0 0 0 -0.0289,0.13764 2.5918101,2.5918101 0 0 0 -1.75329,-0.68333 2.5918101,2.5918101 0 0 0 -2.59161,2.59163 2.5918101,2.5918101 0 0 0 2.59161,2.5922 2.5918101,2.5918101 0 0 0 1.89742,-0.8335 0.58355627,0.58355627 0 0 0 0.34981,0.10921 l 40.88745,-2.30455 a 0.58355627,0.58355627 0 0 0 0.43182,-0.23283 2.5918101,2.5918101 0 0 0 2.57656,2.38533 2.5918101,2.5918101 0 0 0 2.4324,-1.71407 0.58355627,0.58355627 0 0 0 0.68874,0.19772 l 56.29484,-26.51084 a 0.58355627,0.58355627 0 0 0 0.0333,-0.0216 2.5918101,2.5918101 0 0 0 -0.0536,0.49335 2.5918101,2.5918101 0 0 0 0.16893,0.90165 0.58355627,0.58355627 0 0 0 -0.27562,0.17968 l -43.15339,63.27897 a 0.58355627,0.58355627 0 0 0 -0.0349,0.16659 2.5918101,2.5918101 0 0 0 -0.43906,-0.0387 2.5918101,2.5918101 0 0 0 -0.81003,0.13442 0.58355627,0.58355627 0 0 0 -0.0289,-0.16893 l -12.84771,-36.48106 a 0.58355627,0.58355627 0 0 0 -0.74548,-0.35825 0.58355627,0.58355627 0 0 0 -0.35522,0.74544 l 12.8471,36.48168 a 0.58355627,0.58355627 0 0 0 0.24063,0.28226 2.5918101,2.5918101 0 0 0 -0.89202,1.95652 2.5918101,2.5918101 0 0 0 0.28349,1.16703 0.58355627,0.58355627 0 0 0 -0.13398,-0.006 l -61.16866,22.8137 a 2.5918101,2.5918101 0 0 0 -2.31539,-1.42821 2.5918101,2.5918101 0 0 0 -0.0957,0.007 0.58355627,0.58355627 0 0 0 0.18689,-0.3661 l 4.69771,-60.18614 a 0.58355627,0.58355627 0 0 0 -0.53798,-0.62665 0.58355627,0.58355627 0 0 0 -0.62665,0.53557 l -4.6959,60.18615 a 0.58355627,0.58355627 0 0 0 0.37997,0.54704 2.5918101,2.5918101 0 0 0 -1.77318,1.70682 0.58355627,0.58355627 0 0 0 -0.0676,-0.4644 L 80.441326,260.21267 a 0.58355627,0.58355627 0 0 0 -0.806984,-0.17147 0.58355627,0.58355627 0 0 0 -0.170691,0.807 l 43.574969,67.09732 a 0.58355627,0.58355627 0 0 0 0.80696,0.17108 0.58355627,0.58355627 0 0 0 0.21301,-0.25378 2.5918101,2.5918101 0 0 0 -0.0984,0.70023 2.5918101,2.5918101 0 0 0 2.22849,2.56565 0.58355627,0.58355627 0 0 0 0.36731,0.57598 l 68.88501,21.94459 a 0.58355627,0.58355627 0 0 0 0.73158,-0.37815 0.58355627,0.58355627 0 0 0 -0.37818,-0.73398 l -68.05086,-21.67921 a 2.5918101,2.5918101 0 0 0 1.39984,-2.29488 2.5918101,2.5918101 0 0 0 -6e-4,-0.0216 0.58355627,0.58355627 0 0 0 0.006,0 l 61.29593,-22.86136 a 0.58355627,0.58355627 0 0 0 0.32206,-0.3124 2.5918101,2.5918101 0 0 0 1.71167,0.64775 2.5918101,2.5918101 0 0 0 2.36182,-1.52712 l 54.24299,37.8761 a 0.58355627,0.58355627 0 0 0 0.26237,0.058 2.5918101,2.5918101 0 0 0 2.4975,1.91251 2.5918101,2.5918101 0 0 0 2.39682,-1.62062 0.58355627,0.58355627 0 0 0 0.65136,0.42041 l 60.91595,-11.26333 a 2.5918101,2.5918101 0 0 0 2.54456,2.12541 2.5918101,2.5918101 0 0 0 2.51142,-1.97401 0.58355627,0.58355627 0 0 0 0.25269,0.14102 l 52.60192,6.17056 a 0.58355627,0.58355627 0 0 0 0.64714,-0.51327 0.58355627,0.58355627 0 0 0 -0.51023,-0.64713 l -52.60432,-6.17055 a 0.58355627,0.58355627 0 0 0 -0.3257,0.0922 2.5918101,2.5918101 0 0 0 -2.57292,-2.28283 2.5918101,2.5918101 0 0 0 -2.49631,1.90707 0.58355627,0.58355627 0 0 0 -0.11464,-0.0242 l -61.06368,11.29229 a 0.58355627,0.58355627 0 0 0 -0.28108,0.18259 2.5918101,2.5918101 0 0 0 0.0393,-0.42762 2.5918101,2.5918101 0 0 0 -2.59221,-2.5922 2.5918101,2.5918101 0 0 0 -2.50903,1.96497 L 195.43908,303.4828 a 0.58355627,0.58355627 0 0 0 -0.36969,-0.0816 2.5918101,2.5918101 0 0 0 -1.10917,-2.10307 L 236.996,238.19104 a 2.5918101,2.5918101 0 0 0 1.80817,0.74366 2.5918101,2.5918101 0 0 0 2.5922,-2.59162 2.5918101,2.5918101 0 0 0 -0.22264,-1.04881 0.58355627,0.58355627 0 0 0 0.0216,9.4e-4 l 50.60495,-17.72152 a 2.5918101,2.5918101 0 0 0 2.24299,1.30514 2.5918101,2.5918101 0 0 0 2.5675,-2.25265 0.58355627,0.58355627 0 0 0 0.2232,0.0429 l 39.05516,-2.86966 a 0.58355627,0.58355627 0 0 0 0.53797,-0.6248 0.58355627,0.58355627 0 0 0 -0.6248,-0.54043 l -39.0528,2.87029 a 0.58355627,0.58355627 0 0 0 -0.21405,0.074 2.5918101,2.5918101 0 0 0 -1.92758,-1.8202 l -0.44693,-36.41534 a 2.5918101,2.5918101 0 0 0 1.14898,-1.37029 0.58355627,0.58355627 0 0 0 0.40288,0.1617 l 59.85744,-0.63808 a 0.58355627,0.58355627 0 0 0 0.30938,-0.0957 2.5918101,2.5918101 0 0 0 -0.0117,0.16288 2.5918101,2.5918101 0 0 0 2.11636,2.54214 l -18.05869,32.53663 a 0.58355627,0.58355627 0 0 0 -0.0434,0.39866 2.5918101,2.5918101 0 0 0 -0.83293,-0.13868 2.5918101,2.5918101 0 0 0 -2.59222,2.59219 2.5918101,2.5918101 0 0 0 2.59222,2.59162 2.5918101,2.5918101 0 0 0 1.67125,-0.61338 0.58355627,0.58355627 0 0 0 0.007,0.73159 l 16.93868,19.40307 a 0.58355627,0.58355627 0 0 0 0.66104,0.13633 2.5918101,2.5918101 0 0 0 -0.10481,0.72977 2.5918101,2.5918101 0 0 0 1.45534,2.32504 0.58355627,0.58355627 0 0 0 -0.17615,0.39926 l -0.41495,14.39049 a 0.58355627,0.58355627 0 0 0 0.25886,0.48734 2.5918101,2.5918101 0 0 0 -1.48187,2.3395 2.5918101,2.5918101 0 0 0 2.59163,2.59161 2.5918101,2.5918101 0 0 0 0.88116,-0.16093 l 9.87972,44.2058 a 0.58355627,0.58355627 0 0 0 0.19315,0.27503 2.5918101,2.5918101 0 0 0 -1.51503,1.58201 c -0.0358,-0.14234 -0.12504,-0.2715 -0.25997,-0.35466 l -7.02337,-4.0174 -0.0517,0.0759 a 2.5918101,2.5918101 0 0 0 0.1183,-0.76535 2.5918101,2.5918101 0 0 0 -1.09648,-2.11574 0.58355627,0.58355627 0 0 0 0.12563,-0.39204 l -0.89145,-15.52136 a 0.58355627,0.58355627 0 0 0 -0.18396,-0.38841 2.5918101,2.5918101 0 0 0 1.16523,-2.16216 2.5918101,2.5918101 0 0 0 -2.5916,-2.59164 2.5918101,2.5918101 0 0 0 -1.81603,0.75149 0.58355627,0.58355627 0 0 0 -0.42157,-0.28707 l -9.29591,-1.34499 a 0.58355627,0.58355627 0 0 0 -0.52412,0.20333 2.5918101,2.5918101 0 0 0 -2.43963,-1.71589 2.5918101,2.5918101 0 0 0 -0.34379,0.0242 l -1.11938,-4.02583 c -0.0481,-0.16874 -0.16952,-0.30408 -0.3269,-0.37333 a 2.5918101,2.5918101 0 0 0 1.76233,-2.44989 2.5918101,2.5918101 0 0 0 -2.59161,-2.59161 2.5918101,2.5918101 0 0 0 -2.59221,2.59161 2.5918101,2.5918101 0 0 0 2.59221,2.59159 2.5918101,2.5918101 0 0 0 0.17497,-0.0132 c -0.13926,0.14439 -0.20064,0.35637 -0.14234,0.56329 l 1.1459,4.12293 a 2.5918101,2.5918101 0 0 0 -1.15072,2.15074 2.5918101,2.5918101 0 0 0 2.59161,2.59224 2.5918101,2.5918101 0 0 0 0.32991,-0.0242 l -0.41433,0.13515 2.94323,10.23437 c 0.0539,0.19197 0.198,0.33372 0.37334,0.39383 a 2.5918101,2.5918101 0 0 0 -1.03497,2.06388 2.5918101,2.5918101 0 0 0 2.59162,2.59222 2.5918101,2.5918101 0 0 0 1.61093,-0.56875 c 0.007,0.18708 0.10599,0.3668 0.27744,0.47226 l 6.31168,4.08796 a 2.5918101,2.5918101 0 0 0 -0.20254,0.99334 2.5918101,2.5918101 0 0 0 2.5916,2.5916 2.5918101,2.5918101 0 0 0 1.9517,-0.88717 l 6.98899,3.99867 c 0.24947,0.15096 0.56658,0.0922 0.74848,-0.12475 a 2.5918101,2.5918101 0 0 0 -0.0215,0.31182 2.5918101,2.5918101 0 0 0 2.59159,2.59162 2.5918101,2.5918101 0 0 0 1.61275,-0.56996 0.58355627,0.58355627 0 0 0 0.14556,0.17791 l 29.556,21.25884 a 0.58355627,0.58355627 0 0 0 0.41854,0.0846 2.5918101,2.5918101 0 0 0 -0.0215,0.30517 2.5918101,2.5918101 0 0 0 0.0381,0.42098 l -9.95635,0.0875 a 0.58355627,0.58355627 0 0 0 -0.37154,0.14644 2.5918101,2.5918101 0 0 0 -2.32445,-1.44688 2.5918101,2.5918101 0 0 0 -2.58919,2.55904 0.58355627,0.58355627 0 0 0 -0.22024,0.0429 l -10.69516,4.3286 a 0.58355627,0.58355627 0 0 0 -0.34619,0.62967 2.5918101,2.5918101 0 0 0 -0.54643,-0.0594 2.5918101,2.5918101 0 0 0 -2.59221,2.59221 2.5918101,2.5918101 0 0 0 1.67187,2.41612 0.58355627,0.58355627 0 0 0 -0.13809,0.57356 l 4.54752,13.99846 a 0.58355627,0.58355627 0 0 0 0.0268,0.0465 2.5918101,2.5918101 0 0 0 -0.91191,1.971 2.5918101,2.5918101 0 0 0 2.59163,2.59223 2.5918101,2.5918101 0 0 0 0.87934,-0.16034 0.58355627,0.58355627 0 0 0 0.29614,0.39263 l 14.05816,7.11445 a 0.58355627,0.58355627 0 0 0 0.34077,0.0468 2.5918101,2.5918101 0 0 0 2.57049,2.28948 2.5918101,2.5918101 0 0 0 2.1423,-1.13991 0.58355627,0.58355627 0 0 0 0.69718,0.41012 l 11.23255,-2.71887 -8.99614,22.97474 a 0.58355627,0.58355627 0 0 0 -0.0333,0.29249 2.5918101,2.5918101 0 0 0 -1.37997,-0.39864 2.5918101,2.5918101 0 0 0 -2.59163,2.5916 2.5918101,2.5918101 0 0 0 0.37696,1.33893 0.58355627,0.58355627 0 0 0 -0.20871,0.0899 l -3.91182,2.80151 a 0.58355627,0.58355627 0 0 0 -0.13501,0.1416 2.5918101,2.5918101 0 0 0 -1.88054,-0.80998 2.5918101,2.5918101 0 0 0 -2.43297,1.71649 0.58355627,0.58355627 0 0 0 -0.46805,-0.21647 l -65.84401,5.61205 a 0.58355627,0.58355627 0 0 0 -0.26961,0.13926 2.5918101,2.5918101 0 0 0 -2.3745,-1.55423 2.5918101,2.5918101 0 0 0 -2.55845,2.18994 l -55.80869,-12.68549 a 0.58355627,0.58355627 0 0 0 -0.19472,0.0339 2.5918101,2.5918101 0 0 0 -2.59099,-2.56088 2.5918101,2.5918101 0 0 0 -2.59163,2.5922 2.5918101,2.5918101 0 0 0 2.59163,2.59165 2.5918101,2.5918101 0 0 0 2.3944,-1.61397 0.58355627,0.58355627 0 0 0 0.13384,0.0947 l 55.90036,12.70657 a 0.58355627,0.58355627 0 0 0 0.23475,-0.0403 2.5918101,2.5918101 0 0 0 2.48969,1.87509 2.5918101,2.5918101 0 0 0 2.59159,-2.59163 2.5918101,2.5918101 0 0 0 -9.4e-4,-0.062 0.58355627,0.58355627 0 0 0 0.15215,0.0482 l 65.84343,-5.61208 a 0.58355627,0.58355627 0 0 0 0.21166,-0.0646 2.5918101,2.5918101 0 0 0 1.18151,2.16763 l -13.73186,14.21558 a 0.58355627,0.58355627 0 0 0 -0.0459,0.0827 2.5918101,2.5918101 0 0 0 -2.23638,-1.28284 2.5918101,2.5918101 0 0 0 -2.59163,2.5922 2.5918101,2.5918101 0 0 0 0.007,0.12475 0.58355627,0.58355627 0 0 0 -0.0195,-0.006 l -61.61315,6.1844 a 0.58355627,0.58355627 0 0 0 -0.20202,0.10862 2.5918101,2.5918101 0 0 0 -2.5512,-2.13684 2.5918101,2.5918101 0 0 0 -2.5916,2.5916 2.5918101,2.5918101 0 0 0 2.5916,2.59221 2.5918101,2.5918101 0 0 0 2.53735,-2.09344 0.58355627,0.58355627 0 0 0 0.33234,0.10057 l 61.61214,-6.18675 a 0.58355627,0.58355627 0 0 0 0.20254,-0.0647 2.5918101,2.5918101 0 0 0 2.2816,1.37632 2.5918101,2.5918101 0 0 0 2.5916,-2.59159 2.5918101,2.5918101 0 0 0 -0.0349,-0.42401 0.58355627,0.58355627 0 0 0 0.56692,-0.15857 l 13.77469,-14.26262 a 0.58355627,0.58355627 0 0 0 0.16288,-0.37032 2.5918101,2.5918101 0 0 0 0.36306,0.0268 2.5918101,2.5918101 0 0 0 2.59163,-2.59164 2.5918101,2.5918101 0 0 0 -0.15135,-0.87392 0.58355627,0.58355627 0 0 0 0.25512,-0.0995 l 3.91124,-2.80392 a 0.58355627,0.58355627 0 0 0 0.21407,-0.29314 2.5918101,2.5918101 0 0 0 1.53012,0.50843 2.5918101,2.5918101 0 0 0 2.59161,-2.59221 2.5918101,2.5918101 0 0 0 -0.64113,-1.70563 0.58355627,0.58355627 0 0 0 0.54765,-0.35343 l 9.34838,-23.87338 a 0.58355627,0.58355627 0 0 0 0.0216,-0.35765 2.5918101,2.5918101 0 0 0 2.37508,-2.57653 2.5918101,2.5918101 0 0 0 -0.93542,-1.99333 0.58355627,0.58355627 0 0 0 0.0604,-0.12182 l 3.54935,-13.08171 a 0.58355627,0.58355627 0 0 0 0.0195,-0.12285 2.5918101,2.5918101 0 0 0 1.97885,-2.51201 2.5918101,2.5918101 0 0 0 -2.30696,-2.57595 0.58355627,0.58355627 0 0 0 -0.11156,-0.6405 l -11.05461,-11.50901 a 0.58355627,0.58355627 0 0 0 -0.45052,-0.17207 2.5918101,2.5918101 0 0 0 0.20442,-0.99755 2.5918101,2.5918101 0 0 0 -2.59163,-2.59164 2.5918101,2.5918101 0 0 0 -2.24541,1.30939 0.58355627,0.58355627 0 0 0 -0.062,-0.056 l -29.55556,-21.25818 a 0.58355627,0.58355627 0 0 0 -0.1416,-0.0647 2.5918101,2.5918101 0 0 0 0.29372,-1.18633 2.5918101,2.5918101 0 0 0 -2.59163,-2.59222 2.5918101,2.5918101 0 0 0 -0.0242,10e-4 0.58355627,0.58355627 0 0 0 0.0349,-0.35041 l -9.93222,-44.43925 a 0.58355627,0.58355627 0 0 0 -0.10481,-0.1498 2.5918101,2.5918101 0 0 0 0.72796,-1.79247 2.5918101,2.5918101 0 0 0 -2.59162,-2.59221 2.5918101,2.5918101 0 0 0 -0.25216,0.0195 0.58355627,0.58355627 0 0 0 0.0507,-0.21836 l 0.41495,-14.39292 a 0.58355627,0.58355627 0 0 0 -0.0242,-0.17595 2.5918101,2.5918101 0 0 0 0.16816,0.0103 2.5918101,2.5918101 0 0 0 2.5922,-2.59221 2.5918101,2.5918101 0 0 0 -1.05607,-2.0868 0.58355627,0.58355627 0 0 0 0.28106,-0.26773 l 55.58013,-124.97395 a 0.58355627,0.58355627 0 0 0 -0.0838,-0.59768 2.5918101,2.5918101 0 0 0 1.1586,-2.15615 2.5918101,2.5918101 0 0 0 -2.59164,-2.59222 2.5918101,2.5918101 0 0 0 -2.31296,1.43302 0.58355627,0.58355627 0 0 0 -0.0884,-0.0692 0.58355627,0.58355627 0 0 0 -0.44447,0.0551 l -118.674,67.48933 a 0.58355627,0.58355627 0 0 0 -0.2189,0.79553 0.58355627,0.58355627 0 0 0 0.7955,0.21892 L 414.10496,106.4118 a 2.5918101,2.5918101 0 0 0 2.58978,2.56931 2.5918101,2.5918101 0 0 0 0.32149,-0.0242 l -55.45105,124.68524 a 0.58355627,0.58355627 0 0 0 -0.007,0.34558 2.5918101,2.5918101 0 0 0 -0.45292,-0.0918 0.58355627,0.58355627 0 0 0 0.0381,-0.20146 l -0.61275,-55.86177 a 0.58355627,0.58355627 0 0 0 -0.24601,-0.43846 2.5918101,2.5918101 0 0 0 0.76959,-1.83346 2.5918101,2.5918101 0 0 0 -2.59221,-2.59226 2.5918101,2.5918101 0 0 0 -2.42032,1.68332 0.58355627,0.58355627 0 0 0 -0.48069,-0.3251 l -59.85746,0.63813 a 0.58355627,0.58355627 0 0 0 -0.2334,0.099 2.5918101,2.5918101 0 0 0 -2.591,-2.55903 2.5918101,2.5918101 0 0 0 -2.48067,1.84553 0.58355627,0.58355627 0 0 0 -0.47587,-0.36969 l -78.33774,-8.07461 a 0.58355627,0.58355627 0 0 0 -0.53735,0.32933 2.5918101,2.5918101 0 0 0 -2.58499,-2.42036 2.5918101,2.5918101 0 0 0 -0.0393,10e-4 0.58355627,0.58355627 0 0 0 -0.15995,-0.40104 L 125.2613,77.153995 a 0.58355627,0.58355627 0 0 0 -0.41074,-0.177331 0.58355627,0.58355627 0 0 0 -0.31724,0.123576 2.5918101,2.5918101 0 0 0 0.006,-0.08019 2.5918101,2.5918101 0 0 0 -2.59223,-2.591599 z m 89.08415,92.289737 a 0.58355627,0.58355627 0 0 0 0.43183,0.3468 l 78.33832,8.07399 a 0.58355627,0.58355627 0 0 0 0.50057,-0.26235 2.5918101,2.5918101 0 0 0 -0.0155,0.21836 2.5918101,2.5918101 0 0 0 0.2323,1.07174 0.58355627,0.58355627 0 0 0 -0.45354,-0.007 l -51.80156,21.14429 a 2.5918101,2.5918101 0 0 0 -2.40104,-1.61759 2.5918101,2.5918101 0 0 0 -1.53555,0.51266 l -24.31899,-27.45496 a 0.58355627,0.58355627 0 0 0 -0.18084,-0.13824 2.5918101,2.5918101 0 0 0 1.20321,-1.88654 z m -4.02764,1.82504 a 2.5918101,2.5918101 0 0 0 1.45837,0.45419 2.5918101,2.5918101 0 0 0 0.56749,-0.0696 0.58355627,0.58355627 0 0 0 0.10628,0.58746 l 24.37759,27.52288 a 0.58355627,0.58355627 0 0 0 0.0589,0.039 2.5918101,2.5918101 0 0 0 -0.30095,1.1996 2.5918101,2.5918101 0 0 0 1.3745,2.28102 l -65.51354,6.80443 a 2.5918101,2.5918101 0 0 0 0.0242,-0.34861 2.5918101,2.5918101 0 0 0 -0.95595,-2.01019 0.58355627,0.58355627 0 0 0 0.2401,-0.0918 l 38.52207,-36.31999 a 0.58355627,0.58355627 0 0 0 0.0396,-0.0488 z m 83.8611,8.17535 a 2.5918101,2.5918101 0 0 0 2.01384,0.96801 2.5918101,2.5918101 0 0 0 0.12123,-0.007 l 0.44272,36.09026 a 2.5918101,2.5918101 0 0 0 -1.98913,2.51502 2.5918101,2.5918101 0 0 0 0.0132,0.18573 0.58355627,0.58355627 0 0 0 -0.0494,-0.001 l -50.60737,17.72335 a 0.58355627,0.58355627 0 0 0 -0.25997,0.23204 2.5918101,2.5918101 0 0 0 -0.5597,-0.38838 0.58355627,0.58355627 0 0 0 0.19082,0.0286 0.58355627,0.58355627 0 0 0 0.51266,-0.64473 l -3.72673,-32.68381 a 0.58355627,0.58355627 0 0 0 -0.0381,-0.0947 2.5918101,2.5918101 0 0 0 1.51263,-2.18088 0.58355627,0.58355627 0 0 0 0.0774,6e-4 l 51.98911,-21.22025 a 0.58355627,0.58355627 0 0 0 0.35702,-0.51988 z m 68.49959,1.26292 0.61397,55.72547 a 0.58355627,0.58355627 0 0 0 0.11698,0.27382 2.5918101,2.5918101 0 0 0 -1.43363,1.05365 0.58355627,0.58355627 0 0 0 -0.11273,-0.19718 l -16.94114,-19.40544 a 0.58355627,0.58355627 0 0 0 -0.39923,-0.19851 0.58355627,0.58355627 0 0 0 -0.33656,0.0922 2.5918101,2.5918101 0 0 0 0.77079,-1.83532 2.5918101,2.5918101 0 0 0 -0.99756,-2.04279 0.58355627,0.58355627 0 0 0 0.30158,-0.24436 l 18.29088,-32.95037 a 0.58355627,0.58355627 0 0 0 0.072,-0.25082 2.5918101,2.5918101 0 0 0 0.0551,-0.0215 z m -123.47417,23.62187 3.64286,31.9462 a 0.58355627,0.58355627 0 0 0 0.24678,0.38838 2.5918101,2.5918101 0 0 0 -0.97402,-0.1904 2.5918101,2.5918101 0 0 0 -2.28102,1.37512 0.58355627,0.58355627 0 0 0 -0.0103,-0.0318 0.58355627,0.58355627 0 0 0 -0.77743,-0.28044 l -56.2948,26.51326 a 0.58355627,0.58355627 0 0 0 -0.0362,0.0396 2.5918101,2.5918101 0 0 0 0.006,-0.0604 2.5918101,2.5918101 0 0 0 -1.70505,-2.43479 0.58355627,0.58355627 0 0 0 0.19611,-0.53557 l -8.25372,-49.82331 a 0.58355627,0.58355627 0 0 0 -0.0157,-0.0267 z m -67.38806,7.13072 0.0155,0.0941 a 0.58355627,0.58355627 0 0 0 -0.0531,-0.0497 0.58355627,0.58355627 0 0 0 -0.006,-9.6e-4 2.5918101,2.5918101 0 0 0 0.0429,-0.0429 z m 0.13443,0.81059 8.11439,48.97716 a 0.58355627,0.58355627 0 0 0 0.1183,0.19041 2.5918101,2.5918101 0 0 0 -0.0507,-9.4e-4 2.5918101,2.5918101 0 0 0 -2.54821,2.1453 0.58355627,0.58355627 0 0 0 -0.52654,-0.27864 l -40.57142,2.28464 a 2.5918101,2.5918101 0 0 0 0.0947,-0.68332 2.5918101,2.5918101 0 0 0 -0.27079,-1.15199 0.58355627,0.58355627 0 0 0 0.4234,-0.23284 l 35.19584,-51.20501 a 0.58355627,0.58355627 0 0 0 0.0215,-0.0446 z m 86.9684,56.1941 a 2.5918101,2.5918101 0 0 0 -2.58922,2.55122 0.58355627,0.58355627 0 0 0 -0.33653,0.0863 l -14.9876,9.92501 a 0.58355627,0.58355627 0 0 0 -0.25029,0.38175 2.5918101,2.5918101 0 0 0 -1.31177,-0.35702 2.5918101,2.5918101 0 0 0 -2.59221,2.59158 2.5918101,2.5918101 0 0 0 2.37567,2.57656 0.58355627,0.58355627 0 0 0 0.17616,0.4873 l 14.20775,12.83144 a 0.58355627,0.58355627 0 0 0 0.47948,0.1271 2.5918101,2.5918101 0 0 0 -0.0132,0.1744 2.5918101,2.5918101 0 0 0 2.59225,2.59158 2.5918101,2.5918101 0 0 0 2.22491,-1.27257 0.58355627,0.58355627 0 0 0 0.60856,0.15994 l 18.08159,-6.38706 a 0.58355627,0.58355627 0 0 0 0.35526,-0.74546 0.58355627,0.58355627 0 0 0 -0.0242,-0.0343 2.5918101,2.5918101 0 0 0 2.25387,-2.56809 2.5918101,2.5918101 0 0 0 -1.97279,-2.5162 0.58355627,0.58355627 0 0 0 -0.0271,-0.2291 l -2.89982,-8.6916 a 0.58355627,0.58355627 0 0 0 -0.31542,-0.33955 2.5918101,2.5918101 0 0 0 0.74124,-1.80577 2.5918101,2.5918101 0 0 0 -2.59163,-2.5916 2.5918101,2.5918101 0 0 0 -1.44689,0.44568 0.58355627,0.58355627 0 0 0 -0.19609,-0.1701 l -9.51486,-5.02641 a 0.58355627,0.58355627 0 0 0 -0.44451,-0.041 0.58355627,0.58355627 0 0 0 -0.0277,0.0155 2.5918101,2.5918101 0 0 0 -2.556,-2.16882 z m 2.50477,3.23819 9.4491,4.99263 a 2.5918101,2.5918101 0 0 0 -0.35944,1.30637 2.5918101,2.5918101 0 0 0 2.59157,2.5916 2.5918101,2.5918101 0 0 0 1.03439,-0.21836 0.58355627,0.58355627 0 0 0 0.0242,0.14351 l 2.85038,8.54321 a 2.5918101,2.5918101 0 0 0 -2.02649,2.52227 2.5918101,2.5918101 0 0 0 1.70018,2.42699 l -17.45012,6.16631 a 2.5918101,2.5918101 0 0 0 0.0242,-0.33716 2.5918101,2.5918101 0 0 0 -2.59161,-2.59161 2.5918101,2.5918101 0 0 0 -2.29789,1.40528 l -13.96408,-12.6113 a 2.5918101,2.5918101 0 0 0 1.62719,-2.39922 2.5918101,2.5918101 0 0 0 -0.53796,-1.58018 0.58355627,0.58355627 0 0 0 0.15312,-0.0626 l 14.90919,-9.87311 a 2.5918101,2.5918101 0 0 0 2.3594,1.52048 2.5918101,2.5918101 0 0 0 2.50479,-1.94507 z m 89.1921,7.89425 a 0.58355627,0.58355627 0 0 0 0.20497,0.0761 l 9.2959,1.34256 a 0.58355627,0.58355627 0 0 0 0.007,0 2.5918101,2.5918101 0 0 0 -0.19531,0.97345 2.5918101,2.5918101 0 0 0 2.59162,2.59221 2.5918101,2.5918101 0 0 0 0.45293,-0.0444 0.58355627,0.58355627 0 0 0 -0.0103,0.0712 l 0.8872,15.40913 a 2.5918101,2.5918101 0 0 0 -0.44995,-0.0403 2.5918101,2.5918101 0 0 0 -1.70985,0.64597 l -6.37982,-4.13143 c -0.0875,-0.0537 -0.18748,-0.083 -0.29012,-0.0855 -0.0132,-2.9e-4 -0.0267,9.4e-4 -0.039,10e-4 a 2.5918101,2.5918101 0 0 0 0.42156,-1.41553 2.5918101,2.5918101 0 0 0 -2.59159,-2.59163 2.5918101,2.5918101 0 0 0 -0.80637,0.1334 c 0.0286,-0.10086 0.0317,-0.21032 5.7e-4,-0.31846 l -2.94685,-10.24646 a 2.5918101,2.5918101 0 0 0 1.55607,-2.37148 z m 57.29722,54.28462 a 2.5918101,2.5918101 0 0 0 2.0506,1.01683 2.5918101,2.5918101 0 0 0 1.87268,-0.80817 0.58355627,0.58355627 0 0 0 0.12123,0.19296 l 10.98527,11.43521 a 2.5918101,2.5918101 0 0 0 -1.85159,2.48363 2.5918101,2.5918101 0 0 0 2.0096,2.51867 l -3.47155,12.79644 a 2.5918101,2.5918101 0 0 0 -0.61701,-0.0748 2.5918101,2.5918101 0 0 0 -2.59161,2.59165 2.5918101,2.5918101 0 0 0 1.27379,2.22551 l -11.43097,2.76468 a 0.58355627,0.58355627 0 0 0 -0.0918,0.0422 2.5918101,2.5918101 0 0 0 0.11933,-0.76956 2.5918101,2.5918101 0 0 0 -2.59159,-2.59163 2.5918101,2.5918101 0 0 0 -2.45348,1.77261 l -13.87483,-7.02458 a 2.5918101,2.5918101 0 0 0 0.7756,-1.83953 2.5918101,2.5918101 0 0 0 -2.59223,-2.5916 2.5918101,2.5918101 0 0 0 -0.63808,0.085 l -4.50532,-13.86941 a 0.58355627,0.58355627 0 0 0 -0.0216,-0.0396 2.5918101,2.5918101 0 0 0 2.56268,-2.58979 2.5918101,2.5918101 0 0 0 -1.12362,-2.13506 l 10.55765,-4.27615 a 0.58355627,0.58355627 0 0 0 0.0155,-0.007 2.5918101,2.5918101 0 0 0 2.35456,1.50904 2.5918101,2.5918101 0 0 0 2.59224,-2.59164 2.5918101,2.5918101 0 0 0 -0.006,-0.14645 0.58355627,0.58355627 0 0 0 0.11757,0.0216 l 10.35804,-0.091 a 0.58355627,0.58355627 0 0 0 0.0928,-0.0117 z m -155.64711,11.66256 -47.70818,8.97626 c -0.0339,0.006 -0.0611,0.0242 -0.0922,0.0353 a 2.5918101,2.5918101 0 0 0 -2.27741,-1.35582 2.5918101,2.5918101 0 0 0 -2.5916,2.59163 2.5918101,2.5918101 0 0 0 2.5916,2.59222 2.5918101,2.5918101 0 0 0 0.41013,-0.0353 c 9.4e-4,0.0215 -0.006,0.043 -0.001,0.0652 l 10.74159,53.91854 a 2.5918101,2.5918101 0 0 0 -1.48064,2.33889 2.5918101,2.5918101 0 0 0 2.59161,2.59161 2.5918101,2.5918101 0 0 0 2.2219,-1.26594 0.58355627,0.58355627 0 0 0 0.4427,0.39443 l 94.34279,10.58419 a 0.58355627,0.58355627 0 0 0 0.64472,-0.51507 0.58355627,0.58355627 0 0 0 -0.51505,-0.64533 l -94.34212,-10.58359 a 0.58355627,0.58355627 0 0 0 -0.28892,0.0831 2.5918101,2.5918101 0 0 0 0.0863,-0.64352 2.5918101,2.5918101 0 0 0 -2.56447,-2.59101 L 200.4283,355.49044 c -0.0195,-0.10114 -0.0674,-0.18573 -0.12798,-0.25996 a 2.5918101,2.5918101 0 0 0 1.16285,-2.15918 2.5918101,2.5918101 0 0 0 -0.001,-0.12475 l 47.68767,-8.97207 c 0.31803,-0.0545 0.53151,-0.35633 0.47643,-0.67429 -0.0544,-0.31803 -0.35692,-0.53154 -0.67487,-0.47648 z" /></g></svg>
