<?xml version="1.0" encoding="UTF-8" standalone="no"?>
<!-- Created with Inkscape (http://www.inkscape.org/) -->

<svg
   width="500mm"
   height="500mm"
   viewBox="0 0 500 500"
   version="1.1"
   id="svg1"
   inkscape:version="1.3.2 (091e20e, 2023-11-25)"
   sodipodi:docname="Cupcake Logo.svg"
   xmlns:inkscape="http://www.inkscape.org/namespaces/inkscape"
   xmlns:sodipodi="http://sodipodi.sourceforge.net/DTD/sodipodi-0.dtd"
   xmlns="http://www.w3.org/2000/svg"
   xmlns:svg="http://www.w3.org/2000/svg">
  <sodipodi:namedview
     id="namedview1"
     pagecolor="#ffffff"
     bordercolor="#000000"
     borderopacity="0.25"
     inkscape:showpageshadow="2"
     inkscape:pageopacity="0.0"
     inkscape:pagecheckerboard="0"
     inkscape:deskcolor="#d1d1d1"
     inkscape:document-units="mm"
     showgrid="false"
     inkscape:zoom="0.25982083"
     inkscape:cx="944.88189"
     inkscape:cy="944.88189"
     inkscape:window-width="1356"
     inkscape:window-height="697"
     inkscape:window-x="0"
     inkscape:window-y="0"
     inkscape:window-maximized="1"
     inkscape:current-layer="layer1" />
  <defs
     id="defs1">
    <inkscape:path-effect
       effect="powerstroke"
       id="path-effect5"
       is_visible="true"
       lpeversion="1.3"
       scale_width="1"
       interpolator_type="CentripetalCatmullRom"
       interpolator_beta="0.2"
       start_linecap_type="zerowidth"
       end_linecap_type="round"
       offset_points="0.31955198,0.69766937 | 0.52642842,1.7084974 | 0.74781177,2.7840836"
       linejoin_type="round"
       miter_limit="4"
       not_jump="false"
       sort_points="true"
       message="&lt;b&gt;Ctrl + click&lt;/b&gt; on existing node and move it" />
    <inkscape:path-effect
       effect="powerstroke"
       id="path-effect4"
       is_visible="true"
       lpeversion="1.3"
       scale_width="1"
       interpolator_type="CentripetalCatmullRom"
       interpolator_beta="0.2"
       start_linecap_type="zerowidth"
       end_linecap_type="zerowidth"
       offset_points="0.23394043,2.6232114 | 1.5,5 | 2.5055499,1.7114672"
       linejoin_type="round"
       miter_limit="4"
       not_jump="false"
       sort_points="true"
       message="&lt;b&gt;Ctrl + click&lt;/b&gt; on existing node and move it" />
    <inkscape:path-effect
       effect="powerstroke"
       id="path-effect3"
       is_visible="true"
       lpeversion="1.3"
       scale_width="1"
       interpolator_type="CentripetalCatmullRom"
       interpolator_beta="0.2"
       start_linecap_type="zerowidth"
       end_linecap_type="zerowidth"
       offset_points="0.45700362,3.5341233 | 8.5,5 | 16.729654,3.4140619"
       linejoin_type="round"
       miter_limit="4"
       not_jump="false"
       sort_points="true"
       message="&lt;b&gt;Ctrl + click&lt;/b&gt; on existing node and move it" />
    <inkscape:path-effect
       effect="powerstroke"
       id="path-effect2"
       is_visible="true"
       lpeversion="1.3"
       scale_width="1"
       interpolator_type="CentripetalCatmullRom"
       interpolator_beta="0.2"
       start_linecap_type="zerowidth"
       end_linecap_type="zerowidth"
       offset_points="0.48761069,2.2784446 | 1.5,5 | 2.8,5"
       linejoin_type="round"
       miter_limit="4"
       not_jump="false"
       sort_points="true"
       message="&lt;b&gt;Ctrl + click&lt;/b&gt; on existing node and move it" />
    <inkscape:path-effect
       effect="powerstroke"
       id="path-effect1"
       is_visible="true"
       lpeversion="1.3"
       scale_width="1"
       interpolator_type="CentripetalCatmullRom"
       interpolator_beta="0.19847328"
       start_linecap_type="zerowidth"
       end_linecap_type="zerowidth"
       offset_points="0.37688353,4.3485814 | 2.1023182,5 | 4.8,5"
       linejoin_type="miter"
       miter_limit="4"
       not_jump="false"
       sort_points="true"
       message="&lt;b&gt;Ctrl + click&lt;/b&gt; on existing node and move it" />
  </defs>
  <g
     inkscape:label="Layer 1"
     inkscape:groupmode="layer"
     id="layer1">
    <rect
       style="fill:#ff9b9b;fill-opacity:1;stroke:none;stroke-width:10;stroke-linecap:round;stroke-linejoin:round;stroke-dasharray:none;stroke-opacity:1"
       id="rect2"
       width="500"
       height="500"
       x="0"
       y="0" />
    <g
       id="g6"
       transform="translate(-2.4740601e-4,-15.025094)">
      <g
         id="g5"
         transform="translate(-8.404837)">
        <path
           style="fill:#ff6565;fill-opacity:1;fill-rule:nonzero;stroke:none;stroke-width:10;stroke-linecap:round;stroke-linejoin:round;stroke-dasharray:none;stroke-opacity:1"
           d="m 369.69827,221.96662 c 0.0442,-0.24429 -1.43411,-1.28077 -10.24111,-3.32061 -7.47153,-1.73053 -27.5852,-5.77171 -59.89021,-9.10841 -3.75457,-0.3878 -7.79484,-0.77847 -12.0885,-1.15819 -19.53454,-1.72762 -48.10374,-3.56566 -79.66304,-3.1176 -25.31723,0.35945 -55.19735,2.22373 -84.29148,7.72204 l 3.08241,0.4353 c -0.57252,-0.29583 -1.08149,-0.41378 -1.35657,-0.46574 -0.30148,-0.0569 -0.55687,-0.0768 -0.72552,-0.0851 -0.32814,-0.0161 -0.60651,-2.3e-4 -0.76124,0.011 -0.32332,0.0234 -0.61562,0.0661 -0.82238,0.1006 -0.43565,0.0728 -0.90034,0.1788 -1.40703,0.31862 -0.97245,0.26834 -2.24749,0.70384 -3.74913,1.34512 -2.73603,1.16845 -6.58453,3.17853 -10.46176,6.28117 -3.58349,2.86757 -7.4654,6.89086 -10.29817,12.30398 -1.357156,2.59338 -2.479188,5.5179 -3.198599,8.78796 -0.699801,3.18092 -1.013574,6.66624 -0.803695,10.46186 0.21113,3.8092 1.003917,7.26028 2.362388,10.33805 1.330394,3.01416 3.154822,5.55907 5.333426,7.66743 2.12289,2.05444 4.51966,3.63492 7.00493,4.84338 2.4321,1.18261 4.95566,2.01256 7.41557,2.59067 4.78289,1.12402 9.44278,1.3226 12.93668,1.24063 3.39828,-0.0797 5.73532,-0.43024 5.92527,-0.45476 l -0.12447,0.0184 c 0.60494,-0.0718 9.59022,-1.28357 25.27207,-9.43722 15.00953,-7.80407 36.45636,-22.24447 61.65755,-48.94556 23.61635,-25.02309 51.62079,-41.31232 74.29936,-51.42554 22.13371,-9.87024 38.57882,-13.52042 38.30008,-13.49363 -0.18504,0.0235 1.25936,-0.31637 3.51375,-0.52239 2.28439,-0.20876 5.27031,-0.27148 8.27916,0.21442 1.49311,0.24113 2.94343,0.60976 4.29119,1.13423 1.34491,0.52337 2.56459,1.1927 3.6278,2.02917 1.0558,0.83064 1.99641,1.85607 2.77234,3.14549 0.77892,1.2944 1.43998,2.93511 1.8471,5.03958 0.65917,3.43867 0.70388,6.23119 0.38641,8.49378 -0.3161,2.25281 -1.00032,4.05168 -1.88584,5.51959 -0.89339,1.48096 -2.05484,2.7286 -3.42753,3.78939 -1.387,1.07183 -2.98762,1.95039 -4.71719,2.66124 -3.51286,1.44377 -7.30363,2.09338 -10.29695,2.36994 -2.98117,0.27544 -5.00116,0.16399 -4.81961,0.19162 l -0.48721,-0.006 c 0.19771,0.0274 -27.77087,0.91014 -66.1577,-3.77436 -19.78782,-2.41479 -42.19174,-6.24987 -65.41878,-12.26369 -23.72301,-6.14222 -47.96259,-14.46861 -71.05555,-25.67422 -0.45523,-0.254 -0.93447,-0.48114 -1.41876,-0.68256 -0.57254,-0.23813 -1.18634,-0.45452 -1.82884,-0.64473 -1.29677,-0.3839 -2.76764,-0.67813 -4.3421,-0.81864 -1.60257,-0.14302 -3.33946,-0.12923 -5.13526,0.12501 -1.83045,0.25915 -3.7223,0.76831 -5.58693,1.61409 -1.86386,0.84544 -3.70795,2.03069 -5.42329,3.64138 -1.68134,1.57876 -3.20113,3.53071 -4.48966,5.90098 -2.498309,4.5957 -4.106402,10.71846 -4.437818,18.78995 -0.09143,2.23512 0.07938,4.34608 0.544496,6.32345 0.463684,1.97126 1.214624,3.78188 2.257538,5.40412 1.036294,1.61192 2.317084,2.96964 3.777534,4.08881 1.44359,1.10626 3.03119,1.95585 4.68632,2.6007 3.24922,1.26591 6.86463,1.78427 10.47843,1.87143 3.59196,0.0866 7.35506,-0.24938 11.0448,-0.8193 7.265,-1.12218 14.50305,-3.19311 19.96173,-4.98989 4.28196,-1.40945 7.48186,-2.65722 8.64755,-3.11092 1.48687,-0.38363 17.83331,-5.13919 39.90142,-15.20193 11.30129,-5.15323 24.12684,-11.72852 36.98979,-19.81466 12.67488,-7.9679 25.48276,-17.46332 36.91925,-28.58635 1.32224,-1.01424 2.97043,-1.88286 4.66915,-2.39386 1.77788,-0.53481 3.30623,-0.58981 4.42529,-0.31946 0.53686,0.1297 0.97225,0.33065 1.33656,0.58685 0.35794,0.25174 0.73001,0.61462 1.08765,1.16733 0.36743,0.56784 0.74999,1.38077 1.05472,2.56042 0.30646,1.18636 0.52473,2.71598 0.55896,4.66229 0.0181,1.01012 -0.14487,1.71909 -0.35301,2.22829 -0.20529,0.50224 -0.51435,0.95763 -0.97578,1.39774 -0.47796,0.45586 -1.17114,0.93897 -2.13601,1.39355 -0.97574,0.4597 -2.18399,0.87096 -3.6421,1.20821 -2.94682,0.68158 -6.60476,0.99122 -10.79412,0.96176 -4.1735,-0.0293 -8.70329,-0.39306 -13.31328,-0.97181 -9.27155,-1.16398 -18.61738,-3.16517 -25.64087,-4.88076 -7.07524,-1.72823 -11.73729,-3.15067 -11.65316,-3.14428 l -0.0187,-0.006 c 0.0873,-0.0125 -15.0618,-4.55855 -32.50548,-10.98107 -8.97367,-3.30399 -18.47279,-7.06519 -27.13268,-11.01454 -4.38685,-2.00064 -8.50955,-4.0274 -12.21572,-6.047051 -3.69392,-2.012976 -6.89916,-3.978344 -9.51278,-5.86141 -0.90217,-0.715634 -1.87651,-1.240787 -2.8603,-1.608681 -1.06042,-0.396548 -2.12358,-0.607963 -3.13299,-0.694039 -2.01321,-0.171672 -3.97256,0.139598 -5.69655,0.667898 -1.76955,0.542263 -3.4693,1.366349 -4.99614,2.385041 -1.55186,1.035379 -3.01214,2.329767 -4.22423,3.858495 -1.24195,1.566387 -2.26783,3.429337 -2.8074,5.575407 -0.55986,2.22677 -0.55025,4.61635 0.18567,6.99425 0.73441,2.37301 2.14147,4.52169 3.96617,6.34384 1.81353,1.81098 4.09254,3.37623 6.74452,4.73722 0.52458,0.29537 1.01306,0.47662 1.3962,0.59102 0.58787,0.17553 1.1159,0.24941 1.51407,0.28338 0.78066,0.0666 1.5,0.0144 2.03413,-0.0466 0.57217,-0.0653 1.15016,-0.16726 1.70202,-0.28223 0.56295,-0.11727 1.15287,-0.25952 1.75539,-0.41787 1.21256,-0.31867 2.57351,-0.72834 4.01985,-1.19595 1.47304,-0.47623 3.07774,-1.02656 4.7674,-1.62853 6.96544,-2.48155 15.78707,-5.98793 23.92198,-9.33246 19.26849,-7.92193 33.48179,-14.348633 33.43154,-14.506938 a 0.22224339,0.14676204 8.2663877 0 0 0.30308,-0.142442 c -0.18351,-0.06755 3.85438,-2.19893 8.4076,-4.213849 2.67633,-1.184345 5.54228,-2.347227 8.41551,-3.36925 3.23786,-1.151723 6.26718,-2.047542 9.00615,-2.654118 3.23374,-0.716148 5.78104,-0.967366 7.76292,-0.917849 1.15771,0.02893 2.0794,0.159265 2.81504,0.334212 0.56667,0.134765 1.03864,0.299722 1.43399,0.476692 0.2108,0.09436 0.40896,0.195563 0.59548,0.303878 0.63209,0.367062 1.18616,0.848306 1.66992,1.51813 0.59802,0.82802 1.04666,1.889812 1.34651,3.148327 0.38513,1.616433 0.49515,3.448929 0.43495,5.227168 -0.0877,2.590116 -0.53081,5.171509 -1.09463,7.248629 0.90541,-1.86187 2.16482,-4.34472 3.1141,-6.830157 0.66002,-1.728071 1.27964,-3.725112 1.53452,-5.780868 0.19607,-1.581441 0.19406,-3.333916 -0.27155,-5.087326 -0.38708,-1.457683 -1.09906,-2.926142 -2.27421,-4.243512 -0.34028,-0.381452 -0.715,-0.745123 -1.12487,-1.087878 -0.77729,-0.650015 -1.68302,-1.229396 -2.72434,-1.717586 -1.34498,-0.630549 -2.88001,-1.092267 -4.60661,-1.374573 -2.91237,-0.476183 -6.30271,-0.431249 -10.14324,0.102775 -3.27028,0.454731 -6.76471,1.25005 -10.3735,2.294926 -3.2131,0.930309 -6.36951,2.015785 -9.30519,3.121146 -5.11767,1.926935 -9.37515,3.899123 -9.52781,3.842927 l 0.30308,-0.142442 c -0.0612,-0.192925 -15.13281,6.197767 -33.55039,13.499529 -8.17757,3.242049 -16.79372,6.557689 -23.4972,8.857929 -1.61554,0.55436 -3.10761,1.04531 -4.44098,1.4574 -1.32103,0.40828 -2.45382,0.72903 -3.37358,0.95497 -0.45338,0.11137 -0.83398,0.19448 -1.14251,0.2522 -0.30982,0.058 -0.51236,0.0835 -0.60032,0.0884 -0.0767,0.004 -0.0267,-0.0296 0.37464,0.003 0.17853,0.0143 0.51409,0.0539 0.94021,0.18067 0.41242,0.12268 1.0905,0.38044 1.80302,0.93196 l -0.96844,-0.61697 c -1.87816,-0.97912 -3.04488,-1.88136 -3.73564,-2.59424 -0.66086,-0.68203 -0.81254,-1.09477 -0.85129,-1.25323 -0.0252,-0.10317 -0.0133,-0.16703 0.0187,-0.27208 0.044,-0.14461 0.1669,-0.44197 0.49764,-0.84868 0.32541,-0.40016 0.79028,-0.82741 1.37437,-1.21175 0.57487,-0.37827 1.17672,-0.65625 1.71763,-0.81987 0.51509,-0.15581 0.91326,-0.1636 0.95398,-0.16011 0.0202,0.002 -0.0499,-5.3e-4 -0.19972,-0.0569 -0.15363,-0.0578 -0.36902,-0.16691 -0.59418,-0.35611 l 0.34457,0.26835 c 3.20656,2.32126 6.95307,4.60017 11.02044,6.81036 4.0321,2.19102 8.43529,4.34451 13.02444,6.42879 9.04928,4.10997 18.87972,7.97608 28.02907,11.31922 17.8573,6.525 33.21826,11.0675 33.30553,11.05498 l -0.0187,-0.006 c 0.0842,0.006 4.95173,1.44795 12.33126,3.20695 7.27203,1.73337 17.11813,3.80378 27.0261,5.00029 4.93384,0.59582 9.95846,0.98437 14.7354,0.99269 4.73572,0.008 9.40565,-0.35585 13.57667,-1.35092 2.09427,-0.49961 4.13681,-1.17553 6.03389,-2.08951 1.90492,-0.91777 3.70413,-2.09311 5.26449,-3.61847 1.57453,-1.53923 2.84953,-3.38551 3.69699,-5.54343 0.84415,-2.14954 1.20466,-4.45589 1.14017,-6.85722 -0.0783,-2.70888 -0.41962,-5.18555 -1.03635,-7.42181 -0.61778,-2.24001 -1.52083,-4.26308 -2.71787,-6.01225 -1.20647,-1.76294 -2.67708,-3.19934 -4.35575,-4.29156 -1.67359,-1.08891 -3.46755,-1.77997 -5.27112,-2.15577 -3.56816,-0.74349 -7.15888,-0.25813 -10.25715,0.75357 -3.13093,1.02236 -6.06368,2.67738 -8.442,4.65555 a 0.4161512,2.6449945 57.113731 0 0 -0.37188,0.33282 c -10.76309,10.57825 -22.96257,19.7202 -35.20836,27.48028 -12.33699,7.81787 -24.69175,14.21551 -35.6424,19.26492 -22.27545,10.27133 -38.59285,14.9552 -38.40529,14.94906 l -0.5874,0.20693 c 0.0992,-0.0163 -3.32657,1.44592 -8.33375,3.13677 -5.1626,1.74334 -11.79509,3.66538 -18.27319,4.70113 -3.28045,0.52449 -6.41244,0.80379 -9.23306,0.75079 -2.87698,-0.054 -5.23212,-0.45082 -7.0369,-1.1413 -0.89532,-0.34253 -1.62162,-0.7445 -2.20661,-1.18654 -0.58203,-0.43981 -1.05315,-0.94056 -1.43025,-1.51896 -0.38061,-0.58378 -0.70888,-1.31342 -0.93351,-2.24898 -0.22834,-0.95101 -0.35378,-2.13442 -0.29839,-3.60008 0.26625,-6.99427 1.61781,-11.51521 3.1832,-14.41464 0.80151,-1.48456 1.67518,-2.57588 2.53591,-3.3871 0.87773,-0.82724 1.7924,-1.41077 2.70079,-1.82245 0.91653,-0.41539 1.87668,-0.67839 2.85199,-0.81431 0.96181,-0.13404 1.92291,-0.14207 2.83478,-0.0568 0.89963,0.0841 1.71227,0.25549 2.37547,0.45721 0.3257,0.0991 0.59942,0.20064 0.81536,0.29332 0.2174,0.0933 0.35106,0.16709 0.39791,0.19778 a 0.85926617,0.06636548 23.874611 0 0 0.36474,0.19632 c 23.84288,11.60304 48.77718,20.18162 73.05718,26.49194 23.72814,6.1669 46.57478,10.10066 66.71745,12.58671 36.56734,4.51322 63.82886,4.08379 67.36348,4.03181 0.5238,0.0428 2.88326,0.1561 6.24395,-0.11766 3.58184,-0.29178 8.51656,-1.04937 13.37169,-2.99679 2.42969,-0.97457 4.90777,-2.27411 7.20401,-4.01712 2.297,-1.74359 4.41517,-3.93421 6.09674,-6.66949 1.6812,-2.73467 2.86404,-5.91404 3.40038,-9.55763 0.53261,-3.61835 0.41802,-7.62279 -0.40656,-12.03983 -0.60215,-3.23942 -1.66136,-6.09587 -3.124,-8.57979 -1.46187,-2.4826 -3.2778,-4.50959 -5.3054,-6.13984 -2.01669,-1.62149 -4.20221,-2.81863 -6.39472,-3.69824 -2.18757,-0.87763 -4.40357,-1.44802 -6.51439,-1.81142 -4.19949,-0.72299 -8.16925,-0.65784 -11.03368,-0.43605 -2.90442,0.22488 -4.80427,0.61709 -4.98914,0.64055 -0.27891,0.0268 -17.43206,3.79248 -40.54171,14.03745 -23.58641,10.45632 -53.05424,27.47909 -78.06597,53.92587 -24.38993,25.78813 -44.82138,39.39736 -58.61553,46.55662 -14.44703,7.49811 -22.08214,8.31632 -21.4772,8.2445 l -0.12447,0.0184 c 0.18994,-0.0245 -1.67679,0.28028 -4.4102,0.3639 -2.88127,0.0881 -6.49892,-0.0638 -10.03572,-0.86403 -1.79673,-0.40652 -3.49946,-0.96406 -5.04353,-1.69571 -1.56953,-0.74371 -2.94266,-1.65156 -4.09432,-2.7392 -1.16663,-1.10178 -2.1527,-2.43106 -2.8995,-4.06641 -0.76806,-1.68191 -1.32295,-3.77628 -1.49792,-6.40228 -0.18553,-2.79531 0.0161,-5.27658 0.46554,-7.47814 0.46259,-2.26592 1.19922,-4.29153 2.10273,-6.10325 1.89543,-3.80073 4.59763,-6.80021 7.30039,-9.10133 2.91901,-2.48522 5.88205,-4.19222 7.96398,-5.23681 1.14242,-0.5732 2.02356,-0.94998 2.5862,-1.18694 0.2753,-0.11594 0.4844,-0.20126 0.48337,-0.22482 -7e-4,-0.0161 -0.054,-0.0113 -0.2662,-9.9e-4 -0.0792,0.004 -0.31179,0.0158 -0.58915,0.001 -0.14579,-0.008 -0.38214,-0.0258 -0.66705,-0.0798 -0.2586,-0.049 -0.7545,-0.16302 -1.31691,-0.45369 l 3.08244,0.4353 c 28.31192,-5.60459 57.62376,-7.74027 82.65118,-8.40285 31.03482,-0.82163 59.6198,0.53102 78.92412,1.76888 4.26509,0.27349 8.29181,0.5559 12.02552,0.83301 33.544,2.48965 50.85817,4.55932 60.02068,5.27577 8.97177,0.70152 10.68029,0.41959 10.73575,0.1127 z"
           id="path3"
           sodipodi:nodetypes="ccscscsccsccsccccc"
           inkscape:path-effect="#path-effect3"
           inkscape:original-d="m 369.69827,221.96662 c 0,0 -138.24709,-24.98321 -245.26581,-4.28514 -0.64336,-0.32814 -27.385964,8.42384 -25.823494,34.4619 1.562474,26.03806 34.479724,20.81455 34.479724,20.81455 0,0 34.49532,-4.71165 83.51115,-56.59192 49.01584,-51.88028 115.6035,-66.44126 115.6035,-66.44126 0,0 26.80573,-5.86087 30.84642,15.53264 5.92838,31.38798 -30.38501,29.20706 -30.38501,29.20706 0,0 -110.16197,3.74478 -205.15124,-42.44458 -4.53609,-2.68816 -24.11136,-6.01659 -25.28929,23.67312 -1.17793,29.68971 54.81129,6.14697 54.81129,6.14697 0,0 67.32136,-19.31209 111.69826,-62.76898 7.46735,-6.10227 22.23119,-8.32058 22.68166,10.30924 0.65958,27.2779 -76.15665,4.22615 -76.15665,4.22615 0,0 -59.93448,-17.77889 -83.44064,-34.807552 -5.86023,-4.900205 -24.62776,8.332812 -6.02298,17.873232 3.24546,2.52213 69.41598,-26.114848 69.41598,-26.114848 0,0 58.96496,-29.971968 43.24807,11.931048"
           transform="matrix(0.70253008,0,0,0.70253008,76.86774,43.151979)" />
        <path
           style="fill:#ffffff;fill-opacity:1;fill-rule:nonzero;stroke:none;stroke-width:10;stroke-linecap:round;stroke-linejoin:round;stroke-dasharray:none;stroke-opacity:1"
           d="m 154.98411,315.03536 c -6.03092,1.5773 -15.56954,2.23569 -25.62483,-1.48901 -3.28527,-1.21694 -6.33181,-2.80048 -8.99394,-4.64869 -0.0378,-0.0262 -0.0754,-0.0525 -0.11298,-0.0788 -2.26386,-1.5846 -4.25889,-3.40114 -5.70517,-5.34521 -1.28907,-1.73275 -1.97473,-3.34598 -2.14031,-4.68433 -0.0741,-0.59872 -0.0422,-1.12125 0.0657,-1.58478 0.10165,-0.43693 0.28611,-0.8887 0.59589,-1.35979 0.30239,-0.45985 0.76603,-1.00095 1.48783,-1.58065 0.7049,-0.56612 1.66523,-1.17595 2.96377,-1.77051 2.4984,-1.14392 6.15843,-2.18873 11.36817,-2.75844 2.49904,-0.1592 31.48483,-1.97151 79.01119,-10.76549 47.77654,-8.84028 111.95837,-24.60039 177.89786,-52.34619 l 0.33284,-0.14005 0.32467,-0.19565 c -0.17696,0.10664 -0.30159,0.15931 -0.33167,0.17186 -0.0388,0.0162 -0.0359,0.0132 0.0152,-0.002 0.0648,-0.0191 0.17541,-0.0484 0.33781,-0.0823 0.0901,-0.0188 0.1932,-0.0383 0.30962,-0.0578 0.62146,-0.10402 1.54978,-0.19503 2.73094,-0.19544 2.14152,-7.5e-4 5.04873,0.29982 8.04692,1.30253 2.76774,0.92564 5.52841,2.42159 7.80262,4.75477 1.09331,1.12167 2.09939,2.4614 2.95555,4.07519 0.84265,1.58832 1.56406,3.48735 2.06813,5.77138 1.03369,4.66592 1.08636,8.53446 0.6371,11.6848 -0.44806,3.14197 -1.40451,5.63611 -2.463,7.56706 -1.08526,1.97976 -2.31233,3.42923 -3.30356,4.40003 -0.51312,0.50255 -0.96571,0.87935 -1.30556,1.13567 -0.17355,0.13089 -0.31636,0.22932 -0.41887,0.29458 -0.10007,0.0637 -0.16885,0.0995 -0.15203,0.0808 l -0.42136,0.29741 c -0.35926,0.26389 -1.0562,0.71197 -2.25156,1.34395 -1.17998,0.62386 -2.67089,1.33498 -4.47014,2.1186 -3.75729,1.63641 -8.59289,3.47414 -14.29741,5.40629 -13.01187,4.40719 -29.09411,8.83065 -46.54557,12.80191 -30.90041,7.03172 -58.75936,11.06537 -80.85675,13.98827 -29.99479,3.96753 -56.34212,7.32537 -65.20505,7.95394 10.35734,0.76574 33.83256,3.67784 66.11748,2.00436 22.09505,-1.14529 51.52975,-4.40528 82.78305,-10.80346 17.86964,-3.65828 34.5708,-7.99501 48.20036,-12.47705 5.97993,-1.96648 11.2402,-3.9214 15.4948,-5.76245 2.03936,-0.88248 3.88525,-1.75506 5.48114,-2.60462 1.52563,-0.81215 2.98147,-1.68652 4.1938,-2.61715 l -0.42135,0.2974 c 0.29367,-0.19891 0.60428,-0.42857 0.92459,-0.68281 0.31809,-0.25247 0.66344,-0.54326 1.0291,-0.8722 0.71365,-0.64199 1.53145,-1.45343 2.39089,-2.44021 1.66287,-1.90927 3.54243,-4.54524 5.09648,-7.94981 1.52932,-3.35036 2.72095,-7.39719 3.09919,-12.14946 0.3784,-4.75443 -0.0694,-10.05819 -1.65543,-15.92148 -0.88106,-3.28277 -2.1197,-6.16491 -3.63451,-8.67797 -1.53961,-2.55419 -3.33889,-4.6847 -5.27784,-6.44873 -4.01334,-3.65128 -8.54604,-5.66704 -12.56047,-6.76152 -4.33569,-1.18206 -8.37986,-1.38015 -11.3512,-1.24597 -1.65582,0.0748 -3.11002,0.25757 -4.29625,0.49034 -0.22956,0.0451 -0.45299,0.0927 -0.66954,0.14291 -0.3792,0.0879 -0.75776,0.18861 -1.12442,0.30438 -0.28515,0.09 -0.58549,0.19618 -0.88686,0.3222 -0.17238,0.0721 -0.36421,0.15859 -0.56646,0.2621 -65.01429,27.3025 -128.43286,42.65873 -175.68228,51.17359 -49.08946,8.84646 -78.09702,10.14434 -77.93352,10.11903 l -0.27041,0.0222 c -6.10127,0.64867 -11.0265,1.93617 -14.89818,3.74558 -2.02194,0.94494 -3.7899,2.04787 -5.29216,3.30461 -1.55322,1.29937 -2.81804,2.76009 -3.76968,4.35938 -0.98885,1.66182 -1.6034,3.41317 -1.87678,5.18483 -0.28382,1.83925 -0.18983,3.62979 0.16426,5.30416 0.75686,3.5789 2.69662,6.66079 4.91632,9.08523 2.54767,2.78266 5.6741,4.94739 8.80193,6.51997 0.0528,0.0265 0.10567,0.053 0.15863,0.0792 3.71793,1.8448 7.76355,3.00069 11.79817,3.54568 12.21666,1.65022 21.84961,-2.37575 27.16508,-4.91627 z"
           id="path1"
           inkscape:path-effect="#path-effect1"
           inkscape:original-d="m 154.98411,315.03536 c -37.89538,13.86848 -71.057525,-26.0017 -26.5842,-30.76145 0,0 124.33971,-7.11028 255.461,-62.25468 2.93246,-1.78195 26.86352,-3.57811 32.3692,18.554 5.26145,21.15036 -6.63921,31.08357 -8.94537,32.58945 -12.3735,9.42152 -102.89004,38.10896 -217.94856,37.93667"
           sodipodi:nodetypes="cccscc"
           transform="matrix(0.70253008,0,0,0.70253008,76.86774,43.151979)" />
        <path
           style="fill:#ffffff;fill-opacity:1;fill-rule:nonzero;stroke:none;stroke-width:10;stroke-linecap:round;stroke-linejoin:round;stroke-dasharray:none;stroke-opacity:1"
           d="m 386.74357,304.18849 c -0.15014,-0.11623 -1.42614,0.70072 -5.78345,6.43638 -4.39072,5.77963 -11.55317,16.30278 -19.15918,30.85356 -0.31829,0.60892 -0.63904,1.22781 -0.96197,1.85657 -10.77,20.96977 -26.50315,57.81826 -30.64196,103.71791 l 3.76621,-3.62825 c 0.0359,-0.005 0.0457,-0.009 0.0479,-0.0124 0.002,-0.004 -0.004,-0.007 -0.0133,-0.0105 -0.0194,-0.007 -0.0573,-0.0136 -0.10432,-0.0201 -0.0948,-0.0132 -0.23792,-0.0265 -0.41714,-0.0395 -0.35882,-0.0261 -0.87726,-0.0521 -1.53861,-0.0777 -1.31526,-0.0511 -3.20579,-0.10138 -5.59923,-0.15069 -4.74322,-0.0977 -11.44759,-0.19135 -19.51328,-0.27953 -16.05314,-0.17552 -37.40862,-0.32838 -58.48142,-0.44397 -18.22971,-0.1 -39.33659,-0.26821 -55.81359,-0.45124 -9.04376,-0.10047 -16.75248,-0.20603 -21.90492,-0.30961 0.67632,-7.27904 1.23867,-19.68708 -0.0766,-32.90987 -1.38947,-13.96884 -4.33916,-26.98964 -8.42662,-38.25811 -1.06854,-2.94576 -2.17318,-5.65525 -3.27889,-8.11174 -7.18607,-15.96473 -16.78285,-25.52631 -21.13031,-30.38899 3.13575,6.20051 7.20474,17.95737 11.74678,33.84579 0.69732,2.43929 1.42379,5.06838 2.15258,7.91606 2.82414,11.03514 5.02874,22.88381 6.13858,36.17123 1.61483,19.33344 -0.28851,36.85989 0.10452,36.56104 a 6.2763172,3.7035139 79.92598 0 0 5.91596,6.8979 c 1.9e-4,-0.17525 12.11907,-0.36766 28.75531,-0.54147 16.44134,-0.17177 37.62099,-0.32848 55.81519,-0.42099 21.07829,-0.10717 42.42514,-0.25566 58.48523,-0.4376 8.06762,-0.0914 14.772,-0.19084 19.51977,-0.29783 2.39665,-0.054 4.28769,-0.10976 5.61099,-0.1673 0.66689,-0.029 1.18678,-0.0583 1.55947,-0.0882 0.18803,-0.0151 0.33519,-0.03 0.45133,-0.0453 0.0595,-0.008 0.10588,-0.0151 0.15305,-0.0232 0.023,-0.004 0.0452,-0.008 0.0703,-0.012 0.0236,-0.004 0.054,-0.009 0.10118,-0.014 a 3.8727512,4.2737383 88.250954 0 0 3.76621,-3.62825 c 3.03901,-44.58915 17.23902,-81.17656 26.95876,-102.30756 0.29098,-0.6326 0.57998,-1.25564 0.86672,-1.86896 6.81446,-14.57578 13.18207,-25.60831 16.76568,-31.74482 3.598,-6.16115 4.24318,-7.45051 4.09304,-7.56674 z"
           id="path2"
           sodipodi:nodetypes="cccc"
           inkscape:path-effect="#path-effect2"
           inkscape:original-d="m 386.74357,304.18849 c 0,0 -45.96826,59.37729 -52.61538,143.17625 -1.62171,0.0679 -170.35446,0 -170.35446,0 0,0 9.68974,-63.02033 -26.06083,-115.4041"
           transform="matrix(0.70253008,0,0,0.70253008,76.86774,43.151979)" />
        <path
           id="path4"
           style="fill:#ff3333;fill-opacity:1;fill-rule:nonzero;stroke:none;stroke-width:10;stroke-linecap:round;stroke-linejoin:round"
           d="m 156.85171,82.042768 c -1.13026,-2.05775 -2.48856,-6.072602 -3.51623,-11.267498 -0.0471,-0.23822 -0.0937,-0.48299 -0.13912,-0.73418 -0.54532,-3.014478 -0.90083,-6.825953 -0.25727,-11.160477 0.49933,-3.363093 1.58199,-6.873245 3.45714,-10.241925 1.72396,-3.097069 4.06351,-5.972725 7.05931,-8.407032 3.00289,-2.440065 6.27205,-4.102753 9.56745,-5.118152 3.61251,-1.113111 7.15056,-1.419155 10.36891,-1.227009 3.46145,0.206661 6.9444,0.972634 10.26655,2.376494 3.35661,1.418426 6.52282,3.477967 9.29053,6.222304 3.37979,2.856847 5.87861,6.051607 7.43698,9.266317 0.0194,0.04007 0.0387,0.0801 0.0578,0.120102 2.25245,4.719158 2.85645,9.013967 3.02078,11.630062 0.53848,-2.464194 1.25785,-7.029771 0.24448,-12.656962 -0.009,-0.04845 -0.0175,-0.09703 -0.0265,-0.145733 -0.70234,-3.834958 -2.02764,-8.463659 -5.06235,-13.080414 -2.94803,-3.917728 -6.64354,-7.156606 -10.89956,-9.524731 -4.2066,-2.340632 -8.83716,-3.759418 -13.56743,-4.178419 -4.38474,-0.388394 -9.2507,0.0181 -14.18394,1.63353 -4.50978,1.476766 -8.89255,3.908495 -12.77929,7.381166 -3.87516,3.462329 -6.7518,7.519316 -8.68773,11.78307 -2.10097,4.62723 -3.01279,9.306022 -3.09777,13.592057 -0.1093,5.511794 1.13871,10.1034 2.60327,13.392381 0.12283,0.275826 0.24698,0.542148 0.37173,0.798829 2.68975,5.534033 6.8411,8.294105 8.47225,9.54622 z"
           sodipodi:nodetypes="cssc"
           inkscape:path-effect="#path-effect4"
           inkscape:original-d="m 156.85171,82.042768 c -11.59544,-13.51244 -10.0414,-33.866396 3.47104,-45.461833 13.51244,-11.595433 33.8664,-10.041395 45.46183,3.471045 5.79772,6.75622 8.30807,15.222821 7.67993,23.449794"
           transform="matrix(0.70233004,-0.01676369,0.01676369,0.70233004,75.272776,50.597069)" />
        <path
           style="fill:#ff3333;fill-opacity:1;fill-rule:nonzero;stroke:none;stroke-width:10;stroke-linecap:round;stroke-linejoin:round;stroke-dasharray:none;stroke-opacity:1"
           d="m 168.89766,28.682106 c 0.0359,-0.0253 0.0461,-0.13704 -0.22413,-0.616549 -0.27632,-0.490317 -0.77445,-1.231682 -1.51271,-2.17898 -0.39932,-0.512396 -0.79117,-0.986629 -1.19727,-1.470448 -1.22316,-1.457235 -2.71915,-3.141654 -4.48505,-4.655809 -0.27196,-0.233196 -0.55747,-0.468799 -0.85747,-0.70525 -2.39443,-1.887253 -5.41987,-3.965491 -9.34475,-5.188028 -0.0375,-0.01168 -0.0753,-0.02333 -0.11327,-0.03494 -2.21156,-0.675674 -4.93943,-1.135359 -7.96758,-1.200214 -3.04978,-0.06532 -5.55672,0.282405 -7.12543,0.524027 a 2.7840836,2.7840836 90 0 0 0.84764,5.50327 c 1.35747,-0.209084 3.53458,-0.418812 6.10671,-0.315813 2.61387,0.104671 4.7783,0.484247 6.7373,0.888356 0.001,3.03e-4 0.0965,0.01995 0.0979,0.02025 3.35969,0.695984 6.42179,1.551614 8.9662,2.710494 0.3158,0.143835 0.62276,0.286997 0.91903,0.428359 1.97968,0.944602 3.72827,1.920997 5.2635,3.042418 0.47942,0.350192 0.96676,0.739272 1.43692,1.137902 0.84955,0.720313 1.53613,1.382609 1.92277,1.736426 0.39899,0.365129 0.48669,0.404813 0.52965,0.374535 z"
           id="path5"
           inkscape:path-effect="#path-effect5"
           inkscape:original-d="m 168.89766,28.682106 c 0,0 -11.29472,-16.025902 -32.40384,-12.77456"
           transform="matrix(0.70253008,0,0,0.70253008,74.739119,44.127827)" />
      </g>
      <text
         xml:space="preserve"
         style="font-style:normal;font-variant:normal;font-weight:normal;font-stretch:normal;font-size:114.56px;line-height:1;font-family:'Festive December';-inkscape-font-specification:'Festive December';letter-spacing:0px;word-spacing:0px;fill:#ff3333;fill-opacity:1;stroke:none;stroke-width:101.48;stroke-linecap:round;stroke-linejoin:round;stroke-dasharray:none;stroke-opacity:1"
         x="93.855453"
         y="457.57852"
         id="text5"><tspan
           sodipodi:role="line"
           id="tspan5"
           style="font-style:normal;font-variant:normal;font-weight:normal;font-stretch:normal;font-family:'Festive December';-inkscape-font-specification:'Festive December';stroke:none;stroke-width:101.48;stroke-dasharray:none;stroke-opacity:1"
           x="93.855453"
           y="457.57852">Cupcake</tspan></text>
    </g>
  </g>
</svg>
