<?xml version="1.0" encoding="UTF-8" standalone="no"?>
<!-- Created with Inkscape (http://www.inkscape.org/) -->

<svg
   width="500mm"
   height="500mm"
   viewBox="0 0 500 500"
   version="1.1"
   id="svg1"
   inkscape:version="1.3.2 (091e20e, 2023-11-25)"
   xml:space="preserve"
   sodipodi:docname="Falkon.svg"
   xmlns:inkscape="http://www.inkscape.org/namespaces/inkscape"
   xmlns:sodipodi="http://sodipodi.sourceforge.net/DTD/sodipodi-0.dtd"
   xmlns:xlink="http://www.w3.org/1999/xlink"
   xmlns="http://www.w3.org/2000/svg"
   xmlns:svg="http://www.w3.org/2000/svg"><sodipodi:namedview
     id="namedview1"
     pagecolor="#ffffff"
     bordercolor="#000000"
     borderopacity="0.25"
     inkscape:showpageshadow="2"
     inkscape:pageopacity="0.0"
     inkscape:pagecheckerboard="0"
     inkscape:deskcolor="#d1d1d1"
     inkscape:document-units="mm"
     showgrid="false"
     inkscape:zoom="0.25982083"
     inkscape:cx="944.88189"
     inkscape:cy="944.88189"
     inkscape:window-width="1356"
     inkscape:window-height="697"
     inkscape:window-x="0"
     inkscape:window-y="0"
     inkscape:window-maximized="1"
     inkscape:current-layer="layer1" /><defs
     id="defs1"><inkscape:path-effect
       effect="perspective-envelope"
       up_left_point="149.58634,83.005355"
       up_right_point="269.80083,89.946693"
       down_left_point="149.58634,155.11159"
       down_right_point="269.80083,148.17025"
       id="path-effect46"
       is_visible="true"
       lpeversion="1"
       deform_type="perspective"
       horizontal_mirror="true"
       vertical_mirror="false"
       overflow_perspective="false" /><inkscape:path-effect
       effect="fillet_chamfer"
       id="path-effect32"
       is_visible="true"
       lpeversion="1"
       nodesatellites_param="F,0,1,1,0,5.3704947,0,1 @ F,0,0,1,0,5.3704947,0,1 @ F,0,0,1,0,0,0,1 | F,0,1,1,0,5.3704947,0,1 @ F,0,0,1,0,0,0,1 @ F,0,0,1,0,0,0,1"
       radius="0"
       unit="px"
       method="auto"
       mode="F"
       chamfer_steps="1"
       flexible="false"
       use_knot_distance="true"
       apply_no_radius="true"
       apply_with_radius="true"
       only_selected="false"
       hide_knots="false" /><inkscape:path-effect
       effect="fillet_chamfer"
       id="path-effect30"
       is_visible="true"
       lpeversion="1"
       nodesatellites_param="F,0,1,1,0,5.3704947,0,1 @ F,0,0,1,0,5.3704947,0,1 @ F,0,0,1,0,0,0,1"
       radius="0"
       unit="px"
       method="auto"
       mode="F"
       chamfer_steps="1"
       flexible="false"
       use_knot_distance="true"
       apply_no_radius="true"
       apply_with_radius="true"
       only_selected="false"
       hide_knots="false" /><inkscape:path-effect
       effect="fillet_chamfer"
       id="path-effect27"
       is_visible="true"
       lpeversion="1"
       nodesatellites_param="F,0,0,1,0,0,0,1 @ F,0,0,1,0,18.079386,0,1 @ F,0,0,1,0,0,0,1 @ F,0,0,1,0,0,0,1 @ F,0,0,1,0,0,0,1 @ F,0,0,1,0,0,0,1 @ F,0,0,1,0,0,0,1 @ F,0,0,1,0,0,0,1 @ F,0,0,1,0,0,0,1 @ F,0,0,1,0,20.983707,0,1"
       radius="0"
       unit="px"
       method="auto"
       mode="F"
       chamfer_steps="1"
       flexible="false"
       use_knot_distance="true"
       apply_no_radius="true"
       apply_with_radius="true"
       only_selected="false"
       hide_knots="false" /><inkscape:path-effect
       effect="mirror_symmetry"
       start_point="319.17933,47.974849"
       end_point="319.17933,177.33491"
       center_point="319.17933,112.65488"
       id="path-effect25"
       is_visible="true"
       lpeversion="1.2"
       lpesatellites=""
       mode="free"
       discard_orig_path="false"
       fuse_paths="true"
       oposite_fuse="false"
       split_items="false"
       split_open="false"
       link_styles="false" /><inkscape:path-effect
       effect="fillet_chamfer"
       id="path-effect23"
       is_visible="true"
       lpeversion="1"
       nodesatellites_param="F,0,0,1,0,0,0,1 @ F,0,0,1,0,18.079386,0,1 @ F,0,0,1,0,0,0,1 @ F,0,0,1,0,0,0,1 @ F,0,0,1,0,0,0,1 @ F,0,0,1,0,0,0,1 @ F,0,0,1,0,0,0,1 @ F,0,0,1,0,0,0,1 @ F,0,0,1,0,0,0,1 @ F,0,0,1,0,20.983707,0,1"
       radius="0"
       unit="px"
       method="auto"
       mode="F"
       chamfer_steps="1"
       flexible="false"
       use_knot_distance="true"
       apply_no_radius="true"
       apply_with_radius="true"
       only_selected="false"
       hide_knots="false" /><inkscape:path-effect
       effect="mirror_symmetry"
       start_point="319.17933,47.974849"
       end_point="319.17933,177.33491"
       center_point="319.17933,112.65488"
       id="path-effect21"
       is_visible="true"
       lpeversion="1.2"
       lpesatellites=""
       mode="free"
       discard_orig_path="false"
       fuse_paths="true"
       oposite_fuse="false"
       split_items="false"
       split_open="false"
       link_styles="false" /><inkscape:path-effect
       effect="fillet_chamfer"
       id="path-effect19"
       is_visible="true"
       lpeversion="1"
       nodesatellites_param="F,0,0,1,0,0,0,1 @ F,0,0,1,0,18.079386,0,1 @ F,0,0,1,0,0,0,1 @ F,0,0,1,0,0,0,1 @ F,0,0,1,0,0,0,1 @ F,0,0,1,0,0,0,1 @ F,0,0,1,0,0,0,1 @ F,0,0,1,0,0,0,1 @ F,0,0,1,0,0,0,1 @ F,0,0,1,0,20.983707,0,1"
       radius="0"
       unit="px"
       method="auto"
       mode="F"
       chamfer_steps="1"
       flexible="false"
       use_knot_distance="true"
       apply_no_radius="true"
       apply_with_radius="true"
       only_selected="false"
       hide_knots="false" /><inkscape:path-effect
       effect="mirror_symmetry"
       start_point="319.17933,47.974849"
       end_point="319.17933,177.33491"
       center_point="319.17933,112.65488"
       id="path-effect18"
       is_visible="true"
       lpeversion="1.2"
       lpesatellites=""
       mode="free"
       discard_orig_path="false"
       fuse_paths="true"
       oposite_fuse="false"
       split_items="false"
       split_open="false"
       link_styles="false" /><inkscape:path-effect
       effect="mirror_symmetry"
       start_point="319.17933,47.974849"
       end_point="319.17933,177.33491"
       center_point="319.17933,112.65488"
       id="path-effect16"
       is_visible="true"
       lpeversion="1.2"
       lpesatellites=""
       mode="free"
       discard_orig_path="false"
       fuse_paths="true"
       oposite_fuse="false"
       split_items="false"
       split_open="false"
       link_styles="false" /><linearGradient
       id="linearGradient19"
       inkscape:collect="always"><stop
         style="stop-color:#0e007a;stop-opacity:1;"
         offset="0"
         id="stop19" /><stop
         style="stop-color:#0065f3;stop-opacity:1;"
         offset="0"
         id="stop21" /><stop
         style="stop-color:#5500f9;stop-opacity:1;"
         offset="1"
         id="stop20" /></linearGradient><linearGradient
       id="linearGradient15"
       inkscape:collect="always"><stop
         style="stop-color:#ff6868;stop-opacity:1;"
         offset="0"
         id="stop16" /><stop
         style="stop-color:#ff6868;stop-opacity:1;"
         offset="0.55881399"
         id="stop18" /><stop
         style="stop-color:#ff0a0a;stop-opacity:1;"
         offset="1"
         id="stop17" /></linearGradient><linearGradient
       id="linearGradient13"
       inkscape:collect="always"><stop
         style="stop-color:#ff6868;stop-opacity:1;"
         offset="0"
         id="stop13" /><stop
         style="stop-color:#ff6666;stop-opacity:1;"
         offset="0.55717379"
         id="stop15" /><stop
         style="stop-color:#f21818;stop-opacity:1;"
         offset="1"
         id="stop14" /></linearGradient><linearGradient
       id="linearGradient8"
       inkscape:collect="always"><stop
         style="stop-color:#ffb942;stop-opacity:1;"
         offset="0"
         id="stop8" /><stop
         style="stop-color:#ff6404;stop-opacity:1;"
         offset="1"
         id="stop9" /></linearGradient><linearGradient
       inkscape:collect="always"
       xlink:href="#linearGradient8"
       id="linearGradient9"
       x1="395.30453"
       y1="113.02847"
       x2="322.26672"
       y2="111.78439"
       gradientUnits="userSpaceOnUse"
       gradientTransform="translate(-175.1419,28.352065)" /><linearGradient
       inkscape:collect="always"
       xlink:href="#linearGradient13"
       id="linearGradient14"
       x1="556.32379"
       y1="214.56267"
       x2="297.90558"
       y2="400.10938"
       gradientUnits="userSpaceOnUse"
       gradientTransform="translate(-190.71263,36.748724)" /><linearGradient
       inkscape:collect="always"
       xlink:href="#linearGradient15"
       id="linearGradient17"
       x1="460.46552"
       y1="184.97951"
       x2="298.75931"
       y2="260.65295"
       gradientUnits="userSpaceOnUse"
       gradientTransform="translate(-190.71263,35.312331)" /><linearGradient
       inkscape:collect="always"
       xlink:href="#linearGradient19"
       id="linearGradient20"
       x1="301.58972"
       y1="346.68311"
       x2="569.99042"
       y2="75.418861"
       gradientUnits="userSpaceOnUse"
       gradientTransform="translate(-190.71263,35.312331)" /><filter
       inkscape:collect="always"
       style="color-interpolation-filters:sRGB"
       id="filter60"
       x="-0.14384991"
       y="-0.14384991"
       width="1.2876998"
       height="1.2876998"><feGaussianBlur
         inkscape:collect="always"
         stdDeviation="7.3694828"
         id="feGaussianBlur60" /></filter></defs><g
     inkscape:label="Layer 1"
     inkscape:groupmode="layer"
     id="layer1"><path
       id="rect29"
       style="opacity:1;fill:#ffffff;stroke-width:0.953;stroke-linejoin:round;stroke-dasharray:3.81201, 1.906"
       d="m 157.1657,100.70692 h 11.29441 v 25.79385 H 157.1657 Z" /><circle
       style="fill:url(#linearGradient20);fill-opacity:1;stroke:none;stroke-width:3;stroke-linecap:round;stroke-linejoin:round;stroke-dasharray:none;stroke-opacity:1"
       id="path1"
       cx="249.99992"
       cy="249.99994"
       r="194.73048" /><path
       style="fill:#080808;fill-opacity:1;stroke:none;stroke-width:4.99999;stroke-linecap:butt;stroke-linejoin:round;stroke-dasharray:none;stroke-opacity:1"
       d="m 112.11049,324.88751 c 0,0 -2.33849,0.76708 -3.1724,3.18897 -0.83391,2.42186 1.39544,4.36123 1.39544,4.36123"
       id="path13" /><path
       style="fill:url(#linearGradient9);fill-opacity:1;stroke:none;stroke-width:6.00001;stroke-linecap:square;stroke-linejoin:miter;stroke-dasharray:none;stroke-opacity:1"
       d="m 147.57906,139.87177 c 0,0 32.63937,-5.04123 74.84781,1.68145 0.33868,-0.0318 -3.57419,11.78676 -13.36705,12.61228 0.007,-0.15322 -15.5516,-11.02132 -61.48076,-14.29373 z"
       id="path6" /><path
       style="opacity:0.35789;fill:#7e27ff;fill-opacity:1;stroke:none;stroke-width:3;stroke-linecap:square;stroke-linejoin:miter;stroke-dasharray:none;stroke-opacity:1"
       d="m 375.66617,398.88435 c 0,0 68.51097,-51.22492 69.15623,-156.90695 0.17788,-0.002 -54.83796,-40.91217 -54.83796,-40.91217 l -244.12358,31.10147 -37.29893,62.53891 10.45093,10.14631 15.61075,101.62293 c 0,0 25.09763,23.01664 56.76604,18.57039 31.6684,-4.44624 184.27652,-26.16089 184.27652,-26.16089 z"
       id="path19"
       sodipodi:nodetypes="cccccccsc" /><path
       style="fill:none;fill-opacity:1;stroke:#080808;stroke-width:4.99999;stroke-linecap:round;stroke-linejoin:round;stroke-opacity:1"
       d="m 318.88333,151.9485 c 0,0 1.51457,-0.90058 -4.23959,-1.15212 -5.75413,-0.25154 1.62238,4.37934 1.62238,4.37934 z"
       id="path10"
       sodipodi:nodetypes="cccc" /><path
       style="fill:#00ba0f;fill-opacity:1;stroke:none;stroke-width:6.01157;stroke-linecap:square;stroke-linejoin:miter;stroke-dasharray:none;stroke-opacity:1"
       d="m 108.38692,294.86889 c 0,0 120.82403,-137.12183 314.36749,-43.97813 -0.42566,0.12778 -2.75815,-50.07934 -66.85365,-64.24008 -0.011,-0.5493 -76.25258,-104.908829 -209.0038,-46.40073 -0.5591,0.2949 34.66893,-4.6958 73.34733,0.87572 -0.38887,0.18161 -3.05875,12.38973 -14.34032,12.71929 -0.21109,0.45047 -87.03407,-26.47436 -97.51705,141.02393 z"
       id="path2" /><path
       id="path17"
       style="fill:#080808;fill-opacity:1;stroke:#080808;stroke-width:0.953;stroke-linecap:butt;stroke-linejoin:round;stroke-dasharray:none;stroke-dashoffset:0;stroke-opacity:1;opacity:0.27317739"
       d="M 345.4989 118.32006 C 324.11635 108.75426 298.03401 102.56492 266.2999 102.3849 C 265.66911 102.42569 299.86271 112.26078 332.89105 133.14584 C 332.46192 133.15276 325.03826 143.20517 314.60623 138.89762 C 314.29648 139.16483 268.07707 98.713627 208.30031 166.9264 C 245.50057 174.49443 284.27424 177.12082 319.17937 177.33484 C 347.79259 177.1594 379.00811 175.36381 409.82461 170.55871 C 395.7106 151.33071 375.14286 131.58171 345.4989 118.32006 z "
       transform="rotate(-24.109785,295.25098,400.87342)" /><path
       style="fill:#00ba0f;fill-opacity:1;stroke:none;stroke-width:6.00001;stroke-linecap:square;stroke-linejoin:miter;stroke-dasharray:none;stroke-opacity:1"
       d="m 144.25442,412.71858 c 0,0 56.55565,-151.17966 231.81884,-156.4866 -0.5176,-1.00572 -127.97484,22.60723 0.23754,142.94121 -0.25459,-0.54044 -102.21735,93.77253 -232.05638,13.54539 z"
       id="path4"
       sodipodi:nodetypes="cccc" /><path
       style="fill:#1a1a1a;fill-opacity:1;stroke:none;stroke-width:6.00001;stroke-linecap:square;stroke-linejoin:miter;stroke-dasharray:none;stroke-opacity:1"
       d="m 325.46028,198.81486 c 0,0 -2.01106,-32.01896 -35.93164,-22.52933 0.14909,-0.238 3.96968,26.53144 35.93164,22.52933 z"
       id="path5" /><path
       id="circle18"
       style="fill:#999999;fill-opacity:1;stroke:none;stroke-width:3.01749;stroke-linecap:round;stroke-linejoin:round;stroke-dasharray:none;stroke-opacity:1"
       d="M 250,54.133279 A 195.86662,195.86662 0 0 0 54.13328,250 195.86662,195.86662 0 0 0 250,445.86672 195.86662,195.86662 0 0 0 445.86673,250 195.86662,195.86662 0 0 0 250,54.133279 Z m 0,2.367221 A 193.49923,193.49923 0 0 1 443.499,250 193.49923,193.49923 0 0 1 250,443.49899 193.49923,193.49923 0 0 1 56.5005,250 193.49923,193.49923 0 0 1 250,56.5005 Z" /><path
       style="fill:#00ba0f;fill-opacity:1;stroke:none;stroke-width:6.00001;stroke-linecap:square;stroke-linejoin:miter;stroke-dasharray:none;stroke-opacity:1"
       d="m 122.79881,438.34996 c 0,0 -41.87001,-48.13171 2.82947,-154.1928 -0.11878,0.61874 117.96442,-117.45854 293.50626,-31.26683 -0.0325,0.16423 -214.22831,-33.21242 -296.33573,185.45963 z"
       id="path3" /><path
       style="fill:url(#linearGradient17);fill-opacity:1;stroke:none;stroke-width:3;stroke-linecap:square;stroke-linejoin:miter;stroke-dasharray:none;stroke-opacity:1"
       d="m 108.42512,294.8458 c 0.17872,0.0151 55.70188,-64.9462 165.80973,-75.87732 -0.0223,-0.0931 -164.63933,-11.72257 -165.80973,75.87732 z"
       id="path8"
       sodipodi:nodetypes="ccc" /><path
       style="fill:url(#linearGradient14);fill-opacity:1;stroke:none;stroke-width:6.00001;stroke-linecap:square;stroke-linejoin:miter;stroke-dasharray:none;stroke-opacity:1"
       d="m 122.61748,438.20427 c 0,0 -12.05016,-14.87227 -16.19945,-44.1886 0,0 90.98724,-151.07952 263.5601,-142.48127 -0.19197,1.99022 -171.71285,-3.8457 -247.36065,186.66987 z"
       id="path7"
       sodipodi:nodetypes="cccc" /><rect
       style="fill:#080808;stroke-width:4.99999;stroke-linecap:round;stroke-linejoin:round;fill-opacity:1"
       id="rect2"
       width="52.077076"
       height="42.258198"
       x="323.19662"
       y="53.677475"
       ry="8.6427622"
       transform="rotate(19.256799)" /><path
       id="path20"
       style="fill:#1c1c1c;fill-opacity:1;stroke:none;stroke-width:0.953;stroke-linecap:butt;stroke-linejoin:round;stroke-dasharray:none;stroke-dashoffset:0;stroke-opacity:1"
       d="m 319.17933,177.33491 c -39.09861,-0.23972 -75.63286,-2.42527 -114.88964,-12.01169 -9.69899,-2.36847 -19.85733,-12.55209 -20.38169,-22.4912 -0.49526,-9.38746 0.51104,-20.64036 6.13421,-28.90442 11.4272,-9.57059 19.40227,7.6679 19.40227,7.6679 0,0 15.50273,16.42702 10.46325,30.45191 -0.0473,0.5516 34.6173,-95.867959 99.35881,-100.16726 69.61196,-8.113534 120.16589,109.58762 120.1186,109.03602 -6.0115,-12.57909 -7.70866,-22.26285 12.30339,-46.3707 5.2685,-6.3468 11.9933,-10.86504 23.4205,-1.29445 5.0541,7.42773 2.87569,16.98042 2.73239,25.71253 -0.18944,11.54389 -12.02909,23.41016 -23.3068,26.07158 -38.18919,9.01225 -97.1958,12.06581 -135.35529,12.29978 z"
       sodipodi:nodetypes="ccccccccscssc"
       transform="rotate(-24.109785,262.46306,434.51771)" /><path
       id="path9"
       style="color:#000000;fill:#080808;stroke-linejoin:round;-inkscape-stroke:none"
       d="m 316.78118,150.53706 c -0.57293,2.6178 -3.71996,8.08625 -6.73447,12.46074 -3.0145,4.37449 -5.84151,7.88893 -5.84151,7.88893 l 3.89227,3.13676 c 0,0 2.93272,-3.63958 6.06682,-8.18762 3.03466,-4.40375 6.30395,-9.43786 7.39489,-13.80174 0.0199,-0.15456 0.0133,-0.30396 0,-0.45217 z"
       sodipodi:nodetypes="csccsccc" /><path
       style="color:#000000;fill:#080808;stroke-linejoin:round;-inkscape-stroke:none"
       d="m 302.74609,191.25 -4.67968,1.76562 c 0.43196,1.1457 -0.12476,5.09292 -2.79883,10.37305 -2.67408,5.28013 -7.09106,11.91935 -12.86914,19.29102 -11.55617,14.74333 -28.54946,32.46646 -48.05664,49.10351 -39.01437,33.27411 -88.26808,61.82518 -123.45899,55.34375 -1.32107,1.44386 -1.36552,3.14174 -0.90882,4.93934 38.48821,7.08872 88.1129,-22.79092 127.61195,-56.4784 19.74952,-16.84374 36.92314,-34.74052 48.74609,-49.82422 5.91148,-7.54185 10.48617,-14.36863 13.39649,-20.11523 2.91031,-5.74661 4.53024,-10.3864 3.01757,-14.39844 z"
       id="path12"
       sodipodi:nodetypes="ccsssccsssc" /><g
       id="g60"
       transform="matrix(0.80722579,0,0,0.80722579,65.735359,31.129967)"><circle
         style="opacity:1;fill:#fffc59;fill-opacity:1;stroke:none;stroke-width:0.499999;stroke-linecap:round;stroke-linejoin:round;stroke-dasharray:none;stroke-dashoffset:0;stroke-opacity:1"
         id="path50"
         cx="370.6239"
         cy="103.74284"
         r="61.476437" /><circle
         style="opacity:1;fill:#fffc59;fill-opacity:1;stroke:none;stroke-width:0.499999;stroke-linecap:round;stroke-linejoin:round;stroke-dasharray:none;stroke-dashoffset:0;stroke-opacity:1;filter:url(#filter60)"
         id="circle60"
         cx="370.6239"
         cy="103.74284"
         r="61.476437" /><path
         id="path51"
         style="opacity:1;fill:#fffc26;fill-opacity:1;stroke:none;stroke-width:0.499999;stroke-linecap:round;stroke-linejoin:round;stroke-dasharray:none;stroke-dashoffset:0;stroke-opacity:1"
         d="m 392.28613,46.227153 c -1.99255,0.214672 -4.12584,2.731838 -6.02599,3.250964 -4.63709,1.266875 -9.12025,-0.878653 -13.15216,2.916101 -1.02502,0.964728 -5.36416,7.347722 -0.30283,7.792289 3.63828,0.319572 10.29068,-1.074597 15.00219,-2.024166 4.07819,0.289076 5.80053,5.560957 10.89804,3.15588 5.15224,-2.430892 1.39271,-10.262851 -2.78743,-13.588835 a 61.476437,61.476437 0 0 0 -3.63182,-1.502233 z m -50.71421,3.51348 a 61.476437,61.476437 0 0 0 -31.29629,42.944666 c 6.9486,3.018334 13.13782,-6.210117 17.50643,-9.655225 2.97699,-2.347659 6.67283,-1.499437 9.82214,-3.743957 3.52319,-2.510974 12.6349,-19.499056 9.82214,-23.767542 -1.50901,-2.289991 -3.8549,-3.891468 -5.85442,-5.777942 z m 71.59563,21.141345 c -0.47914,-0.0036 -0.93184,0.06571 -1.34411,0.216525 -8.35048,3.054669 0.26272,20.493331 6.33863,16.538008 9.9933,-6.505468 0.65924,-16.711878 -4.99452,-16.754533 z m -31.58154,5.813082 c -3.23702,-0.09175 0.8645,8.214463 2.53576,8.695077 2.68851,0.773153 9.40114,4.37517 11.8737,2.851505 2.49444,-1.537175 0.32973,-7.790971 -1.85002,-8.684224 -3.77886,-1.548567 -7.59854,-0.628508 -11.30835,-2.546098 -0.50275,-0.207191 -0.91623,-0.306769 -1.25109,-0.31626 z m -36.55952,4.880839 c -1.01091,-0.0062 -2.01317,0.362483 -2.52337,1.19941 -1.60078,2.626004 -6.92702,6.481466 -4.19199,8.219137 2.73505,1.737671 8.56113,-3.235181 9.60769,-6.696232 0.50203,-1.660343 -1.2075,-2.712037 -2.89233,-2.722315 z m 22.61877,7.353557 c -0.1898,-0.0016 -0.38194,0.0025 -0.57619,0.01188 -10.49108,0.507553 -12.31627,25.231294 -9.9565,30.666854 1.47555,3.39885 14.05339,12.53786 20.58582,7.22592 8.96102,-3.82439 17.72117,-1.75583 18.7694,-16.08428 0.20442,-2.79408 0.13318,-6.29418 -1.95079,-8.46668 -3.23035,-3.367616 -8.36931,-3.403377 -12.31139,-5.506633 -4.88084,-2.604123 -8.67644,-7.798382 -14.56035,-7.847066 z m -41.30342,20.413224 c -0.10219,-0.002 -0.2054,0.0101 -0.30954,0.0413 -2.14837,0.64506 0.086,4.88496 2.01693,4.69274 2.9784,-0.29649 4.11704,-4.93045 0.3793,-3.65818 -0.69879,-0.30169 -1.37137,-1.05891 -2.08669,-1.0759 z m -14.93914,10.63966 a 61.476437,61.476437 0 0 0 9.04492,19.05568 c 1.32131,-2.54952 2.3757,-5.46452 1.25316,-7.8729 -1.65772,-3.55664 -6.2213,-5.44368 -8.74572,-8.27081 -0.35132,-0.39345 -0.91143,-1.60476 -1.55236,-2.91197 z m 113.72536,0.9524 c -2.4706,0.0449 -4.87691,0.66657 -6.81613,1.91978 -4.12343,2.66474 -2.78497,8.80852 -7.01249,11.14609 -4.28792,2.37095 -14.76729,1.48583 -10.93215,10.51253 1.65422,3.89351 3.94004,6.61464 7.21817,8.15868 a 61.476437,61.476437 0 0 0 21.88032,-31.22239 c -1.41446,-0.36117 -2.88595,-0.54107 -4.33772,-0.51469 z m -87.86803,20.53673 c -0.49878,-0.003 -0.95324,0.11884 -1.34772,0.39894 -2.20168,1.56332 -6.05732,2.71928 -6.02082,5.41931 0.013,0.95684 0.0539,1.69621 0.0832,2.52336 a 61.476437,61.476437 0 0 0 31.87144,14.77429 c 5.02741,-3.89763 8.48638,-9.91078 3.26285,-14.49007 -5.18161,-4.54253 -10.62689,-0.11671 -16.34732,-1.78439 -2.35326,-0.68604 -8.0101,-6.81991 -11.50163,-6.84144 z" /></g><path
       id="rect14"
       style="fill:#b98bff;fill-opacity:1;stroke:none;stroke-width:4.99999;stroke-linecap:butt;stroke-linejoin:round;stroke-dasharray:none;stroke-opacity:1"
       d="m 301.964,172.47458 c -0.7705,-0.29776 -1.65533,-0.3 -2.47388,0.0622 -1.63711,0.72447 -2.37174,2.62543 -1.64727,4.26253 l 2.61555,5.91046 -5.91027,2.61506 c -1.6371,0.72447 -2.37192,2.62591 -1.64745,4.263 0.72446,1.63711 2.6259,2.37193 4.263,1.64746 l 5.90998,-2.61574 2.61555,5.91046 c 0.72447,1.6371 2.62542,2.37173 4.26252,1.64726 1.63711,-0.72446 2.37192,-2.6259 1.64746,-4.263 l -2.61526,-5.90979 5.90997,-2.61574 c 1.6371,-0.72447 2.37174,-2.62542 1.64727,-4.26253 -0.72446,-1.63709 -2.62542,-2.37172 -4.26252,-1.64725 l -5.91027,2.61506 -2.61526,-5.90979 c -0.36223,-0.81855 -1.01863,-1.41192 -1.78912,-1.70968 z" /><rect
       style="fill:none;fill-opacity:1;stroke:#b98bff;stroke-width:0.953;stroke-linecap:round;stroke-linejoin:round;stroke-dasharray:3.81200004,1.90600002;stroke-opacity:1;stroke-dashoffset:0"
       id="rect15"
       width="47.722477"
       height="38.72464"
       x="325.3739"
       y="55.444256"
       ry="7.9200687"
       transform="rotate(19.256799)" /><path
       id="path16"
       style="fill:#080808;fill-opacity:1;stroke:none;stroke-width:0.953;stroke-linecap:butt;stroke-linejoin:round;stroke-dasharray:none;stroke-dashoffset:0;stroke-opacity:1"
       d="m 319.17933,177.33491 c -39.23392,-0.24055 -83.36487,-3.49919 -124.64348,-13.43455 -9.70667,-2.3363 -20.76723,-12.14766 -22.77531,-21.90319 -2.22468,-10.80782 -3.06869,-24.34159 3.0276,-33.30096 11.4272,-9.57059 20.77186,0.22944 20.77186,0.22944 0,0 21.28035,22.13208 16.24087,36.15697 -0.0473,0.5516 42.63695,-91.976025 107.37846,-96.275326 64.74151,4.299301 107.42575,96.826926 107.37846,96.275326 -5.03948,-14.02489 16.24087,-36.15697 16.24087,-36.15697 0,0 9.34466,-9.80003 20.77186,-0.22944 5.57038,8.18648 5.34625,20.19216 3.56895,30.44773 -1.97315,11.38568 -14.85702,22.79955 -26.14291,25.42527 -40.46108,9.41346 -83.47735,12.53063 -121.81723,12.7657 z"
       sodipodi:nodetypes="cccccc"
       inkscape:path-effect="#path-effect16;#path-effect19"
       inkscape:original-d="m 319.17933,177.33491 c -44.8292,-0.27486 -96.05179,-4.49002 -142.1076,-18.10329 -0.33438,0.17451 -13.89255,-33.47437 -2.28359,-50.53541 11.4272,-9.57059 20.77186,0.22944 20.77186,0.22944 0,0 21.28035,22.13208 16.24087,36.15697 -0.0473,0.5517 42.65181,-92.00823 107.41226,-96.277562"
       transform="rotate(-24.109785,269.03908,403.72507)" /><path
       id="rect37"
       style="opacity:1;fill:#ffffff;fill-opacity:1;stroke:none;stroke-width:0.400582;stroke-linecap:round;stroke-linejoin:round;stroke-dasharray:none;stroke-dashoffset:0;stroke-opacity:1"
       d="m 160.9952,83.664455 c -2.00094,-0.09798 -3.96726,0.487975 -5.16335,1.697944 -0.97941,0.995207 -1.28152,2.269851 -0.82946,3.505351 -1.77406,0.104038 -3.35855,0.736092 -4.3568,1.742045 -1.95568,1.978677 -1.12896,4.789021 1.83255,6.25272 2.42026,1.186819 5.57162,1.119655 7.67719,-0.148292 0.13669,0.08432 0.27911,0.165292 0.43029,0.240986 L 182.306,107.83029 c -0.61395,1.84128 -0.93877,3.73523 -0.96722,5.64262 0.004,3.56242 1.04086,7.08091 3.03108,10.30626 l -23.78424,11.688 c -0.15118,0.0743 -0.29358,0.15394 -0.43029,0.237 -2.10557,-1.28751 -5.25693,-1.38393 -7.67719,-0.21957 -2.96151,1.43621 -3.78823,4.23887 -1.83255,6.23571 0.99825,1.01523 2.58274,1.66198 4.3568,1.78249 -0.45206,1.2313 -0.14995,2.50874 0.82946,3.51306 1.91151,1.95146 5.78103,2.32548 8.62897,0.85895 2.82146,-1.45279 3.59993,-4.18044 1.75236,-6.11518 -0.17345,-0.17806 -0.36655,-0.34563 -0.57753,-0.50161 0.11199,-0.0481 0.22404,-0.0967 0.33274,-0.15162 l 23.22384,-11.7287 c 2.24081,1.93249 4.86185,3.56999 7.75911,4.85458 v 14.70513 c 0,1.90537 2.035,3.32176 4.54288,3.17695 1.92708,-0.11127 3.54878,-1.11354 4.1825,-2.42933 0.63234,1.24464 2.23723,2.05865 4.12134,1.94986 1.87162,-0.10807 3.44637,-1.0946 4.06201,-2.39087 0.61424,1.22729 2.17381,2.0308 4.00439,1.9251 1.81863,-0.10501 3.34933,-1.0762 3.94755,-2.35364 0.59698,1.21027 2.11223,2.00374 3.89145,1.90101 2.28071,-0.13169 4.10303,-1.68347 4.10303,-3.48035 v -13.86856 c 2.61287,-1.37369 4.92521,-3.05194 6.85751,-4.97045 l 18.46942,9.47592 c 0.0792,0.0406 0.1606,0.0757 0.24206,0.11019 -0.15343,0.14523 -0.29402,0.29948 -0.42045,0.46171 -1.3551,1.77149 -0.78224,4.05807 1.27119,5.09143 2.03734,1.02535 4.75021,0.42053 6.06743,-1.33556 0.66917,-0.89577 0.87479,-1.96901 0.56697,-2.95752 1.20332,-0.20406 2.26798,-0.82536 2.93342,-1.70933 1.29251,-1.72337 0.74752,-3.96059 -1.22497,-5.01192 -1.63757,-0.86508 -3.80482,-0.66658 -5.27585,0.49368 -0.0961,-0.0639 -0.19681,-0.12485 -0.30332,-0.18095 l -18.37076,-9.67538 c 1.56314,-2.87838 2.37101,-5.975 2.37908,-9.10535 -0.001,-1.06216 -0.0943,-2.12415 -0.2788,-3.17861 l 19.67395,-10.25164 c 0.10511,-0.0548 0.20405,-0.11438 0.29893,-0.17704 1.45174,1.16583 3.59094,1.38255 5.20714,0.53786 1.94681,-1.026736 2.48436,-3.244534 1.20864,-4.968229 -0.65678,-0.884126 -1.70715,-1.510842 -2.89479,-1.724287 0.3038,-0.979291 0.10087,-2.047322 -0.55954,-2.943139 -1.29997,-1.756204 -3.97717,-2.381015 -5.98755,-1.380493 -2.02617,1.008291 -2.59141,3.27455 -1.25433,5.046281 0.12476,0.162282 0.26347,0.316759 0.41487,0.462377 -0.0803,0.03361 -0.16077,0.06768 -0.23884,0.107308 l -18.04102,9.154792 c -4.53773,-8.318558 -14.84881,-14.126498 -26.68681,-14.743635 -11.41354,-0.566494 -22.3263,3.781299 -28.20595,11.495155 L 165.96839,91.365968 c -0.10876,-0.05591 -0.2207,-0.105574 -0.33274,-0.154722 0.21098,-0.154013 0.40408,-0.319787 0.57753,-0.49624 1.84757,-1.917578 1.0691,-4.652476 -1.75236,-6.131459 -1.06486,-0.558227 -2.2713,-0.860603 -3.46562,-0.919092 z m 39.5181,17.647535 c 3.38048,0.10464 6.09178,2.24982 6.09181,4.79254 -4e-5,2.54272 -2.71134,4.56409 -6.09181,4.51436 -3.4208,-0.0504 -6.22399,-2.19764 -6.22404,-4.79555 4e-5,-2.59791 2.80323,-4.61718 6.22404,-4.51135 z m 26.08686,0.80729 c 3.08074,0.0954 5.55283,2.14033 5.55286,4.56855 -4e-5,2.42822 -2.47212,4.36029 -5.55286,4.31498 -3.11581,-0.0459 -5.66781,-2.09266 -5.66785,-4.57117 3e-5,-2.47851 2.55204,-4.40876 5.66785,-4.31236 z m -11.53173,16.71051 2.3931,3.92537 c 0.31148,0.4958 -0.14903,1.0806 -0.86179,1.09303 -0.84473,0.007 -1.53142,-0.5199 -1.53131,-1.17755 1.1e-4,0.6575 -0.68799,1.19651 -1.53927,1.20394 -0.71751,0.005 -1.1905,-0.56948 -0.88222,-1.07328 z m -9.3433,15.01577 c 0.13168,-0.003 0.23832,0.0753 0.23853,0.17572 v 14.54552 c -2.2e-4,0.10041 -0.10686,0.18733 -0.23853,0.19437 -0.13191,0.007 -0.23898,-0.0689 -0.2392,-0.16956 v -14.55775 c 2.1e-4,-0.10064 0.10728,-0.18491 0.2392,-0.1883 z m 8.26162,-0.21498 c 0.12787,-0.003 0.23143,0.0743 0.23163,0.17325 v 14.33413 c -2.1e-4,0.099 -0.10377,0.18453 -0.23163,0.19137 -0.1281,0.007 -0.23208,-0.0681 -0.23229,-0.16727 v -14.34601 c 2e-4,-0.0992 0.10418,-0.18218 0.23229,-0.18547 z m 7.88357,-0.20515 c 0.12447,-0.003 0.22542,0.0732 0.22561,0.17089 v 14.1324 c -2e-4,0.0977 -0.10115,0.18207 -0.22561,0.18853 -0.12435,0.006 -0.22515,-0.0675 -0.22535,-0.1651 V 133.6082 c 1.9e-4,-0.0977 0.10099,-0.17938 0.22535,-0.18277 z"
       inkscape:path-effect="#path-effect46"
       inkscape:original-d="m 157.65295,83.005699 c -1.4364,0.01782 -2.83888,0.725697 -3.68762,2.016247 -0.69255,1.057516 -0.90573,2.358459 -0.58666,3.581634 -1.24949,0.191686 -2.35944,0.902882 -3.05583,1.957871 -1.35785,2.064969 -0.78489,4.840006 1.28012,6.197787 1.70227,1.109825 3.93881,0.933324 5.44594,-0.429746 0.0982,0.08073 0.20056,0.157875 0.30927,0.229363 l 16.19581,10.650515 a 26.512701,26.512701 0 0 0 -0.74647,5.96428 26.512701,26.512701 0 0 0 2.34746,10.88401 l -17.7968,11.70375 c -0.10871,0.0715 -0.21106,0.14863 -0.30927,0.22937 -1.50713,-1.36308 -3.74367,-1.53958 -5.44594,-0.42975 -2.06501,1.35779 -2.63797,4.13281 -1.28012,6.19779 0.69639,1.055 1.80634,1.76618 3.05583,1.95787 -0.31907,1.22317 -0.10589,2.52411 0.58666,3.58164 1.35798,2.06489 4.13293,2.63775 6.19778,1.27971 2.06477,-1.35789 2.63785,-4.13252 1.28014,-6.19737 -0.12704,-0.18953 -0.26838,-0.36892 -0.42271,-0.53698 0.0819,-0.0452 0.16388,-0.0909 0.24344,-0.14324 l 17.6759,-11.62386 a 26.512701,26.512701 0 0 0 6.22263,5.40123 v 15.9122 c 0,2.06177 1.65982,3.72157 3.72157,3.72157 1.59659,0 2.94855,-0.9972 3.47896,-2.40376 0.53043,1.40648 1.88201,2.40376 3.47854,2.40376 1.59654,0 2.9481,-0.99728 3.47855,-2.40376 0.53041,1.40656 1.88238,2.40376 3.47895,2.40376 1.5966,0 2.94856,-0.9972 3.47896,-2.40376 0.53045,1.40648 1.88201,2.40376 3.47855,2.40376 2.06177,0 3.72157,-1.6598 3.72157,-3.72157 v -15.91303 a 26.512701,26.512701 0 0 0 6.34683,-5.56642 l 17.92845,11.78988 c 0.0796,0.0523 0.1615,0.0981 0.24345,0.14324 -0.15434,0.16806 -0.29568,0.34745 -0.42272,0.53698 -1.35775,2.06485 -0.78463,4.83948 1.28014,6.19737 2.06485,1.35804 4.8398,0.78518 6.19778,-1.27971 0.69256,-1.05753 0.90573,-2.35847 0.58667,-3.58164 1.24945,-0.19169 2.35985,-0.90287 3.05624,-1.95787 1.35785,-2.06498 0.78447,-4.84 -1.28054,-6.19779 -1.70227,-1.10983 -3.93844,-0.93333 -5.44552,0.42975 -0.0982,-0.0807 -0.20098,-0.15788 -0.30969,-0.22937 l -18.09944,-11.90207 a 26.512701,26.512701 0 0 0 2.27335,-10.68569 26.512701,26.512701 0 0 0 -0.26746,-3.73275 l 19.58948,-12.882045 c 0.10871,-0.07149 0.21107,-0.148633 0.30927,-0.229363 1.50713,1.36307 3.74367,1.539571 5.44594,0.429746 2.06498,-1.357781 2.63798,-4.132818 1.28013,-6.197787 -0.69639,-1.054989 -1.80635,-1.766185 -3.05584,-1.957871 0.31907,-1.223175 0.1059,-2.524118 -0.58665,-3.581634 -1.35799,-2.064881 -4.13297,-2.637739 -6.19779,-1.279716 -2.06476,1.357881 -2.63788,4.132537 -1.28013,6.197372 0.12704,0.189537 0.26837,0.368929 0.42271,0.536976 -0.0819,0.04519 -0.16389,0.09092 -0.24344,0.143249 l -17.7583,11.677683 A 26.512701,26.512701 0 0 0 199.32013,86.660613 26.512701,26.512701 0 0 0 176.15688,100.41374 l -14.8929,-9.793913 c -0.0796,-0.05232 -0.1615,-0.09806 -0.24344,-0.143249 0.15433,-0.168047 0.29567,-0.347439 0.42271,-0.536976 1.35771,-2.064835 0.78463,-4.839491 -1.28014,-6.197372 -0.77431,-0.509261 -1.64832,-0.747219 -2.51016,-0.736531 z m 30.42256,16.730297 a 5.0667635,5.0667635 0 0 1 5.06671,5.066714 5.0667635,5.0667635 0 0 1 -5.06671,5.0667 5.0667635,5.0667635 0 0 1 -5.0667,-5.0667 5.0667635,5.0667635 0 0 1 5.0667,-5.066714 z m 22.48965,0 a 5.0667635,5.0667635 0 0 1 5.0667,5.066714 5.0667635,5.0667635 0 0 1 -5.0667,5.0667 5.0667635,5.0667635 0 0 1 -5.0667,-5.0667 5.0667635,5.0667635 0 0 1 5.0667,-5.066714 z m -10.20048,19.067004 2.08208,4.40303 a 0.84706386,0.84706386 0 0 1 -0.75185,1.21803 1.3300462,1.3300462 0 0 1 -1.33023,-1.33022 1.3300462,1.3300462 0 0 1 -1.32981,1.33022 0.84158076,0.84158076 0 0 1 -0.75889,-1.20229 z m -7.96107,16.50341 a 0.20029141,0.20029141 0 0 1 0.19998,0.19998 v 15.98921 a 0.20029141,0.20029141 0 0 1 -0.19998,0.19996 0.20029141,0.20029141 0 0 1 -0.20038,-0.19996 v -15.98921 a 0.20029141,0.20029141 0 0 1 0.20038,-0.19998 z m 7.02582,0 a 0.20029141,0.20029141 0 0 1 0.19997,0.19998 v 15.98921 a 0.20029141,0.20029141 0 0 1 -0.19997,0.19996 0.20029141,0.20029141 0 0 1 -0.20038,-0.19996 v -15.98921 a 0.20029141,0.20029141 0 0 1 0.20038,-0.19998 z m 6.90037,0 a 0.20029141,0.20029141 0 0 1 0.20038,0.19998 v 15.98921 a 0.20029141,0.20029141 0 0 1 -0.20038,0.19996 0.20029141,0.20029141 0 0 1 -0.19998,-0.19996 v -15.98921 a 0.20029141,0.20029141 0 0 1 0.19998,-0.19998 z"
       transform="rotate(-21.330045,216.46614,137.54114)" /><path
       style="color:#000000;fill:#ffffff;stroke-linecap:round;stroke-linejoin:round;-inkscape-stroke:none"
       d="M 236.92582,164.29841 V 144.34138"
       id="path41" /><path
       style="color:#000000;fill:#ffffff;stroke-linecap:round;stroke-linejoin:round;-inkscape-stroke:none"
       d="M 228.31222,164.29841 V 144.34138"
       id="path43" /><path
       style="color:#000000;fill:#ffffff;stroke-linecap:round;stroke-linejoin:round;-inkscape-stroke:none"
       d="M 219.54202,164.29841 V 144.34138"
       id="path45" /><path
       style="opacity:1;fill:#f00000;fill-opacity:1;stroke:none;stroke-width:0.499999;stroke-linecap:round;stroke-linejoin:round;stroke-dasharray:none;stroke-dashoffset:0;stroke-opacity:1"
       d="m 275.8687,387.34194 c 2.3868,-2.16229 4.52773,-7.60268 9.45517,-10.05739 3.03989,-1.57864 7.15377,-0.65231 9.59295,-3.4857 2.79484,-3.27085 4.43739,-8.5438 1.56323,-12.27486 -2.83284,-3.50958 -8.7383,-3.301 -11.60794,0.0688 -2.09079,2.32942 -5.28087,3.40392 -8.33169,2.57353 -4.64226,-0.76777 -9.44639,-3.68143 -14.14792,-1.66639 -4.37681,2.4794 -7.63784,6.97223 -8.75518,11.87943 -0.88111,4.19552 -0.99928,9.65035 3.02761,12.29877 6.83915,3.86934 16.81696,2.82609 19.20377,0.66381 z"
       id="path46"
       sodipodi:nodetypes="zccccccccz" /><path
       style="opacity:1;fill:#c00000;fill-opacity:1;stroke:none;stroke-width:0.321401;stroke-linecap:round;stroke-linejoin:round;stroke-dasharray:none;stroke-dashoffset:0;stroke-opacity:1"
       d="m 266.74638,387.94066 c 1.42902,-1.49227 2.71084,-5.24687 5.66098,-6.94094 1.82004,-1.08948 4.28309,-0.45019 5.74347,-2.4056 1.67332,-2.25733 2.65675,-5.89637 0.93594,-8.47129 -1.69608,-2.42208 -5.23178,-2.27814 -6.94988,0.0475 -1.2518,1.60761 -3.16175,2.34916 -4.98833,1.77608 -2.77941,-0.52987 -5.65573,-2.54068 -8.47062,-1.15004 -2.62047,1.71112 -4.57291,4.81177 -5.24188,8.1984 -0.52753,2.89547 -0.59828,6.66003 1.81269,8.48779 4.09472,2.67036 10.06861,1.95038 11.49763,0.45812 z"
       id="path47"
       sodipodi:nodetypes="zccccccccz" /><path
       id="path48"
       style="opacity:1;fill:#f00000;fill-opacity:1;stroke:none;stroke-width:0.270841;stroke-linecap:round;stroke-linejoin:round;stroke-dasharray:none;stroke-dashoffset:0;stroke-opacity:1"
       d="M 122.22458 292.59971 C 120.4622 297.12174 118.87535 301.51927 117.42281 305.81958 C 119.33384 305.93527 121.68871 306.05418 123.20798 307.07945 C 124.65789 308.0175 124.17582 310.16547 126.26154 310.55107 C 128.66573 310.98721 135.0139 310.75556 136.71827 308.64473 C 138.29933 306.60358 134.20262 303.81472 131.72736 303.3696 C 129.99798 303.01581 126.80669 300.13703 126.77314 298.62983 C 126.43021 296.45259 129.33553 295.46043 127.34417 293.90971 C 125.94277 293.08362 124.14096 292.64248 122.22458 292.59971 z " /><path
       id="path49"
       style="opacity:1;fill:#c00000;fill-opacity:1;stroke:none;stroke-width:0.174097;stroke-linecap:round;stroke-linejoin:round;stroke-dasharray:none;stroke-dashoffset:0;stroke-opacity:1"
       d="M 121.6055 294.15517 C 120.48655 297.07029 119.44295 299.93224 118.45479 302.75413 C 119.1467 303.33916 119.32285 304.3098 120.56783 304.461 C 122.18328 304.65206 126.86346 306.02225 128.08469 304.67856 C 129.22018 303.38131 126.16014 300.09384 124.49679 299.89952 C 123.33602 299.73759 122.57257 299.08958 122.59717 298.1694 C 122.43317 296.84939 123.12428 295.14071 121.82357 294.25542 C 121.75281 294.22012 121.67949 294.18758 121.6055 294.15517 z " /></g></svg>
