<?xml version="1.0" encoding="UTF-8" standalone="no"?>
<!-- Created with Inkscape (http://www.inkscape.org/) -->

<svg
   width="500mm"
   height="500mm"
   viewBox="0 0 500 500"
   version="1.1"
   id="svg1"
   inkscape:version="1.3.2 (091e20e, 2023-11-25)"
   sodipodi:docname="HANS Barber Shop.svg"
   xmlns:inkscape="http://www.inkscape.org/namespaces/inkscape"
   xmlns:sodipodi="http://sodipodi.sourceforge.net/DTD/sodipodi-0.dtd"
   xmlns:xlink="http://www.w3.org/1999/xlink"
   xmlns="http://www.w3.org/2000/svg"
   xmlns:svg="http://www.w3.org/2000/svg">
  <sodipodi:namedview
     id="namedview1"
     pagecolor="#ffffff"
     bordercolor="#000000"
     borderopacity="0.25"
     inkscape:showpageshadow="2"
     inkscape:pageopacity="0.0"
     inkscape:pagecheckerboard="0"
     inkscape:deskcolor="#d1d1d1"
     inkscape:document-units="mm"
     showgrid="false"
     showguides="true"
     inkscape:zoom="0.25982083"
     inkscape:cx="946.80629"
     inkscape:cy="944.88189"
     inkscape:window-width="1356"
     inkscape:window-height="697"
     inkscape:window-x="0"
     inkscape:window-y="0"
     inkscape:window-maximized="1"
     inkscape:current-layer="layer1" />
  <defs
     id="defs1">
    <linearGradient
       id="linearGradient19"
       inkscape:collect="always">
      <stop
         style="stop-color:#f7fd00;stop-opacity:0.99102199;"
         offset="0"
         id="stop19" />
      <stop
         style="stop-color:#b3b000;stop-opacity:0.99607843;"
         offset="0.5"
         id="stop21" />
      <stop
         style="stop-color:#fffa00;stop-opacity:1;"
         offset="1"
         id="stop20" />
    </linearGradient>
    <linearGradient
       inkscape:collect="always"
       xlink:href="#linearGradient19"
       id="linearGradient20"
       x1="165.98177"
       y1="166.36226"
       x2="411.39127"
       y2="129.24023"
       gradientUnits="userSpaceOnUse"
       gradientTransform="translate(-63.763365,70.972803)" />
  </defs>
  <g
     inkscape:label="Layer 1"
     inkscape:groupmode="layer"
     id="layer1">
    <g
       id="g35"
       transform="translate(24.257124,-11.034145)">
      <path
         d="m 101.8205,266.72028 v -66.81284 h 12.92539 v 66.81284 z m 41.91247,0 v -66.81284 h 12.92538 v 66.81284 z m -33.73906,-28.797 v -11.40475 h 37.35056 v 11.40475 z m 55.40797,28.797 26.8962,-66.81284 h 10.5494 l 26.80116,66.81284 H 215.8679 l -20.71863,-54.83785 h 4.75198 l -21.00375,54.83785 z m 14.25593,-12.45019 v -10.83452 h 35.92497 v 10.83452 z m 57.87882,12.45019 v -66.81284 h 9.02876 l 3.89663,12.92538 v 53.88746 z m 46.18924,0 -39.63151,-51.32139 2.47103,-15.49145 39.63151,51.32138 z m 0,0 -3.70654,-12.54523 v -54.26761 h 13.02042 v 66.81284 z m 40.96184,0.95039 q -8.07837,0 -13.87578,-2.75615 -5.70238,-2.75614 -10.35932,-8.26844 l 8.55356,-8.55357 q 2.94623,3.89663 6.84286,6.08254 3.89662,2.09087 9.50396,2.09087 5.03709,0 7.98332,-1.99583 3.04127,-1.99583 3.04127,-5.5123 0,-3.04126 -1.71071,-4.94206 -1.71072,-1.90079 -4.5619,-3.23134 -2.75615,-1.33056 -6.17758,-2.37599 -3.32638,-1.14048 -6.74781,-2.56607 -3.32639,-1.4256 -6.17757,-3.51647 -2.75615,-2.18591 -4.46686,-5.51229 -1.71072,-3.42143 -1.71072,-8.55357 0,-6.08253 2.94623,-10.35931 2.94623,-4.27679 8.07837,-6.55774 5.13213,-2.28095 11.59483,-2.28095 6.84285,0 12.35514,2.56607 5.5123,2.56607 9.02877,6.65277 l -8.55357,8.55357 q -2.94623,-3.23135 -6.08253,-4.75198 -3.04127,-1.52063 -6.93789,-1.52063 -4.46686,0 -7.03293,1.71071 -2.56607,1.71071 -2.56607,4.94206 0,2.75615 1.71071,4.46686 1.71071,1.71071 4.46686,2.94623 2.85119,1.23551 6.17758,2.37599 3.42142,1.14047 6.74781,2.56606 3.42142,1.4256 6.17757,3.70655 2.85119,2.28095 4.5619,5.89245 1.71071,3.51647 1.71071,8.74365 0,9.31388 -6.55773,14.63609 -6.55773,5.32222 -17.96248,5.32222 z"
         id="text21"
         style="font-weight:600;font-size:95.0396px;line-height:1;font-family:Outfit;-inkscape-font-specification:'Outfit Semi-Bold';letter-spacing:0px;word-spacing:0px;fill-opacity:0.996078;stroke:#000000;stroke-width:30;stroke-linecap:round;stroke-linejoin:round"
         aria-label="HANS" />
      <g
         id="g28"
         transform="matrix(0.65181949,0,0,0.65181949,78.691902,105.55008)">
        <path
           id="path28"
           style="fill:#000000;fill-opacity:1;stroke:#000000;stroke-width:30;stroke-linecap:round;stroke-linejoin:round;stroke-dasharray:none;stroke-opacity:1"
           d="m 194.6881,264.89804 c -52.65611,0.85796 -72.03595,51.83275 -71.99354,51.78237 -9.33249,30.62888 -42.56019,40.39237 -42.56019,40.39237 0,0 40.14347,-0.32078 40.17377,0 53.05319,-0.0327 89.08235,-35.29074 105.70053,-55.9971 16.61817,20.70636 52.64785,55.96444 105.70104,55.9971 0.0303,-0.32078 40.17377,0 40.17377,0 0,0 -33.22822,-9.76349 -42.56071,-40.39237 0.05,0.0593 -26.84838,-70.6458 -103.3141,-46.9067 -11.54121,-3.58301 -21.96025,-5.02818 -31.32057,-4.87567 z" />
        <path
           id="path27"
           style="fill:#d5d100;fill-opacity:1;stroke:none;stroke-width:4.99999;stroke-linecap:round;stroke-linejoin:round;stroke-dasharray:none;stroke-opacity:1"
           d="m 194.6881,264.89804 c -52.65611,0.85796 -72.03595,51.83275 -71.99354,51.78237 -9.33249,30.62888 -42.56019,40.39237 -42.56019,40.39237 0,0 40.14347,-0.32078 40.17377,0 53.05319,-0.0327 89.08235,-35.29074 105.70053,-55.9971 16.61817,20.70636 52.64785,55.96444 105.70104,55.9971 0.0303,-0.32078 40.17377,0 40.17377,0 0,0 -33.22822,-9.76349 -42.56071,-40.39237 0.05,0.0593 -26.84838,-70.6458 -103.3141,-46.9067 -11.54121,-3.58301 -21.96025,-5.02818 -31.32057,-4.87567 z" />
      </g>
      <path
         id="text16"
         style="font-weight:600;font-size:95.0802px;line-height:1;font-family:Outfit;-inkscape-font-specification:'Outfit Semi-Bold';letter-spacing:0px;word-spacing:0px;fill:url(#linearGradient20);stroke-width:10;stroke-linecap:round;stroke-linejoin:round"
         d="m 327.4875,198.84729 c -4.31029,0 -8.17691,0.76075 -11.5998,2.28204 -3.42289,1.52127 -6.1167,3.70791 -8.08168,6.56032 -1.10146,1.59889 -1.86052,3.40789 -2.34456,5.3852 11.86695,-2.75675 23.78293,-6.37141 35.65467,-10.99623 -0.42345,-0.22082 -0.82539,-0.45793 -1.26814,-0.66404 -3.67643,-1.71145 -7.79664,-2.56729 -12.36049,-2.56729 z m -225.71955,1.04594 v 33.69148 c 4.27566,1.46374 8.7643,2.91236 13.41985,4.3403 h 28.51041 v 7.68429 c 4.21224,0.97653 8.53724,1.88878 12.93099,2.75694 v -32.84141 c -4.41432,-1.02129 -8.73109,-2.08827 -12.93099,-3.20032 v 14.19086 H 114.69894 V 203.5638 c -3.5984,-1.22404 -7.01808,-2.44935 -10.33632,-3.67057 z m 41.93026,0 v 7.13289 c 4.21013,1.13418 8.49627,2.24236 12.93099,3.28611 v -10.419 z m 48.58566,0 -6.48488,16.10909 c 8.02009,1.26233 16.26823,2.28956 24.71736,3.03341 l -7.6786,-19.1425 z m 45.25822,0 v 20.44681 c 7.96431,0.0568 16.04604,-0.20662 24.21299,-0.78858 l -15.18047,-19.65823 z m 42.50076,0 v 17.84128 c 4.32732,-0.58509 8.67106,-1.27712 13.02608,-2.07687 v -15.76441 z m 66.25281,5.64978 c -4.86491,1.95796 -9.73667,3.75356 -14.61048,5.3883 0.89129,0.24246 1.75073,0.54102 2.55282,0.94206 2.09176,1.01419 4.12042,2.59857 6.08541,4.75372 l 8.5571,-8.5571 c -0.77897,-0.90529 -1.65903,-1.73357 -2.58485,-2.52698 z m -28.30887,9.57823 c -4.37657,1.21158 -8.74872,2.30256 -13.11341,3.28093 0.039,3.26256 0.59602,6.00725 1.69654,8.20829 1.14096,2.21854 2.63076,4.05701 4.46898,5.51491 1.9016,1.39451 3.96144,2.56733 6.17998,3.51813 2.25505,0.93961 4.47776,1.7829 6.67091,2.53679 5.5444,-2.08184 11.08038,-4.36596 16.59847,-6.89415 -1.15813,-0.72875 -2.38023,-1.37542 -3.68298,-1.91823 -2.21854,-0.9508 -4.46857,-1.80664 -6.75049,-2.56728 -2.21853,-0.76064 -4.2789,-1.55258 -6.1805,-2.3766 -1.83821,-0.82403 -3.3275,-1.80666 -4.46846,-2.94763 -1.14096,-1.14096 -1.71153,-2.63076 -1.71153,-4.46897 0,-0.68654 0.11882,-1.30257 0.29249,-1.88619 z m -24.91786,5.64668 c -4.35563,0.78072 -8.69977,1.46946 -13.02608,2.04122 v 20.42408 l -14.5805,-18.88102 c -4.63157,0.38046 -9.23339,0.6493 -13.80743,0.81907 l 20.49281,26.53791 c 6.94825,-1.10207 13.92156,-2.40049 20.9212,-4.08037 z m -109.20987,0.0537 -12.15946,30.20488 c 8.8161,1.38305 17.89486,2.50443 27.22262,3.25251 h 12.23595 l 0.29146,0.77102 c 4.50698,0.19471 9.0512,0.31046 13.64102,0.31677 l -12.46332,-31.0689 c -4.48856,-0.36007 -8.91693,-0.80621 -13.29531,-1.32085 l 7.73079,20.46283 h -19.26239 l 8.0083,-20.90777 c -4.03809,-0.51395 -8.02031,-1.08294 -11.94966,-1.71049 z m 66.61351,4.37751 c -4.34138,0.14476 -8.65215,0.20611 -12.93048,0.17674 v 29.75167 c 4.28459,-0.16442 8.59586,-0.42606 12.93048,-0.77928 z m 94.42782,9.7436 c -4.65409,2.16953 -9.31967,4.18056 -13.99242,6.03684 1.54413,0.80905 2.82407,1.75023 3.80545,2.84065 1.14097,1.26773 1.71152,2.91551 1.71152,4.94388 0,2.34531 -1.01381,4.18379 -3.04219,5.51491 -1.96499,1.33113 -4.62761,1.99678 -7.98711,1.99678 -3.73981,0 -6.90909,-0.69735 -9.50794,-2.09186 -2.46227,-1.38127 -4.62984,-3.29238 -6.52312,-5.69785 -0.34277,0.10305 -0.68561,0.21731 -1.02836,0.31885 l -7.85172,7.8512 c 3.10595,3.67643 6.56102,6.43363 10.36423,8.27185 3.86659,1.83821 8.49345,2.75745 13.88132,2.75745 7.60641,0 13.5968,-1.77508 17.97048,-5.32474 4.37368,-3.54966 6.56032,-8.4301 6.56032,-14.642 0,-3.48627 -0.57056,-6.40248 -1.71152,-8.74779 -0.72397,-1.52839 -1.6187,-2.85708 -2.64894,-4.02817 z m -243.13244,4.07003 v 27.72182 h 12.93099 v -23.61044 c -4.46111,-1.35132 -8.80306,-2.72192 -12.93099,-4.11138 z m 41.93026,11.80497 v 15.91685 h 12.93099 v -13.20126 c -4.39461,-0.85299 -8.71236,-1.75426 -12.93099,-2.71559 z m 149.37072,2.01951 c -5.82168,1.36176 -11.62087,2.45374 -17.40565,3.42408 l 8.08736,10.47326 h 9.31829 z m -123.30927,3.00912 -4.38319,10.88822 h 13.5015 l 3.48609,-9.10177 c -4.26198,-0.53256 -8.46264,-1.12709 -12.6044,-1.78645 z m 80.71291,3.54655 c -4.3348,0.34594 -8.64633,0.60646 -12.93048,0.76791 v 6.57376 h 12.93048 z m -37.07681,0.80874 2.46807,6.53293 h 13.78675 l -2.53834,-6.32829 c -4.61026,0.0231 -9.18716,-0.0397 -13.71648,-0.20464 z" />
      <path
         id="path21"
         style="fill:#fefefe;fill-opacity:1;stroke:none;stroke-width:22.0838;stroke-linecap:round;stroke-linejoin:round;stroke-dasharray:none;stroke-opacity:1"
         d="m 38.306254,209.81082 c 5.28098,7.21494 8.46709,4.50385 12.10438,3.93066 l 25.65143,-6.24585 8.73006,10.86142 a 13.40063,13.40063 0 0 0 -1.10279,2.40658 13.40063,13.40063 0 0 0 8.53021,16.92313 13.40063,13.40063 0 0 0 16.923296,-8.53029 13.40063,13.40063 0 0 0 -8.5302,-16.92311 13.40063,13.40063 0 0 0 -10.248406,0.80881 l -6.25727,-7.50541 8.718447,-2.1227 a 13.40063,13.40063 0 0 0 8.185669,7.61087 13.40063,13.40063 0 0 0 16.9233,-8.53029 13.40063,13.40063 0 0 0 -8.53021,-16.92312 13.40063,13.40063 0 0 0 -16.922929,8.53011 13.40063,13.40063 0 0 0 -0.401457,1.59039 l -13.2744,3.48527 -16.90573,-20.27783 c -2.58304,-2.62418 -3.53173,-6.69887 -12.06836,-4.0399 l 21.18884,26.36183 z m 37.2935,-7.02099 a 2.0484103,2.0484103 0 0 1 2.58676,-1.30378 2.0484103,2.0484103 0 0 1 1.30378,2.58676 2.0484103,2.0484103 0 0 1 -2.58674,1.30427 2.0484103,2.0484103 0 0 1 -1.30388,-2.58694 z m 11.56612,19.1201 a 9.7400778,9.7400778 0 0 1 12.299927,-6.20026 9.7400778,9.7400778 0 0 1 6.200339,12.30011 9.7400778,9.7400778 0 0 1 -12.300279,6.20043 9.7400778,9.7400778 0 0 1 -6.200347,-12.3001 z m 8.790977,-26.66187 a 9.7400778,9.7400778 0 0 1 12.299919,-6.20025 9.7400778,9.7400778 0 0 1 6.20035,12.30011 9.7400778,9.7400778 0 0 1 -12.30029,6.20043 9.7400778,9.7400778 0 0 1 -6.200339,-12.3001 z" />
      <path
         style="fill:none;fill-opacity:1;stroke:#000000;stroke-width:2;stroke-linecap:round;stroke-linejoin:round;stroke-dasharray:none;stroke-opacity:1"
         d="m 321.88777,338.29707 c -49.02644,1.83348 -95.48136,-45.26463 -95.48136,-45.26463 0,0 -46.45493,47.09811 -95.48137,45.26463"
         id="path33"
         sodipodi:nodetypes="ccc" />
      <path
         style="fill:none;fill-opacity:1;stroke:#000000;stroke-width:2;stroke-linecap:round;stroke-linejoin:round;stroke-dasharray:none;stroke-opacity:1"
         d="m 320.38506,336.72809 c -12.76792,-0.77301 -25.91625,-9.55028 -29.95002,-16.45862 -17.5802,-36.6843 -63.45758,-35.98762 -63.45758,-35.98762 h -1.14211 c 0,0 -45.87738,-0.69668 -63.45758,35.98762 -4.03377,6.90834 -17.1821,15.68561 -29.95002,16.45862"
         id="path34"
         sodipodi:nodetypes="cccccc" />
      <path
         style="fill:none;fill-opacity:1;stroke:#000000;stroke-width:2;stroke-linecap:round;stroke-linejoin:round;stroke-dasharray:none;stroke-opacity:1"
         d="m 318.98412,336.7723 c -21.35522,1.38999 -36.18577,-14.50435 -38.5745,-16.25464 -26.16457,-20.83884 -54.02673,-32.17473 -53.68446,-32.03598 l -0.67333,0.007 c 0.34227,-0.13875 -27.48407,11.19052 -53.64864,32.02936 -2.38873,1.75029 -17.21928,17.64463 -38.5745,16.25464"
         id="path35"
         sodipodi:nodetypes="cccccc" />
      <g
         id="text17"
         transform="matrix(0.87509803,0,0,0.87509803,92.561209,45.213254)"
         style="fill:#ffffff;fill-opacity:0.991022">
        <path
           style="color:#000000;-inkscape-font-specification:'Pink Bloom';fill:#ffffff;fill-opacity:0.991022;stroke-linecap:round;stroke-linejoin:round;-inkscape-stroke:none"
           d="m 178.18521,291.07069 -0.0516,0.0225 c -0.67059,0.29189 -1.30415,0.59835 -1.92649,0.9306 0.89969,-2.23232 1.59972,-4.50046 0.94857,-5.99637 -0.61747,-1.41854 -2.28208,-1.85974 -4.03591,-1.09632 -2.34704,1.02163 -3.96797,3.07705 -4.70774,4.1967 -1.13879,1.75351 -1.76053,3.49671 -1.59183,4.58906 0.0428,0.38019 0.38049,0.66269 0.78648,0.60868 0.40599,-0.054 0.67726,-0.41751 0.63448,-0.79771 -0.11135,-0.74917 0.52162,-2.46658 1.71653,-4.09113 0.64811,2.2642 4.35352,12.18638 8.231,17.92275 0.0595,0.0661 0.11895,0.1323 0.20421,0.18722 -1.30536,0.38413 -1.91464,-0.24033 -2.04936,-0.54983 -0.15717,-0.36108 -0.59017,-0.51007 -0.95125,-0.3529 -0.36108,0.15718 -0.5213,0.56438 -0.36412,0.92546 0.43784,1.00587 1.98835,2.17166 4.41277,1.11635 2.42441,-1.05531 5.03999,-3.57436 6.83996,-6.62806 1.99387,-3.38353 2.53643,-6.71822 1.48112,-9.14263 -0.56134,-1.28958 -1.44553,-2.19321 -2.6559,-2.64806 -1.75109,-0.71034 -4.08386,-0.4312 -6.92094,0.80373 z m 1.31676,15.99319 c 0.01,-0.18843 -0.006,-0.36563 -0.12471,-0.49793 -3.89993,-5.78795 -7.73793,-16.29667 -8.0896,-17.73887 -0.064,-0.21756 -0.20542,-0.40144 -0.42753,-0.48883 0.78923,-0.86507 1.74899,-1.6203 2.83223,-2.09182 0.18054,-0.0786 1.68769,-0.70394 2.14798,0.35351 0.53888,1.238 -0.64877,4.14788 -1.21346,5.52879 -0.46274,1.12177 -0.59382,1.45494 -0.42542,1.84181 0.0898,0.20633 0.28279,0.36776 0.49367,0.42936 0.38475,0.10863 0.64601,-0.0664 0.94762,-0.28977 0.41934,-0.30525 1.28382,-0.92697 3.06344,-1.70161 l 0.0516,-0.0224 c 1.70225,-0.74096 4.08418,-1.471 5.82404,-0.78645 0.85142,0.335 1.44948,0.93367 1.86486,1.88796 1.86363,4.28141 -2.86871,11.31123 -6.9447,13.5763 z m 24.70619,-21.70473 c -0.16858,0.0293 -0.41681,0.0864 -0.66503,0.14357 -0.59641,-1.1919 -1.16493,-2.30417 -1.71348,-3.2744 -1.11571,-1.99355 -2.1357,-3.54375 -3.02278,-4.54441 -0.43423,-0.47378 -1.729,-1.95752 -3.0829,-1.48318 -2.28304,0.79985 -2.50577,6.03423 -2.45041,9.0848 0.0283,1.27173 0.10169,2.58725 0.2468,3.93727 -1.06052,0.46097 -1.95246,0.89268 -2.53514,1.18623 -0.32651,0.174 -0.45383,0.57627 -0.30637,0.91209 0.15675,0.36235 0.54178,0.52552 0.88689,0.40461 0.0265,-0.009 0.0796,-0.0279 0.10619,-0.0372 0.50303,-0.26566 1.21845,-0.60572 2.04005,-0.98298 0.47371,3.64914 1.27529,7.21321 2.41404,10.71877 0.1302,0.37166 0.52453,0.56137 0.93203,0.44841 v 0 c 0.37166,-0.13021 0.55207,-0.55108 0.44841,-0.93204 -1.16529,-3.49626 -1.96822,-7.14928 -2.42469,-10.83426 2.5458,-1.07075 5.65045,-2.24786 7.68663,-2.90162 1.29648,2.76477 2.64354,5.9291 3.85786,9.13994 0.13021,0.37166 0.56038,0.57861 0.92274,0.42186 0.37165,-0.13021 0.55206,-0.55108 0.42185,-0.92274 -1.19571,-3.15774 -2.49762,-6.27828 -3.78481,-9.01651 0.0796,-0.0279 0.16859,-0.0292 0.22168,-0.0478 0.39956,-0.0506 0.68751,-0.4197 0.6104,-0.80996 -0.0506,-0.39956 -0.4104,-0.66097 -0.80996,-0.6104 z m -9.28216,3.28177 c -0.10655,-1.15489 -0.17726,-2.29253 -0.20282,-3.38637 -0.13304,-5.22896 0.81145,-7.46741 1.47513,-7.69993 0.0265,-0.009 1.19597,-0.32958 4.37839,5.35111 0.50341,0.92644 1.03472,1.93251 1.55808,3.00099 -2.00963,0.64445 -4.82226,1.71926 -7.20878,2.7342 z m 28.80786,-14.88296 c -1.16402,-4.05562 -5.15251,-4.90088 -8.34293,-3.98518 -3.29858,0.94673 -5.48665,3.21356 -6.75193,4.9229 -1.42727,1.96067 -2.13203,3.88957 -2.16985,4.57351 -0.0343,0.39029 0.27136,0.74153 0.68092,0.74104 0.39029,0.0343 0.74153,-0.27136 0.74104,-0.68092 0.0383,-0.27438 0.53478,-1.90938 1.93125,-3.77342 0.62488,-0.8817 1.36192,-1.67854 2.21887,-2.36347 0.97999,5.24978 2.03986,9.45235 3.08322,12.78172 -0.6917,-0.0648 -1.40644,-0.006 -2.05534,0.18021 -1.89262,0.54321 -2.2932,1.59465 -2.07592,2.3517 0.36473,1.27076 1.95292,1.40023 3.38591,0.98894 0.56779,-0.16296 1.14709,-0.38776 1.68384,-0.65887 0.91095,2.46016 1.74006,4.32926 2.44876,5.67689 0.18975,0.35524 0.63812,0.48994 0.96632,0.30794 0.35525,-0.18975 0.48994,-0.63812 0.30795,-0.96632 -0.71646,-1.37467 -1.54556,-3.24377 -2.445,-5.76577 0.0541,-0.0155 0.12743,-0.0658 0.17374,-0.10839 0.48317,0.15397 1.00889,0.35426 1.49981,0.53527 1.95594,0.697 3.823,1.39025 5.41821,0.9324 0.94632,-0.2716 1.85284,-1.49752 1.9913,-2.03476 0.0691,-0.37101 -0.16321,-0.77257 -0.54198,-0.86871 -0.37877,-0.0961 -0.7533,0.12841 -0.87647,0.51494 -0.10015,0.26286 -0.65192,0.88946 -0.97637,0.98258 -1.16262,0.33369 -2.79386,-0.25166 -4.52949,-0.89483 -0.22806,-0.0809 -0.42133,-0.14246 -0.64939,-0.22332 1.22346,-1.1413 2.2767,-2.46786 3.12115,-3.91009 1.83535,-3.18986 2.50735,-6.66039 1.76238,-9.25599 z m -9.75053,14.35812 c -0.81112,0.2328 -1.47579,0.16018 -1.60346,0.0212 0.0385,-0.0696 0.24685,-0.3635 1.08501,-0.60406 0.6489,-0.18624 1.35212,-0.18322 2.09414,-0.045 -0.50971,0.26336 -1.03494,0.47263 -1.57569,0.62784 z m 6.72767,-5.82315 c -0.93307,1.64325 -2.14077,3.04341 -3.47639,4.09984 -0.16623,-0.0693 -0.35173,-0.1039 -0.5102,-0.14622 -1.14401,-3.47607 -2.30476,-8.03014 -3.39363,-13.86321 0.0115,-0.0618 0.004,-0.0889 -0.004,-0.11591 0.76832,-0.48391 1.59472,-0.86742 2.45992,-1.11574 2.62264,-0.75273 5.67584,-0.10728 6.56826,3.00204 0.63633,2.21707 0.0179,5.26252 -1.64395,8.1392 z m 16.69735,-9.74343 -0.0549,0.0121 c -0.71421,0.15742 -1.3949,0.33625 -2.06954,0.54255 1.31239,-2.01751 2.43574,-4.10857 2.08458,-5.70182 -0.33299,-1.51084 -1.88161,-2.26408 -3.74956,-1.85237 -2.49975,0.55095 -4.48588,2.25609 -5.42725,3.21249 -1.4549,1.50164 -2.40042,3.09264 -2.44505,4.19704 -0.0312,0.38132 0.24588,0.72352 0.65468,0.74863 0.40879,0.0251 0.74493,-0.2794 0.7761,-0.66073 0.0349,-0.75659 0.98646,-2.32012 2.47162,-3.68442 0.20036,2.3466 1.92745,12.79633 4.62877,19.17157 0.0456,0.0763 0.0913,0.15271 0.16437,0.22301 -1.35488,0.12579 -1.83262,-0.60423 -1.90528,-0.93387 -0.0848,-0.38458 -0.481,-0.61409 -0.86557,-0.52933 -0.38458,0.0848 -0.62015,0.45353 -0.53539,0.83811 0.23613,1.07132 1.53337,2.51366 4.11553,1.94454 2.58216,-0.56913 5.63355,-2.53786 7.98744,-5.18818 2.60762,-2.93668 3.78165,-6.10467 3.21253,-8.68683 -0.30272,-1.37349 -0.99653,-2.43035 -2.09677,-3.10959 -1.5817,-1.03399 -3.92459,-1.2089 -6.94627,-0.54291 z m -1.78502,15.94771 c 0.0461,-0.18298 0.0647,-0.35991 -0.0266,-0.51262 -2.71343,-6.43017 -4.45779,-17.48099 -4.52539,-18.96391 -0.021,-0.22581 -0.12435,-0.43346 -0.32549,-0.56195 0.94093,-0.69706 2.02806,-1.25352 3.18179,-1.5078 0.19229,-0.0424 1.79159,-0.36607 2.03982,0.76019 0.29062,1.31855 -1.43472,3.94555 -2.25455,5.192 -0.66993,1.01178 -0.86267,1.3135 -0.77185,1.72555 0.0484,0.21976 0.20675,0.4153 0.40184,0.51632 0.35666,0.18063 0.64672,0.0591 0.98566,-0.10203 0.47024,-0.21886 1.43819,-0.66263 3.3336,-1.08039 l 0.0549,-0.0121 c 1.81301,-0.3996 4.29089,-0.65769 5.86654,0.34883 0.77105,0.49255 1.24275,1.19511 1.46676,2.21149 1.00505,4.55998 -4.99145,10.54793 -9.4271,11.98643 z m 26.58407,-28.26637 c -6.05504,0.96938 -12.65656,3.5076 -13.94641,4.1699 -0.23663,0.12334 -0.36771,0.37223 -0.38324,0.6311 -0.0155,0.25887 0.10781,0.49551 0.32892,0.63104 0.22111,0.13552 0.50776,0.1466 0.71662,0.0277 0.4455,-0.24224 2.0731,-0.93012 4.34398,-1.6925 -0.0144,0.0878 -0.0289,0.17554 -0.0389,0.29109 v 0 c 0.0558,2.83979 0.25496,5.68513 0.61631,8.47601 -0.78326,0.26783 -1.43208,0.48566 -1.75204,0.62234 -0.37107,0.17336 -0.53102,0.59779 -0.35767,0.96886 0.14114,0.34774 0.57001,0.53546 0.94108,0.3621 0.24109,-0.0956 0.72326,-0.28671 1.34431,-0.50009 0.0667,0.41664 0.12895,0.80549 0.19121,1.19435 0.65366,4.08298 1.74756,10.91573 7.10821,10.05751 1.49987,-0.24012 2.83193,-0.99464 3.67737,-1.58579 0.38106,-0.2889 1.68199,-1.23784 1.75081,-1.87558 0.0577,-0.3511 -0.17116,-0.71327 -0.5267,-0.79879 -0.35554,-0.0855 -0.69883,0.0834 -0.84435,0.42005 -0.28439,0.35889 -2.1452,2.08117 -4.28391,2.42357 -1.63875,0.26235 -2.83651,-0.45749 -3.74995,-2.24838 -0.88566,-1.79535 -1.35031,-4.34179 -1.71494,-6.61938 -0.0756,-0.47218 -0.14674,-0.91658 -0.19456,-1.39321 1.46874,-0.43455 3.15969,-0.90468 4.35403,-1.09589 0.38886,-0.0623 0.6688,-0.44892 0.60655,-0.83777 -0.0622,-0.38886 -0.44447,-0.64103 -0.83333,-0.57877 v 0 c -1.16657,0.18676 -2.83418,0.62466 -4.3307,1.06366 -0.447,-3.85969 -0.55618,-7.03279 -0.55406,-8.08716 v 0 c -0.0122,-0.25442 -0.13114,-0.46328 -0.35225,-0.59881 2.38643,-0.75239 5.24949,-1.5526 8.11035,-2.01062 0.55551,-0.0889 2.13871,-0.34239 2.73978,-0.32467 0.20222,0.19552 0.44221,0.27105 0.68775,0.20325 0.24553,-0.0678 0.4455,-0.24225 0.52103,-0.48224 0.0988,-0.27221 0.0222,-0.57329 -0.15674,-0.80104 -0.41779,-0.47437 -1.12996,-0.4743 -4.0186,-0.0118 z m 20.7043,3.76056 c -0.43498,-4.19688 -4.21352,-5.72828 -7.51507,-5.38609 -3.41346,0.35379 -5.96505,2.20192 -7.51041,3.66296 -1.74889,1.68009 -2.7809,3.45557 -2.93804,4.12229 -0.10219,0.37823 0.13716,0.77762 0.54047,0.84893 0.37823,0.1022 0.77762,-0.13715 0.84894,-0.54046 0.0858,-0.26341 0.86123,-1.78605 2.56286,-3.37641 0.76978,-0.7585 1.6351,-1.41378 2.59885,-1.93786 0.0445,5.34027 0.35115,9.66357 0.79468,13.12429 -0.66962,-0.18511 -1.3836,-0.25251 -2.0551,-0.18291 -1.95855,0.20299 -2.53725,1.16792 -2.45605,1.95134 0.13629,1.31502 1.67719,1.72091 3.16009,1.56722 0.58756,-0.0609 1.19731,-0.18066 1.77327,-0.35347 0.46555,2.58176 0.95413,4.56727 1.4156,6.01827 0.12454,0.38301 0.54235,0.59422 0.89738,0.47259 0.383,-0.12454 0.59422,-0.54235 0.47258,-0.89738 -0.46437,-1.47898 -0.95295,-3.46448 -1.39632,-6.10511 0.056,-0.006 0.137,-0.0425 0.19006,-0.0763 0.44868,0.2363 0.93115,0.52565 1.38274,0.78992 1.80345,1.02911 3.52006,2.03894 5.17083,1.86785 0.97928,-0.1015 2.08668,-1.14951 2.31718,-1.65416 0.13307,-0.35315 -0.0252,-0.78921 -0.38129,-0.95027 -0.35605,-0.16105 -0.76414,-0.006 -0.95317,0.35331 -0.14468,0.24123 -0.79776,0.7614 -1.13351,0.7962 -1.20311,0.1247 -2.70647,-0.73756 -4.30246,-1.67505 -0.21036,-0.1196 -0.38983,-0.21412 -0.60019,-0.33371 1.4046,-0.90914 2.67409,-2.03051 3.7583,-3.30235 2.36615,-2.8187 3.63618,-6.11767 3.35778,-8.80368 z m -12.11668,12.42636 c -0.83937,0.087 -1.48102,-0.10102 -1.58235,-0.2602 0.0502,-0.0618 0.30675,-0.31459 1.1741,-0.40448 0.67151,-0.0696 1.36331,0.0566 2.06961,0.32281 -0.54799,0.16991 -1.10177,0.28387 -1.66136,0.34187 z m 7.64435,-4.55352 c -1.20671,1.45422 -2.64117,2.62097 -4.14131,3.42689 -0.15149,-0.0974 -0.32807,-0.16396 -0.47666,-0.2334 -0.51689,-3.62279 -0.86128,-8.30982 -0.91068,-14.24346 0.0222,-0.0589 0.0193,-0.0868 0.0164,-0.11482 0.84126,-0.34171 1.72209,-0.5744 2.61743,-0.6672 2.71398,-0.28129 5.60674,0.88944 5.94023,4.10705 0.2378,2.29429 -0.90495,5.18415 -3.04539,7.72494 z m 24.59642,-7.1705 c -0.31421,-0.2183 -0.76356,-0.18047 -0.98186,0.13374 -0.24643,0.31481 -0.2092,0.73604 0.0775,0.98307 0.43034,0.38461 1.02212,0.42811 1.63475,0.13353 0.66887,-0.2958 1.35676,-1.01404 1.89978,-1.9261 0.56933,-0.99704 0.88312,-2.1011 0.86187,-3.08539 -0.0219,-1.01241 -0.4356,-1.93196 -1.12451,-2.56421 -0.80443,-0.77043 -1.96534,-1.11113 -3.39959,-1.08017 -2.13732,0.0461 -4.67097,1.28253 -6.76518,3.32537 -2.06609,2.04223 -3.28122,4.40372 -3.23933,6.34417 0.0795,3.68406 3.79272,4.95441 7.05231,6.06575 3.54264,1.18962 5.84242,2.15286 5.8922,4.45891 0.0431,1.9967 -2.37563,3.34316 -4.06298,3.37958 -1.34988,0.0291 -2.29796,-0.87887 -2.32771,-2.25687 -0.002,-0.0844 0.0245,-0.16935 0.0508,-0.25432 0.30389,-0.25978 0.3223,-0.71035 0.0625,-1.01423 -0.25917,-0.27577 -0.71034,-0.3223 -1.01423,-0.0625 -0.41394,0.3747 -0.54242,0.94019 -0.53331,1.36203 0.0467,2.16543 1.62748,3.70691 3.79292,3.66016 1.23739,-0.0267 2.57695,-0.53393 3.62922,-1.31631 1.21736,-0.95476 1.89371,-2.20733 1.86518,-3.52909 -0.0346,-1.60298 -0.82123,-2.85211 -2.36231,-3.85986 -1.25622,-0.84508 -2.9282,-1.39984 -4.5152,-1.92829 -3.65634,-1.24345 -6.0417,-2.26111 -6.09513,-4.7359 -0.0328,-1.51861 1.04902,-3.5396 2.81183,-5.29393 1.84657,-1.78427 3.98955,-2.87155 5.78939,-2.9104 1.88421,-0.0407 2.9992,0.77932 3.03077,2.2417 0.0273,1.26551 -0.67655,2.54681 -1.33692,3.23632 -0.35831,0.34536 -0.60898,0.46332 -0.69274,0.49326 z m 21.81941,4.7818 c -0.25077,-0.0661 -0.55775,-0.13444 -0.92205,-0.17685 0.20589,-3.82043 0.60743,-7.60505 1.17381,-10.56684 0.038,-0.25187 -0.0634,-0.53734 -0.25466,-0.68559 -0.19015,-0.17634 -0.46903,-0.24357 -0.69829,-0.13994 -0.25627,0.0744 -0.43372,0.29268 -0.47173,0.54454 -0.56968,3.04612 -0.97122,6.83074 -1.17711,10.65116 -2.18799,-0.19827 -5.02905,-0.25321 -7.48102,-0.18031 0.26431,-3.87444 0.71436,-7.4601 0.97774,-8.43506 0.065,-0.22266 -0.008,-0.50704 -0.19845,-0.68339 -0.16204,-0.17525 -0.44091,-0.24247 -0.69608,-0.19616 -0.22817,0.0755 -0.43262,0.26457 -0.49874,0.51534 -0.29589,1.08629 -0.75145,4.81249 -1.02235,8.85557 -1.66385,0.0756 -2.99261,0.22064 -3.56247,0.39538 -0.3698,0.0981 -0.61006,0.48282 -0.48493,0.88183 0.0981,0.3698 0.51093,0.61117 0.88183,0.48494 0.45522,-0.12293 1.61424,-0.24645 3.08133,-0.32976 -0.21359,4.01718 -0.17311,8.01616 0.45914,9.84255 0.12623,0.37091 0.54014,0.58417 0.91104,0.45794 0.3709,-0.12623 0.58417,-0.54014 0.45904,-0.93915 -0.58375,-1.62745 -0.60052,-5.51289 -0.39133,-9.41764 2.45086,-0.0448 5.37735,-0.0147 7.50912,0.18141 -0.0341,0.87133 -0.0671,1.71456 -0.0731,2.587 -0.102,8.35675 0.91597,8.95962 1.30177,9.17178 0.32959,0.20996 0.75561,0.11403 0.96556,-0.21555 0.20996,-0.32959 0.14215,-0.7545 -0.15933,-0.96336 -0.23976,-0.3472 -0.74968,-2.42216 -0.65581,-8.41458 -0.003,-0.64757 0.0225,-1.29404 0.0489,-1.96863 0.22266,0.065 0.41832,0.10083 0.61397,0.13665 0.3891,0.12783 0.76441,-0.11083 0.89224,-0.49993 0.0997,-0.39021 -0.13893,-0.76551 -0.52803,-0.89335 z m 12.7891,-10.29776 c -2.29437,-0.23709 -4.5712,0.99815 -6.41275,3.49435 -1.64477,2.23375 -2.75492,5.31454 -3.07296,8.39236 -0.2313,2.23841 0.043,4.78357 0.65577,5.69526 0.14764,0.2132 0.39079,0.32317 0.6455,0.32121 0.25761,-0.0299 0.47082,-0.17758 0.60587,-0.38986 0.10996,-0.24315 0.0829,-0.52873 -0.0647,-0.74194 -0.2702,-0.39554 -0.6525,-2.44285 -0.41542,-4.73722 0.29202,-2.82599 1.32019,-5.66075 2.80192,-7.68511 1.54347,-2.07455 3.3466,-3.10422 5.10935,-2.92207 1.73477,0.17926 2.97951,1.26936 3.6474,3.28962 0.56846,1.61408 0.76265,3.8399 0.52557,6.13427 -0.30358,2.93791 -1.22944,6.15087 -2.44098,8.57078 -1.10446,2.20474 -2.40488,3.56914 -3.30025,3.47662 -0.95132,-0.0983 -1.6345,-0.87587 -2.02436,-1.48173 -0.90227,-1.39406 -1.44378,-3.54265 -1.55309,-6.04249 -0.11127,-2.75455 0.31001,-5.73686 1.25424,-8.58029 0.12442,-0.38305 -0.0869,-0.80079 -0.46997,-0.92521 -0.35507,-0.12152 -0.77281,0.0898 -0.89723,0.47287 -1.94246,5.93579 -1.76805,12.45796 0.45433,15.85483 0.82989,1.27347 1.88548,2.00468 3.08863,2.12901 1.56689,0.16191 3.25129,-1.36077 4.73871,-4.26119 1.31571,-2.6071 2.25313,-5.93198 2.57695,-9.06575 0.15035,-1.45497 0.27159,-4.27033 -0.57388,-6.76139 -0.86766,-2.54992 -2.55627,-3.99696 -4.87862,-4.23693 z m 27.01676,5.17543 c -0.93611,-1.04287 -2.35397,-1.76787 -4.12898,-2.06834 -1.53009,-0.23047 -3.07471,-0.20664 -4.58307,0.10862 -0.12884,-0.25005 -0.35968,-0.40324 -0.64641,-0.39471 -0.25431,-0.0145 -0.50905,0.14206 -0.6345,0.37759 -0.0465,0.10624 -0.0977,0.24022 -0.14424,0.34646 -0.72196,0.22014 -1.44863,0.46802 -2.15694,0.77606 -2.30075,0.95142 -4.0148,2.1448 -4.75598,2.64698 -0.0973,0.0691 -0.16215,0.1152 -0.22701,0.16128 -0.22231,0.13354 -0.34776,0.36907 -0.33455,0.62807 0.0132,0.259 0.1698,0.51374 0.41002,0.61146 0.2078,0.12076 0.49453,0.11224 0.72154,-0.049 0.0602,-0.0183 0.12971,-0.0922 0.25943,-0.18432 2.06609,-1.41908 3.93203,-2.32998 5.57054,-2.9085 -0.42462,1.49723 -0.99903,3.71087 -1.52311,6.13273 -0.84714,3.99334 -1.83303,9.8176 -1.63313,14.87259 0.0222,0.37463 0.34047,0.68527 0.74284,0.6678 0.40237,-0.0175 0.71301,-0.33578 0.69553,-0.73815 -0.32181,-8.04266 2.41412,-18.30654 3.36534,-21.39786 1.90176,-0.44837 3.43699,-0.41673 4.62958,-0.21486 4.27112,0.72299 4.28722,3.49305 4.09004,4.6579 -0.66665,3.93831 -6.93446,8.26937 -11.03543,9.7434 -0.36568,0.13781 -0.55173,0.56278 -0.41392,0.92846 0.13311,0.39341 0.53035,0.57477 0.89602,0.43697 2.24954,-0.81744 4.99577,-2.37816 7.14593,-4.12536 1.94619,-1.55349 4.35708,-3.99831 4.82186,-6.74403 0.28168,-1.66408 -0.0984,-3.12636 -1.1314,-4.2712 z"
           id="path18" />
        <path
           style="color:#000000;-inkscape-font-specification:'Pink Bloom';fill:#ffffff;fill-opacity:0.991022;stroke-linecap:round;stroke-linejoin:round;-inkscape-stroke:none"
           d="m 301.99219,256.78906 c -2.3215,0.0501 -4.9372,1.35362 -7.10352,3.4668 a 0.50005,0.50005 0 0 0 -0.002,0.002 c -2.13344,2.1088 -3.4333,4.55315 -3.38672,6.71094 0.0433,2.00866 1.12227,3.42694 2.55078,4.40039 1.42851,0.97345 3.20986,1.57122 4.83984,2.12695 a 0.50005,0.50005 0 0 0 0.002,0.002 c 1.76366,0.59224 3.19556,1.12967 4.13867,1.7539 0.94311,0.62423 1.39077,1.25376 1.41211,2.24219 0.0171,0.79417 -0.45494,1.48275 -1.17774,2.00977 -0.72279,0.52701 -1.68055,0.84197 -2.39648,0.85742 -0.56039,0.0121 -0.99284,-0.16148 -1.30078,-0.45899 -0.30794,-0.2975 -0.50317,-0.73181 -0.51563,-1.30859 6.7e-4,0.0281 0.003,-0.01 0.0293,-0.0957 l -0.15234,0.23242 c 0.51336,-0.43885 0.5432,-1.22046 0.11718,-1.71875 a 0.50005,0.50005 0 0 0 -0.0156,-0.0176 c -0.43826,-0.46633 -1.19103,-0.5374 -1.70313,-0.0996 a 0.50005,0.50005 0 0 0 -0.0117,0.01 c -0.56134,0.50812 -0.70878,1.20925 -0.69727,1.74218 0.0518,2.40348 1.89493,4.20238 4.30273,4.15039 1.36616,-0.0295 2.78569,-0.57414 3.91797,-1.41601 a 0.50005,0.50005 0 0 0 0.01,-0.008 c 1.31369,-1.03031 2.089,-2.43458 2.05664,-3.9336 -0.038,-1.75901 -0.95292,-3.19534 -2.58398,-4.26367 -1.34194,-0.90274 -3.04686,-1.45824 -4.63282,-1.98633 l -0.002,-0.002 c -1.81881,-0.61861 -3.2997,-1.18242 -4.27734,-1.8457 -0.97819,-0.66365 -1.45329,-1.34744 -1.47657,-2.42578 -0.0274,-1.27016 0.96288,-3.23422 2.65821,-4.92383 l 0.004,-0.002 c 10e-4,-10e-4 8.5e-4,-0.003 0.002,-0.004 1.7791,-1.71676 3.842,-2.72902 5.44726,-2.76367 0.86749,-0.0187 1.50429,0.16501 1.90235,0.45898 0.39805,0.29397 0.60605,0.68675 0.61914,1.29297 0.023,1.06854 -0.62399,2.27426 -1.19141,2.87109 -0.27794,0.26522 -0.42898,0.32701 -0.45703,0.33985 -0.45872,-0.12759 -0.95785,-0.0742 -1.26172,0.34961 -0.38253,0.50306 -0.3294,1.23698 0.14648,1.65039 0.5836,0.5188 1.43031,0.56273 2.16993,0.21093 0.8248,-0.36648 1.54516,-1.15243 2.12304,-2.12304 a 0.50005,0.50005 0 0 0 0.004,-0.008 c 0.60892,-1.06636 0.95145,-2.2452 0.92773,-3.34375 -0.0246,-1.13947 -0.49104,-2.18807 -1.28125,-2.91601 -0.92462,-0.88352 -2.23644,-1.24955 -3.7539,-1.2168 z m 21.99414,0.66992 c -0.42304,0.14187 -0.73232,0.49535 -0.79688,0.91602 -0.54839,2.9369 -0.9169,6.56208 -1.13086,10.2168 -1.97556,-0.15654 -4.31701,-0.20293 -6.48632,-0.15625 0.12643,-1.72359 0.27759,-3.41348 0.4375,-4.75977 0.17679,-1.48846 0.36237,-2.63762 0.47265,-3.04883 0.12306,-0.42154 -0.007,-0.85587 -0.33398,-1.16992 -0.3116,-0.32292 -0.7365,-0.41337 -1.13086,-0.3418 a 0.50005,0.50005 0 0 0 -0.0664,0.0176 c -0.37862,0.12529 -0.70802,0.42334 -0.82422,0.85742 -9e-5,3.5e-4 10e-5,0.002 0,0.002 -0.16886,0.62052 -0.34938,1.80913 -0.53515,3.39062 -0.17191,1.4635 -0.33481,3.2798 -0.4668,5.14453 -1.39061,0.0775 -2.60872,0.17688 -3.23047,0.36524 -0.62619,0.1678 -1.02954,0.8452 -0.83008,1.50195 0.18026,0.64438 0.86086,1.04187 1.51758,0.81836 l -0.0312,0.01 c 0.27063,-0.0731 1.34337,-0.17375 2.44141,-0.25586 -0.18241,3.8225 -0.17229,7.51845 0.49609,9.44922 0.21538,0.63023 0.90452,0.98553 1.54492,0.76757 0.63116,-0.2148 0.97861,-0.91255 0.77539,-1.56054 a 0.50005,0.50005 0 0 0 -0.006,-0.0195 c -0.24969,-0.69613 -0.41449,-2.05988 -0.46484,-3.70118 -0.0459,-1.4973 0.006,-3.26775 0.0918,-5.03711 2.17876,-0.0301 4.59152,0.005 6.50586,0.15625 -0.0264,0.69675 -0.0557,1.38636 -0.0605,2.09766 l 0.002,-0.002 c -0.0513,4.19881 0.17246,6.46385 0.48047,7.76172 0.15401,0.64893 0.33015,1.06076 0.52735,1.34961 0.19209,0.28138 0.43159,0.43007 0.53906,0.49023 0.55108,0.34006 1.29263,0.17518 1.64062,-0.37109 0.3408,-0.53498 0.23866,-1.27293 -0.29492,-1.64258 l 0.125,0.12695 c 0.0253,0.0366 -0.0672,-0.14202 -0.14062,-0.45117 -0.0735,-0.30915 -0.15537,-0.76955 -0.22657,-1.41016 -0.14238,-1.28121 -0.24591,-3.28059 -0.19922,-6.26172 a 0.50005,0.50005 0 0 0 0,-0.002 0.50005,0.50005 0 0 0 0,-0.006 0.50005,0.50005 0 0 0 0,-0.002 c -0.002,-0.43738 0.0173,-0.89269 0.0332,-1.3457 0.0116,0.002 0.0276,0.006 0.0391,0.008 l -0.0391,-0.01 c 1.4e-4,-0.004 -1.4e-4,-0.008 0,-0.0117 0.64566,0.19353 1.29954,-0.21617 1.49609,-0.81445 a 0.50005,0.50005 0 0 0 0.01,-0.0332 c 0.1661,-0.65011 -0.24828,-1.29269 -0.85547,-1.49219 a 0.50005,0.50005 0 0 0 -0.0293,-0.008 c -0.13501,-0.0356 -0.33533,-0.0623 -0.5039,-0.0957 0.21189,-3.64368 0.58223,-7.26265 1.11914,-10.07031 a 0.50005,0.50005 0 0 0 0.004,-0.0195 c 0.0644,-0.42712 -0.0823,-0.8447 -0.43359,-1.13086 -0.31176,-0.27787 -0.75987,-0.38695 -1.18164,-0.2168 z m -21.97266,0.33008 c 1.3493,-0.0291 2.35891,0.28431 3.04297,0.93946 a 0.50005,0.50005 0 0 0 0.008,0.008 c 0.58445,0.53637 0.9438,1.32419 0.96289,2.20703 0.0188,0.8682 -0.26536,1.89413 -0.79297,2.82031 -0.50684,0.85027 -1.15947,1.49692 -1.66992,1.72266 a 0.50005,0.50005 0 0 0 -0.0156,0.008 c -0.48198,0.23176 -0.80949,0.18868 -1.08399,-0.0566 a 0.50005,0.50005 0 0 0 -0.008,-0.006 c -0.09,-0.0775 -0.10769,-0.17178 -0.01,-0.29687 a 0.50005,0.50005 0 0 0 0.0176,-0.0215 c 0.0456,-0.0656 0.17662,-0.0852 0.28516,-0.01 l -0.0684,-0.0566 a 0.50005,0.50005 0 0 0 0.52344,0.11719 c 0.17799,-0.0636 0.46985,-0.21677 0.87109,-0.60351 a 0.50005,0.50005 0 0 0 0.0137,-0.0137 c 0.75164,-0.7848 1.50607,-2.1357 1.47461,-3.59375 -0.0185,-0.85615 -0.38505,-1.60471 -1.02343,-2.07617 -0.63839,-0.47146 -1.50087,-0.67626 -2.51758,-0.65429 -1.99251,0.043 -4.21241,1.20272 -6.125,3.05078 a 0.50005,0.50005 0 0 0 -0.006,0.006 c -1.8264,1.81761 -2.99712,3.89272 -2.95899,5.6582 0.0301,1.39645 0.77409,2.45768 1.91602,3.23242 1.14193,0.77474 2.68142,1.34236 4.51758,1.9668 a 0.50005,0.50005 0 0 0 0.004,0 c 1.58736,0.52857 3.22471,1.08218 4.39453,1.86914 a 0.50005,0.50005 0 0 0 0.004,0.004 c 1.44791,0.94682 2.10553,2.00605 2.13672,3.45117 0.0247,1.14286 -0.55204,2.2425 -1.66992,3.12109 -0.9715,0.72055 -2.22943,1.19097 -3.33594,1.21484 -1.92307,0.0415 -3.23968,-1.24449 -3.28125,-3.17187 -0.007,-0.30762 0.10449,-0.72816 0.36523,-0.9707 0.0911,-0.0714 0.22251,-0.0499 0.30274,0.0234 0.0793,0.10474 0.0818,0.21634 -0.008,0.29297 a 0.50005,0.50005 0 0 0 -0.15235,0.23242 c -0.0261,0.0843 -0.0789,0.21715 -0.0742,0.41407 0.0177,0.8004 0.31169,1.51061 0.82227,2.0039 0.51101,0.49371 1.22614,0.75726 2.01562,0.74024 0.97143,-0.021 2.06722,-0.39629 2.96485,-1.05078 0.89763,-0.65449 1.61385,-1.63732 1.58789,-2.83985 -0.0284,-1.31762 -0.75449,-2.32142 -1.85938,-3.05273 -1.10429,-0.73091 -2.59339,-1.27019 -4.37109,-1.86719 l -0.002,-0.002 c -1.62885,-0.55536 -3.33348,-1.14573 -4.59571,-2.00586 -1.26287,-0.86058 -2.07908,-1.92031 -2.11523,-3.5957 -0.0372,-1.72311 1.0911,-4.00286 3.08984,-5.97852 2.02171,-1.97127 4.47136,-3.13757 6.42383,-3.17969 z m -26.66797,0.31836 c -3.56564,0.36957 -6.21068,2.29169 -7.80273,3.79688 a 0.50005,0.50005 0 0 0 -0.004,0.004 c -0.90246,0.86697 -1.6168,1.75492 -2.13281,2.52149 -0.51341,0.7627 -0.82802,1.36224 -0.94141,1.83593 -0.1702,0.64369 0.24987,1.31984 0.91797,1.45313 0.64576,0.15809 1.32776,-0.25779 1.44727,-0.93359 l -0.0176,0.0684 c -0.003,0.0101 0.0592,-0.14101 0.16211,-0.33008 0.10288,-0.18907 0.25184,-0.44185 0.45117,-0.73438 0.39867,-0.58505 0.99607,-1.33486 1.81641,-2.10156 a 0.50005,0.50005 0 0 0 0.01,-0.008 c 0.53645,-0.52859 1.1732,-0.93558 1.80469,-1.34766 0.072,4.60113 0.32242,8.49186 0.70508,11.63672 -0.52506,-0.0867 -1.0538,-0.19457 -1.57422,-0.14063 -1.05506,0.10935 -1.80316,0.42948 -2.28711,0.89454 -0.48395,0.46505 -0.67056,1.07166 -0.61523,1.60546 0.0875,0.84446 0.67822,1.45005 1.3789,1.74415 0.70069,0.29409 1.52607,0.35286 2.33008,0.26953 0.4473,-0.0464 0.899,-0.15892 1.34766,-0.26758 0.43363,2.2983 0.8822,4.22681 1.31445,5.58594 a 0.50005,0.50005 0 0 0 0,0.004 c 0.20886,0.64232 0.89427,1.00482 1.5293,0.79102 0.64257,-0.21061 1.00689,-0.89742 0.78906,-1.53321 -0.3895,-1.24217 -0.79241,-3.07696 -1.17774,-5.15625 0.21269,0.12349 0.41907,0.23658 0.62891,0.35938 a 0.50005,0.50005 0 0 0 0.004,0.002 c 1.79978,1.02702 3.58391,2.1272 5.4707,1.93164 0.64594,-0.0669 1.22239,-0.40654 1.69727,-0.78125 0.47488,-0.3747 0.83681,-0.75351 1.02343,-1.16211 a 0.50005,0.50005 0 0 0 0.0137,-0.0312 c 0.22708,-0.60264 -0.0304,-1.30424 -0.64454,-1.58203 -0.59655,-0.26983 -1.30207,0.007 -1.60156,0.57617 l 0.0137,-0.0254 c 0.0168,-0.028 -0.1718,0.19044 -0.36132,0.33008 -0.18953,0.13964 -0.4477,0.23208 -0.39454,0.22656 -0.92473,0.0958 -2.4025,-0.67265 -3.99414,-1.60742 1.19005,-0.849 2.33522,-1.77306 3.28125,-2.88281 a 0.50005,0.50005 0 0 0 0.004,-0.002 c 2.41712,-2.87943 3.74438,-6.2485 3.46875,-9.11914 a 0.50005,0.50005 0 0 0 0.006,-0.006 h -0.006 c -0.002,-0.017 0.004,-0.0358 0.002,-0.0527 -0.23215,-2.2399 -1.39105,-3.83427 -2.91797,-4.76953 -1.52691,-0.93525 -3.39822,-1.24349 -5.14453,-1.0625 z m 49.01367,0.25391 c 0.0166,-0.008 0.0945,-0.003 0.15235,0.0508 a 0.50005,0.50005 0 0 0 0.0351,0.0293 c 0.0132,0.0103 0.0765,0.14977 0.0664,0.21679 -0.57127,2.99359 -0.97325,6.78273 -1.17969,10.61328 a 0.50005,0.50005 0 0 0 0.44141,0.52344 c 0.32429,0.0378 0.59522,0.0981 0.82617,0.1582 0.15795,0.0531 0.20596,0.15448 0.18555,0.27344 -0.0556,0.1398 -0.12687,0.20521 -0.24024,0.16797 a 0.50005,0.50005 0 0 0 -0.0664,-0.0176 c -0.19564,-0.0358 -0.36803,-0.0682 -0.5625,-0.125 a 0.50005,0.50005 0 0 0 -0.64063,0.46094 c -0.0263,0.67118 -0.0516,1.32156 -0.0488,1.98047 -2e-5,0.002 3e-5,0.002 0,0.004 1e-5,0.002 0,0.004 0,0.006 -0.0466,3.00372 0.0563,5.03783 0.20508,6.37696 0.0745,0.67058 0.16138,1.16839 0.24805,1.5332 0.0867,0.36482 0.14584,0.57688 0.29102,0.78711 a 0.50005,0.50005 0 0 0 0.12695,0.12695 c 0.0694,0.0481 0.10061,0.159 0.0215,0.28321 -0.0689,0.10816 -0.16672,0.13048 -0.27343,0.0625 a 0.50005,0.50005 0 0 0 -0.0293,-0.0176 c -0.0902,-0.0496 -0.10804,-0.0464 -0.20703,-0.19141 -0.099,-0.14501 -0.2449,-0.44468 -0.38086,-1.01758 -0.27192,-1.14579 -0.50583,-3.35965 -0.45508,-7.51757 a 0.50005,0.50005 0 0 0 0,-0.004 c 0.006,-0.86205 0.0401,-1.69898 0.0742,-2.57031 a 0.50005,0.50005 0 0 0 -0.45508,-0.51758 c -2.16869,-0.19951 -5.10028,-0.2286 -7.5625,-0.18359 a 0.50005,0.50005 0 0 0 -0.49023,0.4746 c -0.10511,1.96194 -0.15519,3.91905 -0.10352,5.60352 0.0517,1.68447 0.18938,3.07844 0.52344,4.00977 l -0.008,-0.0195 c 0.047,0.15003 -0.0319,0.27875 -0.14258,0.31641 -0.10089,0.0343 -0.23969,-0.0358 -0.27735,-0.14648 a 0.50005,0.50005 0 0 0 0,-0.002 c -0.5606,-1.61941 -0.64411,-5.65608 -0.43164,-9.65234 a 0.50005,0.50005 0 0 0 -0.52734,-0.52539 c -1.48014,0.084 -2.60354,0.18906 -3.18359,0.3457 a 0.50005,0.50005 0 0 0 -0.0312,0.01 c -0.0797,0.0271 -0.2155,-0.0547 -0.23829,-0.14063 a 0.50005,0.50005 0 0 0 -0.006,-0.0215 c -0.043,-0.13708 0.0282,-0.21926 0.13672,-0.24805 a 0.50005,0.50005 0 0 0 0.0176,-0.006 c 0.43573,-0.13361 1.79252,-0.30017 3.43945,-0.375 a 0.50005,0.50005 0 0 0 0.47657,-0.46484 c 0.13488,-2.01311 0.31444,-3.94866 0.49804,-5.51172 0.18361,-1.56306 0.38087,-2.78004 0.50782,-3.24609 a 0.50005,0.50005 0 0 0 0,-0.004 c 0.0146,-0.0553 0.0821,-0.10895 0.14648,-0.14258 0.0901,10e-4 0.18802,0.0252 0.19727,0.0352 a 0.50005,0.50005 0 0 0 0.0273,0.0273 c 0.0406,0.0376 0.0633,0.15972 0.0586,0.17578 a 0.50005,0.50005 0 0 0 -0.002,0.01 c -0.15324,0.56724 -0.32237,1.69121 -0.50195,3.20312 -0.17958,1.51192 -0.35944,3.38213 -0.49219,5.32813 a 0.50005,0.50005 0 0 0 0.51367,0.53515 c 2.43304,-0.0723 5.26437,-0.0178 7.42188,0.17774 a 0.50005,0.50005 0 0 0 0.54297,-0.4707 c 0.20496,-3.80326 0.60619,-7.57165 1.16992,-10.58594 a 0.50005,0.50005 0 0 0 0.002,-0.0176 c 0.0101,-0.067 0.053,-0.12005 0.11719,-0.13867 a 0.50005,0.50005 0 0 0 0.0664,-0.0254 z m 13.33594,0.31836 c -2.50463,-0.25882 -4.95358,1.10409 -6.86523,3.69531 a 0.50005,0.50005 0 0 0 -0.002,0 c -1.71122,2.324 -2.83925,5.47646 -3.16601,8.63867 -0.11972,1.15858 -0.10899,2.38168 0.0117,3.45117 0.12071,1.0695 0.31733,1.96826 0.72461,2.57422 a 0.50005,0.50005 0 0 0 0.004,0.006 c 0.24811,0.35828 0.65949,0.53824 1.06055,0.53516 a 0.50005,0.50005 0 0 0 0.0547,-0.002 c 0.41352,-0.048 0.76409,-0.29438 0.9707,-0.61914 a 0.50005,0.50005 0 0 0 0.0332,-0.0625 c 0.18322,-0.40514 0.14088,-0.87092 -0.10937,-1.23242 0.0126,0.0175 -0.0757,-0.1654 -0.13867,-0.41992 -0.0636,-0.25701 -0.12604,-0.60331 -0.17383,-1.00977 -0.0956,-0.8129 -0.13173,-1.86597 -0.0176,-2.9707 0.18641,-1.80399 0.76779,-3.52385 1.49219,-5.10547 -1.71928,5.8249 -1.57414,12.01545 0.69922,15.49024 0.88789,1.36185 2.08468,2.20975 3.45703,2.35156 0.96107,0.0993 1.91553,-0.32434 2.78515,-1.10742 0.86963,-0.78308 1.68676,-1.93509 2.44922,-3.42188 a 0.50005,0.50005 0 0 0 0.002,-0.004 c 1.3497,-2.67447 2.29671,-6.0443 2.62695,-9.24024 0.1543,-1.49323 0.28934,-4.35925 -0.59766,-6.97265 -0.9128,-2.6826 -2.79866,-4.31568 -5.30078,-4.57422 z m -62.24804,0.42383 c 1.55524,-0.1612 3.22499,0.1258 4.52148,0.91992 1.29649,0.79411 2.24248,2.06256 2.44531,4.01953 0.258,2.48914 -0.94291,5.69065 -3.24219,8.42969 -1.05294,1.23475 -2.28668,2.32367 -3.64843,3.20507 a 0.50005,0.50005 0 0 0 0.0254,0.85352 c 0.21818,0.12403 0.39707,0.21883 0.59961,0.33398 1.59649,0.93794 3.12281,1.89156 4.60156,1.73829 0.38891,-0.0403 0.62569,-0.22657 0.88281,-0.41602 0.25713,-0.18945 0.46547,-0.35184 0.62696,-0.62109 a 0.50005,0.50005 0 0 0 0.0137,-0.0234 c 0.0786,-0.14935 0.18914,-0.18312 0.30468,-0.13086 0.0937,0.0424 0.1444,0.20034 0.11524,0.30469 -0.0546,0.10715 -0.34235,0.48147 -0.71484,0.77539 -0.38127,0.30083 -0.84831,0.53771 -1.18165,0.57226 -1.41326,0.14648 -3.06034,-0.77284 -4.86523,-1.80273 l -0.006,-0.002 c -0.44687,-0.26157 -0.93141,-0.5539 -1.39648,-0.79883 a 0.50005,0.50005 0 0 0 -0.50196,0.0215 c 0.004,-0.002 -0.0814,0.0114 0.0254,0 a 0.50005,0.50005 0 0 0 -0.43945,0.58008 c 0.44653,2.65942 0.93946,4.66651 1.41211,6.17187 a 0.50005,0.50005 0 0 0 0.004,0.0117 c 0.0251,0.0734 -0.0326,0.22021 -0.1543,0.25977 a 0.50005,0.50005 0 0 0 -0.008,0.004 c -0.0734,0.0251 -0.2202,-0.0326 -0.25977,-0.1543 -0.45231,-1.42249 -0.93593,-3.38823 -1.39844,-5.95313 a 0.50005,0.50005 0 0 0 -0.63671,-0.39062 c -0.54383,0.16317 -1.12566,0.27831 -1.68165,0.33594 -0.67889,0.0704 -1.36528,0.002 -1.83984,-0.19727 -0.47456,-0.19918 -0.72271,-0.45326 -0.77148,-0.92383 -0.0259,-0.24961 0.0378,-0.51724 0.3125,-0.78125 0.27473,-0.26401 0.79573,-0.52745 1.69922,-0.62109 0.60242,-0.0624 1.25745,-0.003 1.86914,0.16601 a 0.50005,0.50005 0 0 0 0.6289,-0.54492 c -0.44055,-3.43746 -0.7447,-7.74108 -0.78906,-13.06445 a 0.50005,0.50005 0 0 0 -0.74023,-0.43555 c -1.00579,0.54694 -1.90713,1.23187 -2.70704,2.01953 -0.001,10e-4 -0.003,9.5e-4 -0.004,0.002 -0.87506,0.81971 -1.51532,1.623 -1.94922,2.25976 -0.21795,0.31986 -0.38408,0.59815 -0.50391,0.81836 -0.11982,0.22021 -0.18817,0.35815 -0.23437,0.5 a 0.50005,0.50005 0 0 0 -0.0156,0.0664 c -0.0215,0.12152 -0.12368,0.17233 -0.22656,0.14453 a 0.50005,0.50005 0 0 0 -0.043,-0.008 c -0.12151,-0.0215 -0.17233,-0.12368 -0.14453,-0.22657 a 0.50005,0.50005 0 0 0 0.004,-0.0156 c 0.0452,-0.19193 0.32233,-0.80971 0.79882,-1.51758 0.4765,-0.70787 1.15163,-1.54625 1.99805,-2.35937 1.49882,-1.41663 3.9548,-3.1875 7.21485,-3.52539 z m -10.30274,0.28125 c -0.65779,-0.002 -1.56498,0.11929 -3.01562,0.35156 -3.06678,0.49097 -6.25005,1.37455 -8.83594,2.21875 -2.58589,0.84419 -4.53739,1.62908 -5.25977,2 a 0.50005,0.50005 0 0 0 -0.004,0.002 c -0.414,0.21579 -0.62594,0.6373 -0.65039,1.04492 -0.026,0.43495 0.19482,0.86013 0.5664,1.08789 0.37491,0.22979 0.83321,0.25798 1.22461,0.0352 0.29512,-0.15985 1.86227,-0.77884 3.58985,-1.39453 0.0638,2.57586 0.24653,5.15307 0.56054,7.6914 -0.57187,0.19486 -1.1306,0.3806 -1.42383,0.50586 a 0.50005,0.50005 0 0 0 -0.0156,0.006 c -0.6003,0.28045 -0.87455,1.01329 -0.59961,1.6211 0.25554,0.60753 0.9798,0.90949 1.60547,0.61718 l -0.0254,0.0117 c 0.13881,-0.055 0.4875,-0.18066 0.76172,-0.2832 0.0314,0.19594 0.0649,0.39922 0.0957,0.5918 0.32683,2.04149 0.75719,4.80812 1.83203,7.02148 0.53742,1.10668 1.24211,2.08511 2.20899,2.73633 0.96688,0.65122 2.19362,0.94619 3.63867,0.71484 1.61568,-0.25866 3.00094,-1.05193 3.88476,-1.66992 a 0.50005,0.50005 0 0 0 0.0156,-0.0117 c 0.18226,-0.13818 0.62224,-0.45933 1.03125,-0.83789 0.4062,-0.37595 0.83599,-0.75404 0.9082,-1.37304 0.0901,-0.60757 -0.28658,-1.20002 -0.90039,-1.34766 -0.57222,-0.13761 -1.18493,0.1634 -1.41992,0.70703 l 0.0664,-0.11133 c -0.0543,0.0685 -0.60506,0.62148 -1.33398,1.11328 -0.72892,0.49181 -1.67423,0.97287 -2.63672,1.12696 -0.73011,0.11688 -1.29779,0.0185 -1.81055,-0.28907 -0.51275,-0.3076 -0.98521,-0.85255 -1.41406,-1.69336 -0.83186,-1.68931 -1.30497,-4.20334 -1.66797,-6.4707 -0.052,-0.32493 -0.0904,-0.63043 -0.13086,-0.93945 1.35436,-0.39419 2.84623,-0.81155 3.87696,-0.97656 0.6709,-0.10749 1.12889,-0.74115 1.02148,-1.41211 -0.10734,-0.67107 -0.75877,-1.09586 -1.40625,-0.99219 -1.04846,0.16785 -2.46436,0.55195 -3.79492,0.92969 -0.3696,-3.47051 -0.51362,-6.51345 -0.51172,-7.45899 a 0.50005,0.50005 0 0 0 0,-0.0254 c -0.005,-0.094 -0.11426,-0.14528 -0.14062,-0.23633 2.26706,-0.70037 4.85278,-1.43509 7.47851,-1.85547 0.27779,-0.0445 0.80794,-0.12808 1.33985,-0.19921 0.5319,-0.0711 1.08922,-0.12555 1.30664,-0.11914 l -0.33399,-0.14063 c 0.29808,0.2882 0.75002,0.44158 1.16797,0.32617 0.38688,-0.10683 0.72416,-0.39791 0.85742,-0.80664 0.15937,-0.4567 0.0331,-0.92962 -0.23242,-1.26758 a 0.50005,0.50005 0 0 0 -0.0176,-0.0215 c -0.30203,-0.34294 -0.79924,-0.52571 -1.45703,-0.52734 z m 10.34766,0.15039 c -0.94715,0.0982 -1.87323,0.34345 -2.75391,0.70117 a 0.50005,0.50005 0 0 0 -0.30859,0.51367 c 0.003,0.0282 0.0124,-0.10802 0.0137,-0.11133 a 0.50005,0.50005 0 0 0 -0.0332,0.17969 c 0.0495,5.95079 0.39499,10.65881 0.91601,14.31055 a 0.50005,0.50005 0 0 0 0.2832,0.38086 c 0.17522,0.0819 0.32799,0.14331 0.41797,0.20117 a 0.50005,0.50005 0 0 0 0.50782,0.0215 c 1.55955,-0.83784 3.04035,-2.04495 4.28711,-3.54687 3.8e-4,-4.6e-4 -3.9e-4,-10e-4 0,-0.002 h 0.002 c 2.20313,-2.61606 3.4173,-5.5959 3.1582,-8.0957 -0.18139,-1.75007 -1.09675,-3.01422 -2.31836,-3.74414 -1.2216,-0.72992 -2.72601,-0.95845 -4.17187,-0.80859 z m 62.10156,0.14062 c 2.14258,0.2214 3.63256,1.48315 4.45508,3.90039 0.80394,2.36871 0.69718,5.13212 0.55078,6.54883 -0.3174,3.0716 -1.24368,6.3509 -2.52539,8.89062 -0.72469,1.41276 -1.49267,2.47021 -2.22852,3.13282 -0.73614,0.66288 -1.40785,0.92002 -2.01367,0.85742 -1.03351,-0.1068 -1.9489,-0.71996 -2.7207,-1.9043 a 0.50005,0.50005 0 0 0 0,-0.002 c -2.06841,-3.16153 -2.30447,-9.6013 -0.39844,-15.42578 0.0395,-0.12172 0.18638,-0.17941 0.25977,-0.1543 a 0.50005,0.50005 0 0 0 0.008,0.002 c 0.12172,0.0395 0.18847,0.17167 0.14844,0.29493 l 0.002,-0.002 c -0.96317,2.90045 -1.39321,5.93787 -1.2793,8.75782 a 0.50005,0.50005 0 0 0 0,0.002 c 0.11191,2.55934 0.6528,4.77683 1.63281,6.29101 0.42836,0.66568 1.19746,1.5855 2.39258,1.70899 0.72226,0.0746 1.36205,-0.37435 1.98633,-1.03125 0.62429,-0.6569 1.24357,-1.58305 1.8125,-2.71875 1.2452,-2.48715 2.18176,-5.73992 2.49219,-8.74414 0.2431,-2.35261 0.0522,-4.63004 -0.55078,-6.34571 -0.70973,-2.14234 -2.15316,-3.42904 -4.06836,-3.62695 -1.98906,-0.20553 -3.95501,0.96049 -5.5625,3.1211 a 0.50005,0.50005 0 0 0 -0.002,0.004 c -1.54801,2.11492 -2.59564,5.0164 -2.89648,7.92774 -0.12293,1.18964 -0.0843,2.30818 0.0195,3.1914 0.0519,0.44162 0.11865,0.82301 0.19531,1.13281 0.0767,0.30981 0.13527,0.52667 0.28516,0.7461 a 0.50005,0.50005 0 0 0 0.002,0.004 c 0.0383,0.0553 0.0369,0.13889 0.0176,0.2129 -0.0501,0.0627 -0.1083,0.10432 -0.17969,0.11914 -0.0873,-0.007 -0.15967,-0.0312 -0.20117,-0.0899 -0.20524,-0.30717 -0.44896,-1.13436 -0.56054,-2.12304 -0.11181,-0.99061 -0.12135,-2.15846 -0.01,-3.23829 0.30932,-2.99341 1.4002,-6.00299 2.97852,-8.14648 1.77144,-2.40118 3.87488,-3.50833 5.95898,-3.29297 z m -72.45117,0.70899 c 0.51337,10e-4 0.58196,0.0583 0.69336,0.18359 0.0776,0.10869 0.10472,0.22604 0.0762,0.30469 a 0.50005,0.50005 0 0 0 -0.006,0.0215 c -0.0205,0.0651 -0.0772,0.12262 -0.17773,0.15039 -0.0731,0.0202 -0.10067,0.0208 -0.20704,-0.082 a 0.50005,0.50005 0 0 0 -0.33203,-0.14062 c -0.38365,-0.0113 -0.91991,0.0535 -1.46875,0.12695 -0.54883,0.0734 -1.08751,0.16063 -1.36523,0.20508 -2.8992,0.46416 -5.7828,1.27104 -8.18164,2.02734 a 0.50005,0.50005 0 0 0 -0.11133,0.90234 c 0.0941,0.0577 0.1079,0.0851 0.11328,0.19727 v -0.0254 c -0.002,1.0909 0.10906,4.26493 0.55859,8.14648 a 0.50005,0.50005 0 0 0 0.63672,0.42188 c 1.48643,-0.43604 3.14999,-0.87155 4.26953,-1.05078 0.13025,-0.0209 0.24271,0.0574 0.25977,0.16406 0.0171,0.10674 -0.0846,0.24851 -0.19141,0.26562 -1.24792,0.19979 -2.94319,0.67304 -4.41796,1.10938 a 0.50005,0.50005 0 0 0 -0.35547,0.5293 c 0.0496,0.49492 0.12361,0.95164 0.19922,1.42382 0.36591,2.28562 0.82181,4.86038 1.75976,6.76172 a 0.50005,0.50005 0 0 0 0.004,0.006 c 0.48459,0.95009 1.06684,1.66126 1.79101,2.09571 0.72418,0.43444 1.57379,0.56343 2.48242,0.41796 1.17622,-0.1883 2.23181,-0.74049 3.03907,-1.28515 0.80726,-0.54466 1.32851,-1.02996 1.55859,-1.32031 a 0.50005,0.50005 0 0 0 0.0664,-0.11329 c 0.0561,-0.12967 0.12872,-0.1662 0.26758,-0.13281 0.0909,0.0219 0.16486,0.14438 0.15039,0.23242 a 0.50005,0.50005 0 0 0 -0.004,0.0274 c -0.001,0.011 -0.24568,0.42828 -0.59961,0.75586 -0.34954,0.32351 -0.74208,0.6132 -0.94336,0.76562 -0.80722,0.56399 -2.08446,1.2787 -3.4668,1.5 -1.23527,0.19777 -2.15554,-0.0405 -2.92187,-0.55664 -0.76633,-0.51614 -1.37934,-1.33915 -1.86719,-2.34375 -0.97569,-2.00919 -1.41926,-4.7007 -1.74609,-6.74219 -0.0623,-0.38885 -0.12471,-0.77867 -0.19141,-1.19531 a 0.50005,0.50005 0 0 0 -0.65625,-0.39258 c -0.6326,0.21735 -1.12405,0.41218 -1.36523,0.50782 a 0.50005,0.50005 0 0 0 -0.0273,0.0117 c -0.11181,0.0522 -0.23364,-0.0189 -0.26562,-0.0976 a 0.50005,0.50005 0 0 0 -0.0117,-0.0234 c -0.0611,-0.13073 -0.0197,-0.23834 0.11523,-0.30273 0.27595,-0.11695 0.92481,-0.33738 1.70313,-0.60352 a 0.50005,0.50005 0 0 0 0.33398,-0.53711 c -0.35779,-2.76344 -0.55326,-5.58329 -0.60937,-8.39844 0.008,-0.0799 0.0165,-0.14658 0.0293,-0.22461 a 0.50005,0.50005 0 0 0 -0.65235,-0.55468 c -2.28857,0.76832 -3.87832,1.43189 -4.42383,1.72851 a 0.50005,0.50005 0 0 0 -0.008,0.004 c -0.0263,0.015 -0.13972,0.0217 -0.20703,-0.0195 -0.0706,-0.0433 -0.0967,-0.091 -0.0918,-0.17383 0.007,-0.11012 0.056,-0.18786 0.11524,-0.21875 0.56852,-0.29173 2.55946,-1.10505 5.10937,-1.9375 2.55109,-0.83283 5.69729,-1.70324 8.68555,-2.18164 1.43799,-0.23024 2.33057,-0.34115 2.85547,-0.33984 z m 10.45312,0.14453 c 1.26812,-0.13144 2.56805,0.0843 3.55469,0.67382 0.98664,0.58953 1.68579,1.52075 1.83789,2.98829 0.21643,2.08807 -0.85506,4.88658 -2.93164,7.35156 a 0.50005,0.50005 0 0 0 -0.002,0.002 c -1.10055,1.32629 -2.40516,2.37917 -3.75782,3.14649 -0.48546,-3.49316 -0.81106,-7.97522 -0.86914,-13.60938 0.70784,-0.26099 1.43074,-0.47632 2.16797,-0.55273 z m 61.84961,0.57226 c 1.55294,0.16047 2.59801,1.05385 3.22461,2.94922 a 0.50005,0.50005 0 0 0 0.002,0.01 c 0.53247,1.51188 0.73082,3.6823 0.5,5.91601 -0.29672,2.8716 -1.21274,6.04577 -2.39062,8.39844 -0.53553,1.06904 -1.1167,1.92711 -1.64258,2.48047 -0.52588,0.55335 -0.98509,0.74054 -1.1582,0.72265 -0.70752,-0.0731 -1.30488,-0.70786 -1.65625,-1.2539 a 0.50005,0.50005 0 0 0 0,-0.002 c -0.82429,-1.27357 -1.36573,-3.3516 -1.47266,-5.79102 v -0.002 c -0.10836,-2.68863 0.30344,-5.61464 1.22852,-8.40039 a 0.50005,0.50005 0 0 0 0,-0.002 c 0.20819,-0.64096 -0.14625,-1.34117 -0.78711,-1.55273 -0.32697,-0.11062 -0.66149,-0.0615 -0.94336,0.0937 0.16142,-0.26206 0.2651,-0.60341 0.43945,-0.8418 1.47945,-1.98849 3.11981,-2.88337 4.65625,-2.72461 z m 17.86524,0.41016 c -0.46584,-0.0157 -0.87383,0.23434 -1.08399,0.6289 a 0.50005,0.50005 0 0 0 -0.0156,0.0352 c -0.0239,0.0546 -0.0406,0.0987 -0.0625,0.15234 -0.65548,0.20522 -1.31876,0.42507 -1.97266,0.70899 -2.35615,0.97433 -4.1127,2.19867 -4.8457,2.69531 a 0.50005,0.50005 0 0 0 -0.008,0.006 c -0.0974,0.0692 -0.16374,0.11608 -0.22852,0.16211 l 0.0332,-0.0215 c -0.37359,0.22441 -0.59837,0.6468 -0.57617,1.08203 0.0219,0.42896 0.27336,0.82348 0.69727,1.01562 0.37159,0.19783 0.82052,0.17334 1.18554,-0.0684 0.12442,-0.0659 0.22328,-0.13443 0.28907,-0.18359 l 0.008,-0.004 c 1.68698,-1.15783 3.14086,-1.8001 4.5293,-2.36328 -0.39023,1.43609 -0.82615,3.07039 -1.25977,5.07422 a 0.50005,0.50005 0 0 0 -0.002,0.002 c -0.85128,4.01285 -1.84565,9.8611 -1.64258,14.9961 a 0.50005,0.50005 0 0 0 0,0.01 c 0.0379,0.64004 0.59327,1.16778 1.26367,1.13867 0.65349,-0.0284 1.20179,-0.58827 1.17383,-1.25781 v -0.002 c -0.0695,-1.7387 0.0519,-3.60822 0.22461,-5.47266 0.2986,0.17138 0.64654,0.24111 0.98242,0.11524 6.5e-4,-2.4e-4 10e-4,2.4e-4 0.002,0 2.31772,-0.84307 5.08609,-2.41972 7.28321,-4.20508 l -0.002,0.004 c 1.98874,-1.58746 4.49784,-4.07464 5.00196,-7.05274 0.30197,-1.78395 -0.11886,-3.4309 -1.25196,-4.6875 -1.02681,-1.14391 -2.55566,-1.91327 -4.41797,-2.22851 a 0.50005,0.50005 0 0 0 -0.008,0 c -1.54772,-0.23313 -3.11459,-0.19571 -4.65039,0.11132 -0.2068,-0.16337 -0.37099,-0.39149 -0.64648,-0.39062 z m -0.0371,0.98633 a 0.50005,0.50005 0 0 0 0.0449,0 c 0.1009,-0.003 0.13,0.0172 0.18555,0.125 a 0.50005,0.50005 0 0 0 0.54687,0.25976 c 1.44575,-0.30217 2.92888,-0.32553 4.4043,-0.10351 h 0.002 c 1.68352,0.28655 2.98807,0.96799 3.83203,1.9082 0.93201,1.03291 1.27105,2.30994 1.00977,3.85352 -0.42544,2.51333 -2.73699,4.91797 -4.64063,6.4375 a 0.50005,0.50005 0 0 0 -0.002,0.002 c -2.10155,1.7077 -4.82165,3.25069 -7.00195,4.04297 a 0.50005,0.50005 0 0 0 -0.006,0.002 c -0.11839,0.0446 -0.19483,0.0226 -0.2461,-0.12891 a 0.50005,0.50005 0 0 0 -0.006,-0.0156 c -0.0404,-0.1071 0.0224,-0.24723 0.12305,-0.28516 2.11958,-0.76306 4.7357,-2.23163 6.94336,-4.02734 2.21019,-1.79777 4.03688,-3.90595 4.4082,-6.09961 0.10985,-0.64894 0.16585,-1.75006 -0.42578,-2.82031 -0.59163,-1.07026 -1.83515,-2.03505 -4.07422,-2.41407 -1.25373,-0.21221 -2.86275,-0.24266 -4.82812,0.22071 a 0.50005,0.50005 0 0 0 -0.36328,0.33984 c -0.96346,3.13108 -3.71374,13.3917 -3.38672,21.56445 a 0.50005,0.50005 0 0 0 0,0.002 c 0.006,0.13433 -0.0662,0.21024 -0.2168,0.21679 -0.13434,0.006 -0.21618,-0.088 -0.22265,-0.19726 -0.19512,-4.97221 0.78065,-10.76699 1.62304,-14.73828 v -0.002 c 0.5213,-2.40875 1.09414,-4.61341 1.51563,-6.0996 a 0.50005,0.50005 0 0 0 -0.64844,-0.60743 c -1.6815,0.5937 -3.58596,1.52471 -5.68555,2.9668 a 0.50005,0.50005 0 0 0 -0.008,0.006 c -0.16389,0.11639 -0.31095,0.17278 -0.11523,0.11328 a 0.50005,0.50005 0 0 0 -0.14454,0.0703 c -0.0717,0.051 -0.15347,0.0406 -0.17968,0.0254 a 0.50005,0.50005 0 0 0 -0.0625,-0.0312 c -0.0295,-0.012 -0.0958,-0.0989 -0.0996,-0.17382 -0.004,-0.0828 0.0208,-0.13117 0.0918,-0.17383 a 0.50005,0.50005 0 0 0 0.0332,-0.0215 c 0.062,-0.0441 0.12665,-0.0903 0.21679,-0.15429 0.74936,-0.50772 2.42263,-1.6711 4.66797,-2.59961 a 0.50005,0.50005 0 0 0 0.008,-0.004 c 0.68357,-0.29728 1.39218,-0.53896 2.10351,-0.75586 a 0.50005,0.50005 0 0 0 0.3125,-0.27734 c 0.0493,-0.11245 0.0938,-0.22715 0.13086,-0.31446 0.0384,-0.0663 0.12968,-0.11306 0.16016,-0.11132 z m 2.98047,1.59179 c 0.73664,-0.0219 1.38545,0.0351 1.95117,0.13086 2.03205,0.34398 2.93033,1.12538 3.36523,1.91211 0.4349,0.78673 0.40179,1.65206 0.31446,2.16797 -0.29533,1.74465 -1.93712,3.77135 -4.05274,5.49219 -2.08301,1.69432 -4.5896,3.09584 -6.55664,3.81836 0.74243,-5.69182 2.11695,-11.00467 2.78906,-13.22266 0.79186,-0.16758 1.53921,-0.27949 2.18946,-0.29883 z m -124.74219,0.97266 c -2.65714,0.58564 -4.69619,2.35438 -5.67578,3.34961 a 0.50005,0.50005 0 0 0 -0.004,0.002 c -1.49778,1.5459 -2.52092,3.14476 -2.58203,4.51172 -0.0477,0.64214 0.45158,1.24013 1.12109,1.28125 0.67242,0.0413 1.2515,-0.46844 1.30469,-1.11914 a 0.50005,0.50005 0 0 0 0.002,-0.0176 c 0.009,-0.18518 0.20909,-0.74662 0.61133,-1.36328 0.24763,-0.37963 0.67179,-0.80288 1.04492,-1.2168 0.36864,3.13329 1.83825,11.55392 4.26954,17.61524 -0.3739,-0.15668 -0.57367,-0.36846 -0.57813,-0.38867 -0.14631,-0.66353 -0.82061,-1.05129 -1.46094,-0.91016 -0.64028,0.14118 -1.05714,0.79326 -0.91601,1.43359 0.29868,1.35511 1.921,2.93914 4.71093,2.32422 2.73799,-0.60347 5.83919,-2.62494 8.25391,-5.34375 2.67669,-3.01446 3.9449,-6.3197 3.32617,-9.12695 -0.32503,-1.47471 -1.10302,-2.66993 -2.3164,-3.42188 -1.7491,-1.14067 -4.23245,-1.29233 -7.32227,-0.61132 l -0.0137,0.004 -0.041,0.01 c -0.32867,0.0724 -0.6354,0.16796 -0.95312,0.25 1.04037,-1.71321 1.91232,-3.451 1.56445,-5.0293 -0.1978,-0.89746 -0.78437,-1.60272 -1.56836,-1.98828 -0.78399,-0.38556 -1.75241,-0.47004 -2.77734,-0.24414 z m 0.21484,0.97656 c 0.84302,-0.18581 1.5825,-0.10177 2.12305,0.16406 0.54055,0.26584 0.89606,0.69327 1.03125,1.30665 0.28312,1.28456 -0.71823,3.32781 -2.01563,5.32226 a 0.50005,0.50005 0 0 0 0.56446,0.75 c 0.66197,-0.20242 1.32956,-0.37659 2.03125,-0.53125 l 0.0547,-0.0137 0.0137,-0.002 c 2.94274,-0.64617 5.14121,-0.44618 6.55273,0.47656 a 0.50005,0.50005 0 0 0 0.01,0.006 c 0.98292,0.60681 1.59133,1.52365 1.87109,2.79297 0.51951,2.35706 -0.5591,5.3872 -3.09766,8.24609 -2.29305,2.58183 -5.29437,4.49647 -7.7207,5.03125 -2.37438,0.52332 -3.34595,-0.77496 -3.51953,-1.5625 -0.0284,-0.12882 0.0254,-0.21377 0.1543,-0.24219 0.12881,-0.0284 0.24624,0.0428 0.26953,0.14844 0.13843,0.62801 0.89649,1.46747 2.43945,1.32422 a 0.50005,0.50005 0 0 0 0.30078,-0.85938 c -0.0134,-0.0129 -0.0368,-0.0488 -0.0625,-0.0898 -2.64759,-6.2685 -4.39003,-16.76054 -4.58008,-18.98633 a 0.50005,0.50005 0 0 0 -0.83593,-0.32617 c -0.77348,0.71054 -1.40583,1.47069 -1.85938,2.16602 -0.45355,0.69532 -0.74708,1.29187 -0.77344,1.86328 l 0.002,-0.0176 c -0.009,0.11196 -0.10289,0.21204 -0.24805,0.20312 -0.14514,-0.009 -0.1971,-0.0917 -0.1875,-0.20898 a 0.50005,0.50005 0 0 0 0.002,-0.0195 c 0.0339,-0.83866 0.89657,-2.41516 2.30274,-3.86719 l 0.002,-0.002 c 0.90375,-0.91784 2.83464,-2.55628 5.17578,-3.07227 z m 1.25977,0.35742 c -0.55907,-0.0671 -1.04648,0.0401 -1.16602,0.0664 -1.23899,0.27307 -2.38637,0.8628 -3.37304,1.59375 a 0.50005,0.50005 0 0 0 0.0293,0.82422 c 0.0607,0.0387 0.088,0.0822 0.0977,0.18555 l -0.002,-0.0234 c 0.0201,0.44023 0.14265,1.38918 0.35937,2.74219 0.21672,1.353 0.52631,3.08052 0.91992,4.96484 0.78723,3.76863 1.90348,8.15544 3.28516,11.42969 a 0.50005,0.50005 0 0 0 0.0312,0.0605 c -0.0113,-0.019 0.006,-0.005 -0.0293,0.13477 l 0.26563,-0.23828 a 0.50005,0.50005 0 0 0 0.28906,0.85547 0.50005,0.50005 0 0 0 0.0723,-0.0664 l 0.0117,0.0469 c 2.34859,-0.76166 4.9941,-2.66005 6.97852,-4.97266 1.98442,-2.31261 3.34062,-5.06863 2.7832,-7.59766 -0.24534,-1.11315 -0.81068,-1.96457 -1.68554,-2.52343 -1.80875,-1.15542 -4.38181,-0.82649 -6.24415,-0.41602 l -0.0547,0.0117 c -1.93315,0.42608 -2.96371,0.89472 -3.4375,1.11523 a 0.50005,0.50005 0 0 0 -0.004,0.002 c -0.16354,0.0777 -0.28407,0.12581 -0.35742,0.13867 -0.0726,0.0127 -0.0985,0.0126 -0.18555,-0.0312 -0.0588,-0.0318 -0.12824,-0.12153 -0.14062,-0.17774 -0.0239,-0.10836 -0.0287,-0.12055 0.0644,-0.3164 0.0932,-0.19586 0.30025,-0.52018 0.63477,-1.02539 a 0.50005,0.50005 0 0 0 0.002,-0.002 c 0.41004,-0.62342 1.05716,-1.60519 1.57226,-2.61718 0.51511,-1.01199 0.95706,-2.02649 0.75196,-2.95703 -0.0874,-0.39669 -0.32351,-0.71639 -0.60352,-0.90625 -0.28001,-0.18987 -0.5857,-0.26726 -0.86523,-0.30079 z m -0.11914,0.99219 c 0.17535,0.021 0.32815,0.0718 0.42383,0.13672 0.0957,0.0649 0.15081,0.12653 0.1875,0.29297 0.0855,0.38801 -0.18811,1.3463 -0.66797,2.28906 -0.47987,0.94276 -1.10584,1.89846 -1.51563,2.52149 -0.33429,0.50485 -0.55741,0.83614 -0.70508,1.14648 -0.12749,0.26796 -0.14599,0.5577 -0.11718,0.82813 -0.19576,-1.03608 -0.42312,-2.1673 -0.55274,-2.97657 -0.21416,-1.33703 -0.33588,-2.32767 -0.34961,-2.6289 a 0.50005,0.50005 0 0 0 -0.002,-0.0234 c -0.01,-0.10537 -0.13074,-0.1786 -0.16797,-0.2832 0.81505,-0.55254 1.69394,-1.0446 2.63477,-1.25196 0.0728,-0.016 0.48131,-0.0928 0.83203,-0.0508 z m -16.98047,1.54883 c -0.89357,-0.0147 -1.78905,0.1133 -2.63281,0.35547 -3.44565,0.98894 -5.71407,3.34447 -7.01758,5.10547 a 0.50005,0.50005 0 0 0 -0.002,0.004 c -0.7365,1.01175 -1.28457,2.01227 -1.6582,2.85743 -0.37184,0.84111 -0.57501,1.48637 -0.60351,1.97265 -0.0533,0.66269 0.47583,1.25362 1.15625,1.26758 0.66389,0.0431 1.26254,-0.48522 1.26171,-1.17188 l -0.004,0.0703 c -0.001,0.0106 0.0315,-0.14934 0.0996,-0.35352 0.0681,-0.20418 0.17144,-0.47784 0.3164,-0.80078 0.28993,-0.64589 0.7467,-1.49004 1.41993,-2.38867 a 0.50005,0.50005 0 0 0 0.008,-0.01 c 0.4353,-0.6142 0.9918,-1.12632 1.54101,-1.64258 0.87744,4.51642 1.80449,8.30336 2.73243,11.33204 -0.53144,0.007 -1.07,-0.005 -1.57227,0.13867 -1.01954,0.29262 -1.70078,0.73855 -2.0957,1.28125 -0.39493,0.54269 -0.47227,1.17361 -0.32422,1.68945 0.23421,0.81603 0.92267,1.30791 1.66406,1.47461 0.74139,0.1667 1.56485,0.0804 2.3418,-0.14258 0.43142,-0.12382 0.85545,-0.31483 1.27734,-0.5 0.82978,2.18648 1.60966,4.00732 2.27344,5.26953 a 0.50005,0.50005 0 0 0 0.002,0.002 c 0.31822,0.59575 1.05682,0.83162 1.64453,0.50976 0.59467,-0.3204 0.83346,-1.05921 0.50782,-1.64648 -0.60157,-1.15522 -1.31812,-2.88999 -2.0625,-4.8711 0.23102,0.0843 0.45353,0.16004 0.68164,0.24414 a 0.50005,0.50005 0 0 0 0.006,0.002 c 1.95196,0.69558 3.89936,1.46667 5.72265,0.94336 0.62421,-0.17915 1.13332,-0.61426 1.53516,-1.06641 0.40184,-0.45215 0.69063,-0.88923 0.80273,-1.32422 a 0.50005,0.50005 0 0 0 0.008,-0.0332 c 0.11792,-0.63317 -0.25685,-1.27949 -0.91016,-1.44531 -0.63485,-0.16108 -1.28138,0.23512 -1.47656,0.84765 l 0.01,-0.0273 c 0.0116,-0.0305 -0.13867,0.21797 -0.30078,0.38867 -0.1621,0.1707 -0.39903,0.30771 -0.34766,0.29297 -0.89362,0.25648 -2.482,-0.24156 -4.21289,-0.88281 1.023,-1.04462 1.98766,-2.15542 2.72461,-3.41407 a 0.50005,0.50005 0 0 0 0.002,-0.002 c 1.88722,-3.28001 2.61011,-6.8587 1.81054,-9.64453 -0.62124,-2.16451 -2.04371,-3.53051 -3.71093,-4.18359 -0.83362,-0.32654 -1.72362,-0.4833 -2.61719,-0.49805 z m -0.0195,1.00195 c 0.78795,0.0129 1.56562,0.15047 2.27343,0.42774 1.41563,0.55452 2.57051,1.63819 3.11329,3.52929 0.69037,2.40537 0.0686,5.76749 -1.71485,8.86719 -0.82027,1.40065 -1.84286,2.68816 -3.02929,3.79492 a 0.50005,0.50005 0 0 0 0.17382,0.83594 c 0.23659,0.0839 0.42894,0.14675 0.64844,0.22461 l -0.006,-0.004 c 1.73866,0.6443 3.41094,1.31889 4.8418,0.90821 0.37582,-0.10787 0.57694,-0.33286 0.79687,-0.56446 0.21993,-0.23159 0.39603,-0.42731 0.50782,-0.7207 a 0.50005,0.50005 0 0 0 0.01,-0.0273 c 0.0512,-0.16053 0.15466,-0.21277 0.27735,-0.18164 0.10021,0.0254 0.17752,0.17326 0.16601,0.28125 -0.0352,0.11538 -0.25336,0.53227 -0.56836,0.88672 -0.32262,0.36301 -0.74038,0.67708 -1.0625,0.76953 -1.36713,0.39238 -3.15336,-0.22346 -5.11328,-0.92188 -0.48577,-0.17916 -1.01483,-0.38143 -1.51562,-0.54101 a 0.50005,0.50005 0 0 0 -0.4629,0.10351 0.50005,0.50005 0 0 0 -0.33398,0.64844 c 0.90584,2.53994 1.74341,4.43088 2.47266,5.83008 a 0.50005,0.50005 0 0 0 0.008,0.0117 c 0.0376,0.0678 0.005,0.22292 -0.10742,0.2832 a 0.50005,0.50005 0 0 0 -0.006,0.002 c -0.0678,0.0376 -0.22293,0.007 -0.28321,-0.10547 -0.69451,-1.32106 -1.51724,-3.17213 -2.42187,-5.61523 a 0.50005,0.50005 0 0 0 -0.69336,-0.27149 c -0.5068,0.25599 -1.06038,0.46885 -1.59766,0.62305 -0.65604,0.1883 -1.34357,0.24181 -1.8457,0.12891 -0.50213,-0.1129 -0.78941,-0.32066 -0.91992,-0.77539 -0.0692,-0.24121 -0.0543,-0.51418 0.16992,-0.82227 0.2242,-0.30809 0.68943,-0.65957 1.5625,-0.91015 0.58216,-0.16706 1.23921,-0.22131 1.87109,-0.16211 a 0.50005,0.50005 0 0 0 0.52344,-0.64844 c -1.03635,-3.307 -2.09147,-7.48949 -3.06836,-12.72266 a 0.50005,0.50005 0 0 0 -0.80468,-0.29883 c -0.89474,0.71514 -1.66289,1.54671 -2.3125,2.46289 -5.4e-4,7.5e-4 -0.001,10e-4 -0.002,0.002 -0.71768,0.96032 -1.20792,1.8635 -1.52344,2.5664 -0.1585,0.35311 -0.2722,0.65673 -0.35156,0.89454 -0.0794,0.2378 -0.12195,0.3835 -0.14258,0.53125 a 0.50005,0.50005 0 0 0 -0.006,0.0703 c 1.5e-4,0.12339 -0.0911,0.19097 -0.19726,0.18164 a 0.50005,0.50005 0 0 0 -0.043,-0.002 c -0.12339,1.4e-4 -0.19292,-0.0911 -0.18359,-0.19727 a 0.50005,0.50005 0 0 0 0.002,-0.0156 c 0.0109,-0.19688 0.17646,-0.85237 0.52148,-1.63281 0.34473,-0.77977 0.86092,-1.72378 1.55079,-2.67187 l 0.002,-0.002 c 1.22724,-1.65745 3.33601,-3.83215 6.48633,-4.73632 0.75144,-0.21568 1.54994,-0.32739 2.33789,-0.31446 z m -0.0703,0.42578 c -0.72105,-0.004 -1.44983,0.10614 -2.14843,0.30664 -0.91526,0.26269 -1.78357,0.66529 -2.58789,1.17188 a 0.50005,0.50005 0 0 0 -0.21289,0.56641 c 0.006,0.0213 -0.008,-0.11666 -0.008,-0.11914 a 0.50005,0.50005 0 0 0 0,0.18359 c 1.09202,5.84993 2.25701,10.42389 3.41016,13.92773 a 0.50005,0.50005 0 0 0 0.3457,0.32813 c 0.18681,0.0499 0.34842,0.0818 0.44727,0.12305 a 0.50005,0.50005 0 0 0 0.50195,-0.0684 c 1.38787,-1.09776 2.63371,-2.54599 3.59766,-4.24219 1.9e-4,-3.3e-4 0.002,3.3e-4 0.002,0 7.8e-4,-0.001 0.001,-0.003 0.002,-0.004 1.70972,-2.96133 2.38267,-6.10819 1.68946,-8.52344 -0.48539,-1.69117 -1.60881,-2.77484 -2.93946,-3.27929 -0.66532,-0.25223 -1.37855,-0.36757 -2.09961,-0.3711 z m -0.006,1.00196 c 0.61692,0.003 1.21459,0.10097 1.75195,0.30468 1.07471,0.40743 1.925,1.201 2.33203,2.61915 0.57913,2.01779 0.0146,4.9611 -1.59766,7.75195 l 0.4336,-0.25 a 0.50005,0.50005 0 0 0 -0.43555,0.2539 c -0.85089,1.49853 -1.94944,2.76138 -3.14648,3.75391 -1.08995,-3.35299 -2.19764,-7.70807 -3.24219,-13.24219 0.65133,-0.38125 1.32442,-0.72123 2.03711,-0.92578 0.61272,-0.17586 1.25026,-0.26858 1.86719,-0.26562 z m 22.93554,2.74609 c 0.98416,0.0119 1.91662,0.17861 2.58789,0.60742 0.66724,0.42624 1.04537,0.97884 1.24805,1.89844 0.44763,2.03095 -0.69298,4.54948 -2.56445,6.73047 -1.71362,1.99701 -3.98692,3.58254 -5.96485,4.37305 -1.32056,-3.15094 -2.4259,-7.46636 -3.20117,-11.17774 -0.13758,-0.65864 -0.20563,-1.12364 -0.32226,-1.73437 0.10187,0.33597 0.3012,0.62276 0.60351,0.77929 a 0.50005,0.50005 0 0 0 0.004,0.002 c 0.26739,0.13542 0.56497,0.16608 0.81054,0.12304 0.24395,-0.0427 0.43686,-0.13578 0.61133,-0.21875 l 0.004,-0.002 c 0.4672,-0.21744 1.37126,-0.63405 3.22656,-1.04297 l 0.0547,-0.0117 c 0.88184,-0.19436 1.91819,-0.33804 2.90234,-0.32617 z m 29.60938,1.14258 c -0.9529,0.0988 -1.3566,0.39497 -1.51172,0.58594 a 0.50005,0.50005 0 0 0 -0.0332,0.58398 c 0.12975,0.20384 0.25988,0.24999 0.39257,0.30859 0.1327,0.0586 0.27844,0.10309 0.44532,0.13672 0.33376,0.0673 0.74737,0.0936 1.21679,0.0449 0.59275,-0.0614 1.17922,-0.18389 1.75782,-0.36329 a 0.50005,0.50005 0 0 0 0.0293,-0.94531 c -0.75832,-0.28582 -1.52869,-0.43118 -2.29687,-0.35156 z m -73.51367,0.42383 c -0.39648,-0.0973 -0.82497,-0.10488 -1.26368,0.0488 -0.72896,0.25539 -1.25399,0.84917 -1.63086,1.56835 -0.37687,0.71919 -0.62411,1.58432 -0.79687,2.50977 -0.34553,1.8509 -0.38542,3.94565 -0.35742,5.48828 a 0.50005,0.50005 0 0 0 0,0.002 c 0.026,1.16673 0.10483,2.38093 0.22656,3.61719 -0.89769,0.39926 -1.72419,0.78885 -2.24023,1.04883 a 0.50005,0.50005 0 0 0 -0.01,0.006 c -0.56117,0.29905 -0.77845,0.98532 -0.5293,1.55273 0.25395,0.58509 0.92312,0.88132 1.50977,0.67579 0.0355,-0.0121 0.0851,-0.0293 0.10742,-0.0371 a 0.50005,0.50005 0 0 0 0.0684,-0.0293 c 0.34489,-0.18214 0.89985,-0.44069 1.42969,-0.68945 0.48648,3.44321 1.2369,6.81956 2.31445,10.13671 a 0.50005,0.50005 0 0 0 0.004,0.0117 c 0.21679,0.61885 0.91072,0.93926 1.53711,0.76563 a 0.50005,0.50005 0 0 0 0.0312,-0.0117 c 0.6413,-0.22468 0.93237,-0.92236 0.76562,-1.53516 a 0.50005,0.50005 0 0 0 -0.008,-0.0254 c -1.11344,-3.34068 -1.87589,-6.83241 -2.33594,-10.35547 2.31523,-0.96272 4.94552,-1.95634 6.85156,-2.58593 1.23322,2.65573 2.50626,5.62299 3.65821,8.66797 0.2226,0.63539 0.9387,0.97847 1.57617,0.71484 0.62672,-0.23293 0.92728,-0.93493 0.71289,-1.54688 a 0.50005,0.50005 0 0 0 -0.006,-0.0117 c -1.13984,-3.01019 -2.37886,-5.94876 -3.60938,-8.59961 0.44411,-0.23283 0.77048,-0.65016 0.67579,-1.17579 -0.0942,-0.65502 -0.71621,-1.10874 -1.35938,-1.02734 l 0.0156,0.0137 a 0.50005,0.50005 0 0 0 -0.0371,-0.01 c -0.0881,0.0153 -0.20756,0.0436 -0.3125,0.0664 -0.52997,-1.0539 -1.04714,-2.06869 -1.54493,-2.94922 v -0.002 c -1.1248,-2.00964 -2.15334,-3.58106 -3.08398,-4.63086 a 0.50005,0.50005 0 0 0 -0.006,-0.006 c -0.2087,-0.22771 -0.67007,-0.75501 -1.28516,-1.17187 -0.30754,-0.20843 -0.67188,-0.39682 -1.06835,-0.49414 z m -0.9336,0.99218 c 0.47648,-0.16693 0.96207,0.003 1.44141,0.32813 0.47933,0.32486 0.88189,0.77542 1.10742,1.02148 0.84258,0.95148 1.8503,2.47716 2.95508,4.45118 a 0.50005,0.50005 0 0 0 0.002,0.002 c 0.54082,0.95655 1.10596,2.06245 1.70117,3.25195 a 0.50005,0.50005 0 0 0 0.56055,0.26367 c 0.23982,-0.0552 0.47107,-0.10886 0.61523,-0.13476 0.14952,-0.0189 0.23311,0.0443 0.25,0.17773 a 0.50005,0.50005 0 0 0 0.006,0.0332 c 0.0196,0.0992 -0.053,0.20051 -0.18164,0.21679 a 0.50005,0.50005 0 0 0 -0.10351,0.0254 c 0.10459,-0.0366 -0.0359,-0.0179 -0.22071,0.0469 a 0.50005,0.50005 0 0 0 -0.28711,0.68555 c 1.27848,2.71968 2.57322,5.82572 3.76368,8.96875 0.0436,0.12448 -0.0132,0.24941 -0.11524,0.28515 a 0.50005,0.50005 0 0 0 -0.0332,0.0137 c -0.0828,0.0358 -0.21621,-0.0269 -0.25195,-0.1289 a 0.50005,0.50005 0 0 0 -0.004,-0.0117 c -1.21915,-3.22361 -2.57083,-6.39878 -3.87305,-9.17578 a 0.50005,0.50005 0 0 0 -0.60547,-0.26367 c -2.06165,0.66193 -5.16756,1.84166 -7.72656,2.91796 a 0.50005,0.50005 0 0 0 -0.30273,0.52149 c 0.45914,3.70652 1.26581,7.38247 2.4375,10.9043 0.0382,0.14024 -0.031,0.26319 -0.12305,0.30859 -0.16166,0.0335 -0.26007,-0.007 -0.30078,-0.12109 -5e-5,-1.7e-4 -0.002,1.6e-4 -0.002,0 -1.12757,-3.4732 -1.92129,-7.00367 -2.39063,-10.61915 a 0.50005,0.50005 0 0 0 -0.70312,-0.38867 c -0.80971,0.3718 -1.50947,0.70446 -2.02735,0.97657 -0.0273,0.01 -0.0603,0.0194 -0.0723,0.0234 a 0.50005,0.50005 0 0 0 -0.004,0.002 c -0.10311,0.0361 -0.20171,0.008 -0.26172,-0.13086 a 0.50005,0.50005 0 0 0 -0.002,-0.004 c -0.0455,-0.10354 -0.007,-0.21807 0.084,-0.26758 6.1e-4,-3.3e-4 -6e-4,-0.002 0,-0.002 0.57565,-0.28987 1.4525,-0.71351 2.49805,-1.16797 a 0.50005,0.50005 0 0 0 0.29883,-0.51172 c -0.14319,-1.33218 -0.21604,-2.63358 -0.24414,-3.89258 v -0.002 c -2e-5,-6.3e-4 1e-5,-10e-4 0,-0.002 -0.0272,-1.50762 0.0173,-3.55558 0.33984,-5.28321 0.16138,-0.86444 0.39395,-1.64597 0.69922,-2.22851 0.30527,-0.58255 0.66362,-0.94531 1.07617,-1.08985 z m 0.39258,0.37696 c -0.0959,-0.003 -0.13858,-0.003 -0.24414,0.0332 a 0.50005,0.50005 0 0 0 -0.004,0 c -0.36725,0.12867 -0.58982,0.41643 -0.80078,0.79688 -0.21095,0.38044 -0.39787,0.88108 -0.55664,1.5332 -0.31742,1.3038 -0.52025,3.20852 -0.45312,5.85351 0.0259,1.10728 0.0976,2.25723 0.20507,3.42188 a 0.50005,0.50005 0 0 0 0.69336,0.41406 c 2.37331,-1.00932 5.18115,-2.08224 7.16602,-2.71875 a 0.50005,0.50005 0 0 0 0.29687,-0.69531 c -0.52762,-1.07718 -1.06291,-2.08934 -1.56836,-3.01953 a 0.50005,0.50005 0 0 0 -0.002,-0.006 c -1.60593,-2.86663 -2.71205,-4.24409 -3.47461,-4.93555 -0.38128,-0.34572 -0.68023,-0.5222 -0.92773,-0.60937 -0.12375,-0.0436 -0.23416,-0.0649 -0.33008,-0.0684 z m 0.0371,1.03711 c 0.088,0.0347 0.25888,0.11618 0.55078,0.38086 0.6244,0.56617 1.695,1.86953 3.27148,4.68359 0.41832,0.76993 0.8564,1.62105 1.29102,2.48828 -1.78978,0.59548 -3.99116,1.43868 -6.04687,2.29492 -0.0732,-0.9123 -0.14185,-1.8243 -0.16211,-2.6914 -0.0657,-2.58259 0.1384,-4.41339 0.42578,-5.59375 0.14368,-0.59018 0.30839,-1.0171 0.45703,-1.28516 0.12272,-0.22132 0.19486,-0.25839 0.21289,-0.27734 z m 156.13672,1.13086 c 0.001,0.003 0.005,0.005 0.006,0.008 9.7e-4,0.003 -9.9e-4,0.005 0,0.008 z m -176.76172,4.96093 c -0.84353,-0.22751 -1.81113,-0.12396 -2.77344,0.29493 -2.49481,1.08595 -4.15598,3.2138 -4.92578,4.3789 a 0.50005,0.50005 0 0 0 -0.002,0.004 c -1.17245,1.80534 -1.86728,3.57061 -1.66407,4.92383 0.0762,0.63975 0.67848,1.12952 1.34375,1.04101 0.66785,-0.0888 1.13941,-0.69888 1.06641,-1.34765 a 0.50005,0.50005 0 0 0 -0.002,-0.0176 c -0.0273,-0.18336 0.0599,-0.7745 0.33594,-1.45703 0.1699,-0.42005 0.50657,-0.91672 0.79296,-1.39453 0.96469,3.00394 4.02635,10.98277 7.57813,16.46289 -0.39674,-0.0819 -0.63237,-0.25058 -0.64063,-0.26954 -0.2712,-0.62306 -1.00814,-0.87302 -1.60937,-0.61132 -0.60121,0.26171 -0.88476,0.98275 -0.62305,1.58398 0.55382,1.27232 2.45081,2.51523 5.07031,1.375 2.57073,-1.119 5.22383,-3.69942 7.07032,-6.83203 2.04668,-3.47314 2.65707,-6.96191 1.50976,-9.59766 -0.60328,-1.38593 -1.59823,-2.41014 -2.93554,-2.91406 -1.9354,-0.78112 -4.39942,-0.45151 -7.29883,0.81055 v 0.002 l -0.0527,0.0215 c -0.30822,0.13416 -0.59107,0.28629 -0.88672,0.42773 0.69091,-1.88073 1.21123,-3.753 0.56641,-5.23438 -0.36679,-0.84263 -1.07639,-1.42287 -1.91992,-1.65039 z m -0.25977,0.9668 c 0.58161,0.15687 1.01299,0.50613 1.26368,1.08203 0.52499,1.20608 -0.0637,3.40257 -0.95313,5.60938 a 0.50005,0.50005 0 0 0 0.69922,0.6289 c 0.61065,-0.32601 1.23179,-0.62729 1.89062,-0.91406 l 0.0508,-0.0215 c 2.77039,-1.20591 4.96773,-1.43387 6.5332,-0.79883 a 0.50005,0.50005 0 0 0 0.0117,0.004 c 1.0813,0.40635 1.85428,1.18909 2.37304,2.38086 0.96332,2.21307 0.48794,5.39555 -1.45312,8.68946 -1.75345,2.97478 -4.32933,5.43025 -6.60742,6.42187 -2.22934,0.97039 -3.434,-0.118 -3.75586,-0.85742 -0.0526,-0.12093 -0.0155,-0.21493 0.10547,-0.26758 0.12093,-0.0526 0.24983,-0.003 0.29297,0.0957 0.25667,0.58966 1.16187,1.26557 2.64843,0.82812 a 0.50005,0.50005 0 0 0 0.13086,-0.89844 c -0.0152,-0.01 -0.0441,-0.0421 -0.0762,-0.0762 -3.80457,-5.64169 -7.53559,-15.60413 -8.15039,-17.75195 a 0.50005,0.50005 0 0 0 -0.88281,-0.15821 c -0.62232,0.84608 -1.09691,1.71283 -1.40821,2.48243 -0.31129,0.7696 -0.48448,1.4127 -0.40039,1.97851 l -0.002,-0.0176 c 0.0126,0.11163 -0.059,0.22693 -0.20312,0.2461 -0.14415,0.0192 -0.21144,-0.0529 -0.22461,-0.16992 a 0.50005,0.50005 0 0 0 -0.002,-0.0195 c -0.12817,-0.82991 0.41596,-2.54395 1.51758,-4.24023 0.71057,-1.07479 2.29079,-3.05518 4.48828,-4.01172 0.79152,-0.34454 1.53168,-0.40101 2.11328,-0.24414 z m -0.80859,0.35352 c -0.56152,0.0418 -1.02062,0.24021 -1.13281,0.28906 -1.16329,0.50636 -2.17435,1.30771 -3.00196,2.21484 a 0.50005,0.50005 0 0 0 0.1875,0.80078 c 0.067,0.0264 0.10162,0.0666 0.13086,0.16602 l -0.006,-0.0234 c 0.1044,0.42814 0.40592,1.33507 0.87891,2.6211 0.47299,1.28602 1.11056,2.92193 1.85938,4.69531 1.49762,3.54675 3.43602,7.63675 5.42187,10.58398 a 0.50005,0.50005 0 0 0 0.043,0.0547 c -0.0146,-0.0163 0.004,-0.007 -0.004,0.13672 a 0.50005,0.50005 0 0 0 0.0352,0.21289 0.50005,0.50005 0 0 0 0.70703,0.25195 c 2.15815,-1.1993 4.3902,-3.57144 5.89258,-6.22265 1.50238,-2.65121 2.30117,-5.61766 1.26758,-7.99219 -0.45494,-1.04516 -1.17262,-1.77224 -2.13868,-2.15234 -1.99724,-0.78582 -4.45847,0.0319 -6.20703,0.79296 l -0.0508,0.0215 a 0.50005,0.50005 0 0 0 -0.002,0 c -1.81505,0.79006 -2.73569,1.4483 -3.1582,1.75586 a 0.50005,0.50005 0 0 0 -0.002,0.004 c -0.14551,0.10777 -0.25472,0.17641 -0.32422,0.20313 -0.0681,0.0262 -0.096,0.0312 -0.1875,0.006 -0.0638,-0.0198 -0.15083,-0.0937 -0.17382,-0.14649 -0.0443,-0.10174 -0.0518,-0.11214 0.002,-0.32226 0.0538,-0.21013 0.19667,-0.56877 0.42773,-1.12891 a 0.50005,0.50005 0 0 0 0,-0.002 c 0.28244,-0.69067 0.7283,-1.7789 1.03907,-2.87109 0.31076,-1.0922 0.55022,-2.17319 0.16992,-3.04688 -0.16212,-0.37245 -0.45627,-0.64099 -0.76758,-0.77344 -0.31131,-0.13244 -0.62549,-0.14978 -0.90625,-0.1289 z m 0.0742,0.99804 c 0.17613,-0.0131 0.33503,0.006 0.4414,0.0508 0.10638,0.0453 0.17417,0.0957 0.24219,0.25196 0.15858,0.3643 0.0727,1.35752 -0.21679,2.375 -0.28951,1.01747 -0.7197,2.07539 -1.00196,2.76562 -0.23115,0.56035 -0.38546,0.92855 -0.4707,1.26172 -0.0735,0.28723 -0.0371,0.57432 0.043,0.83399 -0.39126,-0.97861 -0.83244,-2.04556 -1.11524,-2.81446 -0.46741,-1.27084 -0.77622,-2.21875 -0.84765,-2.51172 a 0.50005,0.50005 0 0 0 -0.006,-0.0234 c -0.0299,-0.10153 -0.16211,-0.15062 -0.21875,-0.2461 0.69338,-0.69877 1.46064,-1.34997 2.34375,-1.73437 0.0683,-0.0298 0.45438,-0.18279 0.80664,-0.20899 z m 40.95117,0.5 c -0.79664,-0.14839 -1.58187,-0.15642 -2.32422,0.0566 -0.92084,0.26429 -1.26501,0.62531 -1.38476,0.8418 a 0.50005,0.50005 0 0 0 0.0703,0.58008 c 0.16346,0.17794 0.29853,0.20189 0.43945,0.23633 0.14092,0.0344 0.2927,0.0508 0.46289,0.0547 0.34039,0.008 0.75341,-0.0397 1.20703,-0.16992 0.57278,-0.1644 1.12978,-0.38598 1.66797,-0.66406 a 0.50005,0.50005 0 0 0 -0.13867,-0.93555 z m -11.07812,0.25586 -0.10157,0.0234 c 0.002,-3.1e-4 0.003,-0.004 0.006,-0.004 0.035,-0.006 0.004,0.0124 0.0957,-0.0195 z m -22.83008,4.71289 c 0.96805,-0.17771 1.91501,-0.19203 2.65625,0.0996 0.73679,0.2899 1.21401,0.75963 1.58984,1.62305 0.83003,1.90688 0.19617,4.59734 -1.2207,7.09766 -1.29734,2.28937 -3.22288,4.28313 -5.01172,5.43945 -1.90224,-2.838 -3.81803,-6.85852 -5.29297,-10.35156 -0.26176,-0.61992 -0.41841,-1.0637 -0.65039,-1.64063 0.16466,0.30964 0.41565,0.5511 0.74219,0.64649 a 0.50005,0.50005 0 0 0 0.004,0.002 c 0.28844,0.0814 0.5876,0.0543 0.82032,-0.0352 0.23176,-0.0891 0.403,-0.21679 0.55859,-0.33203 l 0.002,-0.002 c 0.41645,-0.30314 1.22398,-0.88591 2.9668,-1.64453 l 0.0508,-0.0215 a 0.50005,0.50005 0 0 0 0,-0.002 c 0.82797,-0.3604 1.81711,-0.70119 2.78516,-0.87891 z m -1.80469,14.9043 0.0293,0.01 0.0351,0.21093 c 0.003,-0.06 -0.0607,-0.14897 -0.0644,-0.2207 z"
           id="path19" />
      </g>
    </g>
  </g>
</svg>
