<?xml version="1.0" encoding="UTF-8" standalone="no"?>
<!-- Created with Inkscape (http://www.inkscape.org/) -->

<svg
   width="500mm"
   height="500mm"
   viewBox="0 0 500 500"
   version="1.1"
   id="svg1"
   inkscape:version="1.3.2 (091e20e, 2023-11-25)"
   sodipodi:docname="hot-balloon.svg"
   inkscape:export-filename="hot-balloon.jpg"
   inkscape:export-xdpi="96"
   inkscape:export-ydpi="96"
   xmlns:inkscape="http://www.inkscape.org/namespaces/inkscape"
   xmlns:sodipodi="http://sodipodi.sourceforge.net/DTD/sodipodi-0.dtd"
   xmlns:xlink="http://www.w3.org/1999/xlink"
   xmlns="http://www.w3.org/2000/svg"
   xmlns:svg="http://www.w3.org/2000/svg">
  <sodipodi:namedview
     id="namedview1"
     pagecolor="#ffffff"
     bordercolor="#000000"
     borderopacity="0.25"
     inkscape:showpageshadow="2"
     inkscape:pageopacity="0.0"
     inkscape:pagecheckerboard="0"
     inkscape:deskcolor="#d1d1d1"
     inkscape:document-units="mm"
     showgrid="false"
     inkscape:zoom="0.25982083"
     inkscape:cx="946.80629"
     inkscape:cy="944.88189"
     inkscape:window-width="1356"
     inkscape:window-height="697"
     inkscape:window-x="0"
     inkscape:window-y="0"
     inkscape:window-maximized="1"
     inkscape:current-layer="layer1" />
  <defs
     id="defs1">
    <linearGradient
       id="linearGradient82"
       inkscape:collect="always">
      <stop
         style="stop-color:#7e00ff;stop-opacity:1;"
         offset="0"
         id="stop82" />
      <stop
         style="stop-color:#6000ff;stop-opacity:1;"
         offset="1"
         id="stop83" />
    </linearGradient>
    <linearGradient
       inkscape:collect="always"
       xlink:href="#linearGradient82"
       id="linearGradient83"
       x1="246.89452"
       y1="500.49045"
       x2="254.15515"
       y2="0.81713766"
       gradientUnits="userSpaceOnUse" />
  </defs>
  <g
     inkscape:label="Layer 1"
     inkscape:groupmode="layer"
     id="layer1">
    <rect
       style="fill:url(#linearGradient83);stroke-linecap:round;stroke-width:7.55905512;stroke-linejoin:round;fill-opacity:1;stroke:none;stroke-opacity:1;stroke-dasharray:none"
       id="rect11"
       width="509.95203"
       height="509.16296"
       x="-6.4054127"
       y="-5.6144729" />
    <path
       id="path2"
       style="fill:none;fill-opacity:1;stroke:#ffffff;stroke-width:3;stroke-linecap:round;stroke-linejoin:round;stroke-dasharray:none;stroke-opacity:1"
       d="m 249.78106,77.6591 c -66.05578,-2.8e-5 -119.60459,45.91773 -119.60458,102.56015 0.0198,19.89642 6.78817,39.35834 19.48046,56.01415 l 81.05965,125.11071 h 25.59276 l 0.0267,-0.008 12.8397,-0.2031 82.30143,-127.02739 -0.0811,-0.004 c 11.71445,-16.18021 17.94361,-34.83779 17.9896,-53.8825 1e-5,-56.64243 -53.5488,-102.560183 -119.60459,-102.56015 z"
       sodipodi:nodetypes="ccccccccccc" />
    <g
       id="g10"
       transform="translate(-3.0406429,23.133746)">
      <rect
         style="fill:#fbfbfb;fill-opacity:1;stroke:none;stroke-width:1;stroke-linecap:round;stroke-linejoin:round;stroke-dasharray:none;stroke-opacity:1"
         id="rect4"
         width="27.545801"
         height="2.8587165"
         x="-328.30008"
         y="311.4321"
         transform="rotate(-82.658927)" />
      <rect
         style="fill:#fbfbfb;fill-opacity:1;stroke:none;stroke-width:5;stroke-linecap:round;stroke-linejoin:round;stroke-dasharray:none;stroke-opacity:1"
         id="rect5"
         width="27.545801"
         height="2.8587165"
         x="-393.10721"
         y="-190.36111"
         transform="matrix(-0.12777562,-0.9918031,-0.9918031,0.12777562,0,0)" />
      <rect
         style="fill:#fbfbfb;fill-opacity:1;stroke:none;stroke-width:0.0249863;stroke-linecap:round;stroke-linejoin:round;stroke-dasharray:none;stroke-opacity:1"
         id="rect6"
         width="33.48344"
         height="2.8587275"
         x="-267.98203"
         y="-367.12119"
         transform="matrix(-0.99999462,0.00328143,-0.00484856,-0.99998825,0,0)" />
    </g>
    <path
       style="fill:none;fill-opacity:1;stroke:#ffffff;stroke-width:3;stroke-linecap:round;stroke-linejoin:round;stroke-dasharray:none;stroke-opacity:1"
       d="M 264.30616,359.75125 C 307.65235,277.15766 434.50118,138.6683 251.34213,77.742348"
       id="path58"
       sodipodi:nodetypes="cc" />
    <path
       style="fill:none;fill-opacity:1;stroke:#ffffff;stroke-width:3;stroke-linecap:round;stroke-linejoin:round;stroke-dasharray:none;stroke-opacity:1"
       d="m 256.45932,360.48094 c 0.87125,0.93491 138.15465,-213.09262 -7.18752,-282.647011"
       id="path59"
       sodipodi:nodetypes="cc" />
    <path
       style="fill:none;fill-opacity:1;stroke:#ffffff;stroke-width:3;stroke-linecap:round;stroke-linejoin:round;stroke-dasharray:none;stroke-opacity:1"
       d="m 253.49401,360.74598 c -0.46587,-0.0223 46.50939,-204.95393 -3.25062,-282.35119"
       id="path60"
       sodipodi:nodetypes="cc" />
    <path
       style="fill:none;fill-opacity:1;stroke:#ffffff;stroke-width:3;stroke-linecap:round;stroke-linejoin:round;stroke-dasharray:none;stroke-opacity:1"
       d="m 245.4633,360.07697 c -0.87125,0.93491 -138.97641,-212.68865 6.36576,-282.243041"
       id="path64"
       sodipodi:nodetypes="cc" />
    <path
       style="fill:none;fill-opacity:1;stroke:#ffffff;stroke-width:3;stroke-linecap:round;stroke-linejoin:round;stroke-dasharray:none;stroke-opacity:1"
       d="m 247.23409,360.41674 c 0.46587,-0.0223 -46.13663,-204.62469 3.62338,-282.02195"
       id="path65"
       sodipodi:nodetypes="cc" />
    <path
       style="fill:#ffffff;fill-opacity:1;stroke:none;stroke-width:2.16328;stroke-linecap:round;stroke-linejoin:round;stroke-dasharray:none;stroke-opacity:1"
       d="m 233.16803,389.04063 h 33.50156 l -3.45048,21.38499 h -26.89049 z"
       id="path83" />
    <path
       id="path84"
       style="fill:none;fill-opacity:1;stroke:#ffffff;stroke-width:3;stroke-linecap:round;stroke-linejoin:round;stroke-dasharray:none;stroke-opacity:1"
       d="m 249.78106,77.6591 c -66.05578,-2.8e-5 -119.60459,45.91773 -119.60458,102.56015 0.0198,19.89642 6.78817,39.35834 19.48046,56.01415 l 81.05965,125.11071 h 25.59276 l 0.0267,-0.008 12.8397,-0.2031 82.30143,-127.02739 -0.0811,-0.004 c 11.71445,-16.18021 17.94361,-34.83779 17.9896,-53.8825 1e-5,-56.64243 -53.5488,-102.560183 -119.60459,-102.56015 z"
       sodipodi:nodetypes="ccccccccccc" />
    <path
       style="fill:none;fill-opacity:1;stroke:#ffffff;stroke-width:3;stroke-linecap:round;stroke-linejoin:round;stroke-dasharray:none;stroke-opacity:1"
       d="M 236.75486,359.75125 C 193.16706,277.06916 65.703043,138.72292 249.71889,77.742348"
       id="path85"
       sodipodi:nodetypes="cc" />
  </g>
</svg>
