<?xml version="1.0" encoding="UTF-8" standalone="no"?>
<!-- Created with Inkscape (http://www.inkscape.org/) -->

<svg
   width="500mm"
   height="500mm"
   viewBox="0 0 500 500"
   version="1.1"
   id="svg1"
   inkscape:version="1.3.2 (091e20e, 2023-11-25)"
   xml:space="preserve"
   sodipodi:docname="Kangaroo Logo.svg"
   xmlns:inkscape="http://www.inkscape.org/namespaces/inkscape"
   xmlns:sodipodi="http://sodipodi.sourceforge.net/DTD/sodipodi-0.dtd"
   xmlns="http://www.w3.org/2000/svg"
   xmlns:svg="http://www.w3.org/2000/svg"><sodipodi:namedview
     id="namedview1"
     pagecolor="#ffffff"
     bordercolor="#000000"
     borderopacity="0.25"
     inkscape:showpageshadow="2"
     inkscape:pageopacity="0.0"
     inkscape:pagecheckerboard="0"
     inkscape:deskcolor="#d1d1d1"
     inkscape:document-units="mm"
     showgrid="false"
     inkscape:zoom="0.25982083"
     inkscape:cx="944.88189"
     inkscape:cy="944.88189"
     inkscape:window-width="1356"
     inkscape:window-height="697"
     inkscape:window-x="0"
     inkscape:window-y="0"
     inkscape:window-maximized="1"
     inkscape:current-layer="layer1" /><defs
     id="defs1" /><g
     inkscape:label="Layer 1"
     inkscape:groupmode="layer"
     id="layer1"><g
       id="g11"
       transform="translate(0,-0.21044488)"><g
         id="g6"
         transform="matrix(1.1886069,0,0,1.1886069,-47.754416,-50.954964)"><path
           style="fill:#e5954d;fill-opacity:1;stroke:none;stroke-width:30;stroke-linecap:round;stroke-linejoin:round;stroke-dasharray:none;stroke-opacity:1"
           d="m 206.22208,199.5127 c 0,0 5.03549,-0.24524 4.74131,6.90862 0.24142,1.99665 0.5968,10.41013 0.5968,10.41013 0,0 -2.77929,9.26763 -0.96937,18.39159 -0.38451,4.01159 0.46884,13.58297 0.46884,13.58297 0,0 1.61575,1.4423 2.65427,0.33581 0.16516,-0.0601 2.12527,-0.15975 2.24159,-2.01094 0.11632,-1.85118 0.20331,-9.91685 0.20331,-9.91685 0,0 0.89118,-2.66512 -0.0744,-5.55516 -0.29727,-3.25366 -1.23828,-10.88262 0.39369,-15.04426 1.63197,-4.16164 4.36025,-15.9034 3.50944,-20.08838 -0.8508,-4.18497 -16.30476,-2.45308 -16.30476,-2.45308 l 0.19437,4.73973 z"
           id="path2" /><path
           id="path5"
           style="fill:#e5954d;fill-opacity:1;stroke:none;stroke-width:30;stroke-linecap:round;stroke-linejoin:round;stroke-dasharray:none;stroke-opacity:1"
           d="m 275.97183,193.38526 c -18.6553,-22.40814 -31.80111,-3.36482 -35.15459,1.92774 0.0679,-0.0378 0.15941,-0.0629 0.22428,-0.10232 1.77597,4.50853 3.01273,8.292 3.01273,8.292 0,0 4.06367,10.84734 14.58774,27.60452 0.0262,0.18272 7.12604,15.50921 11.04067,31.48748 -0.12319,1.77922 -0.17053,2.1115 -0.17053,2.1115 0,0 2.09402,3.56915 -1.62057,6.83524 -3.7146,3.2661 -20.67419,19.28255 -20.67419,19.28255 l -7.18406,6.6492 c 0,0 -3.73384,0.68191 -3.59306,2.15233 0.14077,1.4704 0.2616,5.91721 6.15466,2.50372 5.89306,-3.4135 6.75928,-4.50877 6.75928,-4.50877 0,0 4.22993,-0.30258 8.84597,-5.27978 4.61605,-4.97724 11.28154,-11.06322 21.51962,-17.42013 3.69134,-4.21298 8.27019,-8.0235 7.23935,-11.23342 -1.03087,-3.20993 -2.06086,-2.9192 -2.06086,-2.9192 l -11.914,-29.22819 c 0,0 -12.14778,-28.17121 2.98756,-38.15447 z"
           sodipodi:nodetypes="cccccccsccsscscsccc" /><path
           style="fill:#ff9433;fill-opacity:1;stroke:none;stroke-width:30;stroke-linecap:round;stroke-linejoin:round;stroke-dasharray:none;stroke-opacity:1"
           d="m 167.16726,139.79743 c -3.9522,0.95924 -7.36934,2.76161 -10.44875,5.09616 0,0 -5.36455,4.89437 -4.70407,5.98928 -5.31979,3.81496 -10.37098,8.10899 -10.37098,8.10899 0,0 -4.16959,3.25655 -1.11673,6.41362 0.0631,1.71899 0.83691,4.14826 3.51756,3.13807 0.65365,1.25291 3.27463,1.33548 4.50076,0.45355 2.11836,0.0788 5.00074,-0.0729 6.86,-1.22749 2.44621,-0.17334 10.74662,-1.40717 13.1019,0.0982 2.35528,1.5054 12.46136,22.38033 12.46136,22.38033 0,0 2.79866,4.29283 6.73856,3.79241 1.65531,0.49385 7.7784,5.42995 7.7784,5.42995 0,0 1.08017,5.66731 4.34914,9.18128 0.9327,4.7569 6.62944,24.3438 6.62944,24.3438 0,0 1.19833,3.07078 2.17245,4.0644 -0.29333,0.82113 0.33047,2.86716 0.33047,2.86716 0,0 0.53276,0.91503 1.3293,1.09953 0.79654,0.18449 4.1349,3.93628 6.53148,4.03373 2.26641,-0.29319 3.71123,-0.90726 3.71123,-0.90726 0,0 -2.81379,0.5909 -3.61092,-0.0262 -0.79712,-0.61698 -0.12666,-0.86474 -0.12666,-0.86474 0,0 1.96549,0.30387 3.04576,-0.59399 0.0531,-0.0409 -1.36864,0.21273 -2.16456,-0.20426 0.0656,-0.0214 2.55505,-0.5004 2.81162,-0.89471 0.0802,0.0456 -2.07965,0.21899 -2.85874,-0.39545 -0.77909,-0.61444 -0.38752,-1.45129 -0.38752,-1.45129 0,0 -0.43883,-0.85087 -0.31223,-0.90996 0.1266,-0.0591 2.01523,-0.69183 1.96532,-1.73945 0.0885,-0.0842 -1.38612,1.04574 -2.80064,0.62574 -0.0953,-0.0841 -0.0902,-4.1734 -4.50527,-5.64742 -1.27952,-2.43152 -5.54469,-21.6301 -5.54469,-21.6301 0,0 1.71563,-9.18296 -0.26006,-13.13486 5.81418,0.33403 14.10245,0.6234 17.70111,-1.56397 1.77597,4.50853 3.01292,8.29192 3.01292,8.29192 0,0 4.0633,10.84754 14.58738,27.60473 0.0262,0.18272 7.12619,15.5089 11.04083,31.48719 -0.12319,1.77922 -0.17033,2.11183 -0.17033,2.11183 0,0 2.09376,3.56901 -1.62084,6.83511 -3.7146,3.2661 -20.67405,19.28254 -20.67405,19.28254 l -7.18405,6.64932 c 0,0 -3.73394,0.6817 -3.59316,2.15212 0.14077,1.4704 0.26181,5.91746 6.15488,2.50397 5.89306,-3.4135 6.75893,-4.50914 6.75893,-4.50914 0,0 4.23018,-0.30215 8.84623,-5.27936 4.61605,-4.97724 11.28115,-11.06339 21.51924,-17.4203 3.69135,-4.21299 8.27039,-8.02333 7.23955,-11.23325 -1.03087,-3.20993 -2.06095,-2.9196 -2.06095,-2.9196 L 255.43396,232.0517 c 0,0 -15.01947,-27.45001 5.33779,-35.90959 4.34506,-2.01559 14.88183,-4.52049 22.37001,2.39772 1.97382,2.17564 5.92735,0.68308 9.09974,-9.24261 6.14112,-13.99631 10.97447,34.65984 33.58239,76.71618 5.81576,10.81875 14.99599,26.7632 35.78104,26.31925 0,0 -23.13729,2.23313 -41.67868,-71.61882 -5.06023,-15.0957 -3.78824,-29.1498 -9.59292,-42.30822 -0.004,-0.0449 -14.68863,-32.28609 -29.55636,-39.16051 0.0568,-0.0238 -25.18654,-12.77564 -49.34433,-3.6108 -0.0197,0.0224 -17.04792,5.05162 -33.47419,24.2432 -0.0785,-0.11608 -4.38398,4.00715 -8.02051,3.54313 -1.48692,-2.69104 -8.41703,-9.24948 -8.5634,-15.56513 -0.98093,-3.83174 -1.07045,-5.23738 -1.07045,-5.23738 0,0 5.18406,-1.36773 5.48888,-8.44693 -0.99519,-3.42672 5.23239,-9.05488 6.58777,-11.32672 -3.39718,2.4794 -11.66092,3.81756 -13.49814,7.77129 -2.93016,-2.6264 -0.27158,-7.44531 -0.44336,-7.47818 -5.16047,1.98809 -9.79145,5.32151 -11.27198,16.6598 z"
           id="path1"
           sodipodi:nodetypes="ccccccccscccccccscccccccscsccccccccccsccsscscscccccsccccccccccccccc" /></g><text
         xml:space="preserve"
         style="font-style:normal;font-variant:normal;font-weight:bold;font-stretch:normal;font-size:42.3325px;line-height:1;font-family:'DejaVu Sans Mono';-inkscape-font-specification:'DejaVu Sans Mono Bold';letter-spacing:0px;word-spacing:0px;opacity:1;fill:#5f200f;fill-opacity:1;stroke:none;stroke-width:3.74992;stroke-linecap:round;stroke-linejoin:round;stroke-dasharray:none;stroke-opacity:1"
         x="147.79636"
         y="404.76263"
         id="text11"><tspan
           sodipodi:role="line"
           id="tspan11"
           style="fill:#5f200f;fill-opacity:1;stroke-width:3.74992"
           x="147.79636"
           y="404.76263">KANGAROO</tspan></text></g></g></svg>
