<?xml version="1.0" encoding="UTF-8" standalone="no"?>
<!-- Created with Inkscape (http://www.inkscape.org/) -->

<svg
   width="500mm"
   height="500mm"
   viewBox="0 0 500 500"
   version="1.1"
   id="svg1"
   inkscape:version="1.3.2 (091e20e, 2023-11-25)"
   sodipodi:docname="LEMON-handlettering[ Festivel December ].svg"
   xmlns:inkscape="http://www.inkscape.org/namespaces/inkscape"
   xmlns:sodipodi="http://sodipodi.sourceforge.net/DTD/sodipodi-0.dtd"
   xmlns="http://www.w3.org/2000/svg"
   xmlns:svg="http://www.w3.org/2000/svg">
  <sodipodi:namedview
     id="namedview1"
     pagecolor="#ffffff"
     bordercolor="#000000"
     borderopacity="0.25"
     inkscape:showpageshadow="2"
     inkscape:pageopacity="0.0"
     inkscape:pagecheckerboard="0"
     inkscape:deskcolor="#d1d1d1"
     inkscape:document-units="mm"
     showgrid="false"
     showguides="true"
     inkscape:zoom="0.25982083"
     inkscape:cx="946.80629"
     inkscape:cy="944.88189"
     inkscape:window-width="1356"
     inkscape:window-height="697"
     inkscape:window-x="0"
     inkscape:window-y="0"
     inkscape:window-maximized="1"
     inkscape:current-layer="layer1" />
  <defs
     id="defs1">
    <inkscape:path-effect
       effect="powerstroke"
       id="path-effect4"
       is_visible="true"
       lpeversion="1.3"
       scale_width="1"
       interpolator_type="CentripetalCatmullRom"
       interpolator_beta="0.2"
       start_linecap_type="zerowidth"
       end_linecap_type="zerowidth"
       offset_points="3,10 | 13.5,10 | 23.5,10 | 39.5,10 | 57,10 | 65,10 | 77,10"
       linejoin_type="round"
       miter_limit="4"
       not_jump="false"
       sort_points="true"
       message="&lt;b&gt;Ctrl + click&lt;/b&gt; on existing node and move it" />
    <inkscape:path-effect
       effect="clone_original"
       css_properties=""
       attributes="style,clip-path,mask"
       linkeditem="#text3"
       is_visible="true"
       method="d"
       allow_transforms="true"
       id="path-effect3"
       lpeversion="1" />
    <inkscape:path-effect
       effect="powerstroke"
       id="path-effect1"
       is_visible="true"
       lpeversion="1.3"
       scale_width="1"
       interpolator_type="CentripetalCatmullRom"
       interpolator_beta="0.2"
       start_linecap_type="zerowidth"
       end_linecap_type="zerowidth"
       offset_points="0.1083719,0.15930184 | 1,2.499995 | 1.8,2.499995"
       linejoin_type="round"
       miter_limit="4"
       not_jump="false"
       sort_points="true"
       message="&lt;b&gt;Ctrl + click&lt;/b&gt; on existing node and move it" />
    <inkscape:path-effect
       effect="fill_between_many"
       method="bsplinespiro"
       autoreverse="false"
       close="false"
       join="false"
       linkedpaths="#use3,0,1"
       id="path-effect5" />
  </defs>
  <g
     inkscape:label="Layer 1"
     inkscape:groupmode="layer"
     id="layer1">
    <path
       id="text6"
       style="font-style:normal;font-variant:normal;font-weight:normal;font-stretch:normal;font-size:199.179px;line-height:1;font-family:'Festive December';-inkscape-font-specification:'Festive December';letter-spacing:0px;word-spacing:0px;fill:#000000;fill-opacity:1;stroke:#040404;stroke-width:24.6791;stroke-linecap:square;stroke-dasharray:none;stroke-opacity:1"
       d="M 147.13059 170.35775 C 142.08472 170.35775 137.50324 171.15467 133.38687 172.7481 C 129.27051 174.34153 125.48653 176.53216 122.0341 179.32066 C 118.58167 181.97638 115.46123 185.16355 112.67273 188.88155 C 109.88422 192.46677 107.29441 196.31761 104.90427 200.43397 C 102.11576 201.49626 99.061786 202.89049 95.74214 204.6167 C 92.422493 206.21013 88.970284 207.80346 85.385066 209.39689 C 81.932633 210.85754 78.479901 212.1854 75.027469 213.38047 C 71.707822 214.44276 68.653845 214.97369 65.865342 214.97369 C 62.678481 214.97369 60.288571 213.97818 58.69514 211.9864 C 57.234496 209.86182 56.503969 207.27247 56.503969 204.2184 C 56.503969 202.09382 56.835741 199.83631 57.499671 197.44616 C 58.296386 195.05602 59.358684 192.86487 60.686543 190.87309 C 62.014402 188.8813 63.60785 187.2216 65.466852 185.89374 C 67.45864 184.56588 69.649696 183.90221 72.039841 183.90221 C 74.429987 183.90221 76.222812 184.23405 77.417885 184.89798 C 78.745743 185.56191 79.675124 186.49105 80.206267 187.68612 C 80.870197 188.8812 81.201969 190.27593 81.201969 191.86936 C 81.334755 193.46279 81.401214 195.12249 81.401214 196.8487 C 81.401214 197.91099 81.467673 198.77377 81.600459 199.4377 C 81.86603 199.96884 82.596557 200.23482 83.79163 200.23482 C 84.588345 200.23482 85.185953 199.90247 85.584311 199.23854 C 85.982668 198.44183 86.247981 197.57905 86.380767 196.64955 C 86.646339 195.72005 86.779257 194.7904 86.779257 193.8609 C 86.912043 192.93139 86.978502 192.20084 86.978502 191.6697 C 86.978502 187.15498 85.716826 183.43738 83.193895 180.51609 C 80.803749 177.46202 77.285081 175.93455 72.637576 175.93455 C 68.786786 175.93455 65.201659 176.73147 61.882013 178.3249 C 58.695152 179.91833 55.840028 182.04311 53.317097 184.69882 C 50.794165 187.22176 48.802486 190.20931 47.341842 193.66174 C 46.013983 196.98139 45.349916 200.50039 45.349916 204.2184 C 45.349916 210.19376 47.2092 214.84101 50.927204 218.16066 C 54.645208 221.34752 59.359093 222.94085 65.068885 222.94085 C 70.778677 222.94085 76.488401 221.94534 82.198193 219.95355 C 88.040771 217.96176 93.484659 215.77061 98.530522 213.38047 C 93.750231 224.93284 89.766873 236.6181 86.580012 248.43604 C 83.525937 260.1212 80.073728 271.87282 76.222938 283.69076 C 74.363936 283.29241 72.438193 283.02694 70.446405 282.89415 C 68.587403 282.76136 66.728642 282.695 64.86964 282.695 C 61.549993 282.695 58.163721 283.2923 54.711288 284.48738 C 51.391641 285.68245 48.404123 287.40851 45.748406 289.66587 C 43.092688 291.79045 40.901632 294.31343 39.175416 297.23472 C 37.4492 300.15601 36.586278 303.34317 36.586278 306.79561 C 36.586278 311.84147 38.312121 315.95778 41.764554 319.14464 C 45.349772 322.19871 49.864802 323.72568 55.309023 323.72568 C 59.159813 323.72568 62.612022 322.92876 65.666097 321.33533 C 68.852957 319.7419 71.641622 317.684 74.031767 315.16106 C 76.554699 312.63813 78.745755 309.84968 80.604757 306.79561 C 82.463759 303.74153 84.057207 300.81983 85.385066 298.03133 C 89.634213 300.42148 93.949867 303.07719 98.3318 305.99848 C 102.84652 308.91977 107.36103 311.70873 111.87575 314.36445 C 116.52325 317.02017 121.23714 319.27717 126.01743 321.13617 C 130.79772 322.86239 135.77744 323.72568 140.95609 323.72568 C 143.61181 323.72568 146.26755 323.32747 148.92327 322.53076 C 151.71177 321.73404 154.16814 320.60528 156.29272 319.14464 C 158.55007 317.55121 160.3429 315.62553 161.67076 313.36817 C 163.1314 310.97803 163.86141 308.25594 163.86141 305.20187 C 163.86141 300.95272 162.53379 297.96517 159.87808 296.23895 C 157.22236 294.51273 153.96901 293.64945 150.11822 293.64945 C 149.05593 293.64945 148.19248 293.98179 147.52855 294.64572 C 146.99741 295.17687 146.66564 295.84054 146.53285 296.63726 C 146.40007 297.43397 146.59944 298.16452 147.13059 298.82845 C 147.66173 299.3596 148.52465 299.62507 149.71973 299.62507 C 150.9148 299.62507 152.30887 300.15601 153.9023 301.21829 C 155.62852 302.14779 156.49196 303.80749 156.49196 306.19763 C 156.49196 308.72057 155.49612 310.64624 153.50433 311.9741 C 151.64533 313.16917 149.12198 313.76648 145.93512 313.76648 C 143.67776 313.76648 141.42077 313.43464 139.16341 312.77071 C 136.90605 311.974 134.71499 311.04434 132.59042 309.98206 C 130.46584 308.78698 128.34125 307.52549 126.21667 306.19763 C 124.22488 304.86978 122.3656 303.60829 120.63938 302.41321 C 115.85909 299.35914 110.94635 296.50432 105.90049 293.8486 C 100.98741 291.19288 95.80884 288.93588 90.364619 287.07688 C 93.020337 280.43759 95.343788 273.66505 97.335576 266.76018 C 99.46015 259.72253 101.51829 252.7514 103.51008 245.84654 C 105.50186 238.94167 107.62646 232.10328 109.88382 225.3312 C 112.27397 218.42633 115.06263 211.72067 118.24949 205.21416 C 120.10849 204.55023 121.96725 204.01878 123.82626 203.62043 C 125.81804 203.08928 127.81025 202.82381 129.80203 202.82381 C 134.98068 202.82381 139.22988 203.6871 142.54952 205.41332 C 145.86917 207.00675 147.52855 210.59212 147.52855 216.16912 C 147.52855 217.89534 148.32554 218.75812 149.91897 218.75812 C 151.37961 218.75812 152.24254 218.02808 152.50811 216.56743 C 152.77368 214.974 152.9066 213.64614 152.9066 212.58386 C 152.9066 208.46749 151.97722 205.21396 150.11822 202.82381 C 148.25921 200.43367 145.86878 198.64124 142.94749 197.44616 C 140.0262 196.25109 136.83931 195.52054 133.38687 195.25497 C 129.93444 194.9894 126.61515 194.9894 123.42829 195.25497 C 124.62336 193.26318 126.01743 191.27165 127.61086 189.27986 C 129.20429 187.15529 130.93066 185.29598 132.78966 183.70255 C 134.64866 182.10912 136.64034 180.84762 138.76492 179.91812 C 141.02228 178.85584 143.47865 178.3249 146.13436 178.3249 C 149.18844 178.3249 151.77773 178.98908 153.9023 180.31694 C 156.02687 181.6448 157.75324 183.43723 159.0811 185.69459 C 160.40896 187.81916 161.33834 190.20941 161.86948 192.86513 C 162.53341 195.52085 162.8657 198.1102 162.8657 200.63313 C 162.8657 202.89049 162.59987 205.5462 162.06873 208.60028 C 161.53758 211.65435 160.6082 214.50917 159.28034 217.16489 C 158.08527 219.82061 156.49182 222.07812 154.50003 223.93712 C 152.50825 225.79613 150.05188 226.72527 147.13059 226.72527 C 144.47487 226.72527 142.41673 226.12796 140.95609 224.93289 C 139.62823 223.60503 138.69833 222.0117 138.16718 220.1527 C 137.63604 218.2937 137.37073 216.30166 137.37073 214.17708 L 137.37073 208.20197 C 137.37073 206.21018 136.44135 205.21416 134.58234 205.21416 C 133.52006 205.21416 132.72307 205.67873 132.19193 206.60824 C 131.66078 207.40495 131.26255 208.40097 130.99698 209.59605 C 130.86419 210.79112 130.79774 211.98624 130.79774 213.18132 L 130.79774 215.96997 C 130.79774 221.94534 132.25827 226.92442 135.17955 230.908 C 138.23363 234.75879 142.94751 236.68446 149.32124 236.68446 C 154.10153 236.68446 158.28426 235.62208 161.86948 233.4975 C 165.58748 231.24014 168.64198 228.38532 171.03213 224.93289 C 173.42228 221.48046 175.21458 217.62962 176.40965 213.38047 C 177.73751 209.13132 178.40158 204.88228 178.40158 200.63313 C 178.40158 191.07254 175.47999 183.63633 169.63742 178.3249 C 163.92762 173.01346 156.4256 170.35775 147.13059 170.35775 z M 67.164355 199.0205 L 67.164355 203.84052 L 72.099981 203.84052 L 72.099981 199.0205 L 67.164355 199.0205 z M 247.91451 248.03773 C 246.71944 248.03773 245.79006 248.43594 245.12613 249.23265 C 244.4622 249.89658 243.86459 250.75987 243.33345 251.82216 C 241.74002 255.00902 239.94772 259.19169 237.95593 264.37034 C 235.96414 269.54899 234.0384 274.99316 232.17939 280.70295 C 232.0688 281.06877 231.98136 281.42285 231.87294 281.78757 C 230.33646 284.63026 228.42016 287.75823 226.00542 291.25961 C 223.3497 295.1104 220.36166 298.69526 217.04201 302.01491 C 213.72237 305.33455 210.2037 308.12352 206.48569 310.38087 C 202.76769 312.63823 199.1161 313.76648 195.53089 313.76648 C 191.14895 313.76648 188.09497 312.50499 186.36876 309.98206 C 184.64254 307.32634 183.77962 304.07332 183.77962 300.22253 C 183.77962 297.16845 184.11139 294.11453 184.77532 291.06045 C 185.43925 288.00638 186.30217 285.08468 187.36446 282.29618 L 220.22888 281.49957 C 222.75182 281.49957 224.47818 280.96863 225.40768 279.90634 C 226.46997 278.71127 227.13404 277.38341 227.39961 275.92276 C 227.79797 273.39983 227.99734 270.94322 227.99734 268.55307 C 227.99734 261.78099 226.27098 256.73503 222.81855 253.41538 C 219.4989 250.09573 215.18325 248.43604 209.87181 248.43604 C 204.2948 248.43604 198.91685 250.1621 193.7382 253.61453 C 188.69234 256.93418 184.17783 261.18323 180.19426 266.36188 C 176.34347 271.40774 173.28949 276.98515 171.03213 283.0933 C 168.77477 289.06867 167.64601 294.71194 167.64601 300.02337 C 167.64601 303.34302 168.04424 306.46331 168.84096 309.3846 C 169.77046 312.1731 171.16453 314.62972 173.02353 316.75429 C 174.88254 318.87886 177.20651 320.53856 179.99501 321.73363 C 182.9163 323.06149 186.43497 323.72568 190.55133 323.72568 C 196.39391 323.72568 201.63894 322.46418 206.28645 319.94125 C 211.06674 317.41832 215.38239 314.23166 219.23318 310.38087 C 222.12752 307.48654 224.72213 304.24198 227.16637 300.82254 C 226.46636 304.5299 226.00489 307.8402 226.00489 310.38087 C 226.00489 313.56774 226.6025 316.62166 227.79758 319.54295 C 229.12543 322.33145 231.71472 323.72568 235.56551 323.72568 C 237.29173 323.72568 238.5534 323.32747 239.35012 322.53076 C 240.14683 321.86683 240.54507 321.13627 240.54507 320.33956 C 240.54507 319.67563 240.34569 319.14469 239.94733 318.74633 C 239.54897 318.21519 238.88543 317.94921 237.95593 317.94921 C 237.95593 316.35578 238.22124 314.36425 238.75238 311.9741 C 239.28353 309.45117 239.88114 306.86182 240.54507 304.2061 C 241.34178 301.55038 242.13824 299.0274 242.93496 296.63726 C 243.73167 294.11433 244.39574 292.05591 244.92688 290.46248 C 245.19246 289.53298 245.92298 288.13876 247.11806 286.27976 C 248.44591 284.28797 249.9729 282.09733 251.69912 279.70719 C 253.42534 277.31704 255.2841 274.92679 257.27588 272.53665 C 259.40046 270.01372 261.4586 267.7562 263.45038 265.76442 C 265.44217 263.63984 267.30146 261.91378 269.02767 260.58592 C 270.75389 259.25806 272.0815 258.59388 273.011 258.59388 C 273.011 261.51517 272.281 265.23327 270.82035 269.74799 C 269.35971 274.26271 267.76626 278.8441 266.04004 283.49161 C 264.31383 288.13911 262.72038 292.45453 261.25974 296.4381 C 259.93188 300.28889 259.26781 303.07735 259.26781 304.80356 C 259.26781 305.73306 259.59958 306.19763 260.26351 306.19763 C 262.52087 306.46321 264.24724 307.06102 265.44231 307.99052 C 266.77017 308.92003 268.36362 309.3846 270.22262 309.3846 C 271.55048 309.3846 272.47986 308.98639 273.011 308.18968 C 273.67493 307.39296 274.20608 306.46331 274.60444 305.40102 C 275.9323 301.94859 277.19397 298.4301 278.38904 294.84488 C 279.58412 291.12687 280.71287 287.47513 281.77516 283.88992 C 282.70466 282.56206 284.16519 280.57001 286.15698 277.9143 C 288.14877 275.12579 290.20691 272.33734 292.33148 269.54884 C 294.58884 266.76034 296.7799 264.30372 298.90447 262.17915 C 301.02904 259.92179 302.82187 258.72666 304.28251 258.59388 C 303.61858 262.04631 302.75514 265.69805 301.69285 269.54884 C 300.63057 273.26684 299.43587 277.05132 298.10801 280.90211 C 296.51458 285.6824 294.98707 290.66199 293.52643 295.84064 C 292.06578 301.01929 291.33578 306.13162 291.33578 311.17749 C 291.33578 312.63813 291.4687 314.16509 291.73427 315.75852 C 291.99984 317.21917 292.46453 318.54703 293.12846 319.7421 C 293.79239 320.93717 294.65531 321.86683 295.7176 322.53076 C 296.91267 323.32747 298.43966 323.72568 300.29866 323.72568 C 304.54781 323.72568 308.59763 321.6009 312.44842 317.35175 C 316.43199 313.1026 320.74765 307.5257 325.39515 300.62083 C 325.42231 300.58009 325.46927 300.4902 325.49713 300.44772 C 325.46637 301.10224 325.39515 301.76553 325.39515 302.41321 C 325.39515 308.52136 326.92214 313.63369 329.97621 317.75006 C 333.03029 321.73363 338.07647 323.72568 345.11412 323.72568 C 351.8862 323.72568 358.06061 321.8 363.63762 317.94921 C 369.34741 313.96563 374.26067 308.98655 378.37704 303.01118 C 383.55568 301.55054 388.3355 299.22666 392.71744 296.0398 C 393.01227 295.81644 393.27133 295.56549 393.55835 295.33612 C 393.48041 295.64182 393.39201 295.93161 393.31517 296.23895 C 392.25289 301.01924 391.72174 305.73337 391.72174 310.38087 C 391.72174 313.56774 392.31934 316.62166 393.51442 319.54295 C 394.84228 322.33145 397.43156 323.72568 401.28235 323.72568 C 402.87578 323.72568 404.071 323.2611 404.86772 322.3316 C 405.79722 321.53489 406.26191 320.73797 406.26191 319.94125 C 406.26191 319.27732 405.99607 318.74638 405.46493 318.34803 C 405.06657 317.94967 404.46896 317.81642 403.67225 317.94921 C 403.67225 316.22299 403.87162 314.16509 404.26998 311.77495 C 404.80112 309.3848 405.39873 306.92819 406.06266 304.40526 C 406.72659 301.88232 407.4566 299.42571 408.25331 297.03556 C 409.18281 294.64542 409.9798 292.65389 410.64373 291.06045 C 411.30766 289.59981 412.76819 287.1432 415.02554 283.69076 C 417.41569 280.23833 420.00498 276.71933 422.79348 273.13411 C 425.58198 269.4161 428.37065 266.16308 431.15915 263.37458 C 433.94765 260.45329 436.07225 258.85945 437.5329 258.59388 C 436.86897 262.31188 436.00605 266.02999 434.94376 269.74799 C 433.88147 273.33321 432.68626 277.05132 431.3584 280.90211 C 429.76497 285.6824 428.23798 290.66199 426.77733 295.84064 C 425.31669 301.01929 424.58616 306.13162 424.58616 311.17749 C 424.58616 312.63813 424.71908 314.16509 424.98465 315.75852 C 425.25022 317.21917 425.71491 318.54703 426.37884 319.7421 C 427.04277 320.93717 427.90569 321.86683 428.96798 322.53076 C 430.16305 323.32747 431.69004 323.72568 433.54904 323.72568 C 437.79819 323.72568 441.84853 321.6009 445.69932 317.35175 C 449.6829 313.1026 453.99855 307.5257 458.64606 300.62083 C 459.1772 299.82412 459.84074 298.69536 460.63746 297.23472 C 461.56696 295.77407 462.49686 294.24711 463.42637 292.65368 C 464.48865 290.92746 465.48449 289.26777 466.41399 287.67434 C 467.47628 286.08091 468.3392 284.68668 469.00313 283.49161 C 469.2687 282.69489 469.40162 282.09708 469.40162 281.69872 C 469.40162 280.76922 469.06933 280.03918 468.4054 279.50803 C 467.87425 278.97689 467.27717 278.71091 466.61324 278.71091 C 465.68374 278.71091 464.68737 279.44146 463.62509 280.90211 C 462.69559 282.49554 461.10214 285.01852 458.84478 288.47095 C 456.58742 291.7906 454.13105 295.24324 451.47533 298.82845 C 448.81962 302.41367 446.23033 305.60033 443.7074 308.38883 C 441.18446 311.17733 439.25925 312.77066 437.93139 313.16902 C 437.93139 309.98216 438.52899 306.33042 439.72407 302.21406 C 441.05193 297.96491 442.51246 293.58313 444.10589 289.06841 C 445.69932 284.42091 447.15985 279.70729 448.48771 274.927 C 449.81556 270.14671 450.47963 265.49895 450.47963 260.98423 C 450.47963 259.52358 450.34671 258.06299 450.08114 256.60234 C 449.81557 255.00891 449.35088 253.61469 448.68695 252.41961 C 448.02302 251.22454 447.09364 250.29489 445.89857 249.63096 C 444.83628 248.83424 443.37523 248.43604 441.51623 248.43604 C 439.52444 248.43604 437.4663 249.03335 435.34173 250.22842 C 433.34994 251.29071 431.42472 252.61856 429.56572 254.21199 C 427.70671 255.80542 425.98035 257.532 424.38692 259.391 C 422.92627 261.25 421.59866 262.9097 420.40359 264.37034 C 420.66916 263.70641 420.93447 262.97586 421.20004 262.17915 C 421.5984 261.38243 421.99716 260.51965 422.39551 259.59015 C 422.92666 258.52787 423.32489 257.46548 423.59046 256.40319 C 423.98882 255.3409 424.18767 254.41125 424.18767 253.61453 C 424.18767 252.55225 423.59059 252.02131 422.39551 252.02131 C 420.93487 252.02131 419.54028 251.35712 418.21242 250.02926 C 416.88456 248.70141 415.35757 248.03773 413.63135 248.03773 C 412.30349 248.03773 411.30766 248.43594 410.64373 249.23265 C 410.11258 249.89658 409.58143 250.75987 409.05029 251.82216 C 406.66014 256.46966 404.53555 261.51563 402.67655 266.95985 C 400.85824 272.15501 399.10744 277.21414 397.41617 282.15524 C 395.74389 284.68548 393.87979 287.02394 391.72174 289.06841 C 389.33159 291.32577 386.54293 293.18508 383.35607 294.64572 C 385.21507 290.92772 386.74206 286.94414 387.93713 282.695 C 389.26499 278.31306 389.92906 273.99714 389.92906 269.74799 C 389.92906 263.63984 388.40207 258.59388 385.34799 254.6103 C 382.29392 250.49394 377.24826 248.43604 370.21061 248.43604 C 364.10246 248.43604 358.32628 250.22847 352.88206 253.81369 C 347.43784 257.26612 342.65749 261.64841 338.54113 266.95985 C 335.3582 271.20375 332.70718 275.80231 330.54153 280.7244 C 330.48449 280.79908 330.43212 280.82315 330.3747 280.90211 C 329.4452 282.49554 327.85176 285.01852 325.5944 288.47095 C 323.33704 291.7906 320.88067 295.24324 318.22495 298.82845 C 315.56923 302.41367 312.97994 305.60033 310.45701 308.38883 C 307.93408 311.17733 306.00834 312.77066 304.68048 313.16902 C 304.68048 309.98216 305.27809 306.33042 306.47316 302.21406 C 307.80102 297.96491 309.26155 293.58313 310.85498 289.06841 C 312.44841 284.42091 313.90946 279.70729 315.23732 274.927 C 316.56518 270.14671 317.22873 265.49895 317.22873 260.98423 C 317.22873 259.52358 317.09633 258.06299 316.83076 256.60234 C 316.56519 255.00891 316.1005 253.61469 315.43657 252.41961 C 314.77264 251.22454 313.84273 250.29489 312.64766 249.63096 C 311.58537 248.83424 310.12484 248.43604 308.26584 248.43604 C 306.00848 248.43604 303.75097 249.09971 301.49361 250.42757 C 299.36903 251.62264 297.3109 253.21648 295.31911 255.20827 C 293.32732 257.06727 291.46856 259.05881 289.74234 261.18338 L 285.55925 266.76018 C 285.69203 266.09625 285.75849 265.36621 285.75849 264.5695 L 285.75849 262.3783 C 285.75849 260.78487 285.6261 259.19154 285.36052 257.59811 C 285.09495 255.87189 284.5638 254.34493 283.76709 253.01707 C 282.97037 251.68922 281.90807 250.62683 280.58022 249.83011 C 279.38514 248.90061 277.79169 248.43604 275.79991 248.43604 C 273.67533 248.43604 271.6172 249.03335 269.62541 250.22842 C 267.63362 251.29071 265.70788 252.61856 263.84887 254.21199 C 261.98987 255.80542 260.26403 257.532 258.6706 259.391 C 257.20995 261.25 255.88182 262.9097 254.68675 264.37034 C 255.21789 262.9097 255.94842 261.11727 256.87792 258.99269 C 257.9402 256.86812 258.47135 255.07518 258.47135 253.61453 C 258.47135 252.55225 257.87375 252.02131 256.67867 252.02131 C 255.21803 252.02131 253.82343 251.35712 252.49558 250.02926 C 251.16772 248.70141 249.64073 248.03773 247.91451 248.03773 z M 209.47332 254.41115 C 210.53561 254.41115 211.26613 255.1417 211.66449 256.60234 C 212.19564 257.9302 212.46095 259.789 212.46095 262.17915 C 212.46095 265.63158 212.06272 269.81426 211.266 274.72733 C 207.01685 274.99291 203.7635 275.19252 201.50614 275.3253 C 199.38157 275.3253 197.12457 275.45804 194.73443 275.72361 C 194.0705 275.8564 193.33997 275.92276 192.54326 275.92276 C 191.74654 275.92276 190.88362 275.98913 189.95412 276.12192 C 191.28198 273.20063 192.74251 270.41218 194.33594 267.75646 C 196.06216 265.10074 197.78852 262.77686 199.51474 260.78507 C 201.24095 258.79329 202.9668 257.26632 204.69301 256.20404 C 206.41923 255.00896 208.01268 254.41115 209.47332 254.41115 z M 369.41363 254.41115 C 371.40542 254.41115 372.80001 255.3408 373.59673 257.1998 C 374.52623 259.05881 374.99092 261.51542 374.99092 264.5695 C 374.99092 268.15471 374.19393 272.93521 372.6005 278.91057 C 371.00707 284.88594 368.88247 290.79468 366.22676 296.63726 C 363.57104 302.34705 360.4506 307.32665 356.86539 311.57579 C 353.41295 315.69216 349.76137 317.75006 345.91058 317.75006 C 343.91879 317.75006 342.45826 316.82091 341.52876 314.96191 C 340.73204 313.10291 340.33381 310.64629 340.33381 307.59222 C 340.33381 304.007 341.13027 299.2265 342.7237 293.25114 C 344.31713 287.27578 346.44173 281.4334 349.09745 275.72361 C 351.75317 269.88103 354.80714 264.90144 358.25958 260.78507 C 361.84479 256.53593 365.56284 254.41115 369.41363 254.41115 z M 64.07266 290.66215 C 66.99395 290.66215 70.047927 291.19309 73.234788 292.25537 L 70.844895 298.23048 C 69.782608 300.8862 68.454996 303.54192 66.861566 306.19763 C 65.268136 308.72057 63.408852 310.97808 61.284278 312.96987 C 59.29249 314.82887 57.034975 315.75852 54.512043 315.75852 C 51.856326 315.75852 49.532875 314.69613 47.541087 312.57156 C 45.682085 310.44699 44.752181 307.924 44.752181 305.00272 C 44.752181 302.87814 45.28333 300.95298 46.345617 299.22676 C 47.54069 297.36776 49.068202 295.8408 50.927204 294.64572 C 52.786206 293.31787 54.844344 292.32184 57.101704 291.65791 C 59.359064 290.99399 61.682515 290.66215 64.07266 290.66215 z "
       transform="scale(0.98816689,1.0119748)" />
    <text
       xml:space="preserve"
       style="font-style:normal;font-variant:normal;font-weight:normal;font-stretch:normal;font-size:198.084px;line-height:1;font-family:'Festive December';-inkscape-font-specification:'Festive December';letter-spacing:0px;word-spacing:0px;fill:#ffffff;fill-opacity:1;stroke:none;stroke-width:24.6791;stroke-linecap:square;stroke-dasharray:none;stroke-opacity:1"
       x="33.217552"
       y="325.62128"
       id="text5"><tspan
         sodipodi:role="line"
         id="tspan5"
         style="font-style:normal;font-variant:normal;font-weight:normal;font-stretch:normal;font-family:'Festive December';-inkscape-font-specification:'Festive December';letter-spacing:0px;fill:#ffffff;fill-opacity:1;stroke:none;stroke-width:24.6791;stroke-dasharray:none;stroke-opacity:1"
         x="33.217552"
         y="325.62128">Lemon</tspan></text>
  </g>
</svg>
