<?xml version="1.0" encoding="UTF-8" standalone="no"?>
<!-- Created with Inkscape (http://www.inkscape.org/) -->

<svg
   width="500mm"
   height="500mm"
   viewBox="0 0 500 500"
   version="1.1"
   id="svg1"
   inkscape:version="1.3.2 (091e20e, 2023-11-25)"
   sodipodi:docname="Major Fresh.svg"
   xmlns:inkscape="http://www.inkscape.org/namespaces/inkscape"
   xmlns:sodipodi="http://sodipodi.sourceforge.net/DTD/sodipodi-0.dtd"
   xmlns="http://www.w3.org/2000/svg"
   xmlns:svg="http://www.w3.org/2000/svg">
  <sodipodi:namedview
     id="namedview1"
     pagecolor="#ffffff"
     bordercolor="#000000"
     borderopacity="0.25"
     inkscape:showpageshadow="2"
     inkscape:pageopacity="0.0"
     inkscape:pagecheckerboard="0"
     inkscape:deskcolor="#d1d1d1"
     inkscape:document-units="mm"
     showgrid="false"
     showguides="true"
     inkscape:zoom="0.25982083"
     inkscape:cx="944.88189"
     inkscape:cy="944.88189"
     inkscape:window-width="1356"
     inkscape:window-height="697"
     inkscape:window-x="0"
     inkscape:window-y="0"
     inkscape:window-maximized="1"
     inkscape:current-layer="layer1" />
  <defs
     id="defs1">
    <inkscape:path-effect
       effect="fillet_chamfer"
       id="path-effect33"
       is_visible="true"
       lpeversion="1"
       nodesatellites_param="F,0,0,1,0,0,0,1 @ F,0,0,1,0,6.5773259,0,1 @ F,0,1,1,0,6.5773259,0,1"
       radius="0"
       unit="px"
       method="auto"
       mode="F"
       chamfer_steps="1"
       flexible="false"
       use_knot_distance="true"
       apply_no_radius="true"
       apply_with_radius="true"
       only_selected="false"
       hide_knots="false" />
    <inkscape:path-effect
       effect="fillet_chamfer"
       id="path-effect31"
       is_visible="true"
       lpeversion="1"
       nodesatellites_param="F,0,0,1,0,0,0,1 @ F,0,0,1,0,6.5773259,0,1 @ F,0,1,1,0,6.5773259,0,1"
       radius="0"
       unit="px"
       method="auto"
       mode="F"
       chamfer_steps="1"
       flexible="false"
       use_knot_distance="true"
       apply_no_radius="true"
       apply_with_radius="true"
       only_selected="false"
       hide_knots="false" />
    <inkscape:path-effect
       effect="fillet_chamfer"
       id="path-effect29"
       is_visible="true"
       lpeversion="1"
       nodesatellites_param="F,0,0,1,0,0,0,1 @ F,0,0,1,0,6.5773259,0,1 @ F,0,1,1,0,6.5773259,0,1"
       radius="0"
       unit="px"
       method="auto"
       mode="F"
       chamfer_steps="1"
       flexible="false"
       use_knot_distance="true"
       apply_no_radius="true"
       apply_with_radius="true"
       only_selected="false"
       hide_knots="false" />
    <inkscape:path-effect
       effect="fillet_chamfer"
       id="path-effect27"
       is_visible="true"
       lpeversion="1"
       nodesatellites_param="F,0,0,1,0,0,0,1 @ F,0,0,1,0,6.5773259,0,1 @ F,0,1,1,0,6.5773259,0,1"
       radius="0"
       unit="px"
       method="auto"
       mode="F"
       chamfer_steps="1"
       flexible="false"
       use_knot_distance="true"
       apply_no_radius="true"
       apply_with_radius="true"
       only_selected="false"
       hide_knots="false" />
    <inkscape:path-effect
       effect="fillet_chamfer"
       id="path-effect25"
       is_visible="true"
       lpeversion="1"
       nodesatellites_param="F,0,0,1,0,0,0,1 @ F,0,0,1,0,6.5773259,0,1 @ F,0,1,1,0,6.5773259,0,1"
       radius="0"
       unit="px"
       method="auto"
       mode="F"
       chamfer_steps="1"
       flexible="false"
       use_knot_distance="true"
       apply_no_radius="true"
       apply_with_radius="true"
       only_selected="false"
       hide_knots="false" />
    <inkscape:path-effect
       effect="fillet_chamfer"
       id="path-effect23"
       is_visible="true"
       lpeversion="1"
       nodesatellites_param="F,0,0,1,0,0,0,1 @ F,0,0,1,0,6.5773259,0,1 @ F,0,1,1,0,6.5773259,0,1"
       radius="0"
       unit="px"
       method="auto"
       mode="F"
       chamfer_steps="1"
       flexible="false"
       use_knot_distance="true"
       apply_no_radius="true"
       apply_with_radius="true"
       only_selected="false"
       hide_knots="false" />
    <inkscape:path-effect
       effect="fillet_chamfer"
       id="path-effect21"
       is_visible="true"
       lpeversion="1"
       nodesatellites_param="F,0,0,1,0,0,0,1 @ F,0,0,1,0,6.5773259,0,1 @ F,0,1,1,0,6.5773259,0,1"
       radius="0"
       unit="px"
       method="auto"
       mode="F"
       chamfer_steps="1"
       flexible="false"
       use_knot_distance="true"
       apply_no_radius="true"
       apply_with_radius="true"
       only_selected="false"
       hide_knots="false" />
    <inkscape:path-effect
       effect="fillet_chamfer"
       id="path-effect20"
       is_visible="true"
       lpeversion="1"
       nodesatellites_param="F,0,1,1,0,19.985206,0,1 @ F,0,0,1,0,19.985206,0,1 @ F,0,0,1,0,0,0,1 @ F,0,0,1,0,0,0,1 @ F,0,0,1,0,0,0,1"
       radius="0"
       unit="px"
       method="auto"
       mode="F"
       chamfer_steps="1"
       flexible="false"
       use_knot_distance="true"
       apply_no_radius="true"
       apply_with_radius="true"
       only_selected="false"
       hide_knots="false" />
    <inkscape:path-effect
       effect="fillet_chamfer"
       id="path-effect18"
       is_visible="true"
       lpeversion="1"
       nodesatellites_param="F,0,1,1,0,19.985206,0,1 @ F,0,0,1,0,19.985206,0,1 @ F,0,0,1,0,0,0,1 @ F,0,0,1,0,0,0,1 @ F,0,0,1,0,0,0,1"
       radius="0"
       unit="px"
       method="auto"
       mode="F"
       chamfer_steps="1"
       flexible="false"
       use_knot_distance="true"
       apply_no_radius="true"
       apply_with_radius="true"
       only_selected="false"
       hide_knots="false" />
    <inkscape:path-effect
       effect="fillet_chamfer"
       id="path-effect16"
       is_visible="true"
       lpeversion="1"
       nodesatellites_param="F,0,1,1,0,19.985206,0,1 @ F,0,0,1,0,19.985206,0,1 @ F,0,0,1,0,0,0,1 @ F,0,0,1,0,0,0,1 @ F,0,0,1,0,0,0,1"
       radius="0"
       unit="px"
       method="auto"
       mode="F"
       chamfer_steps="1"
       flexible="false"
       use_knot_distance="true"
       apply_no_radius="true"
       apply_with_radius="true"
       only_selected="false"
       hide_knots="false" />
    <inkscape:path-effect
       effect="fillet_chamfer"
       id="path-effect13"
       is_visible="true"
       lpeversion="1"
       nodesatellites_param="F,0,1,1,0,19.985206,0,1 @ F,0,0,1,0,19.985206,0,1 @ F,0,0,1,0,0,0,1 @ F,0,0,1,0,0,0,1"
       radius="0"
       unit="px"
       method="auto"
       mode="F"
       chamfer_steps="1"
       flexible="false"
       use_knot_distance="true"
       apply_no_radius="true"
       apply_with_radius="true"
       only_selected="false"
       hide_knots="false" />
    <inkscape:path-effect
       effect="fillet_chamfer"
       id="path-effect11"
       is_visible="true"
       lpeversion="1"
       nodesatellites_param="F,0,1,1,0,19.985206,0,1 @ F,0,0,1,0,19.985206,0,1 @ F,0,0,1,0,0,0,1 @ F,0,0,1,0,0,0,1"
       radius="0"
       unit="px"
       method="auto"
       mode="F"
       chamfer_steps="1"
       flexible="false"
       use_knot_distance="true"
       apply_no_radius="true"
       apply_with_radius="true"
       only_selected="false"
       hide_knots="false" />
    <inkscape:path-effect
       effect="fillet_chamfer"
       id="path-effect9"
       is_visible="true"
       lpeversion="1"
       nodesatellites_param="F,0,1,1,0,19.985206,0,1 @ F,0,0,1,0,19.985206,0,1 @ F,0,0,1,0,0,0,1 @ F,0,0,1,0,0,0,1"
       radius="0"
       unit="px"
       method="auto"
       mode="F"
       chamfer_steps="1"
       flexible="false"
       use_knot_distance="true"
       apply_no_radius="true"
       apply_with_radius="true"
       only_selected="false"
       hide_knots="false" />
    <inkscape:path-effect
       effect="fillet_chamfer"
       id="path-effect6"
       is_visible="true"
       lpeversion="1"
       nodesatellites_param="F,0,1,1,0,19.985206,0,1 @ F,0,0,1,0,19.985206,0,1 @ F,0,0,1,0,0,0,1 @ F,0,0,1,0,0,0,1 @ F,0,0,1,0,0,0,1"
       radius="0"
       unit="px"
       method="auto"
       mode="F"
       chamfer_steps="1"
       flexible="false"
       use_knot_distance="true"
       apply_no_radius="true"
       apply_with_radius="true"
       only_selected="false"
       hide_knots="false" />
    <inkscape:path-effect
       effect="fillet_chamfer"
       id="path-effect4"
       is_visible="true"
       lpeversion="1"
       nodesatellites_param="F,0,1,1,0,19.985206,0,1 @ F,0,0,1,0,19.985206,0,1 @ F,0,0,1,0,0,0,1 @ F,0,0,1,0,0,0,1 @ F,0,0,1,0,0,0,1"
       radius="0"
       unit="px"
       method="auto"
       mode="F"
       chamfer_steps="1"
       flexible="false"
       use_knot_distance="true"
       apply_no_radius="true"
       apply_with_radius="true"
       only_selected="false"
       hide_knots="false" />
    <inkscape:path-effect
       effect="fillet_chamfer"
       id="path-effect2"
       is_visible="true"
       lpeversion="1"
       nodesatellites_param="F,0,1,1,0,19.985206,0,1 @ F,0,0,1,0,19.985206,0,1 @ F,0,0,1,0,0,0,1 @ F,0,0,1,0,0,0,1 @ F,0,0,1,0,0,0,1"
       radius="0"
       unit="px"
       method="auto"
       mode="F"
       chamfer_steps="1"
       flexible="false"
       use_knot_distance="true"
       apply_no_radius="true"
       apply_with_radius="true"
       only_selected="false"
       hide_knots="false" />
  </defs>
  <g
     inkscape:label="Layer 1"
     inkscape:groupmode="layer"
     id="layer1">
    <rect
       style="fill:#0b0b0b;fill-opacity:1;stroke:none;stroke-width:5.5;stroke-linecap:round;stroke-linejoin:bevel;stroke-opacity:1"
       id="rect34"
       width="500"
       height="500"
       x="0"
       y="0" />
    <g
       id="g53"
       transform="matrix(-0.39008491,0.34513045,0.34513045,0.39008491,269.45366,-2.7772651)">
      <g
         id="g52">
        <path
           id="rect33"
           style="fill:#fffffd;fill-opacity:1;stroke:none;stroke-width:7.12474;stroke-linecap:round;stroke-linejoin:bevel;stroke-opacity:1"
           d="m 53.285597,359.36821 c -11.525964,3.71849 -19.75075,3.05681 -24.920519,1.62899 l 2.36e-4,217.3271 24.920164,1.3e-4 z"
           transform="rotate(-40.741941)" />
        <path
           id="rect39"
           style="fill:#ff5353;fill-opacity:1;stroke:none;stroke-width:6.09073;stroke-linecap:round;stroke-linejoin:bevel;stroke-opacity:1"
           d="m 409.96877,410.15533 -19.16317,0.0641 8.13077,9.43921 z" />
        <path
           id="path52"
           style="fill:#ff5353;fill-opacity:1;stroke:none;stroke-width:6.09073;stroke-linecap:round;stroke-linejoin:bevel;stroke-opacity:1"
           d="m 346.00885,320.03318 -32.79644,0.11007 51.28214,59.53228 32.79593,-0.11007 z" />
        <path
           id="path50"
           style="fill:#ff5353;fill-opacity:1;stroke:none;stroke-width:6.09073;stroke-linecap:round;stroke-linejoin:bevel;stroke-opacity:1"
           d="m 274.915,237.50075 c -6.30584,10.3398 -12.96925,15.2064 -17.81803,17.49867 l 29.76717,34.55603 32.79645,-0.11007 z" />
      </g>
      <g
         id="g33"
         transform="matrix(0.76459456,0,0,0.76459456,63.271979,59.176756)">
        <ellipse
           style="fill:#ffff01;fill-opacity:1;stroke:none;stroke-width:4.73205;stroke-linecap:round;stroke-linejoin:bevel;stroke-opacity:1"
           id="ellipse33"
           cx="388.45209"
           cy="175.2374"
           transform="matrix(0.95662253,0.29133029,-0.55631534,0.83097126,0,0)"
           rx="128.91742"
           ry="191.30185" />
        <ellipse
           style="fill:#ffff01;fill-opacity:1;stroke:none;stroke-width:4.73205;stroke-linecap:round;stroke-linejoin:bevel;stroke-opacity:1"
           id="path1"
           cx="370.5787"
           cy="163.68634"
           transform="matrix(0.95662253,0.29133029,-0.55631534,0.83097126,0,0)"
           rx="128.91742"
           ry="191.30185" />
        <path
           id="path2"
           style="fill:#ffff75;stroke-width:5.5;stroke-linecap:round;stroke-linejoin:bevel;fill-opacity:1"
           inkscape:transform-center-x="-1.2801795e-06"
           inkscape:transform-center-y="-25.825048"
           transform="matrix(0.76668204,-0.02543473,-0.37050819,0.85346954,200.89222,225.27664)"
           d="m 119.43922,202.77727 c -50.053477,5.68158 -96.616338,-4.17843 -137.917131,-36.29022 -8.710277,-6.77233 -8.826233,-19.34521 -1.021356,-27.14975 l 48.812653,-48.810547 63.57175,-63.574466 23.036984,85.982613 18.09827,67.53786 c 2.85694,10.66137 -3.61655,21.05992 -14.58117,22.30451 z"
           inkscape:path-effect="#path-effect2"
           inkscape:original-d="M 139.19335,199.77688 C 75.287363,211.84768 16.512845,200.82959 -33.631247,153.46867 L 29.313386,90.526753 92.885136,26.952287 115.92212,112.9349 Z"
           sodipodi:nodetypes="cccccc" />
        <path
           id="path3"
           style="fill:#ffff75;stroke-width:5.5;stroke-linecap:round;stroke-linejoin:bevel;fill-opacity:1"
           inkscape:transform-center-x="-15.565755"
           inkscape:transform-center-y="13.136985"
           transform="matrix(-0.02647105,0.76926515,-0.85110337,0.37052437,289.50671,162.72109)"
           d="M 119.50262,203.18945 C 71.948005,210.52039 35.019347,208.29091 -3.9659161,178.22848 -12.702885,171.4912 -13.493957,158.26673 -6.5461318,149.69033 L 36.60049,96.430106 92.885136,26.952287 115.92212,112.9349 l 18.09827,67.53786 c 2.85694,10.66137 -3.60963,21.03511 -14.51777,22.71669 z"
           inkscape:path-effect="#path-effect4"
           inkscape:original-d="M 139.19335,199.77688 C 75.287363,211.84768 31.017809,212.5802 -19.126283,165.21928 L 36.60049,96.430106 92.885136,26.952287 115.92212,112.9349 Z"
           sodipodi:nodetypes="cccccc" />
        <path
           id="path4"
           style="fill:#ffff75;stroke-width:5.5;stroke-linecap:round;stroke-linejoin:bevel;fill-opacity:1"
           inkscape:transform-center-x="15.565755"
           inkscape:transform-center-y="13.136985"
           transform="matrix(-0.8380677,0.52210111,0.15073221,0.67562386,337.16162,177.23393)"
           d="M 119.50262,203.18945 C 71.948005,210.52039 35.019347,208.29091 -3.9659161,178.22848 -12.702885,171.4912 -13.493957,158.26673 -6.5461318,149.69033 L 36.60049,96.430106 92.885136,26.952287 115.92212,112.9349 l 18.09827,67.53786 c 2.85694,10.66137 -3.60963,21.03511 -14.51777,22.71669 z"
           inkscape:path-effect="#path-effect6"
           inkscape:original-d="M 139.19335,199.77688 C 75.287363,211.84768 31.017809,212.5802 -19.126283,165.21928 L 36.60049,96.430106 92.885136,26.952287 115.92212,112.9349 Z"
           sodipodi:nodetypes="cccccc" />
        <path
           id="path13"
           style="fill:#ffff75;stroke-width:5.5;stroke-linecap:round;stroke-linejoin:bevel;fill-opacity:1"
           inkscape:transform-center-x="-2.9308279e-06"
           inkscape:transform-center-y="25.825049"
           transform="matrix(0.47871203,0.40470765,0.70421053,-0.75184367,202.98474,222.15103)"
           d="m 119.43922,202.77727 c -50.053477,5.68158 -96.616338,-4.17843 -137.917131,-36.29022 -8.710277,-6.77233 -8.826233,-19.34521 -1.021356,-27.14975 l 48.812653,-48.810547 63.57175,-63.574466 23.036984,85.982613 18.09827,67.53786 c 2.85694,10.66137 -3.61655,21.05992 -14.58117,22.30451 z"
           inkscape:path-effect="#path-effect16"
           inkscape:original-d="M 139.19335,199.77688 C 75.287363,211.84768 16.512845,200.82959 -33.631247,153.46867 L 29.313386,90.526753 92.885136,26.952287 115.92212,112.9349 Z"
           sodipodi:nodetypes="cccccc" />
        <path
           id="path14"
           style="fill:#ffff75;stroke-width:5.5;stroke-linecap:round;stroke-linejoin:bevel;fill-opacity:1"
           inkscape:transform-center-x="-15.565756"
           inkscape:transform-center-y="-13.13698"
           transform="matrix(0.8380677,-0.52210111,-0.15073221,-0.67562386,192.0108,308.35127)"
           d="M 119.50262,203.18945 C 71.948005,210.52039 35.019347,208.29091 -3.9659161,178.22848 -12.702885,171.4912 -13.493957,158.26673 -6.5461318,149.69033 L 36.60049,96.430106 92.885136,26.952287 115.92212,112.9349 l 18.09827,67.53786 c 2.85694,10.66137 -3.60963,21.03511 -14.51777,22.71669 z"
           inkscape:path-effect="#path-effect18"
           inkscape:original-d="M 139.19335,199.77688 C 75.287363,211.84768 31.017809,212.5802 -19.126283,165.21928 L 36.60049,96.430106 92.885136,26.952287 115.92212,112.9349 Z"
           sodipodi:nodetypes="cccccc" />
        <path
           id="path15"
           style="fill:#ffff75;stroke-width:5.5;stroke-linecap:round;stroke-linejoin:bevel;fill-opacity:1"
           inkscape:transform-center-x="15.565769"
           inkscape:transform-center-y="-13.13698"
           transform="matrix(0.02647113,-0.76926518,0.85110337,-0.3705243,239.66569,322.86412)"
           d="M 119.50262,203.18945 C 71.948005,210.52039 35.019347,208.29091 -3.9659161,178.22848 -12.702885,171.4912 -13.493957,158.26673 -6.5461318,149.69033 L 36.60049,96.430106 92.885136,26.952287 115.92212,112.9349 l 18.09827,67.53786 c 2.85694,10.66137 -3.60963,21.03511 -14.51777,22.71669 z"
           inkscape:path-effect="#path-effect20"
           inkscape:original-d="M 139.19335,199.77688 C 75.287363,211.84768 31.017809,212.5802 -19.126283,165.21928 L 36.60049,96.430106 92.885136,26.952287 115.92212,112.9349 Z"
           sodipodi:nodetypes="cccccc" />
        <path
           id="rect20"
           style="fill:#ffffff;fill-opacity:1;stroke-width:5.5;stroke-linecap:round;stroke-linejoin:bevel"
           d="m 142.7484,260.21816 4.95492,11.15567 a 4.2755336,4.2755336 123.02553 0 1 -3.90745,6.01107 h -0.18205 a 4.7433773,4.7433773 54.201947 0 1 -4.50078,-6.24093 z"
           sodipodi:nodetypes="cccc"
           inkscape:path-effect="#path-effect21"
           inkscape:original-d="m 142.7484,260.21816 7.6248,17.16674 h -13.33671 z"
           transform="matrix(0.64466341,0.19632611,-0.55631534,0.83097126,211.43943,5.230074)" />
        <path
           id="path21"
           style="fill:#ffffff;fill-opacity:1;stroke-width:5.5;stroke-linecap:round;stroke-linejoin:bevel"
           d="m 142.7484,260.21816 4.95492,11.15567 a 4.2755336,4.2755336 123.02553 0 1 -3.90745,6.01107 h -0.18205 a 4.7433773,4.7433773 54.201947 0 1 -4.50078,-6.24093 z"
           sodipodi:nodetypes="cccc"
           inkscape:path-effect="#path-effect23"
           inkscape:original-d="m 142.7484,260.21816 7.6248,17.16674 h -13.33671 z"
           transform="matrix(-0.11340484,0.80313556,-0.84392951,0.28988007,460.87982,110.91016)" />
        <path
           id="path23"
           style="fill:#ffffff;fill-opacity:1;stroke-width:5.5;stroke-linecap:round;stroke-linejoin:bevel"
           d="m 142.7484,260.21816 4.95492,11.15567 a 4.2755336,4.2755336 123.02553 0 1 -3.90745,6.01107 h -0.18205 a 4.7433773,4.7433773 54.201947 0 1 -4.50078,-6.24093 z"
           sodipodi:nodetypes="cccc"
           inkscape:path-effect="#path-effect25"
           inkscape:original-d="m 142.7484,260.21816 7.6248,17.16674 h -13.33671 z"
           transform="matrix(-0.61567646,0.80826592,-0.58823479,-0.27525149,498.05475,107.52918)" />
        <path
           id="path25"
           style="fill:#f4ff9b;fill-opacity:1;stroke-width:5.5;stroke-linecap:round;stroke-linejoin:bevel"
           d="m 142.7484,260.21816 4.95492,11.15567 a 4.2755336,4.2755336 123.02553 0 1 -3.90745,6.01107 h -0.18205 a 4.7433773,4.7433773 54.201947 0 1 -4.50078,-6.24093 z"
           sodipodi:nodetypes="cccc"
           inkscape:path-effect="#path-effect27"
           inkscape:original-d="m 142.7484,260.21816 7.6248,17.16674 h -13.33671 z"
           transform="matrix(-0.6809961,-0.13937316,0.51119662,-0.84239676,215.85412,468.74013)" />
        <path
           id="path27"
           style="fill:#ffffff;fill-opacity:1;stroke-width:5.5;stroke-linecap:round;stroke-linejoin:bevel"
           d="m 142.7484,260.21816 4.95492,11.15567 a 4.2755336,4.2755336 123.02553 0 1 -3.90745,6.01107 h -0.18205 a 4.7433773,4.7433773 54.201947 0 1 -4.50078,-6.24093 z"
           sodipodi:nodetypes="cccc"
           inkscape:path-effect="#path-effect29"
           inkscape:original-d="m 142.7484,260.21816 7.6248,17.16674 h -13.33671 z"
           transform="matrix(0.229705,0.62294148,-0.81994712,0.58395299,536.69761,-44.535317)" />
        <path
           id="path29"
           style="fill:#ffffff;fill-opacity:1;stroke-width:5.5;stroke-linecap:round;stroke-linejoin:bevel"
           d="m 142.7484,260.21816 4.95492,11.15567 a 4.2755336,4.2755336 123.02553 0 1 -3.90745,6.01107 h -0.18205 a 4.7433773,4.7433773 54.201947 0 1 -4.50078,-6.24093 z"
           sodipodi:nodetypes="cccc"
           inkscape:path-effect="#path-effect31"
           inkscape:original-d="m 142.7484,260.21816 7.6248,17.16674 h -13.33671 z"
           transform="matrix(0.8505189,-0.35717653,-0.04117375,0.77555277,193.94132,175.81039)" />
        <path
           id="path31"
           style="fill:#ffffff;fill-opacity:1;stroke-width:5.5;stroke-linecap:round;stroke-linejoin:bevel"
           d="m 142.7484,260.21816 4.95492,11.15567 a 4.2755336,4.2755336 123.02553 0 1 -3.90745,6.01107 h -0.18205 a 4.7433773,4.7433773 54.201947 0 1 -4.50078,-6.24093 z"
           sodipodi:nodetypes="cccc"
           inkscape:path-effect="#path-effect33"
           inkscape:original-d="m 142.7484,260.21816 7.6248,17.16674 h -13.33671 z"
           transform="matrix(0.41216089,0.4719065,-0.74511816,0.71159077,479.29796,-136.30989)" />
      </g>
      <path
         id="path47"
         style="fill:#fffffd;fill-opacity:1;stroke:none;stroke-width:7.12474;stroke-linecap:round;stroke-linejoin:bevel;stroke-opacity:1"
         d="m 53.285241,149.39698 -24.920163,-1.4e-4 1.75e-4,5.56846 c -1.960699,0.77029 -3.345998,2.67011 -3.35203,4.91116 -0.0036,1.35059 0.497948,2.57728 1.321974,3.51299 -0.802638,0.92495 -1.291961,2.13019 -1.295531,3.45652 -0.0042,1.57579 0.677287,2.98399 1.760161,3.95526 -0.95644,0.95409 -1.548041,2.27365 -1.551982,3.7376 -0.004,1.46899 0.584844,2.79566 1.54194,3.75568 -0.738924,0.90733 -1.183805,2.06497 -1.187214,3.33157 -0.0054,2.01981 1.109751,3.77134 2.762341,4.66917 l 1.66e-4,174.70195 c 5.169769,1.42782 13.394555,2.0895 24.920519,-1.62899 l -3.45e-4,-172.3913 c 2.756606,-0.18483 4.926149,-2.45608 4.933703,-5.2627 0.004,-1.46898 -0.585235,-2.796 -1.542331,-3.75601 0.738924,-0.90733 1.183805,-2.06497 1.187214,-3.33157 0.0042,-1.57578 -0.677289,-2.984 -1.760161,-3.95525 0.956443,-0.9541 1.548378,-2.27405 1.552319,-3.738 0.0036,-1.35072 -0.49782,-2.57726 -1.321974,-3.513 0.802638,-0.92495 1.291961,-2.13017 1.295531,-3.45652 0.007,-2.61311 -1.862836,-4.77255 -4.34449,-5.21972 z"
         transform="rotate(-40.741941)" />
      <path
         id="path51"
         style="fill:#ff5353;fill-opacity:1;stroke:none;stroke-width:6.09073;stroke-linecap:round;stroke-linejoin:bevel;stroke-opacity:1"
         d="m 274.915,237.50075 -6.53603,-7.58714 -32.79645,0.11008 21.51445,24.97573 c 4.84878,-2.29227 11.51219,-7.15887 17.81803,-17.49867 z" />
      <path
         id="path49"
         style="fill:#ff5353;fill-opacity:1;stroke:none;stroke-width:6.09073;stroke-linecap:round;stroke-linejoin:bevel;stroke-opacity:1"
         d="m 190.74701,139.79147 -32.79644,0.11058 51.28214,59.53229 32.79644,-0.11007 z" />
      <path
         id="path48"
         style="fill:#ff5353;fill-opacity:1;stroke:none;stroke-width:6.09073;stroke-linecap:round;stroke-linejoin:bevel;stroke-opacity:1"
         d="m 98.660128,74.343783 20.335192,20.335192 3.6344,4.218864 c -0.98278,1.863271 -0.79246,4.206801 0.6656,5.908681 0.87871,1.02567 2.05935,1.62772 3.29437,1.79886 -0.004,0.9645 0.33459,1.90277 0.86558,2.76314 l 36.9781,-0.12403 -2.03036,-2.35696 c 1.96793,-1.93914 2.12936,-5.07593 0.30334,-7.207309 -0.95574,-1.115561 -2.26823,-1.736459 -3.61994,-1.839165 -0.0323,-1.169703 -0.45079,-2.337153 -1.27485,-3.299023 -1.02523,-1.196665 -2.46067,-1.818809 -3.91501,-1.847949 0.10196,-1.347104 -0.31102,-2.733503 -1.26349,-3.845244 -0.8788,-1.025752 -2.05923,-1.627774 -3.29437,-1.798856 0.004,-1.224637 -0.4114,-2.457143 -1.27434,-3.464388 -1.70013,-1.984433 -4.52621,-2.400168 -6.6983,-1.119312 l -3.48971,-4.051432 z" />
    </g>
    <g
       id="g54">
      <text
         xml:space="preserve"
         style="font-style:normal;font-variant:normal;font-weight:normal;font-stretch:normal;font-size:38.3637px;line-height:1;font-family:'RED BURGER';-inkscape-font-specification:'RED BURGER';letter-spacing:0px;word-spacing:0px;fill:#ecff4c;fill-opacity:1;stroke:none;stroke-width:19.9371;stroke-linecap:round;stroke-linejoin:bevel;stroke-opacity:1"
         x="149.80916"
         y="354.90601"
         id="text53"><tspan
           sodipodi:role="line"
           id="tspan53"
           style="fill:#ecff4c;fill-opacity:1;stroke-width:19.9371"
           x="149.80916"
           y="354.90601">Major Fresh</tspan></text>
      <text
         xml:space="preserve"
         style="font-style:normal;font-variant:normal;font-weight:normal;font-stretch:normal;font-size:10.5833px;line-height:1;font-family:'RED BURGER';-inkscape-font-specification:'RED BURGER';letter-spacing:0px;word-spacing:0px;fill:#ecff4c;fill-opacity:1;stroke:none;stroke-width:5.5;stroke-linecap:round;stroke-linejoin:bevel;stroke-opacity:1"
         x="199.60001"
         y="378.60092"
         id="text54"><tspan
           sodipodi:role="line"
           id="tspan54"
           style="stroke-width:5.5"
           x="199.60001"
           y="378.60092">Lemon Jiuce Company</tspan></text>
    </g>
  </g>
</svg>
