<?xml version="1.0" encoding="UTF-8" standalone="no"?>
<!-- Created with Inkscape (http://www.inkscape.org/) -->

<svg
   width="500mm"
   height="500mm"
   viewBox="0 0 500 500"
   version="1.1"
   id="svg1"
   inkscape:version="1.3.2 (091e20e, 2023-11-25)"
   sodipodi:docname="mbm NEWS.svg"
   xmlns:inkscape="http://www.inkscape.org/namespaces/inkscape"
   xmlns:sodipodi="http://sodipodi.sourceforge.net/DTD/sodipodi-0.dtd"
   xmlns="http://www.w3.org/2000/svg"
   xmlns:svg="http://www.w3.org/2000/svg">
  <sodipodi:namedview
     id="namedview1"
     pagecolor="#ffffff"
     bordercolor="#000000"
     borderopacity="0.25"
     inkscape:showpageshadow="2"
     inkscape:pageopacity="0.0"
     inkscape:pagecheckerboard="0"
     inkscape:deskcolor="#d1d1d1"
     inkscape:document-units="mm"
     showgrid="false"
     inkscape:zoom="0.36744215"
     inkscape:cx="929.39801"
     inkscape:cy="874.96767"
     inkscape:window-width="1356"
     inkscape:window-height="697"
     inkscape:window-x="0"
     inkscape:window-y="0"
     inkscape:window-maximized="1"
     inkscape:current-layer="layer1" />
  <defs
     id="defs1" />
  <g
     inkscape:label="Layer 1"
     inkscape:groupmode="layer"
     id="layer1">
    <g
       id="g1"
       transform="translate(-8.1128807,15.165495)">
      <path
         id="path1"
         style="fill:#0068d8;fill-opacity:1;stroke:none;stroke-width:1.2651;stroke-linecap:round;stroke-linejoin:round;stroke-dasharray:none;stroke-opacity:1"
         d="m 140.2463,144.15293 a 90.681589,90.681589 0 0 0 -63.714321,26.47978 v 54.21478 c 0.76491,-0.74841 1.62738,-1.38819 2.60414,-1.89982 1.82278,-0.99819 3.88394,-1.4971 6.18411,-1.4971 2.16997,0 4.14497,0.49891 5.92435,1.4971 1.49674,0.80313 2.71595,1.9162 3.69068,3.30278 1.05487,-1.3521 2.33456,-2.43967 3.86064,-3.2374 1.909581,-1.04159 4.036241,-1.56248 6.379811,-1.56248 2.34356,0 4.44824,0.49891 6.31442,1.4971 1.86618,0.95479 3.34183,2.34384 4.42681,4.16662 1.08499,1.82277 1.62742,3.99251 1.62742,6.50967 v 19.92042 h -8.52805 v -18.55319 c 0,-1.82278 -0.58552,-3.23337 -1.7573,-4.23155 -1.12837,-1.04159 -2.53898,-1.56248 -4.23155,-1.56248 -1.08499,0 -2.1048,0.23913 -3.059591,0.71652 -0.91138,0.43399 -1.62745,1.08456 -2.14824,1.95255 -0.52079,0.86799 -0.78146,1.90978 -0.78146,3.12496 v 18.55319 h -8.52804 v -18.55319 c 0,-1.82278 -0.58552,-3.23337 -1.7573,-4.23155 -1.12839,-1.04159 -2.53898,-1.56248 -4.23155,-1.56248 -1.12839,0 -2.14821,0.23913 -3.05959,0.71652 -0.91139,0.43399 -1.62746,1.08456 -2.14825,1.95255 -0.52079,0.86799 -0.78146,1.90978 -0.78146,3.12496 v 18.55319 h -8.52803 v -73.138 a 90.681589,90.681589 0 0 0 -18.43901,54.4279 90.681589,90.681589 0 0 0 90.681361,90.6818 90.681589,90.681589 0 0 0 63.42447,-26.18995 v -64.33494 c 0,-1.82278 -0.58595,-3.23337 -1.75773,-4.23155 -1.12839,-1.04159 -2.53898,-1.56248 -4.23156,-1.56248 -1.08498,0 -2.10479,0.23913 -3.05958,0.71652 -0.91138,0.43399 -1.62745,1.08456 -2.14824,1.95255 -0.5208,0.86799 -0.78146,1.90978 -0.78146,3.12496 v 18.55319 h -8.52805 v -18.55319 c 0,-1.82278 -0.58551,-3.23337 -1.7573,-4.23155 -1.12839,-1.04159 -2.53898,-1.56248 -4.23155,-1.56248 -1.12839,0 -2.1482,0.23913 -3.05958,0.71652 -0.91139,0.43399 -1.62746,1.08456 -2.14825,1.95255 -0.5208,0.86799 -0.78146,1.90978 -0.78146,3.12496 v 18.55319 h -8.52804 v -31.44267 h 8.52804 v 2.74578 c 0.7649,-0.74841 1.62738,-1.38819 2.60413,-1.89982 1.82278,-0.99819 3.88437,-1.4971 6.18455,-1.4971 2.16997,0 4.14453,0.49891 5.92391,1.4971 1.49669,0.8031 2.71642,1.91585 3.69112,3.30234 1.0548,-1.35187 2.33429,-2.43932 3.86021,-3.23696 1.90957,-1.04159 4.03624,-1.56248 6.3798,-1.56248 2.34356,0 4.44825,0.49891 6.31443,1.4971 1.86618,0.95479 3.34181,2.34384 4.4268,4.16662 1.08499,1.82277 1.62742,3.99251 1.62742,6.50967 v 56.02657 a 90.681589,90.681589 0 0 0 18.72971,-54.81625 90.681589,90.681589 0 0 0 -90.68179,-90.68135 z m -15.80132,62.32485 h 8.52805 v 18.36971 c 0.83747,-0.80123 1.78206,-1.48856 2.86433,-2.02969 1.82278,-0.91139 3.84085,-1.36723 6.05422,-1.36723 2.90776,0 5.51181,0.71606 7.81196,2.14825 2.30018,1.43218 4.10111,3.38519 5.40309,5.85897 1.34538,2.47376 2.01793,5.27297 2.01793,8.39773 0,3.08135 -0.67255,5.85902 -2.01793,8.33278 -1.30198,2.47377 -3.10291,4.4268 -5.40309,5.85897 -2.30015,1.43219 -4.9042,2.14826 -7.81196,2.14826 -2.25677,0 -4.29682,-0.47738 -6.1196,-1.43217 -1.09307,-0.57256 -2.03657,-1.28589 -2.86432,-2.10815 v 2.88917 h -8.46268 z m 15.94907,22.84969 c -1.56238,0 -2.951,0.3688 -4.16618,1.10659 -1.17178,0.69439 -2.105,1.69267 -2.79939,2.99465 -0.651,1.25858 -0.97628,2.7127 -0.97628,4.36187 0,1.69257 0.32528,3.18976 0.97628,4.49174 0.69439,1.25859 1.64915,2.25686 2.86433,2.99465 1.21518,0.69439 2.60424,1.04165 4.16661,1.04165 1.56238,0 2.92946,-0.34726 4.10124,-1.04165 1.21518,-0.73779 2.14839,-1.73606 2.79938,-2.99465 0.6944,-1.30198 1.04122,-2.79917 1.04122,-4.49174 0,-1.64917 -0.34682,-3.10329 -1.04122,-4.36187 -0.65099,-1.30198 -1.5842,-2.30026 -2.79938,-2.99465 -1.21518,-0.73779 -2.60423,-1.10659 -4.16661,-1.10659 z" />
      <text
         xml:space="preserve"
         style="font-style:normal;font-variant:normal;font-weight:600;font-stretch:normal;font-size:76.3564px;line-height:1;font-family:Outfit;-inkscape-font-specification:'Outfit Semi-Bold';letter-spacing:0px;word-spacing:0px;fill:#000000;fill-opacity:1;stroke:none;stroke-width:10.8222;stroke-linecap:round;stroke-linejoin:round;stroke-dasharray:none;stroke-opacity:1"
         x="250.99242"
         y="261.71194"
         id="text1"><tspan
           sodipodi:role="line"
           id="tspan1"
           style="fill:#000000;fill-opacity:1;stroke-width:10.8222"
           x="250.99242"
           y="261.71194">NEWS</tspan></text>
    </g>
  </g>
</svg>
