<?xml version="1.0" encoding="UTF-8" standalone="no"?>
<!-- Created with Inkscape (http://www.inkscape.org/) -->

<svg
   width="500mm"
   height="500mm"
   viewBox="0 0 500 500"
   version="1.1"
   id="svg1"
   inkscape:version="1.3.2 (091e20e, 2023-11-25)"
   xml:space="preserve"
   sodipodi:docname="National Park.svg"
   xmlns:inkscape="http://www.inkscape.org/namespaces/inkscape"
   xmlns:sodipodi="http://sodipodi.sourceforge.net/DTD/sodipodi-0.dtd"
   xmlns="http://www.w3.org/2000/svg"
   xmlns:svg="http://www.w3.org/2000/svg"><sodipodi:namedview
     id="namedview1"
     pagecolor="#ffffff"
     bordercolor="#000000"
     borderopacity="0.25"
     inkscape:showpageshadow="2"
     inkscape:pageopacity="0.0"
     inkscape:pagecheckerboard="0"
     inkscape:deskcolor="#d1d1d1"
     inkscape:document-units="mm"
     showgrid="false"
     inkscape:zoom="0.25982083"
     inkscape:cx="946.80629"
     inkscape:cy="944.88189"
     inkscape:window-width="1356"
     inkscape:window-height="697"
     inkscape:window-x="0"
     inkscape:window-y="0"
     inkscape:window-maximized="1"
     inkscape:current-layer="layer1" /><defs
     id="defs1"><inkscape:path-effect
       effect="fillet_chamfer"
       id="path-effect7"
       is_visible="true"
       lpeversion="1"
       nodesatellites_param="C,0,1,1,0,144.0614,0,1 @ C,0,0,1,0,144.0614,0,1 @ C,0,1,1,0,144.0614,0,1 @ C,0,1,1,0,144.0614,0,1"
       radius="0"
       unit="px"
       method="auto"
       mode="C"
       chamfer_steps="1"
       flexible="false"
       use_knot_distance="true"
       apply_no_radius="true"
       apply_with_radius="true"
       only_selected="false"
       hide_knots="false" /><inkscape:path-effect
       effect="fillet_chamfer"
       id="path-effect5"
       is_visible="true"
       lpeversion="1"
       nodesatellites_param="C,0,1,1,0,144.0614,0,1 @ C,0,0,1,0,144.0614,0,1 @ C,0,1,1,0,144.0614,0,1 @ C,0,1,1,0,144.0614,0,1"
       radius="0"
       unit="px"
       method="auto"
       mode="C"
       chamfer_steps="1"
       flexible="false"
       use_knot_distance="true"
       apply_no_radius="true"
       apply_with_radius="true"
       only_selected="false"
       hide_knots="false" /><inkscape:path-effect
       effect="fillet_chamfer"
       id="path-effect3"
       is_visible="true"
       lpeversion="1"
       nodesatellites_param="F,0,0,1,0,144.0614,0,1 @ F,0,0,1,0,144.0614,0,1 @ F,0,1,1,0,12.167169,0,1 @ F,0,1,1,0,12.167169,0,1"
       radius="0"
       unit="px"
       method="auto"
       mode="C"
       chamfer_steps="1"
       flexible="false"
       use_knot_distance="true"
       apply_no_radius="true"
       apply_with_radius="true"
       only_selected="false"
       hide_knots="false" /></defs><g
     inkscape:label="Layer 1"
     inkscape:groupmode="layer"
     id="layer1"><g
       id="g18"
       transform="translate(-12.8514,-17.071696)"><path
         id="circle18"
         style="display:inline;fill:#fff633;fill-opacity:1;stroke:none;stroke-width:3;stroke-linecap:round;stroke-linejoin:round;stroke-dasharray:none;stroke-opacity:1"
         d="m 262.85166,100.55562 a 135.64621,135.64621 0 0 0 -65.27302,17.13074 h 131.18165 a 135.64621,135.64621 0 0 0 -65.90863,-17.13074 z m -75.10808,22.8601 a 135.64621,135.64621 0 0 0 -13.2979,9.95443 h 176.80523 a 135.64621,135.64621 0 0 0 -13.03951,-9.95443 z m -19.13372,15.6838 a 135.64621,135.64621 0 0 0 -13.72009,15.54944 H 371.2192 a 135.64621,135.64621 0 0 0 -13.69684,-15.54944 z m -18.00872,21.2788 a 135.64621,135.64621 0 0 0 -12.59354,23.37687 h 249.92634 a 135.64621,135.64621 0 0 0 -12.62248,-23.37687 z m -14.73036,29.10624 a 135.64621,135.64621 0 0 0 -7.83673,35.12705 h 269.93597 a 135.64621,135.64621 0 0 0 -7.79487,-35.12705 z m -8.24653,40.85694 a 135.64621,135.64621 0 0 0 -0.41909,5.86062 135.64621,135.64621 0 0 0 7.08483,42.47906 H 391.4128 a 135.64621,135.64621 0 0 0 7.08484,-42.47906 135.64621,135.64621 0 0 0 -0.14366,-5.86062 z m 8.80256,54.06905 a 135.64621,135.64621 0 0 0 126.42485,87.43755 135.64621,135.64621 0 0 0 126.42432,-87.43755 z" /><path
         id="path12"
         style="fill:#ffad14;fill-opacity:1;stroke:none;stroke-width:3;stroke-linecap:round;stroke-linejoin:round;stroke-dasharray:none;stroke-opacity:1"
         d="m 358.61532,209.07923 c 1.53974,2.80209 0.96057,8.15384 0.99477,8.12922 -2.37079,4.50517 -4.1399,0.97509 -4.08812,0.87901 -0.50352,-2.45483 -2.32068,-4.57995 -2.31769,-4.5837 2.04095,8.57603 -0.21525,12.47824 -0.30179,12.47883 -0.88709,-3.92572 -4.78007,-9.01185 -4.78007,-9.01185 0,0 -0.59566,0.48055 0.30903,2.21433 0.90466,1.73377 1.26193,3.30057 1.26193,3.30057 0,0 2.14635,3.86217 2.40141,5.44205 0.25505,1.57988 -7.09546,13.60663 -7.0621,13.57281 0.28676,-1.68114 -0.68666,-3.2938 -0.65681,-3.34656 0.0655,3.13494 -3.05697,5.5557 -6.76496,8.23619 -6.19195,3.40906 -6.11742,-0.36978 -6.15415,-0.45475 0.50081,-1.1017 0.60618,-4.51254 0.30438,-6.02444 -0.43067,-2.28059 -0.21601,-5.34386 -0.21601,-5.34386 0,0 -1.24229,3.73963 -1.17047,5.04879 0.645,6.94551 -4.50296,12.183 -4.47932,12.20597 -1.6625,-0.21393 -3.11557,0.86196 -3.11557,0.86196 0,0 -2.90349,0.42216 -4.40128,0.33797 -1.43124,-0.99167 -3.46181,-0.84382 -3.50625,-0.84233 -7.80827,-7.54514 -6.98212,-16.49409 -7.02902,-16.44344 -1.84362,6.93622 1.98455,13.41192 2.03708,13.41417 -0.99623,-0.97406 -2.92825,-0.65504 -2.93574,-0.71572 -10.09211,-1.15804 -10.23053,-8.84252 -10.19679,-8.86354 -0.88933,1.49368 -0.92716,3.45093 -0.88832,3.41322 -17.13381,-16.99105 -4.72891,-32.16392 -4.72891,-32.16392 0,0 -2.52251,1.21198 -2.51354,1.22059 -0.16722,-1.27364 0.33255,-2.35964 0.30592,-2.31355 -5.45247,5.0212 -4.9469,15.21574 -4.81366,17.69453 0.13332,2.47873 -1.17047,2.35593 -1.17047,2.35593 0,0 -1.07601,-4.58173 -1.06763,-4.56975 -0.67354,1.37461 -0.66118,4.21784 -0.63717,4.22868 -8.24848,-3.78278 -5.43233,-17.38204 -5.47512,-17.27595 -6.69209,16.35921 6.09788,22.12152 6.12056,22.14801 4.3674,12.68121 22.55686,16.95633 24.86308,17.64646 2.30621,0.69014 5.00802,2.37738 4.88652,2.39676 0.14001,1.67656 -1.2472,1.54796 -1.32343,1.52342 -4.16223,-3.59754 -10.18307,-5.32899 -10.83603,-5.52628 -3.81461,-1.91227 -2.46324,0.78171 -2.47117,0.79892 2.53523,10.94196 10.36253,10.58264 10.37818,10.6071 3.30276,1.84134 3.17054,4.06076 3.18843,3.99356 -4.90964,13.11559 -8.15195,14.35519 -8.15195,14.35519 0,0 -18.46779,1.22961 -22.1077,2.9099 -3.63989,1.68029 -10.10606,1.63309 -10.16682,1.63608 -8.88266,0.2322 -29.5986,-3.3604 -29.55065,-3.29644 -31.5847,0.59569 -23.45566,31.38417 -23.43681,31.34951 0.21843,1.26132 0.57461,2.38714 0.98547,3.45405 0.27239,15.39799 -6.30898,24.70984 -6.37584,24.74888 -2.85483,1.20002 -3.34037,3.8163 -3.34037,3.8163 0,0 -0.60897,10.64164 -0.77256,10.61434 -1.68158,-0.0548 -1.33503,3.10409 -1.42213,3.29799 0.0551,0.2535 0.0895,0.5523 0.11575,0.86765 a 135.64621,135.64621 0 0 0 5.69578,2.15232 l 0.89348,-5.05964 c 0,0 3.00871,-7.84169 8.1008,-11.51816 4.34678,-3.13836 11.99799,-13.71919 14.25288,-16.89871 0.71688,0.0977 1.2398,0.14993 1.24333,0.14728 0.52219,3.86078 -5.74019,9.80806 -8.2982,11.77706 -2.55799,1.96898 -3.21446,3.9092 -3.10937,4.77128 1.14625,2.16194 3.88114,13.6021 6.03271,22.89783 a 135.64621,135.64621 0 0 0 5.44979,1.18546 c -0.68849,-3.10854 -1.44225,-6.67157 -2.1549,-10.65207 -1.83354,-10.24098 4.61387,-12.67311 4.66999,-12.7465 5.43837,-2.17834 13.12785,-11.12141 13.23744,-11.15178 6.94113,2.36419 16.19378,2.18696 23.18463,1.5658 0.0105,0.003 0.0161,0.006 0.0269,0.008 2.47391,0.605 6.0581,15.47462 6.73809,19.49131 0.11674,1.5221 -0.47129,10.38681 -1.1622,15.06782 a 135.64621,135.64621 0 0 0 4.31136,-0.78962 c 0.4174,-5.18159 1.52911,-13.50047 1.52911,-13.50047 0.42981,-9.18122 1.31829,-15.48102 3.80804,-20.87831 1.95455,3.21621 4.09843,18.80011 4.09897,18.77508 1.06465,2.23548 2.0611,8.15932 2.69441,12.96459 a 135.64621,135.64621 0 0 0 4.70256,-1.21233 c -0.69128,-9.30541 -0.45527,-18.99523 -0.45527,-18.99523 0,0 0.005,-0.13899 1.12137,-10.71304 1.11677,-10.57403 12.03897,-14.22791 12.07369,-14.23014 21.31734,-11.71259 18.39672,-31.10987 17.51314,-34.71622 -1.64365,-4.33805 -2.45822,-17.65334 -2.58382,-19.7957 -0.12564,-2.14233 0.28669,-2.47454 0.2837,-2.53627 0.84349,-2.82751 2.80436,-3.33598 2.76469,-3.32745 2.18794,0.33937 5.27926,-1.51102 5.27926,-1.51102 0,0 4.33214,-3.61185 5.11029,-7.43985 0.77817,-3.82802 -2.222,-2.12882 -3.83853,-1.2914 -1.92903,1.0191 -9.78493,4.51187 -9.78493,4.51187 -1.22318,-0.62054 -0.9125,-1.47662 -0.84129,-1.4826 1.1202,-2.65279 15.97245,-7.42521 16.00522,-7.42745 6.71953,-1.97648 10.25069,-6.32406 11.82874,-8.12147 2.42649,-1.81814 0.59287,-9.35835 0.64233,-9.38909 0.83762,-1.30817 1.50595,-4.19543 1.25057,-3.54449 -0.25537,0.65096 -1.67483,2.13527 -1.67483,2.13527 l 0.17208,-0.95446 c 0,0 0.77186,-1.33063 1.71049,-3.39927 0.93863,-2.06865 3.10371,-3.29172 3.06287,-3.29696 -1.23259,0.28172 -0.9257,-0.46375 -0.9462,-0.50281 1.59445,-7.88953 -2.35513,-10.82315 -2.36523,-10.79159 z m -2.47789,21.66276 c 0,0 2.09576,6.38706 -5.71541,10.50582 0.0163,-0.002 4.76324,-5.73384 5.71541,-10.50582 z" /></g><text
       xml:space="preserve"
       style="font-size:32.7307px;line-height:1;font-family:'Quicksand Medium';-inkscape-font-specification:'Quicksand Medium, ';letter-spacing:0px;word-spacing:0px;fill:#060400;fill-opacity:1;stroke:none;stroke-width:8.69811;stroke-linecap:round;stroke-linejoin:round;stroke-dasharray:none;stroke-opacity:1"
       x="143.4455"
       y="419.48358"
       id="text18"><tspan
         sodipodi:role="line"
         id="tspan18"
         style="fill:#060400;fill-opacity:1;stroke-width:8.69811"
         x="143.4455"
         y="419.48358">National Park</tspan></text></g></svg>
