<?xml version="1.0" encoding="UTF-8" standalone="no"?>
<!-- Created with Inkscape (http://www.inkscape.org/) -->

<svg
   width="500mm"
   height="500mm"
   viewBox="0 0 500 500"
   version="1.1"
   id="svg1"
   inkscape:version="1.3.2 (091e20e, 2023-11-25)"
   sodipodi:docname="Neptune Cloud.svg"
   xmlns:inkscape="http://www.inkscape.org/namespaces/inkscape"
   xmlns:sodipodi="http://sodipodi.sourceforge.net/DTD/sodipodi-0.dtd"
   xmlns="http://www.w3.org/2000/svg"
   xmlns:svg="http://www.w3.org/2000/svg">
  <sodipodi:namedview
     id="namedview1"
     pagecolor="#ffffff"
     bordercolor="#000000"
     borderopacity="0.25"
     inkscape:showpageshadow="2"
     inkscape:pageopacity="0.0"
     inkscape:pagecheckerboard="0"
     inkscape:deskcolor="#d1d1d1"
     inkscape:document-units="mm"
     showgrid="false"
     showguides="true"
     inkscape:zoom="0.25982083"
     inkscape:cx="944.88189"
     inkscape:cy="944.88189"
     inkscape:window-width="1356"
     inkscape:window-height="697"
     inkscape:window-x="0"
     inkscape:window-y="0"
     inkscape:window-maximized="1"
     inkscape:current-layer="layer1" />
  <defs
     id="defs1" />
  <g
     inkscape:label="Layer 1"
     inkscape:groupmode="layer"
     id="layer1">
    <rect
       style="fill:#000000;fill-opacity:1;stroke:none;stroke-width:3;stroke-linecap:round;stroke-linejoin:round;stroke-opacity:1"
       id="rect4"
       width="500"
       height="500"
       x="0"
       y="0" />
    <g
       id="g6"
       transform="translate(10.2663,13.093285)">
      <g
         id="g4"
         transform="matrix(0.42141956,0,0,0.42141956,37.236517,137.06959)">
        <path
           id="path1"
           style="fill:#00ddfb;fill-opacity:1;stroke:none;stroke-width:3.56389;stroke-linecap:round;stroke-linejoin:round"
           d="m 314.07695,169.246 a 56.649117,56.649117 0 0 0 -49.81349,-29.74961 56.649117,56.649117 0 0 0 -42.16952,18.90841 65.028351,65.028351 0 0 0 -49.95923,-23.41717 65.028351,65.028351 0 0 0 -65.02807,65.02859 65.028351,65.028351 0 0 0 2.19108,16.28324 61.295551,61.295551 0 0 0 -2.65513,-0.0651 61.295551,61.295551 0 0 0 -61.295487,61.29548 61.295551,61.295551 0 0 0 61.295487,61.296 61.295551,61.295551 0 0 0 0.97513,-0.0698 h 149.43171 z" />
        <path
           id="path4"
           style="fill:#ffffff;fill-opacity:1;stroke:none;stroke-width:3.30516;stroke-linecap:round;stroke-linejoin:round"
           d="m 329.19261,181.60578 -52.88752,157.20423 h 84.74273 c 13.98881,0.14844 41.91038,-6.28231 41.91033,-34.6751 -0.004,-15.74567 -10.41714,-29.59226 -25.54349,-33.96486 0.7017,-3.04858 1.07445,-6.16361 1.11185,-9.29168 0,-24.16599 -19.5904,-43.75639 -43.75639,-43.7564 -0.15102,0.0101 -0.30199,0.0209 -0.4529,0.0326 0.76376,-3.48359 1.17083,-7.03589 1.2149,-10.60195 -0.0119,-8.71264 -2.19045,-17.28554 -6.33951,-24.94683 z"
           sodipodi:nodetypes="cccccccccsc" />
      </g>
      <text
         xml:space="preserve"
         style="font-style:normal;font-variant:normal;font-weight:600;font-stretch:normal;font-size:50.1296px;line-height:1;font-family:Outfit;-inkscape-font-specification:'Outfit Semi-Bold';letter-spacing:0px;word-spacing:0px;fill:#00ddfb;fill-opacity:1;stroke:none;stroke-width:13.3219;stroke-linecap:round;stroke-linejoin:round;stroke-opacity:1"
         x="229.47041"
         y="229.19711"
         id="text4"><tspan
           sodipodi:role="line"
           id="tspan4"
           style="font-style:normal;font-variant:normal;font-weight:600;font-stretch:normal;font-family:Outfit;-inkscape-font-specification:'Outfit Semi-Bold';stroke-width:13.3219"
           x="229.47041"
           y="229.19711">Neptune </tspan><tspan
           sodipodi:role="line"
           style="font-style:normal;font-variant:normal;font-weight:600;font-stretch:normal;font-family:Outfit;-inkscape-font-specification:'Outfit Semi-Bold';fill:#ffffff;fill-opacity:1;stroke-width:13.3219"
           x="229.47041"
           y="279.32672"
           id="tspan5">Cloud</tspan></text>
    </g>
  </g>
</svg>
