<?xml version="1.0" encoding="UTF-8" standalone="no"?>
<!-- Created with Inkscape (http://www.inkscape.org/) -->

<svg
   width="500mm"
   height="500mm"
   viewBox="0 0 500 500"
   version="1.1"
   id="svg1"
   inkscape:version="1.3.2 (091e20e, 2023-11-25)"
   sodipodi:docname="ORGANIC.svg"
   xmlns:inkscape="http://www.inkscape.org/namespaces/inkscape"
   xmlns:sodipodi="http://sodipodi.sourceforge.net/DTD/sodipodi-0.dtd"
   xmlns:xlink="http://www.w3.org/1999/xlink"
   xmlns="http://www.w3.org/2000/svg"
   xmlns:svg="http://www.w3.org/2000/svg">
  <sodipodi:namedview
     id="namedview1"
     pagecolor="#ffffff"
     bordercolor="#000000"
     borderopacity="0.25"
     inkscape:showpageshadow="2"
     inkscape:pageopacity="0.0"
     inkscape:pagecheckerboard="0"
     inkscape:deskcolor="#d1d1d1"
     inkscape:document-units="mm"
     showgrid="false"
     showguides="true"
     inkscape:zoom="0.25982083"
     inkscape:cx="944.88189"
     inkscape:cy="944.88189"
     inkscape:window-width="1356"
     inkscape:window-height="697"
     inkscape:window-x="0"
     inkscape:window-y="0"
     inkscape:window-maximized="1"
     inkscape:current-layer="layer1" />
  <defs
     id="defs1">
    <linearGradient
       id="linearGradient3"
       inkscape:collect="always">
      <stop
         style="stop-color:#00b740;stop-opacity:1;"
         offset="0"
         id="stop3" />
      <stop
         style="stop-color:#00ee3f;stop-opacity:1;"
         offset="1"
         id="stop4" />
    </linearGradient>
    <inkscape:path-effect
       effect="powerstroke"
       id="path-effect3"
       is_visible="true"
       lpeversion="1.3"
       scale_width="1"
       interpolator_type="CentripetalCatmullRom"
       interpolator_beta="0.2"
       start_linecap_type="zerowidth"
       end_linecap_type="zerowidth"
       offset_points="0.39196929,3.7602448 | 1.0034167,19.115678 | 1.6040229,4.5530693"
       linejoin_type="round"
       miter_limit="4"
       not_jump="false"
       sort_points="true"
       message="&lt;b&gt;Ctrl + click&lt;/b&gt; on existing node and move it" />
    <inkscape:path-effect
       effect="powerstroke"
       id="path-effect1"
       is_visible="true"
       lpeversion="1.3"
       scale_width="1"
       interpolator_type="CentripetalCatmullRom"
       interpolator_beta="0.2"
       start_linecap_type="zerowidth"
       end_linecap_type="zerowidth"
       offset_points="0.39196929,3.7602448 | 1.0034167,19.115678 | 1.6040229,4.5530693"
       linejoin_type="round"
       miter_limit="4"
       not_jump="false"
       sort_points="true"
       message="&lt;b&gt;Ctrl + click&lt;/b&gt; on existing node and move it" />
    <linearGradient
       inkscape:collect="always"
       xlink:href="#linearGradient3"
       id="linearGradient4"
       x1="421.46118"
       y1="404.75601"
       x2="75.421242"
       y2="95.055763"
       gradientUnits="userSpaceOnUse"
       gradientTransform="matrix(0.23004967,0,0,0.23004967,56.949134,192.48796)" />
  </defs>
  <g
     inkscape:label="Layer 1"
     inkscape:groupmode="layer"
     id="layer1">
    <path
       id="text1"
       style="font-weight:600;font-size:314.252px;line-height:1.5;font-family:Outfit;-inkscape-font-specification:'Outfit Semi-Bold';letter-spacing:0px;word-spacing:0px;fill:url(#linearGradient4);fill-opacity:1;stroke-width:10;stroke-dasharray:none"
       d="m 124.81934,214.04834 c -2.15243,-0.0298 -4.44449,0.11136 -6.79022,0.55546 -4.57934,0.86676 -9.31319,2.90305 -13.04976,6.77425 -0.0518,0.0537 -0.10363,0.10779 -0.15505,0.16223 -2.31122,2.4587 -4.887474,4.69157 -7.968274,6.58802 -3.17946,1.95717 -6.63001,3.40505 -9.870435,4.29504 -1.490608,0.4094 -2.900163,0.6891 -4.154375,0.8336 -2.626272,0.30259 -5.106682,0.2522 -6.500102,0.2054 -1.453133,-0.0489 -1.698962,-0.0614 -1.722331,0.0472 -0.01732,0.0806 0.199468,0.2473 1.622429,0.625 1.496485,0.39721 3.649866,0.84127 6.55205,1.28916 1.27919,0.19743 2.799178,0.45565 4.427711,0.66974 3.481273,0.4577 7.863533,0.77104 12.488703,-0.11104 4.599274,-0.87728 9.342954,-2.94301 13.094494,-6.83738 0.0326,-0.0337 0.0657,-0.0671 0.0984,-0.10068 2.29952,-2.35975 4.83858,-4.46812 7.98107,-6.30988 3.24514,-1.90195 6.77942,-3.30094 10.10539,-4.15039 1.46619,-0.37444 2.85885,-0.63212 4.11042,-0.76886 2.78731,-0.30452 5.31615,-0.26864 6.79423,-0.25254 1.53662,0.0167 1.8065,-0.009 1.83502,-0.13981 0.0221,-0.10069 -0.19874,-0.31828 -1.69516,-0.76645 -1.54847,-0.46376 -3.86171,-0.98515 -6.86135,-1.46419 -1.28802,-0.2057 -2.7848,-0.4612 -4.39175,-0.67534 -1.78587,-0.23797 -3.79861,-0.43776 -5.95104,-0.46755 z m 4.35019,12.32407 c -1.86187,-0.0258 -3.84524,0.0964 -5.87432,0.48032 -3.96115,0.74975 -8.0553,2.51133 -11.28746,5.85993 -0.0448,0.0464 -0.0898,0.0928 -0.13424,0.13981 -1.99922,2.12677 -4.22759,4.05805 -6.89251,5.69848 -2.75025,1.69295 -5.735144,2.94498 -8.538134,3.7148 -1.28939,0.35414 -2.50922,0.59671 -3.59412,0.72171 -2.27174,0.26173 -4.417223,0.21791 -5.622547,0.17742 -1.256979,-0.0422 -1.469526,-0.0531 -1.489756,0.0408 -0.01547,0.0697 0.172568,0.21357 1.40344,0.54027 1.294469,0.3436 3.157707,0.7283 5.668103,1.11573 1.10652,0.17078 2.42121,0.39423 3.82989,0.57944 2.55461,0.33585 5.672764,0.57493 9.001674,0.17583 -0.75681,1.20443 -1.42823,2.47811 -2.00205,3.83068 -1.30129,3.13271 -1.95171,6.53044 -1.95171,10.19333 0,3.66286 0.67495,7.10888 2.02443,10.33798 1.34948,3.18092 3.20503,5.9765 5.56662,8.38628 2.40976,2.36158 5.20536,4.21712 8.38626,5.5666 3.22911,1.34949 6.69886,2.02365 10.40992,2.02365 3.71107,0 7.13333,-0.67416 10.26606,-2.02365 3.1809,-1.34948 5.95195,-3.20502 8.31354,-5.5666 2.40978,-2.40978 4.28905,-5.20536 5.63853,-8.38628 1.34947,-3.18091 2.02443,-6.60238 2.02443,-10.26525 0,-3.66286 -0.67496,-7.08514 -2.02443,-10.26606 -1.34948,-3.18091 -3.22875,-5.95196 -5.63853,-8.31354 -2.36159,-2.40978 -5.13264,-4.26532 -8.31354,-5.56661 -3.18092,-1.34947 -6.65148,-2.02444 -10.41073,-2.02444 -0.55762,0 -1.10715,0.0198 -1.65278,0.0503 2.66282,-1.4946 5.52037,-2.60851 8.22162,-3.2984 1.26826,-0.32391 2.47315,-0.54667 3.55575,-0.66495 2.41104,-0.2634 4.59896,-0.23213 5.87751,-0.2182 1.32919,0.0139 1.5618,-0.009 1.58647,-0.12141 0.0192,-0.0871 -0.17217,-0.27489 -1.46659,-0.66256 -1.33943,-0.40115 -3.33953,-0.8524 -5.93424,-1.26677 -1.11415,-0.17793 -2.40951,-0.399 -3.79952,-0.58424 -1.54479,-0.20585 -3.28516,-0.37864 -5.14701,-0.4044 z m 99.38531,7.17065 c -3.76447,0 -7.26347,0.67549 -10.49705,2.02683 -3.23356,1.30308 -6.05707,3.16149 -8.47018,5.5746 -2.41312,2.36485 -4.29519,5.13943 -5.64652,8.32473 -1.35136,3.13704 -2.02685,6.56425 -2.02685,10.28044 0,3.66793 0.65102,7.09433 1.95411,10.27964 1.35134,3.13705 3.20974,5.91244 5.5746,8.32554 2.4131,2.41311 5.18849,4.29519 8.32552,5.64653 3.18531,1.30307 6.58725,1.95411 10.20692,1.95411 4.92275,0 9.26692,-1.01325 13.03137,-3.04027 3.81271,-2.07527 6.80431,-5.14026 8.9761,-9.19428 2.17181,-4.10228 3.25845,-9.19377 3.25845,-15.2748 v -1.37546 h -25.91729 v 8.54291 l 15.3699,0.1494 c -0.30053,1.51273 -0.75828,2.89364 -1.39784,4.12161 -1.20655,2.26831 -2.94422,4.00518 -5.21254,5.21175 -2.26833,1.15829 -4.99478,1.73752 -8.18008,1.73752 -3.08877,0 -5.83969,-0.72364 -8.25281,-2.1715 -2.36484,-1.44788 -4.24692,-3.45069 -5.64653,-6.00859 -1.35134,-2.60615 -2.02763,-5.59853 -2.02763,-8.97689 0,-3.37837 0.69997,-6.32261 2.09956,-8.83225 1.39961,-2.5579 3.32982,-4.53625 5.7912,-5.93585 2.50963,-1.44786 5.38129,-2.17229 8.61485,-2.17229 2.84747,0 5.45398,0.55555 7.81883,1.66559 2.36484,1.11002 4.34399,2.70249 5.93664,4.77776 l 6.65995,-6.65994 c -2.31658,-2.84748 -5.23637,-5.04363 -8.75952,-6.58801 -3.52314,-1.59266 -7.38436,-2.38889 -11.58316,-2.38889 z m 177.65267,0 c -3.76446,0 -7.239,0.67549 -10.42431,2.02683 -3.13703,1.35135 -5.91242,3.20976 -8.32552,5.5746 -2.36486,2.36485 -4.1988,5.13943 -5.50188,8.32473 -1.25481,3.18531 -1.88218,6.61252 -1.88218,10.28044 0,3.66793 0.62737,7.09433 1.88218,10.27964 1.30308,3.18531 3.13702,5.98435 5.50188,8.39748 2.4131,2.36483 5.21215,4.22325 8.39746,5.57459 3.1853,1.30307 6.63618,1.95411 10.35237,1.95411 4.15054,0 7.79476,-0.65104 10.9318,-1.95411 3.13704,-1.30308 5.88796,-3.13702 8.25281,-5.50187 l -6.66076,-6.66074 c -1.39959,1.59265 -3.13646,2.82369 -5.21175,3.69242 -2.027,0.86872 -4.46463,1.30274 -7.3121,1.30274 -2.36486,0 -4.53654,-0.40955 -6.5153,-1.23002 -1.93048,-0.82046 -3.62002,-1.9789 -5.06789,-3.47503 -1.44786,-1.54439 -2.55737,-3.35466 -3.32957,-5.42993 -0.7722,-2.07529 -1.15808,-4.39138 -1.15808,-6.94928 0,-2.50963 0.38588,-4.80205 1.15808,-6.87734 0.7722,-2.12353 1.88171,-3.93379 3.32957,-5.42993 1.44787,-1.54439 3.13741,-2.70284 5.06789,-3.47503 1.97876,-0.82047 4.15044,-1.23081 6.5153,-1.23081 2.70267,0 5.06771,0.43481 7.09471,1.30353 2.02702,0.86873 3.74023,2.0753 5.13982,3.6197 l 6.65995,-6.65995 c -2.36483,-2.31658 -5.09128,-4.12686 -8.18007,-5.42994 -3.08878,-1.35134 -6.6604,-2.02683 -10.71441,-2.02683 z m -246.6794,0.79603 v 50.89308 h 9.84485 v -21.28418 h 1.71116 l 16.24266,21.28418 H 199.272 l -17.03069,-21.47599 c 2.12825,-0.25732 4.07379,-0.78312 5.80957,-1.61763 2.50963,-1.25481 4.43984,-2.96802 5.79118,-5.13982 1.39961,-2.22006 2.09957,-4.82657 2.09957,-7.81883 0,-2.89572 -0.69996,-5.45329 -2.09957,-7.67336 -1.35134,-2.22006 -3.28155,-3.95774 -5.79118,-5.21255 -2.46138,-1.30308 -5.33304,-1.9549 -8.61487,-1.9549 h -10.06305 z m 115.72067,0 -20.48734,50.89308 h 10.27964 l 3.63247,-9.4836 h 20.94532 l 3.58292,9.4836 h 10.49703 L 283.2842,234.33909 Z m 34.45862,0 v 50.89308 h 9.84566 v -32.81141 l 25.33786,32.81141 h 7.09392 v -50.89308 h -9.91759 v 32.99842 l -25.48251,-32.99842 z m 52.62981,0 v 50.89308 h 9.84567 v -50.89308 z m -192.96425,8.03621 h 9.1943 c 2.41311,0 4.27153,0.67549 5.5746,2.02684 1.35134,1.30307 2.02684,2.94367 2.02684,4.92243 0,2.17179 -0.6755,3.885 -2.02684,5.13982 -1.30307,1.20655 -3.16149,1.81024 -5.5746,1.81024 h -9.1943 z m -41.44464,0.27653 c 2.45797,0 4.67514,0.40989 6.65117,1.22922 1.97602,0.81931 3.68674,1.9999 5.13262,3.54215 1.44587,1.49408 2.55445,3.27763 3.32557,5.35003 0.77113,2.07241 1.15648,4.36156 1.15648,6.86774 0,3.42189 -0.69869,6.40976 -2.09636,8.96412 -1.34947,2.55437 -3.22875,4.55472 -5.63853,6.00059 -2.40979,1.44586 -5.25365,2.16908 -8.53095,2.16908 -2.36157,0 -4.5542,-0.40988 -6.57842,-1.2292 -1.97602,-0.81934 -3.68756,-1.97616 -5.13343,-3.47024 -1.39767,-1.49405 -2.50545,-3.30133 -3.32477,-5.42194 -0.77114,-2.1206 -1.15728,-4.45804 -1.15728,-7.01241 0,-3.3737 0.67497,-6.33781 2.02444,-8.89218 1.39767,-2.55438 3.30148,-4.53019 5.71127,-5.92786 2.45797,-1.44587 5.27729,-2.1691 8.45819,-2.1691 z m 151.28943,5.56662 7.28334,19.27731 H 271.8345 Z" />
  </g>
</svg>
