<?xml version="1.0" encoding="UTF-8" standalone="no"?>
<!-- Created with Inkscape (http://www.inkscape.org/) -->

<svg
   width="500mm"
   height="500mm"
   viewBox="0 0 500 500"
   version="1.1"
   id="svg1"
   inkscape:version="1.3.2 (091e20e, 2023-11-25)"
   xml:space="preserve"
   sodipodi:docname="Organic Hanan.svg"
   xmlns:inkscape="http://www.inkscape.org/namespaces/inkscape"
   xmlns:sodipodi="http://sodipodi.sourceforge.net/DTD/sodipodi-0.dtd"
   xmlns="http://www.w3.org/2000/svg"
   xmlns:svg="http://www.w3.org/2000/svg"><sodipodi:namedview
     id="namedview1"
     pagecolor="#ffffff"
     bordercolor="#000000"
     borderopacity="0.25"
     inkscape:showpageshadow="2"
     inkscape:pageopacity="0.0"
     inkscape:pagecheckerboard="0"
     inkscape:deskcolor="#d1d1d1"
     inkscape:document-units="mm"
     showgrid="false"
     showguides="true"
     inkscape:zoom="0.25982083"
     inkscape:cx="944.88189"
     inkscape:cy="944.88189"
     inkscape:window-width="1356"
     inkscape:window-height="697"
     inkscape:window-x="0"
     inkscape:window-y="0"
     inkscape:window-maximized="1"
     inkscape:current-layer="layer1" /><defs
     id="defs1"><inkscape:path-effect
       effect="fillet_chamfer"
       id="path-effect23"
       is_visible="true"
       lpeversion="1"
       nodesatellites_param="F,0,0,1,0,0,0,1 @ F,0,0,1,0,0,0,1 @ F,0,0,1,0,0,0,1 @ F,0,0,1,0,0,0,1 @ F,0,0,1,0,0,0,1 @ F,0,0,1,0,0,0,1 @ F,0,0,1,0,1.507101,0,1 @ F,0,0,1,0,1.507101,0,1 @ F,0,0,1,0,0,0,1 @ F,0,0,1,0,0,0,1 @ F,0,0,1,0,0,0,1 | F,0,0,1,0,0,0,1 @ F,0,0,1,0,0,0,1 @ F,0,0,1,0,1.4825331,0,1 @ F,0,1,1,0,1.4825331,0,1 @ F,0,0,1,0,0,0,1 @ F,0,0,1,0,0,0,1"
       radius="0"
       unit="px"
       method="auto"
       mode="F"
       chamfer_steps="1"
       flexible="false"
       use_knot_distance="true"
       apply_no_radius="true"
       apply_with_radius="true"
       only_selected="false"
       hide_knots="false" /><inkscape:path-effect
       effect="fillet_chamfer"
       id="path-effect22"
       is_visible="true"
       lpeversion="1"
       nodesatellites_param="F,0,0,1,0,0,0,1 @ F,0,1,1,0,1.0424624,0,1 @ F,0,0,1,0,1.0424624,0,1 @ F,0,0,1,0,0,0,1 @ F,0,0,1,0,0,0,1 @ F,0,0,1,0,0,0,1 @ F,0,0,1,0,0,0,1 @ F,0,0,1,0,0,0,1 | F,0,0,1,0,0,0,1 @ F,0,0,1,0,0,0,1 @ F,0,0,1,0,0,0,1 @ F,0,0,1,0,0,0,1 @ F,0,0,1,0,0,0,1 @ F,0,0,1,0,0,0,1"
       radius="0"
       unit="px"
       method="auto"
       mode="F"
       chamfer_steps="1"
       flexible="false"
       use_knot_distance="true"
       apply_no_radius="true"
       apply_with_radius="true"
       only_selected="false"
       hide_knots="false" /><inkscape:path-effect
       effect="fillet_chamfer"
       id="path-effect21"
       is_visible="true"
       lpeversion="1"
       nodesatellites_param="F,0,0,1,0,0,0,1 @ F,0,1,1,0,1.4594018,0,1 @ F,0,0,1,0,1.4594018,0,1 @ F,0,0,1,0,0,0,1 @ F,0,0,1,0,0,0,1 @ F,0,0,1,0,0,0,1 @ F,0,0,1,0,0,0,1 @ F,0,0,1,0,0,0,1 | F,0,0,1,0,0,0,1 @ F,0,0,1,0,0,0,1 @ F,0,0,1,0,0,0,1 @ F,0,0,1,0,0,0,1 @ F,0,0,1,0,0,0,1 @ F,0,0,1,0,0,0,1"
       radius="0"
       unit="px"
       method="auto"
       mode="F"
       chamfer_steps="1"
       flexible="false"
       use_knot_distance="true"
       apply_no_radius="true"
       apply_with_radius="true"
       only_selected="false"
       hide_knots="false" /><inkscape:path-effect
       effect="fillet_chamfer"
       id="path-effect20"
       is_visible="true"
       lpeversion="1"
       nodesatellites_param="F,0,0,1,0,0,0,1 @ F,0,0,1,0,0,0,1 @ F,0,1,1,0,0,0,1 @ F,0,0,1,0,0,0,1 @ F,0,0,1,0,0,0,1 @ F,0,0,1,0,0,0,1 @ F,0,0,1,0,0,0,1 @ F,0,0,1,0,0,0,1 | F,0,0,1,0,0,0,1 @ F,0,0,1,0,0,0,1 @ F,0,0,1,0,0,0,1 @ F,0,0,1,0,0,0,1 @ F,0,0,1,0,0,0,1 @ F,0,0,1,0,0,0,1"
       radius="0"
       unit="px"
       method="auto"
       mode="F"
       chamfer_steps="1"
       flexible="false"
       use_knot_distance="true"
       apply_no_radius="true"
       apply_with_radius="true"
       only_selected="false"
       hide_knots="false" /><inkscape:path-effect
       effect="fillet_chamfer"
       id="path-effect19"
       is_visible="true"
       lpeversion="1"
       nodesatellites_param="F,0,0,1,0,0,0,1 @ F,0,0,1,0,0,0,1 @ F,0,0,1,0,0,0,1 @ F,0,0,1,0,0,0,1 @ F,0,0,1,0,0,0,1 @ F,0,0,1,0,0,0,1 @ F,0,0,1,0,0,0,1 @ F,0,0,1,0,0,0,1 | F,0,1,1,0,1.5163329,0,1 @ F,0,0,1,0,0,0,1 @ F,0,0,1,0,0,0,1 @ F,0,0,1,0,0,0,1 @ F,0,0,1,0,0,0,1 @ F,0,0,1,0,1.5163329,0,1"
       radius="0"
       unit="px"
       method="auto"
       mode="F"
       chamfer_steps="1"
       flexible="false"
       use_knot_distance="true"
       apply_no_radius="true"
       apply_with_radius="true"
       only_selected="false"
       hide_knots="false" /><inkscape:path-effect
       effect="fillet_chamfer"
       id="path-effect18"
       is_visible="true"
       lpeversion="1"
       nodesatellites_param="F,0,0,1,0,0,0,1 @ F,0,0,1,0,0,0,1 @ F,0,0,1,0,0,0,1 @ F,0,0,1,0,0,0,1 @ F,0,0,1,0,0,0,1 @ F,0,0,1,0,0,0,1 @ F,0,0,1,0,0,0,1 @ F,0,0,1,0,0,0,1 | F,0,0,1,0,0,0,1 @ F,0,0,1,0,0,0,1 @ F,0,0,1,0,0,0,1 @ F,0,0,1,0,0,0,1 @ F,0,0,1,0,0,0,1 @ F,0,0,1,0,0,0,1"
       radius="0"
       unit="px"
       method="auto"
       mode="F"
       chamfer_steps="1"
       flexible="false"
       use_knot_distance="true"
       apply_no_radius="true"
       apply_with_radius="true"
       only_selected="false"
       hide_knots="false" /><inkscape:path-effect
       effect="fillet_chamfer"
       id="path-effect15"
       is_visible="true"
       lpeversion="1"
       nodesatellites_param="F,0,0,1,0,144.73259,0,1 @ F,0,1,1,0,144.73259,0,1 @ F,0,1,1,0,144.73259,0,1 @ F,0,1,1,0,144.73259,0,1"
       radius="0"
       unit="px"
       method="auto"
       mode="F"
       chamfer_steps="1"
       flexible="false"
       use_knot_distance="true"
       apply_no_radius="true"
       apply_with_radius="true"
       only_selected="false"
       hide_knots="false" /></defs><g
     inkscape:label="Layer 1"
     inkscape:groupmode="layer"
     id="layer1"><g
       id="g33"
       transform="translate(0,2.0947194e-5)"><circle
         style="fill:none;fill-opacity:1;stroke:#a9a199;stroke-width:0.0610229;stroke-linejoin:round;stroke-dasharray:none;stroke-opacity:1"
         id="circle14"
         cx="235.26704"
         cy="240.28401"
         r="1.8149229" /><path
         id="path15"
         style="color:#000000;fill:#a4f151;fill-opacity:0.933333;stroke-linejoin:round;-inkscape-stroke:none"
         d="m 241.23472,86.293943 c -0.84377,2.7e-4 -1.5278,0.67058 -1.52807,1.497583 -2e-5,0.827375 0.68436,1.498109 1.52859,1.498099 0.026,-0.0011 0.0521,-0.0028 0.078,-0.0052 0.01,2.26e-4 0.0154,0.0099 0.0253,0.0098 78.8672,-0.252667 142.97632,63.445555 143.22899,142.312755 4.5e-4,0.15069 -10e-4,0.30077 -0.004,0.45062 -0.0164,0.83202 0.63526,1.50637 1.46761,1.50637 0.82413,0 1.5153,-0.67419 1.53169,-1.50637 0.003,-0.15302 0.005,-0.30656 0.004,-0.46043 -0.25782,-80.48846 -65.7496,-145.560624 -146.23811,-145.302762 -0.002,6e-6 -0.003,0.0021 -0.005,0.0021 -0.0294,-0.0017 -0.0588,-0.0026 -0.0884,-0.0026 z M 96.09164,229.57047 c -0.0166,0.988 -0.06881,1.96736 -0.06563,2.96002 0.25209,78.68515 62.86718,142.5585 140.87099,145.14256 a 1.5,1.5 0 0 0 0.15038,0.0997 c 0.46452,0.0913 0.8992,0.16085 1.35961,0.24908 1.69774,1.38231 5.33247,3.68979 6.47867,6.9851 2.38183,6.84775 2.53703,13.40972 5.1077,19.74712 1.8783,6.50845 10.61739,6.95481 14.58516,2.12958 5.41658,-5.31693 3.44161,-14.18796 -1.34462,-19.23345 -2.11544,-2.89941 -4.84757,-5.18216 -7.90236,-6.93032 14.65046,1.84276 26.93219,2.01947 37.37084,1.11724 9.27533,3.85572 21.02333,17.93469 28.37605,24.72976 7.89516,6.46873 25.72828,12.41159 31.17536,-0.28681 3.21852,-14.10582 -11.63793,-24.25158 -23.96443,-26.29555 -5.5649,-0.97969 -10.32805,-1.49306 -14.94793,-1.67225 2.76559,-0.72379 5.38934,-1.50689 7.86257,-2.33836 14.93182,-5.01989 24.87796,-11.33738 35.22421,-13.49685 3.35958,4.42107 7.2139,8.51637 11.26649,12.37496 4.9567,4.37805 10.37499,8.6299 17.14934,9.87691 6.77437,1.24703 13.337,2.92122 17.70177,-2.49597 3.47753,-5.09827 0.0442,-11.41716 -4.29793,-14.73812 -6.44881,-5.68355 -14.52471,-8.51896 -22.9092,-9.37462 7.76803,-2.99577 14.72831,-7.79043 19.43757,-14.85956 3.33925,-4.32802 5.12268,-11.43171 0.35347,-15.34841 -2.40081,-1.97167 -5.05953,-2.86399 -7.79436,-2.8913 -3.51618,-0.0351 -7.15841,1.3598 -10.54199,3.72949 -6.01524,4.21277 -9.77374,9.76978 -13.43432,15.27762 -2.97271,4.85741 -5.69841,9.89365 -7.82123,15.12931 -0.0168,0.13805 0.0209,0.27336 0.0207,0.41134 -10.92145,2.29111 -20.86553,8.70694 -35.31154,13.56352 -6.43484,2.16331 -13.79537,4.04341 -22.54591,5.16557 11.57142,-4.71371 27.13634,-17.94626 36.75745,-26.1307 11.80472,-9.95349 20.76638,-18.91068 24.56077,-34.4563 1.49235,-6.1079 -1.96109,-12.34561 -7.11894,-15.55047 -2.50794,-1.47152 -5.30174,-2.19226 -8.13232,-2.27376 -6.22727,-0.17932 -12.6329,2.73439 -16.56695,7.54682 -21.42633,30.20865 -4.07313,34.37028 -37.20083,71.60287 -12.23339,0.83901 -26.95442,0.22055 -45.23445,-2.9006 6.91041,-0.84486 13.68371,-3.08832 19.74247,-6.48074 7.15424,-4.75974 14.08229,-10.02733 20.14709,-16.11581 5.25811,-5.27868 10.61004,-11.60412 11.55175,-19.35128 1.18436,-6.91458 -5.76627,-14.6933 -12.84108,-11.84785 -9.67549,5.94362 -15.12062,16.54394 -20.12539,26.38288 -5.2515,10.49524 -12.14137,22.08166 -23.75514,26.09298 -0.0503,-0.006 -0.0941,-0.0307 -0.14572,-0.0315 C 161.81684,373.47795 99.275402,310.4116 99.025857,232.52065 c -0.0032,-0.98938 0.04825,-1.96553 0.06511,-2.9502 z" /><path
         d="m 101.07742,189.46986 -1.120071,-0.35421 0.520151,-1.64479 q 0.10211,-0.32291 0.0539,-0.62675 -0.0482,-0.30385 -0.24253,-0.53179 -0.2044,-0.23115 -0.557574,-0.34283 -0.343093,-0.10846 -0.643228,-0.0369 -0.300135,0.0716 -0.514282,0.29245 -0.214148,0.22088 -0.316263,0.54378 l -0.520149,1.6448 -1.120073,-0.35421 0.564824,-1.78607 q 0.2138,-0.67608 0.655382,-1.12473 0.444768,-0.45874 1.04823,-0.612 0.593369,-0.15644 1.279543,0.0605 0.68616,0.21702 1.09178,0.68937 0.39552,0.46918 0.49566,1.10023 0.10332,0.62097 -0.11049,1.29706 z m 2.31458,1.84195 -7.093797,-2.24334 0.433988,-1.37234 7.093799,2.24333 z m 6.07299,-16.2766 q -0.35084,0.80531 -0.97488,1.2838 -0.62952,0.46457 -1.40688,0.55303 -0.77736,0.0885 -1.56327,-0.2539 l -4.18179,-1.82181 0.57487,-1.31955 4.2206,1.83873 q 0.45602,0.19866 0.86616,0.15831 0.41443,-0.0503 0.74249,-0.29991 0.3226,-0.26351 0.50013,-0.67102 0.18175,-0.4172 0.14658,-0.81347 -0.0449,-0.40049 -0.29443,-0.72856 -0.24535,-0.33777 -0.69166,-0.53221 l -4.23031,-1.84294 0.5791,-1.32925 4.19149,1.82604 q 0.78591,0.34238 1.25047,0.9719 0.45486,0.62529 0.54333,1.40265 0.083,0.76343 -0.27207,1.57844 z m 3.12987,-13.62175 -0.97563,-0.55374 0.85152,-1.50027 q 0.2612,-0.4602 0.17214,-0.83932 -0.093,-0.39354 -0.50722,-0.62862 -0.37737,-0.21418 -0.77215,-0.0975 -0.39877,0.10224 -0.65997,0.56244 l -0.85152,1.50027 -1.02165,-0.57987 0.91421,-1.61072 q 0.35523,-0.62588 0.87017,-0.95424 0.51096,-0.34278 1.08062,-0.36019 0.57488,-0.0266 1.12713,0.28685 0.57065,0.32389 0.84254,0.83111 0.26791,0.4928 0.23557,1.10724 -0.0416,0.60921 -0.40201,1.2443 z m 2.1836,2.45629 -6.47048,-3.6725 0.71047,-1.25176 6.47048,3.6725 z m 2.00604,-3.53438 -4.01003,0.54725 0.29405,-1.35426 4.57795,-0.71167 z m 5.6006,-8.87882 -6.06393,-4.31084 0.83396,-1.1731 6.06393,4.31082 z m 0.61321,-0.86259 -1.03509,-0.73585 2.38537,-3.35543 1.03509,0.73585 z m -2.59636,-1.84574 -1.00059,-0.71132 2.17074,-3.05353 1.0006,0.71132 z m -2.43248,-1.72924 -1.03509,-0.73584 2.35471,-3.31231 1.03509,0.73585 z m 20.5545,-15.09463 -0.82721,-0.83412 1.37518,-1.36377 q 0.36821,-0.36516 0.34754,-0.79181 -0.0132,-0.43411 -0.31871,-0.74221 -0.20866,-0.2104 -0.47024,-0.29381 -0.26158,-0.0834 -0.53881,-0.002 -0.27717,0.0662 -0.52515,0.31212 l -1.37517,1.36378 -0.81976,-0.82661 1.26245,-1.25199 q 0.31561,-0.313 0.34699,-0.65711 0.0388,-0.35158 -0.27412,-0.66718 -0.32045,-0.32313 -0.67234,-0.28718 -0.34435,0.0285 -0.65997,0.3415 l -1.26245,1.25199 -0.82721,-0.83412 1.38269,-1.37122 q 0.52602,-0.52167 1.07296,-0.67655 0.54702,-0.16984 1.04037,-0.0331 0.48589,0.12924 0.85105,0.49745 0.44714,0.45088 0.497,1.05725 0.0499,0.59142 -0.31959,1.27089 l -0.28281,-0.37536 q 0.75009,-0.41595 1.44577,-0.34571 0.69574,0.0553 1.22486,0.58881 0.41733,0.42083 0.54973,0.97516 0.13245,0.53937 -0.0572,1.14476 -0.18954,0.59041 -0.75314,1.14933 z m -0.75146,0.74524 -5.23897,-5.28277 1.01447,-1.00607 5.23897,5.28277 z m 10.71071,-9.93853 -4.68021,-5.78361 1.11888,-0.90541 4.68021,5.78361 z m 0.8227,-0.66575 -0.79889,-0.98724 3.20032,-2.58976 0.7989,0.98725 z m -2.0039,-2.47633 -0.77227,-0.95434 2.91238,-2.35674 0.77227,0.95433 z m -1.8774,-2.32002 -0.7989,-0.98726 3.15918,-2.55646 0.7989,0.98724 z m 14.00255,-2.87285 -1.54932,-7.86921 0.98449,-0.64095 6.56046,4.60673 -1.28604,0.83728 -5.26527,-3.85877 0.44346,-0.28871 1.37167,6.39368 z m 0.57396,-2.02802 -0.65827,-1.0111 3.35259,-2.18268 0.65826,1.0111 z m 15.66543,-7.44302 q -0.78294,0.39828 -1.56883,0.37061 -0.78125,-0.0419 -1.43738,-0.46808 -0.65612,-0.42616 -1.0448,-1.19023 l -2.06817,-4.065598 1.28289,-0.6526 2.08736,4.103328 q 0.22552,0.44334 0.5679,0.67289 0.35181,0.22475 0.7637,0.24084 0.41653,0.002 0.81271,-0.19969 0.40562,-0.20635 0.63053,-0.53449 0.22012,-0.33758 0.23619,-0.74947 0.0255,-0.41669 -0.19523,-0.8506 l -2.09215,-4.112758 1.2923,-0.6574 2.07297,4.075018 q 0.38868,0.76408 0.34677,1.54533 -0.0467,0.77182 -0.47287,1.42794 -0.42153,0.6419 -1.2139,1.04497 z m 12.85433,-5.870498 -2.61791,-6.794399 1.35295,-0.521303 2.61792,6.794402 z m -4.4267,-4.895237 -0.46043,-1.194955 5.77723,-2.22599 0.46041,1.194944 z m 17.56835,-2.477111 -3.97525,-3.658834 1.60361,-0.435023 3.1139,2.949438 -0.91927,0.249377 1.19646,-4.118737 1.5832,-0.429485 -1.61188,5.174493 z m 0.56705,2.817905 -0.95318,-3.513662 1.39933,-0.379605 0.95318,3.513663 z"
         id="text18"
         style="-inkscape-font-specification:'Outfit Semi-Bold';fill:#a4f151;fill-opacity:1;stroke-width:3;stroke-linejoin:round"
         inkscape:transform-center-x="119.04334"
         inkscape:transform-center-y="-68.321332"
         aria-label="  PURE BEAUTY" /><text
         xml:space="preserve"
         style="font-style:normal;font-variant:normal;font-weight:normal;font-stretch:normal;font-size:13.8435px;line-height:1;font-family:P052;-inkscape-font-specification:P052;letter-spacing:3.46088px;word-spacing:0px;fill:#a4f150;fill-opacity:0.933333;stroke:none;stroke-width:3.92415;stroke-linecap:round;stroke-linejoin:round;stroke-dasharray:none;stroke-opacity:1"
         x="163.68979"
         y="210.49229"
         id="text29"><tspan
           sodipodi:role="line"
           id="tspan29"
           style="font-style:normal;font-variant:normal;font-weight:normal;font-stretch:normal;font-family:P052;-inkscape-font-specification:P052;letter-spacing:3.46088px;fill:#a4f150;fill-opacity:0.933333;stroke-width:3.92415"
           x="163.68979"
           y="210.49229">ORGANIC</tspan></text><text
         xml:space="preserve"
         style="font-style:normal;font-variant:normal;font-weight:normal;font-stretch:normal;font-size:34.596px;line-height:1;font-family:P052;-inkscape-font-specification:P052;letter-spacing:8.64903px;word-spacing:0px;fill:#a4f150;fill-opacity:0.933333;stroke:none;stroke-width:9.8068;stroke-linecap:round;stroke-linejoin:round;stroke-dasharray:none;stroke-opacity:1"
         x="163.23325"
         y="245.95789"
         id="text30"><tspan
           sodipodi:role="line"
           id="tspan30"
           style="font-style:normal;font-variant:normal;font-weight:normal;font-stretch:normal;font-family:P052;-inkscape-font-specification:P052;letter-spacing:8.64903px;fill:#a4f150;fill-opacity:0.933333;stroke-width:9.8068"
           x="163.23325"
           y="245.95789">HANAN</tspan></text></g></g></svg>
