<?xml version="1.0" encoding="UTF-8" standalone="no"?>
<!-- Created with Inkscape (http://www.inkscape.org/) -->

<svg
   width="500mm"
   height="500mm"
   viewBox="0 0 500 500"
   version="1.1"
   id="svg1"
   inkscape:version="1.3.2 (091e20e, 2023-11-25)"
   sodipodi:docname="Pa Pe Po.svg"
   xmlns:inkscape="http://www.inkscape.org/namespaces/inkscape"
   xmlns:sodipodi="http://sodipodi.sourceforge.net/DTD/sodipodi-0.dtd"
   xmlns="http://www.w3.org/2000/svg"
   xmlns:svg="http://www.w3.org/2000/svg">
  <sodipodi:namedview
     id="namedview1"
     pagecolor="#ffffff"
     bordercolor="#000000"
     borderopacity="0.25"
     inkscape:showpageshadow="2"
     inkscape:pageopacity="0.0"
     inkscape:pagecheckerboard="0"
     inkscape:deskcolor="#d1d1d1"
     inkscape:document-units="mm"
     showgrid="false"
     showguides="true"
     inkscape:zoom="0.25982083"
     inkscape:cx="944.88189"
     inkscape:cy="944.88189"
     inkscape:window-width="1356"
     inkscape:window-height="697"
     inkscape:window-x="0"
     inkscape:window-y="0"
     inkscape:window-maximized="1"
     inkscape:current-layer="layer1" />
  <defs
     id="defs1" />
  <g
     inkscape:label="Layer 1"
     inkscape:groupmode="layer"
     id="layer1">
    <g
       id="g8"
       transform="translate(-8.7544825,28.34469)">
      <path
         id="path6"
         style="font-size:179.903px;font-family:'RED BURGER';-inkscape-font-specification:'RED BURGER';letter-spacing:0px;word-spacing:0px;fill:#fef100;stroke-width:76.0768;stroke-linecap:round;stroke-linejoin:bevel"
         d="m 119.56477,134.39765 c -3.48897,0 -10.33238,0.53672 -20.530894,1.61026 -10.198522,1.07353 -21.87364,5.16629 -35.024371,12.27842 -8.185661,4.96507 -12.27842,11.33935 -12.27842,19.12243 0,5.77023 2.885268,10.7348 8.655487,14.89473 2.818015,1.4761 4.964921,2.41552 6.441025,2.81809 1.476102,0.40257 2.616574,0.80526 3.421721,1.20784 1.073529,2.54962 1.610835,18.71961 1.610835,48.51005 0,18.51837 0.737782,37.1039 2.213884,55.75648 0.805147,7.24632 3.690419,12.41311 8.655488,15.4995 2.952211,1.87868 6.239578,2.81752 9.862739,2.81752 2.415447,0 5.032052,-0.40211 7.850076,-1.20726 7.24631,-2.41545 11.54071,-6.24013 12.88262,-11.47358 1.07353,-3.48896 1.61026,-7.38067 1.61026,-11.67479 0,-1.87867 -0.13404,-4.36125 -0.40243,-7.44765 -0.26838,-3.22058 -0.53703,-5.56854 -0.80541,-7.04465 -0.1342,-1.4761 -0.20122,-2.75119 -0.20122,-3.82472 0,-1.74449 0.26867,-3.28765 0.80543,-4.62955 0.67096,-1.47611 3.08594,-2.81821 7.24586,-4.02593 12.47977,-3.75736 24.28892,-9.4603 35.42678,-17.1092 11.13787,-7.64889 19.65905,-17.04247 25.56346,-28.18034 3.62317,-6.97793 5.43499,-14.69374 5.43499,-23.14779 0,-4.83088 -0.60432,-9.86305 -1.81205,-15.09651 -10.06433,-26.43565 -32.27292,-39.65335 -66.62586,-39.65335 z m 4.20921,25.81094 a 32.177416,32.177416 0 0 1 32.17795,32.17736 32.177416,32.177416 0 0 1 -32.17795,32.17736 32.177416,32.177416 0 0 1 -32.177348,-32.17736 32.177416,32.177416 0 0 1 32.177348,-32.17736 z" />
      <path
         id="path7"
         style="font-size:179.903px;font-family:'RED BURGER';-inkscape-font-specification:'RED BURGER';letter-spacing:0px;word-spacing:0px;fill:#fe0000;stroke-width:76.0768;stroke-linecap:round;stroke-linejoin:bevel"
         d="m 258.45267,134.39765 c -3.48897,0 -10.33296,0.53672 -20.53149,1.61026 -10.19852,1.07353 -21.87304,5.16629 -35.02379,12.27842 -8.18565,4.96507 -12.27842,11.33935 -12.27842,19.12243 0,5.77023 2.88527,10.7348 8.6555,14.89473 2.818,1.4761 4.96492,2.41552 6.44102,2.81809 1.4761,0.40257 2.61657,0.80526 3.42172,1.20784 1.07352,2.54962 1.61025,18.71961 1.61025,48.51005 0,18.51837 0.73836,37.1039 2.21447,55.75648 0.80514,7.24632 3.68983,12.41311 8.6549,15.4995 2.95221,1.87868 6.24017,2.81752 9.86333,2.81752 2.41544,0 5.03205,-0.40211 7.85007,-1.20726 7.24632,-2.41545 11.54071,-6.24013 12.88262,-11.47358 1.07353,-3.48896 1.61026,-7.38067 1.61026,-11.67479 0,-1.87867 -0.13462,-4.36125 -0.40299,-7.44765 -0.26839,-3.22058 -0.53646,-5.56854 -0.80485,-7.04465 -0.13418,-1.4761 -0.2012,-2.75119 -0.2012,-3.82472 0,-1.74449 0.26807,-3.28765 0.80483,-4.62955 0.67096,-1.47611 3.08652,-2.81821 7.24645,-4.02593 12.47977,-3.75736 24.28891,-9.4603 35.42678,-17.1092 11.13787,-7.64889 19.65906,-17.04247 25.56346,-28.18034 3.62316,-6.97793 5.4344,-14.69374 5.4344,-23.14779 0,-4.83088 -0.60374,-9.86305 -1.81146,-15.09651 -10.06434,-26.43565 -32.27292,-39.65335 -66.62586,-39.65335 z m 8.56297,25.11248 30.47345,34.58032 -34.57974,30.47286 -30.47344,-34.57974 z" />
      <path
         id="path8"
         style="font-size:179.903px;font-family:'RED BURGER';-inkscape-font-specification:'RED BURGER';letter-spacing:0px;word-spacing:0px;fill:#19fe00;stroke-width:76.0768;stroke-linecap:round;stroke-linejoin:bevel"
         d="m 397.33999,134.39765 c -3.48897,0 -10.33238,0.53672 -20.53091,1.61026 -10.19852,1.07353 -21.87305,5.16629 -35.02379,12.27842 -8.18565,4.96507 -12.279,11.33935 -12.279,19.12243 0,5.77023 2.88527,10.7348 8.65549,14.89473 2.81801,1.4761 4.96492,2.41552 6.44103,2.81809 1.47611,0.40257 2.61714,0.80526 3.42229,1.20784 1.07353,2.54962 1.61026,18.71961 1.61026,48.51005 0,18.51837 0.73779,37.1039 2.21388,55.75648 0.80516,7.24632 3.69042,12.41311 8.6555,15.4995 2.9522,1.87868 6.24016,2.81752 9.86332,2.81752 2.41543,0 5.03204,-0.40211 7.85007,-1.20726 7.24632,-2.41545 11.54013,-6.24013 12.88205,-11.47358 1.07352,-3.48896 1.61024,-7.38067 1.61024,-11.67479 0,-1.87867 -0.13404,-4.36125 -0.40241,-7.44765 -0.26839,-3.22058 -0.53646,-5.56854 -0.80484,-7.04465 -0.13419,-1.4761 -0.20179,-2.75119 -0.20179,-3.82472 0,-1.74449 0.26865,-3.28765 0.80542,-4.62955 0.67096,-1.47611 3.08652,-2.81821 7.24644,-4.02593 12.47978,-3.75736 24.28834,-9.4603 35.42621,-17.1092 11.13786,-7.64889 19.65905,-17.04247 25.56346,-28.18034 3.62316,-6.97793 5.43497,-14.69374 5.43497,-23.14779 0,-4.83088 -0.60374,-9.86305 -1.81146,-15.09651 -10.06433,-26.43565 -32.2735,-39.65335 -66.62643,-39.65335 z m -2.08379,23.67626 15.67469,17.13694 23.00325,-3.19796 -10.30333,18.17362 c -0.0796,0.87513 -0.29703,1.83968 -0.71233,2.93201 l 9.71127,19.9874 -21.98853,-4.49368 c -1.57585,1.27432 -3.055,2.40345 -4.41968,3.36101 l -13.07631,12.59006 -1.93982,-17.15717 c -0.0865,-0.62362 -0.15963,-1.28564 -0.22318,-1.9751 l -0.44579,-3.94498 -20.48928,-10.93413 20.67834,-9.40193 c 0.0623,-0.49368 0.0965,-0.94949 0.17346,-1.46281 0.15256,-1.017 0.49029,-1.94676 1.00895,-2.79034 z" />
    </g>
  </g>
</svg>
