<?xml version="1.0" encoding="UTF-8" standalone="no"?>
<!-- Created with Inkscape (http://www.inkscape.org/) -->

<svg
   width="500mm"
   height="500mm"
   viewBox="0 0 500 500"
   version="1.1"
   id="svg1"
   inkscape:version="1.3.2 (091e20e, 2023-11-25)"
   xml:space="preserve"
   sodipodi:docname="powerpoint.svg"
   xmlns:inkscape="http://www.inkscape.org/namespaces/inkscape"
   xmlns:sodipodi="http://sodipodi.sourceforge.net/DTD/sodipodi-0.dtd"
   xmlns="http://www.w3.org/2000/svg"
   xmlns:svg="http://www.w3.org/2000/svg"><sodipodi:namedview
     id="namedview1"
     pagecolor="#ffffff"
     bordercolor="#000000"
     borderopacity="0.25"
     inkscape:showpageshadow="2"
     inkscape:pageopacity="0.0"
     inkscape:pagecheckerboard="0"
     inkscape:deskcolor="#d1d1d1"
     inkscape:document-units="mm"
     showgrid="false"
     inkscape:zoom="0.25982083"
     inkscape:cx="594.64055"
     inkscape:cy="944.8819"
     inkscape:window-width="1356"
     inkscape:window-height="697"
     inkscape:window-x="0"
     inkscape:window-y="0"
     inkscape:window-maximized="1"
     inkscape:current-layer="layer1" /><defs
     id="defs1" /><g
     inkscape:label="Layer 1"
     inkscape:groupmode="layer"
     id="layer1"><g
       id="g1"
       transform="translate(7.6452439,3.9413981)"><circle
         style="fill:#c230d3;fill-opacity:1;stroke-width:10;stroke-linecap:round;stroke-linejoin:round"
         id="path1"
         cx="264.81351"
         cy="235.59366"
         r="177.9518" /><path
         id="circle3"
         style="fill:#de6bff;fill-opacity:1;stroke-width:10;stroke-linecap:round;stroke-linejoin:round"
         d="M 87.036516,233.14949 A 177.9518,177.9518 0 0 1 264.81378,57.641861 177.9518,177.9518 0 0 1 442.59052,233.14949 Z" /><path
         id="path4"
         style="fill:#c347ed;fill-opacity:1;stroke-width:10;stroke-linecap:round;stroke-linejoin:round"
         d="M 264.38564,57.64196 A 177.9518,177.9518 0 0 0 86.608384,233.14959 H 265.94988 V 57.744796 a 177.9518,177.9518 0 0 0 -1.56424,-0.102836 z" /><path
         id="rect6"
         style="opacity:0.38015;fill:#0e0e0e;fill-opacity:1;stroke-width:11.8525;stroke-linecap:round;stroke-linejoin:round"
         d="M 128.45573,121.55951 A 177.9518,177.9518 0 0 0 86.861882,235.59389 177.9518,177.9518 0 0 0 132.24309,354.04351 h 99.7443 c 13.02043,0 23.50296,-10.48202 23.50296,-23.50245 V 145.06195 c 0,-13.02043 -10.48253,-23.50244 -23.50296,-23.50244 z" /><path
         id="rect5"
         style="opacity:0.447596;fill:#0e0e0e;fill-opacity:1;stroke-width:10.7856;stroke-linecap:round;stroke-linejoin:round"
         d="M 120.62261,132.02295 A 177.9518,177.9518 0 0 0 86.861882,235.59389 177.9518,177.9518 0 0 0 123.92835,343.58006 h 99.71123 c 11.8484,0 21.38732,-9.53892 21.38732,-21.38732 V 153.41027 c 0,-11.8484 -9.53892,-21.38732 -21.38732,-21.38732 z" /><rect
         style="fill:#9b1cc4;fill-opacity:1;stroke-width:10;stroke-linecap:round;stroke-linejoin:round"
         id="rect4"
         width="196.14798"
         height="196.14798"
         x="41.174297"
         y="139.72751"
         ry="19.829279" /><text
         xml:space="preserve"
         style="font-style:normal;font-variant:normal;font-weight:bold;font-stretch:normal;font-size:186.73px;line-height:1.5;font-family:'Noto Sans Mono';-inkscape-font-specification:'Noto Sans Mono Bold';letter-spacing:0px;word-spacing:0px;fill:#f9f7f7;fill-opacity:1;stroke-width:58.8126;stroke-linecap:round;stroke-linejoin:round"
         x="79.49469"
         y="304.46411"
         id="text4"><tspan
           sodipodi:role="line"
           id="tspan4"
           style="font-style:normal;font-variant:normal;font-weight:bold;font-stretch:normal;font-family:'Noto Sans Mono';-inkscape-font-specification:'Noto Sans Mono Bold';fill:#f9f7f7;fill-opacity:1;stroke-width:58.8126"
           x="79.49469"
           y="304.46411">P</tspan></text></g></g></svg>
