<?xml version="1.0" encoding="UTF-8" standalone="no"?>
<!-- Created with Inkscape (http://www.inkscape.org/) -->

<svg
   width="500mm"
   height="500mm"
   viewBox="0 0 500 500"
   version="1.1"
   id="svg1"
   inkscape:version="1.3.2 (091e20e, 2023-11-25)"
   sodipodi:docname="React.svg"
   xmlns:inkscape="http://www.inkscape.org/namespaces/inkscape"
   xmlns:sodipodi="http://sodipodi.sourceforge.net/DTD/sodipodi-0.dtd"
   xmlns="http://www.w3.org/2000/svg"
   xmlns:svg="http://www.w3.org/2000/svg">
  <sodipodi:namedview
     id="namedview1"
     pagecolor="#ffffff"
     bordercolor="#000000"
     borderopacity="0.25"
     inkscape:showpageshadow="2"
     inkscape:pageopacity="0.0"
     inkscape:pagecheckerboard="0"
     inkscape:deskcolor="#d1d1d1"
     inkscape:document-units="mm"
     showgrid="false"
     inkscape:zoom="0.25982083"
     inkscape:cx="944.88189"
     inkscape:cy="944.88189"
     inkscape:window-width="1356"
     inkscape:window-height="697"
     inkscape:window-x="0"
     inkscape:window-y="0"
     inkscape:window-maximized="1"
     inkscape:current-layer="layer1" />
  <defs
     id="defs1">
    <filter
       inkscape:collect="always"
       style="color-interpolation-filters:sRGB"
       id="filter2"
       x="-0.38023643"
       y="-0.38023643"
       width="1.7604729"
       height="1.7604729">
      <feGaussianBlur
         inkscape:collect="always"
         stdDeviation="3.6349981"
         id="feGaussianBlur2" />
    </filter>
  </defs>
  <g
     inkscape:label="Layer 1"
     inkscape:groupmode="layer"
     id="layer1">
    <path
       style="color:#000000;fill:#f2b300;stroke-linecap:round;stroke-linejoin:round;-inkscape-stroke:none;fill-opacity:1"
       d="m 327.26172,-100.28906 c -9.18671,0 -17.54263,5.170606 -24.55664,13.380857 -7.01401,8.210251 -13.01392,19.626619 -18.04102,33.539062 -10.05419,27.824886 -16.13476,65.707307 -16.13476,107.546875 0,41.839569 6.08057,79.721986 16.13476,107.546876 5.0271,13.91244 11.02701,25.33076 18.04102,33.54101 7.01401,8.21026 15.36993,13.38086 24.55664,13.38086 9.18671,0 17.54263,-5.1706 24.55664,-13.38086 7.01401,-8.21025 13.01197,-19.62857 18.03906,-33.54101 10.05419,-27.82489 16.13672,-65.707307 16.13672,-107.546876 0,-41.839568 -6.08253,-79.721989 -16.13672,-107.546875 -5.02709,-13.912443 -11.02505,-25.328811 -18.03906,-33.539062 -7.01401,-8.210251 -15.36993,-13.380857 -24.55664,-13.380857 z m 0,9.136716 c 5.77034,0 11.66314,3.217365 17.60937,10.177735 5.94624,6.960369 11.61787,17.496968 16.39258,30.710937 9.54942,26.427938 15.59375,63.493956 15.59375,104.441406 0,40.94745 -6.04433,78.015426 -15.59375,104.443356 -4.77471,13.21397 -10.44634,23.74862 -16.39258,30.70899 -5.94623,6.96037 -11.83903,10.17969 -17.60937,10.17969 -5.77034,0 -11.66509,-3.21932 -17.61133,-10.17969 -5.94624,-6.96037 -11.61787,-17.49502 -16.39258,-30.70899 -9.54942,-26.42793 -15.59179,-63.495906 -15.59179,-104.443356 0,-40.94745 6.04237,-78.013468 15.59179,-104.441406 4.77471,-13.213969 10.44634,-23.750568 16.39258,-30.710937 5.94624,-6.96037 11.84099,-10.177735 17.61133,-10.177735 z"
       id="ellipse1"
       transform="rotate(30)" />
    <text
       xml:space="preserve"
       style="font-weight:bold;font-size:47.687px;line-height:1.5;font-family:'Noto Sans Mono';-inkscape-font-specification:'Noto Sans Mono Bold';letter-spacing:0px;word-spacing:0px;fill:#1a1a1a;fill-opacity:1;stroke:none;stroke-width:15.0195;stroke-linecap:round;stroke-linejoin:round;stroke-dasharray:none;stroke-opacity:1"
       x="186.17795"
       y="430.29749"
       id="text3"><tspan
         sodipodi:role="line"
         id="tspan3"
         style="stroke-width:15.0195;fill:#1a1a1a"
         x="186.17795"
         y="430.29749">REACT</tspan></text>
    <path
       style="color:#000000;fill:#f3aa00;stroke-linecap:round;stroke-linejoin:round;-inkscape-stroke:none;fill-opacity:1"
       d="m -116.71094,156.03711 c -9.18671,0 -17.54263,5.17061 -24.55664,13.38086 -7.01401,8.21025 -13.01197,19.62857 -18.03906,33.54101 -10.05419,27.82489 -16.13672,65.70731 -16.13672,107.54688 0,41.83957 6.08253,79.72199 16.13672,107.54687 5.02709,13.91245 11.02505,25.32882 18.03906,33.53907 7.01401,8.21025 15.36993,13.38086 24.55664,13.38086 9.18671,0 17.542634,-5.17061 24.556643,-13.38086 7.014009,-8.21025 13.011968,-19.62662 18.039063,-33.53907 10.054189,-27.82488 16.136718,-65.7073 16.136718,-107.54687 0,-41.83957 -6.082529,-79.72199 -16.136718,-107.54688 -5.027095,-13.91244 -11.025054,-25.33076 -18.039063,-33.54101 -7.014009,-8.21025 -15.369933,-13.38086 -24.556643,-13.38086 z m 0,9.13672 c 5.77034,0 11.66314,3.21932 17.609378,10.17969 5.946236,6.96037 11.619821,17.49501 16.394531,30.70898 9.549418,26.42794 15.591797,63.49591 15.591797,104.44336 0,40.94745 -6.042379,78.01347 -15.591797,104.44141 -4.77471,13.21396 -10.448295,23.75056 -16.394531,30.71093 -5.946238,6.96037 -11.839038,10.17774 -17.609378,10.17774 -5.77034,0 -11.66314,-3.21737 -17.60937,-10.17774 -5.94624,-6.96037 -11.61982,-17.49697 -16.39453,-30.71093 -9.54942,-26.42794 -15.5918,-63.49396 -15.5918,-104.44141 0,-40.94745 6.04238,-78.01542 15.5918,-104.44336 4.77471,-13.21397 10.44829,-23.74861 16.39453,-30.70898 5.94623,-6.96037 11.83903,-10.17969 17.60937,-10.17969 z"
       id="ellipse3"
       transform="matrix(-0.8660254,0.5,0.5,0.8660254,0,0)" />
    <path
       style="color:#000000;fill:#f2b300;stroke-linecap:round;stroke-linejoin:round;-inkscape-stroke:none;fill-opacity:1"
       d="m 210.55078,101.85938 c -9.18671,0 -17.54263,5.1706 -24.55664,13.38085 -7.01401,8.21026 -13.01392,19.62662 -18.04102,33.53907 -10.05418,27.82488 -16.13671,65.70926 -16.13671,107.54882 0,41.83957 6.08253,79.72199 16.13671,107.54688 5.0271,13.91244 11.02701,25.32881 18.04102,33.53906 7.01401,8.21025 15.36993,13.38086 24.55664,13.38086 9.18671,0 17.54263,-5.17061 24.55664,-13.38086 7.01401,-8.21025 13.01197,-19.62662 18.03906,-33.53906 10.05419,-27.82489 16.13672,-65.70731 16.13672,-107.54688 0,-41.83956 -6.08253,-79.72394 -16.13672,-107.54882 -5.02709,-13.91245 -11.02505,-25.32881 -18.03906,-33.53907 -7.01401,-8.21025 -15.36993,-13.38086 -24.55664,-13.38085 z m 0,9.13671 c 5.77034,0 11.66314,3.21932 17.60938,10.17969 5.94623,6.96037 11.61787,17.49502 16.39257,30.70899 9.54942,26.42793 15.59375,63.4959 15.59375,104.44335 0,40.94746 -6.04433,78.01347 -15.59375,104.44141 -4.7747,13.21397 -10.44634,23.74862 -16.39257,30.70899 -5.94624,6.96037 -11.83904,10.17968 -17.60938,10.17968 -5.77034,0 -11.66509,-3.21931 -17.61133,-10.17968 -5.94623,-6.96037 -11.61787,-17.49502 -16.39258,-30.70899 -9.54941,-26.42794 -15.59375,-63.49395 -15.59375,-104.44141 0,-40.94745 6.04434,-78.01542 15.59375,-104.44335 4.77471,-13.21397 10.44635,-23.74862 16.39258,-30.70899 5.94624,-6.96037 11.84099,-10.17969 17.61133,-10.17969 z"
       id="ellipse4"
       transform="matrix(0,1,1,0,0,0)" />
    <circle
       style="fill:#f3c100;fill-opacity:1;stroke:none;stroke-width:10;stroke-linecap:round;stroke-linejoin:round;stroke-dasharray:none;stroke-opacity:1"
       id="path4"
       cx="256.42422"
       cy="210.55003"
       r="26.220131" />
    <circle
       style="opacity:0.664716;fill:#f37a00;fill-opacity:1;stroke:none;stroke-width:4.37519;stroke-linecap:round;stroke-linejoin:round;stroke-dasharray:none;stroke-opacity:1;filter:url(#filter2)"
       id="circle2"
       cx="256.42422"
       cy="210.55003"
       r="11.471804"
       transform="matrix(1.7740816,0,0,1.7740816,-198.49328,-162.98291)" />
  </g>
</svg>
