<?xml version="1.0" encoding="UTF-8" standalone="no"?>
<!-- Created with Inkscape (http://www.inkscape.org/) -->

<svg
   width="500mm"
   height="500mm"
   viewBox="0 0 500 500"
   version="1.1"
   id="svg1"
   inkscape:version="1.3.2 (091e20e, 2023-11-25)"
   xml:space="preserve"
   sodipodi:docname="Rome - Italy City.svg"
   xmlns:inkscape="http://www.inkscape.org/namespaces/inkscape"
   xmlns:sodipodi="http://sodipodi.sourceforge.net/DTD/sodipodi-0.dtd"
   xmlns="http://www.w3.org/2000/svg"
   xmlns:svg="http://www.w3.org/2000/svg"><sodipodi:namedview
     id="namedview1"
     pagecolor="#ffffff"
     bordercolor="#000000"
     borderopacity="0.25"
     inkscape:showpageshadow="2"
     inkscape:pageopacity="0.0"
     inkscape:pagecheckerboard="0"
     inkscape:deskcolor="#d1d1d1"
     inkscape:document-units="mm"
     showgrid="false"
     inkscape:zoom="0.25982083"
     inkscape:cx="944.88189"
     inkscape:cy="944.88189"
     inkscape:window-width="1356"
     inkscape:window-height="697"
     inkscape:window-x="0"
     inkscape:window-y="0"
     inkscape:window-maximized="1"
     inkscape:current-layer="layer1" /><defs
     id="defs1"><inkscape:path-effect
       effect="fillet_chamfer"
       id="path-effect142"
       is_visible="true"
       lpeversion="1"
       nodesatellites_param="F,0,1,1,0,7.4962557,0,1 @ F,0,0,1,0,7.4962557,0,1 @ F,0,0,1,0,0,0,1 @ F,0,0,1,0,0,0,1"
       radius="0"
       unit="px"
       method="auto"
       mode="F"
       chamfer_steps="1"
       flexible="false"
       use_knot_distance="true"
       apply_no_radius="true"
       apply_with_radius="true"
       only_selected="false"
       hide_knots="false" /><inkscape:path-effect
       effect="fillet_chamfer"
       id="path-effect140"
       is_visible="true"
       lpeversion="1"
       nodesatellites_param="F,0,1,1,0,7.4962557,0,1 @ F,0,0,1,0,7.4962557,0,1 @ F,0,0,1,0,0,0,1 @ F,0,0,1,0,0,0,1"
       radius="0"
       unit="px"
       method="auto"
       mode="F"
       chamfer_steps="1"
       flexible="false"
       use_knot_distance="true"
       apply_no_radius="true"
       apply_with_radius="true"
       only_selected="false"
       hide_knots="false" /><inkscape:path-effect
       effect="fillet_chamfer"
       id="path-effect138"
       is_visible="true"
       lpeversion="1"
       nodesatellites_param="F,0,1,1,0,7.4962557,0,1 @ F,0,0,1,0,7.4962557,0,1 @ F,0,0,1,0,0,0,1 @ F,0,0,1,0,0,0,1"
       radius="0"
       unit="px"
       method="auto"
       mode="F"
       chamfer_steps="1"
       flexible="false"
       use_knot_distance="true"
       apply_no_radius="true"
       apply_with_radius="true"
       only_selected="false"
       hide_knots="false" /><inkscape:path-effect
       effect="fillet_chamfer"
       id="path-effect132"
       is_visible="true"
       lpeversion="1"
       nodesatellites_param="F,0,0,1,0,7.5107028,0,1 @ F,0,1,1,0,7.5107028,0,1 @ F,0,0,1,0,0,0,1 @ F,0,0,1,0,0,0,1"
       radius="0"
       unit="px"
       method="auto"
       mode="F"
       chamfer_steps="1"
       flexible="false"
       use_knot_distance="true"
       apply_no_radius="true"
       apply_with_radius="true"
       only_selected="false"
       hide_knots="false" /><inkscape:path-effect
       effect="fillet_chamfer"
       id="path-effect130"
       is_visible="true"
       lpeversion="1"
       nodesatellites_param="F,0,0,1,0,7.5107028,0,1 @ F,0,1,1,0,7.5107028,0,1 @ F,0,0,1,0,0,0,1 @ F,0,0,1,0,0,0,1"
       radius="0"
       unit="px"
       method="auto"
       mode="F"
       chamfer_steps="1"
       flexible="false"
       use_knot_distance="true"
       apply_no_radius="true"
       apply_with_radius="true"
       only_selected="false"
       hide_knots="false" /><inkscape:path-effect
       effect="fillet_chamfer"
       id="path-effect128"
       is_visible="true"
       lpeversion="1"
       nodesatellites_param="F,0,0,1,0,7.5107028,0,1 @ F,0,1,1,0,7.5107028,0,1 @ F,0,0,1,0,0,0,1 @ F,0,0,1,0,0,0,1"
       radius="0"
       unit="px"
       method="auto"
       mode="F"
       chamfer_steps="1"
       flexible="false"
       use_knot_distance="true"
       apply_no_radius="true"
       apply_with_radius="true"
       only_selected="false"
       hide_knots="false" /><inkscape:path-effect
       effect="fillet_chamfer"
       id="path-effect126"
       is_visible="true"
       lpeversion="1"
       nodesatellites_param="F,0,0,1,0,7.5107028,0,1 @ F,0,1,1,0,7.5107028,0,1 @ F,0,0,1,0,0,0,1 @ F,0,0,1,0,0,0,1"
       radius="0"
       unit="px"
       method="auto"
       mode="F"
       chamfer_steps="1"
       flexible="false"
       use_knot_distance="true"
       apply_no_radius="true"
       apply_with_radius="true"
       only_selected="false"
       hide_knots="false" /><inkscape:path-effect
       effect="fillet_chamfer"
       id="path-effect124"
       is_visible="true"
       lpeversion="1"
       nodesatellites_param="F,0,0,1,0,7.5107028,0,1 @ F,0,1,1,0,7.5107028,0,1 @ F,0,0,1,0,0,0,1 @ F,0,0,1,0,0,0,1"
       radius="0"
       unit="px"
       method="auto"
       mode="F"
       chamfer_steps="1"
       flexible="false"
       use_knot_distance="true"
       apply_no_radius="true"
       apply_with_radius="true"
       only_selected="false"
       hide_knots="false" /><inkscape:path-effect
       effect="fillet_chamfer"
       id="path-effect122"
       is_visible="true"
       lpeversion="1"
       nodesatellites_param="F,0,0,1,0,7.5107028,0,1 @ F,0,1,1,0,7.5107028,0,1 @ F,0,0,1,0,0,0,1 @ F,0,0,1,0,0,0,1"
       radius="0"
       unit="px"
       method="auto"
       mode="F"
       chamfer_steps="1"
       flexible="false"
       use_knot_distance="true"
       apply_no_radius="true"
       apply_with_radius="true"
       only_selected="false"
       hide_knots="false" /><inkscape:path-effect
       effect="fillet_chamfer"
       id="path-effect120"
       is_visible="true"
       lpeversion="1"
       nodesatellites_param="F,0,0,1,0,7.5107028,0,1 @ F,0,1,1,0,7.5107028,0,1 @ F,0,0,1,0,0,0,1 @ F,0,0,1,0,0,0,1"
       radius="0"
       unit="px"
       method="auto"
       mode="F"
       chamfer_steps="1"
       flexible="false"
       use_knot_distance="true"
       apply_no_radius="true"
       apply_with_radius="true"
       only_selected="false"
       hide_knots="false" /><inkscape:path-effect
       effect="fillet_chamfer"
       id="path-effect118"
       is_visible="true"
       lpeversion="1"
       nodesatellites_param="F,0,0,1,0,7.5107028,0,1 @ F,0,1,1,0,7.5107028,0,1 @ F,0,0,1,0,0,0,1 @ F,0,0,1,0,0,0,1"
       radius="0"
       unit="px"
       method="auto"
       mode="F"
       chamfer_steps="1"
       flexible="false"
       use_knot_distance="true"
       apply_no_radius="true"
       apply_with_radius="true"
       only_selected="false"
       hide_knots="false" /><inkscape:path-effect
       effect="fillet_chamfer"
       id="path-effect116"
       is_visible="true"
       lpeversion="1"
       nodesatellites_param="F,0,0,1,0,7.5107028,0,1 @ F,0,1,1,0,7.5107028,0,1 @ F,0,0,1,0,0,0,1 @ F,0,0,1,0,0,0,1"
       radius="0"
       unit="px"
       method="auto"
       mode="F"
       chamfer_steps="1"
       flexible="false"
       use_knot_distance="true"
       apply_no_radius="true"
       apply_with_radius="true"
       only_selected="false"
       hide_knots="false" /><inkscape:path-effect
       effect="fillet_chamfer"
       id="path-effect100"
       is_visible="true"
       lpeversion="1"
       nodesatellites_param="F,0,0,1,0,8.1371096,0,1 @ F,0,1,1,0,8.1371096,0,1 @ F,0,0,1,0,0,0,1 @ F,0,0,1,0,0,0,1"
       radius="0"
       unit="px"
       method="auto"
       mode="F"
       chamfer_steps="1"
       flexible="false"
       use_knot_distance="true"
       apply_no_radius="true"
       apply_with_radius="true"
       only_selected="false"
       hide_knots="false" /><inkscape:path-effect
       effect="fillet_chamfer"
       id="path-effect98"
       is_visible="true"
       lpeversion="1"
       nodesatellites_param="F,0,0,1,0,8.1371096,0,1 @ F,0,1,1,0,8.1371096,0,1 @ F,0,0,1,0,0,0,1 @ F,0,0,1,0,0,0,1"
       radius="0"
       unit="px"
       method="auto"
       mode="F"
       chamfer_steps="1"
       flexible="false"
       use_knot_distance="true"
       apply_no_radius="true"
       apply_with_radius="true"
       only_selected="false"
       hide_knots="false" /><inkscape:path-effect
       effect="fillet_chamfer"
       id="path-effect96"
       is_visible="true"
       lpeversion="1"
       nodesatellites_param="F,0,0,1,0,8.1371096,0,1 @ F,0,1,1,0,8.1371096,0,1 @ F,0,0,1,0,0,0,1 @ F,0,0,1,0,0,0,1"
       radius="0"
       unit="px"
       method="auto"
       mode="F"
       chamfer_steps="1"
       flexible="false"
       use_knot_distance="true"
       apply_no_radius="true"
       apply_with_radius="true"
       only_selected="false"
       hide_knots="false" /><inkscape:path-effect
       effect="fillet_chamfer"
       id="path-effect94"
       is_visible="true"
       lpeversion="1"
       nodesatellites_param="F,0,0,1,0,8.1371096,0,1 @ F,0,1,1,0,8.1371096,0,1 @ F,0,0,1,0,0,0,1 @ F,0,0,1,0,0,0,1"
       radius="0"
       unit="px"
       method="auto"
       mode="F"
       chamfer_steps="1"
       flexible="false"
       use_knot_distance="true"
       apply_no_radius="true"
       apply_with_radius="true"
       only_selected="false"
       hide_knots="false" /><inkscape:path-effect
       effect="fillet_chamfer"
       id="path-effect92"
       is_visible="true"
       lpeversion="1"
       nodesatellites_param="F,0,0,1,0,8.1371096,0,1 @ F,0,1,1,0,8.1371096,0,1 @ F,0,0,1,0,0,0,1 @ F,0,0,1,0,0,0,1"
       radius="0"
       unit="px"
       method="auto"
       mode="F"
       chamfer_steps="1"
       flexible="false"
       use_knot_distance="true"
       apply_no_radius="true"
       apply_with_radius="true"
       only_selected="false"
       hide_knots="false" /><inkscape:path-effect
       effect="fillet_chamfer"
       id="path-effect90"
       is_visible="true"
       lpeversion="1"
       nodesatellites_param="F,0,0,1,0,8.1371096,0,1 @ F,0,1,1,0,8.1371096,0,1 @ F,0,0,1,0,0,0,1 @ F,0,0,1,0,0,0,1"
       radius="0"
       unit="px"
       method="auto"
       mode="F"
       chamfer_steps="1"
       flexible="false"
       use_knot_distance="true"
       apply_no_radius="true"
       apply_with_radius="true"
       only_selected="false"
       hide_knots="false" /><inkscape:path-effect
       effect="fillet_chamfer"
       id="path-effect88"
       is_visible="true"
       lpeversion="1"
       nodesatellites_param="F,0,0,1,0,8.1371096,0,1 @ F,0,1,1,0,8.1371096,0,1 @ F,0,0,1,0,0,0,1 @ F,0,0,1,0,0,0,1"
       radius="0"
       unit="px"
       method="auto"
       mode="F"
       chamfer_steps="1"
       flexible="false"
       use_knot_distance="true"
       apply_no_radius="true"
       apply_with_radius="true"
       only_selected="false"
       hide_knots="false" /><inkscape:path-effect
       effect="fillet_chamfer"
       id="path-effect86"
       is_visible="true"
       lpeversion="1"
       nodesatellites_param="F,0,0,1,0,8.1371096,0,1 @ F,0,1,1,0,8.1371096,0,1 @ F,0,0,1,0,0,0,1 @ F,0,0,1,0,0,0,1"
       radius="0"
       unit="px"
       method="auto"
       mode="F"
       chamfer_steps="1"
       flexible="false"
       use_knot_distance="true"
       apply_no_radius="true"
       apply_with_radius="true"
       only_selected="false"
       hide_knots="false" /><inkscape:path-effect
       effect="fillet_chamfer"
       id="path-effect84"
       is_visible="true"
       lpeversion="1"
       nodesatellites_param="F,0,0,1,0,8.1371096,0,1 @ F,0,1,1,0,8.1371096,0,1 @ F,0,0,1,0,0,0,1 @ F,0,0,1,0,0,0,1"
       radius="0"
       unit="px"
       method="auto"
       mode="F"
       chamfer_steps="1"
       flexible="false"
       use_knot_distance="true"
       apply_no_radius="true"
       apply_with_radius="true"
       only_selected="false"
       hide_knots="false" /><inkscape:path-effect
       effect="fillet_chamfer"
       id="path-effect83"
       is_visible="true"
       lpeversion="1"
       nodesatellites_param="F,0,1,1,0,9.0523761,0,1 @ F,0,0,1,0,9.0523761,0,1 @ F,0,0,1,0,0,0,1 @ F,0,0,1,0,0,0,1"
       radius="0"
       unit="px"
       method="auto"
       mode="F"
       chamfer_steps="1"
       flexible="false"
       use_knot_distance="true"
       apply_no_radius="true"
       apply_with_radius="true"
       only_selected="false"
       hide_knots="false" /><inkscape:path-effect
       effect="fillet_chamfer"
       id="path-effect81"
       is_visible="true"
       lpeversion="1"
       nodesatellites_param="F,0,1,1,0,9.0523761,0,1 @ F,0,0,1,0,9.0523761,0,1 @ F,0,0,1,0,0,0,1 @ F,0,0,1,0,0,0,1"
       radius="0"
       unit="px"
       method="auto"
       mode="F"
       chamfer_steps="1"
       flexible="false"
       use_knot_distance="true"
       apply_no_radius="true"
       apply_with_radius="true"
       only_selected="false"
       hide_knots="false" /><inkscape:path-effect
       effect="fillet_chamfer"
       id="path-effect79"
       is_visible="true"
       lpeversion="1"
       nodesatellites_param="F,0,1,1,0,9.0523761,0,1 @ F,0,0,1,0,9.0523761,0,1 @ F,0,0,1,0,0,0,1 @ F,0,0,1,0,0,0,1"
       radius="0"
       unit="px"
       method="auto"
       mode="F"
       chamfer_steps="1"
       flexible="false"
       use_knot_distance="true"
       apply_no_radius="true"
       apply_with_radius="true"
       only_selected="false"
       hide_knots="false" /><inkscape:path-effect
       effect="fillet_chamfer"
       id="path-effect78"
       is_visible="true"
       lpeversion="1"
       nodesatellites_param="F,0,0,1,0,10.400697,0,1 @ F,0,1,1,0,10.400697,0,1 @ F,0,0,1,0,0,0,1 @ F,0,0,1,0,0,0,1"
       radius="0"
       unit="px"
       method="auto"
       mode="F"
       chamfer_steps="1"
       flexible="false"
       use_knot_distance="true"
       apply_no_radius="true"
       apply_with_radius="true"
       only_selected="false"
       hide_knots="false" /><inkscape:path-effect
       effect="fillet_chamfer"
       id="path-effect76"
       is_visible="true"
       lpeversion="1"
       nodesatellites_param="F,0,0,1,0,10.400697,0,1 @ F,0,1,1,0,10.400697,0,1 @ F,0,0,1,0,0,0,1 @ F,0,0,1,0,0,0,1"
       radius="0"
       unit="px"
       method="auto"
       mode="F"
       chamfer_steps="1"
       flexible="false"
       use_knot_distance="true"
       apply_no_radius="true"
       apply_with_radius="true"
       only_selected="false"
       hide_knots="false" /><inkscape:path-effect
       effect="fillet_chamfer"
       id="path-effect57"
       is_visible="true"
       lpeversion="1"
       nodesatellites_param="F,0,1,1,0,12.399162,0,1 @ F,0,0,1,0,12.399162,0,1 @ F,0,0,1,0,0,0,1 @ F,0,0,1,0,0,0,1"
       radius="0"
       unit="px"
       method="auto"
       mode="F"
       chamfer_steps="1"
       flexible="false"
       use_knot_distance="true"
       apply_no_radius="true"
       apply_with_radius="true"
       only_selected="false"
       hide_knots="false" /><inkscape:path-effect
       effect="fillet_chamfer"
       id="path-effect55"
       is_visible="true"
       lpeversion="1"
       nodesatellites_param="F,0,1,1,0,12.399162,0,1 @ F,0,0,1,0,12.399162,0,1 @ F,0,0,1,0,0,0,1 @ F,0,0,1,0,0,0,1"
       radius="0"
       unit="px"
       method="auto"
       mode="F"
       chamfer_steps="1"
       flexible="false"
       use_knot_distance="true"
       apply_no_radius="true"
       apply_with_radius="true"
       only_selected="false"
       hide_knots="false" /><inkscape:path-effect
       effect="fillet_chamfer"
       id="path-effect53"
       is_visible="true"
       lpeversion="1"
       nodesatellites_param="F,0,1,1,0,12.399162,0,1 @ F,0,0,1,0,12.399162,0,1 @ F,0,0,1,0,0,0,1 @ F,0,0,1,0,0,0,1"
       radius="0"
       unit="px"
       method="auto"
       mode="F"
       chamfer_steps="1"
       flexible="false"
       use_knot_distance="true"
       apply_no_radius="true"
       apply_with_radius="true"
       only_selected="false"
       hide_knots="false" /><inkscape:path-effect
       effect="fillet_chamfer"
       id="path-effect51"
       is_visible="true"
       lpeversion="1"
       nodesatellites_param="F,0,1,1,0,12.399162,0,1 @ F,0,0,1,0,12.399162,0,1 @ F,0,0,1,0,0,0,1 @ F,0,0,1,0,0,0,1"
       radius="0"
       unit="px"
       method="auto"
       mode="F"
       chamfer_steps="1"
       flexible="false"
       use_knot_distance="true"
       apply_no_radius="true"
       apply_with_radius="true"
       only_selected="false"
       hide_knots="false" /><inkscape:path-effect
       effect="fillet_chamfer"
       id="path-effect49"
       is_visible="true"
       lpeversion="1"
       nodesatellites_param="F,0,1,1,0,12.399162,0,1 @ F,0,0,1,0,12.399162,0,1 @ F,0,0,1,0,0,0,1 @ F,0,0,1,0,0,0,1"
       radius="0"
       unit="px"
       method="auto"
       mode="F"
       chamfer_steps="1"
       flexible="false"
       use_knot_distance="true"
       apply_no_radius="true"
       apply_with_radius="true"
       only_selected="false"
       hide_knots="false" /><inkscape:path-effect
       effect="fillet_chamfer"
       id="path-effect47"
       is_visible="true"
       lpeversion="1"
       nodesatellites_param="F,0,1,1,0,12.399162,0,1 @ F,0,0,1,0,12.399162,0,1 @ F,0,0,1,0,0,0,1 @ F,0,0,1,0,0,0,1"
       radius="0"
       unit="px"
       method="auto"
       mode="F"
       chamfer_steps="1"
       flexible="false"
       use_knot_distance="true"
       apply_no_radius="true"
       apply_with_radius="true"
       only_selected="false"
       hide_knots="false" /><inkscape:path-effect
       effect="fillet_chamfer"
       id="path-effect46"
       is_visible="true"
       lpeversion="1"
       nodesatellites_param="F,0,0,1,0,10.614063,0,1 @ F,0,1,1,0,10.614063,0,1 @ F,0,0,1,0,0,0,1 @ F,0,0,1,0,0,0,1"
       radius="0"
       unit="px"
       method="auto"
       mode="F"
       chamfer_steps="1"
       flexible="false"
       use_knot_distance="true"
       apply_no_radius="true"
       apply_with_radius="true"
       only_selected="false"
       hide_knots="false" /><inkscape:path-effect
       effect="fillet_chamfer"
       id="path-effect44"
       is_visible="true"
       lpeversion="1"
       nodesatellites_param="F,0,0,1,0,10.614063,0,1 @ F,0,1,1,0,10.614063,0,1 @ F,0,0,1,0,0,0,1 @ F,0,0,1,0,0,0,1"
       radius="0"
       unit="px"
       method="auto"
       mode="F"
       chamfer_steps="1"
       flexible="false"
       use_knot_distance="true"
       apply_no_radius="true"
       apply_with_radius="true"
       only_selected="false"
       hide_knots="false" /><inkscape:path-effect
       effect="fillet_chamfer"
       id="path-effect42"
       is_visible="true"
       lpeversion="1"
       nodesatellites_param="F,0,0,1,0,10.614063,0,1 @ F,0,1,1,0,10.614063,0,1 @ F,0,0,1,0,0,0,1 @ F,0,0,1,0,0,0,1"
       radius="0"
       unit="px"
       method="auto"
       mode="F"
       chamfer_steps="1"
       flexible="false"
       use_knot_distance="true"
       apply_no_radius="true"
       apply_with_radius="true"
       only_selected="false"
       hide_knots="false" /><inkscape:path-effect
       effect="fillet_chamfer"
       id="path-effect40"
       is_visible="true"
       lpeversion="1"
       nodesatellites_param="F,0,0,1,0,10.614063,0,1 @ F,0,1,1,0,10.614063,0,1 @ F,0,0,1,0,0,0,1 @ F,0,0,1,0,0,0,1"
       radius="0"
       unit="px"
       method="auto"
       mode="F"
       chamfer_steps="1"
       flexible="false"
       use_knot_distance="true"
       apply_no_radius="true"
       apply_with_radius="true"
       only_selected="false"
       hide_knots="false" /><inkscape:path-effect
       effect="fillet_chamfer"
       id="path-effect38"
       is_visible="true"
       lpeversion="1"
       nodesatellites_param="F,0,0,1,0,10.614063,0,1 @ F,0,1,1,0,10.614063,0,1 @ F,0,0,1,0,0,0,1 @ F,0,0,1,0,0,0,1"
       radius="0"
       unit="px"
       method="auto"
       mode="F"
       chamfer_steps="1"
       flexible="false"
       use_knot_distance="true"
       apply_no_radius="true"
       apply_with_radius="true"
       only_selected="false"
       hide_knots="false" /><inkscape:path-effect
       effect="fillet_chamfer"
       id="path-effect36"
       is_visible="true"
       lpeversion="1"
       nodesatellites_param="F,0,0,1,0,10.614063,0,1 @ F,0,1,1,0,10.614063,0,1 @ F,0,0,1,0,0,0,1 @ F,0,0,1,0,0,0,1"
       radius="0"
       unit="px"
       method="auto"
       mode="F"
       chamfer_steps="1"
       flexible="false"
       use_knot_distance="true"
       apply_no_radius="true"
       apply_with_radius="true"
       only_selected="false"
       hide_knots="false" /><inkscape:path-effect
       effect="fillet_chamfer"
       id="path-effect34"
       is_visible="true"
       lpeversion="1"
       nodesatellites_param="F,0,0,1,0,10.614063,0,1 @ F,0,1,1,0,10.614063,0,1 @ F,0,0,1,0,0,0,1 @ F,0,0,1,0,0,0,1"
       radius="0"
       unit="px"
       method="auto"
       mode="F"
       chamfer_steps="1"
       flexible="false"
       use_knot_distance="true"
       apply_no_radius="true"
       apply_with_radius="true"
       only_selected="false"
       hide_knots="false" /><inkscape:path-effect
       effect="fillet_chamfer"
       id="path-effect33"
       is_visible="true"
       lpeversion="1"
       nodesatellites_param="F,0,1,1,0,12.353416,0,1 @ F,0,0,1,0,12.353416,0,1 @ F,0,0,1,0,0,0,1 @ F,0,0,1,0,0,0,1"
       radius="0"
       unit="px"
       method="auto"
       mode="F"
       chamfer_steps="1"
       flexible="false"
       use_knot_distance="true"
       apply_no_radius="true"
       apply_with_radius="true"
       only_selected="false"
       hide_knots="false" /><inkscape:path-effect
       effect="fillet_chamfer"
       id="path-effect31"
       is_visible="true"
       lpeversion="1"
       nodesatellites_param="F,0,1,1,0,12.353416,0,1 @ F,0,0,1,0,12.353416,0,1 @ F,0,0,1,0,0,0,1 @ F,0,0,1,0,0,0,1"
       radius="0"
       unit="px"
       method="auto"
       mode="F"
       chamfer_steps="1"
       flexible="false"
       use_knot_distance="true"
       apply_no_radius="true"
       apply_with_radius="true"
       only_selected="false"
       hide_knots="false" /><inkscape:path-effect
       effect="clone_original"
       linkeditem=""
       id="path-effect29"
       is_visible="true"
       lpeversion="1"
       method="d"
       attributes=""
       css_properties=""
       allow_transforms="true" /><inkscape:path-effect
       effect="fillet_chamfer"
       id="path-effect27"
       is_visible="true"
       lpeversion="1"
       nodesatellites_param="F,0,1,1,0,12.353416,0,1 @ F,0,0,1,0,12.353416,0,1 @ F,0,0,1,0,0,0,1 @ F,0,0,1,0,0,0,1"
       radius="0"
       unit="px"
       method="auto"
       mode="F"
       chamfer_steps="1"
       flexible="false"
       use_knot_distance="true"
       apply_no_radius="true"
       apply_with_radius="true"
       only_selected="false"
       hide_knots="false" /><inkscape:path-effect
       effect="clone_original"
       linkeditem=""
       id="path-effect25"
       is_visible="true"
       lpeversion="1"
       method="d"
       attributes=""
       css_properties=""
       allow_transforms="true" /><inkscape:path-effect
       effect="fillet_chamfer"
       id="path-effect23"
       is_visible="true"
       lpeversion="1"
       nodesatellites_param="F,0,1,1,0,12.353416,0,1 @ F,0,0,1,0,12.353416,0,1 @ F,0,0,1,0,0,0,1 @ F,0,0,1,0,0,0,1"
       radius="0"
       unit="px"
       method="auto"
       mode="F"
       chamfer_steps="1"
       flexible="false"
       use_knot_distance="true"
       apply_no_radius="true"
       apply_with_radius="true"
       only_selected="false"
       hide_knots="false" /><inkscape:path-effect
       effect="clone_original"
       linkeditem=""
       id="path-effect21"
       is_visible="true"
       lpeversion="1"
       method="d"
       attributes=""
       css_properties=""
       allow_transforms="true" /><inkscape:path-effect
       effect="fillet_chamfer"
       id="path-effect19"
       is_visible="true"
       lpeversion="1"
       nodesatellites_param="F,0,1,1,0,12.353416,0,1 @ F,0,0,1,0,12.353416,0,1 @ F,0,0,1,0,0,0,1 @ F,0,0,1,0,0,0,1"
       radius="0"
       unit="px"
       method="auto"
       mode="F"
       chamfer_steps="1"
       flexible="false"
       use_knot_distance="true"
       apply_no_radius="true"
       apply_with_radius="true"
       only_selected="false"
       hide_knots="false" /><inkscape:path-effect
       effect="clone_original"
       linkeditem=""
       id="path-effect17"
       is_visible="true"
       lpeversion="1"
       method="d"
       attributes=""
       css_properties=""
       allow_transforms="true" /><inkscape:path-effect
       effect="fillet_chamfer"
       id="path-effect15"
       is_visible="true"
       lpeversion="1"
       nodesatellites_param="F,0,1,1,0,12.353416,0,1 @ F,0,0,1,0,12.353416,0,1 @ F,0,0,1,0,0,0,1 @ F,0,0,1,0,0,0,1"
       radius="0"
       unit="px"
       method="auto"
       mode="F"
       chamfer_steps="1"
       flexible="false"
       use_knot_distance="true"
       apply_no_radius="true"
       apply_with_radius="true"
       only_selected="false"
       hide_knots="false" /><inkscape:path-effect
       effect="clone_original"
       linkeditem=""
       id="path-effect13"
       is_visible="true"
       lpeversion="1"
       method="d"
       attributes=""
       css_properties=""
       allow_transforms="true" /><inkscape:path-effect
       effect="fillet_chamfer"
       id="path-effect11"
       is_visible="true"
       lpeversion="1"
       nodesatellites_param="F,0,1,1,0,12.353416,0,1 @ F,0,0,1,0,12.353416,0,1 @ F,0,0,1,0,0,0,1 @ F,0,0,1,0,0,0,1"
       radius="0"
       unit="px"
       method="auto"
       mode="F"
       chamfer_steps="1"
       flexible="false"
       use_knot_distance="true"
       apply_no_radius="true"
       apply_with_radius="true"
       only_selected="false"
       hide_knots="false" /><inkscape:path-effect
       effect="clone_original"
       linkeditem=""
       id="path-effect9"
       is_visible="true"
       lpeversion="1"
       method="d"
       attributes=""
       css_properties=""
       allow_transforms="true" /><inkscape:path-effect
       effect="fillet_chamfer"
       id="path-effect7"
       is_visible="true"
       lpeversion="1"
       nodesatellites_param="F,0,1,1,0,12.353416,0,1 @ F,0,0,1,0,12.353416,0,1 @ F,0,0,1,0,0,0,1 @ F,0,0,1,0,0,0,1"
       radius="0"
       unit="px"
       method="auto"
       mode="F"
       chamfer_steps="1"
       flexible="false"
       use_knot_distance="true"
       apply_no_radius="true"
       apply_with_radius="true"
       only_selected="false"
       hide_knots="false" /><inkscape:path-effect
       effect="clone_original"
       linkeditem=""
       id="path-effect5"
       is_visible="true"
       lpeversion="1"
       method="d"
       attributes=""
       css_properties=""
       allow_transforms="true" /><inkscape:path-effect
       effect="fillet_chamfer"
       id="path-effect4"
       is_visible="true"
       lpeversion="1"
       nodesatellites_param="F,0,1,1,0,12.353416,0,1 @ F,0,0,1,0,12.353416,0,1 @ F,0,0,1,0,0,0,1 @ F,0,0,1,0,0,0,1"
       radius="0"
       unit="px"
       method="auto"
       mode="F"
       chamfer_steps="1"
       flexible="false"
       use_knot_distance="true"
       apply_no_radius="true"
       apply_with_radius="true"
       only_selected="false"
       hide_knots="false" /></defs><g
     inkscape:label="Layer 1"
     inkscape:groupmode="layer"
     id="layer1"><g
       id="g142"
       transform="matrix(0.79180993,0,0,0.79180993,51.60706,14.042816)"><path
         id="path4"
         style="display:inline;fill:#ff2929;fill-opacity:1;stroke:none;stroke-width:3;stroke-linecap:round;stroke-linejoin:round;stroke-dasharray:none;stroke-opacity:1"
         d="m 266.60337,204.82574 v 19.02985 l 10.90527,40.65385 17.43615,37.83903 c 14.68797,-1.40566 17.26692,24.60146 23.4627,42.42067 l 6.87446,-2.79828 c 0,0 3.51645,0.10351 8.31474,0.185 v -29.52895 c 3e-5,-4.14801 3.36264,-7.51062 7.51065,-7.51065 4.11915,0.0289 7.43498,3.3915 7.40627,7.51065 v 29.56874 c 1.99737,-0.0243 4.06215,-0.058 6.23115,-0.10904 v -29.4597 c 3e-5,-4.14789 3.05026,-7.51046 6.81302,-7.51065 3.73683,0.0287 6.74502,3.39134 6.71897,7.51065 v 28.94811 c 2.93388,-0.14606 5.91134,-0.32242 8.96431,-0.53434 v -26.66452 c -1.7e-4,-3.60493 2.41812,-6.52737 5.40122,-6.52725 2.9622,0.0253 5.34661,2.94758 5.32577,6.52725 v 25.77 c 1.77103,-0.17075 3.54116,-0.34364 5.31751,-0.54208 v -26.86916 c 6e-5,-3.60459 2.31944,-6.52666 5.18056,-6.52674 2.84128,0.0251 5.12849,2.94715 5.10873,6.52674 v 25.54211 c 1.31225,-0.19217 2.62209,-0.37907 3.92224,-0.58963 v -25.52506 c 5e-5,-3.60439 1.8053,-6.52638 4.03231,-6.52673 2.21181,0.0248 3.9924,2.94694 3.97702,6.52673 v 24.09776 c 1.40626,-0.28005 2.79098,-0.57925 4.16667,-0.88522 v -23.7908 c 4e-5,-3.60454 1.4178,-6.52659 3.16673,-6.52673 1.7368,0.0252 3.13489,2.94719 3.12281,6.52673 v 22.26066 c 1.10898,-0.29345 2.20849,-0.59317 3.2861,-0.90692 v -22.30355 c 3e-5,-3.6046 1.10015,-6.52668 2.45722,-6.52673 1.34764,0.0251 2.43248,2.94716 2.42311,6.52673 v 20.77703 c 0.84348,-0.28575 1.64781,-0.59335 2.46445,-0.89401 v -20.24424 c 3e-5,-3.60443 0.90346,-6.52643 2.01796,-6.52673 1.1068,0.0252 1.99776,2.94719 1.99006,6.52673 v 18.65623 c 0.51703,-0.22015 1.0574,-0.42843 1.56011,-0.65578 v -17.50849 c -5e-5,-3.60428 0.7678,-6.52645 1.71514,-6.52725 0.94098,0.0247 1.69851,2.94717 1.69189,6.52725 v 15.84503 c 1.23872,-0.6491 2.42938,-1.32114 3.55069,-2.02417 0.45077,-0.0805 -4.08451,-88.80491 -4.08451,-88.80491 0,0 2.14011,-18.42342 -79.47215,-27.71201 -26.71929,-3.53223 -98.95933,-3.24321 -98.95933,-3.24321 z m 173.99816,124.10354 c -1.29458,0.55123 -2.62992,1.08064 -4.00802,1.58801 1.37812,-0.50737 2.71344,-1.03678 4.00802,-1.58801 z m -6.47247,2.48202 c -1.58117,0.53564 -3.21414,1.0414 -4.88033,1.52652 1.66619,-0.48512 3.29916,-0.99088 4.88033,-1.52652 z m -8.16643,2.43344 c -2.05039,0.54255 -4.1459,1.05329 -6.28747,1.52962 2.14159,-0.47634 4.23705,-0.98706 6.28747,-1.52962 z m -32.67707,5.75934 c 3.44005,-0.38431 6.86576,-0.82628 10.27275,-1.32499 -3.40694,0.49872 -6.83272,0.94068 -10.27275,1.32499 z m -5.31751,0.54208 c -3.6173,0.34875 -7.19291,0.6492 -10.72699,0.89452 3.5341,-0.24532 7.10969,-0.54577 10.72699,-0.89452 z m -19.6913,1.42886 c -4.72955,0.23544 -9.29126,0.41169 -13.53199,0.51159 4.24075,-0.0999 8.80244,-0.27615 13.53199,-0.51159 z m -34.68006,0.58084 c 3.971,0.0674 8.65821,0.11581 14.91175,0.0398 -6.25274,0.076 -10.94094,0.0277 -14.91175,-0.0398 z m -24.2781,-131.87981 h 7.69255 v 12.87105 h -7.69255 z m 45.04324,2.16525 h 7.14375 v 12.85503 h -7.14375 z m 36.17195,6.04821 h 5.70508 v 16.03623 h -5.70508 z m 26.58908,3.94342 h 3.31608 v 9.91258 h -3.31608 z m 8.89403,2.15801 h 2.55333 v 9.91258 h -2.55333 z m 12.54962,7.41609 h 1.87172 v 12.16308 h -1.87172 z m -100.43314,2.67684 c 4.06835,0.0717 7.3083,3.42783 7.23676,7.49618 v 8.45375 h -14.73295 v -8.45375 c 4e-5,-4.14001 3.35618,-7.49614 7.49619,-7.49618 z m 71.06956,5.84563 c 2.19072,0.0622 3.93536,2.96519 3.89692,6.48436 v 7.31274 h -7.93388 v -7.31274 c 1.1e-4,-3.58137 1.80751,-6.4845 4.03696,-6.48436 z m 31.65233,6.22805 c 0.66099,0.0593 1.18728,2.78745 1.17564,6.0942 v 6.87245 h -2.39417 v -6.87245 c -10e-6,-3.36642 0.54561,-6.09519 1.21853,-6.0942 z m -101.74728,7.23005 c 4.48002,0.014 8.10054,3.65695 8.08685,8.13697 v 29.04939 c -8.57576,-0.33435 -12.49321,-0.51035 -16.22433,-0.69195 v -28.35744 c 8e-5,-4.49409 3.64339,-8.13717 8.13748,-8.13697 z m 20.74447,0 c 3.7748,0.0136 6.82559,3.65664 6.81406,8.13697 v 29.7062 c -4.77036,-0.14043 -9.41596,-0.27775 -13.66945,-0.4315 v -29.2747 c 6e-5,-4.49378 3.06925,-8.13674 6.85539,-8.13697 z m 19.55385,0 c 3.30819,0.0137 5.98184,3.65671 5.97173,8.13697 v 30.17232 c -4.05119,-0.0734 -8.05273,-0.16037 -11.98015,-0.26097 v -29.91135 c 6e-5,-4.49396 2.69011,-8.13699 6.00842,-8.13697 z m 16.40365,1.34358 c 2.89218,0.0134 5.22971,3.65651 5.22087,8.13698 v 29.0127 c -3.47984,-0.0194 -6.96692,-0.0539 -10.47326,-0.10439 v -28.90831 c 5e-5,-4.49384 2.35158,-8.13682 5.25239,-8.13698 z m 14.18725,3.44786 c 2.23694,0.0124 4.04482,3.32597 4.03799,7.4011 v 26.29141 c -2.65415,0.0235 -5.36466,0.0315 -8.10079,0.0295 v -26.32087 c 4e-5,-4.0876 1.81902,-7.40119 4.0628,-7.4011 z m 11.35796,0 c 2.01138,0.0123 3.63692,3.24899 3.63079,7.22953 v 26.27126 c -2.35215,0.0631 -4.80842,0.10268 -7.28431,0.13798 v -26.40924 c 5e-5,-3.99304 1.63582,-7.22989 3.65352,-7.22953 z m 9.13743,1.17719 c 1.6472,0.0106 2.97841,2.77389 2.97346,6.17223 v 25.84545 c -1.89713,0.0901 -3.93893,0.15216 -5.96553,0.21756 v -26.06301 c 1.1e-4,-3.40901 1.3397,-6.17239 2.99207,-6.17223 z m 5.96087,0 c 1.2622,0.011 2.28228,2.92758 2.27842,6.51433 v 25.18502 c -1.48567,0.0987 -2.97469,0.19717 -4.57078,0.27647 v -25.46149 c 2e-5,-3.59766 1.02632,-6.51415 2.29236,-6.51433 z m 5.21674,2.64273 c 0.68358,0.0102 1.23612,2.92699 1.23403,6.51433 v 22.24309 c -0.80136,0.0694 -1.6305,0.13407 -2.4753,0.19637 v -22.43946 c 1e-5,-3.59762 0.55573,-6.5141 1.24127,-6.51433 z m -26.1705,73.66217 c -2.61967,0.52156 -5.29607,0.98766 -7.99434,1.42472 2.69823,-0.43708 5.3747,-0.90313 7.99434,-1.42472 z"
         sodipodi:nodetypes="ccccccccccccccccccccccccccccccccccccccccccccccccccccccccccccccccccccccccccccccccccccccccccccccccccccccccccccccccccccccccccscccccccccccccccccccccccccccccccccccccccccccccccccccccscccc" /><path
         id="path3"
         style="display:inline;fill:#f5f5f5;fill-opacity:1;stroke:none;stroke-width:3;stroke-linecap:round;stroke-linejoin:round;stroke-dasharray:none;stroke-opacity:1"
         d="m 207.29174,217.37226 4.28911,62.1062 42.57366,69.91262 7.19646,-0.35244 68.84955,-0.25476 -11.81582,-34.54363 1.99264,-3.16105 -3.24218,-2.682 0.25167,-24.88376 h -20.17551 l -13.09016,-36.51663 -0.93586,-24.4507 -62.51298,1.75803 z m 54.01686,30.75833 h 0.21549 c 6.1575,8e-5 11.14911,3.79324 11.14919,8.47235 v 20.36568 h -22.51439 v -20.36568 c 8e-5,-4.67927 4.99201,-8.47249 11.14971,-8.47235 z m -31.15004,2.09135 h 0.17518 c 4.99932,1.2e-4 9.05204,4.05284 9.05216,9.05216 v 21.75991 h -16.74833 l -1.53117,-5.44721 v -16.3127 c 1.2e-4,-4.99932 4.05284,-9.05204 9.05216,-9.05216 z m 65.84249,58.88116 h 0.0537 c 5.74431,-1.2e-4 10.40103,4.6566 10.40091,10.40091 v 29.36617 l -20.85557,0.0775 V 319.504 c -1.2e-4,-5.74431 4.6566,-10.40103 10.40091,-10.40091 z m -34.57876,1.03766 h 0.0656 c 6.96907,10e-6 12.61866,4.65637 12.61886,10.4004 v 28.44891 l -12.81834,0.0475 -12.39511,-29.24731 c 0.02,-0.30277 0.056,-0.60468 0.10801,-0.90485 l 0.99115,-2.67684 c 2.04929,-3.68595 6.51059,-6.05437 11.4298,-6.06785 z"
         sodipodi:nodetypes="ccccccccccccccssccccssscccccsssccccscsccccccc" /><path
         style="display:inline;fill:#24bc1c;fill-opacity:1;stroke:none;stroke-width:3;stroke-linecap:round;stroke-linejoin:round;stroke-dasharray:none;stroke-opacity:1"
         d="m 262.10273,353.88444 0.74808,-2.07489 -13.69109,-32.30499 2.26169,-6.10672 -5.89399,-6.13838 -22.45068,-24.66166 -8.6031,-30.61182 0.30043,-2.62765 -3.11996,-3.40801 1.08759,-25.14898 -5.44984,-3.42924 -15.29927,6.6739 -9.17238,-33.61091 -2.77023,-4.83957 0.59533,-24.60526 -5.12464,-4.11186 -2.56186,1.83599 -13.84545,-40.77127 -6.93,-3.51863 -2.98602,0.76226 -0.41262,-3.49286 1.95414,0.60272 v -4.21752 l -6.37252,-4.68213 -9.60961,20.66631 11.35665,33.35105 35.27909,64.31828 c 17.40269,13.84774 21.05747,18.24871 23.8627,57.86197 l 27.7418,27.58003 z"
         id="path2"
         sodipodi:nodetypes="cccccccccccccccccccccccccccccc" /><path
         id="path1"
         style="display:inline;fill:#0ad800;fill-opacity:1;stroke:none;stroke-width:3;stroke-linecap:round;stroke-linejoin:round;stroke-dasharray:none;stroke-opacity:1"
         d="m 144.36638,103.39679 c 0,0 -68.242268,18.06891 -89.085,56.51076 -0.13865,-0.0403 4.403349,6.4239 4.403349,6.4239 l -3.378605,9.0165 -1.363741,29.62455 c 0,0 -6.595284,12.4569 -1.493966,18.61747 0.306006,0.085 0,25.78241 0,25.78241 0,0 -10.367156,4.55255 -1.590084,10.81536 -0.03386,0.337 0,28.46751 0,28.46751 l -5.240507,9.02064 0.360702,41.26414 c 0,0 5.324394,0.90222 13.273091,2.11977 v -22.55366 a 1.7212677,11.447056 0 0 1 1.721342,-11.44736 1.6341143,10.867454 0 0 1 1.542025,11.44736 v 23.05854 c 1.184566,0.1764 2.343222,0.33733 3.644739,0.52607 v -22.54488 a 3.6382398,9.9889988 0 0 1 3.638021,-9.98905 3.4540239,9.4832235 0 0 1 3.259749,9.98905 v 23.48901 c 1.8215,0.25289 3.594934,0.49858 5.579505,0.76377 v -24.2626 a 5.411154,9.9889988 0 0 1 5.411039,-9.98854 5.1371698,9.4832235 0 0 1 4.847766,9.98854 v 25.16177 h -3.638021 c 2.868002,0.365 6.50634,0.74534 9.629903,1.11931 v -21.15116 a 7.4492456,14.048588 0 0 1 7.449673,-14.04875 7.0720663,13.337264 0 0 1 6.6735,14.04875 v 22.79292 5.2e-4 c 2.71815,0.29338 5.35534,0.57703 8.2057,0.86558 v -23.99543 a 8.1667959,14.048588 0 0 1 8.16642,-14.04824 7.7532847,13.337264 0 0 1 7.31687,14.04824 v 25.46253 c 3.12424,0.27745 6.25735,0.55341 9.49554,0.81597 V 325.3388 a 10.165279,14.048588 0 0 1 10.16527,-14.04876 9.6505778,13.337264 0 0 1 9.10694,14.04876 v 26.68674 c 3.71875,0.24212 7.56816,0.44282 11.39,0.65474 V 325.1109 a 11.470903,14.048588 0 0 1 11.47114,-14.04875 10.890094,13.337264 0 0 1 10.27637,14.04875 v 28.56622 c 4.30159,0.1549 8.64148,0.2753 13.02557,0.3793 v -28.61789 a 12.353416,14.414944 0 0 1 12.35325,-14.41514 v -5.1e-4 a 11.727923,13.685069 0 0 1 11.06754,14.41514 v 28.89074 c 9.93286,7.8e-4 19.94631,-0.10072 30.05139,-0.44442 0.37675,0.36809 -14.63063,-34.89813 -14.63063,-34.89813 l 2.41846,-5.27978 -4.42505,-4.21163 2.2872,-27.20764 h -27.97142 l -9.75806,-35.79109 -3.69384,-3.21686 0.96222,-25.90695 -20.29489,0.78858 -11.17399,-32.6688 -0.30231,-28.61376 -8.2398,-0.38964 -15.09727,-42.0641 -4.64003,-0.13798 -0.16743,-3.72638 -3.32745,-1.64383 z m 12.3362,84.01554 h 0.10697 a 9.6708862,11.964977 0 0 1 9.67073,11.96465 v 20.34604 c -6.81395,-0.18973 -13.29461,-0.14115 -19.44894,0.10232 v -20.44836 a 9.6708862,11.964977 0 0 1 9.67124,-11.96465 z m -26.18238,3.23753 h 0.0925 a 8.3473009,12.275943 0 0 1 8.34729,12.27574 v 17.33847 c -5.93167,0.41373 -11.53152,1.00083 -16.78709,1.726 V 202.9256 a 8.3473009,12.275943 0 0 1 8.3473,-12.27574 z m -23.47195,5.38882 h 0.0754 a 6.7990898,11.814611 0 0 1 6.79907,11.81478 v 15.42955 c -4.89662,0.85703 -9.45543,1.81825 -13.67358,2.84479 v -18.27434 a 6.7990898,11.814611 0 0 1 6.79907,-11.81478 z m -17.059944,4.8333 h 0.06046 a 5.4479906,10.592384 0 0 1 5.44773,10.59212 v 15.87758 c -3.993554,1.07746 -7.653968,2.19742 -10.955921,3.31608 V 211.4641 a 5.4479906,10.592384 0 0 1 5.447731,-10.59212 z m -14.81305,4.19406 h 0.05013 a 4.533534,11.305844 0 0 1 4.533574,11.30577 v 15.99437 c -3.555576,1.33027 -6.568222,2.60502 -9.117273,3.77083 v -19.7652 a 4.533534,11.305844 0 0 1 4.533573,-11.30577 z m -9.147762,7.52667 h 0.02739 a 2.5026915,9.6014913 0 0 1 2.502689,9.60148 v 14.92209 c -2.021557,0.97351 -3.614873,1.8042 -4.828129,2.47891 h -0.204638 v -17.401 a 2.5026915,9.6014913 0 0 1 2.502688,-9.60148 z m 119.533786,33.43207 a 9.3819669,10.546043 0 0 1 9.14156,10.81019 v 26.44748 h -18.75802 v -26.44748 a 9.6165322,10.809713 0 0 1 9.61646,-10.81019 z m -32.2833,1.75544 a 8.7735218,10.212383 0 0 1 8.54832,10.46758 v 25.61136 H 144.28525 V 258.2478 a 8.9928754,10.46771 0 0 1 8.99273,-10.46758 z m -27.52028,3.23288 a 7.7994135,9.5353215 0 0 1 7.59902,9.77408 v 23.91327 h -15.59388 v -23.91327 a 7.9944127,9.7737214 0 0 1 7.99486,-9.77408 z m -22.13457,2.62155 a 6.8053507,9.2167334 0 0 1 6.63061,9.44645 v 22.01571 c -4.61261,0.0165 -9.33384,0.043 -13.605893,0.047 V 263.0811 a 6.9754965,9.4471679 0 0 1 6.975283,-9.44645 z m -17.704343,2.74867 a 4.3909517,8.7737515 0 0 1 4.278291,8.99273 v 19.7621 c -3.051953,-10e-4 -6.030597,-0.003 -8.778792,-0.008 V 265.3758 a 4.5007333,8.9931109 0 0 1 4.500501,-8.99273 z m -14.016199,1.91306 a 3.4685736,8.417255 0 0 1 3.379639,8.62738 v 18.19889 c -4.138672,-0.0127 -3.985255,-0.0194 -6.934978,-0.0346 v -18.16426 a 3.555294,8.6277013 0 0 1 3.555339,-8.62738 z m -8.668722,1.80506 a 1.7827918,7.9062837 0 0 1 1.737362,8.10389 v 16.86616 c -1.168935,-0.007 -2.797714,-0.0131 -3.56464,-0.0181 v -16.84807 a 1.8273648,8.1039548 0 0 1 1.827278,-8.10389 z m 16.549378,83.71685 c 2.279957,0.30435 3.990421,0.56346 6.474023,0.87953 -2.484106,-0.31614 -4.22245,-0.57737 -6.474023,-0.87953 z m 38.589896,4.5222 c 4.91777,0.49725 10.00083,0.97865 15.27762,1.44746 -5.27699,-0.46882 -10.36002,-0.9503 -15.27762,-1.44746 z m 24.84654,2.26963 c 6.09257,0.49388 12.34678,0.96035 18.79782,1.38287 -6.4484,-0.42269 -12.706,-0.88903 -18.79782,-1.38287 z m 30.67772,2.07275 c 7.06584,0.39155 14.26799,0.72546 21.63175,0.99115 -7.36348,-0.2657 -14.56607,-0.5996 -21.63175,-0.99115 z m 34.84903,1.37614 c 7.63755,0.18034 15.37415,0.26829 23.20324,0.26975 -7.8289,-10e-4 -15.5659,-0.0895 -23.20324,-0.26975 z" /></g><text
       xml:space="preserve"
       style="font-style:normal;font-variant:normal;font-weight:normal;font-stretch:normal;font-size:46.5899px;line-height:1;font-family:'Palm Spring';-inkscape-font-specification:'Palm Spring';letter-spacing:0px;word-spacing:0px;opacity:1;fill:#000000;fill-opacity:1;stroke:none;stroke-width:12.3812;stroke-linecap:round;stroke-linejoin:round;stroke-dasharray:none;stroke-opacity:1"
       x="135.78632"
       y="400.14053"
       id="text142"><tspan
         sodipodi:role="line"
         id="tspan142"
         style="font-style:normal;font-variant:normal;font-weight:normal;font-stretch:normal;font-family:'Palm Spring';-inkscape-font-specification:'Palm Spring';fill:#000000;fill-opacity:1;stroke-width:12.3812"
         x="135.78632"
         y="400.14053">Rome - Italy</tspan></text></g></svg>
