<?xml version="1.0" encoding="UTF-8" standalone="no"?>
<!-- Created with Inkscape (http://www.inkscape.org/) -->

<svg
   width="500mm"
   height="500mm"
   viewBox="0 0 500 500"
   version="1.1"
   id="svg1"
   inkscape:version="1.3.2 (091e20e, 2023-11-25)"
   sodipodi:docname="TORN.svg"
   xmlns:inkscape="http://www.inkscape.org/namespaces/inkscape"
   xmlns:sodipodi="http://sodipodi.sourceforge.net/DTD/sodipodi-0.dtd"
   xmlns="http://www.w3.org/2000/svg"
   xmlns:svg="http://www.w3.org/2000/svg">
  <sodipodi:namedview
     id="namedview1"
     pagecolor="#ffffff"
     bordercolor="#000000"
     borderopacity="0.25"
     inkscape:showpageshadow="2"
     inkscape:pageopacity="0.0"
     inkscape:pagecheckerboard="0"
     inkscape:deskcolor="#d1d1d1"
     inkscape:document-units="mm"
     showgrid="false"
     inkscape:zoom="0.25982083"
     inkscape:cx="946.80629"
     inkscape:cy="944.88189"
     inkscape:window-width="1356"
     inkscape:window-height="697"
     inkscape:window-x="0"
     inkscape:window-y="0"
     inkscape:window-maximized="1"
     inkscape:current-layer="layer1" />
  <defs
     id="defs1" />
  <g
     inkscape:label="Layer 1"
     inkscape:groupmode="layer"
     id="layer1">
    <g
       id="g4"
       transform="matrix(1.158473,0,0,1.158473,-63.79558,-39.618259)"
       style="stroke-width:0.863205">
      <path
         id="path1"
         style="fill:#43ff75;fill-opacity:1;stroke:none;stroke-width:0.45678;stroke-linecap:square;paint-order:stroke fill markers"
         d="m 145.21994,205.15141 a 44.848569,44.848569 0 0 0 -31.81218,13.39701 c 0.43988,1.30606 0.74532,2.64659 0.92838,3.99714 0.54492,4.02001 0.21307,8.16902 0.0598,12.1184 -0.15325,3.94939 -0.12031,7.67823 0.87932,10.79244 0.99964,3.11421 2.83963,5.68031 6.8053,7.73313 3.48239,1.80264 7.70389,2.80762 11.49987,2.41265 11.69615,-1.21697 21.28965,-12.1285 29.46235,-25.42842 3.21968,-5.23958 6.14994,-10.75045 8.97134,-16.13573 a 44.848569,44.848569 0 0 0 -26.7942,-8.88662 z m 29.69482,11.25268 c -2.74128,5.20675 -5.60413,10.54415 -8.76112,15.68173 -8.36521,13.6132 -18.51936,25.72486 -32.19505,27.14781 -4.68319,0.48728 -9.51098,-0.70734 -13.55627,-2.80137 -4.71035,-2.43831 -7.36018,-5.98558 -8.60375,-9.85972 -1.24357,-3.87416 -1.20803,-8.0086 -1.05123,-12.04972 0.1568,-4.04112 0.44213,-8.00971 -0.0292,-11.48722 -0.0594,-0.43807 -0.16602,-0.84137 -0.24833,-1.26182 A 44.848569,44.848569 0 0 0 100.37139,250 a 44.848569,44.848569 0 0 0 0.64346,7.24194 c 2.11553,0.92013 4.11857,2.16015 5.93277,3.77053 3.76918,3.34572 5.40486,7.63015 5.99636,12.0048 0.36701,2.71428 0.34817,5.47648 0.25588,8.22638 a 44.848569,44.848569 0 0 0 32.02012,13.60494 44.848569,44.848569 0 0 0 13.44928,-2.12018 c 2.71985,-3.45905 5.30883,-7.27003 7.7733,-11.2906 8.69607,-14.18685 15.7686,-30.43622 22.63686,-40.75428 a 44.848569,44.848569 0 0 0 -14.16464,-24.27944 z m 14.98319,29.81559 c -5.91727,9.90961 -12.45902,24.2654 -20.34251,37.1266 -1.40765,2.29645 -2.86781,4.54334 -4.37434,6.72303 A 44.848569,44.848569 0 0 0 190.06853,250 a 44.848569,44.848569 0 0 0 -0.17058,-3.78032 z m -87.87305,15.66531 a 44.848569,44.848569 0 0 0 7.55329,15.15037 c -0.0331,-1.21047 -0.0999,-2.39732 -0.25286,-3.5288 -0.51832,-3.83341 -1.77614,-7.07764 -4.80192,-9.76348 -0.7896,-0.7009 -1.62743,-1.31417 -2.49851,-1.85809 z" />
      <text
         xml:space="preserve"
         style="font-style:normal;font-variant:normal;font-weight:normal;font-stretch:normal;font-size:86.5287px;line-height:1;font-family:Outfit;-inkscape-font-specification:Outfit;letter-spacing:0px;word-spacing:0px;fill:#43ff75;fill-opacity:1;stroke:none;stroke-width:8.63205;stroke-linecap:square;stroke-dasharray:none;stroke-opacity:1;paint-order:stroke fill markers"
         x="215.31293"
         y="280.02545"
         id="text4"><tspan
           sodipodi:role="line"
           id="tspan4"
           style="font-style:normal;font-variant:normal;font-weight:normal;font-stretch:normal;font-family:Outfit;-inkscape-font-specification:Outfit;stroke:none;stroke-width:8.63205"
           x="215.31293"
           y="280.02545">TORN</tspan></text>
    </g>
  </g>
</svg>
