<?xml version="1.0" encoding="UTF-8" standalone="no"?>
<!-- Created with Inkscape (http://www.inkscape.org/) -->

<svg
   width="500mm"
   height="500mm"
   viewBox="0 0 500 500"
   version="1.1"
   id="svg1"
   inkscape:version="1.3.2 (091e20e, 2023-11-25)"
   xml:space="preserve"
   sodipodi:docname="Bicycle Shop Logo.svg"
   xmlns:inkscape="http://www.inkscape.org/namespaces/inkscape"
   xmlns:sodipodi="http://sodipodi.sourceforge.net/DTD/sodipodi-0.dtd"
   xmlns="http://www.w3.org/2000/svg"
   xmlns:svg="http://www.w3.org/2000/svg"><sodipodi:namedview
     id="namedview1"
     pagecolor="#ffffff"
     bordercolor="#000000"
     borderopacity="0.25"
     inkscape:showpageshadow="2"
     inkscape:pageopacity="0.0"
     inkscape:pagecheckerboard="0"
     inkscape:deskcolor="#d1d1d1"
     inkscape:document-units="mm"
     showgrid="false"
     inkscape:zoom="0.25982083"
     inkscape:cx="946.8063"
     inkscape:cy="944.8819"
     inkscape:window-width="1356"
     inkscape:window-height="697"
     inkscape:window-x="0"
     inkscape:window-y="0"
     inkscape:window-maximized="1"
     inkscape:current-layer="layer1" /><defs
     id="defs1" /><g
     inkscape:label="Layer 1"
     inkscape:groupmode="layer"
     id="layer1"><rect
       style="fill:#101010;stroke-width:3;stroke-linecap:round;fill-opacity:1"
       id="rect1"
       width="500"
       height="500"
       x="0"
       y="0" /><g
       id="g63" /><g
       id="g68"><g
         id="g67"><g
           id="g66"><text
             xml:space="preserve"
             style="font-style:normal;font-variant:normal;font-weight:bold;font-stretch:normal;font-size:57.8139px;line-height:1;font-family:Outfit;-inkscape-font-specification:'Outfit Bold';letter-spacing:0px;word-spacing:0px;fill:#ff4020;fill-opacity:1;stroke-width:15.364;stroke-linecap:round;stroke-linejoin:round"
             x="-29.454102"
             y="386.47049"
             id="text7"
             transform="skewX(13.335475)"><tspan
               sodipodi:role="line"
               id="tspan7"
               style="font-style:normal;font-variant:normal;font-weight:bold;font-stretch:normal;font-family:Outfit;-inkscape-font-specification:'Outfit Bold';fill:#ff4020;fill-opacity:1;stroke-width:15.364"
               x="-29.454102"
               y="386.47049">METAL SHIFT</tspan></text><text
             xml:space="preserve"
             style="font-style:normal;font-variant:normal;font-weight:bold;font-stretch:normal;font-size:57.8139px;line-height:1;font-family:Outfit;-inkscape-font-specification:'Outfit Bold';letter-spacing:0px;word-spacing:0px;fill:#ff5a20;fill-opacity:1;stroke-width:15.364;stroke-linecap:round;stroke-linejoin:round"
             x="-22.956333"
             y="386.47049"
             id="text6"
             transform="skewX(13.335475)"><tspan
               sodipodi:role="line"
               id="tspan6"
               style="font-style:normal;font-variant:normal;font-weight:bold;font-stretch:normal;font-family:Outfit;-inkscape-font-specification:'Outfit Bold';fill:#ff5a20;fill-opacity:1;stroke-width:15.364"
               x="-22.956333"
               y="386.47049">METAL SHIFT</tspan></text><text
             xml:space="preserve"
             style="font-style:normal;font-variant:normal;font-weight:bold;font-stretch:normal;font-size:57.8139px;line-height:1;font-family:Outfit;-inkscape-font-specification:'Outfit Bold';letter-spacing:0px;word-spacing:0px;fill:#ff7e20;fill-opacity:1;stroke-width:15.364;stroke-linecap:round;stroke-linejoin:round"
             x="-16.458565"
             y="386.47049"
             id="text5"
             transform="skewX(13.335475)"><tspan
               sodipodi:role="line"
               id="tspan5"
               style="font-style:normal;font-variant:normal;font-weight:bold;font-stretch:normal;font-family:Outfit;-inkscape-font-specification:'Outfit Bold';fill:#ff7e20;fill-opacity:1;stroke-width:15.364"
               x="-16.458565"
               y="386.47049">METAL SHIFT</tspan></text><text
             xml:space="preserve"
             style="font-style:normal;font-variant:normal;font-weight:bold;font-stretch:normal;font-size:57.8139px;line-height:1;font-family:Outfit;-inkscape-font-specification:'Outfit Bold';letter-spacing:0px;word-spacing:0px;fill:#ffc720;fill-opacity:1;stroke-width:15.364;stroke-linecap:round;stroke-linejoin:round"
             x="-3.4630277"
             y="386.47049"
             id="text3"
             transform="skewX(13.335475)"><tspan
               sodipodi:role="line"
               id="tspan3"
               style="font-style:normal;font-variant:normal;font-weight:bold;font-stretch:normal;font-family:Outfit;-inkscape-font-specification:'Outfit Bold';fill:#ffc720;fill-opacity:1;stroke-width:15.364"
               x="-3.4630277"
               y="386.47049">METAL SHIFT</tspan></text><text
             xml:space="preserve"
             style="font-style:normal;font-variant:normal;font-weight:bold;font-stretch:normal;font-size:57.8139px;line-height:1;font-family:Outfit;-inkscape-font-specification:'Outfit Bold';letter-spacing:0px;word-spacing:0px;fill:#ffa020;fill-opacity:1;stroke-width:15.364;stroke-linecap:round;stroke-linejoin:round"
             x="-9.9607964"
             y="386.47049"
             id="text4"
             transform="skewX(13.335475)"><tspan
               sodipodi:role="line"
               id="tspan4"
               style="font-style:normal;font-variant:normal;font-weight:bold;font-stretch:normal;font-family:Outfit;-inkscape-font-specification:'Outfit Bold';fill:#ffa020;fill-opacity:1;stroke-width:15.364"
               x="-9.9607964"
               y="386.47049">METAL SHIFT</tspan></text><text
             xml:space="preserve"
             style="font-style:normal;font-variant:normal;font-weight:bold;font-stretch:normal;font-size:57.8139px;line-height:1;font-family:Outfit;-inkscape-font-specification:'Outfit Bold';letter-spacing:0px;word-spacing:0px;fill:#ffe820;fill-opacity:1;stroke-width:15.364;stroke-linecap:round;stroke-linejoin:round"
             x="3.0347407"
             y="386.47049"
             id="text2"
             transform="skewX(13.335475)"><tspan
               sodipodi:role="line"
               id="tspan2"
               style="font-style:normal;font-variant:normal;font-weight:bold;font-stretch:normal;font-family:Outfit;-inkscape-font-specification:'Outfit Bold';fill:#ffe820;fill-opacity:1;stroke-width:15.364"
               x="3.0347407"
               y="386.47049">METAL SHIFT</tspan></text><text
             xml:space="preserve"
             style="font-style:normal;font-variant:normal;font-weight:bold;font-stretch:normal;font-size:57.8139px;line-height:1;font-family:Outfit;-inkscape-font-specification:'Outfit Bold';letter-spacing:0px;word-spacing:0px;fill:#ffffff;fill-opacity:1;stroke-width:15.364;stroke-linecap:round;stroke-linejoin:round"
             x="9.5325089"
             y="386.47049"
             id="text1"
             transform="skewX(13.335475)"><tspan
               sodipodi:role="line"
               id="tspan1"
               style="font-style:normal;font-variant:normal;font-weight:bold;font-stretch:normal;font-family:Outfit;-inkscape-font-specification:'Outfit Bold';fill:#ffffff;fill-opacity:1;stroke-width:15.364"
               x="9.5325089"
               y="386.47049">METAL SHIFT</tspan></text></g><text
           xml:space="preserve"
           style="font-style:normal;font-variant:normal;font-weight:bold;font-stretch:normal;font-size:25.6289px;line-height:1;font-family:Outfit;-inkscape-font-specification:'Outfit Bold';letter-spacing:0px;word-spacing:0px;fill:#ffffff;fill-opacity:1;stroke-width:6.81083;stroke-linecap:round;stroke-linejoin:round"
           x="162.23306"
           y="418.63229"
           id="text8"><tspan
             sodipodi:role="line"
             id="tspan8"
             style="fill:#ffffff;fill-opacity:1;stroke-width:6.81083"
             x="162.23306"
             y="418.63229">Cross Mountains</tspan></text></g><g
         id="g65"
         transform="translate(4.5257902)"><path
           id="path56"
           style="fill:#ffffff;fill-opacity:1;stroke:none;stroke-width:2.03413;stroke-linecap:round;stroke-linejoin:round;stroke-opacity:1"
           d="m 262.75539,289.43053 c 0,0 -6.44086,3.41884 -10.03175,3.92218 -5.70986,0.33008 -1.94901,5.26716 -1.14016,5.12058 0,0 14.06591,1.52706 17.15675,1.5291 0.17765,-0.15068 0.33403,-0.30907 0.47688,-0.47163 l 0.31079,0.35705 10.31736,-0.55087 c 1.04571,-1.89125 1.49939,-3.83541 -0.12695,-9.52048 -2.00352,-0.54754 -9.46329,-4.02903 -10.71338,-3.46326 z"
           sodipodi:nodetypes="cccccccccc" /><path
           id="rect54"
           style="fill:#ffffff;fill-opacity:1;stroke-width:3.03117;stroke-linecap:round;stroke-linejoin:round"
           transform="matrix(0.99953033,0.0306451,-0.06168116,0.9980959,0,0)"
           d="m 285.01588,281.61935 h 0.6932 c 1.15024,0 2.07624,0.92601 2.07624,2.07625 v 9.81475 c 0,1.15024 -0.926,2.07624 -2.07624,2.07624 h -0.6932 c -1.15024,0 -2.07624,-0.926 -2.07624,-2.07624 v -9.81475 c 0,-1.15024 0.926,-2.07625 2.07624,-2.07625 z" /><path
           style="color:#000000;fill:#ffffff;fill-opacity:1;stroke-linecap:round;stroke-linejoin:round;-inkscape-stroke:none"
           d="m 271.17187,264.16602 c -6.21068,0 -10.42671,2.67181 -12.9707,5.9121 -2.54399,3.2403 -3.49649,6.95432 -3.48437,9.40625 a 1.0171668,1.0171668 0 0 0 0,0.0332 c 0.2436,6.27669 3.13612,9.8982 6.19336,11.75781 2.85661,1.73757 5.55211,1.99728 6.86523,1.96875 0.003,0.001 0.009,0.009 0.0117,0.01 0.17184,0.063 0.2794,0.0714 0.37695,0.0781 0.19511,0.0135 0.34845,-0.002 0.53125,-0.0215 0.36562,-0.0399 0.81991,-0.12107 1.39258,-0.24024 1.14534,-0.23834 2.74791,-0.62874 4.72461,-1.14453 3.9534,-1.03158 9.39079,-2.55922 15.46484,-4.32422 12.14811,-3.53 26.83328,-8.00944 37.19532,-11.35156 a 1.017065,1.017065 0 0 0 0.65625,-1.2793 1.017065,1.017065 0 0 0 -1.28125,-0.65625 c -10.33284,3.33271 -25.01142,7.81004 -37.13868,11.33399 -6.06363,1.76197 -11.49058,3.28584 -15.41015,4.30859 -1.95979,0.51138 -3.54697,0.89831 -4.62696,1.12305 -0.53999,0.11237 -0.95862,0.18291 -1.19726,0.20898 -0.11932,0.013 -0.20009,0.0116 -0.16992,0.0137 0.0151,0.001 0.0587,-0.005 0.18359,0.041 0.12492,0.0458 0.42245,0.18888 0.5625,0.57422 A 1.0171668,1.0171668 0 0 0 268.0293,291.25 c -0.55959,0.0359 -3.48617,-0.14699 -6.06055,-1.71289 -2.57106,-1.56388 -4.99002,-4.38819 -5.2168,-10.07813 -0.006,-1.88154 0.83505,-5.30528 3.04883,-8.125 2.21641,-2.82306 5.72709,-5.12985 11.36133,-5.13281 l 54.9375,2.10938 a 1.017065,1.017065 0 0 0 1.05469,-0.97657 1.017065,1.017065 0 0 0 -0.97657,-1.05468 l -54.96679,-2.11328 a 1.0171668,1.0171668 0 0 0 -0.0391,0 z"
           id="path54" /><path
           id="path9"
           style="fill:#ffffff;fill-opacity:1;stroke:none;stroke-width:2.08422;stroke-linecap:round;stroke-linejoin:round;stroke-opacity:1"
           d="m 185.73638,222.90819 a 47.964957,47.964957 0 0 0 -47.96501,47.96501 47.964957,47.964957 0 0 0 47.96501,47.96501 47.964957,47.964957 0 0 0 47.96502,-47.96501 47.964957,47.964957 0 0 0 -47.96502,-47.96501 z m 0,8.75865 a 39.206331,39.206331 0 0 1 39.20636,39.20636 39.206331,39.206331 0 0 1 -39.20636,39.20636 39.206331,39.206331 0 0 1 -39.20635,-39.20636 39.206331,39.206331 0 0 1 39.20635,-39.20636 z" /><path
           style="color:#000000;fill:#ffffff;fill-opacity:1;stroke-linecap:round;stroke-linejoin:round;-inkscape-stroke:none"
           d="m 185.73633,266.58984 c -2.36412,0 -4.28321,1.91909 -4.28321,4.28321 0,2.36412 1.91909,4.2832 4.28321,4.2832 2.36412,0 4.2832,-1.91908 4.2832,-4.2832 0,-2.36412 -1.91908,-4.28321 -4.2832,-4.28321 z m 0,0.1836 c 2.26569,0 4.09961,1.83392 4.09961,4.09961 0,2.26568 -1.83392,4.09961 -4.09961,4.09961 -2.26569,0 -4.09961,-1.83393 -4.09961,-4.09961 0,-2.26569 1.83392,-4.09961 4.09961,-4.09961 z"
           id="circle10" /><g
           id="g11"
           style="fill:#ffffff;fill-opacity:1;stroke:#ffffff"
           transform="matrix(0.67804285,0,0,0.67804285,107.41968,52.400104)"><path
             style="color:#000000;fill:#ffffff;fill-opacity:1;stroke:none;stroke-linecap:round;stroke-linejoin:round;-inkscape-stroke:none"
             d="m 113.20313,322.2793 -47.941411,27.27539 a 1.5,1.5 0 0 0 -0.5625,2.04492 1.5,1.5 0 0 0 2.044922,0.5625 l 47.941409,-27.27539 a 1.5,1.5 0 0 0 0.5625,-2.04492 1.5,1.5 0 0 0 -2.04492,-0.5625 z"
             id="path10" /><path
             style="color:#000000;fill:#ffffff;fill-opacity:1;stroke:none;stroke-linecap:round;stroke-linejoin:round;-inkscape-stroke:none"
             d="m 110.52344,323.36914 -41.380862,34.06445 a 1.5,1.5 0 0 0 -0.205078,2.11328 1.5,1.5 0 0 0 2.111328,0.20313 l 41.382812,-34.06641 a 1.5,1.5 0 0 0 0.20313,-2.11132 1.5,1.5 0 0 0 -2.11133,-0.20313 z"
             id="path11" /></g><g
           id="g13"
           transform="matrix(0.59493526,-0.32526012,0.32526012,0.59493526,12.253067,116.71718)"
           style="fill:#ffffff;fill-opacity:1;stroke:#ffffff"><path
             style="color:#000000;fill:#ffffff;fill-opacity:1;stroke:none;stroke-linecap:round;stroke-linejoin:round;-inkscape-stroke:none"
             d="m 113.20313,322.2793 -47.941411,27.27539 a 1.5,1.5 0 0 0 -0.5625,2.04492 1.5,1.5 0 0 0 2.044922,0.5625 l 47.941409,-27.27539 a 1.5,1.5 0 0 0 0.5625,-2.04492 1.5,1.5 0 0 0 -2.04492,-0.5625 z"
             id="path12" /><path
             style="color:#000000;fill:#ffffff;fill-opacity:1;stroke:none;stroke-linecap:round;stroke-linejoin:round;-inkscape-stroke:none"
             d="m 110.52344,323.36914 -41.380862,34.06445 a 1.5,1.5 0 0 0 -0.205078,2.11328 1.5,1.5 0 0 0 2.111328,0.20313 l 41.382812,-34.06641 a 1.5,1.5 0 0 0 0.20313,-2.11132 1.5,1.5 0 0 0 -2.11133,-0.20313 z"
             id="path13" /></g><g
           id="g15"
           transform="matrix(0.32706139,-0.59394693,0.59394693,0.32706139,-43.461198,234.39929)"
           style="fill:#ffffff;fill-opacity:1;stroke:#ffffff"><path
             style="color:#000000;fill:#ffffff;fill-opacity:1;stroke:none;stroke-linecap:round;stroke-linejoin:round;-inkscape-stroke:none"
             d="m 113.20313,322.2793 -47.941411,27.27539 a 1.5,1.5 0 0 0 -0.5625,2.04492 1.5,1.5 0 0 0 2.044922,0.5625 l 47.941409,-27.27539 a 1.5,1.5 0 0 0 0.5625,-2.04492 1.5,1.5 0 0 0 -2.04492,-0.5625 z"
             id="path14" /><path
             style="color:#000000;fill:#ffffff;fill-opacity:1;stroke:none;stroke-linecap:round;stroke-linejoin:round;-inkscape-stroke:none"
             d="m 110.52344,323.36914 -41.380862,34.06445 a 1.5,1.5 0 0 0 -0.205078,2.11328 1.5,1.5 0 0 0 2.111328,0.20313 l 41.382812,-34.06641 a 1.5,1.5 0 0 0 0.20313,-2.11132 1.5,1.5 0 0 0 -2.11133,-0.20313 z"
             id="path15" /></g><g
           id="g17"
           transform="matrix(-0.07763391,-0.67358376,0.67358376,-0.07763391,-21.146278,374.09354)"
           style="fill:#ffffff;fill-opacity:1;stroke:#ffffff"><path
             style="color:#000000;fill:#ffffff;fill-opacity:1;stroke:none;stroke-linecap:round;stroke-linejoin:round;-inkscape-stroke:none"
             d="m 113.20313,322.2793 -47.941411,27.27539 a 1.5,1.5 0 0 0 -0.5625,2.04492 1.5,1.5 0 0 0 2.044922,0.5625 l 47.941409,-27.27539 a 1.5,1.5 0 0 0 0.5625,-2.04492 1.5,1.5 0 0 0 -2.04492,-0.5625 z"
             id="path16" /><path
             style="color:#000000;fill:#ffffff;fill-opacity:1;stroke:none;stroke-linecap:round;stroke-linejoin:round;-inkscape-stroke:none"
             d="m 110.52344,323.36914 -41.380862,34.06445 a 1.5,1.5 0 0 0 -0.205078,2.11328 1.5,1.5 0 0 0 2.111328,0.20313 l 41.382812,-34.06641 a 1.5,1.5 0 0 0 0.20313,-2.11132 1.5,1.5 0 0 0 -2.11133,-0.20313 z"
             id="path17" /></g><g
           id="g19"
           transform="matrix(-0.39248628,-0.55289839,0.55289839,-0.39248628,54.145361,461.60749)"
           style="fill:#ffffff;fill-opacity:1;stroke:#ffffff"><path
             style="color:#000000;fill:#ffffff;fill-opacity:1;stroke:none;stroke-linecap:round;stroke-linejoin:round;-inkscape-stroke:none"
             d="m 113.20313,322.2793 -47.941411,27.27539 a 1.5,1.5 0 0 0 -0.5625,2.04492 1.5,1.5 0 0 0 2.044922,0.5625 l 47.941409,-27.27539 a 1.5,1.5 0 0 0 0.5625,-2.04492 1.5,1.5 0 0 0 -2.04492,-0.5625 z"
             id="path18" /><path
             style="color:#000000;fill:#ffffff;fill-opacity:1;stroke:none;stroke-linecap:round;stroke-linejoin:round;-inkscape-stroke:none"
             d="m 110.52344,323.36914 -41.380862,34.06445 a 1.5,1.5 0 0 0 -0.205078,2.11328 1.5,1.5 0 0 0 2.111328,0.20313 l 41.382812,-34.06641 a 1.5,1.5 0 0 0 0.20313,-2.11132 1.5,1.5 0 0 0 -2.11133,-0.20313 z"
             id="path19" /></g><g
           id="g21"
           transform="matrix(-0.63767849,-0.23045228,0.23045228,-0.63767849,186.8203,503.4453)"
           style="fill:#ffffff;fill-opacity:1;stroke:#ffffff"><path
             style="color:#000000;fill:#ffffff;fill-opacity:1;stroke:none;stroke-linecap:round;stroke-linejoin:round;-inkscape-stroke:none"
             d="m 113.20313,322.2793 -47.941411,27.27539 a 1.5,1.5 0 0 0 -0.5625,2.04492 1.5,1.5 0 0 0 2.044922,0.5625 l 47.941409,-27.27539 a 1.5,1.5 0 0 0 0.5625,-2.04492 1.5,1.5 0 0 0 -2.04492,-0.5625 z"
             id="path20" /><path
             style="color:#000000;fill:#ffffff;fill-opacity:1;stroke:none;stroke-linecap:round;stroke-linejoin:round;-inkscape-stroke:none"
             d="m 110.52344,323.36914 -41.380862,34.06445 a 1.5,1.5 0 0 0 -0.205078,2.11328 1.5,1.5 0 0 0 2.111328,0.20313 l 41.382812,-34.06641 a 1.5,1.5 0 0 0 0.20313,-2.11132 1.5,1.5 0 0 0 -2.11133,-0.20313 z"
             id="path21" /></g><g
           id="g23"
           transform="matrix(-0.65810384,0.16322204,-0.16322204,-0.65810384,315.7965,464.80372)"
           style="fill:#ffffff;fill-opacity:1;stroke:#ffffff"><path
             style="color:#000000;fill:#ffffff;fill-opacity:1;stroke:none;stroke-linecap:round;stroke-linejoin:round;-inkscape-stroke:none"
             d="m 113.20313,322.2793 -47.941411,27.27539 a 1.5,1.5 0 0 0 -0.5625,2.04492 1.5,1.5 0 0 0 2.044922,0.5625 l 47.941409,-27.27539 a 1.5,1.5 0 0 0 0.5625,-2.04492 1.5,1.5 0 0 0 -2.04492,-0.5625 z"
             id="path22" /><path
             style="color:#000000;fill:#ffffff;fill-opacity:1;stroke:none;stroke-linecap:round;stroke-linejoin:round;-inkscape-stroke:none"
             d="m 110.52344,323.36914 -41.380862,34.06445 a 1.5,1.5 0 0 0 -0.205078,2.11328 1.5,1.5 0 0 0 2.111328,0.20313 l 41.382812,-34.06641 a 1.5,1.5 0 0 0 0.20313,-2.11132 1.5,1.5 0 0 0 -2.11133,-0.20313 z"
             id="path23" /></g><g
           id="g25"
           transform="matrix(-0.46897096,0.4897023,-0.4897023,-0.46897096,397.98188,366.01666)"
           style="fill:#ffffff;fill-opacity:1;stroke:#ffffff"><path
             style="color:#000000;fill:#ffffff;fill-opacity:1;stroke:none;stroke-linecap:round;stroke-linejoin:round;-inkscape-stroke:none"
             d="M 113.22266,322.26953 63.121094,349.7832 a 1.5,1.5 0 0 0 -0.59375,2.03711 1.5,1.5 0 0 0 2.037109,0.5918 l 50.101567,-27.51367 a 1.5,1.5 0 0 0 0.59375,-2.03711 1.5,1.5 0 0 0 -2.03711,-0.5918 z"
             id="path24" /><path
             style="color:#000000;fill:#ffffff;fill-opacity:1;stroke:none;stroke-linecap:round;stroke-linejoin:round;-inkscape-stroke:none"
             d="m 110.52344,323.36914 -41.380862,34.06445 a 1.5,1.5 0 0 0 -0.205078,2.11328 1.5,1.5 0 0 0 2.111328,0.20313 l 41.382812,-34.06641 a 1.5,1.5 0 0 0 0.20313,-2.11132 1.5,1.5 0 0 0 -2.11133,-0.20313 z"
             id="path25" /></g><g
           id="g27"
           transform="matrix(-0.08670164,0.67247671,-0.67247671,-0.08670164,411.91657,221.49209)"
           style="fill:#ffffff;fill-opacity:1;stroke:#ffffff"><path
             style="color:#000000;fill:#ffffff;fill-opacity:1;stroke:none;stroke-linecap:round;stroke-linejoin:round;-inkscape-stroke:none"
             d="m 113.20313,322.2793 -47.941411,27.27539 a 1.5,1.5 0 0 0 -0.5625,2.04492 1.5,1.5 0 0 0 2.044922,0.5625 l 47.941409,-27.27539 a 1.5,1.5 0 0 0 0.5625,-2.04492 1.5,1.5 0 0 0 -2.04492,-0.5625 z"
             id="path26" /><path
             style="color:#000000;fill:#ffffff;fill-opacity:1;stroke:none;stroke-linecap:round;stroke-linejoin:round;-inkscape-stroke:none"
             d="m 110.52344,323.36914 -41.380862,34.06445 a 1.5,1.5 0 0 0 -0.205078,2.11328 1.5,1.5 0 0 0 2.111328,0.20313 l 41.382812,-34.06641 a 1.5,1.5 0 0 0 0.20313,-2.11132 1.5,1.5 0 0 0 -2.11133,-0.20313 z"
             id="path27" /></g><g
           id="g29"
           transform="matrix(0.43372194,0.52117885,-0.52117885,0.43372194,303.23936,71.401261)"
           style="fill:#ffffff;fill-opacity:1;stroke:#ffffff"><path
             style="color:#000000;fill:#ffffff;fill-opacity:1;stroke:none;stroke-linecap:round;stroke-linejoin:round;-inkscape-stroke:none"
             d="m 113.20313,322.2793 -47.941411,27.27539 a 1.5,1.5 0 0 0 -0.5625,2.04492 1.5,1.5 0 0 0 2.044922,0.5625 l 47.941409,-27.27539 a 1.5,1.5 0 0 0 0.5625,-2.04492 1.5,1.5 0 0 0 -2.04492,-0.5625 z"
             id="path28" /><path
             style="color:#000000;fill:#ffffff;fill-opacity:1;stroke:none;stroke-linecap:round;stroke-linejoin:round;-inkscape-stroke:none"
             d="m 110.52344,323.36914 -41.380862,34.06445 a 1.5,1.5 0 0 0 -0.205078,2.11328 1.5,1.5 0 0 0 2.111328,0.20313 l 41.382812,-34.06641 a 1.5,1.5 0 0 0 0.20313,-2.11132 1.5,1.5 0 0 0 -2.11133,-0.20313 z"
             id="path29" /></g><path
           id="path30"
           style="fill:#ffffff;fill-opacity:1;stroke:none;stroke-width:2.08422;stroke-linecap:round;stroke-linejoin:round;stroke-opacity:1"
           d="m 324.73918,222.90819 a 47.964957,47.964957 0 0 0 -47.96501,47.96501 47.964957,47.964957 0 0 0 47.96501,47.96501 47.964957,47.964957 0 0 0 47.96502,-47.96501 47.964957,47.964957 0 0 0 -47.96502,-47.96501 z m 0,8.75865 a 39.206331,39.206331 0 0 1 39.20636,39.20636 39.206331,39.206331 0 0 1 -39.20636,39.20636 39.206331,39.206331 0 0 1 -39.20636,-39.20636 39.206331,39.206331 0 0 1 39.20636,-39.20636 z" /><path
           style="color:#000000;fill:#ffffff;fill-opacity:1;stroke-linecap:round;stroke-linejoin:round;-inkscape-stroke:none"
           d="m 324.73828,266.58984 c -2.36412,0 -4.28125,1.91909 -4.28125,4.28321 0,2.36412 1.91713,4.2832 4.28125,4.2832 2.36412,0 4.2832,-1.91908 4.2832,-4.2832 0,-2.36412 -1.91908,-4.28321 -4.2832,-4.28321 z m 0,0.1836 c 2.26569,0 4.10156,1.83392 4.10156,4.09961 0,2.26568 -1.83587,4.09961 -4.10156,4.09961 -2.26569,0 -4.09961,-1.83393 -4.09961,-4.09961 0,-2.26569 1.83392,-4.09961 4.09961,-4.09961 z"
           id="circle30" /><g
           id="g32"
           style="fill:#ffffff;fill-opacity:1;stroke:#ffffff"
           transform="matrix(0.67804285,0,0,0.67804285,246.42248,52.400104)"><path
             style="color:#000000;fill:#ffffff;fill-opacity:1;stroke:none;stroke-linecap:round;stroke-linejoin:round;-inkscape-stroke:none"
             d="m 113.20313,322.2793 -47.941411,27.27539 a 1.5,1.5 0 0 0 -0.5625,2.04492 1.5,1.5 0 0 0 2.044922,0.5625 l 47.941409,-27.27539 a 1.5,1.5 0 0 0 0.5625,-2.04492 1.5,1.5 0 0 0 -2.04492,-0.5625 z"
             id="path31" /><path
             style="color:#000000;fill:#ffffff;fill-opacity:1;stroke:none;stroke-linecap:round;stroke-linejoin:round;-inkscape-stroke:none"
             d="m 110.52344,323.36914 -41.380862,34.06445 a 1.5,1.5 0 0 0 -0.205078,2.11328 1.5,1.5 0 0 0 2.111328,0.20313 l 41.382812,-34.06641 a 1.5,1.5 0 0 0 0.20313,-2.11132 1.5,1.5 0 0 0 -2.11133,-0.20313 z"
             id="path32" /></g><g
           id="g34"
           transform="matrix(0.59493526,-0.32526012,0.32526012,0.59493526,151.25586,116.71718)"
           style="fill:#ffffff;fill-opacity:1;stroke:#ffffff"><path
             style="color:#000000;fill:#ffffff;fill-opacity:1;stroke:none;stroke-linecap:round;stroke-linejoin:round;-inkscape-stroke:none"
             d="m 113.20313,322.2793 -47.941411,27.27539 a 1.5,1.5 0 0 0 -0.5625,2.04492 1.5,1.5 0 0 0 2.044922,0.5625 l 47.941409,-27.27539 a 1.5,1.5 0 0 0 0.5625,-2.04492 1.5,1.5 0 0 0 -2.04492,-0.5625 z"
             id="path33" /><path
             style="color:#000000;fill:#ffffff;fill-opacity:1;stroke:none;stroke-linecap:round;stroke-linejoin:round;-inkscape-stroke:none"
             d="m 110.52344,323.36914 -41.380862,34.06445 a 1.5,1.5 0 0 0 -0.205078,2.11328 1.5,1.5 0 0 0 2.111328,0.20313 l 41.382812,-34.06641 a 1.5,1.5 0 0 0 0.20313,-2.11132 1.5,1.5 0 0 0 -2.11133,-0.20313 z"
             id="path34" /></g><g
           id="g36"
           transform="matrix(0.32706139,-0.59394693,0.59394693,0.32706139,95.541605,234.39929)"
           style="fill:#ffffff;fill-opacity:1;stroke:#ffffff"><path
             style="color:#000000;fill:#ffffff;fill-opacity:1;stroke:none;stroke-linecap:round;stroke-linejoin:round;-inkscape-stroke:none"
             d="m 113.20313,322.2793 -47.941411,27.27539 a 1.5,1.5 0 0 0 -0.5625,2.04492 1.5,1.5 0 0 0 2.044922,0.5625 l 47.941409,-27.27539 a 1.5,1.5 0 0 0 0.5625,-2.04492 1.5,1.5 0 0 0 -2.04492,-0.5625 z"
             id="path35" /><path
             style="color:#000000;fill:#ffffff;fill-opacity:1;stroke:none;stroke-linecap:round;stroke-linejoin:round;-inkscape-stroke:none"
             d="m 110.52344,323.36914 -41.380862,34.06445 a 1.5,1.5 0 0 0 -0.205078,2.11328 1.5,1.5 0 0 0 2.111328,0.20313 l 41.382812,-34.06641 a 1.5,1.5 0 0 0 0.20313,-2.11132 1.5,1.5 0 0 0 -2.11133,-0.20313 z"
             id="path36" /></g><g
           id="g38"
           transform="matrix(-0.07763391,-0.67358376,0.67358376,-0.07763391,117.85652,374.09356)"
           style="fill:#ffffff;fill-opacity:1;stroke:#ffffff"><path
             style="color:#000000;fill:#ffffff;fill-opacity:1;stroke:none;stroke-linecap:round;stroke-linejoin:round;-inkscape-stroke:none"
             d="m 113.20313,322.2793 -47.941411,27.27539 a 1.5,1.5 0 0 0 -0.5625,2.04492 1.5,1.5 0 0 0 2.044922,0.5625 l 47.941409,-27.27539 a 1.5,1.5 0 0 0 0.5625,-2.04492 1.5,1.5 0 0 0 -2.04492,-0.5625 z"
             id="path37" /><path
             style="color:#000000;fill:#ffffff;fill-opacity:1;stroke:none;stroke-linecap:round;stroke-linejoin:round;-inkscape-stroke:none"
             d="m 110.52344,323.36914 -41.380862,34.06445 a 1.5,1.5 0 0 0 -0.205078,2.11328 1.5,1.5 0 0 0 2.111328,0.20313 l 41.382812,-34.06641 a 1.5,1.5 0 0 0 0.20313,-2.11132 1.5,1.5 0 0 0 -2.11133,-0.20313 z"
             id="path38" /></g><g
           id="g40"
           transform="matrix(-0.39248628,-0.55289839,0.55289839,-0.39248628,193.14816,461.60749)"
           style="fill:#ffffff;fill-opacity:1;stroke:#ffffff"><path
             style="color:#000000;fill:#ffffff;fill-opacity:1;stroke:none;stroke-linecap:round;stroke-linejoin:round;-inkscape-stroke:none"
             d="m 113.20313,322.2793 -47.941411,27.27539 a 1.5,1.5 0 0 0 -0.5625,2.04492 1.5,1.5 0 0 0 2.044922,0.5625 l 47.941409,-27.27539 a 1.5,1.5 0 0 0 0.5625,-2.04492 1.5,1.5 0 0 0 -2.04492,-0.5625 z"
             id="path39" /><path
             style="color:#000000;fill:#ffffff;fill-opacity:1;stroke:none;stroke-linecap:round;stroke-linejoin:round;-inkscape-stroke:none"
             d="m 110.52344,323.36914 -41.380862,34.06445 a 1.5,1.5 0 0 0 -0.205078,2.11328 1.5,1.5 0 0 0 2.111328,0.20313 l 41.382812,-34.06641 a 1.5,1.5 0 0 0 0.20313,-2.11132 1.5,1.5 0 0 0 -2.11133,-0.20313 z"
             id="path40" /></g><g
           id="g42"
           transform="matrix(-0.63767849,-0.23045228,0.23045228,-0.63767849,325.82309,503.4453)"
           style="fill:#ffffff;fill-opacity:1;stroke:#ffffff"><path
             style="color:#000000;fill:#ffffff;fill-opacity:1;stroke:none;stroke-linecap:round;stroke-linejoin:round;-inkscape-stroke:none"
             d="m 113.20313,322.2793 -47.941411,27.27539 a 1.5,1.5 0 0 0 -0.5625,2.04492 1.5,1.5 0 0 0 2.044922,0.5625 l 47.941409,-27.27539 a 1.5,1.5 0 0 0 0.5625,-2.04492 1.5,1.5 0 0 0 -2.04492,-0.5625 z"
             id="path41" /><path
             style="color:#000000;fill:#ffffff;fill-opacity:1;stroke:none;stroke-linecap:round;stroke-linejoin:round;-inkscape-stroke:none"
             d="m 110.52344,323.36914 -41.380862,34.06445 a 1.5,1.5 0 0 0 -0.205078,2.11328 1.5,1.5 0 0 0 2.111328,0.20313 l 41.382812,-34.06641 a 1.5,1.5 0 0 0 0.20313,-2.11132 1.5,1.5 0 0 0 -2.11133,-0.20313 z"
             id="path42" /></g><g
           id="g44"
           transform="matrix(-0.65810384,0.16322204,-0.16322204,-0.65810384,454.79932,464.80374)"
           style="fill:#ffffff;fill-opacity:1;stroke:#ffffff"><path
             style="color:#000000;fill:#ffffff;fill-opacity:1;stroke:none;stroke-linecap:round;stroke-linejoin:round;-inkscape-stroke:none"
             d="m 113.20313,322.2793 -47.941411,27.27539 a 1.5,1.5 0 0 0 -0.5625,2.04492 1.5,1.5 0 0 0 2.044922,0.5625 l 47.941409,-27.27539 a 1.5,1.5 0 0 0 0.5625,-2.04492 1.5,1.5 0 0 0 -2.04492,-0.5625 z"
             id="path43" /><path
             style="color:#000000;fill:#ffffff;fill-opacity:1;stroke:none;stroke-linecap:round;stroke-linejoin:round;-inkscape-stroke:none"
             d="m 110.52344,323.36914 -41.380862,34.06445 a 1.5,1.5 0 0 0 -0.205078,2.11328 1.5,1.5 0 0 0 2.111328,0.20313 l 41.382812,-34.06641 a 1.5,1.5 0 0 0 0.20313,-2.11132 1.5,1.5 0 0 0 -2.11133,-0.20313 z"
             id="path44" /></g><g
           id="g46"
           transform="matrix(-0.46897096,0.4897023,-0.4897023,-0.46897096,536.98469,366.01666)"
           style="fill:#ffffff;fill-opacity:1;stroke:#ffffff"><path
             style="color:#000000;fill:#ffffff;fill-opacity:1;stroke:none;stroke-linecap:round;stroke-linejoin:round;-inkscape-stroke:none"
             d="m 114.3457,322.13867 a 1.5,1.5 0 0 0 -1.14062,0.13867 l -50.095705,28.35938 a 1.5,1.5 0 0 0 -0.566406,2.04492 1.5,1.5 0 0 0 2.044922,0.56641 l 50.095699,-28.35938 a 1.5,1.5 0 0 0 0.56641,-2.04492 1.5,1.5 0 0 0 -0.9043,-0.70508 z"
             id="path45" /><path
             style="color:#000000;fill:#ffffff;fill-opacity:1;stroke:none;stroke-linecap:round;stroke-linejoin:round;-inkscape-stroke:none"
             d="m 110.52344,323.36914 -41.380862,34.06445 a 1.5,1.5 0 0 0 -0.205078,2.11328 1.5,1.5 0 0 0 2.111328,0.20313 l 41.382812,-34.06641 a 1.5,1.5 0 0 0 0.20313,-2.11132 1.5,1.5 0 0 0 -2.11133,-0.20313 z"
             id="path46" /></g><g
           id="g48"
           transform="matrix(-0.08670164,0.67247671,-0.67247671,-0.08670164,550.91936,221.4921)"
           style="fill:#ffffff;fill-opacity:1;stroke:#ffffff"><path
             style="color:#000000;fill:#ffffff;fill-opacity:1;stroke:none;stroke-linecap:round;stroke-linejoin:round;-inkscape-stroke:none"
             d="m 113.20313,322.2793 -47.941411,27.27539 a 1.5,1.5 0 0 0 -0.5625,2.04492 1.5,1.5 0 0 0 2.044922,0.5625 l 47.941409,-27.27539 a 1.5,1.5 0 0 0 0.5625,-2.04492 1.5,1.5 0 0 0 -2.04492,-0.5625 z"
             id="path47" /><path
             style="color:#000000;fill:#ffffff;fill-opacity:1;stroke:none;stroke-linecap:round;stroke-linejoin:round;-inkscape-stroke:none"
             d="m 110.52344,323.36914 -41.380862,34.06445 a 1.5,1.5 0 0 0 -0.205078,2.11328 1.5,1.5 0 0 0 2.111328,0.20313 l 41.382812,-34.06641 a 1.5,1.5 0 0 0 0.20313,-2.11132 1.5,1.5 0 0 0 -2.11133,-0.20313 z"
             id="path48" /></g><g
           id="g50"
           transform="matrix(0.43372194,0.52117885,-0.52117885,0.43372194,442.24217,71.401261)"
           style="fill:#ffffff;fill-opacity:1;stroke:#ffffff"><path
             style="color:#000000;fill:#ffffff;fill-opacity:1;stroke:none;stroke-linecap:round;stroke-linejoin:round;-inkscape-stroke:none"
             d="m 113.20313,322.2793 -47.941411,27.27539 a 1.5,1.5 0 0 0 -0.5625,2.04492 1.5,1.5 0 0 0 2.044922,0.5625 l 47.941409,-27.27539 a 1.5,1.5 0 0 0 0.5625,-2.04492 1.5,1.5 0 0 0 -2.04492,-0.5625 z"
             id="path49" /><path
             style="color:#000000;fill:#ffffff;fill-opacity:1;stroke:none;stroke-linecap:round;stroke-linejoin:round;-inkscape-stroke:none"
             d="m 110.52344,323.36914 -41.380862,34.06445 a 1.5,1.5 0 0 0 -0.205078,2.11328 1.5,1.5 0 0 0 2.111328,0.20313 l 41.382812,-34.06641 a 1.5,1.5 0 0 0 0.20313,-2.11132 1.5,1.5 0 0 0 -2.11133,-0.20313 z"
             id="path50" /></g><path
           style="fill:#ffffff;fill-opacity:1;stroke:none;stroke-width:2.03413;stroke-linecap:round;stroke-linejoin:round;stroke-opacity:1"
           d="m 188.04083,270.38436 -2.73652,1.09918 -1.23629,-4.02366 17.1093,-46.75178 7.49897,-0.3167 c 0,0 1.28787,3.30837 -0.71991,6.98511 -2.00778,3.67674 -19.91555,43.00785 -19.91555,43.00785 z"
           id="path51"
           sodipodi:nodetypes="cccccsc" /><path
           id="circle52"
           style="fill:#ffffff;fill-opacity:1;stroke:none;stroke-width:6.03006;stroke-linecap:round;stroke-linejoin:round;stroke-opacity:1"
           d="m 269.14108,265.96795 a 12.931636,12.931636 0 0 0 -12.9316,12.9316 12.931636,12.931636 0 0 0 12.9316,12.93159 12.931636,12.931636 0 0 0 12.93159,-12.93159 12.931636,12.931636 0 0 0 -12.93159,-12.9316 z m 0,2.82424 a 10.107213,10.107213 0 0 1 10.10705,10.10736 10.107213,10.107213 0 0 1 -10.10705,10.10705 10.107213,10.107213 0 0 1 -10.10736,-10.10705 10.107213,10.107213 0 0 1 10.10736,-10.10736 z" /><path
           id="path52"
           style="fill:#ffffff;fill-opacity:1;stroke-width:2.03413;stroke-linecap:round;stroke-linejoin:round"
           d="m 272.62739,278.89954 a 3.4863029,3.4863029 0 0 1 -3.48631,3.4863 3.4863029,3.4863029 0 0 1 -3.4863,-3.4863 3.4863029,3.4863029 0 0 1 3.4863,-3.48631 3.4863029,3.4863029 0 0 1 3.48631,3.48631 z" /><path
           id="circle53"
           style="fill:#ffffff;fill-opacity:1;stroke-width:3.20785;stroke-linecap:round;stroke-linejoin:round"
           d="m 191.21348,271.1882 a 5.4979529,5.4979529 0 0 1 -5.49795,5.49795 5.4979529,5.4979529 0 0 1 -5.49795,-5.49795 5.4979529,5.4979529 0 0 1 5.49795,-5.49795 5.4979529,5.4979529 0 0 1 5.49795,5.49795 z" /><path
           id="circle54"
           style="fill:#ffffff;fill-opacity:1;stroke-width:3.20785;stroke-linecap:round;stroke-linejoin:round"
           d="m 330.7583,271.1882 a 5.4979529,5.4979529 0 0 1 -5.49795,5.49795 5.4979529,5.4979529 0 0 1 -5.49796,-5.49795 5.4979529,5.4979529 0 0 1 5.49796,-5.49795 5.4979529,5.4979529 0 0 1 5.49795,5.49795 z" /><path
           id="rect55"
           style="fill:#ffffff;fill-opacity:1;stroke-width:2.13741;stroke-linecap:round;stroke-linejoin:round"
           transform="matrix(0.05879121,0.9982703,-0.9999929,0.00376718,0,0)"
           d="m 302.16733,-255.04655 c 0.75133,0 1.3562,0.82256 1.3562,1.84432 v 8.71843 c 0,1.02176 -0.60487,1.84432 -1.3562,1.84432 -0.75134,0 -1.3562,-0.82256 -1.3562,-1.84432 v -8.71843 c 0,-1.02176 0.60486,-1.84432 1.3562,-1.84432 z" /><path
           style="fill:#ffffff;fill-opacity:1;stroke:none;stroke-width:2.03413;stroke-linecap:round;stroke-linejoin:round;stroke-opacity:1"
           d="m 257.17671,277.51464 -46.68241,-55.07416 -3.64087,-2.23973 -0.6457,-3.82689 9.35054,-3.5658 46.73826,55.73572 z"
           id="path57" /><path
           style="fill:#ffffff;fill-opacity:1;stroke:none;stroke-width:2.03413;stroke-linecap:round;stroke-linejoin:round;stroke-opacity:1"
           d="m 200.98889,221.64962 c 0,0 2.64408,-17.27201 6.03975,-18.97205 2.53005,-0.67423 8.33781,0.64323 8.33781,0.64323 l 4.14325,6.24691 c 0,0 -4.15915,-0.65245 -3.89318,6.37994 0.26596,7.03238 -6.00377,4.65168 -6.00377,4.65168 l -2.48218,3.42116 z"
           id="path58" /><path
           style="fill:#ffffff;fill-opacity:1;stroke:none;stroke-width:2.03413;stroke-linecap:round;stroke-linejoin:round;stroke-opacity:1"
           d="m 219.5097,209.56771 c 0,0 26.68463,-2.64601 63.77314,10.05621 3.55013,1.18705 7.75655,5.6214 12.94896,12.67502 -0.0725,-0.15016 3.10267,2.14174 3.10267,2.14174 l -0.57886,-3.88495 c -3.20764,-4.1225 -4.98353,-8.24725 -9.62292,-12.3675 0,0 -4.5355,-3.23927 -12.95882,-5.10292 -8.42332,-1.86365 -43.23027,-10.90126 -60.80742,-9.76451 -4.4845,1.03813 -5.11715,5.49432 -5.11715,5.49432 z"
           id="path59"
           sodipodi:nodetypes="ccccccsccc" /><path
           style="fill:#ffffff;fill-opacity:1;stroke:none;stroke-width:2.03413;stroke-linecap:round;stroke-linejoin:round;stroke-opacity:1"
           d="m 270.15741,279.09237 20.72842,-69.76135 -6.84176,-2.5091 -17.69064,71.67698 z"
           id="path60" /><path
           style="fill:#ffffff;fill-opacity:1;stroke:none;stroke-width:2.03413;stroke-linecap:round;stroke-linejoin:round;stroke-opacity:1"
           d="m 290.88583,209.33102 -6.84176,-2.5091 5.93379,-26.77702 24.13735,-1.02341 c 0,0 3.43515,2.51008 2.07728,4.60463 -1.35785,2.09455 -10.78639,1.15465 -10.78639,1.15465 0,0 -3.2222,-0.005 -5.92324,1.99431 -2.76571,2.04763 -4.99979,6.76162 -8.59703,22.55594 z"
           id="path61"
           sodipodi:nodetypes="ccccscsc" /><path
           id="path62"
           style="display:inline;fill:#ffffff;fill-opacity:1;stroke:none;stroke-width:2.03413;stroke-linecap:round;stroke-linejoin:round;stroke-opacity:1"
           d="m 182.65997,187.16157 c -0.91018,0.005 -1.59041,0.5897 -1.59041,0.5897 0,0 -0.37673,4.84204 0.44744,6.48079 -1.98647,0.96444 -6.66508,-0.46777 -6.66508,-0.46777 0,0 -1.69891,-4.11956 -3.55189,-4.81714 -3.25754,0.62336 -1.16649,8.01242 -1.23547,8.04422 -2.80463,5.60809 0.49187,16.47075 1.56449,14.14447 -1.53414,-13.87285 2.43258,-12.11407 2.51684,-12.11678 4.65758,1.0422 5.47061,6.66368 5.47061,6.66368 4.92922,12.7417 18.45219,11.36224 20.51664,11.52428 2.48148,0.0478 2.67431,-3.69925 0.79363,-3.72183 -15.11801,1.09859 -17.17569,-10.47906 -17.17569,-10.47906 0,0 -0.32523,-2.40699 2.11425,-4.93067 7.42072,-3.06105 14.49136,-2.31922 14.49136,-2.31922 l 6.92577,-4.36093 -5.1903,-0.39489 c 0,0 -3.31689,-0.43487 -5.70082,-0.98283 -3.3857,1.50597 -9.11746,1.63245 -9.11746,1.63245 0,0 -1.9647,-2.65793 -2.82447,-3.62056 -0.61452,-0.66569 -1.24333,-0.87099 -1.78944,-0.86791 z"
           sodipodi:nodetypes="sccccccccccccccccccs" /><path
           style="fill:#ffffff;fill-opacity:1;stroke:none;stroke-width:2.03413;stroke-linecap:round;stroke-linejoin:round;stroke-opacity:1"
           d="m 191.89766,201.53699 -7.07638,-0.3777 -5.2841,2.79366 c 0,0 -3.18528,2.88124 -2.27964,6.08635 0.24167,0.22301 0.11999,0.82159 1.21439,0.9874 0.0293,0.0667 0.49805,2.43075 2.50676,2.33035 -0.0384,0.0203 0.58262,1.73264 2.6623,1.76768 0.0104,0.0123 1.3228,3.43576 4.60964,1.84282 -0.0172,0.0368 1.61299,-1.32478 1.45719,-1.89229 -0.15579,-0.56751 0.87599,-1.27839 1.28385,-1.17533 0.40786,0.10307 4.93838,-0.73918 5.86153,-3.36894 0.0603,0.10685 7.33077,-0.96321 7.33077,-0.96321 l 1.11773,-2.87437 c 0,0 5.70964,0.17999 13.77039,-9.94498 0.9869,-1.43536 12.70268,-10.57732 14.06664,-15.86037 1.36396,-5.28303 10.10075,-22.48716 10.10075,-22.48716 0,0 5.17742,4.60359 10.43536,3.66648 2.40464,0.0694 3.96917,1.63305 5.00258,2.95513 0.18954,0.0192 -7.45377,1.18854 -14.83508,6.09509 -5.01139,2.73862 -10.91277,6.71964 -10.91277,6.71964 0,0 -6.0068,5.62164 -1.25811,13.19906 4.74869,7.57742 8.85663,10.26191 8.85663,10.26191 l 19.6864,21.38468 c 0,0 4.36231,7.26162 4.65746,10.28862 0.29515,3.027 -6.08664,16.50965 -6.08664,16.50965 -0.11271,-0.0442 -0.13646,1.79604 -5.10973,4.72478 0.0351,0.0977 -4.85838,6.57364 2.2648,4.3446 7.12318,-2.22904 16.97912,-5.12563 16.97912,-5.12563 0,0 1.20288,0.038 1.68097,-2.29182 0.47809,-2.32985 5.5805,-8.34083 7.36376,-9.22849 1.78325,-0.88766 5.66863,-3.87213 6.48215,-5.25178 0.81354,-1.37962 -3.08558,-5.28331 -3.08558,-5.28331 l -14.52872,-12.93327 c 0,0 -4.10047,-5.26801 -4.12088,-7.56068 -0.0204,-2.29266 -4.6248,-15.34647 -12.90243,-20.39463 0.003,0.0148 23.34437,-0.44701 23.34437,-0.44701 -3.2515,6.90295 -6.65042,13.73998 -7.11381,21.88976 l 19.41742,7.87968 c 0,0 9.73659,-16.0044 10.29427,-21.03003 0.9859,-2.31462 4.37532,-8.10662 7.23938,-11.15611 1.87454,-1.96192 9.833,-7.80742 10.27926,-16.86865 0.44623,-9.06123 -6.58635,-17.3497 -6.58635,-17.3497 0,0 -15.64971,-23.113 -34.4169,-29.88988 -18.7672,-6.77687 -33.70758,-4.33926 -33.70758,-4.33926 l -1.26469,-2.09042 -3.01582,-5.6515 0.98917,-2.66941 c 0,0 -0.50397,-13.700177 -11.31687,-13.196305 -10.8129,0.503874 -17.33034,3.36143 -17.33034,3.36143 0,0 -11.24559,6.159485 -8.08592,19.865225 0.0253,-0.0682 1.84783,0.77792 1.84783,0.77792 l 3.25061,-1.29594 0.12555,1.14789 -1.41813,1.00779 c 0,0 0.56067,2.24513 2.59703,2.91385 0.001,0.0206 -1.46227,4.25137 -0.48611,5.69367 0.4007,0.55238 2.40716,0.0441 2.40716,0.0441 0,0 1.68816,0.95103 1.77557,2.31801 0.16749,-0.0351 2.55744,-0.35355 2.55744,-0.35355 0,0 -1.51229,1.34274 -1.1275,2.49098 0.3848,1.14823 1.97622,0.78627 1.97622,0.78627 0,0 -1.25313,3.51855 1.54412,3.64221 2.8659,-0.50614 6.89409,-1.84946 6.89409,-1.84946 l 0.1808,1.1406 2.44889,-0.36975 -0.19102,-1.52603 0.78682,0.63154 c 0,0 1.13252,0.20306 0.58337,1.43116 0.005,0.056 -4.17515,1.72884 -4.57276,15.38847 0.0739,0.009 1.0299,2.41649 -5.55946,14.12489 -3.21818,5.11813 -20.11983,29.09724 -20.11983,29.09724 l -2.6008,1.38715 0.0512,1.45242 z"
           id="path63"
           sodipodi:nodetypes="ccccccccssccccscccccsccsccscsssccsccccccscsccccscccccccccccscccccccccccccc" /><path
           id="rect63"
           style="fill:#ffffff;fill-opacity:1;stroke-width:3.1987;stroke-linecap:round;stroke-linejoin:round"
           transform="matrix(0.33119409,0.94356265,-0.95713536,0.28964099,0,0)"
           d="m 323.12782,-184.79869 h 0.34466 c 0.76015,0 1.37211,0.61196 1.37211,1.37211 v 21.65594 c 0,0.76015 -0.61196,1.37211 -1.37211,1.37211 h -0.34466 c -0.76015,0 -1.37211,-0.61196 -1.37211,-1.37211 v -21.65594 c 0,-0.76015 0.61196,-1.37211 1.37211,-1.37211 z" /><path
           style="fill:#ffffff;fill-opacity:1;stroke:none;stroke-width:2.03413;stroke-linecap:round;stroke-linejoin:round;stroke-opacity:1"
           d="m 268.6795,290.59591 1.10046,-77.23704 19.37314,6.26352 c 1.61157,24.46072 -6.87481,46.67236 -10.52523,69.9611 z"
           id="path64"
           sodipodi:nodetypes="ccccc" /></g></g></g></svg>
