<?xml version="1.0" encoding="UTF-8" standalone="no"?>
<!-- Created with Inkscape (http://www.inkscape.org/) -->

<svg
   width="500mm"
   height="500mm"
   viewBox="0 0 500 500"
   version="1.1"
   id="svg1"
   inkscape:version="1.3.2 (091e20e, 2023-11-25)"
   xml:space="preserve"
   sodipodi:docname="GPS.svg"
   xmlns:inkscape="http://www.inkscape.org/namespaces/inkscape"
   xmlns:sodipodi="http://sodipodi.sourceforge.net/DTD/sodipodi-0.dtd"
   xmlns="http://www.w3.org/2000/svg"
   xmlns:svg="http://www.w3.org/2000/svg"><sodipodi:namedview
     id="namedview1"
     pagecolor="#ffffff"
     bordercolor="#000000"
     borderopacity="0.25"
     inkscape:showpageshadow="2"
     inkscape:pageopacity="0.0"
     inkscape:pagecheckerboard="0"
     inkscape:deskcolor="#d1d1d1"
     inkscape:document-units="mm"
     showgrid="false"
     inkscape:zoom="0.25982083"
     inkscape:cx="944.88189"
     inkscape:cy="944.88189"
     inkscape:window-width="1356"
     inkscape:window-height="697"
     inkscape:window-x="0"
     inkscape:window-y="0"
     inkscape:window-maximized="1"
     inkscape:current-layer="layer1" /><defs
     id="defs1" /><g
     inkscape:label="Layer 1"
     inkscape:groupmode="layer"
     id="layer1"><g
       id="g16"
       transform="translate(0,-3.3544471)"><g
         id="g12"
         transform="translate(-11.161352,29.033715)"><path
           id="path3"
           style="fill:#ba8b30;fill-opacity:1;stroke:#000000;stroke-width:20;stroke-linecap:square;stroke-linejoin:bevel;stroke-opacity:0"
           d="m 412.13073,89.60339 c 0,0 -0.44097,0.0695 -0.46612,0.0724 0.154,0.2967 0.32335,0.57488 0.46716,0.88211 -0.003,-0.1663 -0.001,-0.95446 -0.001,-0.95446 z m -295.75197,0.53795 c 2.97556,4.44312 6.22608,9.63941 6.18257,9.73222 -2.08911,4.45521 -10.27388,-3.33864 -12.07885,0.17209 -3.20356,6.23098 15.85403,10.75985 16.81241,13.83636 1.64458,5.27941 -13.53824,-0.39066 -10.03608,4.49017 3.55619,4.95612 12.72878,8.89326 18.40973,10.527 2.31518,0.66581 5.25299,-0.18241 7.42074,0.89297 1.1713,0.58109 2.36472,1.98791 1.04644,3.07785 -3.38568,2.79927 -11.33439,-0.37863 -13.55731,2.1854 -3.63721,4.19536 13.76739,3.29297 14.93707,7.72614 1.02741,3.89383 -4.31238,5.98964 -3.77599,7.55148 3.2859,9.56785 14.50996,3.56011 19.93211,8.64133 3.568,3.34366 2.55224,12.88197 5.85133,15.17478 5.51762,3.83469 8.69757,-3.2742 11.7259,4.14394 0.69221,1.69562 1.25829,4.5611 2.61637,5.87923 1.63167,1.58362 4.22494,0.12067 6.13658,0.61546 1.83537,0.47504 2.12022,2.84944 3.61528,3.81682 1.77906,1.15116 4.42709,0.63124 6.42183,1.56993 1.45475,0.68459 1.90668,2.4195 3.33003,3.13935 1.71493,0.86729 4.29713,-0.49945 6.17275,0.0501 2.21285,0.64843 4.13091,2.9802 6.25285,3.95273 1.96657,0.90133 4.69729,-0.0241 6.80269,0.46147 1.58488,0.36553 1.46061,3.74337 2.77554,3.95067 2.01115,0.31702 3.66725,-3.07921 6.12572,-1.95906 1.88052,5.15482 -3.46913,6.26777 -7.03058,8.38037 -5.54501,3.19831 -18.24671,13.48393 -22.19141,16.36334 -1.46996,4.17859 7.83114,2.22476 9.27334,7.00733 0.89356,2.96318 -2.04743,6.16699 -0.47077,9.48262 1.83528,3.85953 6.60789,5.48659 9.5529,8.31422 2.35628,2.26238 0.39891,7.1503 4.1398,8.97672 3.56901,1.7425 7.54733,0.79079 11.0939,2.03656 3.67749,1.29175 7.0164,5.67673 11.20086,5.3759 3.12409,-0.22461 5.67985,-2.44347 9.08214,-2.37246 5.9671,0.12454 10.98958,3.53748 17.0496,1.08675 3.3528,-1.35591 5.32408,-5.79554 7.97161,-8.18348 2.72732,-2.45992 7.24118,-1.8938 10.29291,-4.44004 4.51165,-3.76437 4.57526,-10.21117 7.43107,-14.72209 2.89171,-4.56768 8.2012,-5.29127 7.84655,-11.93933 -0.28957,-5.42819 2.73706,-5.57156 5.06067,-7.53494 -0.0266,-0.014 -24.06118,-14.18671 -31.93035,-14.67714 -7.86917,-0.49042 -11.99481,-2.83989 -11.77085,-5.13922 0.30641,-2.93618 9.41089,-0.666 11.12851,-0.82475 6.35306,-0.58722 3.25782,-5.0838 7.22334,-8.61188 2.14445,-1.90795 8.22967,0.14371 11.03653,-0.73846 7.80941,-2.45441 -3.90792,-6.1973 -0.73019,-7.2254 8.14646,-2.63559 17.52582,4.29394 25.40259,2.40089 8.87066,-2.13189 -18.34552,-12.42028 -3.89951,-10.61641 9.1304,1.14013 28.68892,4.87296 28.68456,-0.0925 -3e-5,-0.0354 -4.64599,-0.68997 -5.71231,-0.61185 -3.3565,0.24586 -16.88483,-3.82274 -15.69775,-9.19943 1.09307,-4.95096 37.21607,-2.41758 42.00208,-4.45865 0.52523,-0.22397 -5.96971,-2.38702 -6.55515,-2.52232 -1.98959,-0.45979 -23.47082,-6.96961 -10.66602,-7.78196 4.50733,-0.28595 31.96054,2.54966 33.28221,-0.28577 0.30946,-0.6639 -6.99766,-0.53765 -7.52254,-0.55345 -3.05136,-0.0918 -20.03533,-3.53526 -17.45837,-9.29556 1.06953,-2.39072 33.91386,3.74296 35.72496,-1.44694 0.9924,-2.84388 -27.84822,-0.91034 -25.49716,-9.60303 0.0629,-0.23268 32.82499,-0.44737 33.54886,-5.82755 0.0968,-0.71929 -32.88079,-4.98065 -33.06465,-9.27644 -0.09,-2.10389 26.10102,-7.37731 30.16457,-8.28115 0.97142,-0.21607 8.87028,-3.12907 6.56962,-5.33869 -3.49165,-3.35348 -38.91806,8.48969 -40.45489,7.06003 -0.28734,-0.26731 1.71843,-1.66516 4.13618,-3.23287 -11.99067,4.30798 -26.14442,10.11497 -42.30388,18.02835 -0.25939,-0.0445 -5.67563,5.35634 -2.04173,-4.05453 0,0 -13.40853,3.51712 -26.66763,19.43034 -8.91843,6.02486 -23.61253,16.25811 -29.08401,17.67231 -5.47145,1.41419 -12.22406,-0.6904 -12.22406,-0.6904 0,0 -6.66359,-5.96263 -13.86789,-4.10208 -7.20425,1.86059 -7.90959,6.01411 -7.90959,6.01411 0,0 -27.61022,-8.75898 -35.03249,-22.84409 -7.29882,-10.46196 -19.35851,-17.14727 -19.35851,-17.14727 0,0 4.64649,7.45792 1.07487,9.77615 -0.40133,0.0668 -40.15729,-22.76537 -63.95165,-33.36231 z" /><path
           id="rect8"
           style="fill:#f2e6ce;stroke:#000000;stroke-width:20;stroke-linecap:square;stroke-linejoin:bevel;stroke-opacity:0"
           transform="rotate(-18.233078)"
           d="m 144.78482,300.46774 c 5.11429,1.59018 26.07951,1.30495 55.66344,0 -2.03336,10.91027 -9.6e-4,22.1656 0,33.24852 -17.95376,-1.89809 -37.10879,-5.5e-4 -55.66344,0 1.6717,-10.55218 2.76571,-21.28773 0,-33.24852 z"
           sodipodi:nodetypes="ccccc" /><path
           style="fill:#604819;fill-opacity:1;stroke:#000000;stroke-width:20;stroke-linecap:square;stroke-linejoin:bevel;stroke-opacity:0"
           d="m 248.79913,163.08755 c 0,0 -3.43007,2.09817 -4.75344,4.7765 0.14262,0.24619 -2.94274,-2.89375 -5.11784,-3.04189 0.0191,0.14353 2.45218,-7.09029 9.87128,-1.73461 z"
           id="path4" /><path
           style="fill:#604819;fill-opacity:1;stroke:#000000;stroke-width:20;stroke-linecap:square;stroke-linejoin:bevel;stroke-opacity:0"
           d="m 248.22173,155.10072 c -0.61351,-0.52104 -2.18623,-3.84781 -0.0678,-3.53914 1.22462,0.17843 1.38929,-0.0151 1.38929,-0.0151 0,0 0.94871,2.42132 -0.70313,3.41746 0.32951,-0.19312 -0.61834,0.13674 -0.61834,0.13674 z"
           id="path5"
           sodipodi:nodetypes="cscccc" /><path
           id="path8"
           style="fill:#ffffff;fill-opacity:1;stroke:none;stroke-width:20;stroke-linecap:square;stroke-linejoin:bevel;stroke-opacity:0"
           d="m 281.53734,223.7388 c -26.15114,9.86458 -44.84662,16.25553 -50.01039,16.34215 0,0 23.24533,7.68612 35.66346,2.15233 0.0996,-0.0258 0.80014,-12.60983 14.34693,-18.49448 z" /><path
           style="fill:#604819;fill-opacity:1;stroke:#000000;stroke-width:20;stroke-linecap:square;stroke-linejoin:bevel;stroke-opacity:0"
           d="m 263.53004,223.17493 c -0.45118,-0.65161 0.1382,-3.04514 -0.84171,-3.28292 -1.17419,-0.2849 -2.10834,3.96523 -2.19982,4.70334 -0.23196,1.87148 -0.27437,3.64858 -0.2947,5.53453 -0.009,0.83981 -0.24104,1.90201 -10e-4,2.74145 0.0489,0.17118 0.27006,0.34454 0.31377,0.47972 0.13576,0.41989 -0.0294,1.64692 0.0665,1.69055 0.34815,0.15833 0.68334,-1.90942 0.95104,-1.44317 0.45605,0.79428 0.37543,2.03928 0.90659,2.72669 0.32206,0.4168 -0.21575,1.30863 -0.0311,1.33022 0.21692,0.0254 0.45217,-0.58626 0.57341,-0.70625 0.36086,-0.35711 0.99702,-0.6989 1.09325,-1.17922 0.0543,-0.27112 0.10679,-0.53266 0.16946,-0.80132 0.0156,-0.0668 0.0234,-0.27294 0.0234,-0.20439 0,0.63907 -0.134,0.78285 0.29945,0.40484 0.31752,-0.27692 0.66193,-0.63328 0.81792,-1.03706 0.62767,-1.62454 -0.18642,-4.38137 -0.42161,-6.01732 -0.091,-0.6332 -0.0356,-1.31148 -0.24765,-1.92137 -0.24694,-0.71007 -1.55218,-2.32736 -1.17691,-3.01832 z"
           id="path6" /><path
           style="fill:#604819;fill-opacity:1;stroke:#000000;stroke-width:20;stroke-linecap:square;stroke-linejoin:bevel;stroke-opacity:0"
           d="m 252.42134,228.38421 c -0.33596,-0.31155 -1.6097,-0.44929 -1.79035,0.19436 -0.0729,0.25966 0.11868,0.66413 0.13407,0.93305 0.002,0.0369 -0.0177,-0.0718 -0.0296,-0.10678 -0.11313,-0.33338 -0.27961,-0.62058 -0.60652,-0.77335 -0.74367,-0.34756 -1.13426,0.38322 -1.24209,1.01116 -0.22402,1.30455 0.38157,3.77904 0.79967,5.01411 0.44222,1.30633 0.90267,2.5545 1.90686,3.53629 0.39433,0.38554 0.93317,0.91918 1.24859,1.22336 -0.11248,-1.01821 -0.85554,-2.19085 -1.03169,-3.32704 -0.0232,-0.14976 -0.004,-0.53712 0.082,-0.41192 0.25791,0.89314 1.00182,1.3536 1.62932,1.97723 0.0305,0.0342 0.43408,0.48429 0.44002,0.47686 0.12897,-0.16153 -0.41749,-1.196 -0.48019,-1.39885 -1.10304,-3.56866 0.84476,-6.58205 -1.06009,-8.34848 z"
           id="path7"
           sodipodi:nodetypes="ssccsssssssscss" /><g
           id="g10"
           transform="translate(-0.32903901,0.35290328)"><path
             style="fill:#ff4816;fill-opacity:1;stroke:none;stroke-width:20;stroke-linecap:square;stroke-linejoin:bevel;stroke-opacity:0"
             d="m 268.00486,246.42672 c 0.35063,-0.16997 0.24658,-0.56252 0.63239,-0.94242 0.36248,-0.3569 1.04766,-0.44986 1.20063,-1.0221 0.10943,-0.40937 -0.26527,-1.03072 -0.17867,-1.51346 0.1008,-0.56188 0.44331,-0.98813 0.22595,-1.58905 -0.12417,-0.34329 -0.68781,-0.4999 -0.9393,-0.73856 -0.49699,-0.47164 -0.52832,-1.12049 -1.14763,-1.52748 -0.18028,-0.11848 -0.38973,-0.23855 -0.61245,-0.23855 -0.44924,0 -0.85839,0.28472 -1.31414,0.28472 -0.67357,0 -1.29712,-0.36884 -1.98008,-0.25394 -0.57101,0.0961 -0.91796,0.75497 -1.30222,1.11964 -0.62679,0.59483 -1.37525,0.53974 -1.39259,1.64 -0.009,0.5738 0.42295,1.27483 0.43787,1.86824 0.0156,0.62181 -0.4845,1.91732 0.0687,2.40546 0.89836,0.79266 1.78971,-0.58903 2.47457,0.19692 0.42515,0.4879 0.8391,0.77972 1.30301,0.76651 0.44025,-0.0125 0.51729,-0.57761 0.98944,-0.66864 0.47214,-0.091 1.18386,0.38269 1.53449,0.21271 z"
             id="path10"
             sodipodi:nodetypes="zssssssssssssssszz" /><ellipse
             style="fill:#f03300;fill-opacity:1;stroke:none;stroke-width:20;stroke-linecap:square;stroke-linejoin:bevel;stroke-opacity:0"
             id="path9"
             cx="265.57632"
             cy="242.86909"
             rx="3.078783"
             ry="3.0472035" /></g></g><g
         id="g15"
         transform="translate(-4.6220862)"><g
           id="g11"
           transform="translate(10.439374,29.033715)"><text
             xml:space="preserve"
             style="font-weight:600;font-size:43.4241px;line-height:1;font-family:Outfit;-inkscape-font-specification:'Outfit Semi-Bold';letter-spacing:0px;word-spacing:0px;fill:#000000;fill-opacity:1;stroke:none;stroke-width:82.0615;stroke-linecap:square;stroke-linejoin:bevel;stroke-opacity:0"
             x="207.33585"
             y="332.07294"
             id="text10"><tspan
               sodipodi:role="line"
               id="tspan10"
               style="fill:#000000;fill-opacity:1;stroke-width:82.0615"
               x="207.33585"
               y="332.07294">BPS</tspan></text><text
             xml:space="preserve"
             style="font-weight:600;font-size:19.4072px;line-height:1;font-family:Outfit;-inkscape-font-specification:'Outfit Semi-Bold';letter-spacing:0px;word-spacing:0px;fill:#000000;fill-opacity:1;stroke:none;stroke-width:36.6752;stroke-linecap:square;stroke-linejoin:bevel;stroke-opacity:0"
             x="153.11467"
             y="364.763"
             id="text11"><tspan
               sodipodi:role="line"
               id="tspan11"
               style="stroke-width:36.6752"
               x="153.11467"
               y="364.763">Belgium Post Service</tspan></text></g><path
           style="color:#000000;fill:#000000;stroke-linecap:round;stroke-linejoin:bevel;-inkscape-stroke:none"
           d="m 175.19743,369.15311 a 1.5,1.5 0 0 0 -1.5,1.5 1.5,1.5 0 0 0 1.5,1.5 h 163.7539 a 1.5,1.5 0 0 0 1.5,-1.5 1.5,1.5 0 0 0 -1.5,-1.5 z"
           id="path12" /><path
           id="rect13"
           style="fill:#ffff2e;fill-opacity:1;stroke:none;stroke-width:4.056;stroke-linecap:round;stroke-linejoin:bevel;stroke-dasharray:none;stroke-opacity:1"
           d="m 228.57691,369.15309 v 2.99981 h 52.09036 v -2.99981 z" /><path
           id="rect14"
           style="fill:#fe0000;fill-opacity:1;stroke:none;stroke-width:4.59041;stroke-linecap:round;stroke-linejoin:bevel;stroke-dasharray:none;stroke-opacity:1"
           d="m 280.66727,369.15309 v 2.99981 h 58.28429 a 1.5,1.5 0 0 0 1.49965,-1.49965 1.5,1.5 0 0 0 -1.49965,-1.50016 z" /></g></g></g></svg>
