<?xml version="1.0" encoding="UTF-8" standalone="no"?>
<!-- Created with Inkscape (http://www.inkscape.org/) -->

<svg
   width="500mm"
   height="500mm"
   viewBox="0 0 500 500"
   version="1.1"
   id="svg1"
   inkscape:version="1.3.2 (091e20e, 2023-11-25)"
   sodipodi:docname="DINO PARK.svg"
   xmlns:inkscape="http://www.inkscape.org/namespaces/inkscape"
   xmlns:sodipodi="http://sodipodi.sourceforge.net/DTD/sodipodi-0.dtd"
   xmlns:xlink="http://www.w3.org/1999/xlink"
   xmlns="http://www.w3.org/2000/svg"
   xmlns:svg="http://www.w3.org/2000/svg">
  <sodipodi:namedview
     id="namedview1"
     pagecolor="#ffffff"
     bordercolor="#000000"
     borderopacity="0.25"
     inkscape:showpageshadow="2"
     inkscape:pageopacity="0.0"
     inkscape:pagecheckerboard="0"
     inkscape:deskcolor="#d1d1d1"
     inkscape:document-units="mm"
     showgrid="false"
     showguides="true"
     inkscape:zoom="0.25982083"
     inkscape:cx="946.80629"
     inkscape:cy="944.88189"
     inkscape:window-width="1356"
     inkscape:window-height="697"
     inkscape:window-x="0"
     inkscape:window-y="0"
     inkscape:window-maximized="1"
     inkscape:current-layer="layer1" />
  <defs
     id="defs1">
    <linearGradient
       id="linearGradient1"
       inkscape:collect="always">
      <stop
         style="stop-color:#ff6161;stop-opacity:1;"
         offset="0"
         id="stop1" />
      <stop
         style="stop-color:#ffb711;stop-opacity:1;"
         offset="0.5"
         id="stop3" />
      <stop
         style="stop-color:#ff6262;stop-opacity:1;"
         offset="1"
         id="stop2" />
    </linearGradient>
    <inkscape:path-effect
       effect="fillet_chamfer"
       id="path-effect3"
       is_visible="true"
       lpeversion="1"
       nodesatellites_param="F,0,1,1,0,24.496131,0,1 @ F,0,1,1,0,24.496131,0,1 @ F,0,0,1,0,24.496131,0,1 @ F,0,1,1,0,24.496131,0,1"
       radius="0"
       unit="px"
       method="auto"
       mode="F"
       chamfer_steps="1"
       flexible="false"
       use_knot_distance="true"
       apply_no_radius="true"
       apply_with_radius="true"
       only_selected="false"
       hide_knots="false" />
    <inkscape:path-effect
       effect="fillet_chamfer"
       id="path-effect1"
       is_visible="true"
       lpeversion="1"
       nodesatellites_param="F,0,1,1,0,24.496131,0,1 @ F,0,1,1,0,24.496131,0,1 @ F,0,0,1,0,24.496131,0,1 @ F,0,1,1,0,24.496131,0,1"
       radius="0"
       unit="px"
       method="auto"
       mode="F"
       chamfer_steps="1"
       flexible="false"
       use_knot_distance="true"
       apply_no_radius="true"
       apply_with_radius="true"
       only_selected="false"
       hide_knots="false" />
    <linearGradient
       inkscape:collect="always"
       xlink:href="#linearGradient1"
       id="linearGradient2"
       x1="59.990379"
       y1="292.99435"
       x2="180.69214"
       y2="194.66652"
       gradientUnits="userSpaceOnUse" />
  </defs>
  <g
     inkscape:label="Layer 1"
     inkscape:groupmode="layer"
     id="layer1">
    <text
       xml:space="preserve"
       style="font-style:normal;font-variant:normal;font-weight:600;font-stretch:normal;font-size:92.7204px;line-height:1;font-family:Outfit;-inkscape-font-specification:'Outfit Semi-Bold';letter-spacing:0px;word-spacing:0px;fill:#000000;fill-opacity:1;stroke:none;stroke-width:43.8049;stroke-linecap:round;stroke-linejoin:round;stroke-dasharray:none;stroke-opacity:1"
       x="220.87053"
       y="245.17021"
       id="text13"><tspan
         sodipodi:role="line"
         style="fill:#000000;fill-opacity:1;stroke-width:43.8049;-inkscape-font-specification:'Outfit Semi-Bold';font-family:Outfit;font-weight:600;font-style:normal;font-stretch:normal;font-variant:normal"
         x="220.87053"
         y="245.17021"
         id="tspan15">DINO</tspan></text>
    <path
       id="path18"
       style="fill:#11ff31;fill-opacity:1;stroke:#000000;stroke-width:2.95348;stroke-linecap:round;stroke-linejoin:round;stroke-dasharray:none;stroke-opacity:1"
       d="M 138.51299 181.37032 C 131.6539 181.47296 126.43222 185.27885 121.0753 192.25648 C 110.13512 192.52972 101.65755 196.75695 100.99022 211.34834 L 102.20151 210.70393 C 102.20181 210.71426 102.20171 210.72462 102.20203 210.73494 C 103.35632 212.12037 105.71294 211.78177 107.32575 212.3674 C 109.16828 213.00556 111.06699 212.82194 112.65152 211.64445 C 118.19404 208.2656 124.15783 205.62649 130.01325 203.00828 C 131.11533 200.28212 133.32497 197.82631 133.71639 194.88475 C 133.55245 194.61191 133.3373 194.41724 133.088 194.276 L 134.78144 193.37528 C 130.09668 192.65812 125.46789 192.15992 121.20707 192.2539 L 125.14327 191.20642 C 126.43116 191.58639 128.074 191.37991 129.3704 191.72887 C 131.94797 191.80307 135.40561 193.26512 137.29911 190.72686 C 140.04313 188.4412 143.70222 189.43367 146.867 189.79513 C 148.06136 189.2737 147.93095 187.48643 148.74544 186.50438 C 149.15797 185.88578 149.10277 185.34542 148.80642 184.90809 L 150.92257 184.34482 C 146.16426 182.28231 142.11311 181.31645 138.51299 181.37032 z M 163.33783 181.63542 C 155.85153 181.51273 149.23763 183.75018 148.43642 190.58372 L 150.06267 190.46383 C 150.75925 191.74119 152.86646 192.33918 154.01696 193.0678 C 156.79082 194.30814 159.65054 196.71264 162.8743 195.50125 C 167.60883 194.6389 172.44587 194.25354 177.20675 193.5763 C 179.11881 191.80703 181.24575 190.35945 183.30406 188.85566 C 183.39584 188.51956 183.34273 188.25098 183.20277 188.0247 L 184.96339 187.89499 C 181.42761 184.94549 171.82232 181.77448 163.33783 181.63542 z M 185.24089 189.58533 C 180.64485 189.47047 173.27884 201.66859 167.95047 200.96138 C 161.83709 200.14996 142.11205 183.58658 136.33173 193.21663 C 131.28301 201.62784 129.68725 210.54721 119.28574 213.88462 C 108.54626 216.54843 94.954024 206.24336 86.501697 216.71287 C 77.685383 227.63324 88.532199 241.81222 79.752755 252.60577 C 75.934791 257.29961 68.994592 258.38966 62.873682 260.1588 L 64.660136 256.79414 C 64.594621 257.13322 64.530716 257.47291 64.471 257.8132 C 65.401395 259.43668 67.931902 257.26799 69.487748 257.27939 C 72.162927 256.90661 74.16033 254.97777 75.17784 252.55409 C 77.417894 248.41821 80.138238 244.53451 82.51331 240.50677 C 82.217623 235.32734 81.514019 230.04829 81.954687 224.9134 C 81.852687 224.90393 81.756914 224.83805 81.660132 224.77853 L 82.312288 223.55018 C 70.779271 224.92866 64.494271 251.80287 62.844226 260.1681 C 56.869021 261.89807 51.680715 264.28184 50.964848 271.32246 C 48.558872 294.98545 61.607298 279.93169 68.785465 286.8197 C 70.140745 288.12019 68.935797 295.78 69.684119 297.76735 C 70.053341 298.04401 70.457724 298.29725 70.876811 298.53888 C 70.807732 298.53333 70.716048 298.52427 70.680957 298.52338 C 69.929764 298.86759 70.780839 298.97399 71.835409 299.03343 C 72.362916 299.28429 72.919075 299.49911 73.487504 299.69127 C 73.262788 300.03484 73.794851 300.64318 74.683813 301.33613 L 74.349467 301.29634 C 74.834945 301.74539 75.408493 302.27149 76.017065 302.81924 L 76.381901 302.50712 C 77.09354 302.95558 77.853772 303.39848 78.580216 303.79438 L 77.552372 303.45486 C 81.681357 307.45844 86.499633 308.56244 91.949943 308.20858 L 88.515527 307.0748 C 89.117504 307.0695 89.717236 307.01214 90.3087 306.88721 C 90.22046 304.90477 88.585444 303.07299 87.743481 301.21366 C 87.528777 300.94808 84.853971 300.46338 81.696822 299.97756 C 83.517477 299.34641 85.005923 298.14251 85.748771 296.19484 C 88.293572 298.89061 89.196067 302.6824 91.289518 305.66248 C 93.164727 308.33188 96.732563 310.38646 100.03162 310.11957 C 114.93677 308.91377 103.51245 292.65653 112.23346 288.82165 C 117.50613 286.50308 127.31187 299.41168 139.3734 297.09143 L 136.02581 298.37197 C 131.45689 298.36576 127.34485 295.93814 123.24261 294.35258 C 122.44532 294.62142 121.6483 294.89041 120.85102 295.15924 C 117.19566 296.4613 113.20419 296.89866 109.62897 298.23503 C 109.47631 302.09078 109.32802 306.54942 106.0726 309.22919 C 105.82443 309.50738 105.724 309.74875 105.72326 309.96299 L 103.9983 310.6229 C 117.27468 319.32345 137.96553 311.00891 142.50293 296.14937 C 143.51646 295.73034 144.54258 295.20571 145.58233 294.53293 C 156.97394 287.1618 150.40057 275.9963 155.71556 266.63437 C 160.34469 258.48053 171.24793 260.90413 175.84973 253.99173 C 187.16359 236.99715 175.12167 238.21005 177.98138 225.11494 C 180.6148 213.05614 197.96092 202.69618 187.02734 190.46176 C 186.49784 189.86926 185.89747 189.60174 185.24089 189.58533 z M 76.017065 302.81924 L 75.517354 303.24661 C 73.068148 304.77929 70.247491 305.35698 67.470817 305.85937 C 67.374758 305.93762 67.296094 306.0166 67.231555 306.09656 L 64.416223 305.65783 C 71.121149 315.42451 80.089335 315.73569 87.467013 309.25141 L 84.827897 308.84006 C 84.74356 308.76964 84.636106 308.70376 84.501819 308.64369 C 81.8397 307.82773 78.512124 305.06493 76.017065 302.81924 z M 105.13674 197.68406 C 83.866017 198.41605 77.119943 209.83597 76.089929 225.1568 L 77.819023 223.52124 C 78.58199 224.02695 80.142789 222.92461 81.022961 222.83653 C 83.577055 221.75629 83.629494 218.34246 85.474369 216.54802 C 85.792008 216.1148 86.135878 215.701 86.502214 215.3083 L 87.757951 214.1213 C 90.269578 212.02473 93.507317 210.82293 96.779622 211.0698 C 98.248414 211.0217 100.83084 211.41123 100.13239 209.10042 C 100.36831 205.96746 101.65186 203.12649 102.50692 200.17124 L 105.13674 197.68406 z M 191.61001 201.92618 L 190.72066 205.2407 C 190.65394 205.23359 190.58552 205.23385 190.51499 205.25104 C 188.94209 206.47329 188.49749 208.7726 187.20408 210.29827 C 184.03715 215.83197 179.16137 220.99214 178.72036 227.64657 C 178.37504 231.42033 179.59902 235.26405 181.61269 238.36375 C 181.70274 238.31279 181.78929 238.25577 181.8783 238.20303 L 181.4251 239.89285 C 185.05695 237.56208 187.71861 234.7461 189.61168 231.60602 L 188.39005 234.92881 C 186.62737 237.05763 184.5486 238.92623 182.42142 240.66231 C 181.31286 243.30145 181.35445 246.35231 179.89393 248.90729 C 178.74692 251.52745 176.66963 253.85622 176.91013 256.90525 C 176.84843 259.32606 176.50592 261.78636 176.79024 264.19369 C 177.03512 264.39795 177.2822 264.47411 177.52922 264.46706 L 176.90186 266.17342 C 193.23879 256.6423 197.53704 239.24438 193.21818 221.79783 L 192.97065 222.47169 C 194.14954 215.93359 193.32811 208.77749 191.61001 201.92618 z M 68.574109 237.85473 C 57.194575 242.84572 52.225079 252.04003 52.396285 265.16159 L 53.960531 262.52093 C 54.943286 263.03741 56.419503 261.33556 57.541707 261.06985 C 58.927956 260.03339 61.240053 260.18303 62.112488 258.72943 C 63.316257 252.69994 65.29313 246.86057 66.908577 240.95222 C 66.909993 240.87329 66.893414 240.80159 66.86827 240.73414 L 68.574109 237.85473 z M 175.82544 255.3162 L 174.46377 257.32124 C 174.33827 257.26202 174.21224 257.22881 174.0824 257.35328 C 170.80199 259.51468 166.87044 260.3438 163.33318 261.88531 C 160.63855 265.94745 157.5208 269.70346 154.53992 273.49803 C 154.26325 277.86521 153.87616 282.17902 153.18186 286.47037 C 153.44218 286.84918 153.79097 287.06534 154.18852 287.1804 L 153.4387 288.28473 C 170.29512 289.37071 176.41523 269.19417 175.82544 255.3162 z M 51.975122 285.94482 C 49.055623 299.20612 62.200942 308.76778 73.966028 303.04248 L 71.15638 300.8576 C 70.852807 300.47382 70.51011 300.12366 70.269096 299.8866 C 69.049331 298.53157 68.346421 296.49683 66.264689 296.25427 C 65.559156 295.96249 64.839534 295.6787 64.120634 295.38765 L 59.453219 291.75894 C 59.965493 290.03395 60.677137 288.30911 60.665031 286.5577 C 58.442244 285.80689 55.819898 286.45931 53.468571 286.22749 L 53.14766 286.37787 L 53.009167 286.44246 C 52.986189 286.52809 52.967676 286.61441 52.946639 286.70033 L 51.975122 285.94482 z M 162.04592 287.14836 L 159.22336 289.36425 L 159.22284 289.36373 C 158.47574 288.86895 156.91927 289.23856 156.10778 289.06039 C 154.91201 289.05539 153.7162 289.06349 152.52041 289.06349 C 150.68492 290.96512 149.06642 293.42512 146.77295 294.89259 C 144.98697 295.96308 143.11928 297.06615 142.36289 299.1497 C 141.21093 301.80147 139.31795 304.05023 137.63088 306.3136 L 135.1933 308.22718 C 150.07683 310.20792 157.45109 298.91745 162.04592 287.14836 z M 89.936112 309.16356 C 88.134665 309.24689 87.160775 311.19399 85.553951 311.90086 C 84.884589 312.11765 84.357598 312.81673 84.518872 313.36899 L 83.110689 313.27545 C 90.013665 321.24837 104.71904 318.89571 113.73673 315.31099 L 109.77108 315.04744 C 109.77764 314.82027 109.63532 314.57152 109.26775 314.31053 C 106.94641 313.31273 104.7432 312.13369 102.45266 311.06525 C 99.661604 311.10065 96.661944 311.18159 94.19425 309.59402 C 92.96738 309.14203 91.59767 309.1719 90.308183 309.17234 C 90.180299 309.16041 90.056209 309.158 89.936112 309.16356 z " />
    <text
       xml:space="preserve"
       style="font-style:normal;font-variant:normal;font-weight:600;font-stretch:normal;font-size:92.7204px;line-height:1;font-family:Outfit;-inkscape-font-specification:'Outfit Semi-Bold';letter-spacing:0px;word-spacing:0px;fill:#000000;fill-opacity:1;stroke:none;stroke-width:43.8049;stroke-linecap:round;stroke-linejoin:round;stroke-dasharray:none;stroke-opacity:1"
       x="220.87053"
       y="320.10492"
       id="text100"><tspan
         sodipodi:role="line"
         style="fill:#000000;fill-opacity:1;stroke-width:43.8049;-inkscape-font-specification:'Outfit Semi-Bold';font-family:Outfit;font-weight:600;font-style:normal;font-stretch:normal;font-variant:normal"
         x="220.87053"
         y="320.10492"
         id="tspan100">PARK</tspan></text>
    <path
       id="path100"
       style="fill:#000000;fill-opacity:1;stroke:none;stroke-width:2.40825;stroke-linecap:round;stroke-linejoin:round;stroke-dasharray:none;stroke-opacity:1"
       d="m 414.94745,195.56247 c -0.0223,-0.021 -0.51344,1.33536 -0.53471,1.40254 -0.28636,0.90462 -0.62035,1.80769 -0.64549,2.76777 -0.11244,0.0207 -0.22374,0.0448 -0.33187,0.076 -1.86154,0.37855 -1.88877,7.45737 -2.29442,10.61473 -0.40567,3.15736 0.21877,2.18407 0.87032,7.01731 0.46123,2.67058 -0.68024,6.50092 0.90349,8.0772 1.58374,1.57627 2.41822,1.56462 4.07531,1.28929 1.6571,-0.27531 2.66688,-2.85759 5.55461,-5.41438 0.95403,-0.81075 4.87651,-2.17552 5.81056,-3.00961 1.43342,-1.29082 5.27341,-4.96939 4.94688,-7.08202 -0.0194,-0.10563 -0.0486,-0.21664 -0.0763,-0.32689 0.74658,-2.11531 1.95295,-2.26666 2.64331,-5.23145 8.5e-4,-0.007 -0.67615,1.1143 -1.63361,2.15712 -0.5301,0.57736 -1.07249,1.12899 -1.65062,1.62615 -0.41525,-0.57707 -1.00288,-0.97178 -1.7871,-0.8529 -1.99384,0.37162 -3.22876,2.34728 -5.19162,2.75532 -1.77898,-0.28381 -0.13533,-2.03465 0.17838,-2.9756 0.766,-1.67169 1.55204,-3.83565 0.36671,-5.50482 -0.0829,-0.0946 -0.17892,-0.18923 -0.27503,-0.28333 0.35063,-0.67654 0.0703,-0.75063 0.34534,-1.30687 0.0356,-0.0721 1.17832,-2.8349 1.17832,-2.8349 0,0 -1.32824,1.45891 -1.57324,1.67027 -0.31516,0.2719 -1.1668,1.14705 -1.45627,1.44894 -0.67545,-0.27307 -1.39728,-0.31886 -2.02438,0.10291 -1.40252,1.35523 -1.72725,3.39745 -2.40436,5.15096 -0.19631,0.95172 -1.25878,3.09138 -2.15673,1.45524 -0.67869,-2.31096 0.11831,-4.85291 -0.82633,-7.12101 -0.32544,-0.9138 -1.1517,-1.39642 -2.05053,-1.52284 0.21241,-1.8522 0.11352,-4.07524 0.0394,-4.14501 z"
       sodipodi:nodetypes="ssccscssccccssccccccscsccccccss" />
    <path
       style="fill:url(#linearGradient2);fill-opacity:1;stroke:#000000;stroke-width:4.92245;stroke-linecap:round;stroke-linejoin:round;stroke-dasharray:none;stroke-opacity:1"
       d="m 58.520431,293.23835 c 12.44011,-45.42902 37.628949,-84.88886 86.896489,-94.99675 2.84832,-0.58437 37.17526,-7.85112 37.13669,-3.76233 -0.50541,53.57004 -29.24772,104.22606 -87.096958,105.32722 -12.348661,0.23505 -26.203121,0.0811 -36.936221,-6.56814 z"
       id="path16" />
    <ellipse
       style="fill:#000000;fill-opacity:1;stroke:none;stroke-width:12.65;stroke-linecap:round;stroke-opacity:1;paint-order:stroke fill markers"
       id="path1"
       cx="74.201744"
       cy="257.92731"
       rx="6.3967314"
       ry="32.890999"
       transform="matrix(0.99853247,-0.05415623,0.18872392,0.98203018,0,0)" />
  </g>
</svg>
