<?xml version="1.0" encoding="UTF-8" standalone="no"?>
<!-- Created with Inkscape (http://www.inkscape.org/) -->

<svg
   width="500mm"
   height="500mm"
   viewBox="0 0 500 500"
   version="1.1"
   id="svg1"
   inkscape:version="1.3.2 (091e20e, 2023-11-25)"
   xml:space="preserve"
   sodipodi:docname="DuckDuckGo.svg"
   xmlns:inkscape="http://www.inkscape.org/namespaces/inkscape"
   xmlns:sodipodi="http://sodipodi.sourceforge.net/DTD/sodipodi-0.dtd"
   xmlns="http://www.w3.org/2000/svg"
   xmlns:svg="http://www.w3.org/2000/svg"><sodipodi:namedview
     id="namedview1"
     pagecolor="#ffffff"
     bordercolor="#000000"
     borderopacity="0.25"
     inkscape:showpageshadow="2"
     inkscape:pageopacity="0.0"
     inkscape:pagecheckerboard="0"
     inkscape:deskcolor="#d1d1d1"
     inkscape:document-units="mm"
     showgrid="false"
     inkscape:zoom="0.25982083"
     inkscape:cx="944.88189"
     inkscape:cy="944.88189"
     inkscape:window-width="1356"
     inkscape:window-height="697"
     inkscape:window-x="0"
     inkscape:window-y="0"
     inkscape:window-maximized="1"
     inkscape:current-layer="layer1"
     showguides="false"><sodipodi:guide
       position="228.27404,102.69221"
       orientation="0,-1"
       id="guide18"
       inkscape:locked="false" /><sodipodi:guide
       position="216.17235,102.69221"
       orientation="1,0"
       id="guide19"
       inkscape:locked="false" /></sodipodi:namedview><defs
     id="defs1"><inkscape:path-effect
       effect="bspline"
       id="path-effect7"
       is_visible="true"
       lpeversion="1.3"
       weight="33.333333"
       steps="2"
       helper_size="0"
       apply_no_weight="true"
       apply_with_weight="true"
       only_selected="false"
       uniform="false" /><inkscape:path-effect
       effect="bspline"
       id="path-effect6"
       is_visible="true"
       lpeversion="1.3"
       weight="33.333333"
       steps="2"
       helper_size="0"
       apply_no_weight="true"
       apply_with_weight="true"
       only_selected="false"
       uniform="false" /><clipPath
       clipPathUnits="userSpaceOnUse"
       id="clipPath5"><path
         id="path5"
         style="fill:#ff0000;fill-opacity:1;fill-rule:nonzero;stroke:none;stroke-width:0.264583"
         d="m 189.41428,186.0181 v 0.54726 c 0.008,-0.004 0.0155,-0.007 0.0233,-0.0114 -0.006,-0.0183 -0.0122,-0.0364 -0.0196,-0.0537 0.0201,-0.0348 0.0355,-0.073 0.0605,-0.10439 0.0611,-0.0767 0.29232,-0.16796 0.38293,-0.20826 0.13156,-0.0581 0.26392,-0.11443 0.39687,-0.16949 z m 2.29392,0 c 0.0735,0.24855 0.0846,0.24021 -0.032,0.28267 -0.14959,0.0373 -0.3014,0.0665 -0.45268,0.0961 0.26593,0.0126 0.27133,0.29629 -0.0253,0.31781 -0.039,0.003 -0.0775,0.008 -0.11627,0.0119 -0.0404,0.004 -0.0806,0.0121 -0.12041,0.0202 -0.13646,0.0273 -0.27468,0.0431 -0.4129,0.0584 -0.19437,0.0215 -0.38951,0.0346 -0.58445,0.0496 -0.12458,0.009 -0.24886,0.0186 -0.37311,0.031 -0.0196,0.002 -0.16615,0.0217 -0.17415,0.01 -0.001,-0.001 -0.002,-0.003 -0.003,-0.004 v 56.54228 h 81.75572 v -57.41561 z" /></clipPath><filter
       inkscape:collect="always"
       style="color-interpolation-filters:sRGB"
       id="filter31"
       x="-0.66746303"
       y="-0.49420269"
       width="2.3349261"
       height="1.9884054"><feGaussianBlur
         inkscape:collect="always"
         stdDeviation="6.2437301"
         id="feGaussianBlur31" /></filter><filter
       inkscape:collect="always"
       style="color-interpolation-filters:sRGB"
       id="filter32"
       x="-0.62973347"
       y="-0.62973347"
       width="2.2594669"
       height="2.2594669"><feGaussianBlur
         inkscape:collect="always"
         stdDeviation="58.595417"
         id="feGaussianBlur32" /></filter></defs><g
     inkscape:label="Layer 1"
     inkscape:groupmode="layer"
     id="layer1"><circle
       style="opacity:1;fill:#0f0f0f;fill-opacity:1;stroke-width:10.6517;stroke-linecap:square;stroke-dashoffset:3666.14"
       id="path1"
       cx="253.88612"
       cy="244.42442"
       r="192.64023" /><circle
       style="opacity:0.32197434;fill:#fe5cff;fill-opacity:1;stroke:#0f0f0f;stroke-width:1;stroke-linecap:round;stroke-linejoin:round;stroke-dasharray:none;stroke-opacity:1;filter:url(#filter32)"
       id="path32"
       cx="250.73958"
       cy="241.34119"
       r="112.05455" /><circle
       style="opacity:1;fill:none;fill-opacity:1;stroke:#0f0f0f;stroke-width:15.4224;stroke-linecap:square;stroke-dasharray:none;stroke-dashoffset:3666.14;stroke-opacity:1"
       id="circle1"
       cx="253.88612"
       cy="244.42442"
       r="213.05673" /><ellipse
       style="opacity:1;fill:none;fill-opacity:1;stroke:#d4d200;stroke-width:2;stroke-linecap:round;stroke-linejoin:round;stroke-dasharray:none;stroke-opacity:1"
       id="path2"
       cx="286.28915"
       cy="251.66191"
       rx="6.3511567"
       ry="8.5931911"
       transform="rotate(18.872312)" /><path
       id="path12"
       style="fill:#d5d7d8;fill-opacity:1;stroke:none;stroke-width:14.7904;stroke-linecap:round;stroke-linejoin:round;stroke-dasharray:none;stroke-dashoffset:3666.14;stroke-opacity:1"
       d="m 249.05484,111.3405 c -85.02141,-0.65049 -97.55817,68.75348 -91.20683,91.29366 l 52.43401,229.94203 a 194.44733,194.44733 0 0 0 43.96889,5.52421 194.44733,194.44733 0 0 0 67.18918,-11.98686 C 314.89582,413.60507 248.5164,275.29221 287.28817,234.35935 l 41.71063,-30.52578 c 0,0 -9.06613,-80.18614 -51.17155,-89.91286 -10.40605,-1.69611 -19.97709,-2.51291 -28.77241,-2.58021 z" /><path
       style="fill:#d5d7d8;fill-opacity:1;stroke:none;stroke-width:16.0235;stroke-linecap:round;stroke-linejoin:round;stroke-dasharray:none;stroke-dashoffset:3666.14;stroke-opacity:1"
       d="m 229.17251,113.68697 c 0,0 -32.81741,-13.32838 -55.10354,-8.87932 0.0616,0.39911 -6.06164,-5.113024 18.14878,-11.226457 0.34713,-0.188916 -14.40342,-9.296537 -14.40342,-9.296537 0,0 51.29931,-13.326349 91.5667,30.794544 -0.0512,0.0656 -39.26442,3.36965 -39.26442,3.36965 z"
       id="path22" /><ellipse
       style="opacity:1;fill:none;fill-opacity:1;stroke:#d4d200;stroke-width:2;stroke-linecap:round;stroke-linejoin:round;stroke-dasharray:none;stroke-opacity:1"
       id="ellipse4"
       cx="48.51844"
       cy="431.86465"
       rx="6.3511567"
       ry="8.5931911"
       transform="matrix(-0.67668144,0.73627592,0.73627592,0.67668144,0,0)" /><path
       id="path21"
       style="fill:#ffffff;fill-opacity:1;stroke:none;stroke-width:14.4623;stroke-linecap:round;stroke-linejoin:round;stroke-dasharray:none;stroke-dashoffset:3666.14;stroke-opacity:1"
       d="m 254.70308,108.60682 c -81.29109,-0.65049 -93.27769,68.75348 -87.20502,91.29365 l 51.12505,234.49008 a 194.44733,194.44733 0 0 0 35.6278,3.70985 194.44733,194.44733 0 0 0 70.36625,-13.2364 C 321.09582,418.33159 253.3115,273.52672 291.25898,231.62567 l 39.88077,-30.52579 c 0,0 -8.66817,-80.18562 -48.92621,-89.91234 -9.94948,-1.69611 -19.10104,-2.51343 -27.51046,-2.58072 z" /><path
       style="fill:#fdd20a;fill-opacity:1;stroke:none;stroke-width:14.4623;stroke-linecap:round;stroke-linejoin:round;stroke-dasharray:none;stroke-dashoffset:3666.14;stroke-opacity:1"
       d="m 262.22034,229.80855 c 0,0 10.54564,-23.93717 39.25834,-25.33805 28.71268,-1.40089 80.43015,-18.36383 83.70256,-19.21777 5.3927,-1.40724 24.43292,0.1013 26.53984,6.12283 2.10692,6.02153 -8.68562,15.87289 -82.36857,37.39215 -9.81847,0.94945 -20.30719,-1.49296 -26.07991,-1.3775 -5.77271,0.11545 -13.93348,11.6538 -4.44932,19.75369 9.48415,8.0999 33.20346,6.94912 33.20346,6.94912 0,0 24.3586,0.0619 51.0937,-8.73471 -0.0534,0.19358 21.29621,-3.05462 5.99691,12.81769 -15.29929,15.87233 -62.91588,20.48311 -114.93975,-4.68924 0.25982,0.20255 -10.84008,-6.62852 -11.95726,-23.67821 z"
       id="path14"
       sodipodi:nodetypes="cssscssccscc" /><path
       style="fill:#0f0f0f;fill-opacity:1;stroke:none;stroke-width:14.4623;stroke-linecap:round;stroke-linejoin:round;stroke-dasharray:none;stroke-dashoffset:3666.14;stroke-opacity:1"
       d="m 284.72908,145.01165 c 0,0 9.54126,-10.69725 26.27766,-1.49475 -0.0468,-0.0764 -14.34423,-19.39547 -26.27766,1.49475 z"
       id="path16" /><path
       style="fill:#0f0f0f;fill-opacity:1;stroke:none;stroke-width:14.4623;stroke-linecap:round;stroke-linejoin:round;stroke-dasharray:none;stroke-dashoffset:3666.14;stroke-opacity:1"
       d="m 189.85503,164.30774 c 0,0 6.74317,-20.51509 28.08193,-14.0104 0.054,-0.0429 -2.21393,-3.56361 -8.88277,-4.56121 0.0738,0.0329 -24.25494,0.71077 -19.19916,18.57161 z"
       id="path17"
       sodipodi:nodetypes="cccc" /><path
       id="path15"
       style="fill:#3eb132;fill-opacity:1;stroke:none;stroke-width:14.4623;stroke-linecap:round;stroke-linejoin:round;stroke-dasharray:none;stroke-dashoffset:3666.14;stroke-opacity:1"
       d="M 302.00482 158.29525 A 12.173592 12.173592 0 0 0 289.8314 170.46918 A 12.173592 12.173592 0 0 0 302.00482 182.6426 A 12.173592 12.173592 0 0 0 314.17876 170.46918 A 12.173592 12.173592 0 0 0 302.00482 158.29525 z M 307.32233 162.96421 A 3.2037673 3.2037673 0 0 1 310.52627 166.16815 A 3.2037673 3.2037673 0 0 1 307.32233 169.37209 A 3.2037673 3.2037673 0 0 1 304.1189 166.16815 A 3.2037673 3.2037673 0 0 1 307.32233 162.96421 z " /><path
       id="circle18"
       style="fill:#3eb132;fill-opacity:1;stroke:none;stroke-width:14.4623;stroke-linecap:round;stroke-linejoin:round;stroke-dasharray:none;stroke-dashoffset:3666.14;stroke-opacity:1"
       d="M 211.50234 169.63099 A 12.173592 12.173592 0 0 0 199.32892 181.80441 A 12.173592 12.173592 0 0 0 211.50234 193.97834 A 12.173592 12.173592 0 0 0 223.67627 181.80441 A 12.173592 12.173592 0 0 0 211.50234 169.63099 z M 216.81984 174.29996 A 3.2037673 3.2037673 0 0 1 220.02378 177.50389 A 3.2037673 3.2037673 0 0 1 216.81984 180.70732 A 3.2037673 3.2037673 0 0 1 213.6159 177.50389 A 3.2037673 3.2037673 0 0 1 216.81984 174.29996 z " /><path
       style="fill:#ffffff;fill-opacity:1;stroke:none;stroke-width:14.4623;stroke-linecap:round;stroke-linejoin:round;stroke-dasharray:none;stroke-dashoffset:3666.14;stroke-opacity:1"
       d="m 232.3738,110.09156 c 0,0 -30.20457,-11.796985 -50.71634,-7.85911 0.0567,0.35325 -5.57903,-4.525548 16.70382,-9.936561 0.31949,-0.16721 -13.25666,-8.228385 -13.25666,-8.228385 0,0 47.215,-11.79518 84.27641,27.256316 -0.0471,0.0581 -36.13829,2.98249 -36.13829,2.98249 z"
       id="path19" /><ellipse
       style="opacity:1;fill:none;fill-opacity:1;stroke:#d4d200;stroke-width:2;stroke-linecap:round;stroke-linejoin:round;stroke-dasharray:none;stroke-opacity:1"
       id="ellipse2"
       cx="-76.090355"
       cy="386.55759"
       rx="6.3511567"
       ry="8.5931911"
       transform="rotate(-40.330295)" /><ellipse
       style="opacity:1;fill:none;fill-opacity:1;stroke:#d4d200;stroke-width:2;stroke-linecap:round;stroke-linejoin:round;stroke-dasharray:none;stroke-opacity:1"
       id="ellipse3"
       cx="-74.638985"
       cy="399.67615"
       rx="6.3511567"
       ry="8.5931911"
       transform="rotate(-40.330295)" /><ellipse
       style="opacity:1;fill:none;fill-opacity:1;stroke:#d4d200;stroke-width:2;stroke-linecap:round;stroke-linejoin:round;stroke-dasharray:none;stroke-opacity:1"
       id="ellipse5"
       cx="-352.621"
       cy="274.58102"
       rx="6.3511567"
       ry="8.5931911"
       transform="matrix(-0.97891209,-0.20428194,-0.20428194,0.97891209,0,0)" /><ellipse
       style="opacity:1;fill:none;fill-opacity:1;stroke:#d4d200;stroke-width:2;stroke-linecap:round;stroke-linejoin:round;stroke-dasharray:none;stroke-opacity:1"
       id="ellipse6"
       cx="-351.16965"
       cy="287.69958"
       rx="6.3511567"
       ry="8.5931911"
       transform="matrix(-0.97891209,-0.20428194,-0.20428194,0.97891209,0,0)" /><ellipse
       style="opacity:1;fill:none;fill-opacity:1;stroke:#d4d200;stroke-width:2;stroke-linecap:round;stroke-linejoin:round;stroke-dasharray:none;stroke-opacity:1"
       id="ellipse7"
       cx="-348.61816"
       cy="302.51483"
       rx="6.3511567"
       ry="8.5931911"
       transform="matrix(-0.97891209,-0.20428194,-0.20428194,0.97891209,0,0)" /><ellipse
       style="opacity:1;fill:none;fill-opacity:1;stroke:#d4d200;stroke-width:2;stroke-linecap:round;stroke-linejoin:round;stroke-dasharray:none;stroke-opacity:1"
       id="ellipse8"
       cx="-288.42694"
       cy="371.99045"
       rx="6.3511567"
       ry="8.5931911"
       transform="matrix(-0.99938669,-0.03501791,-0.03501791,0.99938669,0,0)" /><ellipse
       style="opacity:1;fill:none;fill-opacity:1;stroke:#d4d200;stroke-width:2;stroke-linecap:round;stroke-linejoin:round;stroke-dasharray:none;stroke-opacity:1"
       id="ellipse9"
       cx="-99.028732"
       cy="407.62265"
       rx="6.3511567"
       ry="8.5931911"
       transform="rotate(-44.044621)" /><ellipse
       style="opacity:1;fill:none;fill-opacity:1;stroke:#d4d200;stroke-width:2;stroke-linecap:round;stroke-linejoin:round;stroke-dasharray:none;stroke-opacity:1"
       id="ellipse10"
       cx="-220.43332"
       cy="371.20245"
       rx="6.3511567"
       ry="8.5931911"
       transform="rotate(-61.799857)" /><ellipse
       style="opacity:1;fill:none;fill-opacity:1;stroke:#d4d200;stroke-width:2;stroke-linecap:round;stroke-linejoin:round;stroke-dasharray:none;stroke-opacity:1"
       id="ellipse11"
       cx="-16.532223"
       cy="441.64273"
       rx="6.3511567"
       ry="8.5931911"
       transform="rotate(-34.263942)" /><ellipse
       style="opacity:1;fill:none;fill-opacity:1;stroke:#d4d200;stroke-width:2;stroke-linecap:round;stroke-linejoin:round;stroke-dasharray:none;stroke-opacity:1"
       id="ellipse12"
       cx="-180.53145"
       cy="415.52338"
       rx="6.3511567"
       ry="8.5931911"
       transform="rotate(-56.352066)" /><ellipse
       style="opacity:1;fill:none;fill-opacity:1;stroke:#d4d200;stroke-width:2;stroke-linecap:round;stroke-linejoin:round;stroke-dasharray:none;stroke-opacity:1"
       id="ellipse13"
       cx="-178.06509"
       cy="430.04379"
       rx="6.3511567"
       ry="8.5931911"
       transform="rotate(-56.352066)" /><path
       id="path30"
       style="color:#000000;fill:#d4d200;stroke-linecap:round;stroke-linejoin:round;-inkscape-stroke:none"
       d="M -463.219 88.958994 C -462.57323 87.524184 -462.21267 85.862434 -462.21267 84.093733 C -462.21267 81.521076 -462.97553 79.172615 -464.26937 77.422035 C -465.5632 75.671454 -467.4452 74.500188 -469.56462 74.500188 C -471.68406 74.500188 -473.56552 75.671361 -474.85936 77.421941 C -475.41427 78.172747 -475.87053 79.034007 -476.2118 79.975324 L -474.26531 79.78485 L -474.21005 80.350439 C -473.94802 79.702052 -473.62291 79.116151 -473.24999 78.611588 C -472.24517 77.252051 -470.95241 76.499931 -469.5642 76.499931 C -468.17599 76.499931 -466.88167 77.251855 -465.87684 78.611392 C -464.87202 79.97093 -464.21289 81.920721 -464.21289 84.093944 C -464.21289 86.267167 -464.87229 88.214697 -465.87711 89.574235 C -466.88194 90.933773 -468.17632 91.685727 -469.56453 91.685727 C -470.95274 91.685727 -472.24523 90.933498 -473.25005 89.57396 C -474.08192 88.448428 -474.67719 86.919559 -474.85784 85.19356 L -476.84879 85.388377 C -476.63848 87.449131 -475.93243 89.311765 -474.85936 90.763623 C -473.56552 92.514203 -471.68401 93.685258 -469.56458 93.685258 C -467.44515 93.685258 -465.56321 92.514296 -464.26937 90.763717 C -463.86505 90.21666 -463.51254 89.611181 -463.219 88.958994 z "
       transform="rotate(-114.24801)" /><path
       id="rect14"
       style="opacity:1;fill:#d300c3;fill-opacity:1;stroke:none;stroke-width:1.43482;stroke-linecap:round;stroke-linejoin:round;stroke-dasharray:none;stroke-opacity:1"
       d="m 271.85618,396.15464 -0.34936,4.57224 -0.0303,0.0141 0.0251,0.0521 2.06479,4.28609 -5.40459,2.60377 0.0123,0.0257 -2.58086,3.80073 4.70462,0.60785 0.0143,0.0293 5.40467,-2.60428 6.91003,14.34261 0.0126,-0.006 3.82568,2.59726 0.61163,-4.73543 0.0138,-0.007 -6.91002,-14.3426 5.40458,-2.60378 -0.009,-0.0188 2.46772,-4.07633 -4.6012,-0.35177 -0.008,-0.0166 -5.40458,2.60377 -2.0653,-4.28618 -0.0247,-0.0515 -0.0338,0.0162 z m 1.14259,1.13417 a 1.4918593,0.92201978 60.223479 0 1 1.04186,0.8927 1.4918593,0.92201978 60.223479 0 1 -0.0594,1.75253 1.4918593,0.92201978 60.223479 0 1 -1.54146,-0.83681 1.4918593,0.92201978 60.223479 0 1 0.0595,-1.75304 1.4918593,0.92201978 60.223479 0 1 0.4995,-0.0554 z" /><path
       id="ellipse14"
       style="color:#000000;fill:#d4d200;stroke-linecap:round;stroke-linejoin:round;-inkscape-stroke:none"
       d="M -476.84879 85.388377 L -474.85784 85.19356 C -474.8954 84.834714 -474.91622 84.467869 -474.91622 84.093811 C -474.91622 82.727132 -474.65404 81.449121 -474.21005 80.350439 L -474.26531 79.78485 L -476.2118 79.975324 C -476.66623 81.228783 -476.91575 82.624493 -476.91575 84.093763 C -476.91575 84.532765 -476.89206 84.964374 -476.84879 85.388377 z "
       transform="rotate(-114.24801)" /><path
       style="opacity:1;fill:#84007a;fill-opacity:1;stroke:none;stroke-width:2;stroke-linecap:round;stroke-linejoin:round;stroke-dasharray:none;stroke-opacity:1"
       d="m 272.48175,396.57657 v 4.54216"
       id="path25" /><path
       id="path31"
       style="opacity:1;mix-blend-mode:normal;fill:#ed00db;fill-opacity:1;stroke:none;stroke-width:1.43482;stroke-linecap:round;stroke-linejoin:round;stroke-dasharray:none;stroke-opacity:1;filter:url(#filter31)"
       d="m 271.85618,396.15464 -0.34936,4.57224 -0.0303,0.0141 0.0251,0.0521 2.06479,4.28609 -5.40459,2.60377 0.0123,0.0257 -2.58086,3.80073 4.70462,0.60785 0.0143,0.0293 5.40467,-2.60428 6.91003,14.34261 0.0126,-0.006 3.82568,2.59726 0.61163,-4.73543 0.0138,-0.007 -6.91002,-14.3426 5.40458,-2.60378 -0.009,-0.0188 2.46772,-4.07633 -4.6012,-0.35177 -0.008,-0.0166 -5.40458,2.60377 -2.0653,-4.28618 -0.0247,-0.0515 -0.0338,0.0162 z m 1.14259,1.13417 a 1.4918593,0.92201978 60.223479 0 1 1.04186,0.8927 1.4918593,0.92201978 60.223479 0 1 -0.0594,1.75253 1.4918593,0.92201978 60.223479 0 1 -1.54146,-0.83681 1.4918593,0.92201978 60.223479 0 1 0.0595,-1.75304 1.4918593,0.92201978 60.223479 0 1 0.4995,-0.0554 z"
       transform="matrix(1.7713377,0,0,1.7713377,-214.73967,-315.78243)" /></g></svg>
