<?xml version="1.0" encoding="UTF-8" standalone="no"?>
<!-- Created with Inkscape (http://www.inkscape.org/) -->

<svg
   width="500mm"
   height="500mm"
   viewBox="0 0 500 500"
   version="1.1"
   id="svg1"
   inkscape:version="1.3.2 (091e20e, 2023-11-25)"
   sodipodi:docname="Food Truck Logo.svg"
   xmlns:inkscape="http://www.inkscape.org/namespaces/inkscape"
   xmlns:sodipodi="http://sodipodi.sourceforge.net/DTD/sodipodi-0.dtd"
   xmlns="http://www.w3.org/2000/svg"
   xmlns:svg="http://www.w3.org/2000/svg">
  <sodipodi:namedview
     id="namedview1"
     pagecolor="#ffffff"
     bordercolor="#000000"
     borderopacity="0.25"
     inkscape:showpageshadow="2"
     inkscape:pageopacity="0.0"
     inkscape:pagecheckerboard="0"
     inkscape:deskcolor="#d1d1d1"
     inkscape:document-units="mm"
     showgrid="false"
     inkscape:zoom="0.25982083"
     inkscape:cx="944.88189"
     inkscape:cy="944.88189"
     inkscape:window-width="1356"
     inkscape:window-height="697"
     inkscape:window-x="0"
     inkscape:window-y="0"
     inkscape:window-maximized="1"
     inkscape:current-layer="layer1" />
  <defs
     id="defs1" />
  <g
     inkscape:label="Layer 1"
     inkscape:groupmode="layer"
     id="layer1">
    <path
       style="color:#000000;fill:#da8c24;fill-opacity:1;stroke:none;stroke-width:0.90184;stroke-linecap:round;stroke-linejoin:bevel;-inkscape-stroke:none"
       d="m 146.72088,168.22497 c -35.7548,104.63768 -95.039638,73.51127 -110.291129,129.13864 -15.251491,55.62736 28.774598,71.45338 25.928491,59.53953 0,0 85.505918,-52.56796 127.032608,-174.09729 4.02591,-11.78299 20.99762,-8.36322 16.72287,-13.07879 -10.49628,-17.98045 -55.02689,-18.66959 -59.39284,-1.50209 z"
       id="path5"
       sodipodi:nodetypes="czcccc" />
    <text
       xml:space="preserve"
       style="font-style:normal;font-variant:normal;font-weight:normal;font-stretch:normal;font-size:68.0814px;line-height:1;font-family:'Palm Spring';-inkscape-font-specification:'Palm Spring';letter-spacing:0px;word-spacing:0px;fill:#ff1212;fill-opacity:1;stroke:none;stroke-width:19.2987;stroke-linecap:round;stroke-linejoin:bevel;stroke-dasharray:none;stroke-opacity:1"
       x="217.77419"
       y="199.3105"
       id="text1"><tspan
         sodipodi:role="line"
         id="tspan1"
         style="font-style:normal;font-variant:normal;font-weight:normal;font-stretch:normal;font-family:'Palm Spring';-inkscape-font-specification:'Palm Spring';fill:#ff1212;fill-opacity:1;stroke-width:19.2987"
         x="217.77419"
         y="199.3105">Lets</tspan><tspan
         sodipodi:role="line"
         style="font-style:normal;font-variant:normal;font-weight:normal;font-stretch:normal;font-family:'Palm Spring';-inkscape-font-specification:'Palm Spring';fill:#ff1212;fill-opacity:1;stroke-width:19.2987"
         x="217.77419"
         y="267.39188"
         id="tspan2">Ketchup</tspan><tspan
         sodipodi:role="line"
         style="font-style:normal;font-variant:normal;font-weight:normal;font-stretch:normal;font-family:'Palm Spring';-inkscape-font-specification:'Palm Spring';fill:#ff1212;fill-opacity:1;stroke-width:19.2987"
         x="217.77419"
         y="335.47327"
         id="tspan3">Sometimes</tspan></text>
    <path
       style="color:#000000;fill:#d41717;fill-opacity:1;stroke:none;stroke-width:0.696933;stroke-linecap:round;stroke-linejoin:bevel;-inkscape-stroke:none;stroke-opacity:1"
       d="m 157.94392,171.99752 a 17.423261,17.423261 0 0 0 -13.12326,11.46125 C 117.18975,264.3216 55.734715,291.58371 55.734715,291.58371 a 17.423261,17.423261 0 0 0 -8.700741,23.05179 17.423261,17.423261 0 0 0 23.053153,8.70074 c 0,0 75.617053,-34.69301 107.708423,-128.60954 a 17.423261,17.423261 0 0 0 -10.85415,-22.12072 17.423261,17.423261 0 0 0 -8.99748,-0.60846 z"
       id="path3" />
    <path
       style="color:#000000;fill:#da8c24;fill-opacity:1;stroke:none;stroke-width:0.90184;stroke-linecap:round;stroke-linejoin:bevel;-inkscape-stroke:none"
       d="m 185.60709,162.8197 c -7.90349,1.55517 -14.37689,7.20875 -16.98167,14.83102 -35.7548,104.63767 -115.278503,139.91523 -115.278503,139.91523 -11.345781,5.12848 -16.386398,18.48313 -11.258883,29.82935 5.0451,11.33804 18.310347,16.36935 29.83111,11.25888 0,0 97.849556,-44.89325 139.376246,-166.42259 4.0259,-11.78299 -2.26244,-24.59862 -14.04543,-28.62454 -3.7446,-1.27967 -7.76006,-1.55122 -11.64287,-0.78735 z"
       id="path4"
       sodipodi:nodetypes="cccccccc" />
    <path
       style="fill:none;fill-opacity:1;stroke:#ff1212;stroke-width:5.5;stroke-linecap:round;stroke-linejoin:bevel;stroke-dasharray:none;stroke-opacity:1"
       d="m 65.742946,333.66498 c -4.897792,-1.7345 -1.329722,-9.29674 -4.527378,-12.23703 -1.796896,-1.65227 -4.732189,-1.49659 -6.75491,-3.1396 -5.22102,-4.24088 -14.185011,-16.51934 -4.097089,-20.3095 6.91869,-2.59942 14.500799,3.05057 20.883147,-0.52324 1.056703,-0.59171 2.367455,-1.71484 2.235785,-3.07805 -0.361657,-3.74439 -2.718083,-7.38796 -3.377459,-11.14253 -1.852658,-10.54926 5.98629,-23.73031 16.746436,-25.83525 12.491662,-2.44366 15.991532,4.0949 24.736302,4.18615 5.14958,0.0537 10.24537,-5.38847 15.22234,-1.63136 1.94806,1.47059 11.77378,18.40728 15.70138,10.1967 6.37515,-13.32717 -14.64107,-19.51444 -14.11097,-37.35279 0.18762,-6.3135 -1.12147,-13.6384 3.42503,-18.71453 4.81633,-5.37739 6.23271,5.12639 16.5313,-10.70011 3.42559,-5.26433 -0.0827,-11.93727 1.90279,-17.57565 1.3821,-3.92493 5.14013,-4.90832 7.80147,-7.7259 2.24084,-2.3724 3.46009,-6.87564 5.57352,-9.61909 12.47015,-18.07926 34.28666,-17.19224 54.95768,-13.98482 9.60374,0.91695 17.33117,0.20988 26.11749,0.3031 10.39419,0.11028 18.88465,-5.99774 17.89476,-22.43824 -0.63071,-10.47526 -18.51437,-25.22703 -27.87065,-10.42907 -4.5583,7.20944 -3.6754,22.57016 -5.49872,36.56191"
       id="path6"
       sodipodi:nodetypes="csssssssssssssssszsssc" />
    <path
       style="fill:#c47e20;fill-opacity:1;stroke:none;stroke-width:5.5;stroke-linecap:round;stroke-linejoin:bevel;stroke-dasharray:none;stroke-opacity:1"
       d="m 89.870301,339.61827 c 0,0 -1.090858,-23.33167 -7.67729,-27.92804"
       id="path7" />
    <path
       style="fill:#c47e20;fill-opacity:1;stroke:none;stroke-width:5.5;stroke-linecap:round;stroke-linejoin:bevel;stroke-dasharray:none;stroke-opacity:1"
       d="m 111.50595,322.1926 c 0,0 -0.45152,-14.88289 -10.40697,-23.51505"
       id="path8" />
    <path
       style="fill:#c47e20;fill-opacity:1;stroke:none;stroke-width:5.5;stroke-linecap:round;stroke-linejoin:bevel;stroke-dasharray:none;stroke-opacity:1"
       d="m 138.04984,294.879 c 0,0 0.84103,-18.55673 -12.10772,-23.97228"
       id="path9" />
    <path
       style="fill:#c47e20;fill-opacity:1;stroke:none;stroke-width:5.5;stroke-linecap:round;stroke-linejoin:bevel;stroke-dasharray:none;stroke-opacity:1"
       d="m 160.73406,266.32087 c 0,0 -1.02507,-16.69578 -11.14402,-28.60133"
       id="path10" />
    <path
       style="fill:#c47e20;fill-opacity:1;stroke:none;stroke-width:5.5;stroke-linecap:round;stroke-linejoin:bevel;stroke-dasharray:none;stroke-opacity:1"
       d="m 181.13107,237.68793 c 0,0 -5.0076,-19.4996 -16.75591,-31.09185"
       id="path11" />
    <path
       style="fill:#c47e20;fill-opacity:1;stroke:none;stroke-width:5.5;stroke-linecap:round;stroke-linejoin:bevel;stroke-dasharray:none;stroke-opacity:1"
       d="m 193.04946,208.3133 c 0,0 -4.1939,-21.46423 -14.97518,-26.0038"
       id="path12" />
  </g>
</svg>
