<?xml version="1.0" encoding="UTF-8" standalone="no"?>
<!-- Created with Inkscape (http://www.inkscape.org/) -->

<svg
   width="500mm"
   height="500mm"
   viewBox="0 0 500 500"
   version="1.1"
   id="svg1"
   inkscape:version="1.3.2 (091e20e, 2023-11-25)"
   sodipodi:docname="Granola.svg"
   xmlns:inkscape="http://www.inkscape.org/namespaces/inkscape"
   xmlns:sodipodi="http://sodipodi.sourceforge.net/DTD/sodipodi-0.dtd"
   xmlns:xlink="http://www.w3.org/1999/xlink"
   xmlns="http://www.w3.org/2000/svg"
   xmlns:svg="http://www.w3.org/2000/svg">
  <sodipodi:namedview
     id="namedview1"
     pagecolor="#ffffff"
     bordercolor="#000000"
     borderopacity="0.25"
     inkscape:showpageshadow="2"
     inkscape:pageopacity="0.0"
     inkscape:pagecheckerboard="0"
     inkscape:deskcolor="#d1d1d1"
     inkscape:document-units="mm"
     showgrid="false"
     showguides="true"
     inkscape:zoom="0.25982083"
     inkscape:cx="946.8063"
     inkscape:cy="944.8819"
     inkscape:window-width="1356"
     inkscape:window-height="697"
     inkscape:window-x="0"
     inkscape:window-y="0"
     inkscape:window-maximized="1"
     inkscape:current-layer="layer1" />
  <defs
     id="defs1">
    <inkscape:path-effect
       effect="powerstroke"
       id="path-effect10"
       is_visible="true"
       lpeversion="1.3"
       scale_width="1"
       interpolator_type="CentripetalCatmullRom"
       interpolator_beta="0.2"
       start_linecap_type="zerowidth"
       end_linecap_type="zerowidth"
       offset_points="0.39137795,3.2356414 | 0.53341638,3.553236 | 0.9668235,0.9060139"
       linejoin_type="round"
       miter_limit="4"
       not_jump="false"
       sort_points="true"
       message="&lt;b&gt;Ctrl + click&lt;/b&gt; on existing node and move it" />
    <linearGradient
       id="linearGradient8"
       inkscape:collect="always">
      <stop
         style="stop-color:#ff940c;stop-opacity:1;"
         offset="0"
         id="stop8" />
      <stop
         style="stop-color:#ffb80c;stop-opacity:1;"
         offset="0.5"
         id="stop10" />
      <stop
         style="stop-color:#fffe0c;stop-opacity:1;"
         offset="1"
         id="stop9" />
    </linearGradient>
    <inkscape:path-effect
       effect="fillet_chamfer"
       id="path-effect1"
       is_visible="true"
       lpeversion="1"
       nodesatellites_param="F,0,1,1,0,49.416539,0,1 @ F,0,0,1,0,0,0,1 @ F,0,0,1,0,49.416539,0,1 @ F,0,0,1,0,0,0,1"
       radius="0"
       unit="px"
       method="auto"
       mode="F"
       chamfer_steps="1"
       flexible="false"
       use_knot_distance="true"
       apply_no_radius="true"
       apply_with_radius="true"
       only_selected="false"
       hide_knots="false" />
    <inkscape:path-effect
       effect="fillet_chamfer"
       id="path-effect22"
       is_visible="true"
       lpeversion="1"
       nodesatellites_param="F,0,1,1,0,26.499256,0,1 @ F,0,0,1,0,0,0,1 @ F,0,0,1,0,26.499256,0,1 @ F,0,0,1,0,0,0,1"
       radius="0"
       unit="px"
       method="auto"
       mode="F"
       chamfer_steps="1"
       flexible="false"
       use_knot_distance="true"
       apply_no_radius="true"
       apply_with_radius="true"
       only_selected="false"
       hide_knots="false" />
    <inkscape:path-effect
       effect="fillet_chamfer"
       id="path-effect20"
       is_visible="true"
       lpeversion="1"
       nodesatellites_param="F,0,1,1,0,26.499256,0,1 @ F,0,0,1,0,0,0,1 @ F,0,0,1,0,26.499256,0,1 @ F,0,0,1,0,0,0,1"
       radius="0"
       unit="px"
       method="auto"
       mode="F"
       chamfer_steps="1"
       flexible="false"
       use_knot_distance="true"
       apply_no_radius="true"
       apply_with_radius="true"
       only_selected="false"
       hide_knots="false" />
    <inkscape:path-effect
       effect="fillet_chamfer"
       id="path-effect14"
       is_visible="true"
       lpeversion="1"
       nodesatellites_param="F,0,1,1,0,37.248345,0,1 @ F,0,0,1,0,0,0,1 @ F,0,0,1,0,37.248345,0,1 @ F,0,0,1,0,0,0,1"
       radius="0"
       unit="px"
       method="auto"
       mode="F"
       chamfer_steps="1"
       flexible="false"
       use_knot_distance="true"
       apply_no_radius="true"
       apply_with_radius="true"
       only_selected="false"
       hide_knots="false" />
    <inkscape:path-effect
       effect="fillet_chamfer"
       id="path-effect2"
       is_visible="true"
       lpeversion="1"
       nodesatellites_param="F,0,1,1,0,37.248345,0,1 @ F,0,0,1,0,0,0,1 @ F,0,0,1,0,37.248345,0,1 @ F,0,0,1,0,0,0,1"
       radius="0"
       unit="px"
       method="auto"
       mode="F"
       chamfer_steps="1"
       flexible="false"
       use_knot_distance="true"
       apply_no_radius="true"
       apply_with_radius="true"
       only_selected="false"
       hide_knots="false" />
    <linearGradient
       inkscape:collect="always"
       xlink:href="#linearGradient8"
       id="linearGradient9"
       x1="257.16769"
       y1="280.31177"
       x2="257.16769"
       y2="95.48661"
       gradientUnits="userSpaceOnUse"
       gradientTransform="matrix(0.51038686,0,0,0.51038686,-47.420247,153.30769)" />
  </defs>
  <g
     inkscape:label="Layer 1"
     inkscape:groupmode="layer"
     id="layer1">
    <text
       xml:space="preserve"
       style="font-style:normal;font-variant:normal;font-weight:bold;font-stretch:normal;font-size:89.625px;line-height:1;font-family:'DejaVu Sans Mono';-inkscape-font-specification:'DejaVu Sans Mono Bold';letter-spacing:0px;word-spacing:0px;opacity:1;fill:#5f200f;fill-opacity:1;stroke:none;stroke-width:7.93922;stroke-linecap:round;stroke-linejoin:round;stroke-dasharray:none;stroke-opacity:1"
       x="43.398586"
       y="285.98984"
       id="text1"><tspan
         sodipodi:role="line"
         id="tspan1"
         style="stroke-width:7.93922"
         x="43.398586"
         y="285.98984" /></text>
    <path
       id="path1"
       style="fill:url(#linearGradient9);fill-opacity:1;stroke:none;stroke-width:2.08511;stroke-linecap:round;stroke-linejoin:round"
       d="m 82.20413,202.11121 -0.369183,0.16647 v 25.32744 L 111.88365,214.05029 A 47.969995,47.969995 0 0 0 82.20413,202.11121 Z m -3.793101,0.0764 a 47.969995,47.969995 0 0 0 -29.898244,11.8405 l 30.097848,13.57705 v -25.32744 z m 35.519481,13.76601 -32.095563,14.47811 v 25.32743 l 44.157903,-19.91939 a 47.969995,47.969995 0 0 0 -12.06234,-19.88614 z m -67.365596,0.0224 A 47.969995,47.969995 0 0 0 34.40938,235.82013 l 44.201253,19.93906 v -25.32744 z m 80.135986,22.37074 -44.865953,20.2389 v 25.32756 l 44.210293,-19.94311 a 47.969995,47.969995 0 0 0 2.10128,-13.93868 47.969995,47.969995 0 0 0 -1.44562,-11.68467 z m -92.950019,0.002 a 47.969995,47.969995 0 0 0 -1.544476,11.68197 47.969995,47.969995 0 0 0 2.082425,13.88832 l 44.321803,19.99348 v -25.32758 z m 1.805509,28.96849 a 47.969995,47.969995 0 0 0 43.054243,30.57154 v -11.14981 z m 89.22143,0.0504 -42.942873,19.37135 v 11.14308 a 47.969995,47.969995 0 0 0 42.942873,-30.51437 z" />
    <text
       xml:space="preserve"
       style="font-size:67.334px;line-height:1;font-family:'Quicksand Medium';-inkscape-font-specification:'Quicksand Medium, ';letter-spacing:0px;word-spacing:0px;fill:#212121;fill-opacity:1;stroke:none;stroke-width:47.7169;stroke-linecap:round;stroke-linejoin:round"
       x="167.50049"
       y="273.56689"
       id="text10"><tspan
         sodipodi:role="line"
         id="tspan10"
         style="fill:#212121;fill-opacity:1;stroke-width:47.717"
         x="167.50049"
         y="273.56689">GRANOLA</tspan></text>
    <path
       style="fill:#ff990c;fill-opacity:1;fill-rule:nonzero;stroke:none;stroke-width:8;stroke-linecap:round;stroke-linejoin:round;stroke-dasharray:none;stroke-opacity:1"
       d="m 80.477393,304.90363 c 4.892979,-3.26131 14.134428,-8.4376 31.245707,-13.67705 12.43277,-3.8069 27.21289,-7.10068 44.05798,-9.79543 22.28159,-3.56444 43.90307,-5.40663 60.59368,-6.49045 17.84035,-1.15848 36.57728,-1.67646 50.9974,-1.86882 4.67671,-0.0624 10.08955,-0.10508 16.03085,-0.0911 12.05334,0.0284 27.85038,0.27223 45.94536,1.23548 18.22976,0.97042 37.04521,2.5793 55.59149,5.02023 20.01357,2.63405 37.08031,5.88947 51.48976,9.42888 15.77036,3.87369 26.1167,7.54253 31.79866,9.56797 5.45448,1.94435 8.53173,2.95396 10.15273,3.58321 -1.28878,-0.77987 -4.39987,-2.86315 -9.45973,-5.25748 -5.44721,-2.57763 -15.82892,-6.91148 -31.5497,-11.42847 -14.39077,-4.13485 -31.58419,-7.95543 -51.67783,-11.11366 -18.61984,-2.92659 -37.61218,-4.95094 -55.94427,-6.25312 -18.18651,-1.29184 -34.18479,-1.76362 -46.3011,-1.88937 -6.01619,-0.0624 -11.42414,-0.0481 -16.16624,0.007 -15.69679,0.18377 -32.28709,0.92587 -51.40078,2.60635 -16.69421,1.46775 -38.66753,4.10685 -60.88536,8.61791 -16.8788,3.42703 -31.64869,7.47652 -43.98209,12.01604 -16.997864,6.25636 -25.895205,12.17428 -30.536517,15.78143 z"
       id="path10"
       inkscape:path-effect="#path-effect10"
       inkscape:original-d="M 80.477393,304.90363 C 141.90664,260.64969 384.67962,255.71528 478.38101,301.81657"
       sodipodi:nodetypes="cc"
       transform="matrix(0.83867672,0.03385025,-0.03385025,0.83867672,97.159928,58.196003)" />
  </g>
</svg>
