<?xml version="1.0" encoding="UTF-8" standalone="no"?>
<!-- Created with Inkscape (http://www.inkscape.org/) -->

<svg
   width="500mm"
   height="500mm"
   viewBox="0 0 500 500"
   version="1.1"
   id="svg1"
   inkscape:version="1.3.2 (091e20e, 2023-11-25)"
   sodipodi:docname="Lighthouse.svg"
   xmlns:inkscape="http://www.inkscape.org/namespaces/inkscape"
   xmlns:sodipodi="http://sodipodi.sourceforge.net/DTD/sodipodi-0.dtd"
   xmlns="http://www.w3.org/2000/svg"
   xmlns:svg="http://www.w3.org/2000/svg">
  <sodipodi:namedview
     id="namedview1"
     pagecolor="#ffffff"
     bordercolor="#000000"
     borderopacity="0.25"
     inkscape:showpageshadow="2"
     inkscape:pageopacity="0.0"
     inkscape:pagecheckerboard="0"
     inkscape:deskcolor="#d1d1d1"
     inkscape:document-units="mm"
     showgrid="false"
     showguides="true"
     inkscape:zoom="0.25982083"
     inkscape:cx="946.80629"
     inkscape:cy="944.88189"
     inkscape:window-width="1356"
     inkscape:window-height="697"
     inkscape:window-x="0"
     inkscape:window-y="0"
     inkscape:window-maximized="1"
     inkscape:current-layer="layer1" />
  <defs
     id="defs1" />
  <g
     inkscape:label="Layer 1"
     inkscape:groupmode="layer"
     id="layer1">
    <rect
       style="fill:#177bff;stroke-width:3.34499;stroke-linecap:round;stroke-linejoin:round;fill-opacity:1"
       id="rect2"
       width="500"
       height="500"
       x="0"
       y="0" />
    <g
       id="g42"
       transform="translate(0,9.0782502)">
      <g
         id="g40"
         transform="translate(-7.89989,14.515865)">
        <rect
           style="fill:#ffffff;fill-opacity:0.461871;stroke:none;stroke-width:2.00484;stroke-linecap:butt;stroke-linejoin:miter;stroke-dasharray:none;stroke-opacity:1"
           id="rect26"
           width="37.946953"
           height="21.053288"
           x="234.25613"
           y="139.29568" />
        <path
           id="rect19"
           style="fill:#ffffff;fill-opacity:1;stroke-width:2.04229;stroke-linecap:square"
           d="m 244.79932,131.04484 -11.35949,7.1782 -0.0294,37.19278 h 39.47793 l -0.0291,-37.19278 -11.35857,-7.1782 z m -10.15807,9.25274 h 36.90009 v 18.69876 h -36.90009 z"
           sodipodi:nodetypes="cccccccccccc" />
        <path
           id="rect1"
           style="fill:#ffffff;fill-opacity:1;stroke-width:1.26202;stroke-linecap:round;stroke-linejoin:round"
           d="m 236.38842,174.36492 -11.80396,126.12213 h 57.79945 l -0.62194,-6.64331 19.13516,-2.92536 -6.43176,-29.03956 -16.37643,-7.28134 -7.5093,-80.23256 z" />
        <path
           style="fill:#2c2c2c;fill-opacity:1;stroke-width:2.00484;stroke-linecap:round;stroke-linejoin:round"
           d="m 168.45819,339.92343 18.6549,-27.56845 28.6887,-13.15834 72.40655,-9.7924 25.37763,3.02825 24.76934,20.20887 8.90808,17.90881 0.0782,9.37326 z"
           id="path2"
           sodipodi:nodetypes="ccccccccc" />
        <path
           id="path5"
           style="color:#000000;fill:#2c2c2c;fill-opacity:1;stroke-width:0.599356;stroke-linecap:square;-inkscape-stroke:none"
           d="m 223.58188,163.0587 v 1.0032 1.00227 8.29848 1.00196 1.0032 h 1.00196 1.00351 57.62104 1.00228 v -2.00516 -9.30075 -1.0032 h -1.00228 -57.62104 -1.00351 z m 2.00547,2.00547 h 12.65074 v 8.29848 h -12.65074 z m 14.6559,0 h 12.65106 v 8.29848 h -12.65106 z m 14.65622,0 h 12.65075 v 8.29848 h -12.65075 z m 14.65622,0 h 12.65074 v 8.29848 h -12.65074 z" />
        <path
           style="fill:none;fill-opacity:0.461871;stroke:#ffffff;stroke-width:2.00484;stroke-linecap:butt;stroke-linejoin:miter;stroke-dasharray:none;stroke-opacity:0.871338"
           d="m 237.34212,160.32511 17.76156,-22.69448"
           id="path26" />
        <path
           style="fill:none;fill-opacity:0.461871;stroke:#ffffff;stroke-width:2.00484;stroke-linecap:butt;stroke-linejoin:miter;stroke-dasharray:none;stroke-opacity:0.871338"
           d="m 242.11133,160.10057 17.76156,-22.69448"
           id="path27" />
        <path
           id="rect34"
           style="fill:#2c2c2c;fill-opacity:1;stroke:none;stroke-width:2.3019;stroke-linecap:butt;stroke-linejoin:miter;stroke-dasharray:none;stroke-opacity:0.871338"
           d="m 236.38841,174.36491 -2.20215,23.52924 37.26619,-14.20525 -0.87281,-9.32398 z m 36.13662,20.78383 -39.49063,15.05329 -2.37932,25.42228 44.08511,-16.80478 z m 3.28773,35.13063 -46.30955,17.65281 -2.37931,25.42197 50.90433,-19.404 z" />
        <rect
           style="fill:#2c2c2c;fill-opacity:1;stroke-width:2.00484;stroke-linecap:round;stroke-linejoin:round"
           id="rect3"
           width="9.7921896"
           height="14.943742"
           x="248.25328"
           y="190.90929" />
        <rect
           style="fill:#565656;fill-opacity:1;stroke-width:2.00484;stroke-linecap:round;stroke-linejoin:round"
           id="rect36"
           width="9.7921896"
           height="14.943742"
           x="-258.04547"
           y="190.90929"
           transform="scale(-1,1)" />
        <rect
           style="fill:#565656;fill-opacity:1;stroke-width:2.00484;stroke-linecap:round;stroke-linejoin:round"
           id="rect37"
           width="9.7921896"
           height="14.943742"
           x="-258.04547"
           y="221.34665"
           transform="scale(-1,1)" />
        <rect
           style="fill:#565656;fill-opacity:1;stroke-width:2.00484;stroke-linecap:round;stroke-linejoin:round"
           id="rect38"
           width="9.7921896"
           height="14.943742"
           x="-258.04547"
           y="251.784"
           transform="scale(-1,1)" />
      </g>
      <path
         style="font-size:25.1768px;line-height:1;font-family:'Slowly Lovely Sans';-inkscape-font-specification:'Slowly Lovely Sans';letter-spacing:0px;word-spacing:0px;fill:#ffffff;stroke-width:7.46009;stroke-opacity:0.871338"
         d="m 204.90734,86.708009 q -0.28072,0.07475 -0.54146,-0.07585 -0.11358,-0.04987 -0.19596,-0.208248 -0.0237,-0.01366 -0.22403,-0.762018 -0.20491,-0.767142 -0.70981,-2.656902 l -3.23921,-12.124427 q -0.0899,-0.336809 0.0571,-0.536458 0.14212,-0.218379 0.38535,-0.283367 0.22464,-0.05961 0.47533,0.05343 0.24581,0.0947 0.33079,0.412774 l 2.04951,7.671314 1.87583,7.096292 4.31712,-1.173443 q 0.29933,-0.08012 0.50405,0.08585 0.21838,0.142119 0.27836,0.36664 0.0899,0.336809 -0.23796,0.685001 -0.0324,0.02871 -0.51879,0.15906 -0.48157,0.148322 -1.6551,0.482772 -1.08522,0.289921 -2.95128,0.808481 z m 6.7785,-1.830055 q -0.18862,0.04402 -0.38921,-0.04788 -0.17739,-0.07772 -0.29708,-0.248555 -0.0321,-0.05214 -0.24144,-0.858402 -0.19032,-0.810735 -0.48685,-2.073971 -0.53554,-2.281364 -1.22041,-5.283616 -0.6893,-3.021103 -1.18828,-5.231481 -0.5034,-2.229228 -0.51996,-2.384485 -9.7e-4,-0.258389 0.14216,-0.411343 0.1387,-0.171809 0.32725,-0.216076 0.20739,-0.0487 0.40364,0.02461 0.19625,0.07329 0.32034,0.262979 0.0987,0.3349 0.64291,2.654024 0.52227,2.224808 1.22041,5.283615 0.71701,3.054397 1.23811,5.359035 0.51669,2.285793 0.53767,2.459901 0.0243,0.272811 -0.12888,0.467911 -0.13428,0.190672 -0.36053,0.243776 z m 8.0113,-1.644673 -0.50205,0.05463 q -2.6102,0.05513 -4.45951,-2.140405 -1.83028,-2.199097 -2.39329,-5.206805 -0.32071,-1.713243 -0.15482,-3.458471 0.18492,-1.748795 0.96344,-3.27375 1.31059,-2.471786 3.53782,-2.888699 0.87567,-0.163888 1.86423,0.06481 1.0076,0.225157 1.10024,0.720093 0.0498,0.266519 -0.0668,0.485375 -0.0976,0.215302 -0.42122,0.275881 -0.13327,0.02492 -0.44731,-0.0739 -0.33665,-0.114311 -0.82202,-0.181077 -0.46634,-0.07033 -1.01838,0.033 -0.53301,0.09978 -1.11133,0.483872 -0.58186,0.365061 -1.14245,1.159608 -0.90576,1.371445 -1.12754,3.028616 -0.22178,1.657181 0.0847,3.294283 0.34208,1.827465 1.20415,3.380267 0.87753,1.53021 2.05984,2.372866 1.20133,0.839091 2.49578,0.596788 0.34266,-0.06411 0.68996,-0.208449 0.94356,-0.432759 1.70885,-1.502066 0.76172,-1.088335 0.62407,-2.244761 l -0.91335,-5.089774 -0.0607,-0.0083 -2.62699,0.491751 q -0.47589,0.08913 -0.65079,0.102125 -0.17844,-0.006 -0.28788,-0.06433 -0.26764,-0.166634 -0.32109,-0.452179 -0.0534,-0.285533 0.11675,-0.534133 0.15351,-0.127245 0.92685,-0.311462 0.77337,-0.18412 1.61096,-0.340953 0.68528,-0.128314 1.20283,-0.20546 0.53658,-0.08072 0.59724,-0.07241 0.34499,0.05364 0.53995,0.568834 0.21403,0.511618 0.50262,2.053562 l 0.71501,3.925003 q 0.12832,0.685289 -0.14197,1.346688 -0.22384,0.593593 -0.72019,1.415512 -0.48087,0.799337 -1.25676,1.496264 -0.77589,0.696921 -1.89902,0.90716 z m 15.15995,-2.167693 q -0.32696,0.03866 -0.60095,-0.299495 -0.0216,-0.01699 -0.0521,-0.110859 -0.0114,-0.0962 -0.0363,-0.307738 -0.0273,-0.230801 -0.0728,-0.615453 -0.0477,-0.403886 -0.12277,-1.038574 -0.21598,-1.827123 -0.86146,-6.957749 -0.06,-0.01236 -0.1369,-0.0033 -0.0792,-0.01014 -0.23307,0.008 -0.15387,0.01817 -0.44236,0.05229 -0.27154,0.01257 -0.75235,0.06944 -0.88472,0.104581 -1.99794,0.255677 -1.09401,0.148817 -1.95722,0.270361 -0.86547,0.102307 -1.1155,0.131861 -0.0576,0.0072 -0.0576,0.0072 l 0.51713,4.209725 q 0.17733,1.50016 0.28646,2.423331 0.10913,0.923183 0.16824,1.423237 0.0591,0.500043 0.0649,0.713894 0.0227,0.192332 0.006,0.213821 -0.20228,0.43345 -0.54848,0.47437 -0.38466,0.04542 -0.64395,-0.333413 -0.0329,-0.113119 -0.2249,-1.572551 -0.19202,-1.459422 -0.4727,-3.668922 -0.26145,-2.211784 -0.52518,-4.4428 -0.30465,-2.577201 -0.532,-4.50049 -0.21039,-1.944791 -0.20707,-2.08169 0.18532,-0.411944 0.56998,-0.457404 0.21156,-0.02503 0.42208,0.106114 0.21052,0.131128 0.2899,0.472771 l 0.67751,5.731398 4.72446,-0.616979 q 0.0384,-0.0048 0.0576,-0.0072 0.0384,-0.0048 0.0384,-0.0048 0.0192,-0.0024 0.0192,-0.0024 0.0192,-0.0024 0.0215,0.01699 0.0192,-0.0024 0.0384,-0.0048 0.0192,-0.0024 0.0384,-0.0048 0.0384,-0.0048 0.0961,-0.01139 l 1.65176,-0.214759 -0.65705,-5.558295 q -0.0216,-0.348475 0.15018,-0.544299 0.18883,-0.217329 0.43886,-0.246893 0.36542,-0.0432 0.62927,0.374161 0.0443,0.209274 0.55578,4.536674 0.53077,4.325126 1.35605,11.306649 l 0.002,0.01918 q 0.041,0.346178 -0.15017,0.544296 -0.16959,0.215068 -0.41962,0.244622 z m 6.84077,-0.486194 q -0.36739,0.02077 -0.64172,-0.371048 -0.0205,-0.01824 -0.0379,-0.327621 -0.0186,-0.32872 -0.0817,-1.101054 -0.0437,-0.773429 -0.12358,-2.184955 -0.0798,-1.411514 -0.22385,-3.614708 -0.12577,-2.223622 -0.30512,-5.394708 -0.0755,-1.334175 -0.16077,-2.842373 l -3.03573,0.171705 q -0.30938,0.01746 -0.4834,0.02733 -0.17402,0.0098 -0.27068,0.01535 -0.0773,0.0044 -0.11603,0.0065 -0.0398,-0.01714 -0.0795,-0.0343 -0.38159,-0.230588 -0.40019,-0.559297 -0.012,-0.2127 0.11239,-0.413715 0.14375,-0.202102 0.41226,-0.25609 0.1536,-0.02808 1.42976,-0.100266 1.29441,-0.0926 2.86062,-0.181189 1.56621,-0.08859 2.82413,-0.140342 1.27617,-0.07218 1.39327,-0.0594 0.15687,0.02988 0.30207,0.19629 0.14411,0.147022 0.15725,0.379054 -0.0361,0.389995 -0.22184,0.536282 -0.16636,0.145213 -0.41772,0.159455 l -3.16999,0.198693 0.52057,9.203868 q 0.0941,1.662886 0.15749,2.784368 0.0634,1.121475 0.0846,1.838002 0.0394,0.696089 0.0419,1.083898 0.001,0.368474 -0.0274,0.544683 -0.0106,0.155793 -0.047,0.196636 -0.18133,0.223627 -0.45203,0.238933 z m 14.23148,-0.219536 q -0.32922,-0.0015 -0.55992,-0.370579 -0.0192,-0.01943 -0.0378,-0.116503 4.8e-4,-0.09683 0.001,-0.309859 0.001,-0.232408 0.003,-0.619734 0.002,-0.406697 0.005,-1.045793 0.009,-1.839826 -0.006,-7.010882 -0.058,-0.01959 -0.13548,-0.02002 -0.0774,-0.01972 -0.23229,-0.0204 -0.15495,-7.73e-4 -0.44544,-0.0021 -0.27105,-0.02066 -0.75521,-0.02289 -0.89086,-0.0042 -2.0142,0.01 -1.10399,0.01422 -1.97558,0.02952 -0.87149,-0.0041 -1.12326,-0.0052 -0.0581,-3.16e-4 -0.0581,-3.16e-4 l -4.1e-4,4.241374 q -0.007,1.510592 -0.0114,2.440182 -0.004,0.9296 -0.007,1.433127 -0.002,0.503528 -0.0227,0.716467 -9.4e-4,0.193683 -0.0204,0.212943 -0.25366,0.405527 -0.60227,0.403898 -0.38733,-0.0018 -0.59846,-0.409497 -0.0189,-0.116275 -0.0313,-1.588239 -0.0125,-1.47195 -0.0215,-3.699193 0.0104,-2.227145 0.0209,-4.473668 0.0121,-2.595127 0.0211,-4.531781 0.0285,-1.955933 0.0485,-2.091409 0.23421,-0.386238 0.62154,-0.384438 0.21303,9.79e-4 0.40598,0.156826 0.19293,0.15584 0.23001,0.504622 l -0.0269,5.771236 4.76445,-0.03589 q 0.0388,1.6e-4 0.0581,3.16e-4 0.0388,1.59e-4 0.0388,1.59e-4 0.0193,-3.52e-4 0.0193,-3.52e-4 0.0193,-3.53e-4 0.0192,0.01943 0.0193,-3.52e-4 0.0388,1.6e-4 0.0193,-3.52e-4 0.0388,1.6e-4 0.0388,1.6e-4 0.0968,4.75e-4 l 1.66562,-0.0116 0.0261,-5.59694 q 0.021,-0.348508 0.21547,-0.521902 0.21393,-0.19267 0.4657,-0.191514 0.36796,0.0017 0.57891,0.448143 0.0184,0.213121 -0.002,4.570601 -9.6e-4,4.35757 -0.0337,11.387627 l 3.5e-4,0.01926 q -0.002,0.348603 -0.21547,0.521905 -0.19457,0.192766 -0.44635,0.191549 z m 7.73281,0.453225 q -1.60318,-0.116971 -2.77554,-1.348186 -1.15303,-1.229805 -1.72819,-3.194181 -0.57513,-1.964373 -0.40602,-4.282217 0.14796,-2.028119 0.90417,-3.875933 0.75762,-1.867133 2.13109,-3.126206 0.80967,-0.717647 1.62838,-1.02686 0.81871,-0.309193 1.61064,-0.25143 1.42934,0.104289 2.60592,1.277552 1.17659,1.17327 1.8125,3.103242 0.63728,1.910659 0.46398,4.286446 -0.11134,1.525919 -0.61179,3.062283 -0.48115,1.537777 -1.30956,2.778357 -0.80909,1.24199 -1.91131,1.977127 -1.10082,0.715831 -2.41427,0.620016 z m 0.0751,-1.295544 q 1.21687,0.08878 2.26297,-0.941733 1.06683,-1.048416 1.77313,-2.744528 0.70629,-1.696111 0.84581,-3.608334 0.10993,-1.50661 -0.21072,-2.966946 -0.30134,-1.458946 -1.1067,-2.663385 -0.43919,-0.634003 -1.04842,-1.066819 -0.5885,-0.450727 -1.30317,-0.502872 -1.31344,-0.09582 -2.37886,0.933283 -1.04611,1.030507 -1.71237,2.710123 -0.66484,1.660295 -0.79873,3.495258 -0.14797,2.028121 0.37769,3.87237 0.52588,1.844185 1.79078,2.868639 0.75529,0.559978 1.50859,0.614944 z m 12.15572,2.546991 q -0.97762,-0.140843 -1.86442,-0.640362 -0.88682,-0.499526 -1.48008,-1.406797 -0.5905,-0.926437 -0.70387,-2.312444 -0.051,-0.868284 0.0711,-2.25949 0.12215,-1.391205 0.3486,-2.963056 0.39489,-2.741143 0.87702,-5.1371 0.5013,-2.393183 0.69884,-2.677794 0.24676,-0.218816 0.5343,-0.177377 0.23002,0.03313 0.41879,0.216869 0.19153,0.164562 0.13634,0.547917 -0.0661,0.323114 -0.17349,0.79681 -0.24236,1.139091 -0.60607,2.984665 -0.34454,1.848327 -0.68697,4.225268 -0.32034,2.223598 -0.35493,3.686114 0.0335,1.804959 0.85679,2.745361 0.84521,0.923997 2.03368,1.095215 1.01596,0.14636 2.12563,-0.22208 0.92889,-0.335777 1.33532,-1.255568 0.4092,-0.938948 0.58042,-2.12742 0.0911,-0.63258 0.14392,-1.270666 0.0471,-0.462821 0.11339,-0.922868 0.36207,-2.785014 0.59696,-4.551308 0.24058,-1.941581 0.3897,-2.976705 0.11874,-0.824258 0.21232,-1.202111 0.0936,-0.377859 0.18957,-0.500992 0.096,-0.123142 0.23847,-0.161335 0.16164,-0.0354 0.29582,-0.01604 0.42171,0.06075 0.54713,0.548425 -1.4e-4,0.136937 -0.18534,1.5582 -0.18519,1.42126 -0.44769,3.379242 -0.2625,1.957982 -0.51933,3.740688 -0.31774,2.341373 -0.38969,2.976705 -0.11322,0.785925 -0.38809,1.60726 -0.25292,0.80493 -0.88646,1.535464 -0.64719,0.689434 -1.76776,0.997602 -1.1015,0.310545 -2.28986,0.139722 z m 11.47469,2.159702 q -2.41962,-0.632858 -3.46965,-2.400272 -1.04601,-1.786353 -0.50268,-4.343787 0.14892,-0.700919 0.38499,-1.066547 0.25905,-0.380542 0.69474,-0.287993 0.20839,0.04427 0.34669,0.232041 0.15724,0.191797 0.0687,0.608569 -0.0281,0.1326 -0.0874,0.318017 -0.0902,0.238228 -0.15863,0.560279 -0.14891,0.700917 -0.12164,1.597668 0.0502,0.881836 0.46645,1.623802 0.46936,0.772884 1.13975,1.251894 0.67443,0.460071 1.41324,0.61703 0.81459,0.173073 1.61093,-0.03392 0.79634,-0.206985 1.37694,-0.79641 0.59954,-0.585388 0.80481,-1.551536 0.16335,-0.955248 0.0648,-1.609744 -0.0985,-0.654513 -0.54895,-1.423365 -0.67137,-1.033587 -1.87435,-2.081133 -0.76275,-0.696628 -1.48643,-1.483939 -0.70475,-0.783294 -1.17981,-1.715783 -0.58802,-1.332669 -0.36264,-2.393534 0.21331,-1.004023 0.99258,-1.689823 0.7833,-0.704749 1.83112,-0.977106 1.04781,-0.272364 2.05185,-0.05905 0.54937,0.116721 1.0476,0.380964 1.09001,0.647357 1.59726,1.42829 0.50726,0.780934 0.70572,1.337874 0.0774,0.194653 0.14805,0.328418 0.11815,0.282499 0.0699,0.509822 -0.0523,0.246267 -0.26306,0.399487 -0.18779,0.138281 -0.43404,0.086 -0.35994,-0.07646 -0.67893,-0.718409 -0.44972,-1.144899 -1.07702,-1.733544 -0.62328,-0.607603 -1.3621,-0.764562 -1.0798,-0.229415 -2.14608,0.31622 -1.06627,0.545622 -1.25544,1.435985 -0.098,1.206722 0.75474,2.318459 0.85678,1.092787 1.98801,2.10528 0.86433,0.777608 1.51627,1.529886 0.89467,1.100829 1.15378,2.304226 0.27803,1.207417 0.0486,2.287218 -0.24953,1.174527 -0.99729,2.084802 -0.7248,0.895363 -1.82778,1.334197 -1.09895,0.419925 -2.44398,0.134139 z m 12.43472,3.041236 -4.05569,-1.101422 q -2.16802,-0.588782 -2.12049,-0.616007 -0.15298,-0.101746 -0.21598,-0.239273 -0.063,-0.137516 -0.0344,-0.390612 0.0337,-0.271813 0.16565,-0.757746 0.11674,-0.429874 0.308,-1.060246 0.30293,-1.041558 0.8308,-2.985301 0.32992,-1.214833 0.74774,-2.827237 l 0.89678,-3.228256 0.97614,-3.668285 q 0.11675,-0.429865 0.17258,-0.635452 0.0745,-0.20051 0.13728,-0.283813 0.0679,-0.102017 0.15436,-0.1989 0.15436,-0.198899 0.45501,-0.197486 0.30572,-0.01733 1.12809,0.206014 1.58354,0.450122 2.46197,0.688674 0.92941,0.272477 1.29814,0.392685 0.37379,0.101511 0.45201,0.18296 0.27552,0.31564 0.184,0.652101 -0.066,0.242964 -0.30871,0.397796 -0.0239,0.01314 -0.0289,0.03227 -0.0662,0.02223 -0.1324,0.04445 -0.0426,0.0081 -0.19705,-0.01339 -0.13592,-0.01688 -0.40264,-0.06921 -0.26166,-0.07106 -0.74759,-0.203032 l -3.30303,-0.91708 -0.71567,2.635262 -0.6919,2.62165 2.74232,0.764817 q 0.29904,0.08121 0.41141,0.332476 0.11749,0.232576 0.0566,0.456853 -0.0609,0.224278 -0.24249,0.375642 -0.1765,0.132734 -0.39731,0.13296 -0.056,-0.01527 -0.32281,-0.0676 -0.26165,-0.07106 -0.61677,-0.167496 -0.44855,-0.121812 -0.8971,-0.243632 -0.44856,-0.121821 -0.77136,-0.18941 -0.31773,-0.08629 -0.34149,-0.07267 -0.0339,0.05099 -0.32323,1.116316 -0.28932,1.065317 -0.72075,2.653953 l -1.01006,3.719266 q 1.21483,0.329921 2.09326,0.568482 1.04662,0.284233 1.6957,0.480575 0.67283,0.182721 1.04155,0.302932 0.39248,0.106589 0.57431,0.176032 0.18182,0.06945 0.22774,0.122058 0.0646,0.05765 0.10548,0.128961 0,0 0,0 0.13111,0.256341 0.0651,0.49932 -0.066,0.242968 -0.28495,0.384177 -0.21896,0.141238 -0.49931,0.06508 z"
         id="text40"
         inkscape:transform-center-x="-1.6725974"
         inkscape:transform-center-y="-176.87779"
         aria-label="LIGHTHOUSE" />
      <path
         id="circle40"
         style="color:#000000;fill:#ffffff;-inkscape-stroke:none"
         d="M 187.63765,81.281358 C 122.09197,106.39236 75.517369,169.8723 75.517369,244.23626 c 0,96.34259 78.140301,174.48238 174.482881,174.48238 96.34259,0 174.48238,-78.13979 174.48238,-174.48238 0,-72.89121 -44.74492,-135.33204 -108.24456,-161.426313 l -1.7632,3.054077 c 62.47054,25.450686 106.50771,86.740096 106.50771,158.372236 0,94.45137 -76.53096,170.98233 -170.98233,170.98233 -94.45136,0 -170.982836,-76.53096 -170.982836,-170.98233 -10e-7,-73.10554 45.864816,-135.44278 110.383956,-159.89979 z" />
    </g>
  </g>
</svg>
