<?xml version="1.0" encoding="UTF-8" standalone="no"?>
<!-- Created with Inkscape (http://www.inkscape.org/) -->

<svg
   width="500mm"
   height="500mm"
   viewBox="0 0 500 500"
   version="1.1"
   id="svg1"
   inkscape:version="1.3.2 (091e20e, 2023-11-25)"
   sodipodi:docname="Mount-Blanco.svg"
   inkscape:export-filename="Mount-Blanco.jpg"
   inkscape:export-xdpi="96"
   inkscape:export-ydpi="96"
   xmlns:inkscape="http://www.inkscape.org/namespaces/inkscape"
   xmlns:sodipodi="http://sodipodi.sourceforge.net/DTD/sodipodi-0.dtd"
   xmlns="http://www.w3.org/2000/svg"
   xmlns:svg="http://www.w3.org/2000/svg">
  <sodipodi:namedview
     id="namedview1"
     pagecolor="#ffffff"
     bordercolor="#000000"
     borderopacity="0.25"
     inkscape:showpageshadow="2"
     inkscape:pageopacity="0.0"
     inkscape:pagecheckerboard="0"
     inkscape:deskcolor="#d1d1d1"
     inkscape:document-units="mm"
     showgrid="false"
     showguides="true"
     inkscape:zoom="0.25982083"
     inkscape:cx="946.80629"
     inkscape:cy="944.88189"
     inkscape:window-width="1356"
     inkscape:window-height="697"
     inkscape:window-x="0"
     inkscape:window-y="0"
     inkscape:window-maximized="1"
     inkscape:current-layer="layer1">
    <inkscape:grid
       id="grid1"
       units="mm"
       originx="0"
       originy="0"
       spacingx="0.99999999"
       spacingy="0.99999999"
       empcolor="#0099e5"
       empopacity="0.30196078"
       color="#0099e5"
       opacity="0.14901961"
       empspacing="5"
       dotted="false"
       gridanglex="30"
       gridanglez="30"
       visible="false" />
  </sodipodi:namedview>
  <defs
     id="defs1" />
  <g
     inkscape:label="Layer 1"
     inkscape:groupmode="layer"
     id="layer1">
    <g
       id="g11"
       transform="translate(4.2222406,-56.649699)">
      <path
         id="path2"
         style="opacity:1;fill:none;stroke:#1a1a1a;stroke-width:10;stroke-linecap:round;stroke-linejoin:round;stroke-opacity:1"
         d="m 247.53838,174.63792 v 0.001 c -52.57288,0.0442 -114.03677,5.4053 -180.414312,21.45709 -0.794072,1.16737 -17.124802,27.49738 -0.117389,99.44727 0,0 86.942001,47.06582 146.983271,43.91297 0.60995,-0.81498 33.05588,-46.07126 33.62284,-46.88551 0.56696,0.81425 31.70191,45.31863 32.89929,46.88551 60.04127,3.15285 147.89011,-45.87303 147.89011,-45.87303 17.00741,-71.94989 -0.32529,-97.48267 -0.30067,-97.48721 -66.37755,-16.05179 -127.84143,-21.41285 -180.41431,-21.45709 v -0.001 c -0.0246,2e-5 -0.0499,5e-4 -0.0744,5.2e-4 -0.0245,-2e-5 -0.0499,-5e-4 -0.0744,-5.2e-4 z"
         sodipodi:nodetypes="cccccccccccscc" />
      <path
         id="path3"
         style="opacity:1;fill:none;stroke:#1a1a1a;stroke-width:11.9248;stroke-linecap:round;stroke-linejoin:round;stroke-opacity:1"
         d="m 247.52273,149.09494 v 9.4e-4 c -58.34959,0.0566 -126.56714,6.92537 -200.238252,27.49126 -0.420208,0.69448 -19.006476,35.2302 -0.130288,127.41385 0,0 96.4952,60.30169 163.1338,56.26218 1.06191,-1.41643 36.68806,-59.02743 37.31733,-60.07066 0.62925,1.04323 35.67263,58.97595 36.51426,60.07066 66.63861,4.03951 164.14028,-58.77344 164.14028,-58.77344 18.87619,-92.18367 1.14747,-123.27991 -0.3337,-124.90259 -73.67112,-20.56589 -141.88865,-27.43459 -200.23824,-27.49126 v -9.4e-4 c -0.0274,2e-5 -0.0554,6.4e-4 -0.0826,6.6e-4 -0.0272,-2e-5 -0.0553,-6.4e-4 -0.0826,-6.6e-4 z"
         sodipodi:nodetypes="cccccccccccscc" />
      <rect
         style="opacity:1;fill:#1a1a1a;fill-opacity:1;stroke:none;stroke-width:8.99717;stroke-linecap:round;stroke-linejoin:round;stroke-opacity:1"
         id="rect3"
         width="23.453695"
         height="137.80594"
         x="217.70293"
         y="199.09285"
         transform="matrix(1,0,-0.43134773,0.90218576,0,0)" />
      <rect
         style="opacity:1;fill:#1a1a1a;fill-opacity:1;stroke:none;stroke-width:5.54495;stroke-linecap:round;stroke-linejoin:round;stroke-opacity:1"
         id="rect4"
         width="8.3589935"
         height="150.16989"
         x="246.95001"
         y="195.06001"
         transform="matrix(1,0,-0.42925361,0.903184,0,0)" />
    </g>
    <g
       id="g10"
       transform="translate(5.384205,-56.649699)">
      <path
         sodipodi:type="star"
         style="opacity:1;fill:#1a1a1a;fill-opacity:1;stroke:none;stroke-width:10;stroke-linecap:round;stroke-linejoin:round;stroke-opacity:1"
         id="path6"
         inkscape:flatsided="false"
         sodipodi:sides="5"
         sodipodi:cx="226.03606"
         sodipodi:cy="78.67382"
         sodipodi:r1="37.361023"
         sodipodi:r2="14.293828"
         sodipodi:arg1="0.91929278"
         sodipodi:arg2="1.5476113"
         inkscape:rounded="0"
         inkscape:randomized="0"
         d="m 248.69113,108.3823 -22.3237,-15.418493 -21.58501,16.436693 7.76545,-25.995676 -22.30236,-15.449345 27.12302,-0.647724 7.80139,-25.984916 8.99749,25.595363 27.12389,-0.610216 -21.56226,16.466529 z"
         inkscape:transform-center-x="0.10040746"
         inkscape:transform-center-y="-1.2425741"
         transform="matrix(0.3751563,0,0,0.3751563,161.94099,79.708143)" />
      <path
         sodipodi:type="star"
         style="opacity:1;fill:#1a1a1a;fill-opacity:1;stroke:none;stroke-width:10;stroke-linecap:round;stroke-linejoin:round;stroke-opacity:1"
         id="path7"
         inkscape:flatsided="false"
         sodipodi:sides="5"
         sodipodi:cx="226.03606"
         sodipodi:cy="78.67382"
         sodipodi:r1="37.361023"
         sodipodi:r2="14.293828"
         sodipodi:arg1="0.91929278"
         sodipodi:arg2="1.5476113"
         inkscape:rounded="0"
         inkscape:randomized="0"
         d="m 248.69113,108.3823 -22.3237,-15.418493 -21.58501,16.436693 7.76545,-25.995676 -22.30236,-15.449345 27.12302,-0.647724 7.80139,-25.984916 8.99749,25.595363 27.12389,-0.610216 -21.56226,16.466529 z"
         inkscape:transform-center-x="0.10040746"
         inkscape:transform-center-y="-1.2425741"
         transform="matrix(0.3751563,0,0,0.3751563,194.76813,79.708143)" />
      <path
         sodipodi:type="star"
         style="opacity:1;fill:#1a1a1a;fill-opacity:1;stroke:none;stroke-width:10;stroke-linecap:round;stroke-linejoin:round;stroke-opacity:1"
         id="path8"
         inkscape:flatsided="false"
         sodipodi:sides="5"
         sodipodi:cx="226.03606"
         sodipodi:cy="78.67382"
         sodipodi:r1="37.361023"
         sodipodi:r2="14.293828"
         sodipodi:arg1="0.91929278"
         sodipodi:arg2="1.5476113"
         inkscape:rounded="0"
         inkscape:randomized="0"
         d="m 248.69113,108.3823 -22.3237,-15.418493 -21.58501,16.436693 7.76545,-25.995676 -22.30236,-15.449345 27.12302,-0.647724 7.80139,-25.984916 8.99749,25.595363 27.12389,-0.610216 -21.56226,16.466529 z"
         inkscape:transform-center-x="0.10040746"
         inkscape:transform-center-y="-1.2425741"
         transform="matrix(0.3751563,0,0,0.3751563,129.11385,79.708143)" />
      <path
         sodipodi:type="star"
         style="opacity:1;fill:#1a1a1a;fill-opacity:1;stroke:none;stroke-width:10;stroke-linecap:round;stroke-linejoin:round;stroke-opacity:1"
         id="path9"
         inkscape:flatsided="false"
         sodipodi:sides="5"
         sodipodi:cx="226.03606"
         sodipodi:cy="78.67382"
         sodipodi:r1="37.361023"
         sodipodi:r2="14.293828"
         sodipodi:arg1="0.91929278"
         sodipodi:arg2="1.5476113"
         inkscape:rounded="0"
         inkscape:randomized="0"
         d="m 248.69113,108.3823 -22.3237,-15.418493 -21.58501,16.436693 7.76545,-25.995676 -22.30236,-15.449345 27.12302,-0.647724 7.80139,-25.984916 8.99749,25.595363 27.12389,-0.610216 -21.56226,16.466529 z"
         inkscape:transform-center-x="0.10040746"
         inkscape:transform-center-y="-1.2425741"
         transform="matrix(0.3751563,0,0,0.3751563,227.59527,79.708143)" />
      <path
         sodipodi:type="star"
         style="opacity:1;fill:#1a1a1a;fill-opacity:1;stroke:none;stroke-width:10;stroke-linecap:round;stroke-linejoin:round;stroke-opacity:1"
         id="path10"
         inkscape:flatsided="false"
         sodipodi:sides="5"
         sodipodi:cx="226.03606"
         sodipodi:cy="78.67382"
         sodipodi:r1="37.361023"
         sodipodi:r2="14.293828"
         sodipodi:arg1="0.91929278"
         sodipodi:arg2="1.5476113"
         inkscape:rounded="0"
         inkscape:randomized="0"
         d="m 248.69113,108.3823 -22.3237,-15.418493 -21.58501,16.436693 7.76545,-25.995676 -22.30236,-15.449345 27.12302,-0.647724 7.80139,-25.984916 8.99749,25.595363 27.12389,-0.610216 -21.56226,16.466529 z"
         inkscape:transform-center-x="0.10040746"
         inkscape:transform-center-y="-1.2425741"
         transform="matrix(0.3751563,0,0,0.3751563,96.286709,79.708143)" />
    </g>
    <text
       xml:space="preserve"
       style="font-style:normal;font-variant:normal;font-weight:normal;font-stretch:normal;font-size:31.75px;line-height:1;font-family:Lato;-inkscape-font-specification:Lato;letter-spacing:2.64583px;word-spacing:0px;opacity:1;fill:#1a1a1a;fill-opacity:1;stroke:#191919;stroke-width:3;stroke-linecap:round;stroke-linejoin:round;stroke-dasharray:none;stroke-opacity:1"
       x="108.18581"
       y="379.29489"
       id="text17"><tspan
         sodipodi:role="line"
         id="tspan17"
         style="fill:#1a1a1a;fill-opacity:1;stroke:#191919;stroke-width:3;stroke-opacity:1"
         x="108.18581"
         y="379.29489">MOUNT BLANCO</tspan></text>
    <g
       id="g18"
       transform="translate(6.3364935)"
       style="fill:#1a1a1a;fill-opacity:1;stroke:#1a1a1a;stroke-opacity:1">
      <text
         xml:space="preserve"
         style="font-style:normal;font-variant:normal;font-weight:normal;font-stretch:normal;font-size:17.5628px;line-height:1;font-family:Lato;-inkscape-font-specification:Lato;letter-spacing:1.46357px;word-spacing:0px;opacity:1;fill:#1a1a1a;fill-opacity:1;stroke:#1a1a1a;stroke-width:1.65948;stroke-linecap:round;stroke-linejoin:round;stroke-dasharray:none;stroke-opacity:1"
         x="187.75632"
         y="412.15988"
         id="text16"><tspan
           sodipodi:role="line"
           id="tspan16"
           style="fill:#1a1a1a;fill-opacity:1;stroke:#1a1a1a;stroke-width:1.65948;stroke-opacity:1"
           x="187.75632"
           y="412.15988">SKI SCHOOL</tspan></text>
      <path
         sodipodi:type="star"
         style="opacity:1;fill:#1a1a1a;fill-opacity:1;stroke:#1a1a1a;stroke-width:3;stroke-linecap:round;stroke-linejoin:round;stroke-dasharray:none;stroke-opacity:1"
         id="path17"
         inkscape:flatsided="false"
         sodipodi:sides="8"
         sodipodi:cx="410.86649"
         sodipodi:cy="332.36157"
         sodipodi:r1="9.5391159"
         sodipodi:r2="3.6495385"
         sodipodi:arg1="0.78539816"
         sodipodi:arg2="1.1780972"
         inkscape:rounded="0"
         inkscape:randomized="0"
         d="m 417.61166,339.10675 -5.34856,-3.37344 -1.39661,6.16738 -1.39662,-6.16738 -5.34856,3.37344 3.37344,-5.34856 -6.16738,-1.39662 6.16738,-1.39662 -3.37344,-5.34855 5.34856,3.37344 1.39662,-6.16738 1.39661,6.16738 5.34856,-3.37344 -3.37344,5.34855 6.16738,1.39662 -6.16738,1.39662 z"
         inkscape:transform-center-x="3.5077942e-06"
         inkscape:transform-center-y="-2.1736983e-06"
         transform="matrix(0.75184234,0,0,0.75184234,18.615601,156.24279)" />
      <path
         sodipodi:type="star"
         style="opacity:1;fill:#1a1a1a;fill-opacity:1;stroke:#1a1a1a;stroke-width:3;stroke-linecap:round;stroke-linejoin:round;stroke-dasharray:none;stroke-opacity:1"
         id="path18"
         inkscape:flatsided="false"
         sodipodi:sides="8"
         sodipodi:cx="410.86649"
         sodipodi:cy="332.36157"
         sodipodi:r1="9.5391159"
         sodipodi:r2="3.6495385"
         sodipodi:arg1="0.78539816"
         sodipodi:arg2="1.1780972"
         inkscape:rounded="0"
         inkscape:randomized="0"
         d="m 417.61166,339.10675 -5.34856,-3.37344 -1.39661,6.16738 -1.39662,-6.16738 -5.34856,3.37344 3.37344,-5.34856 -6.16738,-1.39662 6.16738,-1.39662 -3.37344,-5.34855 5.34856,3.37344 1.39662,-6.16738 1.39661,6.16738 5.34856,-3.37344 -3.37344,5.34855 6.16738,1.39662 -6.16738,1.39662 z"
         inkscape:transform-center-x="3.5077942e-06"
         inkscape:transform-center-y="-2.1736983e-06"
         transform="matrix(0.75184234,0,0,0.75184234,-145.05496,156.24279)" />
    </g>
  </g>
</svg>
