<?xml version="1.0" encoding="UTF-8" standalone="no"?>
<!-- Created with Inkscape (http://www.inkscape.org/) -->

<svg
   width="500mm"
   height="500mm"
   viewBox="0 0 500 500"
   version="1.1"
   id="svg1"
   inkscape:version="1.3.2 (091e20e, 2023-11-25)"
   sodipodi:docname="Munich Airport.svg"
   xmlns:inkscape="http://www.inkscape.org/namespaces/inkscape"
   xmlns:sodipodi="http://sodipodi.sourceforge.net/DTD/sodipodi-0.dtd"
   xmlns:xlink="http://www.w3.org/1999/xlink"
   xmlns="http://www.w3.org/2000/svg"
   xmlns:svg="http://www.w3.org/2000/svg">
  <sodipodi:namedview
     id="namedview1"
     pagecolor="#ffffff"
     bordercolor="#000000"
     borderopacity="0.25"
     inkscape:showpageshadow="2"
     inkscape:pageopacity="0.0"
     inkscape:pagecheckerboard="0"
     inkscape:deskcolor="#d1d1d1"
     inkscape:document-units="mm"
     showgrid="false"
     inkscape:zoom="0.25982083"
     inkscape:cx="942.9575"
     inkscape:cy="944.8819"
     inkscape:window-width="1356"
     inkscape:window-height="697"
     inkscape:window-x="0"
     inkscape:window-y="0"
     inkscape:window-maximized="1"
     inkscape:current-layer="layer1" />
  <defs
     id="defs1">
    <linearGradient
       id="linearGradient37"
       inkscape:collect="always">
      <stop
         style="stop-color:#00a8eb;stop-opacity:1;"
         offset="0"
         id="stop37" />
      <stop
         style="stop-color:#008dc5;stop-opacity:1;"
         offset="1"
         id="stop38" />
    </linearGradient>
    <linearGradient
       inkscape:collect="always"
       xlink:href="#linearGradient37"
       id="linearGradient38"
       x1="98.713272"
       y1="345.28403"
       x2="403.97888"
       y2="345.28403"
       gradientUnits="userSpaceOnUse" />
  </defs>
  <g
     inkscape:label="Layer 1"
     inkscape:groupmode="layer"
     id="layer1">
    <rect
       style="fill:#090909;fill-opacity:1;stroke:none;stroke-width:3;stroke-linecap:round;stroke-linejoin:round;stroke-opacity:1"
       id="rect37"
       width="513.95923"
       height="513.37939"
       x="-9.244915"
       y="-7.1688337" />
    <path
       id="path1"
       style="fill:#ffffff;fill-opacity:1;stroke-width:2.20159;stroke-linecap:round;stroke-linejoin:round"
       inkscape:transform-center-x="6.3798633e-06"
       inkscape:transform-center-y="-8.2857932e-06"
       d="m 407.551,145.92678 -21.35373,23.23734 c 6.87276,-3.87286 13.67191,-7.89195 20.39772,-12.05508 z m -310.534014,1.19683 5.992394,70.1058 10.86911,11.8277 c 16.68142,-2.01379 33.21388,-4.45567 49.55563,-7.39955 l -0.21291,-2.49029 z m 228.630494,0.71572 -20.46697,33.52043 c 8.58369,-3.47076 17.08909,-7.10932 25.49715,-10.95179 z m -146.72697,1.1963 -15.6254,70.1058 1.39423,2.28306 c 17.4199,-3.16612 34.60738,-6.93394 51.57825,-11.2236 z m 71.65248,0.82166 -22.18934,57.18256 c 14.17035,-3.84024 28.15326,-8.11956 41.95454,-12.80801 z m 155.48147,13.58005 c -9.85754,6.0102 -20.02189,11.77675 -30.49272,17.30024 l -31.31746,34.08009 c 20.59256,-9.29445 40.64629,-19.71489 60.09607,-31.32729 z m -74.26938,11.93829 c -9.97025,4.48871 -20.26492,8.72117 -30.76246,12.79353 l -16.08687,26.34723 c 17.34837,-6.01503 34.39628,-12.69783 51.08525,-20.13675 z m 72.01576,14.42392 c -19.70097,11.56987 -40.62876,22.16598 -62.76464,31.80736 l -5.68182,66.46985 66.20422,-72.04418 z m -131.50721,8.82272 c -14.82281,4.98138 -30.13874,9.5751 -45.98118,13.75472 l -3.43751,8.85889 0.0346,-0.15658 -4.15427,-6.8032 c -16.60998,4.20392 -33.8008,7.9519 -51.55757,11.25667 l 10.4128,17.05426 c 14.31763,-2.64515 28.50384,-5.63284 42.51936,-9.03666 l 2.56006,-11.48509 4.32686,9.71414 c 17.97752,-4.54804 35.67537,-9.76322 53.07583,-15.64866 z m 64.81723,0.64854 c -17.63464,7.74247 -36.0075,14.90158 -55.28861,21.34547 l 3.82146,17.14469 c 18.78623,-6.3528 37.24255,-13.44333 55.26537,-21.44985 z m -55.6085,21.45812 c -16.85721,5.6245 -34.42829,10.68769 -52.6035,15.27607 l 7.32565,16.44706 c 12.48455,-3.22568 24.86292,-6.70448 37.07112,-10.57455 z m 56.8198,2.04949 c -16.52842,7.10548 -33.669,13.72771 -51.6258,19.70681 l 10.58799,47.50356 z m -174.50408,3.36931 c -14.92561,2.71791 -30.24051,5.13129 -45.99926,7.19749 l 14.94275,16.26051 c 10.9562,-1.42606 21.83413,-3.06974 32.64297,-4.89945 z m 55.2266,12.2716 c -12.64793,3.0203 -25.61158,5.79313 -38.90822,8.30492 l 9.85986,16.14785 c 8.30425,-1.60777 16.55665,-3.34603 24.75922,-5.21002 z m 52.11878,8.95242 c -10.76695,3.31114 -21.75111,6.45159 -33.03364,9.35757 l 15.71325,35.27743 z m -105.36359,1.96009 c -9.54477,1.64135 -19.22003,3.18114 -29.09848,4.56147 l 14.3247,15.58769 c 5.4481,-0.78976 10.86781,-1.65499 16.2786,-2.5461 z m 47.85289,13.27929 c -6.94716,1.55643 -13.94071,3.07627 -21.0783,4.48345 l 14.70918,24.09051 z m -45.94758,9.00772 c -4.23458,0.71004 -8.59379,1.32253 -12.89327,1.98179 l 14.40222,15.67243 z" />
    <text
       xml:space="preserve"
       style="font-style:normal;font-variant:normal;font-weight:normal;font-stretch:normal;font-size:35.7798px;line-height:1;font-family:'TeX Gyre Termes Math';-inkscape-font-specification:'TeX Gyre Termes Math';text-align:center;letter-spacing:0px;word-spacing:0px;text-anchor:middle;fill:#ffffff;fill-opacity:1;stroke-width:3.38077;stroke-linecap:round;stroke-linejoin:round"
       x="250.24399"
       y="354.03769"
       id="text15"><tspan
         sodipodi:role="line"
         id="tspan15"
         style="font-style:normal;font-variant:normal;font-weight:normal;font-stretch:normal;font-family:'TeX Gyre Termes Math';-inkscape-font-specification:'TeX Gyre Termes Math';fill:#ffffff;fill-opacity:1;stroke-width:3.38077"
         x="250.24399"
         y="354.03769">MUNICH AIRPORT</tspan></text>
  </g>
</svg>
