<?xml version="1.0" encoding="UTF-8" standalone="no"?>
<!-- Created with Inkscape (http://www.inkscape.org/) -->

<svg
   width="500mm"
   height="500mm"
   viewBox="0 0 500 500"
   version="1.1"
   id="svg1"
   inkscape:version="1.3.2 (091e20e, 2023-11-25)"
   sodipodi:docname="PELO.svg"
   xmlns:inkscape="http://www.inkscape.org/namespaces/inkscape"
   xmlns:sodipodi="http://sodipodi.sourceforge.net/DTD/sodipodi-0.dtd"
   xmlns="http://www.w3.org/2000/svg"
   xmlns:svg="http://www.w3.org/2000/svg">
  <sodipodi:namedview
     id="namedview1"
     pagecolor="#ffffff"
     bordercolor="#000000"
     borderopacity="0.25"
     inkscape:showpageshadow="2"
     inkscape:pageopacity="0.0"
     inkscape:pagecheckerboard="0"
     inkscape:deskcolor="#d1d1d1"
     inkscape:document-units="mm"
     showgrid="false"
     showguides="true"
     inkscape:zoom="0.25982083"
     inkscape:cx="944.88189"
     inkscape:cy="944.88189"
     inkscape:window-width="1356"
     inkscape:window-height="697"
     inkscape:window-x="0"
     inkscape:window-y="0"
     inkscape:window-maximized="1"
     inkscape:current-layer="layer1" />
  <defs
     id="defs1" />
  <g
     inkscape:label="Layer 1"
     inkscape:groupmode="layer"
     id="layer1">
    <text
       xml:space="preserve"
       style="font-weight:600;font-size:134.557px;line-height:1.5;font-family:Outfit;-inkscape-font-specification:'Outfit Semi-Bold';letter-spacing:0px;word-spacing:0px;fill:#fff840;fill-opacity:1;stroke:none;stroke-width:10;stroke-dasharray:none;stroke-opacity:1"
       x="506.21478"
       y="234.55182"
       id="text3"
       transform="scale(0.75737156,1.3203559)"><tspan
         sodipodi:role="line"
         id="tspan3"
         style="fill:#fff840;fill-opacity:1;stroke:none;stroke-width:10"
         x="506.21478"
         y="234.55182" /></text>
    <g
       id="g13"
       transform="matrix(0.74265986,0,0,0.74265986,-20.926494,91.567325)"
       style="stroke-width:1.34651">
      <path
         id="path1"
         style="fill:#fff840;fill-opacity:1;stroke:none;stroke-width:13.4651;stroke-dasharray:none;stroke-opacity:1"
         d="m 165.59224,142.289 a 35.488009,35.488009 0 0 0 -35.48809,35.48809 35.488009,35.488009 0 0 0 35.48809,35.48808 35.488009,35.488009 0 0 0 34.7439,-28.68018 h 96.05309 l 0.0698,-0.002 c 0,0 8.51661,-0.12847 16.79102,3.63904 8.2744,3.7675 15.97759,10.24336 15.97759,26.8099 0,16.65277 -7.44166,23.36523 -15.29109,27.26565 -7.84945,3.9004 -15.86858,3.92862 -15.86858,3.92862 h -0.0173 -32.51939 a 35.488009,35.488009 0 0 0 -35.37789,-32.82855 35.488009,35.488009 0 0 0 -35.48808,35.48809 35.488009,35.488009 0 0 0 35.48808,35.48808 35.488009,35.488009 0 0 0 34.37528,-26.98354 h 33.50473 l -0.0352,-0.003 c 0,0 10.36687,0.14326 20.90542,-5.09337 10.53854,-5.23665 21.48807,-16.91158 21.48807,-37.26261 0,-20.43727 -11.54381,-31.97533 -22.51494,-36.9707 -10.97111,-4.99537 -21.70152,-4.63764 -21.70152,-4.63764 l 0.14191,-0.003 H 200.80111 A 35.488009,35.488009 0 0 0 165.59224,142.289 Z" />
      <text
         xml:space="preserve"
         style="font-style:normal;font-variant:normal;font-weight:normal;font-stretch:normal;font-size:114.376px;line-height:1.5;font-family:'Slowly Lovely Sans';-inkscape-font-specification:'Slowly Lovely Sans';letter-spacing:9.20362px;word-spacing:0px;fill:#fff840;fill-opacity:1;stroke:#fff840;stroke-width:6.73256;stroke-dasharray:none;stroke-opacity:1"
         x="401.82645"
         y="252.49405"
         id="text4"
         transform="scale(0.99716909,1.0028389)"><tspan
           sodipodi:role="line"
           id="tspan4"
           style="font-style:normal;font-variant:normal;font-weight:normal;font-stretch:normal;font-family:'Slowly Lovely Sans';-inkscape-font-specification:'Slowly Lovely Sans';letter-spacing:9.20362px;stroke:#fff840;stroke-width:6.73256;stroke-dasharray:none;stroke-opacity:1"
           x="401.82645"
           y="252.49405">PELO</tspan></text>
      <path
         id="path5"
         style="fill:#fff840;fill-opacity:1;stroke:none;stroke-width:13.4651;stroke-dasharray:none;stroke-opacity:1"
         d="m 165.59224,142.289 a 35.488009,35.488009 0 0 0 -35.48809,35.48809 35.488009,35.488009 0 0 0 35.48809,35.48808 35.488009,35.488009 0 0 0 34.7439,-28.68018 h 96.05309 l 0.0698,-0.002 c 0,0 8.51661,-0.12847 16.79102,3.63904 8.2744,3.7675 15.97759,10.24336 15.97759,26.8099 0,16.65277 -7.44166,23.36523 -15.29109,27.26565 -7.84945,3.9004 -15.86858,3.92862 -15.86858,3.92862 h -0.0173 -32.51939 a 35.488009,35.488009 0 0 0 -35.37789,-32.82855 35.488009,35.488009 0 0 0 -35.48808,35.48809 35.488009,35.488009 0 0 0 35.48808,35.48808 35.488009,35.488009 0 0 0 34.37528,-26.98354 h 33.50473 l -0.0352,-0.003 c 0,0 10.36687,0.14326 20.90542,-5.09337 10.53854,-5.23665 21.48807,-16.91158 21.48807,-37.26261 0,-20.43727 -11.54381,-31.97533 -22.51494,-36.9707 -10.97111,-4.99537 -21.70152,-4.63764 -21.70152,-4.63764 l 0.14191,-0.003 H 200.80111 A 35.488009,35.488009 0 0 0 165.59224,142.289 Z" />
    </g>
  </g>
</svg>
