<?xml version="1.0" encoding="UTF-8" standalone="no"?>
<!-- Created with Inkscape (http://www.inkscape.org/) -->

<svg
   width="500mm"
   height="500mm"
   viewBox="0 0 500 500"
   version="1.1"
   id="svg1"
   inkscape:version="1.3.2 (091e20e, 2023-11-25)"
   xml:space="preserve"
   sodipodi:docname="PETER PARKINSON FARM.svg"
   xmlns:inkscape="http://www.inkscape.org/namespaces/inkscape"
   xmlns:sodipodi="http://sodipodi.sourceforge.net/DTD/sodipodi-0.dtd"
   xmlns="http://www.w3.org/2000/svg"
   xmlns:svg="http://www.w3.org/2000/svg"><sodipodi:namedview
     id="namedview1"
     pagecolor="#ffffff"
     bordercolor="#000000"
     borderopacity="0.25"
     inkscape:showpageshadow="2"
     inkscape:pageopacity="0.0"
     inkscape:pagecheckerboard="0"
     inkscape:deskcolor="#d1d1d1"
     inkscape:document-units="mm"
     showgrid="false"
     showguides="false"
     inkscape:zoom="0.25982083"
     inkscape:cx="942.9575"
     inkscape:cy="944.8819"
     inkscape:window-width="1356"
     inkscape:window-height="697"
     inkscape:window-x="0"
     inkscape:window-y="0"
     inkscape:window-maximized="1"
     inkscape:current-layer="g634"><sodipodi:guide
       position="401.72548,283.01761"
       orientation="1,0"
       id="guide271"
       inkscape:locked="false" /><sodipodi:guide
       position="377.47781,283.01761"
       orientation="1,0"
       id="guide272"
       inkscape:locked="false" /></sodipodi:namedview><defs
     id="defs1"><inkscape:path-effect
       effect="fill_between_many"
       method="originald"
       linkedpaths="#path2,0,1|#path3,0,1|"
       id="path-effect3" /></defs><g
     inkscape:label="Layer 1"
     inkscape:groupmode="layer"
     id="layer1"><rect
       style="opacity:1;fill:#4f3d1a;fill-opacity:1;stroke:#ae7e1e;stroke-width:1;stroke-linecap:round;stroke-linejoin:round;stroke-dasharray:none;stroke-opacity:1"
       id="rect633"
       width="500"
       height="500"
       x="0"
       y="0" /><g
       id="g634"
       transform="translate(-9.3531519)"><g
         id="g333"
         transform="matrix(0.81567287,0,0,0.81567287,45.922829,-20.701204)"><path
           style="fill:#ae7e1e;fill-opacity:1;stroke:none;stroke-width:1.16611;stroke-linecap:round;stroke-linejoin:round;stroke-opacity:1"
           d="m 212.22089,336.44167 -16.15323,0.0547 c 0.0541,-0.0547 2.74206,-6.65455 5.21965,-6.36539 0.11637,0.0106 2.39678,-5.16339 0.408,-14.60295 -0.86315,-4.09688 3.18715,-16.76435 -2.2135,-25.67951 -2.14128,-3.53475 2.9749,-4.99223 -0.0265,-15.90743 -0.14768,-0.35621 18.36349,-5.89755 18.36349,-5.89755 0,0 -0.58863,3.22425 -2.37115,4.00147 -0.39771,-0.4053 1.60107,5.32374 -0.35209,15.5251 0.33411,-0.54187 -5.0413,28.00507 -0.78666,40.64335 0.44442,1.5925 -1.39197,5.48547 -2.08794,8.22822 z"
           id="path8"
           sodipodi:nodetypes="cccsscccccc" /><path
           style="fill:#ae7e1e;fill-opacity:1;stroke:none;stroke-width:1.16611;stroke-linecap:round;stroke-linejoin:round;stroke-opacity:1"
           d="m 368.06691,213.44178 c 2.52622,2.62639 -7.43248,43.56922 -7.3185,46.99558 0.33925,10.19823 6.2812,17.46657 7.05426,21.49937 1.03698,5.40969 -0.56275,25.38929 -0.56275,25.38929 v 25.61349 l -2.62264,7.07432 c -0.0448,-0.56308 -6.82167,0.26745 -11.71955,0 1.00633,-2.34695 1.64198,-4.72131 4.57968,-6.92529 0,0 -0.52925,-13.30155 0.7917,-18.04706 -1.68906,-5.00323 -4.25362,-19.09202 -9.78712,-28.71018 -5.53349,-9.61818 -5.04958,-69.74397 19.58492,-72.88952 z"
           id="path7"
           sodipodi:nodetypes="cssccccccsc" /><path
           id="path4"
           style="fill:#cb9323;fill-opacity:1;stroke:none;stroke-width:1.16611;stroke-linecap:round;stroke-linejoin:round;stroke-opacity:1"
           d="m 163.65709,160.43493 c -3.48543,0.10734 -6.05265,3.4359 -6.05265,3.4359 0,0 -5.68013,0.46482 -6.36771,2.56857 0.1088,-0.18451 -12.17889,0.4219 -11.79028,6.30024 0.0829,-0.41811 -17.17057,7.04156 -17.17057,7.04156 0,0 -7.53142,1.28047 -6.25056,6.29877 -1.06145,2.80013 1.96516,4.48036 1.96516,4.48036 l -0.56932,1.06969 c 0,0 4.40453,5.74332 8.45298,4.06451 0.0385,0.001 4.57195,1.31077 5.90143,4.18904 1.32947,2.8783 6.66792,2.54857 6.66792,2.54857 0,0 8.57651,5.5366 12.79843,5.54709 3.77317,2.266 13.45462,4.99581 18.85107,18.31216 5.39651,13.31638 10.22336,28.06527 14.5538,28.65616 -0.0795,-0.0393 6.04155,12.83994 6.04155,12.83994 0,0 5.0151,13.04583 19.01267,11.05563 2.23354,9.69126 -2.34599,11.19435 -0.29653,14.57753 5.40066,8.91516 1.35035,21.58224 2.21351,25.67913 1.98877,9.43955 -0.29212,14.61207 -0.40845,14.60347 -2.47755,-0.28916 -5.16535,6.31083 -5.21943,6.36548 l 16.1535,-0.0548 c 0.69599,-2.74273 2.53191,-6.63584 2.08749,-8.22835 -4.25463,-12.63825 1.12139,-41.18548 0.78724,-40.64361 1.95316,-10.20133 -0.0456,-15.9302 0.35211,-15.5249 0.98302,-0.4286 1.59275,-1.59309 1.95109,-2.55894 4.13651,-1.66029 8.43375,-3.62376 11.05712,-5.53969 0.0106,-0.11424 12.04695,1.32014 29.46147,1.01542 11.30301,-0.0295 44.89406,-4.29835 55.89026,-9.85978 0.19794,0.0682 6.52001,7.16995 4.96147,17.08606 -0.1295,0.25988 1.75466,14.40994 2.61084,17.32995 0.0494,-0.1153 -0.19571,15.43817 -0.19571,15.43817 0,0 -9.80966,12.06015 -9.18239,19.76657 -0.003,-0.0332 -2.21276,4.1164 -2.21276,4.1164 -1.84673,-1.0521 -4.59405,2.45712 -7.67534,7.65756 l 14.73691,-0.0548 c 0,0 0.80645,-5.95001 4.5797,-10.6309 0,0 16.17267,-27.84408 20.31809,-43.21145 2.97707,-11.03621 -8.6532,-17.06011 2.99483,-34.16173 -0.23201,-0.001 13.56075,-30.92954 12.76432,-37.22922 0.0766,0.36642 1.04824,4.33555 0.83025,8.64942 -0.0228,5.81838 -2.05486,40.38191 -2.05486,40.38191 0,0 -0.1023,0.79402 -0.19127,1.87919 -0.81974,2.76033 -1.80021,7.55264 -0.81245,13.17203 0.17663,2.74004 -1.14573,8.03181 1.3536,13.51229 3.73416,8.18817 -0.63666,17.81347 -0.58042,17.86442 10.06497,-13.06963 4.11068,-20.64302 5.47,-25.53607 1.35928,-4.89302 -0.52937,-10.99682 -1.42254,-13.08158 -0.65394,-1.52641 -0.17496,-6.03932 -0.17496,-6.03932 0.0215,-2.04243 0.15633,-4.71934 0.59008,-9.38253 1.47916,-15.90241 3.01335,-43.22703 3.01335,-43.22703 -0.0172,0.0451 4.22831,-27.61715 -34.43305,-27.9586 -46.66401,-5.51795 -38.34002,2.51636 -68.27497,0.12326 -0.13756,0.19059 -22.74284,-2.25827 -29.85696,-0.27463 -0.23216,0.11477 -30.12083,-0.34598 -33.99834,-1.44825 -0.11902,0.0787 -29.45611,-4.20503 -37.68511,-12.38924 3e-4,0.13542 3.40385,-5.69179 -1.81544,-9.38254 -1.30478,-0.92267 -2.56836,-1.24409 -3.73017,-1.20832 z"
           sodipodi:nodetypes="cccccccccsccscccssccccccccccccccccccsccccccscsscsccccccscc" /></g><g
         id="g393"
         transform="matrix(1.4978519,0,0,1.4978519,-153.22191,24.94348)"><g
           id="g363"><path
             style="fill:none;fill-opacity:1;stroke:#ae7e1e;stroke-width:0.342328;stroke-linecap:round;stroke-linejoin:round;stroke-opacity:1"
             d="m 396.53219,224.4958 c 0,0 -9.43246,-1.79753 -14.37485,-14.84425"
             id="path333" /><g
             id="g362"
             style="fill:#ae7e1e;fill-opacity:1"
             transform="matrix(-0.34232834,0,0,0.34232834,537.99961,148.95269)"><path
               style="fill:#ae7e1e;fill-opacity:1;stroke:none;stroke-width:1.17493;stroke-linecap:round;stroke-linejoin:round;stroke-opacity:1"
               d="m 415.23328,220.29084 c 0,0 5.15647,-2.6067 9.92749,1.13834 -0.0113,-0.007 -5.85762,2.64344 -9.92749,-1.13834 z"
               id="path334" /><path
               style="fill:#ae7e1e;fill-opacity:1;stroke:none;stroke-width:1.17493;stroke-linecap:round;stroke-linejoin:round;stroke-opacity:1"
               d="m 419.54904,218.80826 c 0,0 5.03154,-2.84035 9.96924,0.68203 -0.0116,-0.006 -5.73028,2.9092 -9.96924,-0.68203 z"
               id="path335" /><path
               style="fill:#ae7e1e;fill-opacity:1;stroke:none;stroke-width:1.17493;stroke-linecap:round;stroke-linejoin:round;stroke-opacity:1"
               d="m 423.09264,216.58058 c 0,0 5.03154,-2.84035 9.96924,0.68203 -0.0116,-0.006 -5.73028,2.9092 -9.96924,-0.68203 z"
               id="path336" /><path
               style="fill:#ae7e1e;fill-opacity:1;stroke:none;stroke-width:1.17493;stroke-linecap:round;stroke-linejoin:round;stroke-opacity:1"
               d="m 426.97368,214.51779 c 0,0 5.03154,-2.84035 9.96924,0.68203 -0.0116,-0.006 -5.73028,2.9092 -9.96924,-0.68203 z"
               id="path337" /><path
               style="fill:#ae7e1e;fill-opacity:1;stroke:none;stroke-width:1.17493;stroke-linecap:round;stroke-linejoin:round;stroke-opacity:1"
               d="m 429.59211,212.58644 c 0,0 4.67953,-3.38909 9.98261,-0.44539 -0.0122,-0.005 -5.36607,3.53622 -9.98261,0.44539 z"
               id="path338" /><path
               style="fill:#ae7e1e;fill-opacity:1;stroke:none;stroke-width:1.17493;stroke-linecap:round;stroke-linejoin:round;stroke-opacity:1"
               d="m 433.01605,209.95549 c 0,0 4.67953,-3.38909 9.98261,-0.44539 -0.0122,-0.005 -5.36607,3.53622 -9.98261,0.44539 z"
               id="path339" /><path
               style="fill:#ae7e1e;fill-opacity:1;stroke:none;stroke-width:1.17493;stroke-linecap:round;stroke-linejoin:round;stroke-opacity:1"
               d="m 435.70062,207.20543 c 0,0 4.67953,-3.38909 9.98261,-0.44539 -0.0122,-0.005 -5.36607,3.53622 -9.98261,0.44539 z"
               id="path340" /><path
               style="fill:#ae7e1e;fill-opacity:1;stroke:none;stroke-width:1.17493;stroke-linecap:round;stroke-linejoin:round;stroke-opacity:1"
               d="m 438.28839,204.98781 c 0,0 4.12919,-4.04151 9.80807,-1.91119 -0.0128,-0.004 -4.78655,4.28818 -9.80807,1.91119 z"
               id="path341" /><path
               style="fill:#ae7e1e;fill-opacity:1;stroke:none;stroke-width:1.17493;stroke-linecap:round;stroke-linejoin:round;stroke-opacity:1"
               d="m 441.67185,201.77592 c 0,0 4.12919,-4.04151 9.80807,-1.91119 -0.0128,-0.004 -4.78655,4.28818 -9.80807,1.91119 z"
               id="path342" /><path
               style="fill:#ae7e1e;fill-opacity:1;stroke:none;stroke-width:1.17493;stroke-linecap:round;stroke-linejoin:round;stroke-opacity:1"
               d="m 444.18899,198.52756 c 0,0 4.12919,-4.04151 9.80807,-1.91119 -0.0128,-0.004 -4.78655,4.28818 -9.80807,1.91119 z"
               id="path343" /><path
               style="fill:#ae7e1e;fill-opacity:1;stroke:none;stroke-width:1.17493;stroke-linecap:round;stroke-linejoin:round;stroke-opacity:1"
               d="m 445.86659,196.27526 c 0,0 3.2298,-4.79086 9.22153,-3.84894 -0.0134,-0.001 -3.82396,5.16497 -9.22153,3.84894 z"
               id="path344" /><path
               style="fill:#ae7e1e;fill-opacity:1;stroke:none;stroke-width:1.17493;stroke-linecap:round;stroke-linejoin:round;stroke-opacity:1"
               d="m 447.93596,192.6577 c 0,0 3.2298,-4.79086 9.22153,-3.84894 -0.0134,-0.001 -3.82396,5.16497 -9.22153,3.84894 z"
               id="path345" /><path
               style="fill:#ae7e1e;fill-opacity:1;stroke:none;stroke-width:1.17493;stroke-linecap:round;stroke-linejoin:round;stroke-opacity:1"
               d="m 450.07012,189.12334 c 0,0 3.2298,-4.79086 9.22153,-3.84894 -0.0134,-0.001 -3.82396,5.16497 -9.22153,3.84894 z"
               id="path346" /><path
               style="fill:#ae7e1e;fill-opacity:1;stroke:none;stroke-width:1.17493;stroke-linecap:round;stroke-linejoin:round;stroke-opacity:1"
               d="m 451.43502,186.67704 c 0,0 1.79295,-5.49266 7.81339,-6.22912 -0.0132,0.003 -2.26181,6.0153 -7.81339,6.22912 z"
               id="path347" /><path
               style="fill:#ae7e1e;fill-opacity:1;stroke:none;stroke-width:1.17493;stroke-linecap:round;stroke-linejoin:round;stroke-opacity:1"
               d="m 453.18731,183.03445 c 0,0 0.5356,-5.753 6.24472,-7.80092 -0.0121,0.005 -0.87745,6.3663 -6.24472,7.80092 z"
               id="path348" /><path
               style="fill:#ae7e1e;fill-opacity:1;stroke:none;stroke-width:0.982909;stroke-linecap:round;stroke-linejoin:round;stroke-opacity:1"
               d="m 415.24759,220.03884 c 0,0 -0.75543,-4.57661 3.8966,-5.80708 -0.008,0.004 0.58203,5.04391 -3.8966,5.80708 z"
               id="path349" /><path
               style="fill:#ae7e1e;fill-opacity:1;stroke:none;stroke-width:0.982909;stroke-linecap:round;stroke-linejoin:round;stroke-opacity:1"
               d="m 419.23794,218.20753 c 0,0 -0.98056,-4.53371 3.605,-5.99246 -0.009,0.005 0.83045,5.00903 -3.605,5.99246 z"
               id="path350" /><path
               style="fill:#ae7e1e;fill-opacity:1;stroke:none;stroke-width:0.982909;stroke-linecap:round;stroke-linejoin:round;stroke-opacity:1"
               d="m 423.07806,216.2995 c 0,0 -1.35523,-4.43615 3.09271,-6.27223 -0.008,0.007 1.24528,4.92232 -3.09271,6.27223 z"
               id="path351" /><path
               style="fill:#ae7e1e;fill-opacity:1;stroke:none;stroke-width:0.982909;stroke-linecap:round;stroke-linejoin:round;stroke-opacity:1"
               d="m 427.03225,214.53027 c 0,0 -2.50284,-3.90537 1.28405,-6.87437 -0.007,0.008 2.52824,4.40316 -1.28405,6.87437 z"
               id="path352" /><path
               style="fill:#ae7e1e;fill-opacity:1;stroke:none;stroke-width:0.982909;stroke-linecap:round;stroke-linejoin:round;stroke-opacity:1"
               d="m 430.01421,212.30337 c 0,0 -2.53212,-3.88646 1.23235,-6.88382 -0.006,0.009 2.56126,4.38404 -1.23235,6.88382 z"
               id="path353" /><path
               style="fill:#ae7e1e;fill-opacity:1;stroke:none;stroke-width:0.982909;stroke-linecap:round;stroke-linejoin:round;stroke-opacity:1"
               d="m 433.20063,210.00426 c 0,0 -2.75802,-3.72954 0.82216,-6.94477 -0.006,0.009 2.81662,4.22451 -0.82216,6.94477 z"
               id="path354" /><path
               style="fill:#ae7e1e;fill-opacity:1;stroke:none;stroke-width:0.982909;stroke-linecap:round;stroke-linejoin:round;stroke-opacity:1"
               d="m 435.86626,207.55545 c 0,0 -2.80436,-3.69482 0.73541,-6.95449 -0.006,0.009 2.86913,4.18902 -0.73541,6.95449 z"
               id="path355" /><path
               style="fill:#ae7e1e;fill-opacity:1;stroke:none;stroke-width:0.982909;stroke-linecap:round;stroke-linejoin:round;stroke-opacity:1"
               d="m 440.8563,201.43011 c 0,0 -2.38545,-3.97817 1.48815,-6.8331 -0.007,0.008 2.39603,4.47648 -1.48815,6.8331 z"
               id="path356" /><path
               style="fill:#ae7e1e;fill-opacity:1;stroke:none;stroke-width:0.982909;stroke-linecap:round;stroke-linejoin:round;stroke-opacity:1"
               d="m 438.37123,204.74814 c 0,0 -2.80436,-3.69483 0.73541,-6.9545 -0.006,0.009 2.86913,4.18903 -0.73541,6.9545 z"
               id="path357" /><path
               style="fill:#ae7e1e;fill-opacity:1;stroke:none;stroke-width:0.982909;stroke-linecap:round;stroke-linejoin:round;stroke-opacity:1"
               d="m 443.5311,198.3154 c 0,0 -2.38545,-3.97817 1.48815,-6.8331 -0.007,0.008 2.39603,4.47648 -1.48815,6.8331 z"
               id="path358" /><path
               style="fill:#ae7e1e;fill-opacity:1;stroke:none;stroke-width:0.982909;stroke-linecap:round;stroke-linejoin:round;stroke-opacity:1"
               d="m 446.20978,194.38903 c 0,0 -2.38545,-3.97817 1.48815,-6.8331 -0.007,0.008 2.39603,4.47648 -1.48815,6.8331 z"
               id="path359" /><path
               style="fill:#ae7e1e;fill-opacity:1;stroke:none;stroke-width:0.982909;stroke-linecap:round;stroke-linejoin:round;stroke-opacity:1"
               d="m 448.90532,189.98425 c 0,0 -2.97386,-3.55983 0.40982,-6.98125 -0.006,0.009 3.06163,4.05046 -0.40982,6.98125 z"
               id="path360" /><path
               style="fill:#ae7e1e;fill-opacity:1;stroke:none;stroke-width:0.982909;stroke-linecap:round;stroke-linejoin:round;stroke-opacity:1"
               d="m 450.86878,185.99674 c 0,0 -2.97386,-3.55983 0.40982,-6.98125 -0.006,0.009 3.06163,4.05046 -0.40982,6.98125 z"
               id="path361" /><path
               style="fill:#ae7e1e;fill-opacity:1;stroke:none;stroke-width:0.982909;stroke-linecap:round;stroke-linejoin:round;stroke-opacity:1"
               d="m 452.81879,182.10736 c 0,0 -2.96264,-3.56917 0.43178,-6.97992 -0.006,0.01 3.04888,4.06008 -0.43178,6.97992 z"
               id="path362" /></g></g><g
           id="g392"><g
             id="g391"
             style="fill:#cb9323;fill-opacity:1"
             transform="matrix(0.34232834,0,0,0.34232834,239.42675,148.95269)"><path
               style="fill:#cb9323;fill-opacity:1;stroke:none;stroke-width:1.17493;stroke-linecap:round;stroke-linejoin:round;stroke-opacity:1"
               d="m 415.23328,220.29084 c 0,0 5.15647,-2.6067 9.92749,1.13834 -0.0113,-0.007 -5.85762,2.64344 -9.92749,-1.13834 z"
               id="path363" /><path
               style="fill:#cb9323;fill-opacity:1;stroke:none;stroke-width:1.17493;stroke-linecap:round;stroke-linejoin:round;stroke-opacity:1"
               d="m 419.54904,218.80826 c 0,0 5.03154,-2.84035 9.96924,0.68203 -0.0116,-0.006 -5.73028,2.9092 -9.96924,-0.68203 z"
               id="path364" /><path
               style="fill:#cb9323;fill-opacity:1;stroke:none;stroke-width:1.17493;stroke-linecap:round;stroke-linejoin:round;stroke-opacity:1"
               d="m 423.09264,216.58058 c 0,0 5.03154,-2.84035 9.96924,0.68203 -0.0116,-0.006 -5.73028,2.9092 -9.96924,-0.68203 z"
               id="path365" /><path
               style="fill:#cb9323;fill-opacity:1;stroke:none;stroke-width:1.17493;stroke-linecap:round;stroke-linejoin:round;stroke-opacity:1"
               d="m 426.97368,214.51779 c 0,0 5.03154,-2.84035 9.96924,0.68203 -0.0116,-0.006 -5.73028,2.9092 -9.96924,-0.68203 z"
               id="path366" /><path
               style="fill:#cb9323;fill-opacity:1;stroke:none;stroke-width:1.17493;stroke-linecap:round;stroke-linejoin:round;stroke-opacity:1"
               d="m 429.59211,212.58644 c 0,0 4.67953,-3.38909 9.98261,-0.44539 -0.0122,-0.005 -5.36607,3.53622 -9.98261,0.44539 z"
               id="path367" /><path
               style="fill:#cb9323;fill-opacity:1;stroke:none;stroke-width:1.17493;stroke-linecap:round;stroke-linejoin:round;stroke-opacity:1"
               d="m 433.01605,209.95549 c 0,0 4.67953,-3.38909 9.98261,-0.44539 -0.0122,-0.005 -5.36607,3.53622 -9.98261,0.44539 z"
               id="path368" /><path
               style="fill:#cb9323;fill-opacity:1;stroke:none;stroke-width:1.17493;stroke-linecap:round;stroke-linejoin:round;stroke-opacity:1"
               d="m 435.70062,207.20543 c 0,0 4.67953,-3.38909 9.98261,-0.44539 -0.0122,-0.005 -5.36607,3.53622 -9.98261,0.44539 z"
               id="path369" /><path
               style="fill:#cb9323;fill-opacity:1;stroke:none;stroke-width:1.17493;stroke-linecap:round;stroke-linejoin:round;stroke-opacity:1"
               d="m 438.28839,204.98781 c 0,0 4.12919,-4.04151 9.80807,-1.91119 -0.0128,-0.004 -4.78655,4.28818 -9.80807,1.91119 z"
               id="path370" /><path
               style="fill:#cb9323;fill-opacity:1;stroke:none;stroke-width:1.17493;stroke-linecap:round;stroke-linejoin:round;stroke-opacity:1"
               d="m 441.67185,201.77592 c 0,0 4.12919,-4.04151 9.80807,-1.91119 -0.0128,-0.004 -4.78655,4.28818 -9.80807,1.91119 z"
               id="path371" /><path
               style="fill:#cb9323;fill-opacity:1;stroke:none;stroke-width:1.17493;stroke-linecap:round;stroke-linejoin:round;stroke-opacity:1"
               d="m 444.18899,198.52756 c 0,0 4.12919,-4.04151 9.80807,-1.91119 -0.0128,-0.004 -4.78655,4.28818 -9.80807,1.91119 z"
               id="path372" /><path
               style="fill:#cb9323;fill-opacity:1;stroke:none;stroke-width:1.17493;stroke-linecap:round;stroke-linejoin:round;stroke-opacity:1"
               d="m 445.86659,196.27526 c 0,0 3.2298,-4.79086 9.22153,-3.84894 -0.0134,-0.001 -3.82396,5.16497 -9.22153,3.84894 z"
               id="path373" /><path
               style="fill:#cb9323;fill-opacity:1;stroke:none;stroke-width:1.17493;stroke-linecap:round;stroke-linejoin:round;stroke-opacity:1"
               d="m 447.93596,192.6577 c 0,0 3.2298,-4.79086 9.22153,-3.84894 -0.0134,-0.001 -3.82396,5.16497 -9.22153,3.84894 z"
               id="path374" /><path
               style="fill:#cb9323;fill-opacity:1;stroke:none;stroke-width:1.17493;stroke-linecap:round;stroke-linejoin:round;stroke-opacity:1"
               d="m 450.07012,189.12334 c 0,0 3.2298,-4.79086 9.22153,-3.84894 -0.0134,-0.001 -3.82396,5.16497 -9.22153,3.84894 z"
               id="path375" /><path
               style="fill:#cb9323;fill-opacity:1;stroke:none;stroke-width:1.17493;stroke-linecap:round;stroke-linejoin:round;stroke-opacity:1"
               d="m 451.43502,186.67704 c 0,0 1.79295,-5.49266 7.81339,-6.22912 -0.0132,0.003 -2.26181,6.0153 -7.81339,6.22912 z"
               id="path376" /><path
               style="fill:#cb9323;fill-opacity:1;stroke:none;stroke-width:1.17493;stroke-linecap:round;stroke-linejoin:round;stroke-opacity:1"
               d="m 453.18731,183.03445 c 0,0 0.5356,-5.753 6.24472,-7.80092 -0.0121,0.005 -0.87745,6.3663 -6.24472,7.80092 z"
               id="path377" /><path
               style="fill:#cb9323;fill-opacity:1;stroke:none;stroke-width:0.982909;stroke-linecap:round;stroke-linejoin:round;stroke-opacity:1"
               d="m 415.24759,220.03884 c 0,0 -0.75543,-4.57661 3.8966,-5.80708 -0.008,0.004 0.58203,5.04391 -3.8966,5.80708 z"
               id="path378" /><path
               style="fill:#cb9323;fill-opacity:1;stroke:none;stroke-width:0.982909;stroke-linecap:round;stroke-linejoin:round;stroke-opacity:1"
               d="m 419.23794,218.20753 c 0,0 -0.98056,-4.53371 3.605,-5.99246 -0.009,0.005 0.83045,5.00903 -3.605,5.99246 z"
               id="path379" /><path
               style="fill:#cb9323;fill-opacity:1;stroke:none;stroke-width:0.982909;stroke-linecap:round;stroke-linejoin:round;stroke-opacity:1"
               d="m 423.07806,216.2995 c 0,0 -1.35523,-4.43615 3.09271,-6.27223 -0.008,0.007 1.24528,4.92232 -3.09271,6.27223 z"
               id="path380" /><path
               style="fill:#cb9323;fill-opacity:1;stroke:none;stroke-width:0.982909;stroke-linecap:round;stroke-linejoin:round;stroke-opacity:1"
               d="m 427.03225,214.53027 c 0,0 -2.50284,-3.90537 1.28405,-6.87437 -0.007,0.008 2.52824,4.40316 -1.28405,6.87437 z"
               id="path381" /><path
               style="fill:#cb9323;fill-opacity:1;stroke:none;stroke-width:0.982909;stroke-linecap:round;stroke-linejoin:round;stroke-opacity:1"
               d="m 430.01421,212.30337 c 0,0 -2.53212,-3.88646 1.23235,-6.88382 -0.006,0.009 2.56126,4.38404 -1.23235,6.88382 z"
               id="path382" /><path
               style="fill:#cb9323;fill-opacity:1;stroke:none;stroke-width:0.982909;stroke-linecap:round;stroke-linejoin:round;stroke-opacity:1"
               d="m 433.20063,210.00426 c 0,0 -2.75802,-3.72954 0.82216,-6.94477 -0.006,0.009 2.81662,4.22451 -0.82216,6.94477 z"
               id="path383" /><path
               style="fill:#cb9323;fill-opacity:1;stroke:none;stroke-width:0.982909;stroke-linecap:round;stroke-linejoin:round;stroke-opacity:1"
               d="m 435.86626,207.55545 c 0,0 -2.80436,-3.69482 0.73541,-6.95449 -0.006,0.009 2.86913,4.18902 -0.73541,6.95449 z"
               id="path384" /><path
               style="fill:#cb9323;fill-opacity:1;stroke:none;stroke-width:0.982909;stroke-linecap:round;stroke-linejoin:round;stroke-opacity:1"
               d="m 440.8563,201.43011 c 0,0 -2.38545,-3.97817 1.48815,-6.8331 -0.007,0.008 2.39603,4.47648 -1.48815,6.8331 z"
               id="path385" /><path
               style="fill:#cb9323;fill-opacity:1;stroke:none;stroke-width:0.982909;stroke-linecap:round;stroke-linejoin:round;stroke-opacity:1"
               d="m 438.37123,204.74814 c 0,0 -2.80436,-3.69483 0.73541,-6.9545 -0.006,0.009 2.86913,4.18903 -0.73541,6.9545 z"
               id="path386" /><path
               style="fill:#cb9323;fill-opacity:1;stroke:none;stroke-width:0.982909;stroke-linecap:round;stroke-linejoin:round;stroke-opacity:1"
               d="m 443.5311,198.3154 c 0,0 -2.38545,-3.97817 1.48815,-6.8331 -0.007,0.008 2.39603,4.47648 -1.48815,6.8331 z"
               id="path387" /><path
               style="fill:#cb9323;fill-opacity:1;stroke:none;stroke-width:0.982909;stroke-linecap:round;stroke-linejoin:round;stroke-opacity:1"
               d="m 446.20978,194.38903 c 0,0 -2.38545,-3.97817 1.48815,-6.8331 -0.007,0.008 2.39603,4.47648 -1.48815,6.8331 z"
               id="path388" /><path
               style="fill:#cb9323;fill-opacity:1;stroke:none;stroke-width:0.982909;stroke-linecap:round;stroke-linejoin:round;stroke-opacity:1"
               d="m 448.90532,189.98425 c 0,0 -2.97386,-3.55983 0.40982,-6.98125 -0.006,0.009 3.06163,4.05046 -0.40982,6.98125 z"
               id="path389" /><path
               style="fill:#cb9323;fill-opacity:1;stroke:none;stroke-width:0.982909;stroke-linecap:round;stroke-linejoin:round;stroke-opacity:1"
               d="m 450.86878,185.99674 c 0,0 -2.97386,-3.55983 0.40982,-6.98125 -0.006,0.009 3.06163,4.05046 -0.40982,6.98125 z"
               id="path390" /><path
               style="fill:#cb9323;fill-opacity:1;stroke:none;stroke-width:0.982909;stroke-linecap:round;stroke-linejoin:round;stroke-opacity:1"
               d="m 452.81879,182.10736 c 0,0 -2.96264,-3.56917 0.43178,-6.97992 -0.006,0.01 3.04888,4.06008 -0.43178,6.97992 z"
               id="path391" /></g><path
             style="fill:none;fill-opacity:1;stroke:#cb9323;stroke-width:0.342328;stroke-linecap:round;stroke-linejoin:round;stroke-opacity:1"
             d="m 380.89417,224.4958 c 0,0 9.43246,-1.79753 14.37485,-14.84425"
             id="path392" /></g></g><text
         xml:space="preserve"
         style="font-style:normal;font-variant:normal;font-weight:normal;font-stretch:normal;font-size:17.5544px;line-height:1;font-family:'TeX Gyre DejaVu Math';-inkscape-font-specification:'TeX Gyre DejaVu Math';letter-spacing:0px;word-spacing:0px;opacity:1;fill:#ae7e1e;fill-opacity:1;stroke:#ae7e1e;stroke-width:1.55501;stroke-linecap:round;stroke-linejoin:round;stroke-dasharray:none;stroke-opacity:1"
         x="144.42198"
         y="357.38135"
         id="text573"><tspan
           sodipodi:role="line"
           id="tspan573"
           style="stroke-width:1.55501"
           x="144.42198"
           y="357.38135">PETER PARTINSON FARM</tspan></text><g
         id="g633"
         transform="matrix(1.4978519,0,0,1.4978519,-478.06463,24.94348)"><g
           id="g603"><path
             style="fill:none;fill-opacity:1;stroke:#ae7e1e;stroke-width:0.342328;stroke-linecap:round;stroke-linejoin:round;stroke-opacity:1"
             d="m 396.53219,224.4958 c 0,0 -9.43246,-1.79753 -14.37485,-14.84425"
             id="path573" /><g
             id="g602"
             style="fill:#ae7e1e;fill-opacity:1"
             transform="matrix(-0.34232834,0,0,0.34232834,537.99961,148.95269)"><path
               style="fill:#ae7e1e;fill-opacity:1;stroke:none;stroke-width:1.17493;stroke-linecap:round;stroke-linejoin:round;stroke-opacity:1"
               d="m 415.23328,220.29084 c 0,0 5.15647,-2.6067 9.92749,1.13834 -0.0113,-0.007 -5.85762,2.64344 -9.92749,-1.13834 z"
               id="path574" /><path
               style="fill:#ae7e1e;fill-opacity:1;stroke:none;stroke-width:1.17493;stroke-linecap:round;stroke-linejoin:round;stroke-opacity:1"
               d="m 419.54904,218.80826 c 0,0 5.03154,-2.84035 9.96924,0.68203 -0.0116,-0.006 -5.73028,2.9092 -9.96924,-0.68203 z"
               id="path575" /><path
               style="fill:#ae7e1e;fill-opacity:1;stroke:none;stroke-width:1.17493;stroke-linecap:round;stroke-linejoin:round;stroke-opacity:1"
               d="m 423.09264,216.58058 c 0,0 5.03154,-2.84035 9.96924,0.68203 -0.0116,-0.006 -5.73028,2.9092 -9.96924,-0.68203 z"
               id="path576" /><path
               style="fill:#ae7e1e;fill-opacity:1;stroke:none;stroke-width:1.17493;stroke-linecap:round;stroke-linejoin:round;stroke-opacity:1"
               d="m 426.97368,214.51779 c 0,0 5.03154,-2.84035 9.96924,0.68203 -0.0116,-0.006 -5.73028,2.9092 -9.96924,-0.68203 z"
               id="path577" /><path
               style="fill:#ae7e1e;fill-opacity:1;stroke:none;stroke-width:1.17493;stroke-linecap:round;stroke-linejoin:round;stroke-opacity:1"
               d="m 429.59211,212.58644 c 0,0 4.67953,-3.38909 9.98261,-0.44539 -0.0122,-0.005 -5.36607,3.53622 -9.98261,0.44539 z"
               id="path578" /><path
               style="fill:#ae7e1e;fill-opacity:1;stroke:none;stroke-width:1.17493;stroke-linecap:round;stroke-linejoin:round;stroke-opacity:1"
               d="m 433.01605,209.95549 c 0,0 4.67953,-3.38909 9.98261,-0.44539 -0.0122,-0.005 -5.36607,3.53622 -9.98261,0.44539 z"
               id="path579" /><path
               style="fill:#ae7e1e;fill-opacity:1;stroke:none;stroke-width:1.17493;stroke-linecap:round;stroke-linejoin:round;stroke-opacity:1"
               d="m 435.70062,207.20543 c 0,0 4.67953,-3.38909 9.98261,-0.44539 -0.0122,-0.005 -5.36607,3.53622 -9.98261,0.44539 z"
               id="path580" /><path
               style="fill:#ae7e1e;fill-opacity:1;stroke:none;stroke-width:1.17493;stroke-linecap:round;stroke-linejoin:round;stroke-opacity:1"
               d="m 438.28839,204.98781 c 0,0 4.12919,-4.04151 9.80807,-1.91119 -0.0128,-0.004 -4.78655,4.28818 -9.80807,1.91119 z"
               id="path581" /><path
               style="fill:#ae7e1e;fill-opacity:1;stroke:none;stroke-width:1.17493;stroke-linecap:round;stroke-linejoin:round;stroke-opacity:1"
               d="m 441.67185,201.77592 c 0,0 4.12919,-4.04151 9.80807,-1.91119 -0.0128,-0.004 -4.78655,4.28818 -9.80807,1.91119 z"
               id="path582" /><path
               style="fill:#ae7e1e;fill-opacity:1;stroke:none;stroke-width:1.17493;stroke-linecap:round;stroke-linejoin:round;stroke-opacity:1"
               d="m 444.18899,198.52756 c 0,0 4.12919,-4.04151 9.80807,-1.91119 -0.0128,-0.004 -4.78655,4.28818 -9.80807,1.91119 z"
               id="path583" /><path
               style="fill:#ae7e1e;fill-opacity:1;stroke:none;stroke-width:1.17493;stroke-linecap:round;stroke-linejoin:round;stroke-opacity:1"
               d="m 445.86659,196.27526 c 0,0 3.2298,-4.79086 9.22153,-3.84894 -0.0134,-0.001 -3.82396,5.16497 -9.22153,3.84894 z"
               id="path584" /><path
               style="fill:#ae7e1e;fill-opacity:1;stroke:none;stroke-width:1.17493;stroke-linecap:round;stroke-linejoin:round;stroke-opacity:1"
               d="m 447.93596,192.6577 c 0,0 3.2298,-4.79086 9.22153,-3.84894 -0.0134,-0.001 -3.82396,5.16497 -9.22153,3.84894 z"
               id="path585" /><path
               style="fill:#ae7e1e;fill-opacity:1;stroke:none;stroke-width:1.17493;stroke-linecap:round;stroke-linejoin:round;stroke-opacity:1"
               d="m 450.07012,189.12334 c 0,0 3.2298,-4.79086 9.22153,-3.84894 -0.0134,-0.001 -3.82396,5.16497 -9.22153,3.84894 z"
               id="path586" /><path
               style="fill:#ae7e1e;fill-opacity:1;stroke:none;stroke-width:1.17493;stroke-linecap:round;stroke-linejoin:round;stroke-opacity:1"
               d="m 451.43502,186.67704 c 0,0 1.79295,-5.49266 7.81339,-6.22912 -0.0132,0.003 -2.26181,6.0153 -7.81339,6.22912 z"
               id="path587" /><path
               style="fill:#ae7e1e;fill-opacity:1;stroke:none;stroke-width:1.17493;stroke-linecap:round;stroke-linejoin:round;stroke-opacity:1"
               d="m 453.18731,183.03445 c 0,0 0.5356,-5.753 6.24472,-7.80092 -0.0121,0.005 -0.87745,6.3663 -6.24472,7.80092 z"
               id="path588" /><path
               style="fill:#ae7e1e;fill-opacity:1;stroke:none;stroke-width:0.982909;stroke-linecap:round;stroke-linejoin:round;stroke-opacity:1"
               d="m 415.24759,220.03884 c 0,0 -0.75543,-4.57661 3.8966,-5.80708 -0.008,0.004 0.58203,5.04391 -3.8966,5.80708 z"
               id="path589" /><path
               style="fill:#ae7e1e;fill-opacity:1;stroke:none;stroke-width:0.982909;stroke-linecap:round;stroke-linejoin:round;stroke-opacity:1"
               d="m 419.23794,218.20753 c 0,0 -0.98056,-4.53371 3.605,-5.99246 -0.009,0.005 0.83045,5.00903 -3.605,5.99246 z"
               id="path590" /><path
               style="fill:#ae7e1e;fill-opacity:1;stroke:none;stroke-width:0.982909;stroke-linecap:round;stroke-linejoin:round;stroke-opacity:1"
               d="m 423.07806,216.2995 c 0,0 -1.35523,-4.43615 3.09271,-6.27223 -0.008,0.007 1.24528,4.92232 -3.09271,6.27223 z"
               id="path591" /><path
               style="fill:#ae7e1e;fill-opacity:1;stroke:none;stroke-width:0.982909;stroke-linecap:round;stroke-linejoin:round;stroke-opacity:1"
               d="m 427.03225,214.53027 c 0,0 -2.50284,-3.90537 1.28405,-6.87437 -0.007,0.008 2.52824,4.40316 -1.28405,6.87437 z"
               id="path592" /><path
               style="fill:#ae7e1e;fill-opacity:1;stroke:none;stroke-width:0.982909;stroke-linecap:round;stroke-linejoin:round;stroke-opacity:1"
               d="m 430.01421,212.30337 c 0,0 -2.53212,-3.88646 1.23235,-6.88382 -0.006,0.009 2.56126,4.38404 -1.23235,6.88382 z"
               id="path593" /><path
               style="fill:#ae7e1e;fill-opacity:1;stroke:none;stroke-width:0.982909;stroke-linecap:round;stroke-linejoin:round;stroke-opacity:1"
               d="m 433.20063,210.00426 c 0,0 -2.75802,-3.72954 0.82216,-6.94477 -0.006,0.009 2.81662,4.22451 -0.82216,6.94477 z"
               id="path594" /><path
               style="fill:#ae7e1e;fill-opacity:1;stroke:none;stroke-width:0.982909;stroke-linecap:round;stroke-linejoin:round;stroke-opacity:1"
               d="m 435.86626,207.55545 c 0,0 -2.80436,-3.69482 0.73541,-6.95449 -0.006,0.009 2.86913,4.18902 -0.73541,6.95449 z"
               id="path595" /><path
               style="fill:#ae7e1e;fill-opacity:1;stroke:none;stroke-width:0.982909;stroke-linecap:round;stroke-linejoin:round;stroke-opacity:1"
               d="m 440.8563,201.43011 c 0,0 -2.38545,-3.97817 1.48815,-6.8331 -0.007,0.008 2.39603,4.47648 -1.48815,6.8331 z"
               id="path596" /><path
               style="fill:#ae7e1e;fill-opacity:1;stroke:none;stroke-width:0.982909;stroke-linecap:round;stroke-linejoin:round;stroke-opacity:1"
               d="m 438.37123,204.74814 c 0,0 -2.80436,-3.69483 0.73541,-6.9545 -0.006,0.009 2.86913,4.18903 -0.73541,6.9545 z"
               id="path597" /><path
               style="fill:#ae7e1e;fill-opacity:1;stroke:none;stroke-width:0.982909;stroke-linecap:round;stroke-linejoin:round;stroke-opacity:1"
               d="m 443.5311,198.3154 c 0,0 -2.38545,-3.97817 1.48815,-6.8331 -0.007,0.008 2.39603,4.47648 -1.48815,6.8331 z"
               id="path598" /><path
               style="fill:#ae7e1e;fill-opacity:1;stroke:none;stroke-width:0.982909;stroke-linecap:round;stroke-linejoin:round;stroke-opacity:1"
               d="m 446.20978,194.38903 c 0,0 -2.38545,-3.97817 1.48815,-6.8331 -0.007,0.008 2.39603,4.47648 -1.48815,6.8331 z"
               id="path599" /><path
               style="fill:#ae7e1e;fill-opacity:1;stroke:none;stroke-width:0.982909;stroke-linecap:round;stroke-linejoin:round;stroke-opacity:1"
               d="m 448.90532,189.98425 c 0,0 -2.97386,-3.55983 0.40982,-6.98125 -0.006,0.009 3.06163,4.05046 -0.40982,6.98125 z"
               id="path600" /><path
               style="fill:#ae7e1e;fill-opacity:1;stroke:none;stroke-width:0.982909;stroke-linecap:round;stroke-linejoin:round;stroke-opacity:1"
               d="m 450.86878,185.99674 c 0,0 -2.97386,-3.55983 0.40982,-6.98125 -0.006,0.009 3.06163,4.05046 -0.40982,6.98125 z"
               id="path601" /><path
               style="fill:#ae7e1e;fill-opacity:1;stroke:none;stroke-width:0.982909;stroke-linecap:round;stroke-linejoin:round;stroke-opacity:1"
               d="m 452.81879,182.10736 c 0,0 -2.96264,-3.56917 0.43178,-6.97992 -0.006,0.01 3.04888,4.06008 -0.43178,6.97992 z"
               id="path602" /></g></g><g
           id="g632"><g
             id="g631"
             style="fill:#cb9323;fill-opacity:1"
             transform="matrix(0.34232834,0,0,0.34232834,239.42675,148.95269)"><path
               style="fill:#cb9323;fill-opacity:1;stroke:none;stroke-width:1.17493;stroke-linecap:round;stroke-linejoin:round;stroke-opacity:1"
               d="m 415.23328,220.29084 c 0,0 5.15647,-2.6067 9.92749,1.13834 -0.0113,-0.007 -5.85762,2.64344 -9.92749,-1.13834 z"
               id="path603" /><path
               style="fill:#cb9323;fill-opacity:1;stroke:none;stroke-width:1.17493;stroke-linecap:round;stroke-linejoin:round;stroke-opacity:1"
               d="m 419.54904,218.80826 c 0,0 5.03154,-2.84035 9.96924,0.68203 -0.0116,-0.006 -5.73028,2.9092 -9.96924,-0.68203 z"
               id="path604" /><path
               style="fill:#cb9323;fill-opacity:1;stroke:none;stroke-width:1.17493;stroke-linecap:round;stroke-linejoin:round;stroke-opacity:1"
               d="m 423.09264,216.58058 c 0,0 5.03154,-2.84035 9.96924,0.68203 -0.0116,-0.006 -5.73028,2.9092 -9.96924,-0.68203 z"
               id="path605" /><path
               style="fill:#cb9323;fill-opacity:1;stroke:none;stroke-width:1.17493;stroke-linecap:round;stroke-linejoin:round;stroke-opacity:1"
               d="m 426.97368,214.51779 c 0,0 5.03154,-2.84035 9.96924,0.68203 -0.0116,-0.006 -5.73028,2.9092 -9.96924,-0.68203 z"
               id="path606" /><path
               style="fill:#cb9323;fill-opacity:1;stroke:none;stroke-width:1.17493;stroke-linecap:round;stroke-linejoin:round;stroke-opacity:1"
               d="m 429.59211,212.58644 c 0,0 4.67953,-3.38909 9.98261,-0.44539 -0.0122,-0.005 -5.36607,3.53622 -9.98261,0.44539 z"
               id="path607" /><path
               style="fill:#cb9323;fill-opacity:1;stroke:none;stroke-width:1.17493;stroke-linecap:round;stroke-linejoin:round;stroke-opacity:1"
               d="m 433.01605,209.95549 c 0,0 4.67953,-3.38909 9.98261,-0.44539 -0.0122,-0.005 -5.36607,3.53622 -9.98261,0.44539 z"
               id="path608" /><path
               style="fill:#cb9323;fill-opacity:1;stroke:none;stroke-width:1.17493;stroke-linecap:round;stroke-linejoin:round;stroke-opacity:1"
               d="m 435.70062,207.20543 c 0,0 4.67953,-3.38909 9.98261,-0.44539 -0.0122,-0.005 -5.36607,3.53622 -9.98261,0.44539 z"
               id="path609" /><path
               style="fill:#cb9323;fill-opacity:1;stroke:none;stroke-width:1.17493;stroke-linecap:round;stroke-linejoin:round;stroke-opacity:1"
               d="m 438.28839,204.98781 c 0,0 4.12919,-4.04151 9.80807,-1.91119 -0.0128,-0.004 -4.78655,4.28818 -9.80807,1.91119 z"
               id="path610" /><path
               style="fill:#cb9323;fill-opacity:1;stroke:none;stroke-width:1.17493;stroke-linecap:round;stroke-linejoin:round;stroke-opacity:1"
               d="m 441.67185,201.77592 c 0,0 4.12919,-4.04151 9.80807,-1.91119 -0.0128,-0.004 -4.78655,4.28818 -9.80807,1.91119 z"
               id="path611" /><path
               style="fill:#cb9323;fill-opacity:1;stroke:none;stroke-width:1.17493;stroke-linecap:round;stroke-linejoin:round;stroke-opacity:1"
               d="m 444.18899,198.52756 c 0,0 4.12919,-4.04151 9.80807,-1.91119 -0.0128,-0.004 -4.78655,4.28818 -9.80807,1.91119 z"
               id="path612" /><path
               style="fill:#cb9323;fill-opacity:1;stroke:none;stroke-width:1.17493;stroke-linecap:round;stroke-linejoin:round;stroke-opacity:1"
               d="m 445.86659,196.27526 c 0,0 3.2298,-4.79086 9.22153,-3.84894 -0.0134,-0.001 -3.82396,5.16497 -9.22153,3.84894 z"
               id="path613" /><path
               style="fill:#cb9323;fill-opacity:1;stroke:none;stroke-width:1.17493;stroke-linecap:round;stroke-linejoin:round;stroke-opacity:1"
               d="m 447.93596,192.6577 c 0,0 3.2298,-4.79086 9.22153,-3.84894 -0.0134,-0.001 -3.82396,5.16497 -9.22153,3.84894 z"
               id="path614" /><path
               style="fill:#cb9323;fill-opacity:1;stroke:none;stroke-width:1.17493;stroke-linecap:round;stroke-linejoin:round;stroke-opacity:1"
               d="m 450.07012,189.12334 c 0,0 3.2298,-4.79086 9.22153,-3.84894 -0.0134,-0.001 -3.82396,5.16497 -9.22153,3.84894 z"
               id="path615" /><path
               style="fill:#cb9323;fill-opacity:1;stroke:none;stroke-width:1.17493;stroke-linecap:round;stroke-linejoin:round;stroke-opacity:1"
               d="m 451.43502,186.67704 c 0,0 1.79295,-5.49266 7.81339,-6.22912 -0.0132,0.003 -2.26181,6.0153 -7.81339,6.22912 z"
               id="path616" /><path
               style="fill:#cb9323;fill-opacity:1;stroke:none;stroke-width:1.17493;stroke-linecap:round;stroke-linejoin:round;stroke-opacity:1"
               d="m 453.18731,183.03445 c 0,0 0.5356,-5.753 6.24472,-7.80092 -0.0121,0.005 -0.87745,6.3663 -6.24472,7.80092 z"
               id="path617" /><path
               style="fill:#cb9323;fill-opacity:1;stroke:none;stroke-width:0.982909;stroke-linecap:round;stroke-linejoin:round;stroke-opacity:1"
               d="m 415.24759,220.03884 c 0,0 -0.75543,-4.57661 3.8966,-5.80708 -0.008,0.004 0.58203,5.04391 -3.8966,5.80708 z"
               id="path618" /><path
               style="fill:#cb9323;fill-opacity:1;stroke:none;stroke-width:0.982909;stroke-linecap:round;stroke-linejoin:round;stroke-opacity:1"
               d="m 419.23794,218.20753 c 0,0 -0.98056,-4.53371 3.605,-5.99246 -0.009,0.005 0.83045,5.00903 -3.605,5.99246 z"
               id="path619" /><path
               style="fill:#cb9323;fill-opacity:1;stroke:none;stroke-width:0.982909;stroke-linecap:round;stroke-linejoin:round;stroke-opacity:1"
               d="m 423.07806,216.2995 c 0,0 -1.35523,-4.43615 3.09271,-6.27223 -0.008,0.007 1.24528,4.92232 -3.09271,6.27223 z"
               id="path620" /><path
               style="fill:#cb9323;fill-opacity:1;stroke:none;stroke-width:0.982909;stroke-linecap:round;stroke-linejoin:round;stroke-opacity:1"
               d="m 427.03225,214.53027 c 0,0 -2.50284,-3.90537 1.28405,-6.87437 -0.007,0.008 2.52824,4.40316 -1.28405,6.87437 z"
               id="path621" /><path
               style="fill:#cb9323;fill-opacity:1;stroke:none;stroke-width:0.982909;stroke-linecap:round;stroke-linejoin:round;stroke-opacity:1"
               d="m 430.01421,212.30337 c 0,0 -2.53212,-3.88646 1.23235,-6.88382 -0.006,0.009 2.56126,4.38404 -1.23235,6.88382 z"
               id="path622" /><path
               style="fill:#cb9323;fill-opacity:1;stroke:none;stroke-width:0.982909;stroke-linecap:round;stroke-linejoin:round;stroke-opacity:1"
               d="m 433.20063,210.00426 c 0,0 -2.75802,-3.72954 0.82216,-6.94477 -0.006,0.009 2.81662,4.22451 -0.82216,6.94477 z"
               id="path623" /><path
               style="fill:#cb9323;fill-opacity:1;stroke:none;stroke-width:0.982909;stroke-linecap:round;stroke-linejoin:round;stroke-opacity:1"
               d="m 435.86626,207.55545 c 0,0 -2.80436,-3.69482 0.73541,-6.95449 -0.006,0.009 2.86913,4.18902 -0.73541,6.95449 z"
               id="path624" /><path
               style="fill:#cb9323;fill-opacity:1;stroke:none;stroke-width:0.982909;stroke-linecap:round;stroke-linejoin:round;stroke-opacity:1"
               d="m 440.8563,201.43011 c 0,0 -2.38545,-3.97817 1.48815,-6.8331 -0.007,0.008 2.39603,4.47648 -1.48815,6.8331 z"
               id="path625" /><path
               style="fill:#cb9323;fill-opacity:1;stroke:none;stroke-width:0.982909;stroke-linecap:round;stroke-linejoin:round;stroke-opacity:1"
               d="m 438.37123,204.74814 c 0,0 -2.80436,-3.69483 0.73541,-6.9545 -0.006,0.009 2.86913,4.18903 -0.73541,6.9545 z"
               id="path626" /><path
               style="fill:#cb9323;fill-opacity:1;stroke:none;stroke-width:0.982909;stroke-linecap:round;stroke-linejoin:round;stroke-opacity:1"
               d="m 443.5311,198.3154 c 0,0 -2.38545,-3.97817 1.48815,-6.8331 -0.007,0.008 2.39603,4.47648 -1.48815,6.8331 z"
               id="path627" /><path
               style="fill:#cb9323;fill-opacity:1;stroke:none;stroke-width:0.982909;stroke-linecap:round;stroke-linejoin:round;stroke-opacity:1"
               d="m 446.20978,194.38903 c 0,0 -2.38545,-3.97817 1.48815,-6.8331 -0.007,0.008 2.39603,4.47648 -1.48815,6.8331 z"
               id="path628" /><path
               style="fill:#cb9323;fill-opacity:1;stroke:none;stroke-width:0.982909;stroke-linecap:round;stroke-linejoin:round;stroke-opacity:1"
               d="m 448.90532,189.98425 c 0,0 -2.97386,-3.55983 0.40982,-6.98125 -0.006,0.009 3.06163,4.05046 -0.40982,6.98125 z"
               id="path629" /><path
               style="fill:#cb9323;fill-opacity:1;stroke:none;stroke-width:0.982909;stroke-linecap:round;stroke-linejoin:round;stroke-opacity:1"
               d="m 450.86878,185.99674 c 0,0 -2.97386,-3.55983 0.40982,-6.98125 -0.006,0.009 3.06163,4.05046 -0.40982,6.98125 z"
               id="path630" /><path
               style="fill:#cb9323;fill-opacity:1;stroke:none;stroke-width:0.982909;stroke-linecap:round;stroke-linejoin:round;stroke-opacity:1"
               d="m 452.81879,182.10736 c 0,0 -2.96264,-3.56917 0.43178,-6.97992 -0.006,0.01 3.04888,4.06008 -0.43178,6.97992 z"
               id="path631" /></g><path
             style="fill:none;fill-opacity:1;stroke:#cb9323;stroke-width:0.342328;stroke-linecap:round;stroke-linejoin:round;stroke-opacity:1"
             d="m 380.89417,224.4958 c 0,0 9.43246,-1.79753 14.37485,-14.84425"
             id="path632" /></g></g></g></g></svg>
