<?xml version="1.0" encoding="UTF-8" standalone="no"?>
<!-- Created with Inkscape (http://www.inkscape.org/) -->

<svg
   width="500mm"
   height="500mm"
   viewBox="0 0 500 500"
   version="1.1"
   id="svg1"
   inkscape:version="1.3.2 (091e20e, 2023-11-25)"
   sodipodi:docname="POLAR SNEAKER.svg"
   xmlns:inkscape="http://www.inkscape.org/namespaces/inkscape"
   xmlns:sodipodi="http://sodipodi.sourceforge.net/DTD/sodipodi-0.dtd"
   xmlns="http://www.w3.org/2000/svg"
   xmlns:svg="http://www.w3.org/2000/svg">
  <sodipodi:namedview
     id="namedview1"
     pagecolor="#ffffff"
     bordercolor="#000000"
     borderopacity="0.25"
     inkscape:showpageshadow="2"
     inkscape:pageopacity="0.0"
     inkscape:pagecheckerboard="0"
     inkscape:deskcolor="#d1d1d1"
     inkscape:document-units="mm"
     showgrid="false"
     showguides="true"
     inkscape:zoom="0.25982083"
     inkscape:cx="944.88189"
     inkscape:cy="944.88189"
     inkscape:window-width="1356"
     inkscape:window-height="697"
     inkscape:window-x="0"
     inkscape:window-y="0"
     inkscape:window-maximized="1"
     inkscape:current-layer="layer1" />
  <defs
     id="defs1" />
  <g
     inkscape:label="Layer 1"
     inkscape:groupmode="layer"
     id="layer1">
    <g
       id="g9"
       transform="translate(-3.894018,18.488277)">
      <text
         xml:space="preserve"
         style="font-style:normal;font-variant:normal;font-weight:bold;font-stretch:normal;font-size:75.9315px;line-height:1;font-family:Outfit;-inkscape-font-specification:'Outfit Bold';letter-spacing:0px;word-spacing:0px;fill:#000000;fill-opacity:1;stroke:none;stroke-width:67.2621;stroke-linecap:round;stroke-linejoin:round;stroke-dasharray:none;stroke-opacity:1"
         x="32.594868"
         y="220.38776"
         id="text1"><tspan
           sodipodi:role="line"
           id="tspan1"
           style="font-style:normal;font-variant:normal;font-weight:bold;font-stretch:normal;font-family:Outfit;-inkscape-font-specification:'Outfit Bold';fill:#000000;fill-opacity:1;stroke-width:67.2621"
           x="32.594868"
           y="220.38776">POLAR</tspan><tspan
           sodipodi:role="line"
           style="font-style:normal;font-variant:normal;font-weight:bold;font-stretch:normal;font-family:Outfit;-inkscape-font-specification:'Outfit Bold';fill:#000000;fill-opacity:1;stroke-width:67.2621"
           x="32.594868"
           y="296.31927"
           id="tspan2">SNEAK</tspan></text>
      <g
         id="g8"
         transform="matrix(0.79630165,0,0,0.79630165,80.26014,46.33383)">
        <circle
           style="fill:#000000;fill-opacity:1;stroke:none;stroke-width:10;stroke-linecap:round;stroke-linejoin:round;stroke-dasharray:none;stroke-opacity:1"
           id="path6"
           cx="394.9678"
           cy="227.25085"
           r="18.684" />
        <path
           id="path8"
           style="fill:#000000;fill-opacity:1;stroke:none;stroke-width:40.6868;stroke-linecap:round;stroke-linejoin:round;stroke-dasharray:none;stroke-opacity:1"
           d="m 394.96762,151.2316 a 76.019196,76.019196 0 0 0 -76.01913,76.01913 76.019196,76.019196 0 0 0 37.49177,65.3557 c 6.87016,-4.0248 15.01272,-8.39526 24.29826,-12.72274 a 54.73048,54.73048 0 0 1 -40.50141,-52.63296 54.73048,54.73048 0 0 1 54.73051,-54.73051 54.73048,54.73048 0 0 1 54.73051,54.73051 54.73048,54.73048 0 0 1 -10.77195,32.60008 c 8.46575,-1.93541 17.34015,-3.53376 26.56737,-4.71186 a 76.019196,76.019196 0 0 0 5.49321,-27.88822 76.019196,76.019196 0 0 0 -76.01914,-76.01913 z" />
        <path
           style="fill:none;fill-opacity:1;stroke:#000000;stroke-width:10;stroke-linecap:round;stroke-linejoin:round;stroke-dasharray:none;stroke-opacity:1"
           d="m 330.67585,309.98199 c 0,0 63.80038,-53.2814 158.75754,-56.84258"
           id="path7" />
      </g>
    </g>
  </g>
</svg>
