<?xml version="1.0" encoding="UTF-8" standalone="no"?>
<!-- Created with Inkscape (http://www.inkscape.org/) -->

<svg
   width="500mm"
   height="500mm"
   viewBox="0 0 500 500"
   version="1.1"
   id="svg1"
   inkscape:version="1.3.2 (091e20e, 2023-11-25)"
   xml:space="preserve"
   sodipodi:docname="Python.svg"
   xmlns:inkscape="http://www.inkscape.org/namespaces/inkscape"
   xmlns:sodipodi="http://sodipodi.sourceforge.net/DTD/sodipodi-0.dtd"
   xmlns="http://www.w3.org/2000/svg"
   xmlns:svg="http://www.w3.org/2000/svg"><sodipodi:namedview
     id="namedview1"
     pagecolor="#ffffff"
     bordercolor="#000000"
     borderopacity="0.25"
     inkscape:showpageshadow="2"
     inkscape:pageopacity="0.0"
     inkscape:pagecheckerboard="0"
     inkscape:deskcolor="#d1d1d1"
     inkscape:document-units="mm"
     showgrid="false"
     inkscape:zoom="0.25982083"
     inkscape:cx="944.88189"
     inkscape:cy="944.88189"
     inkscape:window-width="1356"
     inkscape:window-height="697"
     inkscape:window-x="0"
     inkscape:window-y="0"
     inkscape:window-maximized="1"
     inkscape:current-layer="layer1"
     showguides="false"><sodipodi:guide
       position="89.464304,154.2615"
       orientation="1,0"
       id="guide11"
       inkscape:locked="false" /></sodipodi:namedview><defs
     id="defs1" /><g
     inkscape:label="Layer 1"
     inkscape:groupmode="layer"
     id="layer1"><rect
       style="opacity:1;fill:#090909;fill-opacity:1;stroke:none;stroke-width:4.99999;stroke-linecap:round;stroke-linejoin:round;stroke-dasharray:none;stroke-opacity:1"
       id="rect1"
       width="500"
       height="500"
       x="0"
       y="0" /><path
       id="path1"
       style="fill:#ff3131;fill-opacity:1;stroke-width:10;stroke-linecap:round;stroke-linejoin:round"
       d="M 243.07095 74.986637 L 243.07095 74.987154 C 167.16192 74.987154 165.93406 110.01086 165.93406 110.01086 L 166.41982 152.6775 L 251.18105 153.78906 L 251.18105 166.24773 L 126.42122 166.24773 C 126.42122 166.24773 74.061112 164.98034 74.061112 251.17537 C 74.061112 337.37039 122.41165 336.82802 122.41165 336.82802 L 152.49095 337.105 L 152.49095 337.09312 L 153.43663 337.09312 C 153.52323 333.03609 153.60044 324.61671 153.60044 301.75057 C 153.60044 244.46414 197.41379 244.83208 197.41379 244.83208 C 197.41379 244.83208 225.56515 245.4274 280.85573 245.4274 C 336.14632 245.4274 336.29368 203.53073 336.29368 203.53073 C 336.29368 203.53073 336.70659 151.9429 336.29368 130.65249 C 335.8808 109.36209 327.97688 98.590881 327.97688 98.590881 C 327.97688 98.590881 318.98 74.986637 243.07095 74.986637 z M 213.65931 98.008488 C 214.49904 98.011438 215.33804 98.072651 216.17647 98.153699 C 216.38688 98.174037 216.59712 98.194801 216.80744 98.218811 C 217.60898 98.310321 218.40992 98.416985 219.20988 98.544373 C 221.05606 98.838343 222.89759 99.19088 224.73254 99.432174 C 226.18131 99.622685 227.63438 99.798046 229.08989 99.94377 C 230.54455 100.08941 232.00148 100.20556 233.45965 100.27812 C 233.46068 100.27817 233.46172 100.27807 233.46275 100.27812 C 233.46292 100.27813 233.4631 100.27811 233.46327 100.27812 C 234.92196 100.35062 236.38179 100.37949 237.84078 100.35046 C 239.30011 100.32143 240.75878 100.23454 242.21519 100.07555 C 242.18002 100.19515 241.91095 100.32751 241.50774 100.48017 C 241.10453 100.63283 240.5671 100.80578 239.9962 101.00572 C 239.42532 101.20565 238.82082 101.43261 238.28261 101.69405 C 237.74441 101.9555 237.27263 102.25137 236.96745 102.58857 C 234.58979 104.08303 232.5007 105.93203 230.60815 107.97687 C 230.60533 107.97992 230.60218 107.98261 230.59936 107.98566 C 230.59514 107.99022 230.59118 107.99504 230.58696 107.99961 C 229.64419 109.01975 228.7499 110.0881 227.89358 111.18598 C 227.8935 111.18608 227.89366 111.18639 227.89358 111.18649 C 227.03343 112.2893 226.21095 113.42134 225.41518 114.56303 C 224.5221 115.84436 223.66217 117.16817 222.79105 118.48889 C 222.79097 118.48901 222.79113 118.48929 222.79105 118.48941 C 222.78716 118.49531 222.78306 118.50108 222.77917 118.50698 C 221.91181 119.82178 221.03301 121.13368 220.09819 122.39718 C 219.16034 123.66479 218.16605 124.88335 217.07099 126.00885 C 217.06954 126.01033 217.0683 126.01201 217.06685 126.0135 C 217.06328 126.01716 217.05957 126.02068 217.056 126.02435 C 216.51085 126.58375 215.94106 127.12051 215.34034 127.62787 C 214.7357 128.13854 214.09994 128.61993 213.4278 129.06654 C 212.39202 129.75477 211.30645 130.33179 210.18407 130.8101 C 209.06169 131.28842 207.90254 131.6678 206.7202 131.96145 C 205.53871 132.2549 204.33365 132.4623 203.11887 132.59656 C 203.11765 132.59669 203.11646 132.59694 203.11525 132.59707 C 201.89992 132.73125 200.67495 132.79231 199.45294 132.79241 C 198.65937 132.79248 197.87023 132.75221 197.08926 132.67097 C 197.08909 132.67095 197.08892 132.67099 197.08875 132.67097 C 196.30761 132.5897 195.53452 132.46723 194.77209 132.30304 C 194.01531 132.14006 193.26947 131.93534 192.53708 131.68912 C 192.52654 131.68557 192.5161 131.68183 192.50556 131.67827 C 191.77316 131.4307 191.05414 131.14207 190.35221 130.80959 C 189.50883 130.41011 188.6425 129.8488 187.74203 129.47013 C 187.29179 129.2808 186.8332 129.13705 186.36434 129.08204 C 185.89547 129.02703 185.41657 129.06083 184.92618 129.22622 C 185.27538 128.76053 185.59682 128.2732 185.88891 127.76895 C 185.89391 127.76032 185.89892 127.75174 185.9039 127.74311 C 186.19494 127.23829 186.45651 126.71658 186.68473 126.18145 C 186.91491 125.6417 187.11175 125.08857 187.27229 124.52625 C 187.43283 123.96393 187.55716 123.39235 187.64229 122.81576 C 187.83085 121.53871 188.12343 120.29435 188.49134 119.0749 C 188.85924 117.85545 189.30257 116.66123 189.79255 115.48442 C 190.77252 113.13081 191.939 110.84758 193.06367 108.57477 C 193.40484 107.8853 193.79814 107.20518 194.23776 106.54957 C 194.23783 106.54946 194.23768 106.54916 194.23776 106.54905 C 194.67524 105.89666 195.15939 105.26897 195.68418 104.6794 C 195.68688 104.67637 195.68923 104.67313 195.69193 104.6701 C 195.69397 104.66781 195.6961 104.66566 195.69813 104.66338 C 196.22227 104.07606 196.78765 103.52751 197.38847 103.03195 C 197.39254 103.0286 197.39628 103.02497 197.40035 103.02162 C 198.00462 102.52434 198.64455 102.081 199.316 101.70594 C 200.12823 101.25224 200.97175 100.86125 201.83678 100.51893 C 202.7018 100.17661 203.58848 99.882466 204.48726 99.622343 C 206.28483 99.102097 208.13102 98.717083 209.94946 98.350586 C 210.56823 98.225876 211.18678 98.139422 211.80516 98.084452 C 212.42354 98.029482 213.04146 98.006318 213.65931 98.008488 z " /><g
       id="g12"
       transform="rotate(180,127.23296,333.48358)"><path
         style="opacity:1;fill:#d3d3d3;fill-opacity:1;stroke:none;stroke-width:2;stroke-linecap:round;stroke-linejoin:round;stroke-dasharray:none;stroke-opacity:1"
         d="m 89.464305,316.50206 c 12.753595,-10.87468 22.552235,-8.04568 39.308765,-8.86781 8.50607,0.0796 17.12305,1.54769 24.98011,4.84994 6.55337,2.12064 6.60381,18.33219 -13.9069,13.76782 0,0 4.62857,-0.17254 10.85525,1.46716 4.61797,1.63851 6.94794,7.23642 4.78822,11.64124 -2.1533,5.27068 -8.58864,7.83797 -13.86643,5.87478 -6.14085,-1.53422 -11.41617,-5.52699 -15.39754,-10.35081 2.32158,0.62644 5.87461,6.86992 7.45319,10.21772 1.95477,4.70938 0.49159,12.83753 -5.81619,12.73577 -6.71123,0.6884 -11.28755,-4.95064 -15.7527,-8.99353 -2.57745,-0.97485 -2.6086,-4.14478 -0.12281,-1.17811 3.38149,4.3999 -1.51311,8.63345 -6.20157,5.20467 -4.51337,-2.94601 -12.920635,-4.51335 -16.321395,-8.89768"
         id="path12"
         sodipodi:nodetypes="cccccccccccccc" /><path
         style="opacity:1;fill:#ffffff;fill-opacity:1;stroke:none;stroke-width:2;stroke-linecap:round;stroke-linejoin:round;stroke-dasharray:none;stroke-opacity:1"
         d="m 89.464305,317.93959 c 12.753595,-10.87468 22.552235,-8.04568 39.308765,-8.86781 8.50607,0.0796 17.12305,1.54769 24.98011,4.84994 6.55337,2.12064 6.60381,18.33219 -13.9069,13.76782 0,0 4.62857,-0.17254 10.85525,1.46716 4.61797,1.63851 6.94794,7.23642 4.78822,11.64124 -2.1533,5.27068 -8.58864,7.83797 -13.86643,5.87478 -6.14085,-1.53422 -11.41617,-5.52699 -15.39754,-10.35081 2.32158,0.62644 5.87461,6.86992 7.45319,10.21772 1.95477,4.70938 0.49159,12.83753 -5.81619,12.73577 -6.71123,0.6884 -11.28755,-4.95064 -15.7527,-8.99353 -2.57745,-0.97485 -2.6086,-4.14478 -0.12281,-1.17811 3.38149,4.3999 -1.51311,8.63345 -6.20157,5.20467 -4.51337,-2.94601 -12.920635,-4.51335 -16.321395,-8.89768"
         id="path11"
         sodipodi:nodetypes="cccccccccccccc" /></g><path
       id="path2"
       style="fill:#18e9ff;fill-opacity:1;stroke-width:10;stroke-linecap:round;stroke-linejoin:round"
       d="m 346.56385,162.87561 c -0.0868,4.03995 -0.16433,12.46046 -0.16433,35.37356 0,57.28661 -43.81335,56.91848 -43.81335,56.91848 0,0 -28.1512,-0.59531 -83.44193,-0.59531 -55.29078,0 -55.43796,41.89667 -55.43796,41.89667 0,0 -0.41291,51.58777 0,72.87824 0.41291,21.29047 8.3168,32.06212 8.3168,32.06212 0,0 8.99667,23.60373 84.90593,23.60373 75.90926,0 77.13689,-35.0237 77.13689,-35.0237 l -0.48575,-42.66665 -84.76124,-1.11156 v -12.45867 h 124.75983 c 0,0 52.36011,1.26764 52.36011,-84.92763 0,-86.19529 -48.35054,-85.65265 -48.35054,-85.65265 l -30.73662,-0.28319 c 0,0 -5.2e-4,-0.0134 -5.2e-4,-0.0134 z m -48.1397,204.1741 a 15.667257,15.667257 0 0 1 15.66726,15.66727 15.667257,15.667257 0 0 1 -15.66726,15.66726 15.667257,15.667257 0 0 1 -15.66726,-15.66726 15.667257,15.667257 0 0 1 15.66726,-15.66727 z" /><path
       sodipodi:type="star"
       style="opacity:1;fill:#ff3131;fill-opacity:1;stroke:none;stroke-width:4.99999;stroke-linecap:round;stroke-linejoin:round;stroke-dasharray:none;stroke-opacity:1"
       id="path9"
       inkscape:flatsided="false"
       sodipodi:sides="3"
       sodipodi:cx="252.63374"
       sodipodi:cy="63.872425"
       sodipodi:r1="5.7747073"
       sodipodi:r2="2.8372495"
       sodipodi:arg1="0.59130556"
       sodipodi:arg2="1.6385031"
       inkscape:rounded="0"
       inkscape:randomized="0"
       d="m 257.42798,67.091509 -4.98619,-0.388335 -4.99298,-0.288357 2.82941,-4.124004 2.74621,-4.179864 2.15679,4.512339 z"
       inkscape:transform-center-x="-2.1905591"
       inkscape:transform-center-y="-0.017576604"
       transform="matrix(0.09729479,1.5248072,-1.5248072,0.09729479,416.68016,-220.99335)" /><path
       style="opacity:1;fill:#ff3131;fill-opacity:1;stroke:none;stroke-width:4.99999;stroke-linecap:round;stroke-linejoin:round;stroke-dasharray:none;stroke-opacity:1"
       d="m 166.63447,107.02993 c -0.12168,-4.31044 31.53264,-64.202051 93.878,-59.759447 -0.27785,-0.220869 -31.1795,3.515055 -60.20273,37.422198 -0.15959,0.03782 -33.67527,22.337249 -33.67527,22.337249 z"
       id="path4"
       sodipodi:nodetypes="cccc" /><path
       style="opacity:1;fill:#ff3131;fill-opacity:1;stroke:none;stroke-width:3.19931;stroke-linecap:round;stroke-linejoin:round;stroke-dasharray:none;stroke-opacity:1"
       d="m 190.3266,96.926513 c 0,0 20.87382,-40.799905 60.76566,-37.981271 -0.17778,-0.141326 -19.95062,2.249156 -38.52153,23.945101 -0.10212,0.0242 -22.24413,14.03617 -22.24413,14.03617 z"
       id="path5" /><path
       sodipodi:type="star"
       style="opacity:1;fill:#ff3131;fill-opacity:1;stroke:none;stroke-width:4.99999;stroke-linecap:round;stroke-linejoin:round;stroke-dasharray:none;stroke-opacity:1"
       id="path7"
       inkscape:flatsided="false"
       sodipodi:sides="3"
       sodipodi:cx="252.63374"
       sodipodi:cy="63.872425"
       sodipodi:r1="5.7747073"
       sodipodi:r2="2.8372495"
       sodipodi:arg1="0.59130556"
       sodipodi:arg2="1.6385031"
       inkscape:rounded="0"
       inkscape:randomized="0"
       d="m 257.42798,67.091509 -4.98619,-0.388335 -4.99298,-0.288357 2.82941,-4.124004 2.74621,-4.179864 2.15679,4.512339 z"
       inkscape:transform-center-x="-2.1905591"
       inkscape:transform-center-y="-0.017576604"
       transform="matrix(0.09729479,1.5248072,-1.5248072,0.09729479,416.68016,-255.90994)" /><path
       sodipodi:type="star"
       style="opacity:1;fill:#ff3131;fill-opacity:1;stroke:none;stroke-width:4.99999;stroke-linecap:round;stroke-linejoin:round;stroke-dasharray:none;stroke-opacity:1"
       id="path8"
       inkscape:flatsided="false"
       sodipodi:sides="3"
       sodipodi:cx="252.63374"
       sodipodi:cy="63.872425"
       sodipodi:r1="5.7747073"
       sodipodi:r2="2.8372495"
       sodipodi:arg1="0.59130556"
       sodipodi:arg2="1.6385031"
       inkscape:rounded="0"
       inkscape:randomized="0"
       d="m 257.42798,67.091509 -4.98619,-0.388335 -4.99298,-0.288357 2.82941,-4.124004 2.74621,-4.179864 2.15679,4.512339 z"
       inkscape:transform-center-x="-2.1905591"
       inkscape:transform-center-y="-0.017576604"
       transform="matrix(0.09729479,1.5248072,-1.5248072,0.09729479,416.68016,-238.4848)" /><ellipse
       style="opacity:0.19640775;fill:none;fill-opacity:1;stroke:#000000;stroke-width:4.99999;stroke-linecap:round;stroke-linejoin:round;stroke-dasharray:none;stroke-opacity:1"
       id="ellipse10"
       cx="202.79247"
       cy="458.17218"
       rx="76.637947"
       ry="27.861792"
       transform="rotate(-6.385916)" /><ellipse
       style="opacity:1;fill:none;fill-opacity:1;stroke:#f8f500;stroke-width:4.99999;stroke-linecap:round;stroke-linejoin:round;stroke-dasharray:none;stroke-opacity:1"
       id="path10"
       cx="202.23581"
       cy="463.14594"
       rx="76.637947"
       ry="27.861792"
       transform="rotate(-6.385916)" /></g></svg>
