<?xml version="1.0" encoding="UTF-8" standalone="no"?>
<!-- Created with Inkscape (http://www.inkscape.org/) -->

<svg
   width="500mm"
   height="500mm"
   viewBox="0 0 500 500"
   version="1.1"
   id="svg1"
   inkscape:version="1.3.2 (091e20e, 2023-11-25)"
   sodipodi:docname="Rn.svg"
   xmlns:inkscape="http://www.inkscape.org/namespaces/inkscape"
   xmlns:sodipodi="http://sodipodi.sourceforge.net/DTD/sodipodi-0.dtd"
   xmlns="http://www.w3.org/2000/svg"
   xmlns:svg="http://www.w3.org/2000/svg">
  <sodipodi:namedview
     id="namedview1"
     pagecolor="#ffffff"
     bordercolor="#000000"
     borderopacity="0.25"
     inkscape:showpageshadow="2"
     inkscape:pageopacity="0.0"
     inkscape:pagecheckerboard="0"
     inkscape:deskcolor="#d1d1d1"
     inkscape:document-units="mm"
     showgrid="false"
     inkscape:zoom="0.25982083"
     inkscape:cx="944.88189"
     inkscape:cy="944.88189"
     inkscape:window-width="1356"
     inkscape:window-height="697"
     inkscape:window-x="0"
     inkscape:window-y="0"
     inkscape:window-maximized="1"
     inkscape:current-layer="layer1"
     showguides="true" />
  <defs
     id="defs1" />
  <g
     inkscape:label="Layer 1"
     inkscape:groupmode="layer"
     id="layer1">
    <rect
       style="fill:#000000;fill-opacity:1;stroke:none;stroke-width:10;stroke-linecap:round;stroke-linejoin:round;stroke-dasharray:none;stroke-opacity:1"
       id="rect4"
       width="500"
       height="500"
       x="0"
       y="0" />
    <path
       id="text1"
       style="font-size:285.138px;line-height:1;font-family:Outfit;-inkscape-font-specification:Outfit;letter-spacing:0px;word-spacing:0px;fill:#f8fc17;fill-opacity:1;stroke-width:252.583;stroke-linecap:round;stroke-linejoin:round"
       d="m 359.02718,168.27862 c -10.26494,0 -19.48482,2.37647 -27.65878,7.12876 -6.15842,3.43726 -11.28926,7.84755 -15.39751,13.2271 v -17.50436 h -25.662 v 135.44083 h 25.662 v -78.98329 c 0,-6.84328 1.52105,-12.92646 4.56252,-18.24902 3.04145,-5.32257 7.22345,-9.50453 12.546,-12.546 5.32258,-3.04146 11.40572,-4.56251 18.24902,-4.56251 10.26494,0 18.6289,3.32707 25.092,9.98027 6.46312,6.65319 9.6945,15.11233 9.6945,25.37726 v 78.98329 c 0,78.98299 -50.07394,70.60396 -50.07394,70.60396 l -147.55195,0 0.15606,-24.13651 -33.28065,19.45824 -28.4024,16.15457 33.49098,19.09238 28.19207,16.52044 -0.12609,-22.95519 c 4.1009,0.0589 63.60235,1.20389 146.63263,-0.0238 85.15161,-1.25899 76.62581,-94.71412 76.62581,-94.71412 v -84.11579 c 0,-9.31449 -2.28131,-18.05911 -6.84351,-26.23303 -4.5622,-8.36403 -10.83515,-15.11229 -18.81901,-20.24476 -7.79374,-5.13247 -16.82281,-7.69875 -27.08775,-7.69875 z"
       sodipodi:nodetypes="sccccccsssssssccccccccscsccs" />
    <path
       id="path4"
       style="font-size:285.138px;line-height:1;font-family:Outfit;-inkscape-font-specification:Outfit;letter-spacing:0px;word-spacing:0px;fill:#ffffff;fill-opacity:1;stroke-width:252.583;stroke-linecap:round;stroke-linejoin:round"
       d="M 127.73846 108.68484 L 127.73846 197.93314 L 154.54147 197.93314 L 154.54147 132.06636 L 199.59299 132.06636 C 211.18855 132.06636 220.02783 135.20259 226.11075 141.4756 C 232.38375 147.74862 235.52051 155.63781 235.52051 165.14237 C 235.52051 175.2172 232.38375 183.20106 226.11075 189.09388 C 219.83774 194.98672 210.90331 197.93314 199.30773 197.93314 L 154.54147 197.93314 L 154.54147 220.45889 L 172.01844 220.45889 L 241.79351 306.57095 L 275.72477 306.57095 L 204.64074 220.36226 C 215.44204 219.90427 224.97951 217.66161 233.23951 213.6159 C 242.55398 208.86362 249.6824 202.30516 254.62477 193.94113 C 259.75724 185.57711 262.32352 175.78726 262.32352 164.57187 C 262.32352 153.73667 259.75724 144.13713 254.62477 135.77311 C 249.6824 127.4091 242.55398 120.85064 233.23951 116.09834 C 223.92504 111.15597 212.99476 108.68484 200.44875 108.68484 L 154.54147 108.68484 L 127.73846 108.68484 z M 154.54147 220.45889 L 127.73846 220.45889 L 127.73846 306.57095 L 154.54147 306.57095 L 154.54147 220.45889 z " />
  </g>
</svg>
