<?xml version="1.0" encoding="UTF-8" standalone="no"?>
<!-- Created with Inkscape (http://www.inkscape.org/) -->

<svg
   width="500mm"
   height="500mm"
   viewBox="0 0 500 500"
   version="1.1"
   id="svg1"
   inkscape:version="1.3.2 (091e20e, 2023-11-25)"
   sodipodi:docname="Rockstar.svg"
   xmlns:inkscape="http://www.inkscape.org/namespaces/inkscape"
   xmlns:sodipodi="http://sodipodi.sourceforge.net/DTD/sodipodi-0.dtd"
   xmlns="http://www.w3.org/2000/svg"
   xmlns:svg="http://www.w3.org/2000/svg">
  <sodipodi:namedview
     id="namedview1"
     pagecolor="#ffffff"
     bordercolor="#000000"
     borderopacity="0.25"
     inkscape:showpageshadow="2"
     inkscape:pageopacity="0.0"
     inkscape:pagecheckerboard="0"
     inkscape:deskcolor="#d1d1d1"
     inkscape:document-units="mm"
     showgrid="false"
     inkscape:zoom="0.25982083"
     inkscape:cx="944.8819"
     inkscape:cy="964.12593"
     inkscape:window-width="1356"
     inkscape:window-height="697"
     inkscape:window-x="0"
     inkscape:window-y="0"
     inkscape:window-maximized="1"
     inkscape:current-layer="layer1" />
  <defs
     id="defs1" />
  <g
     inkscape:label="Layer 1"
     inkscape:groupmode="layer"
     id="layer1">
    <text
       xml:space="preserve"
       style="font-style:normal;font-variant:normal;font-weight:normal;font-stretch:normal;font-size:228.094px;font-family:'Nimbus Sans Narrow';-inkscape-font-specification:'Nimbus Sans Narrow';fill:#000000;fill-opacity:1;stroke:#000000;stroke-width:17.8734;stroke-dasharray:none;stroke-opacity:1"
       x="201.20187"
       y="338.80484"
       id="text2"
       transform="matrix(1.1585915,0,-0.18495496,0.86311697,0,0)"><tspan
         sodipodi:role="line"
         style="font-style:normal;font-variant:normal;font-weight:normal;font-stretch:normal;font-family:'Nimbus Sans Narrow';-inkscape-font-specification:'Nimbus Sans Narrow';fill:#000000;fill-opacity:1;stroke:#000000;stroke-width:17.8734;stroke-dasharray:none;stroke-opacity:1"
         x="201.20187"
         y="338.80484"
         id="tspan3">R</tspan></text>
    <g
       id="g21">
      <path
         id="circle1"
         style="opacity:1;fill:#00c67b;fill-opacity:1;stroke:none;stroke-width:4.6964;stroke-linecap:round;stroke-linejoin:round;stroke-dasharray:none;stroke-opacity:1"
         d="M 259.70791,52.237028 A 203.10341,194.35528 0 0 0 184.44392,66.549487 H 336.12665 A 203.10341,194.35528 0 0 0 259.70791,52.237028 Z M 160.51924,77.54249 A 203.10341,194.35528 0 0 0 142.43956,88.43578 H 377.65619 A 203.10341,194.35528 0 0 0 359.79684,77.54249 Z m -33.42533,21.886291 a 203.10341,194.35528 0 0 0 -11.48208,10.893769 h 288.8664 A 203.10341,194.35528 0 0 0 392.28108,99.428781 Z m -22.44469,21.886769 a 203.10341,194.35528 0 0 0 -8.52252,10.89376 h 327.74217 a 203.10341,194.35528 0 0 0 -8.94369,-10.89376 z m -16.765373,21.88677 a 203.10341,194.35528 0 0 0 -6.215851,10.89329 H 438.30905 a 203.10341,194.35528 0 0 0 -6.69066,-10.89329 z M 75.395166,165.0886 A 203.10341,194.35528 0 0 0 71.01069,175.98237 H 448.8695 a 203.10341,194.35528 0 0 0 -4.81989,-10.89377 z m -8.669239,21.88678 a 203.10341,194.35528 0 0 0 -3.265803,10.89376 H 456.29092 a 203.10341,194.35528 0 0 0 -3.32944,-10.89376 z m -5.764773,21.88629 a 203.10341,194.35528 0 0 0 -2.350828,10.89376 H 460.82971 a 203.10341,194.35528 0 0 0 -1.88741,-10.89376 z m -3.172739,21.88676 A 203.10341,194.35528 0 0 0 56.974576,241.6422 H 462.68435 a 203.10341,194.35528 0 0 0 -0.60398,-10.89377 z m -0.73217,21.88677 a 203.10341,194.35528 0 0 0 0.813839,10.89329 H 461.54573 a 203.10341,194.35528 0 0 0 0.81384,-10.89329 z m 1.676585,21.8863 a 203.10341,194.35528 0 0 0 2.476653,10.89376 H 458.20633 a 203.10341,194.35528 0 0 0 2.47666,-10.89376 z m 4.975625,21.88676 a 203.10341,194.35528 0 0 0 3.443385,10.89376 h 385.11214 a 203.10341,194.35528 0 0 0 3.44338,-10.89376 z m 7.728148,21.88677 a 203.10341,194.35528 0 0 0 4.582001,10.89329 H 443.39721 a 203.10341,194.35528 0 0 0 4.58201,-10.89329 z m 10.85483,21.88629 a 203.10341,194.35528 0 0 0 6.216326,10.89376 H 430.90806 a 203.10341,194.35528 0 0 0 6.21632,-10.89376 z m 14.690416,21.88677 a 203.10341,194.35528 0 0 0 8.522041,10.89376 h 308.40803 a 203.10341,194.35528 0 0 0 8.52205,-10.89376 z m 19.771451,21.88629 a 203.10341,194.35528 0 0 0 11.86525,10.89377 h 262.17873 a 203.10341,194.35528 0 0 0 11.86524,-10.89377 z m 27.21138,21.88676 a 203.10341,194.35528 0 0 0 18.64566,10.89377 h 194.19513 a 203.10341,194.35528 0 0 0 18.64566,-10.89377 z m 43.54088,21.88677 a 203.10341,194.35528 0 0 0 72.20235,13.21943 203.10341,194.35528 0 0 0 72.20235,-13.21943 z" />
      <path
         id="path21"
         style="opacity:1;fill:#ffd42b;fill-opacity:1;stroke:none;stroke-width:4.59414;stroke-linecap:round;stroke-linejoin:round;stroke-dasharray:none;stroke-opacity:1"
         d="M 269.46989,52.237028 A 194.35528,194.35528 0 0 0 75.114732,246.59218 194.35528,194.35528 0 0 0 269.46989,440.94734 194.35528,194.35528 0 0 0 463.82504,246.59218 194.35528,194.35528 0 0 0 269.46989,52.237028 Z m -73.06272,87.157722 h 85.64779 c 28.25704,0 39.65476,18.40017 35.24436,43.15246 -3.47366,19.49517 -14.75772,32.41898 -33.96853,39.42847 18.81017,8.76187 19.29645,10.95247 11.78121,58.04754 -1.24896,7.00951 0.13678,10.29537 4.66746,13.14298 l -1.05362,5.91386 h -35.26668 c -2.79585,-7.66663 -2.81358,-12.48571 -0.15954,-27.38089 l 3.44339,-16.86651 c 2.38082,-13.36186 -2.73767,-19.05685 -16.97572,-19.05685 h -37.67591 l -11.2798,63.30425 h -32.85697 z m 27.97868,27.38089 -7.41571,41.61928 h 39.64736 c 18.61898,0 24.4679,-7.00961 27.00483,-21.24766 2.45889,-13.79995 -1.62728,-20.37162 -19.58911,-20.37162 z m 99.2618,100.20241 6.06059,33.86977 35.86305,0.30198 -31.98901,21.18736 5.53923,34.24535 -25.8306,-20.77522 -32.43962,20.86258 16.02466,-34.02693 -25.58798,-21.35212 35.73438,-0.25403 z" />
    </g>
  </g>
</svg>
