<?xml version="1.0" encoding="UTF-8" standalone="no"?>
<!-- Created with Inkscape (http://www.inkscape.org/) -->

<svg
   width="500mm"
   height="500mm"
   viewBox="0 0 500 500"
   version="1.1"
   id="svg1"
   inkscape:version="1.3.2 (091e20e, 2023-11-25)"
   xml:space="preserve"
   sodipodi:docname="SLUTTGURT UNIVERSITY 1955.svg"
   xmlns:inkscape="http://www.inkscape.org/namespaces/inkscape"
   xmlns:sodipodi="http://sodipodi.sourceforge.net/DTD/sodipodi-0.dtd"
   xmlns="http://www.w3.org/2000/svg"
   xmlns:svg="http://www.w3.org/2000/svg"><sodipodi:namedview
     id="namedview1"
     pagecolor="#ffffff"
     bordercolor="#000000"
     borderopacity="0.25"
     inkscape:showpageshadow="2"
     inkscape:pageopacity="0.0"
     inkscape:pagecheckerboard="0"
     inkscape:deskcolor="#d1d1d1"
     inkscape:document-units="mm"
     showgrid="false"
     inkscape:zoom="0.25982083"
     inkscape:cx="942.9575"
     inkscape:cy="944.8819"
     inkscape:window-width="1356"
     inkscape:window-height="697"
     inkscape:window-x="0"
     inkscape:window-y="0"
     inkscape:window-maximized="1"
     inkscape:current-layer="layer1" /><defs
     id="defs1"><inkscape:path-effect
       effect="mirror_symmetry"
       start_point="208.98392,193.36891"
       end_point="208.98392,350.43393"
       center_point="208.98392,271.90142"
       id="path-effect41"
       is_visible="true"
       lpeversion="1.2"
       lpesatellites=""
       mode="free"
       discard_orig_path="false"
       fuse_paths="false"
       oposite_fuse="false"
       split_items="false"
       split_open="false"
       link_styles="false" /><inkscape:path-effect
       effect="mirror_symmetry"
       start_point="222.57421,235.54556"
       end_point="222.57421,326.60788"
       center_point="222.57421,281.07672"
       id="path-effect5"
       is_visible="true"
       lpeversion="1.2"
       lpesatellites=""
       mode="free"
       discard_orig_path="false"
       fuse_paths="false"
       oposite_fuse="false"
       split_items="false"
       split_open="false"
       link_styles="false" /><inkscape:path-effect
       effect="mirror_symmetry"
       start_point="208.98392,193.36891"
       end_point="208.98392,350.43393"
       center_point="208.98392,271.90142"
       id="path-effect1"
       is_visible="true"
       lpeversion="1.2"
       lpesatellites=""
       mode="free"
       discard_orig_path="false"
       fuse_paths="false"
       oposite_fuse="false"
       split_items="false"
       split_open="false"
       link_styles="false" /></defs><g
     inkscape:label="Layer 1"
     inkscape:groupmode="layer"
     id="layer1"><path
       id="rect9"
       style="fill:#8e632b;fill-opacity:1;stroke:#bf853a;stroke-width:10;stroke-linecap:round;stroke-linejoin:round;stroke-dasharray:none;stroke-opacity:1"
       d="M 103.82835,70.271689 H 392.60699 V 306.01412 L 248.21767,454.16913 103.82835,306.01412 Z"
       sodipodi:nodetypes="cccccc" /><rect
       style="fill:#bf853a;fill-opacity:1;stroke:none;stroke-width:2.02609;stroke-linecap:round;stroke-linejoin:bevel;stroke-dasharray:none;stroke-opacity:1"
       id="rect35"
       width="14.434162"
       height="39.21199"
       x="307.35794"
       y="297.28433"
       ry="1.8936902" /><path
       style="fill:#bf853a;fill-opacity:1;stroke:#bf853a;stroke-width:5;stroke-linecap:round;stroke-linejoin:round;stroke-dasharray:none;stroke-opacity:1"
       d="m 208.98392,350.43393 c -21.49107,-0.28512 -36.47871,-12.11773 -36.47871,-12.11773 0,0 -55.94598,-60.30585 -57.2381,-81.72913 -1.29212,-21.42328 19.87177,-63.21816 19.87177,-63.21816 0,0 37.12389,-41.351 73.71522,-41.351 m 0.12982,198.41602 c 21.49107,-0.28512 36.47871,-12.11773 36.47871,-12.11773 0,0 55.94598,-60.30585 57.2381,-81.72913 1.29212,-21.42328 -19.87177,-63.21816 -19.87177,-63.21816 0,0 -37.12389,-41.351 -73.71522,-41.351"
       id="path1"
       transform="translate(41.01608,-34.363942)"
       sodipodi:nodetypes="ccscc"
       inkscape:original-d="m 208.98392,350.43393 c -21.49107,-0.28512 -36.47871,-12.11773 -36.47871,-12.11773 0,0 -55.94598,-60.30585 -57.2381,-81.72913 -1.29212,-21.42328 19.87177,-63.21816 19.87177,-63.21816 0,0 37.12389,-41.351 73.71522,-41.351"
       inkscape:path-effect="#path-effect1" /><path
       style="fill:none;fill-opacity:1;stroke:#8e632b;stroke-width:5;stroke-linecap:round;stroke-linejoin:round;stroke-dasharray:none;stroke-opacity:1"
       d="m 279.58967,201.55876 c 0,0 7.81023,1.76872 12.28031,-6.70012 -0.0856,-0.052 -3.23652,-4.47686 -7.46534,-2.48811 -4.22881,1.98875 -4.81497,9.18823 -4.81497,9.18823 z"
       id="path2" /><path
       style="fill:none;fill-opacity:1;stroke:#8e632b;stroke-width:5;stroke-linecap:round;stroke-linejoin:round;stroke-dasharray:none;stroke-opacity:1"
       d="m 217.99423,201.55876 c 0,0 -7.81023,1.76872 -12.28031,-6.70012 0.0856,-0.052 3.23652,-4.47686 7.46534,-2.48811 4.22881,1.98875 4.81497,9.18823 4.81497,9.18823 z"
       id="path3" /><path
       id="path4"
       style="fill:#8e632b;fill-opacity:1;stroke:#000000;stroke-width:1.5;stroke-linecap:round;stroke-linejoin:round;stroke-opacity:0"
       d="m 240.14504,253.74652 c -6.91613,0.0643 -11.76879,1.19034 -11.76879,9.17205 0,1.27467 0.1266,2.51934 0.36277,3.72484 a 9.95609,5.6952491 45 0 1 2.28875,-0.57929 9.95609,5.6952491 45 0 1 8.1101,4.08347 9.95609,5.6952491 45 0 1 3.01325,11.06702 9.95609,5.6952491 45 0 1 -0.14728,0.13229 c 1.78462,0.54571 3.67876,0.8413 5.64204,0.8413 2.17427,0 4.26183,-0.36557 6.2115,-1.0294 a 5.6952491,9.95609 45 0 1 3.05356,-11.01121 5.6952491,9.95609 45 0 1 8.1101,-4.08347 5.6952491,9.95609 45 0 1 1.58595,0.27336 c 0.19891,-1.1102 0.30851,-2.25148 0.30851,-3.41891 0,-10.64228 -8.62734,-9.09712 -19.26962,-9.09712 -2.66057,0 -5.19546,-0.0963 -7.50084,-0.0749 z" /><path
       style="fill:none;fill-opacity:1;stroke:#8e632b;stroke-width:5;stroke-linecap:round;stroke-linejoin:round;stroke-dasharray:none;stroke-opacity:1"
       d="m 191.69093,235.54556 c 0,0 7.41108,-0.12423 -0.90494,64.12575 -1.53204,9.41763 4.12144,25.13042 4.12144,25.13042 0,0 1.15036,1.67378 3.41091,1.80258 2.26055,0.1288 13.40491,-3.27197 24.25587,-2.76008 m 30.88328,-88.29867 c 0,0 -7.41108,-0.12423 0.90494,64.12575 1.53204,9.41763 -4.12144,25.13042 -4.12144,25.13042 0,0 -1.15036,1.67378 -3.41091,1.80258 -2.26055,0.1288 -13.40491,-3.27197 -24.25587,-2.76008"
       id="path5"
       inkscape:path-effect="#path-effect5"
       inkscape:original-d="m 191.69093,235.54556 c 0,0 7.41108,-0.12423 -0.90494,64.12575 -1.53204,9.41763 4.12144,25.13042 4.12144,25.13042 0,0 1.15036,1.67378 3.41091,1.80258 2.26055,0.1288 13.40491,-3.27197 24.25587,-2.76008"
       transform="translate(26.373061,-34.363942)" /><path
       style="fill:none;fill-opacity:1;stroke:#8e632b;stroke-width:5;stroke-linecap:round;stroke-linejoin:round;stroke-dasharray:none;stroke-opacity:1"
       d="m 269.90594,292.12658 c 0,0 -20.83426,18.68103 -40.16946,-0.7305"
       id="path6"
       sodipodi:nodetypes="cc" /><path
       style="fill:#8e632b;fill-opacity:1;stroke:#bf853a;stroke-width:5;stroke-linecap:round;stroke-linejoin:round;stroke-dasharray:none;stroke-opacity:1"
       d="m 219.47606,123.08176 c 0,0 -22.99301,-37.502359 -46.08364,-24.895099 -9.1573,8.399389 -10.66938,34.914229 1.52535,57.332279"
       id="path7" /><path
       style="fill:#8e632b;fill-opacity:1;stroke:#bf853a;stroke-width:5;stroke-linecap:round;stroke-linejoin:round;stroke-dasharray:none;stroke-opacity:1"
       d="m 277.4398,123.08176 c 0,0 22.99301,-37.502359 46.08364,-24.895099 9.1573,8.399389 10.8016,35.840059 -1.39313,58.258109"
       id="path8"
       sodipodi:nodetypes="ccc" /><circle
       style="fill:none;fill-opacity:1;stroke:#ffffff;stroke-width:4.99999;stroke-linecap:round;stroke-linejoin:round;stroke-dasharray:none;stroke-opacity:1"
       id="path9"
       cx="287.62119"
       cy="197.18954"
       r="22.200773" /><circle
       style="fill:none;fill-opacity:1;stroke:#ffffff;stroke-width:4.99999;stroke-linecap:round;stroke-linejoin:round;stroke-dasharray:none;stroke-opacity:1"
       id="path10"
       cx="303.9505"
       cy="224.38895"
       r="5.5622559" /><circle
       style="fill:none;fill-opacity:1;stroke:#ffffff;stroke-width:4.99999;stroke-linecap:round;stroke-linejoin:round;stroke-dasharray:none;stroke-opacity:1"
       id="circle10"
       cx="309.84299"
       cy="237.71675"
       r="5.5622559" /><circle
       style="fill:none;fill-opacity:1;stroke:#ffffff;stroke-width:4.99999;stroke-linecap:round;stroke-linejoin:round;stroke-dasharray:none;stroke-opacity:1"
       id="circle11"
       cx="310.04001"
       cy="253.00513"
       r="5.5622559" /><path
       style="fill:#bf853a;fill-opacity:1;stroke:none;stroke-width:2;stroke-linecap:round;stroke-linejoin:bevel;stroke-dasharray:none;stroke-opacity:1"
       d="m 343.0332,227.85621 c 2.74211,-1.68863 6.09409,5.53086 6.66953,5.33175 2.82951,-0.97904 -3.84796,-7.42713 -4.32911,-8.11435 -1.26555,-1.80754 9.80829,5.11678 5.45669,0.47908 -0.5279,-0.5626 -5.53339,-3.98903 -5.44775,-4.28626 0.25821,-0.89601 6.4556,1.48822 6.28685,0.99063 -1.21526,-3.58337 -8.25815,-6.8031 -9.64991,-1.54976 -0.59314,2.23878 0.66273,4.92184 1.0137,7.14891 z"
       id="path33" /><path
       style="fill:#bf853a;fill-opacity:1;stroke:none;stroke-width:2;stroke-linecap:round;stroke-linejoin:bevel;stroke-dasharray:none;stroke-opacity:1"
       d="m 157.12547,219.6864 c -0.45165,-0.15813 -10.02731,-0.82663 -10.37822,2.19174 -0.002,0.0182 4.88248,-0.16547 5.59539,1.16507 0.12795,0.2388 -1.572,1.65755 -1.75121,1.83593 -0.7103,0.70697 -0.66098,1.71723 -0.66098,2.66122 0,1.25477 0.80046,4.95394 0.55963,3.72249 -0.94128,-4.81308 6.38502,-5.37232 6.63539,-11.57645 z"
       id="path34" /><path
       style="fill:#bf853a;fill-opacity:1;stroke:none;stroke-width:2;stroke-linecap:round;stroke-linejoin:bevel;stroke-dasharray:none;stroke-opacity:1"
       d="m 257.60179,116.74069 c 2.61479,0.43077 -7.95156,-5.0691 -6.6875,-3.99169 0.59468,0.50687 3.6522,3.00697 1.22655,1.15714 -1.22377,-0.93325 -2.63056,-1.37922 -4.13531,-1.68059 -0.71137,-0.14248 -2.8657,-0.45438 -2.15312,-0.31808 1.31317,0.25119 2.73736,0.37745 3.7063,1.45995 0.20538,0.22946 0.88243,0.79611 0.58545,0.71466 -0.0817,-0.0224 -6.3654,-0.88924 -5.0543,0.19644 1.95676,1.62032 10.26752,2.65884 12.51193,2.46217 z"
       id="path35" /><path
       style="fill:#b8bf3a;fill-opacity:1;stroke:none;stroke-width:2;stroke-linecap:round;stroke-linejoin:bevel;stroke-dasharray:none;stroke-opacity:1"
       d="m 314.4171,296.32949 c 0,0 4.29146,0.70911 7.49414,-6.01794 3.2027,-6.72706 3.58723,-18.11954 3.58723,-18.11954 0,0 -9.83029,7.88757 -12.86678,12.51005 -1.08197,1.64709 -6.09883,11.62743 1.78541,11.62743 z"
       id="path36"
       sodipodi:nodetypes="cscsc" /><g
       id="g38"
       transform="translate(0,-13.090301)"><g
         id="g37"><path
           id="rect20"
           style="fill:#bf853a;stroke-width:4.99999;stroke-linejoin:bevel"
           d="m 367.30057,346.09445 h 99.59606 l -37.5515,31.48483 37.5515,31.48484 h -99.59606 z"
           sodipodi:nodetypes="cccccc" /><path
           id="path20"
           style="fill:#bf853a;stroke-width:4.99999;stroke-linejoin:bevel"
           d="M 129.13475,346.09445 H 29.538689 l 37.5515,31.48483 -37.5515,31.48484 h 99.596061 z"
           sodipodi:nodetypes="cccccc" /><path
           style="fill:#8e632b;fill-opacity:1;stroke:none;stroke-width:4.99999;stroke-linecap:butt;stroke-linejoin:bevel;stroke-dasharray:none;stroke-opacity:1"
           d="m 102.09938,377.51758 27.03536,-31.42314 27.1604,27.16041 -28.00839,57.54933 z"
           id="path21"
           sodipodi:nodetypes="ccccc" /><path
           style="fill:#8e632b;fill-opacity:1;stroke:none;stroke-width:4.99999;stroke-linecap:butt;stroke-linejoin:bevel;stroke-dasharray:none;stroke-opacity:1"
           d="m 394.33594,377.51758 -27.03536,-31.42314 -27.1604,27.16041 28.00839,57.54933 z"
           id="path19"
           sodipodi:nodetypes="ccccc" /><path
           style="color:#000000;fill:#bf853a;stroke-linejoin:round;-inkscape-stroke:none"
           d="m 262.6543,353.1875 c -90.5898,-1.69328 -160.55469,24.07617 -160.55469,24.07617 l 21.98633,62.04688 c 0,0 130.88216,-44.31151 246.87695,-0.25391 l 23.37305,-61.53906 C 349.27038,360.4006 303.83148,353.95717 262.6543,353.1875 Z"
           id="path13" /><path
           style="font-weight:600;font-size:10.5833px;line-height:1;font-family:Outfit;-inkscape-font-specification:'Outfit Semi-Bold';letter-spacing:0px;word-spacing:0px;fill:#ffffff;stroke-width:5;stroke-linejoin:bevel"
           d="m 126.85058,438.40903 q -0.84768,0.30113 -1.55876,0.22802 -0.7011,-0.0766 -1.39524,-0.48148 l 0.57871,-1.21639 q 0.4544,0.29906 0.94477,0.38319 0.48682,0.0742 1.07521,-0.13487 0.52856,-0.18776 0.76331,-0.50701 0.24474,-0.32279 0.11366,-0.69179 -0.11337,-0.31912 -0.36373,-0.45481 -0.25036,-0.13569 -0.59914,-0.16903 -0.33881,-0.0369 -0.7368,-0.019 -0.39156,0.004 -0.80372,-0.0177 -0.40218,-0.0256 -0.7793,-0.13871 -0.37069,-0.12664 -0.6742,-0.41192 -0.30704,-0.29525 -0.49835,-0.83378 -0.22673,-0.63825 -0.077,-1.19685 0.14973,-0.5586 0.60324,-0.98925 0.4535,-0.43065 1.13165,-0.67155 0.71804,-0.25507 1.39211,-0.19128 0.67407,0.0638 1.19539,0.36154 l -0.5787,1.21639 q -0.42961,-0.22926 -0.81539,-0.27191 -0.37581,-0.0462 -0.7847,0.099 -0.46871,0.16651 -0.67421,0.44167 -0.2055,0.27516 -0.085,0.61423 0.10274,0.28921 0.34602,0.40495 0.24328,0.11574 0.57854,0.14265 0.34524,0.0234 0.7368,0.0191 0.40153,-0.008 0.80371,0.0177 0.41216,0.0221 0.7864,0.15867 0.3842,0.13306 0.69833,0.44826 0.31059,0.30522 0.50544,0.85372 0.34718,0.97733 -0.14255,1.78025 -0.48973,0.80292 -1.68646,1.22804 z m 3.62512,-1.3612 -2.28562,-7.08028 1.36972,-0.44217 2.28563,7.08028 z m 1.00715,-0.32512 -0.3934,-1.21866 3.60561,-1.16394 0.3934,1.21865 z m 7.17335,-2.12119 q -0.84196,0.25042 -1.60995,0.0813 -0.76085,-0.18224 -1.32928,-0.71983 -0.56843,-0.5376 -0.81281,-1.35927 l -1.30035,-4.37212 1.3796,-0.41033 1.31242,4.4127 q 0.14181,0.47678 0.43712,0.76436 0.30547,0.28455 0.70769,0.37471 0.40935,0.077 0.83541,-0.0497 0.4362,-0.12973 0.71665,-0.41189 0.27743,-0.2923 0.36759,-0.69453 0.1003,-0.40524 -0.0385,-0.87187 l -1.31544,-4.42284 1.38975,-0.41334 1.30337,4.38227 q 0.24438,0.82167 0.0621,1.58253 -0.18525,0.75071 -0.72285,1.31914 -0.53046,0.55526 -1.38257,0.80869 z m 5.94635,-1.81383 -1.92729,-7.02161 1.3982,-0.38378 1.92729,7.02161 z m -3.91646,-5.3123 -0.33896,-1.23491 5.97041,-1.63876 0.33896,1.2349 z m 10.01923,3.6869 -1.80133,-7.05498 1.40484,-0.35869 1.80133,7.05497 z m -3.82077,-5.38154 -0.3168,-1.24078 5.99878,-1.53165 0.3168,1.24078 z m 11.43537,3.62187 q -0.77276,0.18132 -1.51806,0.0627 -0.73742,-0.13135 -1.37348,-0.52564 -0.62575,-0.39671 -1.07139,-0.99874 -0.43776,-0.61475 -0.62151,-1.39781 -0.18616,-0.79336 -0.0548,-1.53078 0.12893,-0.74773 0.52564,-1.37348 0.39428,-0.63606 1.01934,-1.07623 0.62263,-0.45048 1.4263,-0.63906 0.8964,-0.21034 1.72834,-0.0468 0.82952,0.15322 1.46672,0.64508 l -0.72549,1.17034 q -0.44397,-0.36326 -1.00445,-0.48178 -0.56047,-0.11851 -1.16838,0.0241 -0.69033,0.16199 -1.15358,0.59681 -0.45536,0.4221 -0.62602,1.0383 -0.17308,0.60589 -0.004,1.32713 0.16924,0.72124 0.58829,1.20993 0.42694,0.47597 1.00434,0.66661 0.5877,0.18822 1.24712,0.0335 0.68003,-0.15957 1.10627,-0.52048 0.42382,-0.37122 0.56777,-0.91592 0.14154,-0.55501 -0.0253,-1.26595 l 1.06449,0.41334 -3.17042,0.71132 -0.28528,-1.21581 3.68863,-0.86553 0.0459,0.19577 q 0.30463,1.29823 0.0465,2.28282 -0.26057,0.97429 -0.97058,1.60833 -0.70213,0.62132 -1.75308,0.86793 z m 7.53532,-1.68615 q -0.85908,0.18331 -1.61135,-0.0457 -0.74414,-0.24161 -1.26845,-0.82231 -0.52431,-0.58071 -0.7032,-1.41908 l -0.95189,-4.46097 1.40764,-0.30037 0.96072,4.50238 q 0.10381,0.48646 0.37555,0.79641 0.2821,0.30774 0.67597,0.4293 0.40202,0.10901 0.83673,0.0162 0.44506,-0.095 0.74687,-0.35416 0.29959,-0.26954 0.42116,-0.66341 0.13191,-0.39608 0.0303,-0.8722 l -0.96294,-4.51272 1.41799,-0.30257 0.9541,4.47132 q 0.1789,0.83837 -0.0627,1.58251 -0.24382,0.73378 -0.82452,1.25809 -0.57256,0.51175 -1.44198,0.69727 z m 4.76056,-4.26797 -0.2151,-1.10101 1.69307,-0.33076 q 0.51935,-0.10146 0.74907,-0.41592 0.23807,-0.32688 0.14676,-0.79429 -0.0832,-0.42587 -0.42882,-0.6495 -0.33727,-0.23604 -0.85661,-0.13458 l -1.69308,0.33076 -0.22524,-1.15296 1.81772,-0.35511 q 0.70631,-0.13798 1.29083,0.039 0.59288,0.16454 0.97706,0.58552 0.39456,0.41895 0.51632,1.04217 0.12581,0.64399 -0.0821,1.18064 -0.19952,0.52423 -0.68688,0.89981 -0.48939,0.36519 -1.20609,0.5052 z m -0.44211,3.25669 -1.42653,-7.30203 1.41262,-0.27597 1.42653,7.30202 z m 3.98858,-0.77922 -3.02665,-2.68685 1.21923,-0.65874 3.52127,3.01077 z m 4.0296,-0.74548 -1.28209,-7.16754 1.42726,-0.2553 1.28209,7.16754 z m -3.41818,-5.64581 -0.22548,-1.26058 6.09449,-1.09015 0.22549,1.26057 z m 29.29615,1.93514 q -0.87265,0.1004 -1.59961,-0.19947 -0.71765,-0.31159 -1.18409,-0.93973 -0.46643,-0.62813 -0.56442,-1.47976 l -0.52138,-4.5315 1.42989,-0.16452 0.52622,4.57356 q 0.0569,0.49415 0.29775,0.82864 0.25141,0.33328 0.63187,0.49192 0.38976,0.14691 0.83135,0.0961 0.4521,-0.052 0.77728,-0.28119 0.32398,-0.23968 0.48261,-0.62014 0.16915,-0.38167 0.11351,-0.86531 l -0.52744,-4.58408 1.44041,-0.16573 0.5226,4.54202 q 0.098,0.85163 -0.21361,1.56928 -0.31281,0.70714 -0.94094,1.17358 -0.61883,0.45471 -1.502,0.55633 z m 4.39448,-0.59963 -0.71413,-7.40571 1.00077,-0.0965 0.57007,1.39103 0.57597,5.97303 z m 5.11974,-0.49369 -4.94141,-5.265 0.10831,-1.74352 4.94141,5.26499 z m 0,0 -0.54494,-1.35093 -0.58003,-6.01516 1.44321,-0.13917 0.71413,7.4057 z m 2.54308,-0.21968 -0.61724,-7.41442 1.43437,-0.1194 0.61724,7.41441 z m 5.3273,-0.41747 -3.44627,-7.21609 1.55192,-0.10913 2.68167,5.84818 -0.60176,0.0423 1.85793,-6.16742 1.5308,-0.10765 -2.43411,7.62961 z m 5.06958,-0.33882 -0.39464,-7.42959 1.4373,-0.0763 0.39464,7.42958 z m 1.05684,-0.0561 -0.0674,-1.2682 4.11111,-0.21838 0.0674,1.26821 z m -0.16897,-3.18109 -0.0651,-1.22593 3.74121,-0.19872 0.0651,1.22593 z m -0.15831,-2.98028 -0.0674,-1.26821 4.05826,-0.21557 0.0674,1.26821 z m 6.57491,2.74247 -0.0413,-1.12107 1.72391,-0.0636 q 0.5288,-0.0195 0.80461,-0.29442 0.286,-0.2859 0.26845,-0.76182 -0.016,-0.43362 -0.32264,-0.70826 -0.29647,-0.28561 -0.82528,-0.26611 l -1.72391,0.0636 -0.0433,-1.17395 1.85082,-0.0682 q 0.71917,-0.0265 1.26908,0.23916 0.5601,0.2547 0.87416,0.73029 0.32464,0.47519 0.34804,1.10976 0.0242,0.65572 -0.2646,1.15353 -0.27859,0.48684 -0.81841,0.78209 -0.54021,0.28468 -1.26996,0.31158 z m -0.94299,3.14837 -0.27408,-7.43501 1.43835,-0.053 0.27409,7.43501 z m 4.06123,-0.14972 -2.57218,-3.12468 1.30681,-0.46121 3.01043,3.52156 z m 2.55989,-0.0742 -0.18455,-7.43777 1.43888,-0.0357 0.18456,7.43777 z m 4.80368,-0.0985 -0.096,-7.28068 1.44978,-0.0191 0.096,7.28068 z m -2.45163,-6.12771 -0.0169,-1.28047 6.19069,-0.0816 0.0169,1.28047 z m 9.16868,3.21957 -2.86076,-4.58321 1.66157,0.007 2.21874,3.67053 -0.95249,-0.004 2.24738,-3.65306 1.6404,0.006 -2.92826,4.56057 z m -0.20171,2.86731 0.0142,-3.64063 1.4499,0.006 -0.0142,3.64063 z"
           id="text21"
           transform="matrix(1.5029766,0.22277133,-0.22277133,1.5029766,57.534193,-291.21394)"
           aria-label="SLUTTGURT         UNIVERITY" /><path
           style="font-weight:600;font-size:10.5833px;line-height:1;font-family:Outfit;-inkscape-font-specification:'Outfit Semi-Bold';letter-spacing:0px;word-spacing:0px;fill:#ffffff;stroke-width:5;stroke-linejoin:bevel"
           d="m 125.6636,438.72205 -2.53793,-6.99381 1.3331,-0.48376 2.53793,6.99381 z m -3.48483,-5.32168 -0.426,-1.17393 2.60651,-0.94586 0.426,1.17393 z m 6.77816,4.16006 1.15596,-3.70672 0.44217,-0.31403 q -0.0438,0.27103 -0.14455,0.50517 -0.094,0.22077 -0.30505,0.39118 -0.21106,0.17042 -0.60279,0.30045 -0.62275,0.20671 -1.24175,0.0888 -0.61229,-0.1313 -1.09703,-0.55025 -0.48475,-0.41896 -0.70813,-1.09193 -0.22672,-0.68302 -0.0719,-1.35887 0.15147,-0.68589 0.62402,-1.21073 0.47255,-0.52484 1.18571,-0.76155 0.7232,-0.24006 1.40575,-0.0986 0.6926,0.13809 1.20744,0.58051 0.52488,0.43909 0.7516,1.12211 0.31006,0.93413 -0.0261,2.10506 l -1.01846,3.48267 z m 0.48024,-3.96193 q 0.35156,-0.11669 0.56941,-0.36742 0.21786,-0.25073 0.27517,-0.58198 0.064,-0.34463 -0.0527,-0.69619 -0.12336,-0.37164 -0.37742,-0.59954 -0.24402,-0.23123 -0.56856,-0.30193 -0.32788,-0.0807 -0.67944,0.036 -0.35155,0.11669 -0.57612,0.3808 -0.21785,0.25073 -0.28521,0.58532 -0.0573,0.33125 0.0661,0.7029 0.12002,0.36159 0.36404,0.59283 0.25407,0.2279 0.58866,0.29525 0.33458,0.0674 0.67609,-0.046 z m 6.53979,1.81269 q -0.73866,0.22644 -1.42332,0.15959 -0.68776,-0.077 -1.24139,-0.43858 l 0.6346,-1.17972 q 0.29543,0.24152 0.72565,0.30888 0.44034,0.0643 0.89567,-0.0753 0.41486,-0.12718 0.67189,-0.37201 0.26714,-0.24794 0.35541,-0.57387 0.0953,-0.33915 -0.0195,-0.71354 -0.12097,-0.39462 -0.38686,-0.61199 -0.25576,-0.22046 -0.59263,-0.27217 -0.33686,-0.0517 -0.70113,0.06 -0.3845,0.11787 -0.66716,0.31522 -0.27564,0.18412 -0.49382,0.48346 l -0.18581,-0.895 q 0.13022,-0.26131 0.30548,-0.44787 0.17217,-0.19668 0.41664,-0.33804 0.25148,-0.15458 0.61575,-0.26625 0.77913,-0.23885 1.39443,-0.0733 0.62232,0.15238 1.05992,0.60491 0.4345,0.44241 0.62992,1.07988 0.21403,0.69818 0.0375,1.35004 -0.17653,0.65186 -0.6976,1.15475 -0.51405,0.48967 -1.33365,0.74092 z m -2.24258,-2.91009 -0.85622,-0.44596 -0.68122,-3.37766 1.24458,-0.38153 0.65625,3.44066 z m -0.95893,-2.69478 -0.57851,-1.12884 3.90575,-1.19733 0.36603,1.19399 z m 8.81421,3.93921 q -0.74286,0.21222 -1.42611,0.13224 -0.68616,-0.0901 -1.23274,-0.46233 l 0.65712,-1.16732 q 0.29074,0.24715 0.71959,0.32276 0.43902,0.0727 0.89695,-0.0581 0.41722,-0.11919 0.6789,-0.35905 0.27186,-0.24276 0.36636,-0.56694 0.10178,-0.33726 -0.006,-0.71378 -0.11337,-0.39687 -0.37504,-0.6193 -0.25148,-0.22534 -0.58729,-0.2835 -0.33581,-0.0582 -0.70215,0.0465 -0.3867,0.11047 -0.67309,0.30235 -0.27912,0.1788 -0.50301,0.47389 l -0.1686,-0.89841 q 0.13521,-0.25875 0.31402,-0.44192 0.17591,-0.19334 0.42305,-0.32998 0.25441,-0.14972 0.62075,-0.25438 0.78357,-0.22384 1.39558,-0.0465 0.61928,0.1643 1.04812,0.62514 0.42592,0.45067 0.60907,1.09178 0.20059,0.70215 0.0116,1.35051 -0.18901,0.64836 -0.71964,1.14115 -0.52336,0.47971 -1.34763,0.71518 z m -2.1863,-2.9526 -0.8475,-0.46231 -0.61626,-3.39012 1.25167,-0.35757 0.59009,3.45263 z m -0.90703,-2.71269 -0.55673,-1.13974 3.92801,-1.12213 0.34304,1.20079 z"
           id="text23"
           transform="rotate(17.383758,300.38667,800.46477)"
           aria-label="1955" /></g><path
         id="path23"
         style="fill:#ffffff;stroke-width:4.99999;stroke-linejoin:bevel"
         inkscape:transform-center-x="0.034211075"
         inkscape:transform-center-y="-0.68828812"
         transform="matrix(0.37932122,-0.01935475,0.01935475,0.37932122,153.0074,232.80919)"
         d="m 248.21778,418.71046 -11.40022,-8.34824 -11.95094,7.49987 4.41678,-13.422 -10.82584,-9.04843 14.12994,0.053 5.2602,-13.09211 4.31601,13.45475 14.07682,0.95706 -11.4625,8.26251 z" /></g><g
       id="g39"
       transform="translate(0,-11.159085)"><g
         id="g29"
         transform="matrix(1.2456167,0,0,0.83777755,-62.980438,44.283167)"><path
           style="fill:#ffffff;fill-opacity:1;stroke:none;stroke-width:4.99999;stroke-linecap:butt;stroke-linejoin:bevel;stroke-dasharray:none;stroke-opacity:1"
           d="m 330.18159,375.80647 c 0,0 -32.44366,-43.02897 -79.38892,-4.26884 0.0485,0.96523 79.38892,4.26884 79.38892,4.26884 z"
           id="path24"
           sodipodi:nodetypes="ccc" /><path
           id="path25"
           style="color:#000000;fill:#818181;fill-opacity:1;stroke-linejoin:bevel;-inkscape-stroke:none"
           d="m 285.08441,366.53835 c -3.12887,-0.0252 -6.12559,0.0592 -8.95346,0.22118 -7.54099,0.432 -13.88362,1.41922 -18.34979,2.37349 -2.23307,0.47715 -3.99783,0.94559 -5.21105,1.33377 -0.29043,0.0929 -0.54493,0.18014 -0.77153,0.26304 -0.33553,0.26988 -0.6691,0.52943 -1.00614,0.8077 0.006,0.11357 1.18628,0.26134 3.12901,0.43046 1.07736,0.0325 2.1417,0.0642 3.75998,0.10232 4.3913,0.10342 10.65729,0.24221 18.14256,0.49403 13.80177,0.46433 31.75412,1.32391 49.75924,3.04529 1.23778,0.0523 4.59817,0.19689 4.59817,0.19689 0,0 -0.1388,-0.17825 -0.32195,-0.40566 -14.26313,-6.10567 -28.87727,-8.3955 -41.60366,-8.79946 -1.07097,-0.034 -2.12843,-0.0546 -3.17138,-0.0631 z m -0.005,0.50023 c 12.37699,0.10164 26.82968,1.9285 41.10085,7.40937 -18.2801,-4.7597 -36.47698,-5.76888 -50.41708,-5.48494 -7.48755,0.15251 -13.74638,0.67571 -18.13274,1.19114 -1.71025,0.20096 -3.03806,0.39426 -4.14135,0.57051 1.14191,-0.33673 2.56318,-0.71021 4.39559,-1.10174 4.44051,-0.94882 10.76186,-1.9348 18.27537,-2.36523 2.81757,-0.16141 5.80245,-0.24471 8.91936,-0.21911 z m -6.44716,2.38538 c 12.83503,-0.0881 28.79561,0.97671 44.9554,4.89221 -17.19668,-2.95585 -34.30533,-3.8067 -47.61363,-3.87263 -9.53441,-0.0472 -16.73664,0.29619 -21.00595,0.56069 0.80724,-0.11381 1.70147,-0.23215 2.72076,-0.35192 4.37067,-0.51357 10.61633,-1.03744 18.08624,-1.18959 0.93372,-0.019 1.88644,-0.0321 2.85718,-0.0388 z m -2.64996,1.52084 c 13.60229,0.0677 31.17688,0.9586 48.74173,4.07985 -17.71598,-1.66559 -35.3081,-2.50328 -48.88436,-2.96002 -7.48846,-0.25193 -13.75606,-0.39115 -18.1467,-0.49455 -1.12604,-0.0265 -1.74516,-0.0475 -2.61276,-0.0708 4.27644,-0.26297 11.43617,-0.60158 20.90209,-0.55449 z" /></g><g
         id="g30"
         transform="matrix(-1.2456167,0,0,0.83777755,561.35582,44.283167)"><path
           style="fill:#ffffff;fill-opacity:1;stroke:none;stroke-width:4.99999;stroke-linecap:butt;stroke-linejoin:bevel;stroke-dasharray:none;stroke-opacity:1"
           d="m 330.18159,375.80647 c 0,0 -32.44366,-43.02897 -79.38892,-4.26884 0.0485,0.96523 79.38892,4.26884 79.38892,4.26884 z"
           id="path29"
           sodipodi:nodetypes="ccc" /><path
           id="path30"
           style="color:#000000;fill:#818181;fill-opacity:1;stroke-linejoin:bevel;-inkscape-stroke:none"
           d="m 285.08441,366.53835 c -3.12887,-0.0252 -6.12559,0.0592 -8.95346,0.22118 -7.54099,0.432 -13.88362,1.41922 -18.34979,2.37349 -2.23307,0.47715 -3.99783,0.94559 -5.21105,1.33377 -0.29043,0.0929 -0.54493,0.18014 -0.77153,0.26304 -0.33553,0.26988 -0.6691,0.52943 -1.00614,0.8077 0.006,0.11357 1.18628,0.26134 3.12901,0.43046 1.07736,0.0325 2.1417,0.0642 3.75998,0.10232 4.3913,0.10342 10.65729,0.24221 18.14256,0.49403 13.80177,0.46433 31.75412,1.32391 49.75924,3.04529 1.23778,0.0523 4.59817,0.19689 4.59817,0.19689 0,0 -0.1388,-0.17825 -0.32195,-0.40566 -14.26313,-6.10567 -28.87727,-8.3955 -41.60366,-8.79946 -1.07097,-0.034 -2.12843,-0.0546 -3.17138,-0.0631 z m -0.005,0.50023 c 12.37699,0.10164 26.82968,1.9285 41.10085,7.40937 -18.2801,-4.7597 -36.47698,-5.76888 -50.41708,-5.48494 -7.48755,0.15251 -13.74638,0.67571 -18.13274,1.19114 -1.71025,0.20096 -3.03806,0.39426 -4.14135,0.57051 1.14191,-0.33673 2.56318,-0.71021 4.39559,-1.10174 4.44051,-0.94882 10.76186,-1.9348 18.27537,-2.36523 2.81757,-0.16141 5.80245,-0.24471 8.91936,-0.21911 z m -6.44716,2.38538 c 12.83503,-0.0881 28.79561,0.97671 44.9554,4.89221 -17.19668,-2.95585 -34.30533,-3.8067 -47.61363,-3.87263 -9.53441,-0.0472 -16.73664,0.29619 -21.00595,0.56069 0.80724,-0.11381 1.70147,-0.23215 2.72076,-0.35192 4.37067,-0.51357 10.61633,-1.03744 18.08624,-1.18959 0.93372,-0.019 1.88644,-0.0321 2.85718,-0.0388 z m -2.64996,1.52084 c 13.60229,0.0677 31.17688,0.9586 48.74173,4.07985 -17.71598,-1.66559 -35.3081,-2.50328 -48.88436,-2.96002 -7.48846,-0.25193 -13.75606,-0.39115 -18.1467,-0.49455 -1.12604,-0.0265 -1.74516,-0.0475 -2.61276,-0.0708 4.27644,-0.26297 11.43617,-0.60158 20.90209,-0.55449 z" /></g><circle
         style="fill:#ffffff;fill-opacity:1;stroke:#8e632b;stroke-width:2.49123;stroke-linecap:butt;stroke-linejoin:bevel;stroke-dasharray:none;stroke-opacity:1"
         id="path31"
         cx="249.18408"
         cy="351.35712"
         r="4.4829941" /><path
         style="fill:none;fill-opacity:1;stroke:#8e632b;stroke-width:2.49123;stroke-linecap:round;stroke-linejoin:bevel;stroke-dasharray:none;stroke-opacity:1"
         d="m 150.07636,361.3003 99.1077,-4.35068 98.71392,3.84538"
         id="path32" /></g></g></svg>
