<?xml version="1.0" encoding="UTF-8" standalone="no"?>
<!-- Created with Inkscape (http://www.inkscape.org/) -->

<svg
   width="500mm"
   height="500mm"
   viewBox="0 0 500 500"
   version="1.1"
   id="svg1"
   inkscape:version="1.3.2 (091e20e, 2023-11-25)"
   sodipodi:docname="Social Media Website Logo.svg"
   xmlns:inkscape="http://www.inkscape.org/namespaces/inkscape"
   xmlns:sodipodi="http://sodipodi.sourceforge.net/DTD/sodipodi-0.dtd"
   xmlns="http://www.w3.org/2000/svg"
   xmlns:svg="http://www.w3.org/2000/svg">
  <sodipodi:namedview
     id="namedview1"
     pagecolor="#ffffff"
     bordercolor="#000000"
     borderopacity="0.25"
     inkscape:showpageshadow="2"
     inkscape:pageopacity="0.0"
     inkscape:pagecheckerboard="0"
     inkscape:deskcolor="#d1d1d1"
     inkscape:document-units="mm"
     showgrid="false"
     inkscape:zoom="0.25982083"
     inkscape:cx="946.80629"
     inkscape:cy="944.88189"
     inkscape:window-width="1356"
     inkscape:window-height="697"
     inkscape:window-x="0"
     inkscape:window-y="0"
     inkscape:window-maximized="1"
     inkscape:current-layer="layer1" />
  <defs
     id="defs1" />
  <g
     inkscape:label="Layer 1"
     inkscape:groupmode="layer"
     id="layer1">
    <path
       id="path1"
       style="fill:#38dc00;fill-opacity:1;stroke-width:4.99999;stroke-linecap:round;stroke-linejoin:round"
       inkscape:transform-center-x="-22.143532"
       inkscape:transform-center-y="-3.6249144e-06"
       d="m 301.08705,112.96831 c -8.28963,-0.14569 -16.30935,2.70998 -23.43217,7.44813 -12.63937,8.40779 -22.65532,22.69673 -27.12909,37.90775 l -29.10933,-16.80621 -1e-5,21.05092 c -11.85665,-18.26164 -32.33162,-27.6815 -47.16663,-27.15132 -8.76522,0.31326 -17.03039,4.20922 -22.94536,11.60343 -4.02879,5.03632 -6.96675,11.6437 -8.43308,19.77347 -6.21849,0.71858 -11.05255,6.00361 -11.05255,12.41372 -1e-5,6.89999 5.60001,12.50002 12.50001,12.50002 6.89998,-1e-5 12.50001,-5.60003 12.50001,-12.50002 0,-5.54022 -3.77356,-10.40388 -8.94106,-11.97033 1.3642,-7.21354 3.96562,-12.88611 7.33134,-17.09354 5.0467,-6.30879 11.79148,-9.46316 19.21847,-9.7286 14.4111,-0.51503 37.26733,10.28447 46.98886,32.675 v 45.13472 l -1e-5,76.70747 66.43057,-38.35373 66.43057,-38.35374 -66.43056,-38.35372 -32.83986,-18.96009 c 4.00292,-14.46605 13.6456,-28.50067 25.41706,-36.33111 6.88666,-4.58106 14.41577,-7.05624 21.994,-6.55464 7.57824,0.5016 15.32578,3.93157 22.83789,11.70885 5.41881,5.6101 8.13208,16.41379 9.96424,26.46401 -5.43045,2.08613 -8.83292,7.77 -7.83622,13.72888 1.13833,6.80544 7.58592,11.40486 14.39138,10.26656 6.80544,-1.13832 11.40486,-7.58541 10.26655,-14.39086 -0.96761,-5.78489 -5.98153,-10.12525 -11.74399,-10.41745 -1.72183,-10.29858 -4.50912,-21.94327 -11.44632,-29.12536 -8.20819,-8.49791 -17.22568,-12.63535 -26.10332,-13.22296 -0.55485,-0.0367 -1.10875,-0.0595 -1.66139,-0.0692 z" />
    <text
       xml:space="preserve"
       style="font-style:normal;font-variant:normal;font-weight:normal;font-stretch:normal;font-size:68.6785px;line-height:1;font-family:Outfit;-inkscape-font-specification:Outfit;letter-spacing:0px;word-spacing:0px;fill:#38dc00;fill-opacity:1;stroke:none;stroke-width:32.4466;stroke-linecap:round;stroke-linejoin:round;stroke-dasharray:none;stroke-opacity:1"
       x="154.26515"
       y="387.3407"
       id="text10"><tspan
         sodipodi:role="line"
         id="tspan10"
         style="font-style:normal;font-variant:normal;font-weight:normal;font-stretch:normal;font-family:Outfit;-inkscape-font-specification:Outfit;fill:#38dc00;fill-opacity:1;stroke-width:32.4466"
         x="154.26515"
         y="387.3407">LINGO</tspan></text>
  </g>
</svg>
