<?xml version="1.0" encoding="UTF-8" standalone="no"?>
<!-- Created with Inkscape (http://www.inkscape.org/) -->

<svg
   width="500mm"
   height="500mm"
   viewBox="0 0 500 500"
   version="1.1"
   id="svg1"
   inkscape:version="1.3.2 (091e20e, 2023-11-25)"
   xml:space="preserve"
   sodipodi:docname="TROTICA.svg"
   xmlns:inkscape="http://www.inkscape.org/namespaces/inkscape"
   xmlns:sodipodi="http://sodipodi.sourceforge.net/DTD/sodipodi-0.dtd"
   xmlns="http://www.w3.org/2000/svg"
   xmlns:svg="http://www.w3.org/2000/svg"><sodipodi:namedview
     id="namedview1"
     pagecolor="#ffffff"
     bordercolor="#000000"
     borderopacity="0.25"
     inkscape:showpageshadow="2"
     inkscape:pageopacity="0.0"
     inkscape:pagecheckerboard="0"
     inkscape:deskcolor="#d1d1d1"
     inkscape:document-units="mm"
     showgrid="false"
     showguides="true"
     inkscape:zoom="0.51964167"
     inkscape:cx="950.6551"
     inkscape:cy="1132.5112"
     inkscape:window-width="1356"
     inkscape:window-height="697"
     inkscape:window-x="0"
     inkscape:window-y="0"
     inkscape:window-maximized="1"
     inkscape:current-layer="layer1" /><defs
     id="defs1" /><g
     inkscape:label="Layer 1"
     inkscape:groupmode="layer"
     id="layer1"><g
       id="g7"
       transform="translate(-3.665293)"><g
         id="g6"
         style="fill:#000000;fill-opacity:1"><path
           id="path5"
           style="color:#000000;fill:#000000;fill-opacity:1;stroke-width:1;stroke-linecap:square;-inkscape-stroke:none"
           d="m 311.01325,75.350164 -37.58321,34.810086 -73.16107,7.36896 -49.04593,2.59535 -1.42513,0.7238 c 0,0 -5.68065,2.85582 -11.43634,7.73037 -5.75569,4.87452 -12.639,12.19096 -12.82241,22.6607 -0.18184,10.37852 5.9187,18.39302 11.17552,24.31051 5.25685,5.91747 10.53671,9.89787 10.53671,9.89787 l 2.01514,1.52869 2.52501,0.008 c 0,0 7.78353,0.0274 17.87636,1.36655 10.09281,1.3391 22.32951,4.19015 29.97397,8.7052 l 6.5084,3.84663 7.6903,-13.0207 -6.50839,-3.84759 c -10.99282,-6.49269 -24.59215,-9.20209 -35.67456,-10.67249 -9.31068,-1.23531 -14.43815,-1.22104 -16.64655,-1.25909 -1.05746,-0.84026 -3.51225,-2.67643 -6.99191,-6.59338 -4.16328,-4.6865 -7.42002,-10.69877 -7.36213,-14.00334 0.0563,-3.21337 3.23405,-7.78936 7.48033,-11.38555 3.73085,-3.1597 6.62146,-4.62967 7.4754,-5.08716 l 45.81567,-2.42244 78.56274,-7.91498 8.97091,-8.31058 -1.92723,11.74792 2.10013,2.62466 c 5.16872,6.46773 10.48732,18.675 14.04436,28.9659 2.31822,6.70688 2.7545,8.85937 3.63271,12.13867 l -95.03799,35.07633 c 8.14933,7.77803 11.88415,17.34657 14.33105,27.43751 l 97.38281,-1.1261 6.53087,24.37789 h -99.29136 l -20.62567,51.7624 h 128.42688 l 5.24538,19.57794 H 202.30071 l -6.02488,15.12177 H 368.84839 L 355.49851,294.26855 H 236.56379 l 5.76701,-21.51981 h 107.39875 l -14.63827,-54.62049 -86.53242,1.80332 -5.03637,-9.40475 81.53027,-29.12417 -1.60196,-6.60901 c 0,0 -2.17551,-9.00015 -5.98091,-20.00966 -3.43296,-9.93189 -8.10795,-21.39917 -14.48297,-30.47213 z"
           sodipodi:nodetypes="cccccssscccsccccscsssccccccscccccccccccccccccccccscc" /><path
           style="fill:#000000;fill-opacity:1;stroke:none;stroke-width:4.99998;stroke-linecap:square;stroke-linejoin:miter;stroke-dasharray:none"
           d="m 233.95881,139.84234 c 0,0 14.47471,8.92017 22.94601,7.49164 -0.17163,-0.3051 -6.02028,-9.69526 -10.20359,-12.21737 -4.18331,-2.52212 -12.74242,4.72573 -12.74242,4.72573 z"
           id="path2" /></g><path
         sodipodi:type="star"
         style="fill:none;fill-opacity:1;stroke:none;stroke-width:1.8676;stroke-linecap:square;stroke-linejoin:miter;stroke-dasharray:none"
         id="path3"
         inkscape:flatsided="false"
         sodipodi:sides="3"
         sodipodi:cx="224.06418"
         sodipodi:cy="134.85896"
         sodipodi:r1="9.8743639"
         sodipodi:r2="4.8604794"
         sodipodi:arg1="1.0471976"
         sodipodi:arg2="2.0943951"
         inkscape:rounded="0"
         inkscape:randomized="0"
         d="m 229.00136,143.41041 -7.36742,-4.34215 -7.44413,-4.2093 7.44413,-4.2093 7.36742,-4.34215 -0.0767,8.55145 z"
         inkscape:transform-center-y="-4.3379554"
         transform="matrix(-1.4457058,3.207338,-1.8573693,-0.8372082,863.17423,-492.18251)"
         inkscape:transform-center-x="4.3727137" /><text
         xml:space="preserve"
         style="font-style:normal;font-variant:normal;font-weight:bold;font-stretch:normal;font-size:35.2671px;line-height:1;font-family:Outfit;-inkscape-font-specification:'Outfit Bold';letter-spacing:7.66114px;word-spacing:0px;opacity:1;fill:#000000;fill-opacity:1;stroke:none;stroke-width:8;stroke-linecap:square;stroke-linejoin:miter;stroke-dasharray:none;stroke-opacity:1"
         x="182.06427"
         y="404.12613"
         id="text6"><tspan
           sodipodi:role="line"
           id="tspan6"
           style="font-style:normal;font-variant:normal;font-weight:bold;font-stretch:normal;font-family:Outfit;-inkscape-font-specification:'Outfit Bold';letter-spacing:7.66114px;fill:#000000;fill-opacity:1;stroke:none;stroke-width:8"
           x="182.06427"
           y="404.12613">TROTICA</tspan></text></g></g></svg>
