<?xml version="1.0" encoding="UTF-8" standalone="no"?>
<!-- Created with Inkscape (http://www.inkscape.org/) -->

<svg
   width="500mm"
   height="500mm"
   viewBox="0 0 500 500"
   version="1.1"
   id="svg1"
   inkscape:version="1.3.2 (091e20e, 2023-11-25)"
   sodipodi:docname="Twitch.svg"
   xmlns:inkscape="http://www.inkscape.org/namespaces/inkscape"
   xmlns:sodipodi="http://sodipodi.sourceforge.net/DTD/sodipodi-0.dtd"
   xmlns="http://www.w3.org/2000/svg"
   xmlns:svg="http://www.w3.org/2000/svg">
  <sodipodi:namedview
     id="namedview1"
     pagecolor="#ffffff"
     bordercolor="#000000"
     borderopacity="0.25"
     inkscape:showpageshadow="2"
     inkscape:pageopacity="0.0"
     inkscape:pagecheckerboard="0"
     inkscape:deskcolor="#d1d1d1"
     inkscape:document-units="mm"
     showgrid="false"
     inkscape:zoom="0.25982083"
     inkscape:cx="944.88189"
     inkscape:cy="944.88189"
     inkscape:window-width="1356"
     inkscape:window-height="697"
     inkscape:window-x="0"
     inkscape:window-y="0"
     inkscape:window-maximized="1"
     inkscape:current-layer="layer1" />
  <defs
     id="defs1" />
  <g
     inkscape:label="Layer 1"
     inkscape:groupmode="layer"
     id="layer1">
    <g
       id="g10"
       transform="matrix(0.47544189,0,0,0.48956641,127.97342,93.173559)">
      <path
         id="path6"
         style="fill:#131313;fill-opacity:1;stroke-width:11.5398;stroke-linecap:round;stroke-linejoin:round"
         d="M 134.61292,83.420532 V 377.20944 h 76.70306 V 478.53998 L 313.63763,377.20944 h 62.04394 L 474.2153,278.67572 V 83.420532 Z" />
      <g
         id="g9">
        <path
           id="path3"
           style="fill:#131313;fill-opacity:1;stroke-width:11.5398;stroke-linecap:round;stroke-linejoin:round"
           d="M 36.532565,181.88432 V 475.67323 H 113.23562 V 577.00377 L 215.55727,475.67323 h 62.04394 l 98.53373,-98.53372 V 181.88432 Z" />
        <path
           id="path4"
           style="fill:#131313;fill-opacity:1;stroke-width:11.5398;stroke-linecap:round;stroke-linejoin:round"
           d="M 130.41788,62.358984 36.258769,156.51861 V 356.14777 H 112.9621 V 457.47854 L 215.2835,356.14777 h 62.04376 L 375.8613,257.61425 V 62.358984 Z" />
        <path
           id="path5"
           style="fill:#131313;fill-opacity:1;stroke-width:11.5398;stroke-linecap:round;stroke-linejoin:round"
           d="M 138.36441,62.358897 V 356.1478 h 76.70306 V 457.47834 L 317.38912,356.1478 h 62.04394 l 98.53373,-98.53372 V 62.358897 Z" />
        <path
           id="path7"
           style="fill:#131313;fill-opacity:1;stroke-width:11.5398;stroke-linecap:round;stroke-linejoin:round"
           d="M 138.46845,79.498433 V 373.28734 h 76.70306 V 474.61788 L 317.49316,373.28734 h 62.04394 l 98.53373,-98.53372 V 79.498433 Z" />
      </g>
    </g>
    <path
       id="rect2"
       style="fill:#ffffff;fill-opacity:1;stroke-width:4.77759;stroke-linecap:round;stroke-linejoin:round"
       d="m 192.6069,141.35471 v 121.63202 h 31.75596 v 41.95202 l 42.36235,-41.95202 h 25.68692 l 40.7941,-40.7941 v -80.83792 z" />
    <path
       id="rect9"
       style="fill:#131313;fill-opacity:1;stroke-width:4.29092;stroke-linecap:round;stroke-linejoin:round"
       d="m 235.77328,164.6685 -10.82621,10.8257 11.48095,11.48147 -11.48095,11.48095 10.82621,10.8257 11.48096,-11.48096 11.48095,11.48096 10.8257,-10.8257 -11.48096,-11.48095 11.48095,-11.48147 -10.82569,-10.8257 -11.48095,11.48096 z" />
    <path
       id="path1"
       style="fill:#131313;fill-opacity:1;stroke-width:4.29092;stroke-linecap:round;stroke-linejoin:round"
       d="m 291.44128,164.6685 -10.82621,10.8257 11.48095,11.48147 -11.48095,11.48095 10.82621,10.8257 11.48096,-11.48096 11.48095,11.48096 10.8257,-10.8257 -11.48096,-11.48095 11.48095,-11.48147 -10.82569,-10.8257 -11.48095,11.48096 z" />
  </g>
</svg>
