<?xml version="1.0" encoding="UTF-8" standalone="no"?>
<!-- Created with Inkscape (http://www.inkscape.org/) -->

<svg
   width="500mm"
   height="500mm"
   viewBox="0 0 500 500"
   version="1.1"
   id="svg1"
   inkscape:version="1.3.2 (091e20e, 2023-11-25)"
   sodipodi:docname="Wrong Triangle.svg"
   xmlns:inkscape="http://www.inkscape.org/namespaces/inkscape"
   xmlns:sodipodi="http://sodipodi.sourceforge.net/DTD/sodipodi-0.dtd"
   xmlns="http://www.w3.org/2000/svg"
   xmlns:svg="http://www.w3.org/2000/svg">
  <sodipodi:namedview
     id="namedview1"
     pagecolor="#ffffff"
     bordercolor="#000000"
     borderopacity="0.25"
     inkscape:showpageshadow="2"
     inkscape:pageopacity="0.0"
     inkscape:pagecheckerboard="0"
     inkscape:deskcolor="#d1d1d1"
     inkscape:document-units="mm"
     showgrid="false"
     inkscape:zoom="0.25982083"
     inkscape:cx="946.80629"
     inkscape:cy="944.88189"
     inkscape:window-width="1356"
     inkscape:window-height="697"
     inkscape:window-x="0"
     inkscape:window-y="0"
     inkscape:window-maximized="1"
     inkscape:current-layer="layer1" />
  <defs
     id="defs1">
    <inkscape:path-effect
       effect="copy_rotate"
       starting_point="142.61752,168.51094"
       origin="113.71761,184.25955"
       id="path-effect7"
       is_visible="true"
       lpeversion="1.2"
       lpesatellites=""
       method="normal"
       num_copies="12"
       starting_angle="28.587567"
       rotation_angle="30"
       gap="-0.01"
       copies_to_360="true"
       mirror_copies="false"
       split_items="false"
       link_styles="false" />
  </defs>
  <g
     inkscape:label="Layer 1"
     inkscape:groupmode="layer"
     id="layer1">
    <g
       id="g7">
      <circle
         style="fill:#dcd422;fill-opacity:1;stroke:none;stroke-width:16.2151;stroke-linecap:square;paint-order:stroke fill markers"
         id="path1"
         cx="255.62022"
         cy="-253.81795"
         r="144.09079"
         transform="rotate(90)" />
      <path
         id="rect7"
         style="fill:#c8c11f;fill-opacity:1;stroke:none;stroke-width:3;stroke-linecap:square;stroke-dasharray:none;stroke-opacity:1;paint-order:stroke fill markers"
         d="M 111.04283 274.01583 A 144.09079 144.09079 0 0 0 253.8181 399.711 A 144.09079 144.09079 0 0 0 396.59285 274.01583 L 111.04283 274.01583 z " />
      <path
         d="m 242.07285,418.71665 5.14828,0.54956 -0.22313,6.59456 0.13233,0.004 q 0.52859,0.04 0.96969,0.0549 2.07321,0.0702 2.92326,-0.25438 0.85004,-0.32453 0.9774,-2.13083 0.0318,-0.28598 0.068,-0.70428 0.0142,-0.41906 0.0512,-0.85942 0.0142,-0.41905 0.0239,-0.70577 l 0.0104,-0.30878 -10.9112,-8.38445 0.20224,-5.97701 q 0.0672,-1.98499 1.04871,-3.58575 0.98154,-1.60075 2.75676,-2.51224 1.75315,-0.91223 4.2013,-0.8294 l 9.3956,0.3179 -0.38133,11.27031 -5.14828,-0.54956 -0.45155,-5.5796 q -0.81605,-0.0276 -1.47697,-0.0721 -0.46241,-0.0377 -0.85941,-0.0512 -1.05866,-0.0358 -1.79096,0.0719 -0.73306,0.12976 -1.02459,0.9148 -0.29227,0.8071 -0.35496,2.65975 l -0.0134,0.397 10.90598,8.53884 -0.22984,6.79306 q -0.0672,1.98499 -1.02666,3.58649 -0.98155,1.60076 -2.75676,2.51224 -1.77521,0.91149 -4.22336,0.82865 l -9.13093,-0.30894 z m -24.80686,1.59203 2.96233,-16.97863 q 0.34137,-1.95657 1.53512,-3.40599 1.19374,-1.44943 3.07806,-2.10632 1.88432,-0.6569 4.29742,-0.23588 l 10.13066,1.76754 -5.43537,31.15286 -10.13066,-1.76754 q -2.41309,-0.42102 -3.96363,-1.67721 -1.55054,-1.25619 -2.18292,-3.02423 -0.63238,-1.76803 -0.29101,-3.7246 z m 14.69424,-16.81344 q -0.60492,-0.12794 -1.10493,-0.21518 -2.26092,-0.39447 -3.10146,-0.0707 -0.98235,0.36623 -1.38821,2.69237 l -2.45407,14.06553 q -0.40585,2.32614 0.39445,3.0034 0.68123,0.58929 2.94215,0.98376 0.50001,0.0872 1.11251,0.1717 z m -43.10592,15.4489 -7.41195,-2.73468 10.94635,-29.66852 6.08692,2.24579 -8.64709,23.43669 5.53022,-2.87573 7.05058,-19.10959 6.08692,2.2458 -7.05059,19.10959 2.33722,5.77846 8.64708,-23.43669 6.06621,2.23816 -10.94635,29.66852 -7.39126,-2.72704 -3.5973,-7.6547 z m -25.95713,-12.95631 -5.57523,-3.31826 13.36332,-22.45265 11.36911,-1.06604 4.48429,10.50163 -10.56425,17.74973 -0.75103,5.92188 -7.62328,-4.53721 11.71548,-19.68401 -1.35824,-3.06831 -3.34468,0.26924 z m -13.61126,-15.22764 0.0173,0.0137 11.16414,-14.07284 q 1.52238,-1.91902 1.15643,-2.91355 -0.31708,-0.84309 -2.11508,-2.26947 -0.41493,-0.32916 -0.91272,-0.6959 l -2.54141,-2.01613 3.31907,-4.18381 5.53232,4.38885 q 1.91902,1.52238 2.68134,3.36657 0.76233,1.84419 0.47352,3.69958 -0.30609,1.84167 -1.54045,3.39763 l -15.18268,19.13836 -11.61787,-9.21658 3.40136,-4.28755 z m -22.16543,-13.38708 -4.49922,-4.64385 22.71206,-22.00469 4.49921,4.64385 -11.45904,11.10216 -1.19825,7.67499 15.9127,-15.4171 4.43779,4.58045 -22.74375,22.0354 -4.32981,-4.50071 0.0193,-0.23379 1.18191,-7.62844 z m -8.89095,-30.35171 2.74445,4.39031 -5.32696,3.89379 0.0781,0.1069 q 0.29473,0.4406 0.55518,0.79692 1.22413,1.67469 2.00405,2.14334 0.77992,0.46864 2.27989,-0.54578 0.24463,-0.15148 0.59616,-0.38109 0.3385,-0.24743 0.70784,-0.49007 0.3385,-0.24743 0.57011,-0.41673 l 0.24942,-0.18232 -0.13534,-13.7599 4.82811,-3.52916 q 1.60343,-1.17204 3.46876,-1.38745 1.86533,-0.21542 3.67803,0.61904 1.79967,0.81664 3.24519,2.79421 l 5.54767,7.58957 -9.10392,6.65461 -2.74445,-4.39031 4.11195,-3.79839 q -0.48184,-0.65918 -0.8547,-1.20668 -0.25566,-0.38716 -0.49007,-0.70785 -0.62509,-0.85516 -1.16174,-1.36495 -0.55446,-0.49676 -1.3521,-0.24174 -0.81547,0.26805 -2.312,1.36196 l -0.32069,0.23441 0.0106,13.85106 -5.4873,4.011 q -1.60343,1.17204 -3.45574,1.40527 -1.86533,0.21541 -3.67802,-0.61904 -1.8127,-0.83446 -3.25822,-2.81203 l -5.3914,-7.37578 z m 7.59595,-25.1836 -5.87519,6.83364 q 1.66373,0.86042 2.95706,1.54391 l 5.75599,-3.08826 3.05696,5.69765 -27.86598,14.95094 -3.05696,-5.69765 15.75118,-8.45099 q -2.20298,-1.07196 -5.47878,-2.36973 l -12.484267,6.69819 -3.015229,-5.61987 14.720556,-7.89802 q 1.61489,0.53601 3.39388,1.28449 l 8.85428,-10.00976 z M 92.758507,305.80185 108.9622,299.92906 q 1.86727,-0.67676 3.71839,-0.36182 1.85113,0.31494 3.35806,1.62312 1.50693,1.30818 2.34161,3.61114 l 3.50412,9.66827 -29.730979,10.77556 -3.504125,-9.66828 q -0.834673,-2.30295 -0.515835,-4.27286 0.318837,-1.9699 1.53832,-3.39774 1.219483,-1.42784 3.086746,-2.1046 z m 21.894253,4.38793 q -0.1898,-0.58844 -0.36275,-1.06563 -0.78204,-2.15773 -1.48092,-2.72598 -0.80624,-0.67017 -3.0262,0.13443 l -13.423552,4.86516 q -2.219969,0.8046 -2.409603,1.83571 -0.17251,0.88407 0.609527,3.0418 0.17295,0.47719 0.404246,1.05059 z m -33.073097,-19.78467 -1.305861,-6.33269 30.971828,-6.38669 1.30586,6.33269 -15.6264,3.22231 -5.128475,5.8344 21.699735,-4.47469 1.28803,6.24623 -31.015053,6.39561 -1.23968,-6.12102 0.141708,-0.18695 5.089706,-5.80386 z m 28.271697,-28.42406 -8.20139,3.73546 q 1.14875,1.47943 2.0356,2.64276 l 6.5207,-0.38622 0.38232,6.45461 -31.568146,1.86982 -0.382313,-6.45462 17.843821,-1.05691 q -1.549345,-1.89783 -3.977563,-4.45102 l -14.14288,0.83769 -0.377094,-6.3665 16.676262,-0.98775 q 1.240629,1.16449 2.540975,2.59073 l 12.238688,-5.36732 z m -18.421519,-25.55699 -0.784575,5.11773 -6.577445,-0.52466 -0.01053,0.13199 q -0.06411,0.5262 -0.09921,0.96616 -0.164944,2.06783 0.120347,2.93183 0.28529,0.86401 2.083874,1.07389 0.284221,0.0448 0.700431,0.10015 0.417965,0.0333 0.856173,0.0904 0.417965,0.0333 0.703941,0.0562 l 0.307974,0.0246 8.874973,-10.5161 5.961501,0.47553 q 1.97983,0.15793 3.53399,1.2117 1.55417,1.05377 2.38346,2.86883 0.83105,1.79307 0.63628,4.23486 l -0.74752,9.37121 -11.241048,-0.89666 0.784574,-5.11774 5.594424,-0.19575 q 0.0649,-0.81394 0.13956,-1.47213 0.0588,-0.4602 0.0904,-0.85617 0.0842,-1.05591 0.0101,-1.79238 -0.0961,-0.73822 -0.86696,-1.06537 -0.79288,-0.3289 -2.64072,-0.4763 l -0.39597,-0.0316 -9.028956,10.50381 -6.775428,-0.54046 q -1.979833,-0.15792 -3.535752,-1.1897 -1.554164,-1.05377 -2.383459,-2.86883 -0.829295,-1.81506 -0.63452,-4.25685 l 0.726456,-9.10724 z m 22.187359,-14.1292 -8.911,1.34558 q 0.69947,1.73754 1.23367,3.09934 l 6.37702,1.41504 -1.4007,6.3124 -30.872544,-6.85052 1.4007,-6.3124 17.450637,3.87225 q -0.97011,-2.2497 -2.605916,-5.37046 l -13.831246,-3.06911 1.381577,-6.22622 16.308802,3.61887 q 0.87413,1.45984 1.73397,3.18776 l 13.2409,-1.80889 z m -14.596951,-33.72693 16.111441,6.12134 q 1.85664,0.7054 3.05401,2.15183 1.19738,1.44643 1.48588,3.421 0.2885,1.97458 -0.5815,4.26443 l -3.65242,9.61323 -29.561721,-11.2316 3.652424,-9.61323 q 0.869998,-2.28985 2.396873,-3.57469 1.526875,-1.28485 3.382628,-1.57128 1.855753,-0.28643 3.712385,0.41897 z M 112.7497,206.178 q 0.24008,-0.56978 0.42035,-1.04425 0.81514,-2.14544 0.65625,-3.03206 -0.17375,-1.03391 -2.38108,-1.87255 l -13.34713,-5.07107 q -2.20733,-0.83865 -3.023783,-0.18096 -0.707538,0.55743 -1.522671,2.70287 -0.18027,0.47448 -0.379099,1.05993 z m 6.22539,-30.05332 11.21603,5.14108 -7.17799,13.37885 -27.866135,-14.95067 3.056907,-5.69768 23.568558,12.64495 0.0209,-0.0389 1.14999,-2.56354 -6.05956,-3.17593 z m -7.62317,-23.36086 3.76345,-5.25782 25.71488,18.40621 -3.76344,5.25782 -12.97409,-9.28659 -7.76552,0.19498 18.01657,12.8959 -3.71207,5.18605 -25.75078,-18.4319 3.65295,-5.06553 0.23347,-0.0229 7.71679,-0.20272 z m 16.2449,-12.2869 -0.0151,0.0161 13.12147,12.26823 q 1.7893,1.67294 2.81022,1.38882 0.86602,-0.24769 2.43346,-1.92414 0.36172,-0.38688 0.7676,-0.8533 l 2.21552,-2.36961 3.90097,3.64732 -4.82289,5.15832 q -1.67294,1.78929 -3.57286,2.3996 -1.89992,0.61031 -3.72578,0.17205 -1.8108,-0.45439 -3.26157,-1.81082 l -17.84457,-16.68419 10.12808,-10.83247 3.99769,3.73774 z m 15.97136,-21.68504 5.02357,-4.10583 16.53504,20.23098 -2.88291,11.04907 -11.4018,0.62601 -13.07162,-15.99341 -5.30882,-2.7293 6.86897,-5.6141 14.49609,17.73629 3.34774,-0.22806 0.88983,-3.23536 z m 33.43518,0.44045 7.12695,10.07157 -12.91834,7.97707 -16.61503,-26.90697 5.50156,-3.39721 14.05263,22.75732 0.0376,-0.0232 2.28029,-1.64151 -3.65065,-5.78598 z m 19.50553,4.16649 -6.41583,-6.32879 q -0.97219,1.60099 -1.74253,2.84455 l 2.68738,5.95372 -5.89338,2.66014 -13.01018,-28.823236 5.89338,-2.660141 7.35397,16.292267 q 1.22012,-2.12451 2.73889,-5.30388 l -5.82871,-12.913131 5.81292,-2.623826 6.87279,15.226237 q -0.64519,1.57446 -1.5136,3.29809 l 9.38079,9.51812 z m 18.25982,-31.89287 4.75086,16.5674 q 0.54747,1.90917 0.10667,3.73443 -0.4408,1.82525 -1.84898,3.23919 -1.40818,1.41394 -3.76283,2.08915 l -9.88528,2.83471 -8.71701,-30.398319 9.88528,-2.834702 q 2.35465,-0.675219 4.29814,-0.222405 1.94348,0.452813 3.28458,1.767092 1.34109,1.314278 1.88857,3.223454 z m -5.87502,21.5429 q 0.60005,-0.14911 1.08795,-0.28902 2.20616,-0.63264 2.82087,-1.29102 0.72374,-0.75852 0.0729,-3.02832 l -3.93574,-13.724849 q -0.65088,-2.269797 -1.66661,-2.529505 -0.8702,-0.232568 -3.07636,0.400069 -0.4879,0.139911 -1.07579,0.331449 z m 27.79281,-13.01993 2.60298,12.06046 -15.01248,2.26776 -4.7234,-31.268729 6.39339,-0.965776 3.99495,26.446405 0.0436,-0.007 2.74154,-0.615 -1.08727,-6.75446 z m 19.01357,-7.916635 -5.17206,-0.237901 -0.17521,-6.596011 -0.13236,0.0035 q -0.53004,-0.008 -0.97124,0.0037 -2.07366,0.05508 -2.90258,0.430315 -0.82891,0.375231 -0.84704,2.185929 -0.0144,0.287369 -0.0254,0.707099 0.0111,0.419145 8e-4,0.860936 0.0111,0.419144 0.0188,0.705927 l 0.008,0.308843 11.39726,7.710767 0.1588,5.978321 q 0.0527,1.98542 -0.83042,3.64249 -0.88317,1.65707 -2.60015,2.67402 -1.69491,1.01636 -4.1436,1.0814 l -9.39766,0.24963 -0.29944,-11.27278 5.17206,0.2379 0.78741,5.54219 q 0.81623,-0.0217 1.47863,-0.0172 0.46385,0.01 0.86093,-7.9e-4 1.05889,-0.0281 1.78336,-0.17983 0.72389,-0.17376 0.96752,-0.97496 0.24304,-0.82326 0.19381,-2.67632 l -0.0105,-0.39709 -11.40136,-7.865185 -0.18049,-6.794553 q -0.0527,-1.985421 0.80837,-3.641904 0.88317,-1.657069 2.60014,-2.674013 1.71698,-1.016944 4.16566,-1.08199 l 9.13294,-0.242601 z m 16.40021,20.565325 -2.2822,-8.71826 q -1.65365,0.87964 -2.95118,1.55513 l -0.73138,6.49106 -6.42527,-0.72397 3.54075,-31.42462 6.42527,0.723964 -2.0014,17.762697 q 2.13424,-1.203024 5.06411,-3.160291 l 1.5863,-14.078582 6.33755,0.71408 -1.87044,16.600447 q -1.359,1.023882 -2.98609,2.061975 l 3.2017,12.9747 z m 26.97181,-26.845719 6.25456,1.639732 -8.01958,30.589707 -6.25456,-1.63973 4.04616,-15.43361 -2.9529,-7.184826 -5.61874,21.432006 -6.16918,-1.61735 8.03077,-30.632396 6.0355,1.605115 0.10466,0.209947 2.94275,7.136539 z m 24.85236,8.660798 5.96715,2.546988 -10.25726,24.031003 -11.1262,2.56918 -5.84163,-9.81164 8.10878,-18.99748 -0.0435,-5.969149 8.15918,3.482617 -8.99243,21.067712 1.75439,2.86033 3.27913,-0.71185 z m 24.68052,21.579141 -9.02308,14.68446 q -1.03979,1.69219 -2.68442,2.59831 -1.64463,0.90613 -3.63834,0.82071 -1.99371,-0.0854 -4.08074,-1.36782 l -8.7618,-5.38381 16.5558,-26.94345 8.76179,5.38381 q 2.08703,1.28241 3.06406,3.02241 0.97703,1.74 0.91178,3.61659 -0.0652,1.8766 -1.10505,3.56879 z m -19.86467,10.19839 q 0.51491,0.34229 0.94736,0.60802 1.95542,1.20153 2.85611,1.21105 1.04817,0.0224 2.28436,-1.98939 l 7.47495,-12.16498 q 1.2362,-2.01183 0.74259,-2.93676 -0.41546,-0.79921 -2.37088,-2.00075 -0.43245,-0.26572 -0.97046,-0.57041 z m 28.36124,11.72924 -7.14563,10.05833 -11.80262,-9.55068 19.89263,-24.58307 5.02641,4.06737 -16.82475,20.79182 0.0343,0.0278 2.30362,1.60859 4.25189,-5.35969 z m 25.11008,-2.34616 4.46243,4.70964 -18.96675,17.97117 -11.23041,-2.06664 -1.45869,-11.32542 14.99399,-14.20694 2.3335,-5.4943 6.1017,6.43972 -16.62795,15.75513 0.47243,3.32207 3.2918,0.65069 z m 14.06537,29.61344 -14.11796,9.88598 q -1.62691,1.13923 -3.49623,1.3167 -1.86932,0.17748 -3.66469,-0.69363 -1.79537,-0.87111 -3.20042,-2.87763 l -5.89867,-8.42378 25.90401,-18.13906 5.89868,8.42377 q 1.40505,2.00653 1.60966,3.99155 0.20462,1.98502 -0.60143,3.68094 -0.80604,1.69593 -2.43295,2.83516 z m -22.28191,1.45895 q 0.33635,0.51881 0.62748,0.93458 1.31645,1.87998 2.13909,2.24685 0.95283,0.43735 2.88704,-0.91707 l 11.69568,-8.18979 q 1.93421,-1.35442 1.84907,-2.39936 -0.0634,-0.89851 -1.37986,-2.77849 -0.29114,-0.41577 -0.66364,-0.90926 z m 9.51146,26.06384 6.05277,-6.67687 q -1.64055,-0.90384 -2.91547,-1.62109 l -5.83517,2.93591 -2.90615,-5.77603 28.2493,-14.21339 2.90616,5.77603 -15.96786,8.03409 q 2.17405,1.12949 5.41461,2.51291 l 12.656,-6.36776 2.86648,5.69718 -14.92304,7.5084 q -1.60026,-0.57827 -3.35896,-1.37325 l -9.1143,9.77359 z m 20.00309,17.06454 -11.36604,4.80031 -5.0199,-14.32892 29.84497,-10.45569 2.13783,6.10229 -25.24222,8.84319 0.0146,0.0417 1.11408,2.57935 6.43446,-2.32436 z m 22.37726,10.15315 1.33631,6.32634 -30.94075,6.5356 -1.3363,-6.32634 15.61071,-3.29744 5.10036,-5.859 -21.67796,4.57902 -1.31806,-6.23997 30.98393,-6.54471 1.2691,6.11498 -0.1408,0.18762 -5.06173,5.82829 z m 3.39184,26.09871 0.39644,6.47588 -26.07971,1.59654 -7.28181,-8.79592 6.15452,-9.61847 20.61707,-1.26213 5.31701,-2.71331 0.54207,8.85477 -22.8638,1.39967 -1.77115,2.84999 2.10556,2.61265 z m -8.23445,31.73335 -17.1708,-1.48768 q -1.97871,-0.17143 -3.52564,-1.23579 -1.54694,-1.06435 -2.36383,-2.88503 -0.81688,-1.82068 -0.60545,-4.26109 l 0.88766,-10.24532 31.50544,2.72963 -0.88765,10.24532 q -0.21144,2.4404 -1.32929,4.09346 -1.11785,1.65305 -2.82479,2.43549 -1.70694,0.78244 -3.68565,0.61101 z m -18.01756,-13.19015 q -0.0753,0.61369 -0.11913,1.11936 -0.1981,2.28651 0.19693,3.09601 0.44956,0.94713 2.80202,1.15094 l 14.22472,1.23243 q 2.35246,0.20382 2.95822,-0.65188 0.52837,-0.7295 0.72647,-3.016 0.0438,-0.50567 0.0752,-1.12318 z m 21.68317,31.86068 -1.47896,6.29452 -30.78512,-7.23329 1.47897,-6.29452 15.53219,3.64946 7.10682,-3.136 -21.56891,-5.06785 1.45877,-6.20858 30.82808,7.24338 -1.44997,6.07464 -0.20719,0.11 -7.05881,3.12461 z m -16.91229,28.02048 -16.03662,-6.31476 q -1.84801,-0.72769 -3.0279,-2.18842 -1.17988,-1.46073 -1.4446,-3.43863 -0.26472,-1.97791 0.63277,-4.25712 l 3.76783,-9.56859 29.42443,11.58649 -3.76783,9.56859 q -0.89749,2.27921 -2.43971,3.54559 -1.54223,1.26638 -3.40129,1.53046 -1.85907,0.26408 -3.70708,-0.46361 z m -13.51656,-17.774 q -0.24692,0.56685 -0.43289,1.03912 -0.84089,2.13548 -0.69268,3.02395 0.1613,1.03592 2.35838,1.90106 l 13.28514,5.23131 q 2.19708,0.86514 3.02139,0.21732 0.71419,-0.54887 1.55508,-2.68435 0.18597,-0.47227 0.39183,-1.05529 z m -1.2396,34.62645 2.86576,-4.3121 5.7456,3.24439 0.0651,-0.1153 q 0.27963,-0.45034 0.49665,-0.83466 1.01997,-1.80631 1.12485,-2.71013 0.10487,-0.90383 -1.4383,-1.85124 -0.23895,-0.16028 -0.59321,-0.38566 -0.3651,-0.20616 -0.73857,-0.44239 -0.36511,-0.20617 -0.61492,-0.34723 l -0.26902,-0.15191 -12.47679,5.80371 -5.20756,-2.94056 q -1.72945,-0.97658 -2.6957,-2.58661 -0.96626,-1.61003 -0.95455,-3.60554 8.5e-4,-1.97629 1.20529,-4.10927 l 4.62244,-8.18605 9.81941,5.54475 -2.86576,4.3121 -5.15712,-2.17713 q -0.40148,0.71099 -0.74622,1.27662 -0.24708,0.39269 -0.4424,0.73858 -0.52084,0.92237 -0.76362,1.62161 -0.22356,0.71008 0.33801,1.33131 0.58079,0.63207 2.19494,1.54354 l 0.34588,0.19531 12.61131,-5.72776 5.91855,3.34205 q 1.72945,0.97657 2.70655,2.56739 0.96626,1.61003 0.95455,3.60554 -0.0117,1.9955 -1.21614,4.12849 l -4.49223,7.95545 z m -26.07328,3.47796 8.64958,2.53008 q 0.0968,-1.87055 0.18546,-3.33069 l -5.18904,-3.9677 3.92748,-5.13645 25.12127,19.20848 -3.92749,5.13645 -14.19974,-10.85755 q -0.0669,2.44903 0.10341,5.96841 l 11.25461,8.60561 -3.87387,5.06633 -13.27062,-10.14712 q -0.17848,-1.69214 -0.23116,-3.62146 l -12.77227,-3.93227 z m 8.36555,37.68834 -4.65516,4.51924 -18.19994,-18.74733 1.93024,-11.25466 11.30689,-1.59598 14.38779,14.82053 5.52221,2.26667 -6.36522,6.17938 -15.95569,-16.43559 -3.3161,0.5127 -0.61071,3.29945 z m -19.49435,16.13639 -5.2491,3.77561 -18.46567,-25.67222 5.2491,-3.7756 9.31659,12.95255 7.41896,2.30229 -12.93757,-17.98668 5.17744,-3.72406 18.49145,25.70805 -5.08284,3.62883 -0.22849,-0.0531 -7.37527,-2.27934 z m -31.15583,10.02432 -7.94663,-15.2938 q -0.91574,-1.76242 -0.84623,-3.63886 0.0695,-1.87644 1.16882,-3.54188 1.09931,-1.66544 3.27295,-2.79486 l 9.12537,-4.74152 14.58069,28.06149 -9.12538,4.74152 q -2.17364,1.12942 -4.16834,1.07162 -1.9947,-0.0578 -3.5701,-1.07955 -1.57541,-1.02175 -2.49115,-2.78416 z m 1.47941,-22.28056 q -0.55848,0.26531 -1.00888,0.49934 -2.03656,1.05819 -2.50827,1.82554 -0.55868,0.88715 0.53004,2.98246 l 6.58319,12.66978 q 1.08871,2.09531 2.13579,2.14811 0.89905,0.0551 2.93562,-1.00309 0.45039,-0.23402 0.98852,-0.5385 z m -27.08748,6.00693 5.82428,6.87709 q 1.11143,-1.50766 1.98988,-2.67736 l -2.14429,-6.17016 6.10762,-2.12255 10.38096,29.87104 -6.10762,2.12256 -5.86782,-16.88454 q -1.40518,2.00691 -3.20213,5.03775 l 4.65079,13.38256 -6.02424,2.09358 -5.48387,-15.77975 q 0.78338,-1.51047 1.80242,-3.14955 l -8.49219,-10.31874 z m -12.72968,35.86286 -6.34924,1.22288 -5.98081,-31.05276 6.34924,-1.22288 3.01753,15.66724 5.76678,5.20439 -4.19033,-21.75644 6.26256,-1.20617 5.98916,31.09609 -6.13671,1.15947 -0.18508,-0.14414 -5.73676,-5.16523 z m -26.14586,2.92333 -6.45999,0.27703 -1.35491,-31.59443 6.46,-0.27703 0.41318,9.63487 5.48297,0.11828 0.022,-9.5e-4 -0.42831,-9.98763 6.48204,-0.27798 0.40278,9.39234 2.61564,5.36573 -2.38116,0.10212 0.71764,16.73424 -6.48204,0.27798 -0.71764,-16.73425 -5.48989,0.23543 z"
         id="text1"
         style="-inkscape-font-specification:'Evil Empire';stroke-width:85.4087;stroke-linecap:square;paint-order:stroke fill markers;fill:#908b16;fill-opacity:1"
         transform="matrix(1.1383318,0,0,1.1383318,-35.111642,-35.367581)"
         aria-label="sdmvcnskdnkskdlncvlkdlsknvdlvdklnvdndskvndknH" />
      <path
         id="path3"
         style="fill:#a49e19;fill-opacity:1;stroke:none;stroke-width:20;stroke-linecap:square;paint-order:stroke fill markers"
         d="M 253.81758 184.24922 L 166.12629 309.03695 L 176.70808 326.98159 L 250.87771 297.61904 L 251.97842 255.17099 A 14.577481 14.805866 0 0 1 240.90364 240.83181 A 14.577481 14.805866 0 0 1 252.72669 226.32675 L 253.81758 184.24922 z " />
      <path
         style="fill:#a49e19;fill-opacity:1;stroke:none;stroke-width:3;stroke-linecap:square;stroke-dasharray:none;stroke-opacity:1;paint-order:stroke fill markers"
         d="m 252.48078,255.63763 c 0.59479,0.81683 23.89091,-6.6589 9.44999,-28.08383 0.37175,-1.491 11.39281,2.33182 11.39281,2.33182 l 5.57231,17.53984 -12.5331,12.09423 -10.95151,-1.03098 z"
         id="path7"
         sodipodi:nodetypes="ccccccc" />
      <path
         id="path2"
         style="fill:#908b16;stroke-width:20;stroke-linecap:square;paint-order:stroke fill markers"
         inkscape:transform-center-x="3.1163479e-06"
         inkscape:transform-center-y="-23.787064"
         d="M 253.81758 184.29366 L 217.90866 255.62006 L 176.70808 326.98159 L 259.10873 326.98159 L 341.5099 326.98159 L 300.30932 255.62006 L 253.81758 184.29366 z M 255.48156 226.026 A 14.577481 14.805866 0 0 1 270.05897 240.83181 A 14.577481 14.805866 0 0 1 255.48156 255.63763 A 14.577481 14.805866 0 0 1 240.90364 240.83181 A 14.577481 14.805866 0 0 1 255.48156 226.026 z " />
      <path
         id="path5"
         style="color:#000000;fill:#908b16;stroke-linecap:square;-inkscape-stroke:none;paint-order:stroke fill markers"
         d="M 108.11552 94.784278 A 144.09079 144.09079 0 0 0 105.10847 94.999252 L 104.2248 130.84978 L 104.18759 132.34943 L 107.18689 132.42332 L 107.2241 130.92367 L 108.11552 94.784278 z M 112.86355 97.187232 L 112.82686 98.686882 L 112.02897 131.04201 L 111.99228 132.54218 L 114.99107 132.61608 L 115.02776 131.11591 L 115.82564 98.761296 L 115.86285 97.261129 L 112.86355 97.187232 z M 152.64407 99.785006 L 132.20139 133.25893 L 131.41952 134.53896 L 133.98009 136.10269 L 134.76195 134.82266 L 155.64802 100.62216 A 144.09079 144.09079 0 0 0 152.64407 99.785006 z M 61.411908 104.58781 A 144.09079 144.09079 0 0 0 58.572288 105.64718 L 78.791725 142.75189 L 79.509511 144.06912 L 82.143976 142.63355 L 81.42619 141.31632 L 61.411908 104.58781 z M 72.076373 107.84446 L 69.441909 109.27952 L 70.159694 110.59727 L 85.646604 139.0162 L 86.36439 140.33344 L 88.998338 138.89838 L 88.280552 137.58063 L 72.794159 109.16169 L 72.076373 107.84446 z M 156.51411 108.42582 L 155.73225 109.70636 L 138.86403 137.32793 L 138.08216 138.60796 L 140.64221 140.17169 L 141.42408 138.89115 L 158.2923 111.26958 L 159.07416 109.98955 L 156.51411 108.42582 z M 201.39199 124.17525 L 155.2253 149.3334 L 153.90807 150.05119 L 155.34364 152.68617 L 156.66087 151.96787 L 203.97013 126.18753 A 144.09079 144.09079 0 0 0 201.39199 124.17525 z M 15.506699 133.42946 A 144.09079 144.09079 0 0 0 13.324404 135.61176 L 62.716738 165.77581 L 63.99728 166.55767 L 65.561008 163.99711 L 64.280466 163.21524 L 15.506699 133.42946 z M 39.447357 138.90252 L 37.884145 141.46308 L 39.16417 142.24495 L 66.78574 159.11317 L 68.066282 159.89503 L 69.629494 157.33498 L 68.349469 156.55312 L 40.727899 139.68438 L 39.447357 138.90252 z M 188.69716 139.9841 L 187.37993 140.70189 L 158.96099 156.1888 L 157.64376 156.90658 L 159.07881 159.54053 L 160.39605 158.82275 L 188.8155 143.33584 L 190.13273 142.61805 L 188.69716 139.9841 z M 165.62777 174.72979 L 165.55387 177.72909 L 167.05352 177.76578 L 231.76585 179.36154 L 233.2655 179.39875 L 233.3394 176.39893 L 231.83975 176.36224 L 167.12742 174.76648 L 165.62777 174.72979 z M 26.719452 182.11435 L 26.645554 185.11313 L 28.145204 185.15034 L 60.500335 185.94822 L 61.999986 185.98491 L 62.073883 182.98613 L 60.574233 182.94944 L 28.219102 182.15155 L 26.719452 182.11435 z M 165.43502 182.53396 L 165.36112 185.53274 L 166.86077 185.56995 L 199.2159 186.36783 L 200.71607 186.40453 L 200.78996 183.40574 L 199.29031 183.36853 L 166.93518 182.57117 L 165.43502 182.53396 z M -5.8299827 189.12064 L -5.9043968 192.11994 L -4.40423 192.15715 L 60.308099 193.7524 L 61.807749 193.7896 L 61.881646 190.7903 L 60.381996 190.7531 L -4.3303327 189.15733 L -5.8299827 189.12064 z M 163.43824 201.9612 L 161.87399 204.52177 L 163.15453 205.30363 L 218.39922 239.04162 L 219.67977 239.82349 L 221.2435 237.26292 L 219.96295 236.48106 L 164.71826 202.74306 L 163.43824 201.9612 z M 159.36924 208.62384 L 157.80551 211.18441 L 159.08605 211.96627 L 186.70762 228.83449 L 187.98764 229.61636 L 189.55137 227.05631 L 188.27083 226.27444 L 160.64926 209.40571 L 159.36924 208.62384 z M 68.356187 208.97886 L 67.038954 209.69664 L 38.6195 225.18304 L 37.302268 225.90082 L 38.73784 228.53529 L 40.055072 227.81698 L 68.474526 212.33059 L 69.791758 211.61281 L 68.356187 208.97886 z M 72.091359 215.83322 L 70.774127 216.55101 L 13.933669 247.52534 L 12.616437 248.24313 L 14.052525 250.87759 L 15.369757 250.15981 L 72.209698 219.18547 L 73.526931 218.46768 L 72.091359 215.83322 z M 147.92601 224.45026 L 145.29103 225.88584 L 146.00933 227.20307 L 176.98366 284.04301 L 177.70145 285.36076 L 180.33591 283.92467 L 179.61813 282.60744 L 148.64379 225.7675 L 147.92601 224.45026 z M 141.07061 228.18544 L 138.43666 229.62101 L 139.15445 230.93824 L 154.64136 259.35769 L 155.35914 260.67493 L 157.99309 259.23936 L 157.27531 257.92212 L 141.7884 229.50267 L 141.07061 228.18544 z M 86.792787 228.3477 L 86.010923 229.62773 L 69.142702 257.2493 L 68.360838 258.52984 L 70.920888 260.09305 L 71.702752 258.81303 L 88.57149 231.19146 L 89.353355 229.91091 L 86.792787 228.3477 z M 93.454913 232.41619 L 92.673049 233.69673 L 58.935056 288.94142 L 58.153192 290.22144 L 60.713759 291.78517 L 61.49614 290.50515 L 95.233616 235.26046 L 96.015997 233.97992 L 93.454913 232.41619 z M 123.21279 236.16841 A 14.577481 14.805866 0 0 1 120.21039 237.61845 L 118.61565 302.30753 L 118.57844 303.80718 L 121.57774 303.88108 L 121.61495 302.38143 L 123.21072 237.6691 L 123.24741 236.16945 L 123.21279 236.16841 z M 112.38916 238.13832 L 111.60936 269.75809 L 111.57267 271.25774 L 114.57145 271.33164 L 114.60866 269.83199 L 115.38122 238.49179 A 14.577481 14.805866 0 0 1 112.38916 238.13832 z "
         transform="translate(140.10034,17.145841)" />
    </g>
  </g>
</svg>
