<?xml version="1.0" encoding="UTF-8" standalone="no"?>
<!-- Created with Inkscape (http://www.inkscape.org/) -->

<svg
   width="500mm"
   height="500mm"
   viewBox="0 0 500 500"
   version="1.1"
   id="svg1"
   inkscape:version="1.3.2 (091e20e, 2023-11-25)"
   xml:space="preserve"
   sodipodi:docname="ZEN.svg"
   xmlns:inkscape="http://www.inkscape.org/namespaces/inkscape"
   xmlns:sodipodi="http://sodipodi.sourceforge.net/DTD/sodipodi-0.dtd"
   xmlns="http://www.w3.org/2000/svg"
   xmlns:svg="http://www.w3.org/2000/svg"><sodipodi:namedview
     id="namedview1"
     pagecolor="#ffffff"
     bordercolor="#000000"
     borderopacity="0.25"
     inkscape:showpageshadow="2"
     inkscape:pageopacity="0.0"
     inkscape:pagecheckerboard="0"
     inkscape:deskcolor="#d1d1d1"
     inkscape:document-units="mm"
     showgrid="false"
     inkscape:zoom="0.25982083"
     inkscape:cx="944.88189"
     inkscape:cy="944.88189"
     inkscape:window-width="1356"
     inkscape:window-height="697"
     inkscape:window-x="0"
     inkscape:window-y="0"
     inkscape:window-maximized="1"
     inkscape:current-layer="layer1" /><defs
     id="defs1"><inkscape:path-effect
       effect="copy_rotate"
       starting_point="523.98798,66.879835"
       origin="498.14434,83.558465"
       id="path-effect11"
       is_visible="true"
       lpeversion="1.2"
       lpesatellites=""
       method="normal"
       num_copies="6"
       starting_angle="32.83686"
       rotation_angle="60"
       gap="-0.01"
       copies_to_360="true"
       mirror_copies="false"
       split_items="false"
       link_styles="false" /><inkscape:path-effect
       effect="mirror_symmetry"
       start_point="255.52744,301.93293"
       end_point="255.52744,304.96565"
       center_point="255.52744,303.44929"
       id="path-effect7"
       is_visible="true"
       lpeversion="1.2"
       lpesatellites=""
       mode="free"
       discard_orig_path="false"
       fuse_paths="false"
       oposite_fuse="false"
       split_items="false"
       split_open="false"
       link_styles="false" /><inkscape:path-effect
       effect="mirror_symmetry"
       start_point="256.25569,294.94144"
       end_point="256.25569,313.0702"
       center_point="256.25569,304.00582"
       id="path-effect6"
       is_visible="true"
       lpeversion="1.2"
       lpesatellites=""
       mode="free"
       discard_orig_path="false"
       fuse_paths="false"
       oposite_fuse="false"
       split_items="false"
       split_open="false"
       link_styles="false" /></defs><g
     inkscape:label="Layer 1"
     inkscape:groupmode="layer"
     id="layer1"><g
       id="g12"><path
         id="path10"
         style="fill:#0d0d0b;fill-opacity:1;stroke:none;stroke-width:0.670067;stroke-linecap:round;stroke-linejoin:round;stroke-dasharray:none;stroke-opacity:1"
         d="M 261.56233 132.10253 A 46.509158 46.509158 0 0 0 215.05302 178.61235 A 46.509158 46.509158 0 0 0 261.56233 225.12114 A 46.509158 46.509158 0 0 0 308.07163 178.61235 A 46.509158 46.509158 0 0 0 261.56233 132.10253 z " /><path
         style="fill:#0d0d0b;fill-opacity:1;stroke:none;stroke-width:1;stroke-linecap:round;stroke-linejoin:round;stroke-dasharray:none;stroke-opacity:1"
         d="m 528.50804,350.1814 25.53263,-58.17889 -33.43786,-30.2739 -8.4474,-43.64155 -44.27023,-10.29717 -1.4123,-20.46023 -45.36639,-23.67571 31.11822,73.76539 31.97175,24.0316 z m 215.72039,-159.6072 -37.61809,-51.20135 -42.93689,13.82108 -42.01839,-14.50511 -31.05273,33.19056 -18.42523,-9.00703 -43.18696,27.45059 79.44181,9.93353 36.79785,-15.67255 z m -30.3637,-266.622938 -63.15071,6.977541 -9.49904,44.094981 -33.571,29.1364386 13.21751,43.4877334 -17.01293,11.453201 2.17943,51.126303 48.32359,-63.831863 4.8261,-39.7041507 z m -246.08409,-107.015732 -25.53263,58.17889 33.43786,30.273896 8.4474,43.641556 44.27023,10.297168 1.4123,20.460231 45.36639,23.6757095 -31.11822,-73.7653865 -31.97175,-24.031603 z m -215.72039,159.6072 37.61809,51.201351 42.93689,-13.821084 42.01839,14.505118 31.05273,-33.1905665 18.42523,9.0070307 43.18696,-27.4505932 -79.44181,-9.933524 -36.79785,15.672547 z m 30.3637,266.62294 63.15071,-6.97754 9.49904,-44.09498 33.571,-29.13644 -13.21751,-43.48774 17.01293,-11.4532 -2.17943,-51.1263 -48.32359,63.83186 -4.8261,39.70415 z"
         id="path11"
         inkscape:path-effect="#path-effect11"
         inkscape:original-d="m 379.08048,324.04452 53.00041,-35.03791 -11.6791,-43.56831 16.56693,-41.24901 -31.61302,-32.65735 9.9079,-17.95687 -25.27953,-44.49263 -13.85311,78.85282 13.83213,37.52843 z"
         transform="matrix(0.54335177,0,0,0.54335177,-7.8234355,133.42805)"
         sodipodi:nodetypes="cccccccccc" /></g><text
       xml:space="preserve"
       style="font-style:normal;font-variant:normal;font-weight:normal;font-stretch:normal;font-size:97.8417px;line-height:1;font-family:'Star Brush - Demo Version';-inkscape-font-specification:'Star Brush - Demo Version';letter-spacing:0px;word-spacing:0px;fill:#0d0d0b;fill-opacity:1;stroke:none;stroke-width:8.66707;stroke-linecap:round;stroke-linejoin:round;stroke-dasharray:none;stroke-opacity:1"
       x="179.34866"
       y="438.12003"
       id="text12"><tspan
         sodipodi:role="line"
         id="tspan12"
         style="font-style:normal;font-variant:normal;font-weight:normal;font-stretch:normal;font-family:'Star Brush - Demo Version';-inkscape-font-specification:'Star Brush - Demo Version';stroke-width:8.66707"
         x="179.34866"
         y="438.12003">ZEN</tspan></text></g></svg>
