<?xml version="1.0" encoding="UTF-8" standalone="no"?>
<!-- Created with Inkscape (http://www.inkscape.org/) -->

<svg
   width="1920mm"
   height="1080mm"
   viewBox="0 0 1920 1080"
   version="1.1"
   id="svg1"
   inkscape:version="1.3.2 (091e20e, 2023-11-25)"
   xml:space="preserve"
   sodipodi:docname="MO Book Shop Backdrop.svg"
   xmlns:inkscape="http://www.inkscape.org/namespaces/inkscape"
   xmlns:sodipodi="http://sodipodi.sourceforge.net/DTD/sodipodi-0.dtd"
   xmlns="http://www.w3.org/2000/svg"
   xmlns:svg="http://www.w3.org/2000/svg"><sodipodi:namedview
     id="namedview1"
     pagecolor="#ffffff"
     bordercolor="#000000"
     borderopacity="0.25"
     inkscape:showpageshadow="2"
     inkscape:pageopacity="0.0"
     inkscape:pagecheckerboard="0"
     inkscape:deskcolor="#d1d1d1"
     inkscape:document-units="mm"
     showgrid="false"
     inkscape:zoom="0.092052951"
     inkscape:cx="3628.3465"
     inkscape:cy="2036.8711"
     inkscape:window-width="1356"
     inkscape:window-height="697"
     inkscape:window-x="0"
     inkscape:window-y="0"
     inkscape:window-maximized="1"
     inkscape:current-layer="layer1" /><defs
     id="defs1" /><g
     inkscape:label="Layer 1"
     inkscape:groupmode="layer"
     id="layer1"><rect
       style="fill:#0b0b0b;fill-opacity:1;stroke-width:0.5;stroke-linecap:round;stroke-linejoin:round"
       id="rect26"
       width="1920"
       height="1080"
       x="-9.9999988e-07"
       y="-8.2540578e-07" /><path
       id="path5"
       style="fill:#f3f3f3;stroke-width:3;stroke-linecap:round"
       d="M 0 0 L 0 1080.0002 L 154.71562 1080.0002 C 168.584 1063.7135 184.13951 1048.6761 200.19347 1034.4878 C 257.37409 983.95218 342.93373 942.11042 351.7191 858.54604 C 363.88151 742.86001 305.20553 765.26994 252.6006 692.18721 C 164.22863 569.4142 143.57987 433.78004 270.82946 332.19419 C 425.03569 209.08833 617.71093 341.66365 776.67352 378.14539 C 800.3396 383.57673 823.44107 395.63042 847.68934 394.36353 C 873.7154 393.00373 909.0602 367.34062 930.85739 354.55562 C 985.5274 322.48934 1046.2103 289.20466 1090.3583 242.99447 C 1159.8116 170.29676 1197.7803 76.447101 1259.6549 0 L 0 0 z " /><g
       id="g28"
       transform="matrix(1.9591768,0,0,1.9591768,468.95236,40.99708)"
       style="stroke-width:0.510418"><g
         id="g27"
         style="stroke-width:0.510418"><g
           id="g14"
           transform="matrix(2.1070907,0.40677688,-0.40677688,2.1070907,-229.60328,-405.9701)"
           style="stroke-width:0.237847"><g
             id="g12"
             transform="matrix(0.33349668,0,0,0.33349668,234.94587,159.09454)"
             style="stroke-width:0.713192"><path
               id="path1"
               style="fill:#d3d3d3;stroke-width:0.356594;stroke-linecap:round;stroke-linejoin:round"
               d="M 310.91694,119.13743 H 122.09177 c -5.44221,0 -10.08304,-0.82056 -12.35015,-2.00918 v 94.76838 h 201.17532 z" /><path
               id="path2"
               style="fill:#d3d3d3;stroke-width:0.356594;stroke-linecap:round;stroke-linejoin:round"
               d="M 310.91694,112.04329 H 126.11788 c -7.35278,0 -13.27257,1.54847 -13.27257,3.47162 0,1.92315 5.91979,3.47111 13.27257,3.47111 h 184.79906 z" /><path
               id="path4"
               style="fill:#d3d3d3;stroke-width:0.356594;stroke-linecap:round;stroke-linejoin:round"
               d="m 122.09177,111.89188 c -5.44221,0 -10.08304,0.82093 -12.35015,2.00969 v 3.22668 c 2.26711,1.18862 6.90794,2.00918 12.35015,2.00918 h 188.82517 v -0.15141 H 126.11788 c -7.35278,0 -13.27257,-1.54796 -13.27257,-3.47111 0,-1.92315 5.91979,-3.47162 13.27257,-3.47162 h 184.79906 v -0.15141 z" /><rect
               style="fill:#f0f0f0;fill-opacity:1;stroke:none;stroke-width:0.356594;stroke-linecap:round;stroke-linejoin:round;stroke-dasharray:none;stroke-opacity:1"
               id="rect7"
               width="201.17538"
               height="100.00463"
               x="109.74155"
               y="114.69014" /><rect
               style="fill:#fcffff;fill-opacity:1;stroke:none;stroke-width:0.356594;stroke-linecap:round;stroke-linejoin:round;stroke-dasharray:none;stroke-opacity:1"
               id="rect8"
               width="201.17538"
               height="100.00463"
               x="109.74155"
               y="117.4884" /><path
               id="path10"
               style="fill:#00d1e2;stroke-width:2.13957;stroke-linecap:round;stroke-linejoin:round"
               d="m 108.24094,115.51491 v 246.37153 l 7.94422,3.27961 194.73178,0.19149 V 119.13743 l -193.89308,-0.35398 c -2.51924,-0.67711 -5.40289,-1.67893 -8.78292,-3.26854 z"
               sodipodi:nodetypes="ccccccc" /><path
               id="path11"
               style="fill:#00d1e2;stroke-width:2.13957;stroke-linecap:round;stroke-linejoin:round"
               d="m 122.09177,111.89188 c -7.67318,0 -13.85083,1.61608 -13.85083,3.62303 0,2.00694 6.17765,3.62252 13.85083,3.62252 h 188.82517 v -0.15141 H 126.11788 c -7.35279,0 -13.27257,-1.54796 -13.27257,-3.47111 0,-1.92315 5.91978,-3.47162 13.27257,-3.47162 h 184.79906 v -0.15141 z" /><path
               id="path12"
               style="fill:#00d1e2;stroke-width:2.13957;stroke-linecap:round;stroke-linejoin:round"
               d="m 122.09177,358.26316 c -7.67318,0 -13.85083,1.61608 -13.85083,3.62303 0,2.00694 6.17765,3.62252 13.85083,3.62252 H 310.91694 V 365.3573 H 126.11788 c -7.35279,0 -13.27257,-1.54796 -13.27257,-3.47111 0,-1.92315 5.91978,-3.47162 13.27257,-3.47162 h 184.79906 v -0.15141 z" /></g><text
             xml:space="preserve"
             style="font-style:normal;font-variant:normal;font-weight:normal;font-stretch:normal;font-size:62.1333px;line-height:1;font-family:Gotham;-inkscape-font-specification:Gotham;text-align:center;letter-spacing:0px;word-spacing:0px;text-anchor:middle;fill:#00818b;fill-opacity:1;stroke-width:0.118923;stroke-linecap:round;stroke-linejoin:round"
             x="304.65335"
             y="260.22949"
             id="text12"><tspan
               sodipodi:role="line"
               id="tspan12"
               style="font-style:normal;font-variant:normal;font-weight:normal;font-stretch:normal;font-family:Gotham;-inkscape-font-specification:Gotham;fill:#00818b;fill-opacity:1;stroke-width:0.118923"
               x="304.65335"
               y="260.22949">O</tspan></text></g><path
           id="path14"
           style="opacity:0.621112;fill:#000000;fill-opacity:1;stroke-width:0.255208;stroke-linecap:round;stroke-linejoin:round"
           d="m 259.2582,130.35474 -31.55695,163.45613 c -0.19615,1.01628 1.90843,2.32098 5.1068,3.36241 l 0.0311,0.0193 0.0644,0.0129 c 1.21577,0.39098 2.57341,0.74711 4.03999,1.03023 l 41.37027,7.98684 -0.0129,-0.11202 -38.50803,-7.43455 c -1.01529,-0.19593 -1.96253,-0.43456 -2.86115,-0.68867 l 41.3592,8.02675 -0.0476,-0.43915 h 10e-4 l -0.0107,-0.10752 h -0.001 l -10.85352,-100.16032 -0.43141,-3.98233 -0.53229,-4.91385 -6.61948,-61.08563 -0.004,-0.0311 -10e-4,-0.015 -0.006,-0.062 h -10e-4 l -0.11524,-1.06572 z" /><g
           id="g13"
           transform="matrix(2.1335078,-0.23117702,0.23117702,2.1335078,-323.47335,-232.60987)"
           style="stroke-width:0.237847"><g
             id="g1"
             transform="matrix(0.33349668,0,0,0.33349668,139.68506,159.09454)"
             style="stroke-width:0.713192"><path
               id="rect6"
               style="fill:#d3d3d3;stroke-width:0.356594;stroke-linecap:round;stroke-linejoin:round"
               d="M 310.91694,119.13743 H 122.09177 c -5.44221,0 -10.08304,-0.82056 -12.35015,-2.00918 v 94.76838 h 201.17532 z" /><path
               id="path9"
               style="fill:#d3d3d3;stroke-width:0.356594;stroke-linecap:round;stroke-linejoin:round"
               d="M 310.91694,112.04329 H 126.11788 c -7.35278,0 -13.27257,1.54847 -13.27257,3.47162 0,1.92315 5.91979,3.47111 13.27257,3.47111 h 184.79906 z" /><path
               id="path8"
               style="fill:#d3d3d3;stroke-width:0.356594;stroke-linecap:round;stroke-linejoin:round"
               d="m 122.09177,111.89188 c -5.44221,0 -10.08304,0.82093 -12.35015,2.00969 v 3.22668 c 2.26711,1.18862 6.90794,2.00918 12.35015,2.00918 h 188.82517 v -0.15141 H 126.11788 c -7.35278,0 -13.27257,-1.54796 -13.27257,-3.47111 0,-1.92315 5.91979,-3.47162 13.27257,-3.47162 h 184.79906 v -0.15141 z" /><rect
               style="fill:#f0f0f0;fill-opacity:1;stroke:none;stroke-width:0.356594;stroke-linecap:round;stroke-linejoin:round;stroke-dasharray:none;stroke-opacity:1"
               id="rect5"
               width="201.17538"
               height="100.00463"
               x="109.74155"
               y="114.69014" /><rect
               style="fill:#fcffff;fill-opacity:1;stroke:none;stroke-width:0.356594;stroke-linecap:round;stroke-linejoin:round;stroke-dasharray:none;stroke-opacity:1"
               id="rect4"
               width="201.17538"
               height="100.00463"
               x="109.74155"
               y="117.4884" /><path
               id="rect1"
               style="fill:#00d1e2;stroke-width:2.13957;stroke-linecap:round;stroke-linejoin:round"
               d="m 108.24094,115.51491 v 246.37153 l 7.94422,3.27961 194.73178,0.19149 V 119.13743 l -193.89308,-0.35398 c -2.51924,-0.67711 -5.40289,-1.67893 -8.78292,-3.26854 z"
               sodipodi:nodetypes="ccccccc" /><path
               id="rect2"
               style="fill:#00d1e2;stroke-width:2.13957;stroke-linecap:round;stroke-linejoin:round"
               d="m 122.09177,111.89188 c -7.67318,0 -13.85083,1.61608 -13.85083,3.62303 0,2.00694 6.17765,3.62252 13.85083,3.62252 h 188.82517 v -0.15141 H 126.11788 c -7.35279,0 -13.27257,-1.54796 -13.27257,-3.47111 0,-1.92315 5.91978,-3.47162 13.27257,-3.47162 h 184.79906 v -0.15141 z" /><path
               id="path3"
               style="fill:#00d1e2;stroke-width:2.13957;stroke-linecap:round;stroke-linejoin:round"
               d="m 122.09177,358.26316 c -7.67318,0 -13.85083,1.61608 -13.85083,3.62303 0,2.00694 6.17765,3.62252 13.85083,3.62252 H 310.91694 V 365.3573 H 126.11788 c -7.35279,0 -13.27257,-1.54796 -13.27257,-3.47111 0,-1.92315 5.91978,-3.47162 13.27257,-3.47162 h 184.79906 v -0.15141 z" /></g><text
             xml:space="preserve"
             style="font-style:normal;font-variant:normal;font-weight:normal;font-stretch:normal;font-size:62.1333px;line-height:1;font-family:Gotham;-inkscape-font-specification:Gotham;text-align:center;letter-spacing:0px;word-spacing:0px;text-anchor:middle;fill:#00818b;fill-opacity:1;stroke-width:0.118923;stroke-linecap:round;stroke-linejoin:round"
             x="209.39249"
             y="260.22949"
             id="text1"><tspan
               sodipodi:role="line"
               id="tspan1"
               style="font-style:normal;font-variant:normal;font-weight:normal;font-stretch:normal;font-family:Gotham;-inkscape-font-specification:Gotham;fill:#00818b;fill-opacity:1;stroke-width:0.118923"
               x="209.39249"
               y="260.22949">M</tspan></text></g></g><g
         id="g26"
         transform="translate(-3.087777)"
         style="stroke-width:0.510418"><text
           xml:space="preserve"
           style="font-style:normal;font-variant:normal;font-weight:normal;font-stretch:normal;font-size:38.759px;line-height:1;font-family:Gotham;-inkscape-font-specification:Gotham;text-align:center;letter-spacing:0px;word-spacing:0px;text-anchor:middle;opacity:0.621112;fill:#00d1e2;fill-opacity:1;stroke-width:0.255209;stroke-linecap:round;stroke-linejoin:round"
           x="253.68877"
           y="388.90424"
           id="text26"><tspan
             sodipodi:role="line"
             id="tspan26"
             style="fill:#00d1e2;fill-opacity:1;stroke-width:0.25521"
             x="253.68877"
             y="388.90424">BOOK     SHOP</tspan></text><path
           sodipodi:type="star"
           style="opacity:1;fill:#048691;fill-opacity:1;stroke-width:0.255209;stroke-linecap:round;stroke-linejoin:round"
           id="path26"
           inkscape:flatsided="false"
           sodipodi:sides="4"
           sodipodi:cx="251.06026"
           sodipodi:cy="373.02036"
           sodipodi:r1="6.8197627"
           sodipodi:r2="2.7544315"
           sodipodi:arg1="0.78539816"
           sodipodi:arg2="1.5254602"
           inkscape:rounded="0"
           inkscape:randomized="0"
           d="m 255.88256,377.84266 -4.69747,-2.0707 -4.94713,2.0707 2.0707,-4.69747 -2.0707,-4.94714 4.69746,2.0707 4.94714,-2.0707 -2.0707,4.69747 z"
           inkscape:transform-center-x="-1.1047261e-06"
           inkscape:transform-center-y="-5.4518027e-06"
           transform="rotate(45,249.4318,377.46701)" /></g></g></g></svg>
