<?xml version="1.0" encoding="UTF-8" standalone="no"?>
<!-- Created with Inkscape (http://www.inkscape.org/) -->

<svg
   width="353.51181mm"
   height="500.00015mm"
   viewBox="0 0 353.51181 500.00015"
   version="1.1"
   id="svg1"
   inkscape:version="1.3.2 (091e20e, 2023-11-25)"
   xml:space="preserve"
   sodipodi:docname="Phone-icon ( pink ).svg"
   inkscape:export-filename="Phone-icon ( pink ).png"
   inkscape:export-xdpi="96"
   inkscape:export-ydpi="96"
   xmlns:inkscape="http://www.inkscape.org/namespaces/inkscape"
   xmlns:sodipodi="http://sodipodi.sourceforge.net/DTD/sodipodi-0.dtd"
   xmlns="http://www.w3.org/2000/svg"
   xmlns:svg="http://www.w3.org/2000/svg"><sodipodi:namedview
     id="namedview1"
     pagecolor="#ffffff"
     bordercolor="#000000"
     borderopacity="0.25"
     inkscape:showpageshadow="2"
     inkscape:pageopacity="0.0"
     inkscape:pagecheckerboard="0"
     inkscape:deskcolor="#d1d1d1"
     inkscape:document-units="mm"
     showgrid="false"
     inkscape:zoom="0.25982083"
     inkscape:cx="912.16704"
     inkscape:cy="944.88189"
     inkscape:window-width="1356"
     inkscape:window-height="697"
     inkscape:window-x="0"
     inkscape:window-y="0"
     inkscape:window-maximized="1"
     inkscape:current-layer="layer1" /><defs
     id="defs1" /><g
     inkscape:label="Layer 1"
     inkscape:groupmode="layer"
     id="layer1"
     transform="translate(-73.244038)"><path
       id="path1"
       style="fill:#d2018a;stroke-width:1;fill-opacity:1"
       d="M 110.41374,9.5539355 C 80.654849,27.364475 67.409233,62.224653 75.65153,94.183238 l -0.0185,0.0067 c 28.3934,143.350202 82.95045,230.791502 134.27504,291.752292 51.32456,60.96076 97.10639,94.40256 97.10639,94.40256 l 0.003,-0.006 c 24.27709,21.9019 60.9083,26.47113 90.42622,8.80482 36.21541,-21.67473 36.19346,-63.2195 14.51874,-99.43489 -21.67472,-36.2154 -56.79449,-53.38751 -93.00989,-31.71278 -4.52692,2.70935 -8.67225,5.81371 -12.41815,9.24202 -9.88753,-9.33105 -20.92392,-20.69727 -32.91376,-34.93822 -33.6111,-39.92157 -71.61919,-99.42445 -98.91951,-184.95778 4.85708,-1.68993 9.61661,-3.8935 14.20307,-6.63848 36.21541,-21.67471 36.19301,-63.220229 14.5183,-99.435624 -21.67445,-36.2172952 -56.79379,-53.38866 -93.0092,-31.7139396 z" /></g></svg>
